<?xml version="1.0" encoding="utf-8" standalone="no"?>
<!DOCTYPE svg PUBLIC "-//W3C//DTD SVG 1.1//EN"
  "http://www.w3.org/Graphics/SVG/1.1/DTD/svg11.dtd">
<svg height="432pt" version="1.1" viewBox="0 0 720 432" width="720pt" xmlns="http://www.w3.org/2000/svg" xmlns:xlink="http://www.w3.org/1999/xlink">
 <metadata>
  <rdf:RDF xmlns:cc="http://creativecommons.org/ns#" xmlns:dc="http://purl.org/dc/elements/1.1/" xmlns:rdf="http://www.w3.org/1999/02/22-rdf-syntax-ns#">
   <cc:Work>
    <dc:type rdf:resource="http://purl.org/dc/dcmitype/StillImage"/>
    <dc:date>2021-08-25T16:30:03.514997</dc:date>
    <dc:format>image/svg+xml</dc:format>
    <dc:creator>
     <cc:Agent>
      <dc:title>Matplotlib v3.4.2, https://matplotlib.org/</dc:title>
     </cc:Agent>
    </dc:creator>
   </cc:Work>
  </rdf:RDF>
 </metadata>
 <defs>
  <style type="text/css">*{stroke-linecap:butt;stroke-linejoin:round;}</style>
 </defs>
 <g id="figure_1">
  <g id="patch_1">
   <path d="M 0 432 
L 720 432 
L 720 0 
L 0 0 
z
" style="fill:#ffffff;"/>
  </g>
  <g id="axes_1">
   <g id="patch_2">
    <path d="M 90 384.48 
L 648 384.48 
L 648 51.84 
L 90 51.84 
z
" style="fill:#ffffff;"/>
   </g>
   <g id="matplotlib.axis_1">
    <g id="xtick_1">
     <g id="line2d_1">
      <path clip-path="url(#p3effb83ea9)" d="M 90 384.48 
L 90 51.84 
" style="fill:none;stroke:#cccccc;stroke-linecap:round;stroke-width:0.8;"/>
     </g>
     <g id="line2d_2"/>
     <g id="text_1">
      <!-- 2.00 -->
      <g style="fill:#262626;" transform="translate(80.269531 395.226875)scale(0.1 -0.1)">
       <defs>
        <path d="M 322 0 
L 322 397 
Q 481 763 711 1042 
Q 941 1322 1194 1548 
Q 1447 1775 1695 1969 
Q 1944 2163 2144 2356 
Q 2344 2550 2467 2762 
Q 2591 2975 2591 3244 
Q 2591 3431 2534 3573 
Q 2478 3716 2372 3812 
Q 2266 3909 2117 3957 
Q 1969 4006 1788 4006 
Q 1619 4006 1470 3959 
Q 1322 3913 1206 3819 
Q 1091 3725 1017 3586 
Q 944 3447 922 3263 
L 347 3316 
Q 375 3553 478 3762 
Q 581 3972 762 4130 
Q 944 4288 1198 4378 
Q 1453 4469 1788 4469 
Q 2116 4469 2372 4391 
Q 2628 4313 2804 4159 
Q 2981 4006 3075 3781 
Q 3169 3556 3169 3263 
Q 3169 3041 3089 2841 
Q 3009 2641 2876 2459 
Q 2744 2278 2569 2109 
Q 2394 1941 2203 1780 
Q 2013 1619 1819 1461 
Q 1625 1303 1454 1143 
Q 1284 984 1150 820 
Q 1016 656 941 478 
L 3238 478 
L 3238 0 
L 322 0 
z
" id="LiberationSans-32" transform="scale(0.015625)"/>
        <path d="M 584 0 
L 584 684 
L 1194 684 
L 1194 0 
L 584 0 
z
" id="LiberationSans-2e" transform="scale(0.015625)"/>
        <path d="M 3309 2203 
Q 3309 1569 3189 1136 
Q 3069 703 2861 436 
Q 2653 169 2372 53 
Q 2091 -63 1772 -63 
Q 1450 -63 1172 53 
Q 894 169 689 434 
Q 484 700 367 1133 
Q 250 1566 250 2203 
Q 250 2869 367 3305 
Q 484 3741 690 4000 
Q 897 4259 1178 4364 
Q 1459 4469 1791 4469 
Q 2106 4469 2382 4364 
Q 2659 4259 2865 4000 
Q 3072 3741 3190 3305 
Q 3309 2869 3309 2203 
z
M 2738 2203 
Q 2738 2728 2675 3076 
Q 2613 3425 2491 3633 
Q 2369 3841 2192 3927 
Q 2016 4013 1791 4013 
Q 1553 4013 1372 3925 
Q 1191 3838 1067 3630 
Q 944 3422 881 3073 
Q 819 2725 819 2203 
Q 819 1697 883 1350 
Q 947 1003 1070 792 
Q 1194 581 1372 489 
Q 1550 397 1778 397 
Q 2000 397 2178 489 
Q 2356 581 2479 792 
Q 2603 1003 2670 1350 
Q 2738 1697 2738 2203 
z
" id="LiberationSans-30" transform="scale(0.015625)"/>
       </defs>
       <use xlink:href="#LiberationSans-32"/>
       <use x="55.615234" xlink:href="#LiberationSans-2e"/>
       <use x="83.398438" xlink:href="#LiberationSans-30"/>
       <use x="139.013672" xlink:href="#LiberationSans-30"/>
      </g>
     </g>
    </g>
    <g id="xtick_2">
     <g id="line2d_3">
      <path clip-path="url(#p3effb83ea9)" d="M 159.75 384.48 
L 159.75 51.84 
" style="fill:none;stroke:#cccccc;stroke-linecap:round;stroke-width:0.8;"/>
     </g>
     <g id="line2d_4"/>
     <g id="text_2">
      <!-- 2.25 -->
      <g style="fill:#262626;" transform="translate(150.019531 395.226875)scale(0.1 -0.1)">
       <defs>
        <path d="M 3291 1434 
Q 3291 1103 3191 828 
Q 3091 553 2894 354 
Q 2697 156 2405 46 
Q 2113 -63 1728 -63 
Q 1381 -63 1123 18 
Q 866 100 687 242 
Q 509 384 404 575 
Q 300 766 256 984 
L 825 1050 
Q 859 925 921 808 
Q 984 691 1092 598 
Q 1200 506 1358 451 
Q 1516 397 1741 397 
Q 1959 397 2137 464 
Q 2316 531 2442 662 
Q 2569 794 2637 984 
Q 2706 1175 2706 1422 
Q 2706 1625 2640 1795 
Q 2575 1966 2453 2089 
Q 2331 2213 2154 2281 
Q 1978 2350 1753 2350 
Q 1613 2350 1494 2325 
Q 1375 2300 1273 2256 
Q 1172 2213 1089 2155 
Q 1006 2097 934 2034 
L 384 2034 
L 531 4403 
L 3034 4403 
L 3034 3925 
L 1044 3925 
L 959 2528 
Q 1109 2644 1334 2726 
Q 1559 2809 1869 2809 
Q 2197 2809 2459 2709 
Q 2722 2609 2906 2426 
Q 3091 2244 3191 1991 
Q 3291 1738 3291 1434 
z
" id="LiberationSans-35" transform="scale(0.015625)"/>
       </defs>
       <use xlink:href="#LiberationSans-32"/>
       <use x="55.615234" xlink:href="#LiberationSans-2e"/>
       <use x="83.398438" xlink:href="#LiberationSans-32"/>
       <use x="139.013672" xlink:href="#LiberationSans-35"/>
      </g>
     </g>
    </g>
    <g id="xtick_3">
     <g id="line2d_5">
      <path clip-path="url(#p3effb83ea9)" d="M 229.5 384.48 
L 229.5 51.84 
" style="fill:none;stroke:#cccccc;stroke-linecap:round;stroke-width:0.8;"/>
     </g>
     <g id="line2d_6"/>
     <g id="text_3">
      <!-- 2.50 -->
      <g style="fill:#262626;" transform="translate(219.769531 395.226875)scale(0.1 -0.1)">
       <use xlink:href="#LiberationSans-32"/>
       <use x="55.615234" xlink:href="#LiberationSans-2e"/>
       <use x="83.398438" xlink:href="#LiberationSans-35"/>
       <use x="139.013672" xlink:href="#LiberationSans-30"/>
      </g>
     </g>
    </g>
    <g id="xtick_4">
     <g id="line2d_7">
      <path clip-path="url(#p3effb83ea9)" d="M 299.25 384.48 
L 299.25 51.84 
" style="fill:none;stroke:#cccccc;stroke-linecap:round;stroke-width:0.8;"/>
     </g>
     <g id="line2d_8"/>
     <g id="text_4">
      <!-- 2.75 -->
      <g style="fill:#262626;" transform="translate(289.519531 395.226875)scale(0.1 -0.1)">
       <defs>
        <path d="M 3238 3947 
Q 2906 3441 2628 2973 
Q 2350 2506 2150 2032 
Q 1950 1559 1839 1061 
Q 1728 563 1728 0 
L 1141 0 
Q 1141 528 1266 1036 
Q 1391 1544 1603 2033 
Q 1816 2522 2097 2994 
Q 2378 3466 2694 3925 
L 328 3925 
L 328 4403 
L 3238 4403 
L 3238 3947 
z
" id="LiberationSans-37" transform="scale(0.015625)"/>
       </defs>
       <use xlink:href="#LiberationSans-32"/>
       <use x="55.615234" xlink:href="#LiberationSans-2e"/>
       <use x="83.398438" xlink:href="#LiberationSans-37"/>
       <use x="139.013672" xlink:href="#LiberationSans-35"/>
      </g>
     </g>
    </g>
    <g id="xtick_5">
     <g id="line2d_9">
      <path clip-path="url(#p3effb83ea9)" d="M 369 384.48 
L 369 51.84 
" style="fill:none;stroke:#cccccc;stroke-linecap:round;stroke-width:0.8;"/>
     </g>
     <g id="line2d_10"/>
     <g id="text_5">
      <!-- 3.00 -->
      <g style="fill:#262626;" transform="translate(359.269531 395.226875)scale(0.1 -0.1)">
       <defs>
        <path d="M 3278 1216 
Q 3278 913 3179 675 
Q 3081 438 2892 273 
Q 2703 109 2423 23 
Q 2144 -63 1784 -63 
Q 1375 -63 1095 39 
Q 816 141 634 308 
Q 453 475 362 689 
Q 272 903 244 1131 
L 825 1184 
Q 850 1009 917 865 
Q 984 722 1100 619 
Q 1216 516 1384 459 
Q 1553 403 1784 403 
Q 2209 403 2451 612 
Q 2694 822 2694 1234 
Q 2694 1478 2586 1626 
Q 2478 1775 2317 1858 
Q 2156 1941 1967 1969 
Q 1778 1997 1619 1997 
L 1300 1997 
L 1300 2484 
L 1606 2484 
Q 1766 2484 1937 2517 
Q 2109 2550 2251 2636 
Q 2394 2722 2486 2869 
Q 2578 3016 2578 3244 
Q 2578 3597 2370 3801 
Q 2163 4006 1753 4006 
Q 1381 4006 1151 3815 
Q 922 3625 884 3278 
L 319 3322 
Q 353 3613 478 3828 
Q 603 4044 795 4186 
Q 988 4328 1234 4398 
Q 1481 4469 1759 4469 
Q 2128 4469 2393 4376 
Q 2659 4284 2828 4126 
Q 2997 3969 3076 3756 
Q 3156 3544 3156 3303 
Q 3156 3109 3103 2940 
Q 3050 2772 2937 2637 
Q 2825 2503 2651 2406 
Q 2478 2309 2234 2259 
L 2234 2247 
Q 2500 2219 2697 2126 
Q 2894 2034 3022 1896 
Q 3150 1759 3214 1584 
Q 3278 1409 3278 1216 
z
" id="LiberationSans-33" transform="scale(0.015625)"/>
       </defs>
       <use xlink:href="#LiberationSans-33"/>
       <use x="55.615234" xlink:href="#LiberationSans-2e"/>
       <use x="83.398438" xlink:href="#LiberationSans-30"/>
       <use x="139.013672" xlink:href="#LiberationSans-30"/>
      </g>
     </g>
    </g>
    <g id="xtick_6">
     <g id="line2d_11">
      <path clip-path="url(#p3effb83ea9)" d="M 438.75 384.48 
L 438.75 51.84 
" style="fill:none;stroke:#cccccc;stroke-linecap:round;stroke-width:0.8;"/>
     </g>
     <g id="line2d_12"/>
     <g id="text_6">
      <!-- 3.25 -->
      <g style="fill:#262626;" transform="translate(429.019531 395.226875)scale(0.1 -0.1)">
       <use xlink:href="#LiberationSans-33"/>
       <use x="55.615234" xlink:href="#LiberationSans-2e"/>
       <use x="83.398438" xlink:href="#LiberationSans-32"/>
       <use x="139.013672" xlink:href="#LiberationSans-35"/>
      </g>
     </g>
    </g>
    <g id="xtick_7">
     <g id="line2d_13">
      <path clip-path="url(#p3effb83ea9)" d="M 508.5 384.48 
L 508.5 51.84 
" style="fill:none;stroke:#cccccc;stroke-linecap:round;stroke-width:0.8;"/>
     </g>
     <g id="line2d_14"/>
     <g id="text_7">
      <!-- 3.50 -->
      <g style="fill:#262626;" transform="translate(498.769531 395.226875)scale(0.1 -0.1)">
       <use xlink:href="#LiberationSans-33"/>
       <use x="55.615234" xlink:href="#LiberationSans-2e"/>
       <use x="83.398438" xlink:href="#LiberationSans-35"/>
       <use x="139.013672" xlink:href="#LiberationSans-30"/>
      </g>
     </g>
    </g>
    <g id="xtick_8">
     <g id="line2d_15">
      <path clip-path="url(#p3effb83ea9)" d="M 578.25 384.48 
L 578.25 51.84 
" style="fill:none;stroke:#cccccc;stroke-linecap:round;stroke-width:0.8;"/>
     </g>
     <g id="line2d_16"/>
     <g id="text_8">
      <!-- 3.75 -->
      <g style="fill:#262626;" transform="translate(568.519531 395.226875)scale(0.1 -0.1)">
       <use xlink:href="#LiberationSans-33"/>
       <use x="55.615234" xlink:href="#LiberationSans-2e"/>
       <use x="83.398438" xlink:href="#LiberationSans-37"/>
       <use x="139.013672" xlink:href="#LiberationSans-35"/>
      </g>
     </g>
    </g>
    <g id="xtick_9">
     <g id="line2d_17">
      <path clip-path="url(#p3effb83ea9)" d="M 648 384.48 
L 648 51.84 
" style="fill:none;stroke:#cccccc;stroke-linecap:round;stroke-width:0.8;"/>
     </g>
     <g id="line2d_18"/>
     <g id="text_9">
      <!-- 4.00 -->
      <g style="fill:#262626;" transform="translate(638.269531 395.226875)scale(0.1 -0.1)">
       <defs>
        <path d="M 2753 997 
L 2753 0 
L 2222 0 
L 2222 997 
L 147 997 
L 147 1434 
L 2163 4403 
L 2753 4403 
L 2753 1441 
L 3372 1441 
L 3372 997 
L 2753 997 
z
M 2222 3769 
Q 2216 3753 2191 3708 
Q 2166 3663 2134 3606 
Q 2103 3550 2070 3492 
Q 2038 3434 2013 3397 
L 884 1734 
Q 869 1709 839 1668 
Q 809 1628 778 1586 
Q 747 1544 715 1503 
Q 684 1463 666 1441 
L 2222 1441 
L 2222 3769 
z
" id="LiberationSans-34" transform="scale(0.015625)"/>
       </defs>
       <use xlink:href="#LiberationSans-34"/>
       <use x="55.615234" xlink:href="#LiberationSans-2e"/>
       <use x="83.398438" xlink:href="#LiberationSans-30"/>
       <use x="139.013672" xlink:href="#LiberationSans-30"/>
      </g>
     </g>
    </g>
    <g id="text_10">
     <!-- Hours -->
     <g style="fill:#262626;" transform="translate(355.663281 408.54875)scale(0.1 -0.1)">
      <defs>
       <path d="M 3503 0 
L 3503 2041 
L 1122 2041 
L 1122 0 
L 525 0 
L 525 4403 
L 1122 4403 
L 1122 2541 
L 3503 2541 
L 3503 4403 
L 4100 4403 
L 4100 0 
L 3503 0 
z
" id="LiberationSans-48" transform="scale(0.015625)"/>
       <path d="M 3291 1694 
Q 3291 806 2900 371 
Q 2509 -63 1766 -63 
Q 1413 -63 1134 43 
Q 856 150 664 369 
Q 472 588 370 917 
Q 269 1247 269 1694 
Q 269 3444 1784 3444 
Q 2178 3444 2464 3334 
Q 2750 3225 2933 3006 
Q 3116 2788 3203 2459 
Q 3291 2131 3291 1694 
z
M 2700 1694 
Q 2700 2088 2639 2344 
Q 2578 2600 2461 2753 
Q 2344 2906 2175 2967 
Q 2006 3028 1794 3028 
Q 1578 3028 1404 2964 
Q 1231 2900 1109 2745 
Q 988 2591 923 2334 
Q 859 2078 859 1694 
Q 859 1300 928 1042 
Q 997 784 1117 631 
Q 1238 478 1402 415 
Q 1566 353 1759 353 
Q 1975 353 2150 414 
Q 2325 475 2447 628 
Q 2569 781 2634 1040 
Q 2700 1300 2700 1694 
z
" id="LiberationSans-6f" transform="scale(0.015625)"/>
       <path d="M 981 3381 
L 981 1238 
Q 981 991 1017 825 
Q 1053 659 1134 557 
Q 1216 456 1348 414 
Q 1481 372 1678 372 
Q 1878 372 2039 442 
Q 2200 513 2314 645 
Q 2428 778 2490 973 
Q 2553 1169 2553 1422 
L 2553 3381 
L 3116 3381 
L 3116 722 
Q 3116 616 3117 498 
Q 3119 381 3122 276 
Q 3125 172 3128 97 
Q 3131 22 3134 0 
L 2603 0 
Q 2600 16 2597 84 
Q 2594 153 2589 242 
Q 2584 331 2581 423 
Q 2578 516 2578 578 
L 2569 578 
Q 2488 431 2391 312 
Q 2294 194 2166 111 
Q 2038 28 1872 -17 
Q 1706 -63 1488 -63 
Q 1206 -63 1003 6 
Q 800 75 669 219 
Q 538 363 477 588 
Q 416 813 416 1128 
L 416 3381 
L 981 3381 
z
" id="LiberationSans-75" transform="scale(0.015625)"/>
       <path d="M 444 0 
L 444 2594 
Q 444 2700 442 2811 
Q 441 2922 437 3025 
Q 434 3128 431 3218 
Q 428 3309 425 3381 
L 956 3381 
Q 959 3309 964 3217 
Q 969 3125 973 3028 
Q 978 2931 979 2842 
Q 981 2753 981 2691 
L 994 2691 
Q 1053 2884 1120 3026 
Q 1188 3169 1278 3261 
Q 1369 3353 1494 3398 
Q 1619 3444 1797 3444 
Q 1866 3444 1928 3433 
Q 1991 3422 2025 3413 
L 2025 2897 
Q 1969 2913 1894 2920 
Q 1819 2928 1725 2928 
Q 1531 2928 1395 2840 
Q 1259 2753 1173 2598 
Q 1088 2444 1047 2230 
Q 1006 2016 1006 1763 
L 1006 0 
L 444 0 
z
" id="LiberationSans-72" transform="scale(0.015625)"/>
       <path d="M 2969 934 
Q 2969 697 2876 511 
Q 2784 325 2609 198 
Q 2434 72 2179 4 
Q 1925 -63 1597 -63 
Q 1303 -63 1067 -17 
Q 831 28 653 128 
Q 475 228 354 392 
Q 234 556 178 794 
L 675 891 
Q 747 619 972 492 
Q 1197 366 1597 366 
Q 1778 366 1929 391 
Q 2081 416 2190 477 
Q 2300 538 2361 639 
Q 2422 741 2422 891 
Q 2422 1044 2350 1142 
Q 2278 1241 2150 1306 
Q 2022 1372 1839 1420 
Q 1656 1469 1438 1528 
Q 1234 1581 1034 1647 
Q 834 1713 673 1820 
Q 513 1928 413 2087 
Q 313 2247 313 2488 
Q 313 2950 642 3192 
Q 972 3434 1603 3434 
Q 2163 3434 2492 3237 
Q 2822 3041 2909 2606 
L 2403 2544 
Q 2375 2675 2300 2764 
Q 2225 2853 2119 2908 
Q 2013 2963 1880 2986 
Q 1747 3009 1603 3009 
Q 1222 3009 1040 2893 
Q 859 2778 859 2544 
Q 859 2406 926 2317 
Q 994 2228 1114 2167 
Q 1234 2106 1403 2061 
Q 1572 2016 1775 1966 
Q 1909 1931 2050 1892 
Q 2191 1853 2323 1798 
Q 2456 1744 2573 1670 
Q 2691 1597 2778 1494 
Q 2866 1391 2917 1253 
Q 2969 1116 2969 934 
z
" id="LiberationSans-73" transform="scale(0.015625)"/>
      </defs>
      <use xlink:href="#LiberationSans-48"/>
      <use x="72.216797" xlink:href="#LiberationSans-6f"/>
      <use x="127.832031" xlink:href="#LiberationSans-75"/>
      <use x="183.447266" xlink:href="#LiberationSans-72"/>
      <use x="216.748047" xlink:href="#LiberationSans-73"/>
     </g>
    </g>
   </g>
   <g id="matplotlib.axis_2">
    <g id="ytick_1">
     <g id="line2d_19">
      <path clip-path="url(#p3effb83ea9)" d="M 90 344.115709 
L 648 344.115709 
" style="fill:none;stroke:#cccccc;stroke-linecap:round;stroke-width:0.8;"/>
     </g>
     <g id="line2d_20"/>
     <g id="text_11">
      <!-- 1.8 -->
      <g style="fill:#262626;" transform="translate(72.6 347.739146)scale(0.1 -0.1)">
       <defs>
        <path d="M 488 0 
L 488 478 
L 1609 478 
L 1609 3866 
L 616 3156 
L 616 3688 
L 1656 4403 
L 2175 4403 
L 2175 478 
L 3247 478 
L 3247 0 
L 488 0 
z
" id="LiberationSans-31" transform="scale(0.015625)"/>
        <path d="M 3281 1228 
Q 3281 947 3192 711 
Q 3103 475 2920 303 
Q 2738 131 2453 34 
Q 2169 -63 1781 -63 
Q 1394 -63 1111 34 
Q 828 131 642 301 
Q 456 472 367 708 
Q 278 944 278 1222 
Q 278 1463 351 1650 
Q 425 1838 548 1973 
Q 672 2109 830 2192 
Q 988 2275 1156 2303 
L 1156 2316 
Q 972 2359 826 2456 
Q 681 2553 582 2689 
Q 484 2825 432 2990 
Q 381 3156 381 3341 
Q 381 3572 470 3776 
Q 559 3981 734 4136 
Q 909 4291 1168 4380 
Q 1428 4469 1769 4469 
Q 2128 4469 2392 4378 
Q 2656 4288 2829 4133 
Q 3003 3978 3087 3772 
Q 3172 3566 3172 3334 
Q 3172 3153 3120 2987 
Q 3069 2822 2970 2686 
Q 2872 2550 2726 2454 
Q 2581 2359 2391 2322 
L 2391 2309 
Q 2581 2278 2743 2195 
Q 2906 2113 3025 1977 
Q 3144 1841 3212 1653 
Q 3281 1466 3281 1228 
z
M 2588 3303 
Q 2588 3469 2545 3606 
Q 2503 3744 2406 3842 
Q 2309 3941 2153 3995 
Q 1997 4050 1769 4050 
Q 1547 4050 1394 3995 
Q 1241 3941 1142 3842 
Q 1044 3744 1000 3606 
Q 956 3469 956 3303 
Q 956 3172 990 3034 
Q 1025 2897 1115 2784 
Q 1206 2672 1365 2600 
Q 1525 2528 1775 2528 
Q 2041 2528 2202 2600 
Q 2363 2672 2448 2784 
Q 2534 2897 2561 3034 
Q 2588 3172 2588 3303 
z
M 2697 1281 
Q 2697 1441 2653 1589 
Q 2609 1738 2503 1852 
Q 2397 1966 2217 2036 
Q 2038 2106 1769 2106 
Q 1522 2106 1348 2036 
Q 1175 1966 1067 1850 
Q 959 1734 909 1582 
Q 859 1431 859 1269 
Q 859 1066 909 898 
Q 959 731 1068 611 
Q 1178 491 1356 425 
Q 1534 359 1788 359 
Q 2044 359 2219 425 
Q 2394 491 2500 611 
Q 2606 731 2651 901 
Q 2697 1072 2697 1281 
z
" id="LiberationSans-38" transform="scale(0.015625)"/>
       </defs>
       <use xlink:href="#LiberationSans-31"/>
       <use x="55.615234" xlink:href="#LiberationSans-2e"/>
       <use x="83.398438" xlink:href="#LiberationSans-38"/>
      </g>
     </g>
    </g>
    <g id="ytick_2">
     <g id="line2d_21">
      <path clip-path="url(#p3effb83ea9)" d="M 90 294.674295 
L 648 294.674295 
" style="fill:none;stroke:#cccccc;stroke-linecap:round;stroke-width:0.8;"/>
     </g>
     <g id="line2d_22"/>
     <g id="text_12">
      <!-- 2.0 -->
      <g style="fill:#262626;" transform="translate(72.6 298.297733)scale(0.1 -0.1)">
       <use xlink:href="#LiberationSans-32"/>
       <use x="55.615234" xlink:href="#LiberationSans-2e"/>
       <use x="83.398438" xlink:href="#LiberationSans-30"/>
      </g>
     </g>
    </g>
    <g id="ytick_3">
     <g id="line2d_23">
      <path clip-path="url(#p3effb83ea9)" d="M 90 245.232882 
L 648 245.232882 
" style="fill:none;stroke:#cccccc;stroke-linecap:round;stroke-width:0.8;"/>
     </g>
     <g id="line2d_24"/>
     <g id="text_13">
      <!-- 2.2 -->
      <g style="fill:#262626;" transform="translate(72.6 248.856319)scale(0.1 -0.1)">
       <use xlink:href="#LiberationSans-32"/>
       <use x="55.615234" xlink:href="#LiberationSans-2e"/>
       <use x="83.398438" xlink:href="#LiberationSans-32"/>
      </g>
     </g>
    </g>
    <g id="ytick_4">
     <g id="line2d_25">
      <path clip-path="url(#p3effb83ea9)" d="M 90 195.791469 
L 648 195.791469 
" style="fill:none;stroke:#cccccc;stroke-linecap:round;stroke-width:0.8;"/>
     </g>
     <g id="line2d_26"/>
     <g id="text_14">
      <!-- 2.4 -->
      <g style="fill:#262626;" transform="translate(72.6 199.414906)scale(0.1 -0.1)">
       <use xlink:href="#LiberationSans-32"/>
       <use x="55.615234" xlink:href="#LiberationSans-2e"/>
       <use x="83.398438" xlink:href="#LiberationSans-34"/>
      </g>
     </g>
    </g>
    <g id="ytick_5">
     <g id="line2d_27">
      <path clip-path="url(#p3effb83ea9)" d="M 90 146.350055 
L 648 146.350055 
" style="fill:none;stroke:#cccccc;stroke-linecap:round;stroke-width:0.8;"/>
     </g>
     <g id="line2d_28"/>
     <g id="text_15">
      <!-- 2.6 -->
      <g style="fill:#262626;" transform="translate(72.6 149.973493)scale(0.1 -0.1)">
       <defs>
        <path d="M 3278 1441 
Q 3278 1109 3186 832 
Q 3094 556 2914 357 
Q 2734 159 2468 48 
Q 2203 -63 1856 -63 
Q 1472 -63 1184 84 
Q 897 231 706 507 
Q 516 784 420 1186 
Q 325 1588 325 2100 
Q 325 2688 433 3131 
Q 541 3575 744 3872 
Q 947 4169 1239 4319 
Q 1531 4469 1900 4469 
Q 2125 4469 2322 4422 
Q 2519 4375 2680 4270 
Q 2841 4166 2962 3994 
Q 3084 3822 3156 3572 
L 2619 3475 
Q 2531 3759 2339 3886 
Q 2147 4013 1894 4013 
Q 1663 4013 1475 3903 
Q 1288 3794 1156 3576 
Q 1025 3359 954 3031 
Q 884 2703 884 2266 
Q 1038 2550 1316 2698 
Q 1594 2847 1953 2847 
Q 2253 2847 2497 2750 
Q 2741 2653 2914 2470 
Q 3088 2288 3183 2027 
Q 3278 1766 3278 1441 
z
M 2706 1416 
Q 2706 1644 2650 1828 
Q 2594 2013 2481 2142 
Q 2369 2272 2203 2342 
Q 2038 2413 1819 2413 
Q 1666 2413 1509 2367 
Q 1353 2322 1226 2220 
Q 1100 2119 1020 1953 
Q 941 1788 941 1550 
Q 941 1306 1003 1095 
Q 1066 884 1183 728 
Q 1300 572 1465 481 
Q 1631 391 1838 391 
Q 2041 391 2202 461 
Q 2363 531 2475 664 
Q 2588 797 2647 987 
Q 2706 1178 2706 1416 
z
" id="LiberationSans-36" transform="scale(0.015625)"/>
       </defs>
       <use xlink:href="#LiberationSans-32"/>
       <use x="55.615234" xlink:href="#LiberationSans-2e"/>
       <use x="83.398438" xlink:href="#LiberationSans-36"/>
      </g>
     </g>
    </g>
    <g id="ytick_6">
     <g id="line2d_29">
      <path clip-path="url(#p3effb83ea9)" d="M 90 96.908642 
L 648 96.908642 
" style="fill:none;stroke:#cccccc;stroke-linecap:round;stroke-width:0.8;"/>
     </g>
     <g id="line2d_30"/>
     <g id="text_16">
      <!-- 2.8 -->
      <g style="fill:#262626;" transform="translate(72.6 100.532079)scale(0.1 -0.1)">
       <use xlink:href="#LiberationSans-32"/>
       <use x="55.615234" xlink:href="#LiberationSans-2e"/>
       <use x="83.398438" xlink:href="#LiberationSans-38"/>
      </g>
     </g>
    </g>
    <g id="text_17">
     <!-- RMSE (x0.01 Mag) -->
     <g style="fill:#262626;" transform="translate(66.525 260.670156)rotate(-90)scale(0.1 -0.1)">
      <defs>
       <path d="M 3638 0 
L 2494 1828 
L 1122 1828 
L 1122 0 
L 525 0 
L 525 4403 
L 2597 4403 
Q 2972 4403 3261 4317 
Q 3550 4231 3747 4068 
Q 3944 3906 4047 3672 
Q 4150 3438 4150 3144 
Q 4150 2934 4089 2731 
Q 4028 2528 3897 2359 
Q 3766 2191 3562 2069 
Q 3359 1947 3075 1897 
L 4325 0 
L 3638 0 
z
M 3550 3138 
Q 3550 3338 3481 3484 
Q 3413 3631 3281 3729 
Q 3150 3828 2962 3876 
Q 2775 3925 2538 3925 
L 1122 3925 
L 1122 2300 
L 2563 2300 
Q 2819 2300 3006 2364 
Q 3194 2428 3314 2540 
Q 3434 2653 3492 2806 
Q 3550 2959 3550 3138 
z
" id="LiberationSans-52" transform="scale(0.015625)"/>
       <path d="M 4269 0 
L 4269 2938 
Q 4269 3097 4272 3262 
Q 4275 3428 4281 3566 
Q 4288 3725 4297 3875 
Q 4253 3716 4206 3559 
Q 4166 3425 4117 3273 
Q 4069 3122 4022 3000 
L 2884 0 
L 2466 0 
L 1313 3000 
Q 1294 3047 1273 3109 
Q 1253 3172 1229 3242 
Q 1206 3313 1182 3386 
Q 1159 3459 1138 3531 
Q 1084 3697 1034 3875 
Q 1038 3700 1044 3528 
Q 1050 3381 1053 3220 
Q 1056 3059 1056 2938 
L 1056 0 
L 525 0 
L 525 4403 
L 1309 4403 
L 2481 1350 
Q 2503 1288 2534 1189 
Q 2566 1091 2594 987 
Q 2622 884 2645 792 
Q 2669 700 2678 650 
Q 2688 700 2713 794 
Q 2738 888 2770 991 
Q 2803 1094 2834 1191 
Q 2866 1288 2891 1350 
L 4041 4403 
L 4806 4403 
L 4806 0 
L 4269 0 
z
" id="LiberationSans-4d" transform="scale(0.015625)"/>
       <path d="M 3975 1216 
Q 3975 938 3867 703 
Q 3759 469 3534 298 
Q 3309 128 2967 32 
Q 2625 -63 2156 -63 
Q 1334 -63 875 225 
Q 416 513 291 1056 
L 869 1172 
Q 913 1000 1003 859 
Q 1094 719 1248 617 
Q 1403 516 1631 459 
Q 1859 403 2178 403 
Q 2444 403 2666 448 
Q 2888 494 3047 587 
Q 3206 681 3295 829 
Q 3384 978 3384 1184 
Q 3384 1400 3286 1534 
Q 3188 1669 3009 1756 
Q 2831 1844 2584 1903 
Q 2338 1963 2038 2031 
Q 1853 2072 1667 2120 
Q 1481 2169 1311 2236 
Q 1141 2303 991 2393 
Q 841 2484 731 2611 
Q 622 2738 559 2905 
Q 497 3072 497 3291 
Q 497 3603 623 3826 
Q 750 4050 975 4194 
Q 1200 4338 1506 4403 
Q 1813 4469 2169 4469 
Q 2578 4469 2868 4405 
Q 3159 4341 3359 4212 
Q 3559 4084 3679 3895 
Q 3800 3706 3872 3456 
L 3284 3353 
Q 3241 3513 3158 3638 
Q 3075 3763 2940 3847 
Q 2806 3931 2614 3975 
Q 2422 4019 2163 4019 
Q 1856 4019 1648 3964 
Q 1441 3909 1314 3815 
Q 1188 3722 1133 3595 
Q 1078 3469 1078 3322 
Q 1078 3125 1176 2998 
Q 1275 2872 1444 2787 
Q 1613 2703 1834 2647 
Q 2056 2591 2306 2534 
Q 2509 2488 2711 2439 
Q 2913 2391 3097 2323 
Q 3281 2256 3442 2165 
Q 3603 2075 3722 1944 
Q 3841 1813 3908 1634 
Q 3975 1456 3975 1216 
z
" id="LiberationSans-53" transform="scale(0.015625)"/>
       <path d="M 525 0 
L 525 4403 
L 3866 4403 
L 3866 3916 
L 1122 3916 
L 1122 2503 
L 3678 2503 
L 3678 2022 
L 1122 2022 
L 1122 488 
L 3994 488 
L 3994 0 
L 525 0 
z
" id="LiberationSans-45" transform="scale(0.015625)"/>
       <path id="LiberationSans-20" transform="scale(0.015625)"/>
       <path d="M 397 1663 
Q 397 2097 462 2494 
Q 528 2891 668 3256 
Q 809 3622 1028 3965 
Q 1247 4309 1550 4638 
L 2094 4638 
Q 1800 4309 1586 3964 
Q 1372 3619 1234 3251 
Q 1097 2884 1030 2487 
Q 963 2091 963 1656 
Q 963 1222 1030 825 
Q 1097 428 1234 59 
Q 1372 -309 1586 -653 
Q 1800 -997 2094 -1325 
L 1550 -1325 
Q 1247 -997 1028 -653 
Q 809 -309 668 56 
Q 528 422 462 817 
Q 397 1213 397 1650 
L 397 1663 
z
" id="LiberationSans-28" transform="scale(0.015625)"/>
       <path d="M 2503 0 
L 1594 1388 
L 678 0 
L 72 0 
L 1275 1738 
L 128 3381 
L 750 3381 
L 1594 2066 
L 2431 3381 
L 3059 3381 
L 1913 1744 
L 3131 0 
L 2503 0 
z
" id="LiberationSans-78" transform="scale(0.015625)"/>
       <path d="M 1294 -63 
Q 784 -63 528 206 
Q 272 475 272 944 
Q 272 1278 398 1492 
Q 525 1706 729 1828 
Q 934 1950 1196 1997 
Q 1459 2044 1731 2050 
L 2491 2063 
L 2491 2247 
Q 2491 2456 2447 2603 
Q 2403 2750 2312 2840 
Q 2222 2931 2086 2973 
Q 1950 3016 1766 3016 
Q 1603 3016 1472 2992 
Q 1341 2969 1244 2908 
Q 1147 2847 1087 2742 
Q 1028 2638 1009 2478 
L 422 2531 
Q 453 2731 540 2898 
Q 628 3066 789 3187 
Q 950 3309 1192 3376 
Q 1434 3444 1778 3444 
Q 2416 3444 2737 3151 
Q 3059 2859 3059 2306 
L 3059 850 
Q 3059 600 3125 473 
Q 3191 347 3375 347 
Q 3422 347 3469 353 
Q 3516 359 3559 369 
L 3559 19 
Q 3453 -6 3348 -18 
Q 3244 -31 3125 -31 
Q 2966 -31 2852 11 
Q 2738 53 2666 139 
Q 2594 225 2556 351 
Q 2519 478 2509 647 
L 2491 647 
Q 2400 484 2292 353 
Q 2184 222 2040 130 
Q 1897 38 1714 -12 
Q 1531 -63 1294 -63 
z
M 1422 359 
Q 1691 359 1892 457 
Q 2094 556 2226 709 
Q 2359 863 2425 1044 
Q 2491 1225 2491 1391 
L 2491 1669 
L 1875 1656 
Q 1669 1653 1483 1626 
Q 1297 1600 1156 1522 
Q 1016 1444 933 1303 
Q 850 1163 850 934 
Q 850 659 998 509 
Q 1147 359 1422 359 
z
" id="LiberationSans-61" transform="scale(0.015625)"/>
       <path d="M 1713 -1328 
Q 1422 -1328 1197 -1268 
Q 972 -1209 812 -1098 
Q 653 -988 553 -834 
Q 453 -681 409 -494 
L 975 -413 
Q 1031 -647 1223 -773 
Q 1416 -900 1728 -900 
Q 1919 -900 2075 -847 
Q 2231 -794 2340 -676 
Q 2450 -559 2509 -371 
Q 2569 -184 2569 84 
L 2569 628 
L 2563 628 
Q 2500 500 2408 383 
Q 2316 266 2183 175 
Q 2050 84 1875 29 
Q 1700 -25 1475 -25 
Q 1153 -25 923 83 
Q 694 191 548 406 
Q 403 622 336 942 
Q 269 1263 269 1684 
Q 269 2091 336 2416 
Q 403 2741 554 2967 
Q 706 3194 948 3314 
Q 1191 3434 1538 3434 
Q 1897 3434 2161 3270 
Q 2425 3106 2569 2803 
L 2575 2803 
Q 2575 2881 2579 2978 
Q 2584 3075 2589 3161 
Q 2594 3247 2600 3309 
Q 2606 3372 2613 3381 
L 3147 3381 
Q 3144 3353 3141 3286 
Q 3138 3219 3134 3125 
Q 3131 3031 3129 2917 
Q 3128 2803 3128 2681 
L 3128 97 
Q 3128 -613 2779 -970 
Q 2431 -1328 1713 -1328 
z
M 2569 1691 
Q 2569 2044 2492 2295 
Q 2416 2547 2291 2706 
Q 2166 2866 2005 2941 
Q 1844 3016 1675 3016 
Q 1459 3016 1304 2941 
Q 1150 2866 1048 2705 
Q 947 2544 898 2292 
Q 850 2041 850 1691 
Q 850 1325 898 1076 
Q 947 828 1047 675 
Q 1147 522 1300 456 
Q 1453 391 1666 391 
Q 1834 391 1995 462 
Q 2156 534 2284 690 
Q 2413 847 2491 1094 
Q 2569 1341 2569 1691 
z
" id="LiberationSans-67" transform="scale(0.015625)"/>
       <path d="M 1734 1650 
Q 1734 1213 1668 817 
Q 1603 422 1462 56 
Q 1322 -309 1103 -653 
Q 884 -997 581 -1325 
L 38 -1325 
Q 331 -997 545 -653 
Q 759 -309 896 59 
Q 1034 428 1101 825 
Q 1169 1222 1169 1656 
Q 1169 2091 1101 2487 
Q 1034 2884 896 3251 
Q 759 3619 545 3964 
Q 331 4309 38 4638 
L 581 4638 
Q 884 4309 1103 3965 
Q 1322 3622 1462 3256 
Q 1603 2891 1668 2494 
Q 1734 2097 1734 1663 
L 1734 1650 
z
" id="LiberationSans-29" transform="scale(0.015625)"/>
      </defs>
      <use xlink:href="#LiberationSans-52"/>
      <use x="72.216797" xlink:href="#LiberationSans-4d"/>
      <use x="155.517578" xlink:href="#LiberationSans-53"/>
      <use x="222.216797" xlink:href="#LiberationSans-45"/>
      <use x="288.916016" xlink:href="#LiberationSans-20"/>
      <use x="316.699219" xlink:href="#LiberationSans-28"/>
      <use x="350" xlink:href="#LiberationSans-78"/>
      <use x="400" xlink:href="#LiberationSans-30"/>
      <use x="455.615234" xlink:href="#LiberationSans-2e"/>
      <use x="483.398438" xlink:href="#LiberationSans-30"/>
      <use x="539.013672" xlink:href="#LiberationSans-31"/>
      <use x="594.628906" xlink:href="#LiberationSans-20"/>
      <use x="622.412109" xlink:href="#LiberationSans-4d"/>
      <use x="705.712891" xlink:href="#LiberationSans-61"/>
      <use x="761.328125" xlink:href="#LiberationSans-67"/>
      <use x="816.943359" xlink:href="#LiberationSans-29"/>
     </g>
    </g>
   </g>
   <g id="line2d_31">
    <path clip-path="url(#p3effb83ea9)" d="M 89.897328 68.759173 
L 90.660672 70.416696 
L 91.04904 70.962035 
L 91.430712 71.097999 
L 91.812384 70.832993 
L 92.194056 70.235988 
L 93.345768 67.712746 
L 93.734136 67.305348 
L 94.115808 67.532037 
L 94.49748 68.504303 
L 96.030864 74.781632 
L 96.419232 74.958879 
L 96.800904 74.256069 
L 97.952616 70.595674 
L 98.334288 69.953925 
L 98.71596 69.775688 
L 99.104328 70.065415 
L 99.486 70.853759 
L 99.867672 72.189666 
L 100.637712 76.442616 
L 101.401056 81.386757 
L 101.789424 83.128825 
L 102.171096 83.904808 
L 102.552768 83.642027 
L 102.941136 82.528359 
L 103.70448 78.931744 
L 104.47452 75.433269 
L 104.856192 74.588563 
L 105.237864 74.857524 
L 105.626232 76.537049 
L 106.007904 79.766068 
L 106.777944 90.28102 
L 107.92296 108.753321 
L 108.693 116.921537 
L 109.074672 119.053451 
L 109.46304 119.80941 
L 109.844712 119.119208 
L 110.226384 116.88495 
L 110.608056 113.099716 
L 111.378096 102.028795 
L 112.529808 84.306273 
L 113.293152 75.439202 
L 113.68152 72.254928 
L 114.063192 70.05528 
L 114.444864 68.983884 
L 114.833232 69.178683 
L 115.214904 70.694063 
L 115.596576 73.404935 
L 117.12996 87.688807 
L 117.518328 89.751503 
L 117.9 90.688912 
L 118.281672 90.635515 
L 118.67004 89.908479 
L 119.433384 87.564462 
L 120.203424 84.409605 
L 120.966768 81.109144 
L 121.355136 80.222659 
L 121.736808 80.169262 
L 122.11848 80.824608 
L 122.88852 82.416375 
L 123.270192 82.325155 
L 123.651864 81.34844 
L 124.803576 76.471292 
L 125.191944 75.679735 
L 125.573616 75.661689 
L 125.955288 76.303438 
L 126.725328 78.592081 
L 127.87704 82.603016 
L 128.640384 85.408816 
L 129.022056 86.222375 
L 129.410424 86.224847 
L 129.792096 85.327732 
L 130.943808 80.54032 
L 131.32548 80.491868 
L 131.707152 82.563216 
L 132.09552 87.339751 
L 132.477192 95.072635 
L 133.247232 119.080891 
L 134.398944 170.363502 
L 135.162288 202.354569 
L 135.54396 212.051513 
L 135.932328 215.00366 
L 136.314 210.387563 
L 136.695672 198.760178 
L 137.465712 162.22149 
L 138.229056 123.683145 
L 138.999096 95.401915 
L 139.769136 78.894663 
L 140.150808 74.16485 
L 140.53248 71.399839 
L 140.920848 70.400628 
L 141.30252 70.928168 
L 141.684192 72.636616 
L 142.835904 79.750988 
L 143.217576 81.08912 
L 143.605944 81.404309 
L 143.987616 80.686667 
L 144.75096 77.110817 
L 145.139328 75.183343 
L 145.521 73.886248 
L 145.902672 73.589105 
L 146.29104 74.416012 
L 146.672712 76.322968 
L 147.436056 82.907575 
L 148.587768 95.385846 
L 148.976136 97.986959 
L 149.357808 98.711028 
L 149.73948 97.302195 
L 150.891192 86.936061 
L 151.272864 85.863924 
L 151.661232 88.020312 
L 152.042904 93.72857 
L 152.812944 113.061646 
L 153.576288 133.635207 
L 153.95796 140.97429 
L 154.346328 145.245534 
L 154.728 146.108039 
L 155.109672 143.519287 
L 155.49804 137.748238 
L 156.261384 119.509053 
L 157.413096 90.192026 
L 158.183136 77.817087 
L 158.564808 74.699806 
L 158.94648 73.770307 
L 159.334848 75.11017 
L 159.71652 78.759935 
L 160.098192 84.669173 
L 160.868232 102.700703 
L 161.631576 128.088127 
L 163.553328 198.590347 
L 163.935 204.5248 
L 164.316672 205.082993 
L 164.70504 200.302256 
L 165.086712 191.027294 
L 167.390136 117.869823 
L 168.535152 92.930833 
L 169.305192 79.134948 
L 169.686864 74.570022 
L 170.075232 72.519193 
L 170.456904 73.53818 
L 170.838576 77.900643 
L 171.226944 85.528464 
L 171.990288 108.488068 
L 173.142 146.880809 
L 173.523672 155.431207 
L 173.91204 159.74324 
L 174.293712 159.172686 
L 174.675384 153.872072 
L 175.445424 133.662894 
L 176.208768 111.897548 
L 176.597136 104.070478 
L 176.978808 99.275155 
L 177.36048 97.534076 
L 177.742152 98.316239 
L 178.893864 105.220732 
L 179.282232 105.455332 
L 179.663904 103.662833 
L 180.045576 99.999225 
L 181.197288 85.642427 
L 181.57896 82.951825 
L 181.967328 82.257173 
L 182.349 83.367875 
L 183.882384 92.376595 
L 184.264056 93.082865 
L 184.652424 92.973352 
L 185.034096 92.277959 
L 185.804136 90.039252 
L 186.949152 86.486639 
L 187.719192 84.884243 
L 188.489232 83.659332 
L 189.252576 81.718756 
L 189.640944 80.718062 
L 190.022616 80.372961 
L 190.404288 81.505911 
L 190.78596 85.077312 
L 191.174328 92.061406 
L 191.556 103.323418 
L 191.937672 119.510042 
L 192.707712 167.570063 
L 193.859424 269.368202 
L 194.622768 334.972508 
L 195.011136 357.785518 
L 195.392808 369.36 
L 195.77448 367.42511 
L 196.156152 351.821895 
L 196.54452 324.79969 
L 198.459576 156.493208 
L 199.229616 118.026305 
L 199.99296 95.791266 
L 200.763 82.458153 
L 201.53304 74.297106 
L 201.914712 71.945425 
L 202.296384 70.763528 
L 202.678056 70.707412 
L 203.066424 71.664845 
L 203.448096 73.463276 
L 205.363152 85.542802 
L 205.75152 86.354878 
L 206.133192 86.163539 
L 206.514864 85.065198 
L 207.666576 79.781147 
L 208.054944 79.007389 
L 208.436616 79.536412 
L 208.818288 81.658438 
L 209.19996 85.42711 
L 209.97 96.785533 
L 210.74004 109.308054 
L 211.121712 114.27123 
L 211.503384 117.611245 
L 211.885056 119.007718 
L 212.273424 118.398352 
L 212.655096 116.021703 
L 213.806808 105.490188 
L 214.18848 104.299886 
L 214.576848 105.8343 
L 214.95852 110.446937 
L 215.721864 127.461458 
L 216.873576 156.139208 
L 217.261944 161.460587 
L 217.643616 163.244186 
L 218.025288 161.357007 
L 218.40696 156.143163 
L 219.177 138.618901 
L 220.710384 97.36548 
L 221.480424 82.80449 
L 221.862096 78.0151 
L 222.243768 74.871862 
L 222.632136 73.201731 
L 223.013808 72.759972 
L 223.39548 73.307783 
L 223.783848 74.688435 
L 224.16552 76.884869 
L 224.547192 80.035276 
L 224.928864 84.404414 
L 225.317232 90.318101 
L 226.080576 107.844835 
L 226.850616 133.167244 
L 228.765672 207.13407 
L 229.535712 225.68968 
L 229.917384 229.845725 
L 230.299056 230.068953 
L 230.687424 226.314867 
L 231.069096 218.886789 
L 231.839136 195.838932 
L 233.754192 129.926359 
L 234.524232 109.677134 
L 235.287576 93.60645 
L 236.057616 81.775861 
L 236.439288 77.663077 
L 236.82096 74.942069 
L 237.209328 73.764869 
L 237.591 74.251867 
L 237.972672 76.455718 
L 238.36104 80.330441 
L 239.124384 92.291308 
L 240.657768 120.652139 
L 241.046136 125.227942 
L 241.427808 127.725722 
L 241.80948 127.897778 
L 242.191152 125.75919 
L 242.57952 121.592515 
L 243.342864 109.332527 
L 244.494576 91.156133 
L 244.882944 87.468793 
L 245.264616 85.514126 
L 245.646288 85.333418 
L 246.02796 86.780074 
L 246.416328 89.546321 
L 248.331384 107.077999 
L 248.713056 108.263851 
L 249.101424 108.079435 
L 249.483096 106.57246 
L 250.253136 100.576206 
L 251.398152 89.945313 
L 252.168192 85.504733 
L 252.549864 84.413561 
L 252.938232 83.995781 
L 253.319904 84.125564 
L 253.701576 84.649891 
L 254.853288 86.895025 
L 255.23496 87.350133 
L 255.623328 87.488569 
L 256.005 87.287343 
L 256.386672 86.772905 
L 257.156712 85.048141 
L 258.308424 81.553622 
L 260.22348 75.315352 
L 260.605152 74.573483 
L 260.99352 74.306252 
L 261.375192 74.68794 
L 261.756864 75.903952 
L 262.145232 78.153536 
L 262.526904 81.648055 
L 262.908576 86.606534 
L 263.296944 93.23737 
L 264.060288 112.105202 
L 264.830328 138.3225 
L 266.745384 213.261839 
L 267.127056 223.970108 
L 267.515424 231.622155 
L 267.897096 235.85706 
L 268.278768 236.562341 
L 268.667136 233.852952 
L 269.048808 228.015899 
L 269.812152 208.598772 
L 270.963864 167.686992 
L 272.115576 126.785593 
L 272.885616 106.015503 
L 273.64896 91.654503 
L 274.419 82.634906 
L 275.18904 77.355304 
L 275.952384 74.351244 
L 276.722424 72.619064 
L 277.485768 71.717006 
L 277.874136 71.549152 
L 278.255808 71.567445 
L 278.63748 71.760267 
L 279.40752 72.562207 
L 280.559232 74.305758 
L 282.85596 78.227204 
L 283.626 79.766562 
L 284.39604 81.756579 
L 285.159384 84.518871 
L 286.311096 90.039746 
L 287.462808 95.588062 
L 288.226152 98.373096 
L 288.996192 100.268433 
L 289.766232 101.390011 
L 290.147904 101.653287 
L 290.529576 101.67603 
L 290.917944 101.42116 
L 291.299616 100.874338 
L 292.06296 99.076648 
L 292.833 97.097755 
L 293.214672 96.386046 
L 293.60304 95.987548 
L 293.984712 95.92451 
L 294.366384 96.160593 
L 295.136424 97.182053 
L 295.899768 98.201288 
L 296.288136 98.436876 
L 296.669808 98.360242 
L 297.05148 97.890301 
L 297.433152 96.966735 
L 297.82152 95.560622 
L 298.584864 91.416195 
L 300.888288 76.922445 
L 301.658328 74.041246 
L 302.04 73.119906 
L 302.421672 72.615109 
L 302.81004 72.617334 
L 303.191712 73.227441 
L 303.573384 74.526761 
L 303.955056 76.548668 
L 304.725096 82.583239 
L 305.876808 94.838035 
L 309.331944 134.053234 
L 311.247 152.665207 
L 312.01704 158.351958 
L 312.398712 159.946197 
L 312.780384 160.217383 
L 313.162056 158.826596 
L 313.550424 155.558518 
L 313.932096 150.396835 
L 314.702136 135.490249 
L 316.23552 102.016187 
L 316.998864 90.122066 
L 317.768904 82.499683 
L 318.150576 80.036759 
L 318.538944 78.293702 
L 318.920616 77.145178 
L 319.302288 76.480686 
L 319.68396 76.206039 
L 320.072328 76.242378 
L 320.454 76.524936 
L 321.22404 77.632671 
L 322.369056 80.085212 
L 323.139096 81.718015 
L 323.909136 82.783477 
L 324.290808 83.001019 
L 324.67248 83.026729 
L 325.824192 82.830941 
L 326.205864 83.054169 
L 326.594232 83.558224 
L 327.357576 85.342565 
L 328.509288 88.271474 
L 328.89096 88.72411 
L 329.279328 88.729549 
L 329.661 88.252192 
L 330.042672 87.317008 
L 330.812712 84.475857 
L 331.576056 81.514316 
L 331.964424 80.548972 
L 332.346096 80.236503 
L 332.727768 80.77492 
L 333.116136 82.306368 
L 333.497808 84.89685 
L 334.267848 93.047267 
L 336.182904 118.69327 
L 336.564576 121.700791 
L 336.952944 123.20381 
L 337.334616 123.066858 
L 337.716288 121.318609 
L 338.09796 118.155348 
L 338.868 109.023024 
L 340.019712 94.696386 
L 340.783056 88.292487 
L 341.171424 86.314088 
L 341.553096 85.056299 
L 341.934768 84.380682 
L 342.323136 84.128284 
L 342.704808 84.140891 
L 343.85652 84.518129 
L 344.619864 84.386862 
L 347.30496 82.93279 
L 347.693328 82.575329 
L 348.075 82.005269 
L 348.84504 80.079526 
L 349.990056 76.253255 
L 350.378424 75.401627 
L 350.760096 75.102012 
L 351.141768 75.503229 
L 351.530136 76.67153 
L 351.911808 78.573541 
L 352.675152 83.976746 
L 353.826864 92.442846 
L 354.596904 95.866911 
L 354.978576 96.7707 
L 355.748616 97.944934 
L 356.130288 98.922143 
L 356.51196 100.70945 
L 356.900328 103.696453 
L 357.282 108.190183 
L 358.05204 122.302246 
L 358.815384 142.817713 
L 360.737136 202.105879 
L 361.118808 210.30722 
L 361.50048 215.528481 
L 361.888848 217.110853 
L 362.27052 214.63013 
L 362.652192 208.017588 
L 363.422232 184.227369 
L 365.337288 109.200272 
L 366.107328 89.541871 
L 366.870672 77.661594 
L 367.25904 74.036302 
L 367.640712 71.579558 
L 368.022384 70.043167 
L 368.404056 69.226889 
L 368.792424 68.980918 
L 369.174096 69.20291 
L 369.555768 69.828096 
L 369.944136 70.818902 
L 370.70748 73.790578 
L 371.859192 79.98534 
L 372.629232 84.074392 
L 373.010904 85.669125 
L 373.392576 86.778591 
L 373.780944 87.309839 
L 374.162616 87.230238 
L 374.544288 86.57687 
L 375.314328 84.040031 
L 376.077672 81.147708 
L 376.46604 80.095842 
L 376.847712 79.537154 
L 377.229384 79.572752 
L 377.611056 80.227356 
L 377.999424 81.44312 
L 379.91448 89.395525 
L 380.302848 89.751503 
L 380.68452 89.341633 
L 381.066192 88.210414 
L 382.599576 81.758557 
L 382.987944 81.736061 
L 383.369616 83.208673 
L 383.751288 86.462907 
L 384.13296 91.631018 
L 384.903 107.367973 
L 387.206424 166.874422 
L 387.588096 172.446964 
L 387.969768 175.404549 
L 388.358136 175.506151 
L 388.739808 172.71543 
L 389.12148 167.223725 
L 389.89152 150.003034 
L 391.424904 110.252632 
L 392.194944 97.530615 
L 392.576616 93.919414 
L 392.958288 92.064125 
L 393.33996 91.770196 
L 393.728328 92.784733 
L 394.11 94.832844 
L 394.88004 100.95023 
L 396.413424 114.876887 
L 397.176768 120.061808 
L 397.946808 123.288355 
L 398.32848 124.179289 
L 398.710152 124.610913 
L 399.09852 124.572596 
L 399.480192 124.015144 
L 399.861864 122.852035 
L 400.250232 120.977463 
L 400.631904 118.295267 
L 401.401944 110.376236 
L 402.54696 93.826711 
L 403.698672 78.173313 
L 404.08704 74.541841 
L 404.468712 72.02552 
L 404.850384 70.685905 
L 405.232056 70.493578 
L 405.620424 71.330374 
L 406.002096 73.002235 
L 407.917152 84.111474 
L 408.30552 85.00661 
L 408.687192 85.117359 
L 409.068864 84.516151 
L 410.220576 81.079726 
L 410.608944 80.730917 
L 410.990616 81.519755 
L 411.372288 83.812847 
L 411.75396 87.854683 
L 412.142328 93.736728 
L 412.905672 110.563371 
L 415.209096 170.73456 
L 415.590768 176.394366 
L 415.979136 179.602619 
L 416.360808 180.171443 
L 416.74248 178.068452 
L 417.130848 173.418982 
L 417.894192 157.7154 
L 420.197616 96.472816 
L 420.96096 83.852401 
L 421.349328 79.87385 
L 421.731 77.303885 
L 422.112672 75.937325 
L 422.50104 75.533635 
L 422.882712 75.843139 
L 423.264384 76.631235 
L 425.186136 81.847057 
L 425.94948 83.061091 
L 427.101192 84.598224 
L 427.871232 86.296042 
L 429.786288 91.667605 
L 430.16796 92.224068 
L 430.938 92.735292 
L 431.319672 92.976072 
L 431.70804 93.486307 
L 432.089712 94.495159 
L 432.471384 96.203607 
L 432.853056 98.753301 
L 433.623096 106.546504 
L 434.393136 117.424603 
L 436.308192 147.436283 
L 437.078232 155.046058 
L 437.459904 156.87193 
L 437.841576 157.135205 
L 438.229944 155.75752 
L 438.611616 152.778675 
L 439.37496 142.842434 
L 440.91504 118.945421 
L 441.296712 115.052652 
L 441.678384 112.786999 
L 442.060056 112.324227 
L 442.448424 113.683619 
L 442.830096 116.733907 
L 443.600136 126.74604 
L 445.13352 150.486571 
L 445.515192 154.658932 
L 445.896864 157.45163 
L 446.285232 158.6669 
L 446.666904 158.19424 
L 447.048576 156.007694 
L 447.436944 152.165354 
L 448.200288 140.161721 
L 450.885384 88.159984 
L 451.267056 84.147319 
L 451.655424 81.490337 
L 452.037096 80.097572 
L 452.418768 79.800677 
L 452.807136 80.382849 
L 453.188808 81.607513 
L 454.34052 86.960535 
L 455.103864 90.324776 
L 455.873904 92.740236 
L 456.255576 93.544895 
L 456.643944 94.1021 
L 457.025616 94.447943 
L 457.78896 94.683531 
L 458.559 94.578962 
L 459.32904 94.251166 
L 459.710712 93.942404 
L 460.092384 93.460845 
L 460.474056 92.735786 
L 460.862424 91.703203 
L 461.625768 88.588888 
L 462.77748 81.988459 
L 463.54752 77.797063 
L 463.929192 76.226804 
L 464.310864 75.154914 
L 464.699232 74.631824 
L 465.080904 74.654814 
L 465.462576 75.173455 
L 465.850944 76.100234 
L 466.99596 80.129215 
L 467.766 82.542945 
L 468.147672 83.297173 
L 468.53604 83.615576 
L 468.917712 83.427946 
L 469.299384 82.698438 
L 469.681056 81.436446 
L 470.451096 77.621052 
L 471.602808 71.388962 
L 471.98448 70.262686 
L 472.366152 70.148477 
L 472.75452 71.357072 
L 473.136192 74.15422 
L 473.517864 78.737439 
L 473.906232 85.216736 
L 474.669576 103.830934 
L 475.439616 129.022817 
L 478.124712 230.056593 
L 478.888056 247.800622 
L 479.276424 252.645633 
L 479.658096 254.44975 
L 480.039768 253.107169 
L 480.428136 248.669802 
L 480.809808 241.358406 
L 481.579848 219.772284 
L 484.264944 129.589416 
L 485.028288 112.083942 
L 485.798328 99.111504 
L 486.561672 89.742109 
L 487.331712 83.124623 
L 488.095056 78.695908 
L 488.865096 76.115808 
L 489.246768 75.433764 
L 489.635136 75.107698 
L 490.016808 75.094843 
L 490.39848 75.346994 
L 491.16852 76.432975 
L 493.083576 80.03404 
L 493.853616 80.928188 
L 494.235288 81.170451 
L 495.005328 81.280953 
L 496.538712 81.051792 
L 496.920384 81.236208 
L 497.302056 81.642617 
L 497.690424 82.319964 
L 498.072096 83.300882 
L 498.842136 86.201362 
L 499.60548 90.186093 
L 501.527232 101.286184 
L 502.290576 104.236354 
L 502.678944 105.039529 
L 503.060616 105.313682 
L 503.442288 105.024697 
L 503.82396 104.166147 
L 504.212328 102.763494 
L 504.975672 98.598796 
L 506.897424 86.649054 
L 507.279096 85.368274 
L 507.660768 84.81453 
L 508.049136 85.072862 
L 508.430808 86.17763 
L 508.81248 88.109553 
L 509.58252 94.126079 
L 512.267616 120.337692 
L 512.649288 122.271098 
L 513.03096 123.324695 
L 513.419328 123.438904 
L 513.801 122.595434 
L 514.182672 120.819498 
L 514.57104 118.176855 
L 515.334384 110.745068 
L 517.637808 84.415291 
L 518.01948 81.626795 
L 518.407848 79.781147 
L 518.78952 78.996759 
L 519.171192 79.35521 
L 519.552864 80.90149 
L 519.941232 83.644499 
L 520.704576 92.589934 
L 521.474616 105.623185 
L 522.626328 130.592088 
L 524.923056 183.082059 
L 525.693096 196.109377 
L 526.463136 204.816999 
L 526.844808 207.269293 
L 527.22648 208.355521 
L 527.614848 208.04132 
L 527.99652 206.327928 
L 528.378192 203.253908 
L 529.148232 193.363154 
L 529.911576 179.374942 
L 531.063288 153.818181 
L 532.596672 119.074463 
L 533.748384 97.675725 
L 534.518424 86.892553 
L 535.281768 79.128026 
L 536.051808 74.233079 
L 536.43348 72.739948 
L 536.815152 71.788696 
L 537.20352 71.295518 
L 537.585192 71.169442 
L 537.966864 71.317025 
L 538.736904 72.070759 
L 539.506944 72.907308 
L 540.270288 73.36118 
L 540.65196 73.365382 
L 541.040328 73.212114 
L 541.803672 72.506585 
L 543.337056 70.794923 
L 543.725424 70.687388 
L 544.107096 70.8545 
L 544.488768 71.362263 
L 544.877136 72.266547 
L 545.258808 73.607398 
L 546.028848 77.662088 
L 546.792192 83.437093 
L 547.943904 94.323597 
L 549.477288 109.087545 
L 550.247328 114.772813 
L 551.010672 118.452985 
L 551.39904 119.40844 
L 551.780712 119.735742 
L 552.162384 119.428958 
L 552.544056 118.500943 
L 552.932424 116.986058 
L 553.695768 112.43201 
L 554.84748 103.141474 
L 556.380864 90.821909 
L 557.150904 86.44585 
L 557.532576 84.905997 
L 557.920944 83.819522 
L 558.302616 83.177772 
L 558.684288 82.953556 
L 559.06596 83.10361 
L 559.454328 83.572809 
L 560.217672 85.201162 
L 562.139424 90.010823 
L 562.521096 90.607086 
L 562.902768 90.978391 
L 563.291136 91.099276 
L 563.672808 90.95466 
L 564.05448 90.540093 
L 564.442848 89.860274 
L 565.206192 87.776813 
L 566.357904 83.363672 
L 567.509616 78.746091 
L 568.27296 76.558309 
L 568.661328 75.986766 
L 569.043 75.875523 
L 569.424672 76.301461 
L 569.81304 77.332067 
L 570.194712 79.022963 
L 570.576384 81.415928 
L 571.346424 88.394336 
L 572.109768 98.277427 
L 572.879808 110.824669 
L 574.03152 133.601092 
L 576.716616 191.301694 
L 577.47996 203.882061 
L 578.25 212.386726 
L 578.631672 214.809603 
L 579.02004 215.917832 
L 579.401712 215.690154 
L 579.783384 214.14511 
L 580.165056 211.340299 
L 580.935096 202.346164 
L 581.705136 189.736873 
L 583.23852 158.742793 
L 584.771904 128.05253 
L 585.923616 109.549081 
L 586.68696 100.298345 
L 587.457 93.68259 
L 588.22704 89.5703 
L 588.608712 88.354041 
L 588.990384 87.624039 
L 589.372056 87.316513 
L 589.760424 87.361258 
L 590.142096 87.686582 
L 590.912136 88.886031 
L 592.057152 91.016461 
L 592.827192 91.958815 
L 593.208864 92.150647 
L 593.597232 92.118263 
L 593.978904 91.84683 
L 594.360576 91.33437 
L 595.130616 89.637046 
L 596.282328 85.903972 
L 597.43404 81.954592 
L 598.197384 79.937382 
L 598.579056 79.250394 
L 598.967424 78.819265 
L 599.349096 78.661794 
L 599.730768 78.785397 
L 600.119136 79.187603 
L 600.500808 79.856051 
L 601.270848 81.904162 
L 602.034192 84.688208 
L 604.719288 95.386093 
L 605.489328 97.27525 
L 605.871 97.842343 
L 606.252672 98.128361 
L 606.64104 98.120945 
L 607.022712 97.816633 
L 607.404384 97.221853 
L 608.174424 95.232578 
L 608.937768 92.38673 
L 611.622864 81.127684 
L 612.392904 79.054359 
L 612.774576 78.349818 
L 613.162944 77.871473 
L 613.544616 77.611411 
L 613.926288 77.553812 
L 614.30796 77.676426 
L 615.078 78.351302 
L 616.229712 79.983115 
L 617.763096 82.175842 
L 618.533136 82.906833 
L 619.29648 83.224 
L 619.684848 83.195324 
L 620.06652 83.029448 
L 620.829864 82.274231 
L 621.599904 80.997653 
L 624.285 75.564042 
L 624.666672 75.225368 
L 625.05504 75.131924 
L 625.436712 75.323757 
L 625.818384 75.836959 
L 626.200056 76.703419 
L 626.588424 77.952557 
L 627.351768 81.698485 
L 628.121808 87.251745 
L 628.885152 94.749288 
L 629.655192 104.259591 
L 630.806904 122.136617 
L 632.340288 150.860842 
L 633.873672 179.968239 
L 635.025384 197.560482 
L 635.795424 205.629568 
L 636.177096 208.322642 
L 636.558768 210.050372 
L 636.947136 210.781611 
L 637.328808 210.503503 
L 637.71048 209.220498 
L 638.092152 206.953856 
L 638.48052 203.742142 
L 639.243864 194.711421 
L 640.013904 182.725833 
L 641.547288 153.18187 
L 643.46904 115.482298 
L 644.614056 97.317275 
L 645.384096 88.054921 
L 646.154136 81.20506 
L 646.91748 76.637909 
L 647.68752 74.058304 
L 648.069192 73.388867 
L 648.069192 73.388867 
" style="fill:none;stroke:#000000;stroke-linecap:round;stroke-width:1.5;"/>
   </g>
   <g id="line2d_32">
    <path clip-path="url(#p3effb83ea9)" d="M 89.897328 68.759173 
L 90.660672 70.416696 
L 91.04904 70.962035 
L 91.430712 71.097999 
L 91.812384 70.832993 
L 92.194056 70.235988 
L 93.345768 67.712746 
L 93.734136 67.305348 
L 94.115808 67.532037 
L 94.49748 68.504303 
L 96.030864 74.781632 
L 96.419232 74.958879 
L 96.800904 74.256069 
L 97.952616 70.595674 
L 98.334288 69.953925 
L 98.71596 69.775688 
L 99.104328 70.065415 
L 99.486 70.853759 
L 99.867672 72.189666 
L 100.637712 76.442616 
L 101.401056 81.386757 
L 101.789424 83.128825 
L 102.171096 83.904808 
L 102.552768 83.642027 
L 102.941136 82.528359 
L 103.70448 78.931744 
L 104.47452 75.433269 
L 104.856192 74.588563 
L 105.237864 74.857524 
L 105.626232 76.537049 
L 106.007904 79.766068 
L 106.777944 90.28102 
L 107.92296 108.753321 
L 108.693 116.921537 
L 109.074672 119.053451 
L 109.46304 119.80941 
L 109.844712 119.119208 
L 110.226384 116.88495 
L 110.608056 113.099716 
L 111.378096 102.028795 
L 112.529808 84.306273 
L 113.293152 75.439202 
L 113.68152 72.254928 
L 114.063192 70.05528 
L 114.444864 68.983884 
L 114.833232 69.178683 
L 115.214904 70.694063 
L 115.596576 73.404935 
L 117.12996 87.688807 
L 117.518328 89.751503 
L 117.9 90.688912 
L 118.281672 90.635515 
L 118.67004 89.908479 
L 119.433384 87.564462 
L 120.203424 84.409605 
L 120.966768 81.109144 
L 121.355136 80.222659 
L 121.736808 80.169262 
L 122.11848 80.824608 
L 122.88852 82.416375 
L 123.270192 82.325155 
L 123.651864 81.34844 
L 124.803576 76.471292 
L 125.191944 75.679735 
L 125.573616 75.661689 
L 125.955288 76.303438 
L 126.725328 78.592081 
L 127.87704 82.603016 
L 128.640384 85.408816 
L 129.022056 86.222375 
L 129.410424 86.224847 
L 129.792096 85.327732 
L 130.943808 80.54032 
L 131.32548 80.491868 
L 131.707152 82.563216 
L 132.09552 87.339751 
L 132.477192 95.072635 
L 133.247232 119.080891 
L 134.398944 170.363502 
L 135.162288 202.354569 
L 135.54396 212.051513 
L 135.932328 215.00366 
L 136.314 210.387563 
L 136.695672 198.760178 
L 137.465712 162.22149 
L 138.229056 123.683145 
L 138.999096 95.401915 
L 139.769136 78.894663 
L 140.150808 74.16485 
L 140.53248 71.399839 
L 140.920848 70.400628 
L 141.30252 70.928168 
L 141.684192 72.636616 
L 142.835904 79.750988 
L 143.217576 81.08912 
L 143.605944 81.404309 
L 143.987616 80.686667 
L 144.75096 77.110817 
L 145.139328 75.183343 
L 145.521 73.886248 
L 145.902672 73.589105 
L 146.29104 74.416012 
L 146.672712 76.322968 
L 147.436056 82.907575 
L 148.587768 95.385846 
L 148.976136 97.986959 
L 149.357808 98.711028 
L 149.73948 97.302195 
L 150.891192 86.936061 
L 151.272864 85.863924 
L 151.661232 88.020312 
L 152.042904 93.72857 
L 152.812944 113.061646 
L 153.576288 133.635207 
L 153.95796 140.97429 
L 154.346328 145.245534 
L 154.728 146.108039 
L 155.109672 143.519287 
L 155.49804 137.748238 
L 156.261384 119.509053 
L 157.413096 90.192026 
L 158.183136 77.817087 
L 158.564808 74.699806 
L 158.94648 73.770307 
L 159.334848 75.11017 
L 159.71652 78.759935 
L 160.098192 84.669173 
L 160.868232 102.700703 
L 161.631576 128.088127 
L 163.553328 198.590347 
L 163.935 204.5248 
L 164.316672 205.082993 
L 164.70504 200.302256 
L 165.086712 191.027294 
L 167.390136 117.869823 
L 168.535152 92.930833 
L 169.305192 79.134948 
L 169.686864 74.570022 
L 170.075232 72.519193 
L 170.456904 73.53818 
L 170.838576 77.900643 
L 171.226944 85.528464 
L 171.990288 108.488068 
L 173.142 146.880809 
L 173.523672 155.431207 
L 173.91204 159.74324 
L 174.293712 159.172686 
L 174.675384 153.872072 
L 175.445424 133.662894 
L 176.208768 111.897548 
L 176.597136 104.070478 
L 176.978808 99.275155 
L 177.36048 97.534076 
L 177.742152 98.316239 
L 178.893864 105.220732 
L 179.282232 105.455332 
L 179.663904 103.662833 
L 180.045576 99.999225 
L 181.197288 85.642427 
L 181.57896 82.951825 
L 181.967328 82.257173 
L 182.349 83.367875 
L 183.882384 92.376595 
L 184.264056 93.082865 
L 184.652424 92.973352 
L 185.034096 92.277959 
L 185.804136 90.039252 
L 186.949152 86.486639 
L 187.719192 84.884243 
L 188.489232 83.659332 
L 189.252576 81.718756 
L 189.640944 80.718062 
L 190.022616 80.372961 
L 190.404288 81.505911 
L 190.78596 85.077312 
L 191.174328 92.061406 
L 191.556 103.323418 
L 191.937672 119.510042 
L 192.707712 167.570063 
L 193.859424 269.368202 
L 194.622768 334.972508 
L 195.011136 357.785518 
L 195.392808 369.36 
L 195.77448 367.42511 
L 196.156152 351.821895 
L 196.54452 324.79969 
L 198.459576 156.493208 
L 199.229616 118.026305 
L 199.99296 95.791266 
L 200.763 82.458153 
L 201.53304 74.297106 
L 201.914712 71.945425 
L 202.296384 70.763528 
L 202.678056 70.707412 
L 203.066424 71.664845 
L 203.448096 73.463276 
L 205.363152 85.542802 
L 205.75152 86.354878 
L 206.133192 86.163539 
L 206.514864 85.065198 
L 207.666576 79.781147 
L 208.054944 79.007389 
L 208.436616 79.536412 
L 208.818288 81.658438 
L 209.19996 85.42711 
L 209.97 96.785533 
L 210.74004 109.308054 
L 211.121712 114.27123 
L 211.503384 117.611245 
L 211.885056 119.007718 
L 212.273424 118.398352 
L 212.655096 116.021703 
L 213.806808 105.490188 
L 214.18848 104.299886 
L 214.576848 105.8343 
L 214.95852 110.446937 
L 215.721864 127.461458 
L 216.873576 156.139208 
L 217.261944 161.460587 
L 217.643616 163.244186 
L 218.025288 161.357007 
L 218.40696 156.143163 
L 219.177 138.618901 
L 220.710384 97.36548 
L 221.480424 82.80449 
L 221.862096 78.0151 
L 222.243768 74.871862 
L 222.632136 73.201731 
L 223.013808 72.759972 
L 223.39548 73.307783 
L 223.783848 74.688435 
L 224.16552 76.884869 
L 224.547192 80.035276 
L 224.928864 84.404414 
L 225.317232 90.318101 
L 226.080576 107.844835 
L 226.850616 133.167244 
L 228.765672 207.13407 
L 229.535712 225.68968 
L 229.917384 229.845725 
L 230.299056 230.068953 
L 230.687424 226.314867 
L 231.069096 218.886789 
L 231.839136 195.838932 
L 233.754192 129.926359 
L 234.524232 109.677134 
L 235.287576 93.60645 
L 236.057616 81.775861 
L 236.439288 77.663077 
L 236.82096 74.942069 
L 237.209328 73.764869 
L 237.591 74.251867 
L 237.972672 76.455718 
L 238.36104 80.330441 
L 239.124384 92.291308 
L 240.657768 120.652139 
L 241.046136 125.227942 
L 241.427808 127.725722 
L 241.80948 127.897778 
L 242.191152 125.75919 
L 242.57952 121.592515 
L 243.342864 109.332527 
L 244.494576 91.156133 
L 244.882944 87.468793 
L 245.264616 85.514126 
L 245.646288 85.333418 
L 246.02796 86.780074 
L 246.416328 89.546321 
L 248.331384 107.077999 
L 248.713056 108.263851 
L 249.101424 108.079435 
L 249.483096 106.57246 
L 250.253136 100.576206 
L 251.398152 89.945313 
L 252.168192 85.504733 
L 252.549864 84.413561 
L 252.938232 83.995781 
L 253.319904 84.125564 
L 253.701576 84.649891 
L 254.853288 86.895025 
L 255.23496 87.350133 
L 255.623328 87.488569 
L 256.005 87.287343 
L 256.386672 86.772905 
L 257.156712 85.048141 
L 258.308424 81.553622 
L 260.22348 75.315352 
L 260.605152 74.573483 
L 260.99352 74.306252 
L 261.375192 74.68794 
L 261.756864 75.903952 
L 262.145232 78.153536 
L 262.526904 81.648055 
L 262.908576 86.606534 
L 263.296944 93.23737 
L 264.060288 112.105202 
L 264.830328 138.3225 
L 266.745384 213.261839 
L 267.127056 223.970108 
L 267.515424 231.622155 
L 267.897096 235.85706 
L 268.278768 236.562341 
L 268.667136 233.852952 
L 269.048808 228.015899 
L 269.812152 208.598772 
L 270.963864 167.686992 
L 272.115576 126.785593 
L 272.885616 106.015503 
L 273.64896 91.654503 
L 274.419 82.634906 
L 275.18904 77.355304 
L 275.952384 74.351244 
L 276.722424 72.619064 
L 277.485768 71.717006 
L 277.874136 71.549152 
L 278.255808 71.567445 
L 278.63748 71.760267 
L 279.40752 72.562207 
L 280.559232 74.305758 
L 282.85596 78.227204 
L 283.626 79.766562 
L 284.39604 81.756579 
L 285.159384 84.518871 
L 286.311096 90.039746 
L 287.462808 95.588062 
L 288.226152 98.373096 
L 288.996192 100.268433 
L 289.766232 101.390011 
L 290.147904 101.653287 
L 290.529576 101.67603 
L 290.917944 101.42116 
L 291.299616 100.874338 
L 292.06296 99.076648 
L 292.833 97.097755 
L 293.214672 96.386046 
L 293.60304 95.987548 
L 293.984712 95.92451 
L 294.366384 96.160593 
L 295.136424 97.182053 
L 295.899768 98.201288 
L 296.288136 98.436876 
L 296.669808 98.360242 
L 297.05148 97.890301 
L 297.433152 96.966735 
L 297.82152 95.560622 
L 298.584864 91.416195 
L 300.888288 76.922445 
L 301.658328 74.041246 
L 302.04 73.119906 
L 302.421672 72.615109 
L 302.81004 72.617334 
L 303.191712 73.227441 
L 303.573384 74.526761 
L 303.955056 76.548668 
L 304.725096 82.583239 
L 305.876808 94.838035 
L 309.331944 134.053234 
L 311.247 152.665207 
L 312.01704 158.351958 
L 312.398712 159.946197 
L 312.780384 160.217383 
L 313.162056 158.826596 
L 313.550424 155.558518 
L 313.932096 150.396835 
L 314.702136 135.490249 
L 316.23552 102.016187 
L 316.998864 90.122066 
L 317.768904 82.499683 
L 318.150576 80.036759 
L 318.538944 78.293702 
L 318.920616 77.145178 
L 319.302288 76.480686 
L 319.68396 76.206039 
L 320.072328 76.242378 
L 320.454 76.524936 
L 321.22404 77.632671 
L 322.369056 80.085212 
L 323.139096 81.718015 
L 323.909136 82.783477 
L 324.290808 83.001019 
L 324.67248 83.026729 
L 325.824192 82.830941 
L 326.205864 83.054169 
L 326.594232 83.558224 
L 327.357576 85.342565 
L 328.509288 88.271474 
L 328.89096 88.72411 
L 329.279328 88.729549 
L 329.661 88.252192 
L 330.042672 87.317008 
L 330.812712 84.475857 
L 331.576056 81.514316 
L 331.964424 80.548972 
L 332.346096 80.236503 
L 332.727768 80.77492 
L 333.116136 82.306368 
L 333.497808 84.89685 
L 334.267848 93.047267 
L 336.182904 118.69327 
L 336.564576 121.700791 
L 336.952944 123.20381 
L 337.334616 123.066858 
L 337.716288 121.318609 
L 338.09796 118.155348 
L 338.868 109.023024 
L 340.019712 94.696386 
L 340.783056 88.292487 
L 341.171424 86.314088 
L 341.553096 85.056299 
L 341.934768 84.380682 
L 342.323136 84.128284 
L 342.704808 84.140891 
L 343.85652 84.518129 
L 344.619864 84.386862 
L 347.30496 82.93279 
L 347.693328 82.575329 
L 348.075 82.005269 
L 348.84504 80.079526 
L 349.990056 76.253255 
L 350.378424 75.401627 
L 350.760096 75.102012 
L 351.141768 75.503229 
L 351.530136 76.67153 
L 351.911808 78.573541 
L 352.675152 83.976746 
L 353.826864 92.442846 
L 354.596904 95.866911 
L 354.978576 96.7707 
L 355.748616 97.944934 
L 356.130288 98.922143 
L 356.51196 100.70945 
L 356.900328 103.696453 
L 357.282 108.190183 
L 358.05204 122.302246 
L 358.815384 142.817713 
L 360.737136 202.105879 
L 361.118808 210.30722 
L 361.50048 215.528481 
L 361.888848 217.110853 
L 362.27052 214.63013 
L 362.652192 208.017588 
L 363.422232 184.227369 
L 365.337288 109.200272 
L 366.107328 89.541871 
L 366.870672 77.661594 
L 367.25904 74.036302 
L 367.640712 71.579558 
L 368.022384 70.043167 
L 368.404056 69.226889 
L 368.792424 68.980918 
L 369.174096 69.20291 
L 369.555768 69.828096 
L 369.944136 70.818902 
L 370.70748 73.790578 
L 371.859192 79.98534 
L 372.629232 84.074392 
L 373.010904 85.669125 
L 373.392576 86.778591 
L 373.780944 87.309839 
L 374.162616 87.230238 
L 374.544288 86.57687 
L 375.314328 84.040031 
L 376.077672 81.147708 
L 376.46604 80.095842 
L 376.847712 79.537154 
L 377.229384 79.572752 
L 377.611056 80.227356 
L 377.999424 81.44312 
L 379.91448 89.395525 
L 380.302848 89.751503 
L 380.68452 89.341633 
L 381.066192 88.210414 
L 382.599576 81.758557 
L 382.987944 81.736061 
L 383.369616 83.208673 
L 383.751288 86.462907 
L 384.13296 91.631018 
L 384.903 107.367973 
L 387.206424 166.874422 
L 387.588096 172.446964 
L 387.969768 175.404549 
L 388.358136 175.506151 
L 388.739808 172.71543 
L 389.12148 167.223725 
L 389.89152 150.003034 
L 391.424904 110.252632 
L 392.194944 97.530615 
L 392.576616 93.919414 
L 392.958288 92.064125 
L 393.33996 91.770196 
L 393.728328 92.784733 
L 394.11 94.832844 
L 394.88004 100.95023 
L 396.413424 114.876887 
L 397.176768 120.061808 
L 397.946808 123.288355 
L 398.32848 124.179289 
L 398.710152 124.610913 
L 399.09852 124.572596 
L 399.480192 124.015144 
L 399.861864 122.852035 
L 400.250232 120.977463 
L 400.631904 118.295267 
L 401.401944 110.376236 
L 402.54696 93.826711 
L 403.698672 78.173313 
L 404.08704 74.541841 
L 404.468712 72.02552 
L 404.850384 70.685905 
L 405.232056 70.493578 
L 405.620424 71.330374 
L 406.002096 73.002235 
L 407.917152 84.111474 
L 408.30552 85.00661 
L 408.687192 85.117359 
L 409.068864 84.516151 
L 410.220576 81.079726 
L 410.608944 80.730917 
L 410.990616 81.519755 
L 411.372288 83.812847 
L 411.75396 87.854683 
L 412.142328 93.736728 
L 412.905672 110.563371 
L 415.209096 170.73456 
L 415.590768 176.394366 
L 415.979136 179.602619 
L 416.360808 180.171443 
L 416.74248 178.068452 
L 417.130848 173.418982 
L 417.894192 157.7154 
L 420.197616 96.472816 
L 420.96096 83.852401 
L 421.349328 79.87385 
L 421.731 77.303885 
L 422.112672 75.937325 
L 422.50104 75.533635 
L 422.882712 75.843139 
L 423.264384 76.631235 
L 425.186136 81.847057 
L 425.94948 83.061091 
L 427.101192 84.598224 
L 427.871232 86.296042 
L 429.786288 91.667605 
L 430.16796 92.224068 
L 430.938 92.735292 
L 431.319672 92.976072 
L 431.70804 93.486307 
L 432.089712 94.495159 
L 432.471384 96.203607 
L 432.853056 98.753301 
L 433.623096 106.546504 
L 434.393136 117.424603 
L 436.308192 147.436283 
L 437.078232 155.046058 
L 437.459904 156.87193 
L 437.841576 157.135205 
L 438.229944 155.75752 
L 438.611616 152.778675 
L 439.37496 142.842434 
L 440.91504 118.945421 
L 441.296712 115.052652 
L 441.678384 112.786999 
L 442.060056 112.324227 
L 442.448424 113.683619 
L 442.830096 116.733907 
L 443.600136 126.74604 
L 445.13352 150.486571 
L 445.515192 154.658932 
L 445.896864 157.45163 
L 446.285232 158.6669 
L 446.666904 158.19424 
L 447.048576 156.007694 
L 447.436944 152.165354 
L 448.200288 140.161721 
L 450.885384 88.159984 
L 451.267056 84.147319 
L 451.655424 81.490337 
L 452.037096 80.097572 
L 452.418768 79.800677 
L 452.807136 80.382849 
L 453.188808 81.607513 
L 454.34052 86.960535 
L 455.103864 90.324776 
L 455.873904 92.740236 
L 456.255576 93.544895 
L 456.643944 94.1021 
L 457.025616 94.447943 
L 457.78896 94.683531 
L 458.559 94.578962 
L 459.32904 94.251166 
L 459.710712 93.942404 
L 460.092384 93.460845 
L 460.474056 92.735786 
L 460.862424 91.703203 
L 461.625768 88.588888 
L 462.77748 81.988459 
L 463.54752 77.797063 
L 463.929192 76.226804 
L 464.310864 75.154914 
L 464.699232 74.631824 
L 465.080904 74.654814 
L 465.462576 75.173455 
L 465.850944 76.100234 
L 466.99596 80.129215 
L 467.766 82.542945 
L 468.147672 83.297173 
L 468.53604 83.615576 
L 468.917712 83.427946 
L 469.299384 82.698438 
L 469.681056 81.436446 
L 470.451096 77.621052 
L 471.602808 71.388962 
L 471.98448 70.262686 
L 472.366152 70.148477 
L 472.75452 71.357072 
L 473.136192 74.15422 
L 473.517864 78.737439 
L 473.906232 85.216736 
L 474.669576 103.830934 
L 475.439616 129.022817 
L 478.124712 230.056593 
L 478.888056 247.800622 
L 479.276424 252.645633 
L 479.658096 254.44975 
L 480.039768 253.107169 
L 480.428136 248.669802 
L 480.809808 241.358406 
L 481.579848 219.772284 
L 484.264944 129.589416 
L 485.028288 112.083942 
L 485.798328 99.111504 
L 486.561672 89.742109 
L 487.331712 83.124623 
L 488.095056 78.695908 
L 488.865096 76.115808 
L 489.246768 75.433764 
L 489.635136 75.107698 
L 490.016808 75.094843 
L 490.39848 75.346994 
L 491.16852 76.432975 
L 493.083576 80.03404 
L 493.853616 80.928188 
L 494.235288 81.170451 
L 495.005328 81.280953 
L 496.538712 81.051792 
L 496.920384 81.236208 
L 497.302056 81.642617 
L 497.690424 82.319964 
L 498.072096 83.300882 
L 498.842136 86.201362 
L 499.60548 90.186093 
L 501.527232 101.286184 
L 502.290576 104.236354 
L 502.678944 105.039529 
L 503.060616 105.313682 
L 503.442288 105.024697 
L 503.82396 104.166147 
L 504.212328 102.763494 
L 504.975672 98.598796 
L 506.897424 86.649054 
L 507.279096 85.368274 
L 507.660768 84.81453 
L 508.049136 85.072862 
L 508.430808 86.17763 
L 508.81248 88.109553 
L 509.58252 94.126079 
L 512.267616 120.337692 
L 512.649288 122.271098 
L 513.03096 123.324695 
L 513.419328 123.438904 
L 513.801 122.595434 
L 514.182672 120.819498 
L 514.57104 118.176855 
L 515.334384 110.745068 
L 517.637808 84.415291 
L 518.01948 81.626795 
L 518.407848 79.781147 
L 518.78952 78.996759 
L 519.171192 79.35521 
L 519.552864 80.90149 
L 519.941232 83.644499 
L 520.704576 92.589934 
L 521.474616 105.623185 
L 522.626328 130.592088 
L 524.923056 183.082059 
L 525.693096 196.109377 
L 526.463136 204.816999 
L 526.844808 207.269293 
L 527.22648 208.355521 
L 527.614848 208.04132 
L 527.99652 206.327928 
L 528.378192 203.253908 
L 529.148232 193.363154 
L 529.911576 179.374942 
L 531.063288 153.818181 
L 532.596672 119.074463 
L 533.748384 97.675725 
L 534.518424 86.892553 
L 535.281768 79.128026 
L 536.051808 74.233079 
L 536.43348 72.739948 
L 536.815152 71.788696 
L 537.20352 71.295518 
L 537.585192 71.169442 
L 537.966864 71.317025 
L 538.736904 72.070759 
L 539.506944 72.907308 
L 540.270288 73.36118 
L 540.65196 73.365382 
L 541.040328 73.212114 
L 541.803672 72.506585 
L 543.337056 70.794923 
L 543.725424 70.687388 
L 544.107096 70.8545 
L 544.488768 71.362263 
L 544.877136 72.266547 
L 545.258808 73.607398 
L 546.028848 77.662088 
L 546.792192 83.437093 
L 547.943904 94.323597 
L 549.477288 109.087545 
L 550.247328 114.772813 
L 551.010672 118.452985 
L 551.39904 119.40844 
L 551.780712 119.735742 
L 552.162384 119.428958 
L 552.544056 118.500943 
L 552.932424 116.986058 
L 553.695768 112.43201 
L 554.84748 103.141474 
L 556.380864 90.821909 
L 557.150904 86.44585 
L 557.532576 84.905997 
L 557.920944 83.819522 
L 558.302616 83.177772 
L 558.684288 82.953556 
L 559.06596 83.10361 
L 559.454328 83.572809 
L 560.217672 85.201162 
L 562.139424 90.010823 
L 562.521096 90.607086 
L 562.902768 90.978391 
L 563.291136 91.099276 
L 563.672808 90.95466 
L 564.05448 90.540093 
L 564.442848 89.860274 
L 565.206192 87.776813 
L 566.357904 83.363672 
L 567.509616 78.746091 
L 568.27296 76.558309 
L 568.661328 75.986766 
L 569.043 75.875523 
L 569.424672 76.301461 
L 569.81304 77.332067 
L 570.194712 79.022963 
L 570.576384 81.415928 
L 571.346424 88.394336 
L 572.109768 98.277427 
L 572.879808 110.824669 
L 574.03152 133.601092 
L 576.716616 191.301694 
L 577.47996 203.882061 
L 578.25 212.386726 
L 578.631672 214.809603 
L 579.02004 215.917832 
L 579.401712 215.690154 
L 579.783384 214.14511 
L 580.165056 211.340299 
L 580.935096 202.346164 
L 581.705136 189.736873 
L 583.23852 158.742793 
L 584.771904 128.05253 
L 585.923616 109.549081 
L 586.68696 100.298345 
L 587.457 93.68259 
L 588.22704 89.5703 
L 588.608712 88.354041 
L 588.990384 87.624039 
L 589.372056 87.316513 
L 589.760424 87.361258 
L 590.142096 87.686582 
L 590.912136 88.886031 
L 592.057152 91.016461 
L 592.827192 91.958815 
L 593.208864 92.150647 
L 593.597232 92.118263 
L 593.978904 91.84683 
L 594.360576 91.33437 
L 595.130616 89.637046 
L 596.282328 85.903972 
L 597.43404 81.954592 
L 598.197384 79.937382 
L 598.579056 79.250394 
L 598.967424 78.819265 
L 599.349096 78.661794 
L 599.730768 78.785397 
L 600.119136 79.187603 
L 600.500808 79.856051 
L 601.270848 81.904162 
L 602.034192 84.688208 
L 604.719288 95.386093 
L 605.489328 97.27525 
L 605.871 97.842343 
L 606.252672 98.128361 
L 606.64104 98.120945 
L 607.022712 97.816633 
L 607.404384 97.221853 
L 608.174424 95.232578 
L 608.937768 92.38673 
L 611.622864 81.127684 
L 612.392904 79.054359 
L 612.774576 78.349818 
L 613.162944 77.871473 
L 613.544616 77.611411 
L 613.926288 77.553812 
L 614.30796 77.676426 
L 615.078 78.351302 
L 616.229712 79.983115 
L 617.763096 82.175842 
L 618.533136 82.906833 
L 619.29648 83.224 
L 619.684848 83.195324 
L 620.06652 83.029448 
L 620.829864 82.274231 
L 621.599904 80.997653 
L 624.285 75.564042 
L 624.666672 75.225368 
L 625.05504 75.131924 
L 625.436712 75.323757 
L 625.818384 75.836959 
L 626.200056 76.703419 
L 626.588424 77.952557 
L 627.351768 81.698485 
L 628.121808 87.251745 
L 628.885152 94.749288 
L 629.655192 104.259591 
L 630.806904 122.136617 
L 632.340288 150.860842 
L 633.873672 179.968239 
L 635.025384 197.560482 
L 635.795424 205.629568 
L 636.177096 208.322642 
L 636.558768 210.050372 
L 636.947136 210.781611 
L 637.328808 210.503503 
L 637.71048 209.220498 
L 638.092152 206.953856 
L 638.48052 203.742142 
L 639.243864 194.711421 
L 640.013904 182.725833 
L 641.547288 153.18187 
L 643.46904 115.482298 
L 644.614056 97.317275 
L 645.384096 88.054921 
L 646.154136 81.20506 
L 646.91748 76.637909 
L 647.68752 74.058304 
L 648.069192 73.388867 
L 648.069192 73.388867 
" style="fill:none;stroke:#000000;stroke-linecap:round;stroke-width:1.5;"/>
   </g>
   <g id="patch_3">
    <path d="M 90 384.48 
L 90 51.84 
" style="fill:none;stroke:#cccccc;stroke-linecap:square;stroke-linejoin:miter;"/>
   </g>
   <g id="patch_4">
    <path d="M 648 384.48 
L 648 51.84 
" style="fill:none;stroke:#cccccc;stroke-linecap:square;stroke-linejoin:miter;"/>
   </g>
   <g id="patch_5">
    <path d="M 90 384.48 
L 648 384.48 
" style="fill:none;stroke:#cccccc;stroke-linecap:square;stroke-linejoin:miter;"/>
   </g>
   <g id="patch_6">
    <path d="M 90 51.84 
L 648 51.84 
" style="fill:none;stroke:#cccccc;stroke-linecap:square;stroke-linejoin:miter;"/>
   </g>
   <g id="text_18">
    <!-- Periodogram: 1998 TU3 -->
    <g style="fill:#262626;" transform="translate(279.64125 45.84)scale(0.16 -0.16)">
     <defs>
      <path d="M 4050 3009 
Q 4050 2725 3954 2461 
Q 3859 2197 3662 1994 
Q 3466 1791 3162 1670 
Q 2859 1550 2444 1550 
L 1350 1550 
L 1350 0 
L 428 0 
L 428 4403 
L 2406 4403 
Q 2828 4403 3137 4301 
Q 3447 4200 3650 4015 
Q 3853 3831 3951 3575 
Q 4050 3319 4050 3009 
z
M 3122 2994 
Q 3122 3334 2917 3511 
Q 2713 3688 2303 3688 
L 1350 3688 
L 1350 2259 
L 2328 2259 
Q 2534 2259 2682 2312 
Q 2831 2366 2929 2462 
Q 3028 2559 3075 2695 
Q 3122 2831 3122 2994 
z
" id="LiberationSans-Bold-50" transform="scale(0.015625)"/>
      <path d="M 1831 -63 
Q 1466 -63 1173 45 
Q 881 153 675 373 
Q 469 594 359 926 
Q 250 1259 250 1706 
Q 250 2191 379 2522 
Q 509 2853 729 3058 
Q 950 3263 1237 3353 
Q 1525 3444 1844 3444 
Q 2244 3444 2526 3305 
Q 2809 3166 2990 2916 
Q 3172 2666 3256 2317 
Q 3341 1969 3341 1547 
L 3341 1522 
L 1172 1522 
Q 1172 1309 1209 1126 
Q 1247 944 1331 811 
Q 1416 678 1550 601 
Q 1684 525 1875 525 
Q 2106 525 2253 623 
Q 2400 722 2463 928 
L 3291 856 
Q 3234 713 3132 550 
Q 3031 388 2862 252 
Q 2694 116 2442 26 
Q 2191 -63 1831 -63 
z
M 1831 2891 
Q 1697 2891 1580 2845 
Q 1463 2800 1377 2701 
Q 1291 2603 1237 2447 
Q 1184 2291 1178 2072 
L 2491 2072 
Q 2466 2481 2294 2686 
Q 2122 2891 1831 2891 
z
" id="LiberationSans-Bold-65" transform="scale(0.015625)"/>
      <path d="M 447 0 
L 447 2588 
Q 447 2697 445 2819 
Q 444 2941 439 3052 
Q 434 3163 431 3252 
Q 428 3341 422 3381 
L 1259 3381 
Q 1266 3344 1272 3251 
Q 1278 3159 1284 3050 
Q 1291 2941 1295 2833 
Q 1300 2725 1300 2659 
L 1313 2659 
Q 1378 2844 1443 2989 
Q 1509 3134 1598 3236 
Q 1688 3338 1813 3392 
Q 1938 3447 2122 3447 
Q 2200 3447 2276 3433 
Q 2353 3419 2394 3400 
L 2394 2666 
Q 2309 2684 2223 2698 
Q 2138 2713 2019 2713 
Q 1691 2713 1508 2447 
Q 1325 2181 1325 1659 
L 1325 0 
L 447 0 
z
" id="LiberationSans-Bold-72" transform="scale(0.015625)"/>
      <path d="M 447 3991 
L 447 4638 
L 1325 4638 
L 1325 3991 
L 447 3991 
z
M 447 0 
L 447 3381 
L 1325 3381 
L 1325 0 
L 447 0 
z
" id="LiberationSans-Bold-69" transform="scale(0.015625)"/>
      <path d="M 3659 1694 
Q 3659 1306 3551 984 
Q 3444 663 3228 430 
Q 3013 197 2691 67 
Q 2369 -63 1941 -63 
Q 1528 -63 1212 65 
Q 897 194 683 425 
Q 469 656 359 979 
Q 250 1303 250 1694 
Q 250 2072 354 2392 
Q 459 2713 671 2947 
Q 884 3181 1206 3312 
Q 1528 3444 1959 3444 
Q 2416 3444 2737 3312 
Q 3059 3181 3264 2948 
Q 3469 2716 3564 2395 
Q 3659 2075 3659 1694 
z
M 2741 1694 
Q 2741 2297 2544 2569 
Q 2347 2841 1972 2841 
Q 1584 2841 1378 2566 
Q 1172 2291 1172 1694 
Q 1172 1391 1226 1172 
Q 1281 953 1381 812 
Q 1481 672 1622 605 
Q 1763 538 1931 538 
Q 2125 538 2276 605 
Q 2428 672 2531 812 
Q 2634 953 2687 1172 
Q 2741 1391 2741 1694 
z
" id="LiberationSans-Bold-6f" transform="scale(0.015625)"/>
      <path d="M 2638 0 
Q 2631 25 2623 89 
Q 2616 153 2608 234 
Q 2600 316 2595 400 
Q 2591 484 2591 550 
L 2578 550 
Q 2425 222 2151 79 
Q 1878 -63 1497 -63 
Q 1178 -63 945 68 
Q 713 200 561 434 
Q 409 669 336 989 
Q 263 1309 263 1688 
Q 263 2072 339 2394 
Q 416 2716 575 2948 
Q 734 3181 979 3312 
Q 1225 3444 1563 3444 
Q 1728 3444 1881 3409 
Q 2034 3375 2165 3303 
Q 2297 3231 2403 3118 
Q 2509 3006 2584 2847 
L 2591 2847 
Q 2591 2878 2589 2939 
Q 2588 3000 2588 3078 
Q 2588 3156 2586 3240 
Q 2584 3325 2584 3403 
L 2584 4638 
L 3463 4638 
L 3463 738 
Q 3463 491 3472 298 
Q 3481 106 3488 0 
L 2638 0 
z
M 2597 1709 
Q 2597 2044 2534 2264 
Q 2472 2484 2370 2614 
Q 2269 2744 2139 2795 
Q 2009 2847 1875 2847 
Q 1706 2847 1576 2781 
Q 1447 2716 1358 2575 
Q 1269 2434 1223 2215 
Q 1178 1997 1178 1688 
Q 1178 538 1869 538 
Q 2000 538 2131 594 
Q 2263 650 2366 784 
Q 2469 919 2533 1145 
Q 2597 1372 2597 1709 
z
" id="LiberationSans-Bold-64" transform="scale(0.015625)"/>
      <path d="M 1863 -1356 
Q 1528 -1356 1273 -1289 
Q 1019 -1222 839 -1101 
Q 659 -981 551 -814 
Q 444 -647 403 -447 
L 1281 -344 
Q 1328 -547 1483 -662 
Q 1638 -778 1888 -778 
Q 2044 -778 2173 -734 
Q 2303 -691 2395 -586 
Q 2488 -481 2539 -309 
Q 2591 -138 2591 116 
Q 2591 203 2591 293 
Q 2591 384 2594 459 
Q 2597 547 2597 628 
L 2591 628 
Q 2438 300 2161 153 
Q 1884 6 1503 6 
Q 1181 6 948 132 
Q 716 259 562 486 
Q 409 713 336 1027 
Q 263 1341 263 1719 
Q 263 2109 341 2426 
Q 419 2744 580 2972 
Q 741 3200 986 3323 
Q 1231 3447 1569 3447 
Q 1906 3447 2173 3303 
Q 2441 3159 2591 2838 
L 2606 2838 
Q 2606 2903 2611 2989 
Q 2616 3075 2622 3154 
Q 2628 3234 2636 3296 
Q 2644 3359 2650 3381 
L 3481 3381 
Q 3475 3269 3469 3066 
Q 3463 2863 3463 2600 
L 3463 103 
Q 3463 -266 3356 -539 
Q 3250 -813 3045 -994 
Q 2841 -1175 2542 -1265 
Q 2244 -1356 1863 -1356 
z
M 2597 1738 
Q 2597 2056 2534 2268 
Q 2472 2481 2372 2609 
Q 2272 2738 2142 2791 
Q 2013 2844 1881 2844 
Q 1713 2844 1583 2778 
Q 1453 2713 1362 2575 
Q 1272 2438 1225 2225 
Q 1178 2013 1178 1719 
Q 1178 1172 1353 894 
Q 1528 616 1875 616 
Q 2006 616 2136 667 
Q 2266 719 2369 848 
Q 2472 978 2534 1193 
Q 2597 1409 2597 1738 
z
" id="LiberationSans-Bold-67" transform="scale(0.015625)"/>
      <path d="M 1228 -63 
Q 984 -63 792 4 
Q 600 72 465 201 
Q 331 331 259 522 
Q 188 713 188 956 
Q 188 1256 292 1461 
Q 397 1666 578 1792 
Q 759 1919 1003 1976 
Q 1247 2034 1522 2038 
L 2250 2050 
L 2250 2222 
Q 2250 2406 2217 2529 
Q 2184 2653 2121 2731 
Q 2059 2809 1967 2842 
Q 1875 2875 1756 2875 
Q 1647 2875 1561 2853 
Q 1475 2831 1412 2776 
Q 1350 2722 1311 2630 
Q 1272 2538 1256 2397 
L 341 2441 
Q 378 2663 478 2845 
Q 578 3028 754 3162 
Q 931 3297 1189 3370 
Q 1447 3444 1794 3444 
Q 2109 3444 2356 3366 
Q 2603 3288 2775 3133 
Q 2947 2978 3037 2753 
Q 3128 2528 3128 2231 
L 3128 1000 
Q 3128 881 3139 787 
Q 3150 694 3179 630 
Q 3209 566 3264 533 
Q 3319 500 3406 500 
Q 3506 500 3600 519 
L 3600 44 
Q 3522 25 3459 9 
Q 3397 -6 3334 -15 
Q 3272 -25 3201 -31 
Q 3131 -38 3038 -38 
Q 2706 -38 2548 125 
Q 2391 288 2359 603 
L 2341 603 
Q 2166 288 1892 112 
Q 1619 -63 1228 -63 
z
M 2250 1566 
L 1800 1559 
Q 1659 1553 1532 1536 
Q 1406 1519 1311 1464 
Q 1216 1409 1159 1306 
Q 1103 1203 1103 1025 
Q 1103 784 1214 667 
Q 1325 550 1509 550 
Q 1678 550 1815 622 
Q 1953 694 2048 811 
Q 2144 928 2197 1081 
Q 2250 1234 2250 1394 
L 2250 1566 
z
" id="LiberationSans-Bold-61" transform="scale(0.015625)"/>
      <path d="M 2438 0 
L 2438 1897 
Q 2438 2094 2411 2258 
Q 2384 2422 2323 2539 
Q 2263 2656 2164 2722 
Q 2066 2788 1925 2788 
Q 1791 2788 1681 2717 
Q 1572 2647 1492 2517 
Q 1413 2388 1369 2208 
Q 1325 2028 1325 1813 
L 1325 0 
L 447 0 
L 447 2625 
Q 447 2734 445 2850 
Q 444 2966 439 3070 
Q 434 3175 431 3258 
Q 428 3341 422 3381 
L 1259 3381 
Q 1266 3344 1272 3261 
Q 1278 3178 1284 3078 
Q 1291 2978 1295 2878 
Q 1300 2778 1300 2709 
L 1313 2709 
Q 1475 3097 1717 3272 
Q 1959 3447 2297 3447 
Q 2684 3447 2920 3258 
Q 3156 3069 3238 2709 
L 3256 2709 
Q 3347 2919 3451 3059 
Q 3556 3200 3682 3286 
Q 3809 3372 3957 3409 
Q 4106 3447 4281 3447 
Q 4559 3447 4751 3347 
Q 4944 3247 5064 3072 
Q 5184 2897 5239 2659 
Q 5294 2422 5294 2147 
L 5294 0 
L 4422 0 
L 4422 1897 
Q 4422 2094 4395 2258 
Q 4369 2422 4308 2539 
Q 4247 2656 4148 2722 
Q 4050 2788 3909 2788 
Q 3778 2788 3670 2720 
Q 3563 2653 3483 2529 
Q 3403 2406 3359 2234 
Q 3316 2063 3309 1853 
L 3309 0 
L 2438 0 
z
" id="LiberationSans-Bold-6d" transform="scale(0.015625)"/>
      <path d="M 616 2350 
L 616 3231 
L 1516 3231 
L 1516 2350 
L 616 2350 
z
M 616 0 
L 616 878 
L 1516 878 
L 1516 0 
L 616 0 
z
" id="LiberationSans-Bold-3a" transform="scale(0.015625)"/>
      <path id="LiberationSans-Bold-20" transform="scale(0.015625)"/>
      <path d="M 403 0 
L 403 653 
L 1494 653 
L 1494 3656 
L 438 2997 
L 438 3688 
L 1541 4403 
L 2372 4403 
L 2372 653 
L 3381 653 
L 3381 0 
L 403 0 
z
" id="LiberationSans-Bold-31" transform="scale(0.015625)"/>
      <path d="M 3322 2272 
Q 3322 1100 2894 518 
Q 2466 -63 1678 -63 
Q 1394 -63 1167 -3 
Q 941 56 772 181 
Q 603 306 486 503 
Q 369 700 300 972 
L 1125 1088 
Q 1188 853 1330 740 
Q 1472 628 1688 628 
Q 1866 628 2006 712 
Q 2147 797 2247 969 
Q 2347 1141 2401 1405 
Q 2456 1669 2459 2028 
Q 2397 1906 2294 1812 
Q 2191 1719 2061 1656 
Q 1931 1594 1784 1561 
Q 1638 1528 1488 1528 
Q 1200 1528 965 1629 
Q 731 1731 565 1922 
Q 400 2113 311 2383 
Q 222 2653 222 2994 
Q 222 3344 326 3619 
Q 431 3894 628 4083 
Q 825 4272 1111 4370 
Q 1397 4469 1759 4469 
Q 2141 4469 2433 4339 
Q 2725 4209 2922 3939 
Q 3119 3669 3220 3255 
Q 3322 2841 3322 2272 
z
M 2394 2888 
Q 2394 3075 2351 3239 
Q 2309 3403 2225 3523 
Q 2141 3644 2019 3712 
Q 1897 3781 1738 3781 
Q 1591 3781 1475 3726 
Q 1359 3672 1278 3569 
Q 1197 3466 1155 3319 
Q 1113 3172 1113 2988 
Q 1113 2816 1153 2667 
Q 1194 2519 1272 2411 
Q 1350 2303 1469 2242 
Q 1588 2181 1741 2181 
Q 1863 2181 1980 2225 
Q 2097 2269 2189 2356 
Q 2281 2444 2337 2576 
Q 2394 2709 2394 2888 
z
" id="LiberationSans-Bold-39" transform="scale(0.015625)"/>
      <path d="M 3363 1241 
Q 3363 956 3269 717 
Q 3175 478 2981 304 
Q 2788 131 2491 34 
Q 2194 -63 1784 -63 
Q 1378 -63 1079 34 
Q 781 131 586 304 
Q 391 478 297 715 
Q 203 953 203 1234 
Q 203 1475 278 1661 
Q 353 1847 478 1981 
Q 603 2116 765 2195 
Q 928 2275 1100 2303 
L 1100 2316 
Q 916 2356 769 2450 
Q 622 2544 519 2675 
Q 416 2806 361 2967 
Q 306 3128 306 3303 
Q 306 3566 401 3781 
Q 497 3997 681 4150 
Q 866 4303 1139 4386 
Q 1413 4469 1772 4469 
Q 2156 4469 2436 4383 
Q 2716 4297 2897 4142 
Q 3078 3988 3165 3772 
Q 3253 3556 3253 3297 
Q 3253 3125 3198 2964 
Q 3144 2803 3041 2672 
Q 2938 2541 2789 2450 
Q 2641 2359 2453 2322 
L 2453 2309 
Q 2647 2278 2814 2195 
Q 2981 2113 3103 1980 
Q 3225 1847 3294 1661 
Q 3363 1475 3363 1241 
z
M 2350 3250 
Q 2350 3381 2322 3492 
Q 2294 3603 2228 3683 
Q 2163 3763 2052 3808 
Q 1941 3853 1772 3853 
Q 1609 3853 1500 3808 
Q 1391 3763 1325 3683 
Q 1259 3603 1231 3492 
Q 1203 3381 1203 3250 
Q 1203 3134 1226 3021 
Q 1250 2909 1312 2820 
Q 1375 2731 1487 2675 
Q 1600 2619 1778 2619 
Q 1966 2619 2080 2675 
Q 2194 2731 2253 2822 
Q 2313 2913 2331 3025 
Q 2350 3138 2350 3250 
z
M 2453 1313 
Q 2453 1447 2423 1572 
Q 2394 1697 2317 1792 
Q 2241 1888 2106 1945 
Q 1972 2003 1766 2003 
Q 1578 2003 1451 1945 
Q 1325 1888 1248 1791 
Q 1172 1694 1139 1567 
Q 1106 1441 1106 1300 
Q 1106 1134 1139 996 
Q 1172 859 1251 761 
Q 1331 663 1462 609 
Q 1594 556 1791 556 
Q 1988 556 2116 611 
Q 2244 666 2319 766 
Q 2394 866 2423 1005 
Q 2453 1144 2453 1313 
z
" id="LiberationSans-Bold-38" transform="scale(0.015625)"/>
      <path d="M 2416 3691 
L 2416 0 
L 1494 0 
L 1494 3691 
L 72 3691 
L 72 4403 
L 3841 4403 
L 3841 3691 
L 2416 3691 
z
" id="LiberationSans-Bold-54" transform="scale(0.015625)"/>
      <path d="M 2259 -63 
Q 1847 -63 1503 35 
Q 1159 134 911 342 
Q 663 550 523 875 
Q 384 1200 384 1650 
L 384 4403 
L 1306 4403 
L 1306 1722 
Q 1306 1444 1375 1242 
Q 1444 1041 1572 911 
Q 1700 781 1881 720 
Q 2063 659 2284 659 
Q 2509 659 2698 723 
Q 2888 788 3023 922 
Q 3159 1056 3234 1262 
Q 3309 1469 3309 1753 
L 3309 4403 
L 4231 4403 
L 4231 1697 
Q 4231 1244 4084 912 
Q 3938 581 3675 364 
Q 3413 147 3052 42 
Q 2691 -63 2259 -63 
z
" id="LiberationSans-Bold-55" transform="scale(0.015625)"/>
      <path d="M 3328 1222 
Q 3328 922 3229 683 
Q 3131 444 2934 275 
Q 2738 106 2445 17 
Q 2153 -72 1766 -72 
Q 1334 -72 1039 37 
Q 744 147 555 326 
Q 366 506 270 734 
Q 175 963 147 1197 
L 1041 1275 
Q 1059 1134 1111 1017 
Q 1163 900 1250 815 
Q 1338 731 1464 686 
Q 1591 641 1763 641 
Q 2078 641 2253 797 
Q 2428 953 2428 1275 
Q 2428 1472 2345 1590 
Q 2263 1709 2136 1773 
Q 2009 1838 1862 1859 
Q 1716 1881 1584 1881 
L 1278 1881 
L 1278 2591 
L 1566 2591 
Q 1697 2591 1833 2616 
Q 1969 2641 2078 2706 
Q 2188 2772 2256 2889 
Q 2325 3006 2325 3188 
Q 2325 3459 2173 3614 
Q 2022 3769 1731 3769 
Q 1459 3769 1292 3619 
Q 1125 3469 1100 3194 
L 222 3256 
Q 259 3566 392 3794 
Q 525 4022 726 4172 
Q 928 4322 1190 4395 
Q 1453 4469 1747 4469 
Q 2134 4469 2412 4375 
Q 2691 4281 2869 4122 
Q 3047 3963 3131 3750 
Q 3216 3538 3216 3297 
Q 3216 3103 3159 2936 
Q 3103 2769 2989 2636 
Q 2875 2503 2697 2408 
Q 2519 2313 2275 2266 
L 2275 2253 
Q 2547 2222 2747 2130 
Q 2947 2038 3075 1900 
Q 3203 1763 3265 1589 
Q 3328 1416 3328 1222 
z
" id="LiberationSans-Bold-33" transform="scale(0.015625)"/>
     </defs>
     <use xlink:href="#LiberationSans-Bold-50"/>
     <use x="66.699219" xlink:href="#LiberationSans-Bold-65"/>
     <use x="122.314453" xlink:href="#LiberationSans-Bold-72"/>
     <use x="161.230469" xlink:href="#LiberationSans-Bold-69"/>
     <use x="189.013672" xlink:href="#LiberationSans-Bold-6f"/>
     <use x="250.097656" xlink:href="#LiberationSans-Bold-64"/>
     <use x="311.181641" xlink:href="#LiberationSans-Bold-6f"/>
     <use x="372.265625" xlink:href="#LiberationSans-Bold-67"/>
     <use x="433.349609" xlink:href="#LiberationSans-Bold-72"/>
     <use x="472.265625" xlink:href="#LiberationSans-Bold-61"/>
     <use x="527.880859" xlink:href="#LiberationSans-Bold-6d"/>
     <use x="616.796875" xlink:href="#LiberationSans-Bold-3a"/>
     <use x="650.097656" xlink:href="#LiberationSans-Bold-20"/>
     <use x="677.880859" xlink:href="#LiberationSans-Bold-31"/>
     <use x="733.496094" xlink:href="#LiberationSans-Bold-39"/>
     <use x="789.111328" xlink:href="#LiberationSans-Bold-39"/>
     <use x="844.726562" xlink:href="#LiberationSans-Bold-38"/>
     <use x="900.341797" xlink:href="#LiberationSans-Bold-20"/>
     <use x="928.125" xlink:href="#LiberationSans-Bold-54"/>
     <use x="989.208984" xlink:href="#LiberationSans-Bold-55"/>
     <use x="1061.425781" xlink:href="#LiberationSans-Bold-33"/>
    </g>
   </g>
  </g>
 </g>
 <defs>
  <clipPath id="p3effb83ea9">
   <rect height="332.64" width="558" x="90" y="51.84"/>
  </clipPath>
 </defs>
</svg>
