<?xml version="1.0" encoding="utf-8" standalone="no"?>
<!DOCTYPE svg PUBLIC "-//W3C//DTD SVG 1.1//EN"
  "http://www.w3.org/Graphics/SVG/1.1/DTD/svg11.dtd">
<svg height="432pt" version="1.1" viewBox="0 0 720 432" width="720pt" xmlns="http://www.w3.org/2000/svg" xmlns:xlink="http://www.w3.org/1999/xlink">
 <metadata>
  <rdf:RDF xmlns:cc="http://creativecommons.org/ns#" xmlns:dc="http://purl.org/dc/elements/1.1/" xmlns:rdf="http://www.w3.org/1999/02/22-rdf-syntax-ns#">
   <cc:Work>
    <dc:type rdf:resource="http://purl.org/dc/dcmitype/StillImage"/>
    <dc:date>2021-08-25T16:30:03.379273</dc:date>
    <dc:format>image/svg+xml</dc:format>
    <dc:creator>
     <cc:Agent>
      <dc:title>Matplotlib v3.4.2, https://matplotlib.org/</dc:title>
     </cc:Agent>
    </dc:creator>
   </cc:Work>
  </rdf:RDF>
 </metadata>
 <defs>
  <style type="text/css">*{stroke-linecap:butt;stroke-linejoin:round;}</style>
 </defs>
 <g id="figure_1">
  <g id="patch_1">
   <path d="M 0 432 
L 720 432 
L 720 0 
L 0 0 
z
" style="fill:#ffffff;"/>
  </g>
  <g id="axes_1">
   <g id="patch_2">
    <path d="M 90 384.48 
L 648 384.48 
L 648 51.84 
L 90 51.84 
z
" style="fill:#ffffff;"/>
   </g>
   <g id="matplotlib.axis_1">
    <g id="xtick_1">
     <g id="line2d_1">
      <path clip-path="url(#p5c8471930b)" d="M 161.484739 384.48 
L 161.484739 51.84 
" style="fill:none;stroke:#cccccc;stroke-linecap:round;stroke-width:0.8;"/>
     </g>
     <g id="line2d_2"/>
     <g id="text_1">
      <!-- 2 -->
      <g style="fill:#262626;" transform="translate(158.70427 395.226875)scale(0.1 -0.1)">
       <defs>
        <path d="M 322 0 
L 322 397 
Q 481 763 711 1042 
Q 941 1322 1194 1548 
Q 1447 1775 1695 1969 
Q 1944 2163 2144 2356 
Q 2344 2550 2467 2762 
Q 2591 2975 2591 3244 
Q 2591 3431 2534 3573 
Q 2478 3716 2372 3812 
Q 2266 3909 2117 3957 
Q 1969 4006 1788 4006 
Q 1619 4006 1470 3959 
Q 1322 3913 1206 3819 
Q 1091 3725 1017 3586 
Q 944 3447 922 3263 
L 347 3316 
Q 375 3553 478 3762 
Q 581 3972 762 4130 
Q 944 4288 1198 4378 
Q 1453 4469 1788 4469 
Q 2116 4469 2372 4391 
Q 2628 4313 2804 4159 
Q 2981 4006 3075 3781 
Q 3169 3556 3169 3263 
Q 3169 3041 3089 2841 
Q 3009 2641 2876 2459 
Q 2744 2278 2569 2109 
Q 2394 1941 2203 1780 
Q 2013 1619 1819 1461 
Q 1625 1303 1454 1143 
Q 1284 984 1150 820 
Q 1016 656 941 478 
L 3238 478 
L 3238 0 
L 322 0 
z
" id="LiberationSans-32" transform="scale(0.015625)"/>
       </defs>
       <use xlink:href="#LiberationSans-32"/>
      </g>
     </g>
    </g>
    <g id="xtick_2">
     <g id="line2d_3">
      <path clip-path="url(#p5c8471930b)" d="M 253.727683 384.48 
L 253.727683 51.84 
" style="fill:none;stroke:#cccccc;stroke-linecap:round;stroke-width:0.8;"/>
     </g>
     <g id="line2d_4"/>
     <g id="text_2">
      <!-- 4 -->
      <g style="fill:#262626;" transform="translate(250.947214 395.226875)scale(0.1 -0.1)">
       <defs>
        <path d="M 2753 997 
L 2753 0 
L 2222 0 
L 2222 997 
L 147 997 
L 147 1434 
L 2163 4403 
L 2753 4403 
L 2753 1441 
L 3372 1441 
L 3372 997 
L 2753 997 
z
M 2222 3769 
Q 2216 3753 2191 3708 
Q 2166 3663 2134 3606 
Q 2103 3550 2070 3492 
Q 2038 3434 2013 3397 
L 884 1734 
Q 869 1709 839 1668 
Q 809 1628 778 1586 
Q 747 1544 715 1503 
Q 684 1463 666 1441 
L 2222 1441 
L 2222 3769 
z
" id="LiberationSans-34" transform="scale(0.015625)"/>
       </defs>
       <use xlink:href="#LiberationSans-34"/>
      </g>
     </g>
    </g>
    <g id="xtick_3">
     <g id="line2d_5">
      <path clip-path="url(#p5c8471930b)" d="M 345.970627 384.48 
L 345.970627 51.84 
" style="fill:none;stroke:#cccccc;stroke-linecap:round;stroke-width:0.8;"/>
     </g>
     <g id="line2d_6"/>
     <g id="text_3">
      <!-- 6 -->
      <g style="fill:#262626;" transform="translate(343.190158 395.226875)scale(0.1 -0.1)">
       <defs>
        <path d="M 3278 1441 
Q 3278 1109 3186 832 
Q 3094 556 2914 357 
Q 2734 159 2468 48 
Q 2203 -63 1856 -63 
Q 1472 -63 1184 84 
Q 897 231 706 507 
Q 516 784 420 1186 
Q 325 1588 325 2100 
Q 325 2688 433 3131 
Q 541 3575 744 3872 
Q 947 4169 1239 4319 
Q 1531 4469 1900 4469 
Q 2125 4469 2322 4422 
Q 2519 4375 2680 4270 
Q 2841 4166 2962 3994 
Q 3084 3822 3156 3572 
L 2619 3475 
Q 2531 3759 2339 3886 
Q 2147 4013 1894 4013 
Q 1663 4013 1475 3903 
Q 1288 3794 1156 3576 
Q 1025 3359 954 3031 
Q 884 2703 884 2266 
Q 1038 2550 1316 2698 
Q 1594 2847 1953 2847 
Q 2253 2847 2497 2750 
Q 2741 2653 2914 2470 
Q 3088 2288 3183 2027 
Q 3278 1766 3278 1441 
z
M 2706 1416 
Q 2706 1644 2650 1828 
Q 2594 2013 2481 2142 
Q 2369 2272 2203 2342 
Q 2038 2413 1819 2413 
Q 1666 2413 1509 2367 
Q 1353 2322 1226 2220 
Q 1100 2119 1020 1953 
Q 941 1788 941 1550 
Q 941 1306 1003 1095 
Q 1066 884 1183 728 
Q 1300 572 1465 481 
Q 1631 391 1838 391 
Q 2041 391 2202 461 
Q 2363 531 2475 664 
Q 2588 797 2647 987 
Q 2706 1178 2706 1416 
z
" id="LiberationSans-36" transform="scale(0.015625)"/>
       </defs>
       <use xlink:href="#LiberationSans-36"/>
      </g>
     </g>
    </g>
    <g id="xtick_4">
     <g id="line2d_7">
      <path clip-path="url(#p5c8471930b)" d="M 438.21357 384.48 
L 438.21357 51.84 
" style="fill:none;stroke:#cccccc;stroke-linecap:round;stroke-width:0.8;"/>
     </g>
     <g id="line2d_8"/>
     <g id="text_4">
      <!-- 8 -->
      <g style="fill:#262626;" transform="translate(435.433102 395.226875)scale(0.1 -0.1)">
       <defs>
        <path d="M 3281 1228 
Q 3281 947 3192 711 
Q 3103 475 2920 303 
Q 2738 131 2453 34 
Q 2169 -63 1781 -63 
Q 1394 -63 1111 34 
Q 828 131 642 301 
Q 456 472 367 708 
Q 278 944 278 1222 
Q 278 1463 351 1650 
Q 425 1838 548 1973 
Q 672 2109 830 2192 
Q 988 2275 1156 2303 
L 1156 2316 
Q 972 2359 826 2456 
Q 681 2553 582 2689 
Q 484 2825 432 2990 
Q 381 3156 381 3341 
Q 381 3572 470 3776 
Q 559 3981 734 4136 
Q 909 4291 1168 4380 
Q 1428 4469 1769 4469 
Q 2128 4469 2392 4378 
Q 2656 4288 2829 4133 
Q 3003 3978 3087 3772 
Q 3172 3566 3172 3334 
Q 3172 3153 3120 2987 
Q 3069 2822 2970 2686 
Q 2872 2550 2726 2454 
Q 2581 2359 2391 2322 
L 2391 2309 
Q 2581 2278 2743 2195 
Q 2906 2113 3025 1977 
Q 3144 1841 3212 1653 
Q 3281 1466 3281 1228 
z
M 2588 3303 
Q 2588 3469 2545 3606 
Q 2503 3744 2406 3842 
Q 2309 3941 2153 3995 
Q 1997 4050 1769 4050 
Q 1547 4050 1394 3995 
Q 1241 3941 1142 3842 
Q 1044 3744 1000 3606 
Q 956 3469 956 3303 
Q 956 3172 990 3034 
Q 1025 2897 1115 2784 
Q 1206 2672 1365 2600 
Q 1525 2528 1775 2528 
Q 2041 2528 2202 2600 
Q 2363 2672 2448 2784 
Q 2534 2897 2561 3034 
Q 2588 3172 2588 3303 
z
M 2697 1281 
Q 2697 1441 2653 1589 
Q 2609 1738 2503 1852 
Q 2397 1966 2217 2036 
Q 2038 2106 1769 2106 
Q 1522 2106 1348 2036 
Q 1175 1966 1067 1850 
Q 959 1734 909 1582 
Q 859 1431 859 1269 
Q 859 1066 909 898 
Q 959 731 1068 611 
Q 1178 491 1356 425 
Q 1534 359 1788 359 
Q 2044 359 2219 425 
Q 2394 491 2500 611 
Q 2606 731 2651 901 
Q 2697 1072 2697 1281 
z
" id="LiberationSans-38" transform="scale(0.015625)"/>
       </defs>
       <use xlink:href="#LiberationSans-38"/>
      </g>
     </g>
    </g>
    <g id="xtick_5">
     <g id="line2d_9">
      <path clip-path="url(#p5c8471930b)" d="M 530.456514 384.48 
L 530.456514 51.84 
" style="fill:none;stroke:#cccccc;stroke-linecap:round;stroke-width:0.8;"/>
     </g>
     <g id="line2d_10"/>
     <g id="text_5">
      <!-- 10 -->
      <g style="fill:#262626;" transform="translate(524.895577 395.226875)scale(0.1 -0.1)">
       <defs>
        <path d="M 488 0 
L 488 478 
L 1609 478 
L 1609 3866 
L 616 3156 
L 616 3688 
L 1656 4403 
L 2175 4403 
L 2175 478 
L 3247 478 
L 3247 0 
L 488 0 
z
" id="LiberationSans-31" transform="scale(0.015625)"/>
        <path d="M 3309 2203 
Q 3309 1569 3189 1136 
Q 3069 703 2861 436 
Q 2653 169 2372 53 
Q 2091 -63 1772 -63 
Q 1450 -63 1172 53 
Q 894 169 689 434 
Q 484 700 367 1133 
Q 250 1566 250 2203 
Q 250 2869 367 3305 
Q 484 3741 690 4000 
Q 897 4259 1178 4364 
Q 1459 4469 1791 4469 
Q 2106 4469 2382 4364 
Q 2659 4259 2865 4000 
Q 3072 3741 3190 3305 
Q 3309 2869 3309 2203 
z
M 2738 2203 
Q 2738 2728 2675 3076 
Q 2613 3425 2491 3633 
Q 2369 3841 2192 3927 
Q 2016 4013 1791 4013 
Q 1553 4013 1372 3925 
Q 1191 3838 1067 3630 
Q 944 3422 881 3073 
Q 819 2725 819 2203 
Q 819 1697 883 1350 
Q 947 1003 1070 792 
Q 1194 581 1372 489 
Q 1550 397 1778 397 
Q 2000 397 2178 489 
Q 2356 581 2479 792 
Q 2603 1003 2670 1350 
Q 2738 1697 2738 2203 
z
" id="LiberationSans-30" transform="scale(0.015625)"/>
       </defs>
       <use xlink:href="#LiberationSans-31"/>
       <use x="55.615234" xlink:href="#LiberationSans-30"/>
      </g>
     </g>
    </g>
    <g id="xtick_6">
     <g id="line2d_11">
      <path clip-path="url(#p5c8471930b)" d="M 622.699458 384.48 
L 622.699458 51.84 
" style="fill:none;stroke:#cccccc;stroke-linecap:round;stroke-width:0.8;"/>
     </g>
     <g id="line2d_12"/>
     <g id="text_6">
      <!-- 12 -->
      <g style="fill:#262626;" transform="translate(617.13852 395.226875)scale(0.1 -0.1)">
       <use xlink:href="#LiberationSans-31"/>
       <use x="55.615234" xlink:href="#LiberationSans-32"/>
      </g>
     </g>
    </g>
    <g id="text_7">
     <!-- Hours -->
     <g style="fill:#262626;" transform="translate(355.663281 408.54875)scale(0.1 -0.1)">
      <defs>
       <path d="M 3503 0 
L 3503 2041 
L 1122 2041 
L 1122 0 
L 525 0 
L 525 4403 
L 1122 4403 
L 1122 2541 
L 3503 2541 
L 3503 4403 
L 4100 4403 
L 4100 0 
L 3503 0 
z
" id="LiberationSans-48" transform="scale(0.015625)"/>
       <path d="M 3291 1694 
Q 3291 806 2900 371 
Q 2509 -63 1766 -63 
Q 1413 -63 1134 43 
Q 856 150 664 369 
Q 472 588 370 917 
Q 269 1247 269 1694 
Q 269 3444 1784 3444 
Q 2178 3444 2464 3334 
Q 2750 3225 2933 3006 
Q 3116 2788 3203 2459 
Q 3291 2131 3291 1694 
z
M 2700 1694 
Q 2700 2088 2639 2344 
Q 2578 2600 2461 2753 
Q 2344 2906 2175 2967 
Q 2006 3028 1794 3028 
Q 1578 3028 1404 2964 
Q 1231 2900 1109 2745 
Q 988 2591 923 2334 
Q 859 2078 859 1694 
Q 859 1300 928 1042 
Q 997 784 1117 631 
Q 1238 478 1402 415 
Q 1566 353 1759 353 
Q 1975 353 2150 414 
Q 2325 475 2447 628 
Q 2569 781 2634 1040 
Q 2700 1300 2700 1694 
z
" id="LiberationSans-6f" transform="scale(0.015625)"/>
       <path d="M 981 3381 
L 981 1238 
Q 981 991 1017 825 
Q 1053 659 1134 557 
Q 1216 456 1348 414 
Q 1481 372 1678 372 
Q 1878 372 2039 442 
Q 2200 513 2314 645 
Q 2428 778 2490 973 
Q 2553 1169 2553 1422 
L 2553 3381 
L 3116 3381 
L 3116 722 
Q 3116 616 3117 498 
Q 3119 381 3122 276 
Q 3125 172 3128 97 
Q 3131 22 3134 0 
L 2603 0 
Q 2600 16 2597 84 
Q 2594 153 2589 242 
Q 2584 331 2581 423 
Q 2578 516 2578 578 
L 2569 578 
Q 2488 431 2391 312 
Q 2294 194 2166 111 
Q 2038 28 1872 -17 
Q 1706 -63 1488 -63 
Q 1206 -63 1003 6 
Q 800 75 669 219 
Q 538 363 477 588 
Q 416 813 416 1128 
L 416 3381 
L 981 3381 
z
" id="LiberationSans-75" transform="scale(0.015625)"/>
       <path d="M 444 0 
L 444 2594 
Q 444 2700 442 2811 
Q 441 2922 437 3025 
Q 434 3128 431 3218 
Q 428 3309 425 3381 
L 956 3381 
Q 959 3309 964 3217 
Q 969 3125 973 3028 
Q 978 2931 979 2842 
Q 981 2753 981 2691 
L 994 2691 
Q 1053 2884 1120 3026 
Q 1188 3169 1278 3261 
Q 1369 3353 1494 3398 
Q 1619 3444 1797 3444 
Q 1866 3444 1928 3433 
Q 1991 3422 2025 3413 
L 2025 2897 
Q 1969 2913 1894 2920 
Q 1819 2928 1725 2928 
Q 1531 2928 1395 2840 
Q 1259 2753 1173 2598 
Q 1088 2444 1047 2230 
Q 1006 2016 1006 1763 
L 1006 0 
L 444 0 
z
" id="LiberationSans-72" transform="scale(0.015625)"/>
       <path d="M 2969 934 
Q 2969 697 2876 511 
Q 2784 325 2609 198 
Q 2434 72 2179 4 
Q 1925 -63 1597 -63 
Q 1303 -63 1067 -17 
Q 831 28 653 128 
Q 475 228 354 392 
Q 234 556 178 794 
L 675 891 
Q 747 619 972 492 
Q 1197 366 1597 366 
Q 1778 366 1929 391 
Q 2081 416 2190 477 
Q 2300 538 2361 639 
Q 2422 741 2422 891 
Q 2422 1044 2350 1142 
Q 2278 1241 2150 1306 
Q 2022 1372 1839 1420 
Q 1656 1469 1438 1528 
Q 1234 1581 1034 1647 
Q 834 1713 673 1820 
Q 513 1928 413 2087 
Q 313 2247 313 2488 
Q 313 2950 642 3192 
Q 972 3434 1603 3434 
Q 2163 3434 2492 3237 
Q 2822 3041 2909 2606 
L 2403 2544 
Q 2375 2675 2300 2764 
Q 2225 2853 2119 2908 
Q 2013 2963 1880 2986 
Q 1747 3009 1603 3009 
Q 1222 3009 1040 2893 
Q 859 2778 859 2544 
Q 859 2406 926 2317 
Q 994 2228 1114 2167 
Q 1234 2106 1403 2061 
Q 1572 2016 1775 1966 
Q 1909 1931 2050 1892 
Q 2191 1853 2323 1798 
Q 2456 1744 2573 1670 
Q 2691 1597 2778 1494 
Q 2866 1391 2917 1253 
Q 2969 1116 2969 934 
z
" id="LiberationSans-73" transform="scale(0.015625)"/>
      </defs>
      <use xlink:href="#LiberationSans-48"/>
      <use x="72.216797" xlink:href="#LiberationSans-6f"/>
      <use x="127.832031" xlink:href="#LiberationSans-75"/>
      <use x="183.447266" xlink:href="#LiberationSans-72"/>
      <use x="216.748047" xlink:href="#LiberationSans-73"/>
     </g>
    </g>
   </g>
   <g id="matplotlib.axis_2">
    <g id="ytick_1">
     <g id="line2d_13">
      <path clip-path="url(#p5c8471930b)" d="M 90 344.115709 
L 648 344.115709 
" style="fill:none;stroke:#cccccc;stroke-linecap:round;stroke-width:0.8;"/>
     </g>
     <g id="line2d_14"/>
     <g id="text_8">
      <!-- 1.8 -->
      <g style="fill:#262626;" transform="translate(72.6 347.739146)scale(0.1 -0.1)">
       <defs>
        <path d="M 584 0 
L 584 684 
L 1194 684 
L 1194 0 
L 584 0 
z
" id="LiberationSans-2e" transform="scale(0.015625)"/>
       </defs>
       <use xlink:href="#LiberationSans-31"/>
       <use x="55.615234" xlink:href="#LiberationSans-2e"/>
       <use x="83.398438" xlink:href="#LiberationSans-38"/>
      </g>
     </g>
    </g>
    <g id="ytick_2">
     <g id="line2d_15">
      <path clip-path="url(#p5c8471930b)" d="M 90 294.674295 
L 648 294.674295 
" style="fill:none;stroke:#cccccc;stroke-linecap:round;stroke-width:0.8;"/>
     </g>
     <g id="line2d_16"/>
     <g id="text_9">
      <!-- 2.0 -->
      <g style="fill:#262626;" transform="translate(72.6 298.297733)scale(0.1 -0.1)">
       <use xlink:href="#LiberationSans-32"/>
       <use x="55.615234" xlink:href="#LiberationSans-2e"/>
       <use x="83.398438" xlink:href="#LiberationSans-30"/>
      </g>
     </g>
    </g>
    <g id="ytick_3">
     <g id="line2d_17">
      <path clip-path="url(#p5c8471930b)" d="M 90 245.232882 
L 648 245.232882 
" style="fill:none;stroke:#cccccc;stroke-linecap:round;stroke-width:0.8;"/>
     </g>
     <g id="line2d_18"/>
     <g id="text_10">
      <!-- 2.2 -->
      <g style="fill:#262626;" transform="translate(72.6 248.856319)scale(0.1 -0.1)">
       <use xlink:href="#LiberationSans-32"/>
       <use x="55.615234" xlink:href="#LiberationSans-2e"/>
       <use x="83.398438" xlink:href="#LiberationSans-32"/>
      </g>
     </g>
    </g>
    <g id="ytick_4">
     <g id="line2d_19">
      <path clip-path="url(#p5c8471930b)" d="M 90 195.791469 
L 648 195.791469 
" style="fill:none;stroke:#cccccc;stroke-linecap:round;stroke-width:0.8;"/>
     </g>
     <g id="line2d_20"/>
     <g id="text_11">
      <!-- 2.4 -->
      <g style="fill:#262626;" transform="translate(72.6 199.414906)scale(0.1 -0.1)">
       <use xlink:href="#LiberationSans-32"/>
       <use x="55.615234" xlink:href="#LiberationSans-2e"/>
       <use x="83.398438" xlink:href="#LiberationSans-34"/>
      </g>
     </g>
    </g>
    <g id="ytick_5">
     <g id="line2d_21">
      <path clip-path="url(#p5c8471930b)" d="M 90 146.350055 
L 648 146.350055 
" style="fill:none;stroke:#cccccc;stroke-linecap:round;stroke-width:0.8;"/>
     </g>
     <g id="line2d_22"/>
     <g id="text_12">
      <!-- 2.6 -->
      <g style="fill:#262626;" transform="translate(72.6 149.973493)scale(0.1 -0.1)">
       <use xlink:href="#LiberationSans-32"/>
       <use x="55.615234" xlink:href="#LiberationSans-2e"/>
       <use x="83.398438" xlink:href="#LiberationSans-36"/>
      </g>
     </g>
    </g>
    <g id="ytick_6">
     <g id="line2d_23">
      <path clip-path="url(#p5c8471930b)" d="M 90 96.908642 
L 648 96.908642 
" style="fill:none;stroke:#cccccc;stroke-linecap:round;stroke-width:0.8;"/>
     </g>
     <g id="line2d_24"/>
     <g id="text_13">
      <!-- 2.8 -->
      <g style="fill:#262626;" transform="translate(72.6 100.532079)scale(0.1 -0.1)">
       <use xlink:href="#LiberationSans-32"/>
       <use x="55.615234" xlink:href="#LiberationSans-2e"/>
       <use x="83.398438" xlink:href="#LiberationSans-38"/>
      </g>
     </g>
    </g>
    <g id="text_14">
     <!-- RMSE (x0.01 Mag) -->
     <g style="fill:#262626;" transform="translate(66.525 260.670156)rotate(-90)scale(0.1 -0.1)">
      <defs>
       <path d="M 3638 0 
L 2494 1828 
L 1122 1828 
L 1122 0 
L 525 0 
L 525 4403 
L 2597 4403 
Q 2972 4403 3261 4317 
Q 3550 4231 3747 4068 
Q 3944 3906 4047 3672 
Q 4150 3438 4150 3144 
Q 4150 2934 4089 2731 
Q 4028 2528 3897 2359 
Q 3766 2191 3562 2069 
Q 3359 1947 3075 1897 
L 4325 0 
L 3638 0 
z
M 3550 3138 
Q 3550 3338 3481 3484 
Q 3413 3631 3281 3729 
Q 3150 3828 2962 3876 
Q 2775 3925 2538 3925 
L 1122 3925 
L 1122 2300 
L 2563 2300 
Q 2819 2300 3006 2364 
Q 3194 2428 3314 2540 
Q 3434 2653 3492 2806 
Q 3550 2959 3550 3138 
z
" id="LiberationSans-52" transform="scale(0.015625)"/>
       <path d="M 4269 0 
L 4269 2938 
Q 4269 3097 4272 3262 
Q 4275 3428 4281 3566 
Q 4288 3725 4297 3875 
Q 4253 3716 4206 3559 
Q 4166 3425 4117 3273 
Q 4069 3122 4022 3000 
L 2884 0 
L 2466 0 
L 1313 3000 
Q 1294 3047 1273 3109 
Q 1253 3172 1229 3242 
Q 1206 3313 1182 3386 
Q 1159 3459 1138 3531 
Q 1084 3697 1034 3875 
Q 1038 3700 1044 3528 
Q 1050 3381 1053 3220 
Q 1056 3059 1056 2938 
L 1056 0 
L 525 0 
L 525 4403 
L 1309 4403 
L 2481 1350 
Q 2503 1288 2534 1189 
Q 2566 1091 2594 987 
Q 2622 884 2645 792 
Q 2669 700 2678 650 
Q 2688 700 2713 794 
Q 2738 888 2770 991 
Q 2803 1094 2834 1191 
Q 2866 1288 2891 1350 
L 4041 4403 
L 4806 4403 
L 4806 0 
L 4269 0 
z
" id="LiberationSans-4d" transform="scale(0.015625)"/>
       <path d="M 3975 1216 
Q 3975 938 3867 703 
Q 3759 469 3534 298 
Q 3309 128 2967 32 
Q 2625 -63 2156 -63 
Q 1334 -63 875 225 
Q 416 513 291 1056 
L 869 1172 
Q 913 1000 1003 859 
Q 1094 719 1248 617 
Q 1403 516 1631 459 
Q 1859 403 2178 403 
Q 2444 403 2666 448 
Q 2888 494 3047 587 
Q 3206 681 3295 829 
Q 3384 978 3384 1184 
Q 3384 1400 3286 1534 
Q 3188 1669 3009 1756 
Q 2831 1844 2584 1903 
Q 2338 1963 2038 2031 
Q 1853 2072 1667 2120 
Q 1481 2169 1311 2236 
Q 1141 2303 991 2393 
Q 841 2484 731 2611 
Q 622 2738 559 2905 
Q 497 3072 497 3291 
Q 497 3603 623 3826 
Q 750 4050 975 4194 
Q 1200 4338 1506 4403 
Q 1813 4469 2169 4469 
Q 2578 4469 2868 4405 
Q 3159 4341 3359 4212 
Q 3559 4084 3679 3895 
Q 3800 3706 3872 3456 
L 3284 3353 
Q 3241 3513 3158 3638 
Q 3075 3763 2940 3847 
Q 2806 3931 2614 3975 
Q 2422 4019 2163 4019 
Q 1856 4019 1648 3964 
Q 1441 3909 1314 3815 
Q 1188 3722 1133 3595 
Q 1078 3469 1078 3322 
Q 1078 3125 1176 2998 
Q 1275 2872 1444 2787 
Q 1613 2703 1834 2647 
Q 2056 2591 2306 2534 
Q 2509 2488 2711 2439 
Q 2913 2391 3097 2323 
Q 3281 2256 3442 2165 
Q 3603 2075 3722 1944 
Q 3841 1813 3908 1634 
Q 3975 1456 3975 1216 
z
" id="LiberationSans-53" transform="scale(0.015625)"/>
       <path d="M 525 0 
L 525 4403 
L 3866 4403 
L 3866 3916 
L 1122 3916 
L 1122 2503 
L 3678 2503 
L 3678 2022 
L 1122 2022 
L 1122 488 
L 3994 488 
L 3994 0 
L 525 0 
z
" id="LiberationSans-45" transform="scale(0.015625)"/>
       <path id="LiberationSans-20" transform="scale(0.015625)"/>
       <path d="M 397 1663 
Q 397 2097 462 2494 
Q 528 2891 668 3256 
Q 809 3622 1028 3965 
Q 1247 4309 1550 4638 
L 2094 4638 
Q 1800 4309 1586 3964 
Q 1372 3619 1234 3251 
Q 1097 2884 1030 2487 
Q 963 2091 963 1656 
Q 963 1222 1030 825 
Q 1097 428 1234 59 
Q 1372 -309 1586 -653 
Q 1800 -997 2094 -1325 
L 1550 -1325 
Q 1247 -997 1028 -653 
Q 809 -309 668 56 
Q 528 422 462 817 
Q 397 1213 397 1650 
L 397 1663 
z
" id="LiberationSans-28" transform="scale(0.015625)"/>
       <path d="M 2503 0 
L 1594 1388 
L 678 0 
L 72 0 
L 1275 1738 
L 128 3381 
L 750 3381 
L 1594 2066 
L 2431 3381 
L 3059 3381 
L 1913 1744 
L 3131 0 
L 2503 0 
z
" id="LiberationSans-78" transform="scale(0.015625)"/>
       <path d="M 1294 -63 
Q 784 -63 528 206 
Q 272 475 272 944 
Q 272 1278 398 1492 
Q 525 1706 729 1828 
Q 934 1950 1196 1997 
Q 1459 2044 1731 2050 
L 2491 2063 
L 2491 2247 
Q 2491 2456 2447 2603 
Q 2403 2750 2312 2840 
Q 2222 2931 2086 2973 
Q 1950 3016 1766 3016 
Q 1603 3016 1472 2992 
Q 1341 2969 1244 2908 
Q 1147 2847 1087 2742 
Q 1028 2638 1009 2478 
L 422 2531 
Q 453 2731 540 2898 
Q 628 3066 789 3187 
Q 950 3309 1192 3376 
Q 1434 3444 1778 3444 
Q 2416 3444 2737 3151 
Q 3059 2859 3059 2306 
L 3059 850 
Q 3059 600 3125 473 
Q 3191 347 3375 347 
Q 3422 347 3469 353 
Q 3516 359 3559 369 
L 3559 19 
Q 3453 -6 3348 -18 
Q 3244 -31 3125 -31 
Q 2966 -31 2852 11 
Q 2738 53 2666 139 
Q 2594 225 2556 351 
Q 2519 478 2509 647 
L 2491 647 
Q 2400 484 2292 353 
Q 2184 222 2040 130 
Q 1897 38 1714 -12 
Q 1531 -63 1294 -63 
z
M 1422 359 
Q 1691 359 1892 457 
Q 2094 556 2226 709 
Q 2359 863 2425 1044 
Q 2491 1225 2491 1391 
L 2491 1669 
L 1875 1656 
Q 1669 1653 1483 1626 
Q 1297 1600 1156 1522 
Q 1016 1444 933 1303 
Q 850 1163 850 934 
Q 850 659 998 509 
Q 1147 359 1422 359 
z
" id="LiberationSans-61" transform="scale(0.015625)"/>
       <path d="M 1713 -1328 
Q 1422 -1328 1197 -1268 
Q 972 -1209 812 -1098 
Q 653 -988 553 -834 
Q 453 -681 409 -494 
L 975 -413 
Q 1031 -647 1223 -773 
Q 1416 -900 1728 -900 
Q 1919 -900 2075 -847 
Q 2231 -794 2340 -676 
Q 2450 -559 2509 -371 
Q 2569 -184 2569 84 
L 2569 628 
L 2563 628 
Q 2500 500 2408 383 
Q 2316 266 2183 175 
Q 2050 84 1875 29 
Q 1700 -25 1475 -25 
Q 1153 -25 923 83 
Q 694 191 548 406 
Q 403 622 336 942 
Q 269 1263 269 1684 
Q 269 2091 336 2416 
Q 403 2741 554 2967 
Q 706 3194 948 3314 
Q 1191 3434 1538 3434 
Q 1897 3434 2161 3270 
Q 2425 3106 2569 2803 
L 2575 2803 
Q 2575 2881 2579 2978 
Q 2584 3075 2589 3161 
Q 2594 3247 2600 3309 
Q 2606 3372 2613 3381 
L 3147 3381 
Q 3144 3353 3141 3286 
Q 3138 3219 3134 3125 
Q 3131 3031 3129 2917 
Q 3128 2803 3128 2681 
L 3128 97 
Q 3128 -613 2779 -970 
Q 2431 -1328 1713 -1328 
z
M 2569 1691 
Q 2569 2044 2492 2295 
Q 2416 2547 2291 2706 
Q 2166 2866 2005 2941 
Q 1844 3016 1675 3016 
Q 1459 3016 1304 2941 
Q 1150 2866 1048 2705 
Q 947 2544 898 2292 
Q 850 2041 850 1691 
Q 850 1325 898 1076 
Q 947 828 1047 675 
Q 1147 522 1300 456 
Q 1453 391 1666 391 
Q 1834 391 1995 462 
Q 2156 534 2284 690 
Q 2413 847 2491 1094 
Q 2569 1341 2569 1691 
z
" id="LiberationSans-67" transform="scale(0.015625)"/>
       <path d="M 1734 1650 
Q 1734 1213 1668 817 
Q 1603 422 1462 56 
Q 1322 -309 1103 -653 
Q 884 -997 581 -1325 
L 38 -1325 
Q 331 -997 545 -653 
Q 759 -309 896 59 
Q 1034 428 1101 825 
Q 1169 1222 1169 1656 
Q 1169 2091 1101 2487 
Q 1034 2884 896 3251 
Q 759 3619 545 3964 
Q 331 4309 38 4638 
L 581 4638 
Q 884 4309 1103 3965 
Q 1322 3622 1462 3256 
Q 1603 2891 1668 2494 
Q 1734 2097 1734 1663 
L 1734 1650 
z
" id="LiberationSans-29" transform="scale(0.015625)"/>
      </defs>
      <use xlink:href="#LiberationSans-52"/>
      <use x="72.216797" xlink:href="#LiberationSans-4d"/>
      <use x="155.517578" xlink:href="#LiberationSans-53"/>
      <use x="222.216797" xlink:href="#LiberationSans-45"/>
      <use x="288.916016" xlink:href="#LiberationSans-20"/>
      <use x="316.699219" xlink:href="#LiberationSans-28"/>
      <use x="350" xlink:href="#LiberationSans-78"/>
      <use x="400" xlink:href="#LiberationSans-30"/>
      <use x="455.615234" xlink:href="#LiberationSans-2e"/>
      <use x="483.398438" xlink:href="#LiberationSans-30"/>
      <use x="539.013672" xlink:href="#LiberationSans-31"/>
      <use x="594.628906" xlink:href="#LiberationSans-20"/>
      <use x="622.412109" xlink:href="#LiberationSans-4d"/>
      <use x="705.712891" xlink:href="#LiberationSans-61"/>
      <use x="761.328125" xlink:href="#LiberationSans-67"/>
      <use x="816.943359" xlink:href="#LiberationSans-29"/>
     </g>
    </g>
   </g>
   <g id="line2d_25">
    <path clip-path="url(#p5c8471930b)" d="M 115.363636 68.282063 
L 115.554026 70.68986 
L 115.743308 68.731239 
L 115.870604 77.313279 
L 115.933698 74.772238 
L 116.124087 68.814053 
L 116.504866 74.061765 
L 116.631054 67.977504 
L 116.75835 82.320953 
L 116.948739 116.278551 
L 117.011833 114.115737 
L 117.392612 69.161379 
L 117.455706 70.528681 
L 117.583002 74.256317 
L 117.70919 68.837785 
L 117.773391 69.562596 
L 118.026875 79.148544 
L 118.089969 80.062963 
L 118.280358 70.994172 
L 118.343452 71.212703 
L 118.470748 73.986614 
L 118.533842 76.550893 
L 118.598043 76.295528 
L 118.724231 68.105805 
L 118.787325 70.117081 
L 118.977715 114.40843 
L 119.168104 149.0545 
L 119.2954 125.435348 
L 119.548883 69.917091 
L 119.611977 69.303276 
L 119.739273 72.978998 
L 119.929662 67.328586 
L 119.992756 69.468657 
L 120.309334 92.59117 
L 120.436629 78.862773 
L 120.563925 68.295413 
L 120.753207 76.843339 
L 120.817408 80.814226 
L 120.880502 80.634259 
L 121.070892 67.738702 
L 121.198187 89.503307 
L 121.514765 189.455304 
L 121.64206 157.808103 
L 121.958638 71.323699 
L 122.085933 72.533778 
L 122.212121 71.913535 
L 122.275216 70.144274 
L 122.339417 70.637947 
L 122.465605 75.066661 
L 122.719089 105.845177 
L 122.78329 102.430259 
L 123.036773 74.685221 
L 123.099868 74.779654 
L 123.353351 84.071673 
L 123.607942 68.487492 
L 123.73413 86.891317 
L 124.114909 218.515237 
L 124.178003 202.868265 
L 124.558782 76.19615 
L 124.686077 70.973654 
L 124.749171 71.66435 
L 124.87536 70.24464 
L 124.939561 70.594933 
L 125.12995 72.590141 
L 125.256139 84.81107 
L 125.446528 110.099611 
L 125.509622 108.384241 
L 125.827307 78.188887 
L 125.890401 78.276151 
L 126.017696 81.188744 
L 126.080791 81.152899 
L 126.208086 79.119621 
L 126.397368 69.586575 
L 126.524664 80.706443 
L 126.715053 143.387278 
L 126.968537 216.648082 
L 127.095832 187.958465 
L 127.475504 72.881104 
L 127.602799 69.128748 
L 127.665893 69.223428 
L 127.793189 70.720019 
L 127.919377 69.503266 
L 128.046672 70.855983 
L 128.173967 76.674002 
L 128.490545 101.679985 
L 128.553639 100.456063 
L 128.934418 76.54669 
L 128.997512 77.137515 
L 129.124808 84.215053 
L 129.187902 83.223753 
L 129.505587 68.661279 
L 129.568681 71.069076 
L 129.75907 105.369798 
L 130.139849 182.749565 
L 130.202943 179.087687 
L 130.837206 70.018446 
L 130.9003 69.943295 
L 131.027595 71.792651 
L 131.217985 68.762881 
L 131.281079 70.30842 
L 131.407267 78.046248 
L 131.471468 76.878195 
L 131.534562 76.57413 
L 131.788046 88.851175 
L 131.915341 93.749583 
L 131.978435 92.852715 
L 132.231919 81.353137 
L 132.29612 81.834202 
L 132.359214 81.033746 
L 132.422308 81.225825 
L 132.549604 87.016157 
L 132.993477 69.616734 
L 133.056571 71.183038 
L 133.753928 160.502907 
L 133.818129 157.060301 
L 134.325096 70.118317 
L 134.38819 70.299273 
L 134.578579 74.434553 
L 134.705875 76.942716 
L 134.895157 70.822858 
L 135.149748 78.248958 
L 135.212842 78.085554 
L 135.275936 78.178751 
L 135.403231 79.629609 
L 135.466326 81.517777 
L 135.593621 96.895787 
L 135.78401 119.830423 
L 135.910199 108.932052 
L 136.163682 82.883349 
L 136.227883 82.802265 
L 136.354072 85.621909 
L 136.417166 85.475315 
L 136.544461 83.690727 
L 136.607555 83.821994 
L 136.671756 83.802217 
L 136.797945 77.7407 
L 136.92524 71.017657 
L 137.051428 78.450679 
L 137.306019 94.654361 
L 137.432207 98.80472 
L 137.559502 119.201775 
L 137.812986 169.030809 
L 137.939174 145.194857 
L 138.256859 72.789637 
L 138.384154 68.099872 
L 138.510343 69.499064 
L 138.700732 78.410879 
L 138.828027 83.197549 
L 138.891122 82.341224 
L 139.081511 74.577933 
L 139.144605 74.739112 
L 139.2719 76.501698 
L 139.334995 76.042882 
L 139.525384 70.001636 
L 139.588478 70.052313 
L 139.715774 88.116722 
L 140.032351 164.151436 
L 140.159647 139.48289 
L 140.41313 82.515505 
L 140.476224 79.891649 
L 140.539319 79.904751 
L 140.60352 79.906976 
L 140.793909 76.215185 
L 140.920097 81.457953 
L 141.110487 88.076675 
L 141.428172 71.592166 
L 141.491266 73.828896 
L 141.681655 82.126401 
L 141.744749 81.312348 
L 141.872045 77.390902 
L 141.935139 81.579332 
L 142.125528 131.60712 
L 142.315918 171.179286 
L 142.442106 151.671434 
L 142.822885 69.165829 
L 143.076368 67.960941 
L 143.139463 68.320628 
L 143.329852 78.589609 
L 143.520241 85.844889 
L 143.583336 84.898086 
L 143.90102 69.437509 
L 143.964115 71.707859 
L 144.154504 78.596778 
L 144.344893 70.811733 
L 144.407988 73.11867 
L 144.598377 112.066637 
L 144.851861 152.044223 
L 144.979156 130.20867 
L 145.232639 78.976983 
L 145.295734 76.743961 
L 145.359935 77.047037 
L 145.486123 78.417553 
L 145.676513 75.373445 
L 145.739607 75.990227 
L 145.994197 82.299199 
L 146.120386 80.989743 
L 146.247681 77.034677 
L 146.43807 69.055327 
L 146.501164 69.834029 
L 146.691554 75.550693 
L 146.754648 74.938855 
L 146.945037 69.221697 
L 147.008132 70.023143 
L 147.135427 81.270817 
L 147.516206 129.660612 
L 147.642394 115.962868 
L 147.960079 69.848615 
L 148.086267 72.099188 
L 148.213562 73.937914 
L 148.276657 73.598499 
L 148.53014 69.576192 
L 148.594341 70.031053 
L 148.974013 75.920267 
L 149.101309 73.3063 
L 149.227497 71.335318 
L 149.482087 80.345274 
L 149.545182 78.789105 
L 149.798665 68.728767 
L 149.92596 74.548268 
L 150.305632 102.245101 
L 150.369834 102.023109 
L 150.496022 96.454522 
L 150.813707 73.605173 
L 151.193379 76.814415 
L 151.383768 80.053322 
L 151.511063 77.600781 
L 151.764547 72.474695 
L 151.891842 74.771991 
L 152.01803 77.42032 
L 152.082232 76.681171 
L 152.335715 69.968263 
L 152.526105 72.045297 
L 152.715387 68.997728 
L 152.779588 69.12059 
L 153.033072 72.814605 
L 153.223461 80.274325 
L 153.540039 96.692088 
L 153.60424 96.178639 
L 153.920818 78.712471 
L 154.048113 79.305768 
L 154.111207 78.881561 
L 154.681269 67.309798 
L 154.74547 66.96 
L 154.808564 67.14763 
L 154.998953 69.118365 
L 155.252437 72.264816 
L 155.442826 70.788001 
L 155.570122 74.304275 
L 155.759404 82.133817 
L 155.823605 81.887846 
L 156.077089 77.929072 
L 156.140183 77.822773 
L 156.267478 76.779559 
L 156.393667 75.781831 
L 156.457868 76.013217 
L 156.648257 78.86302 
L 156.964835 88.892705 
L 157.027929 88.803958 
L 157.408708 81.146966 
L 157.725286 70.222639 
L 157.852581 71.599335 
L 158.106065 74.163861 
L 158.23336 74.888672 
L 158.296454 74.83132 
L 158.486844 73.514695 
L 158.549938 73.596027 
L 158.677233 74.304275 
L 158.740327 74.187346 
L 158.993811 70.839915 
L 159.058012 70.992442 
L 159.247294 72.269019 
L 159.437684 71.443595 
L 159.564979 72.779996 
L 159.755369 75.28272 
L 159.818463 75.172713 
L 160.008852 74.404394 
L 160.136147 75.713849 
L 160.32543 83.308051 
L 160.706209 104.961165 
L 160.833504 101.725719 
L 161.086988 84.678814 
L 161.340471 69.22763 
L 161.403565 68.460052 
L 161.467767 68.759173 
L 161.72125 71.097999 
L 161.847439 70.235988 
L 162.102029 67.305348 
L 162.165123 67.532037 
L 162.355513 71.988933 
L 162.545902 74.958879 
L 162.736292 71.667564 
L 162.925574 69.775688 
L 163.052869 70.853759 
L 163.243259 76.442616 
L 163.496742 83.904808 
L 163.559837 83.642027 
L 163.750226 78.931744 
L 163.940615 74.588563 
L 164.00371 74.857524 
L 164.131005 79.766068 
L 164.702173 119.80941 
L 164.765267 119.119208 
L 164.891456 113.099716 
L 165.525718 68.983884 
L 165.589919 69.178683 
L 165.716108 73.404935 
L 166.096886 90.688912 
L 166.159981 90.635515 
L 166.35037 87.564462 
L 166.731149 80.169262 
L 166.921538 82.416375 
L 166.984633 82.325155 
L 167.175022 77.932286 
L 167.365411 75.661689 
L 167.555801 78.592081 
L 167.999674 86.224847 
L 168.125862 83.728055 
L 168.316252 80.491868 
L 168.443547 87.339751 
L 168.633936 119.080891 
L 169.077809 215.00366 
L 169.203998 198.760178 
L 169.775166 74.16485 
L 169.902461 70.400628 
L 169.965555 70.928168 
L 170.346334 81.404309 
L 170.409429 80.686667 
L 170.726006 73.589105 
L 170.853302 76.322968 
L 171.297175 98.711028 
L 171.360269 97.302195 
L 171.613752 85.863924 
L 171.741048 93.72857 
L 172.184921 146.108039 
L 172.312216 137.748238 
L 172.882277 73.770307 
L 172.946478 75.11017 
L 173.072667 84.669173 
L 173.32615 128.088127 
L 173.706929 204.5248 
L 173.770023 205.082993 
L 173.897319 191.027294 
L 174.531581 85.49608 
L 174.721971 72.519193 
L 174.785065 73.53818 
L 174.91236 85.528464 
L 175.356233 159.74324 
L 175.419327 159.172686 
L 175.545516 144.835665 
L 175.926295 97.534076 
L 175.989389 98.316239 
L 176.243979 105.455332 
L 176.370168 99.999225 
L 176.687852 82.257173 
L 176.814041 85.668878 
L 177.067524 93.082865 
L 177.131725 92.973352 
L 177.322115 90.039252 
L 177.701787 84.303553 
L 178.019471 80.372961 
L 178.082566 81.505911 
L 178.209861 92.061406 
L 178.40025 140.952783 
L 178.907217 369.36 
L 178.970312 367.42511 
L 179.097607 324.79969 
L 179.604574 105.388833 
L 179.858058 77.805221 
L 180.048447 70.763528 
L 180.111541 70.707412 
L 180.238837 73.463276 
L 180.619615 86.354878 
L 180.68271 86.163539 
L 180.873099 81.401837 
L 181.000394 79.007389 
L 181.063489 79.536412 
L 181.189677 85.42711 
L 181.63355 119.007718 
L 181.697751 118.398352 
L 182.014329 104.299886 
L 182.07853 105.8343 
L 182.267812 127.461458 
L 182.585497 163.244186 
L 182.648591 161.357007 
L 182.838981 138.618901 
L 183.282854 78.0151 
L 183.473243 72.759972 
L 183.600538 74.688435 
L 183.789821 84.404414 
L 183.98021 107.844835 
L 184.677567 230.068953 
L 184.804862 218.886789 
L 185.755703 74.942069 
L 185.819904 73.764869 
L 185.882998 74.251867 
L 186.010293 80.330441 
L 186.580355 127.897778 
L 186.643449 125.75919 
L 186.898039 102.586741 
L 187.151523 85.514126 
L 187.214617 85.333418 
L 187.341912 89.546321 
L 187.721584 108.263851 
L 187.785785 108.079435 
L 187.911974 103.956268 
L 188.355847 84.413561 
L 188.420048 83.995781 
L 188.483142 84.125564 
L 188.863921 87.488569 
L 188.927015 87.287343 
L 189.117404 85.048141 
L 189.751667 74.306252 
L 189.814761 74.68794 
L 189.942056 78.153536 
L 190.132446 93.23737 
L 190.385929 138.3225 
L 190.892897 235.85706 
L 190.955991 236.562341 
L 191.083286 228.015899 
L 191.33677 182.138717 
L 191.780643 98.075954 
L 192.034126 79.62689 
L 192.28761 73.366124 
L 192.5422 71.549152 
L 192.605295 71.567445 
L 192.731483 72.103143 
L 193.112262 75.569233 
L 193.620336 81.756579 
L 193.936914 90.039746 
L 194.317693 99.424962 
L 194.571176 101.653287 
L 194.63427 101.67603 
L 194.761566 100.874338 
L 195.205439 95.92451 
L 195.331627 96.61496 
L 195.586218 98.436876 
L 195.649312 98.360242 
L 195.7755 96.966735 
L 195.96589 91.416195 
L 196.537058 73.119906 
L 196.664353 72.617334 
L 196.790541 74.526761 
L 196.980931 82.583239 
L 198.31255 160.217383 
L 198.439845 155.558518 
L 198.693329 126.749748 
L 199.074108 85.818191 
L 199.327591 77.145178 
L 199.45378 76.206039 
L 199.517981 76.242378 
L 199.644169 77.002045 
L 200.278432 83.026729 
L 200.342633 82.932049 
L 200.468821 82.830941 
L 200.596116 83.558224 
L 201.039989 88.729549 
L 201.166178 87.317008 
L 201.546957 80.236503 
L 201.610051 80.77492 
L 201.737346 84.89685 
L 202.053924 109.357001 
L 202.308514 123.20381 
L 202.371609 123.066858 
L 202.497797 118.155348 
L 203.068965 85.056299 
L 203.19626 84.128284 
L 203.259355 84.140891 
L 203.512838 84.505274 
L 203.703228 83.94535 
L 204.147101 82.005269 
L 204.400584 77.455918 
L 204.590974 75.102012 
L 204.654068 75.503229 
L 204.781363 78.573541 
L 205.352532 97.358559 
L 205.47872 98.922143 
L 205.606015 103.696453 
L 205.796405 122.302246 
L 206.430667 217.110853 
L 206.493761 214.63013 
L 206.684151 184.227369 
L 207.191118 82.735766 
L 207.444601 70.043167 
L 207.571897 68.980918 
L 207.698085 69.828096 
L 207.888475 73.790578 
L 208.396549 87.309839 
L 208.459643 87.230238 
L 208.585831 85.457763 
L 208.903516 79.537154 
L 208.96661 79.572752 
L 209.093905 81.44312 
L 209.474684 89.751503 
L 209.600873 88.210414 
L 209.918557 81.736061 
L 210.044746 86.462907 
L 210.235135 107.367973 
L 210.742102 175.404549 
L 210.806303 175.506151 
L 210.932492 167.223725 
L 211.629848 91.770196 
L 211.757144 94.832844 
L 212.517594 124.610913 
L 212.581795 124.572596 
L 212.707984 122.852035 
L 212.898373 114.753778 
L 213.59573 70.493578 
L 213.723025 73.002235 
L 214.166898 85.117359 
L 214.294193 83.409653 
L 214.484583 80.730917 
L 214.547677 81.519755 
L 214.673865 87.854683 
L 214.928456 120.893166 
L 215.372329 179.602619 
L 215.435423 180.171443 
L 215.562718 173.418982 
L 215.816202 136.669921 
L 216.195874 83.852401 
L 216.386263 75.937325 
L 216.450465 75.533635 
L 216.513559 75.843139 
L 217.5286 89.792292 
L 217.782084 92.543707 
L 217.908272 92.976072 
L 218.035567 94.495159 
L 218.225957 102.207772 
L 218.542535 129.947619 
L 218.923313 156.87193 
L 218.986408 157.135205 
L 219.113703 152.778675 
L 219.683764 112.324227 
L 219.747965 113.683619 
L 219.938355 126.74604 
L 220.318027 157.45163 
L 220.382228 158.6669 
L 220.445322 158.19424 
L 220.572617 152.165354 
L 220.826101 124.287072 
L 221.205773 84.147319 
L 221.396162 79.800677 
L 221.523457 81.607513 
L 222.094626 94.1021 
L 222.283908 94.683531 
L 222.411204 94.578962 
L 222.601593 93.942404 
L 222.791982 91.703203 
L 223.045466 84.304789 
L 223.362044 75.154914 
L 223.426245 74.631824 
L 223.489339 74.654814 
L 223.616634 76.100234 
L 224.060507 83.615576 
L 224.123602 83.427946 
L 224.24979 81.436446 
L 224.693663 70.148477 
L 224.820958 74.15422 
L 225.011348 93.607686 
L 225.327925 158.589771 
L 225.771798 247.800622 
L 225.899094 254.44975 
L 225.962188 253.107169 
L 226.089483 241.358406 
L 226.470262 164.966478 
L 226.849934 105.086004 
L 227.167619 83.124623 
L 227.421102 76.115808 
L 227.611492 75.094843 
L 227.73768 75.811249 
L 228.371943 81.280953 
L 228.499238 81.20506 
L 228.689627 81.051792 
L 228.815816 81.642617 
L 229.006205 84.59773 
L 229.32389 94.783155 
L 229.704669 105.039529 
L 229.767763 105.313682 
L 229.830857 105.024697 
L 229.958152 102.763494 
L 230.528214 84.81453 
L 230.592415 85.072862 
L 230.718603 88.109553 
L 231.036288 106.289903 
L 231.352866 122.271098 
L 231.480161 123.438904 
L 231.606349 120.819498 
L 231.859833 106.268149 
L 232.304813 79.781147 
L 232.367907 78.996759 
L 232.431001 79.35521 
L 232.558296 83.644499 
L 232.81178 105.623185 
L 233.699526 207.269293 
L 233.76262 208.355521 
L 233.826821 208.04132 
L 233.95301 203.253908 
L 234.206493 179.374942 
L 235.094239 79.128026 
L 235.347723 71.788696 
L 235.475018 71.169442 
L 235.602313 71.646304 
L 235.918891 73.36118 
L 235.981985 73.365382 
L 236.109281 72.915713 
L 236.49006 70.687388 
L 236.553154 70.8545 
L 236.680449 72.266547 
L 236.870838 77.662088 
L 237.25051 98.193871 
L 237.694383 118.452985 
L 237.821679 119.735742 
L 237.884773 119.428958 
L 238.012068 116.986058 
L 238.328646 103.141474 
L 238.772519 84.905997 
L 238.962908 82.953556 
L 239.026003 83.10361 
L 239.216392 85.201162 
L 239.660265 90.978391 
L 239.724466 91.099276 
L 239.850655 90.540093 
L 240.041044 87.776813 
L 240.675306 75.875523 
L 240.802602 77.332067 
L 240.991884 84.536422 
L 241.246475 104.241792 
L 241.753442 167.570557 
L 242.197315 212.386726 
L 242.32461 215.917832 
L 242.387704 215.690154 
L 242.513893 211.340299 
L 242.768483 189.736873 
L 243.656229 96.663907 
L 243.909713 88.354041 
L 244.035901 87.316513 
L 244.100102 87.361258 
L 244.290492 88.886031 
L 244.670164 92.150647 
L 244.734365 92.118263 
L 244.860553 91.33437 
L 245.114037 87.246801 
L 245.622111 78.819265 
L 245.685205 78.661794 
L 245.748299 78.785397 
L 245.875595 79.856051 
L 246.129078 84.688208 
L 246.763341 97.842343 
L 246.890636 98.120945 
L 247.016824 97.221853 
L 247.270308 92.38673 
L 247.90457 78.349818 
L 248.09496 77.553812 
L 248.222255 77.952309 
L 248.538833 80.57666 
L 248.919612 83.124128 
L 249.046907 83.195324 
L 249.173095 82.721923 
L 249.426579 80.206838 
L 249.870452 75.225368 
L 249.934653 75.131924 
L 250.060841 75.836959 
L 250.251231 79.609833 
L 250.504715 90.751208 
L 250.822399 115.730988 
L 251.836334 210.050372 
L 251.900535 210.781611 
L 251.963629 210.503503 
L 252.089817 206.953856 
L 252.344408 189.042468 
L 253.548732 76.637909 
L 253.802215 73.058351 
L 253.866416 73.007179 
L 253.992605 73.508021 
L 254.500679 76.485383 
L 254.626867 76.338789 
L 254.880351 75.029086 
L 255.198035 73.650906 
L 255.26113 73.686504 
L 255.388425 74.206628 
L 255.641909 77.021575 
L 256.592749 90.978886 
L 256.846232 91.94769 
L 257.036622 91.997873 
L 257.354307 91.551417 
L 257.79818 90.699789 
L 258.177852 89.156228 
L 258.432442 88.459351 
L 258.55863 88.714222 
L 258.74902 90.317854 
L 259.002503 95.124301 
L 259.446376 109.095703 
L 259.89025 120.955215 
L 260.080639 122.157877 
L 260.207934 121.284742 
L 260.461418 116.216255 
L 260.968385 104.554509 
L 261.09568 103.950335 
L 261.221869 104.816796 
L 261.412258 108.857395 
L 261.793037 123.81812 
L 262.23691 139.526893 
L 262.427299 141.152774 
L 262.554595 139.901906 
L 262.744984 134.677185 
L 263.188857 113.229994 
L 263.695824 92.939732 
L 264.076603 85.848845 
L 265.154739 71.817619 
L 265.280927 71.530611 
L 265.408222 71.909333 
L 265.598612 73.702078 
L 266.549452 85.73513 
L 266.676747 85.605346 
L 266.993325 84.7243 
L 267.056419 84.748526 
L 267.183715 85.330204 
L 267.374104 88.150837 
L 267.627588 96.888124 
L 268.008367 120.969058 
L 268.642629 161.313746 
L 268.831912 164.35736 
L 268.896113 164.061205 
L 269.022301 161.56565 
L 269.276891 150.113783 
L 270.290826 93.062841 
L 270.54431 89.081324 
L 270.7989 87.877673 
L 271.052384 86.860911 
L 271.305867 84.451383 
L 271.94013 77.198822 
L 272.003224 77.235903 
L 272.130519 78.098903 
L 272.320909 81.495034 
L 272.637486 92.088598 
L 273.399044 120.461542 
L 273.652528 123.420364 
L 273.715622 123.42333 
L 273.842917 122.60903 
L 274.096401 118.422578 
L 274.730663 106.785306 
L 274.984147 105.354966 
L 275.300725 104.054904 
L 275.491114 102.054504 
L 275.808799 95.490415 
L 276.506155 79.380672 
L 276.56925 79.322084 
L 276.696545 80.610033 
L 276.886934 86.545474 
L 277.203512 107.459439 
L 278.218553 187.727327 
L 278.281648 188.380448 
L 278.344742 188.218033 
L 278.472037 185.492081 
L 278.725521 171.523151 
L 279.994046 78.903562 
L 280.247529 75.329195 
L 280.374825 74.942811 
L 280.437919 74.961846 
L 280.691402 75.613731 
L 280.881792 75.945235 
L 281.00798 75.861926 
L 281.19837 75.296564 
L 281.516054 74.275599 
L 281.579148 74.282521 
L 281.706444 74.716863 
L 281.896833 76.715532 
L 282.150317 82.206001 
L 283.164251 109.880338 
L 283.228452 110.000728 
L 283.354641 109.280614 
L 283.54503 105.919092 
L 283.925809 93.668004 
L 284.369682 80.635248 
L 284.560071 78.546348 
L 284.623166 78.433869 
L 284.750461 79.040515 
L 285.003944 82.948859 
L 285.701301 96.329188 
L 285.891691 97.104924 
L 286.018986 96.740541 
L 286.335564 94.053895 
L 286.589047 92.709088 
L 286.716342 93.390144 
L 286.906732 97.18848 
L 287.160215 108.829461 
L 287.540994 140.715464 
L 288.364539 218.014395 
L 288.554929 223.15828 
L 288.618023 223.163718 
L 288.745318 220.616002 
L 288.998802 206.272554 
L 289.442675 162.427414 
L 290.141138 96.842143 
L 290.52081 80.272842 
L 290.774294 76.721218 
L 290.964683 76.29973 
L 291.155073 76.616402 
L 291.408556 76.929119 
L 291.535852 76.784503 
L 291.789335 75.862421 
L 292.170114 74.415765 
L 292.233208 74.415024 
L 292.360504 74.800419 
L 292.550893 76.562759 
L 292.804377 81.354126 
L 293.374438 98.574323 
L 293.818311 108.6003 
L 294.008701 109.691719 
L 294.135996 109.130065 
L 294.326385 106.434766 
L 294.706057 96.194461 
L 295.34032 79.66941 
L 295.59491 77.727845 
L 295.658004 77.750588 
L 295.784193 78.344874 
L 296.038783 81.252771 
L 296.673046 89.799955 
L 296.799234 90.254075 
L 296.862328 90.226388 
L 296.989624 89.656081 
L 297.243107 86.723958 
L 297.814275 79.206638 
L 297.87737 79.152253 
L 298.004665 79.949248 
L 298.195054 83.796037 
L 298.448538 94.469944 
L 298.82821 121.79646 
L 299.906345 208.053433 
L 300.096735 210.225642 
L 300.22403 208.034399 
L 300.477514 195.59395 
L 300.921387 157.226424 
L 301.618743 99.973268 
L 301.999522 83.53647 
L 302.3161 77.244308 
L 302.570691 75.364051 
L 302.824174 74.883728 
L 303.140752 74.640229 
L 303.394236 73.96659 
L 304.155793 71.089841 
L 304.283089 71.359297 
L 304.472371 72.603243 
L 304.726962 75.965012 
L 305.170835 85.665912 
L 305.805097 99.270458 
L 306.058581 101.194965 
L 306.121675 101.22018 
L 306.24897 100.72008 
L 306.438253 98.703859 
L 306.819032 91.58306 
L 307.453294 80.434763 
L 307.706778 78.856098 
L 307.834073 78.793308 
L 307.960261 79.157938 
L 308.214852 80.862184 
L 308.912209 86.252287 
L 309.038397 86.415196 
L 309.165692 86.164775 
L 309.356082 85.024904 
L 309.799955 80.124765 
L 310.116532 77.439108 
L 310.243828 77.28757 
L 310.371123 77.914487 
L 310.560405 80.595447 
L 310.814996 87.829962 
L 311.194668 106.581113 
L 311.82893 152.081798 
L 312.463193 191.894002 
L 312.716676 198.313475 
L 312.780878 198.714445 
L 312.843972 198.612101 
L 312.97016 196.903406 
L 313.224751 187.885292 
L 313.668624 159.53163 
L 314.492169 104.949546 
L 314.937149 88.729549 
L 315.253726 83.153793 
L 315.50721 81.308145 
L 315.697599 80.91212 
L 315.824895 80.934368 
L 316.141473 81.4095 
L 316.585346 81.988706 
L 316.966124 82.387204 
L 317.219608 83.071721 
L 317.473092 84.459788 
L 317.790776 87.470029 
L 318.297744 94.980674 
L 319.058194 106.480747 
L 319.375879 108.416872 
L 319.503174 108.477932 
L 319.629363 108.135798 
L 319.882846 106.388044 
L 320.39092 100.465457 
L 320.897888 95.254826 
L 321.214465 93.759965 
L 321.404855 93.554289 
L 321.595244 93.736481 
L 322.166413 94.677598 
L 322.292601 94.55523 
L 322.48299 93.903593 
L 322.736474 92.01147 
L 323.117253 87.089083 
L 323.941905 75.607056 
L 324.132294 74.946024 
L 324.258483 75.255033 
L 324.448872 76.967931 
L 324.702356 81.663876 
L 325.083134 93.386435 
L 326.478955 142.587811 
L 326.732438 144.530611 
L 326.795533 144.476967 
L 326.922828 143.730649 
L 327.176311 139.84134 
L 327.55709 129.196851 
L 329.014898 81.904903 
L 329.395677 77.133807 
L 329.64916 76.082435 
L 329.776455 76.068839 
L 329.966845 76.529138 
L 330.346517 78.442768 
L 330.980779 81.560297 
L 331.361558 82.438129 
L 331.805431 82.840088 
L 332.18621 83.262812 
L 332.566989 84.146824 
L 333.13705 86.257478 
L 333.961702 89.130519 
L 334.46867 90.130966 
L 335.420617 91.68837 
L 335.800289 92.924158 
L 336.245269 95.166574 
L 337.386498 101.522267 
L 337.576888 101.783318 
L 337.703076 101.740304 
L 337.893466 101.355155 
L 338.21115 99.991561 
L 339.098896 95.494123 
L 339.289286 95.356429 
L 339.415474 95.577184 
L 339.605864 96.450814 
L 339.859347 98.752312 
L 340.240126 104.895408 
L 340.683999 116.30698 
L 341.318262 139.803765 
L 343.156848 215.533178 
L 343.347237 217.19342 
L 343.410332 217.136316 
L 343.537627 216.024131 
L 343.728016 211.736077 
L 344.044594 197.671725 
L 344.552668 162.046962 
L 345.37732 104.385667 
L 345.821193 86.110143 
L 346.200865 78.305816 
L 346.51855 75.633013 
L 346.835128 74.639488 
L 347.152812 74.287959 
L 347.46939 74.250136 
L 347.722874 74.465948 
L 348.040558 75.133407 
L 348.421337 76.552129 
L 349.118694 80.300035 
L 350.132628 85.555904 
L 351.718838 92.829478 
L 352.796973 98.16297 
L 353.240847 99.34289 
L 353.49433 99.592569 
L 353.68472 99.552274 
L 353.938203 99.170092 
L 354.254781 98.130586 
L 354.63556 96.04317 
L 355.206728 91.461928 
L 356.538347 80.044423 
L 356.98222 78.012381 
L 357.298798 77.403263 
L 357.489188 77.379778 
L 357.679577 77.601523 
L 357.997262 78.466995 
L 358.441135 80.487665 
L 359.708553 86.854483 
L 360.089332 87.742698 
L 360.407016 87.991141 
L 360.6605 87.913765 
L 360.977078 87.556551 
L 361.61134 86.407286 
L 362.308697 85.303753 
L 362.689476 85.093874 
L 362.942959 85.185094 
L 363.260644 85.594963 
L 363.641423 86.520259 
L 364.211484 88.590124 
L 365.543103 93.661083 
L 366.114272 94.985865 
L 366.495051 95.375958 
L 366.748534 95.351237 
L 367.002018 95.062994 
L 367.318596 94.305304 
L 367.762469 92.518986 
L 368.396731 88.826701 
L 369.855646 79.97916 
L 370.299519 78.484546 
L 370.617203 77.977525 
L 370.870687 77.925117 
L 371.124171 78.178998 
L 371.440748 78.886752 
L 371.948822 80.706443 
L 373.153146 85.383107 
L 373.533925 86.042902 
L 373.787409 86.132638 
L 374.040892 85.940064 
L 374.358577 85.337868 
L 374.865544 83.741157 
L 376.261365 78.877853 
L 376.641036 78.253655 
L 376.958721 78.119421 
L 377.212205 78.280106 
L 377.528783 78.80814 
L 377.972656 80.079773 
L 378.924603 83.763653 
L 379.494664 85.508688 
L 379.938537 86.207542 
L 380.256222 86.333371 
L 380.5728 86.200126 
L 381.016673 85.728702 
L 382.285198 84.277844 
L 382.856366 84.015557 
L 383.553723 83.958452 
L 384.504563 84.11271 
L 385.329215 84.455091 
L 386.090773 85.029353 
L 386.915425 85.965774 
L 388.310138 88.00721 
L 389.388273 89.411593 
L 390.212925 90.134179 
L 391.925323 91.45031 
L 392.559586 92.388955 
L 393.700815 94.66153 
L 394.270877 95.541587 
L 394.651656 95.792749 
L 394.96934 95.723778 
L 395.285918 95.369778 
L 395.666697 94.556467 
L 396.173664 92.850738 
L 396.871021 89.599718 
L 399.344977 77.353821 
L 400.042333 75.258741 
L 400.613502 74.133702 
L 401.120469 73.550046 
L 401.564342 73.326818 
L 402.008215 73.336212 
L 402.515182 73.589599 
L 403.086351 74.137904 
L 403.783707 75.135879 
L 404.735654 76.955818 
L 406.257663 79.93936 
L 406.890818 80.718804 
L 407.461987 81.077996 
L 408.033155 81.16254 
L 408.920901 81.011744 
L 409.745553 80.940796 
L 410.315614 81.115324 
L 410.823689 81.499236 
L 411.39375 82.230969 
L 412.028012 83.436598 
L 412.78957 85.422165 
L 413.677316 88.448474 
L 414.691251 92.778553 
L 415.959776 99.155754 
L 417.989858 109.354282 
L 418.813403 112.483181 
L 419.447666 114.111534 
L 419.95574 114.854144 
L 420.335412 115.09171 
L 420.716191 115.085036 
L 421.160064 114.82176 
L 421.731232 114.190146 
L 422.809368 112.561052 
L 424.394471 110.209371 
L 425.282217 109.272209 
L 425.916479 108.889285 
L 426.423446 108.808448 
L 426.867319 108.936502 
L 427.311192 109.279872 
L 427.819267 109.974771 
L 428.389328 111.200918 
L 428.960496 112.96919 
L 429.594759 115.670669 
L 430.292115 119.687537 
L 431.053673 125.542884 
L 431.877218 133.905157 
L 432.70187 144.489575 
L 434.795047 172.878587 
L 435.048531 173.801658 
L 435.175826 173.698573 
L 435.365108 172.700351 
L 435.619699 169.581092 
L 435.936277 162.56585 
L 436.443244 144.943941 
L 437.839064 92.776576 
L 438.409125 80.560591 
L 438.789904 76.173407 
L 439.107589 74.432575 
L 439.424167 73.705539 
L 439.67765 73.574767 
L 439.931134 73.749295 
L 440.248819 74.338884 
L 440.692692 75.739312 
L 441.643532 79.831578 
L 442.531278 83.148355 
L 443.165541 84.693399 
L 443.799803 85.638472 
L 444.561361 86.304695 
L 446.209558 87.586463 
L 448.556218 89.721591 
L 449.190481 89.892658 
L 449.887837 89.839508 
L 452.044108 89.455349 
L 452.678371 89.683026 
L 453.312633 90.165575 
L 454.073084 91.069364 
L 455.088126 92.657422 
L 456.610134 94.999956 
L 457.49788 95.945523 
L 459.971836 98.183241 
L 460.669193 99.402467 
L 461.429643 101.226608 
L 462.381591 104.097176 
L 464.157083 109.517685 
L 464.854439 110.933193 
L 465.361407 111.529457 
L 465.80528 111.721289 
L 466.186059 111.639464 
L 466.629932 111.270136 
L 467.138006 110.524807 
L 467.835362 109.054419 
L 469.230076 105.379439 
L 470.308211 102.815407 
L 471.005568 101.634746 
L 471.63983 100.964321 
L 472.210999 100.667178 
L 472.845261 100.59623 
L 475.064626 100.632322 
L 475.635795 100.283513 
L 476.270057 99.597513 
L 476.967414 98.475193 
L 477.918254 96.446365 
L 479.94723 91.905912 
L 480.708788 90.7962 
L 481.34305 90.260749 
L 481.913112 90.067433 
L 482.547374 90.113661 
L 483.372026 90.439974 
L 485.528297 91.412734 
L 486.289855 91.477008 
L 487.050306 91.329673 
L 488.001146 90.894835 
L 490.60129 89.565603 
L 491.490143 89.463507 
L 492.757561 89.598234 
L 493.835696 89.631855 
L 494.53416 89.434336 
L 495.231517 88.994802 
L 496.056169 88.177535 
L 498.465923 85.524756 
L 499.035985 85.313394 
L 499.544059 85.37569 
L 500.051026 85.692857 
L 500.622194 86.353642 
L 501.319551 87.560754 
L 502.207297 89.597493 
L 505.441704 97.601563 
L 506.075966 98.473957 
L 506.646028 98.906816 
L 507.154102 98.998036 
L 507.597975 98.853914 
L 508.104942 98.448 
L 508.739204 97.616148 
L 509.563856 96.108927 
L 512.227095 90.807077 
L 512.924451 90.056062 
L 513.558714 89.692173 
L 514.192976 89.575986 
L 514.953427 89.665475 
L 516.095764 90.050871 
L 517.997444 90.716599 
L 518.949391 90.791256 
L 519.774043 90.63156 
L 520.724884 90.201914 
L 522.183798 89.246459 
L 524.14968 88.00721 
L 525.544393 87.381034 
L 526.940213 86.989705 
L 528.906095 86.708384 
L 530.428103 86.392206 
L 531.632427 85.901253 
L 533.028247 85.063468 
L 537.213494 82.340977 
L 539.116282 81.453009 
L 540.764479 80.886163 
L 542.033004 80.665901 
L 543.111139 80.706691 
L 544.061979 80.961808 
L 545.013927 81.448312 
L 546.027861 82.231217 
L 547.105996 83.339199 
L 548.628005 85.231074 
L 550.658088 87.663839 
L 551.608928 88.44798 
L 552.370486 88.807666 
L 553.067842 88.902594 
L 553.765199 88.775035 
L 554.52565 88.412135 
L 555.540691 87.673233 
L 557.633868 86.094321 
L 558.45852 85.783088 
L 559.155877 85.758367 
L 559.790139 85.951683 
L 560.487496 86.413713 
L 561.247947 87.219855 
L 562.009504 88.340445 
L 562.89725 90.04469 
L 563.912292 92.507614 
L 565.116616 96.088903 
L 566.829014 102.027311 
L 569.048379 109.688011 
L 570.316904 113.208734 
L 571.267744 115.241518 
L 572.219691 116.763819 
L 573.170532 117.865374 
L 574.311761 118.814896 
L 578.433914 121.844171 
L 580.083218 123.53136 
L 582.746456 126.280797 
L 584.014981 127.234274 
L 585.030022 127.713362 
L 585.917768 127.900003 
L 586.805515 127.867866 
L 587.756355 127.606815 
L 588.83449 127.071612 
L 590.16611 126.159171 
L 595.937566 121.955415 
L 598.53771 120.592562 
L 601.962506 118.738509 
L 605.386195 116.81771 
L 606.464331 116.49288 
L 607.288983 116.474339 
L 607.986339 116.671858 
L 608.684803 117.10719 
L 609.38216 117.813707 
L 610.14261 118.921689 
L 610.904168 120.397516 
L 611.855008 122.768726 
L 612.87005 125.950034 
L 613.948185 130.104843 
L 615.089415 135.458606 
L 616.548329 143.580347 
L 617.626465 149.171924 
L 618.070338 150.529832 
L 618.323822 150.806457 
L 618.514211 150.697686 
L 618.7046 150.267793 
L 618.958084 149.121494 
L 619.338863 146.007426 
L 619.782736 140.12464 
L 620.415891 128.139547 
L 622.255585 91.42015 
L 622.636364 85.667889 
L 622.636364 85.667889 
" style="fill:none;stroke:#000000;stroke-linecap:round;stroke-width:1.5;"/>
   </g>
   <g id="line2d_26">
    <path clip-path="url(#p5c8471930b)" d="M 115.363636 68.282063 
L 115.554026 70.68986 
L 115.743308 68.731239 
L 115.870604 77.313279 
L 115.933698 74.772238 
L 116.124087 68.814053 
L 116.504866 74.061765 
L 116.631054 67.977504 
L 116.75835 82.320953 
L 116.948739 116.278551 
L 117.011833 114.115737 
L 117.392612 69.161379 
L 117.455706 70.528681 
L 117.583002 74.256317 
L 117.70919 68.837785 
L 117.773391 69.562596 
L 118.026875 79.148544 
L 118.089969 80.062963 
L 118.280358 70.994172 
L 118.343452 71.212703 
L 118.470748 73.986614 
L 118.533842 76.550893 
L 118.598043 76.295528 
L 118.724231 68.105805 
L 118.787325 70.117081 
L 118.977715 114.40843 
L 119.168104 149.0545 
L 119.2954 125.435348 
L 119.548883 69.917091 
L 119.611977 69.303276 
L 119.739273 72.978998 
L 119.929662 67.328586 
L 119.992756 69.468657 
L 120.309334 92.59117 
L 120.436629 78.862773 
L 120.563925 68.295413 
L 120.753207 76.843339 
L 120.817408 80.814226 
L 120.880502 80.634259 
L 121.070892 67.738702 
L 121.198187 89.503307 
L 121.514765 189.455304 
L 121.64206 157.808103 
L 121.958638 71.323699 
L 122.085933 72.533778 
L 122.212121 71.913535 
L 122.275216 70.144274 
L 122.339417 70.637947 
L 122.465605 75.066661 
L 122.719089 105.845177 
L 122.78329 102.430259 
L 123.036773 74.685221 
L 123.099868 74.779654 
L 123.353351 84.071673 
L 123.607942 68.487492 
L 123.73413 86.891317 
L 124.114909 218.515237 
L 124.178003 202.868265 
L 124.558782 76.19615 
L 124.686077 70.973654 
L 124.749171 71.66435 
L 124.87536 70.24464 
L 124.939561 70.594933 
L 125.12995 72.590141 
L 125.256139 84.81107 
L 125.446528 110.099611 
L 125.509622 108.384241 
L 125.827307 78.188887 
L 125.890401 78.276151 
L 126.017696 81.188744 
L 126.080791 81.152899 
L 126.208086 79.119621 
L 126.397368 69.586575 
L 126.524664 80.706443 
L 126.715053 143.387278 
L 126.968537 216.648082 
L 127.095832 187.958465 
L 127.475504 72.881104 
L 127.602799 69.128748 
L 127.665893 69.223428 
L 127.793189 70.720019 
L 127.919377 69.503266 
L 128.046672 70.855983 
L 128.173967 76.674002 
L 128.490545 101.679985 
L 128.553639 100.456063 
L 128.934418 76.54669 
L 128.997512 77.137515 
L 129.124808 84.215053 
L 129.187902 83.223753 
L 129.505587 68.661279 
L 129.568681 71.069076 
L 129.75907 105.369798 
L 130.139849 182.749565 
L 130.202943 179.087687 
L 130.837206 70.018446 
L 130.9003 69.943295 
L 131.027595 71.792651 
L 131.217985 68.762881 
L 131.281079 70.30842 
L 131.407267 78.046248 
L 131.471468 76.878195 
L 131.534562 76.57413 
L 131.788046 88.851175 
L 131.915341 93.749583 
L 131.978435 92.852715 
L 132.231919 81.353137 
L 132.29612 81.834202 
L 132.359214 81.033746 
L 132.422308 81.225825 
L 132.549604 87.016157 
L 132.993477 69.616734 
L 133.056571 71.183038 
L 133.753928 160.502907 
L 133.818129 157.060301 
L 134.325096 70.118317 
L 134.38819 70.299273 
L 134.578579 74.434553 
L 134.705875 76.942716 
L 134.895157 70.822858 
L 135.149748 78.248958 
L 135.212842 78.085554 
L 135.275936 78.178751 
L 135.403231 79.629609 
L 135.466326 81.517777 
L 135.593621 96.895787 
L 135.78401 119.830423 
L 135.910199 108.932052 
L 136.163682 82.883349 
L 136.227883 82.802265 
L 136.354072 85.621909 
L 136.417166 85.475315 
L 136.544461 83.690727 
L 136.607555 83.821994 
L 136.671756 83.802217 
L 136.797945 77.7407 
L 136.92524 71.017657 
L 137.051428 78.450679 
L 137.306019 94.654361 
L 137.432207 98.80472 
L 137.559502 119.201775 
L 137.812986 169.030809 
L 137.939174 145.194857 
L 138.256859 72.789637 
L 138.384154 68.099872 
L 138.510343 69.499064 
L 138.700732 78.410879 
L 138.828027 83.197549 
L 138.891122 82.341224 
L 139.081511 74.577933 
L 139.144605 74.739112 
L 139.2719 76.501698 
L 139.334995 76.042882 
L 139.525384 70.001636 
L 139.588478 70.052313 
L 139.715774 88.116722 
L 140.032351 164.151436 
L 140.159647 139.48289 
L 140.41313 82.515505 
L 140.476224 79.891649 
L 140.539319 79.904751 
L 140.60352 79.906976 
L 140.793909 76.215185 
L 140.920097 81.457953 
L 141.110487 88.076675 
L 141.428172 71.592166 
L 141.491266 73.828896 
L 141.681655 82.126401 
L 141.744749 81.312348 
L 141.872045 77.390902 
L 141.935139 81.579332 
L 142.125528 131.60712 
L 142.315918 171.179286 
L 142.442106 151.671434 
L 142.822885 69.165829 
L 143.076368 67.960941 
L 143.139463 68.320628 
L 143.329852 78.589609 
L 143.520241 85.844889 
L 143.583336 84.898086 
L 143.90102 69.437509 
L 143.964115 71.707859 
L 144.154504 78.596778 
L 144.344893 70.811733 
L 144.407988 73.11867 
L 144.598377 112.066637 
L 144.851861 152.044223 
L 144.979156 130.20867 
L 145.232639 78.976983 
L 145.295734 76.743961 
L 145.359935 77.047037 
L 145.486123 78.417553 
L 145.676513 75.373445 
L 145.739607 75.990227 
L 145.994197 82.299199 
L 146.120386 80.989743 
L 146.247681 77.034677 
L 146.43807 69.055327 
L 146.501164 69.834029 
L 146.691554 75.550693 
L 146.754648 74.938855 
L 146.945037 69.221697 
L 147.008132 70.023143 
L 147.135427 81.270817 
L 147.516206 129.660612 
L 147.642394 115.962868 
L 147.960079 69.848615 
L 148.086267 72.099188 
L 148.213562 73.937914 
L 148.276657 73.598499 
L 148.53014 69.576192 
L 148.594341 70.031053 
L 148.974013 75.920267 
L 149.101309 73.3063 
L 149.227497 71.335318 
L 149.482087 80.345274 
L 149.545182 78.789105 
L 149.798665 68.728767 
L 149.92596 74.548268 
L 150.305632 102.245101 
L 150.369834 102.023109 
L 150.496022 96.454522 
L 150.813707 73.605173 
L 151.193379 76.814415 
L 151.383768 80.053322 
L 151.511063 77.600781 
L 151.764547 72.474695 
L 151.891842 74.771991 
L 152.01803 77.42032 
L 152.082232 76.681171 
L 152.335715 69.968263 
L 152.526105 72.045297 
L 152.715387 68.997728 
L 152.779588 69.12059 
L 153.033072 72.814605 
L 153.223461 80.274325 
L 153.540039 96.692088 
L 153.60424 96.178639 
L 153.920818 78.712471 
L 154.048113 79.305768 
L 154.111207 78.881561 
L 154.681269 67.309798 
L 154.74547 66.96 
L 154.808564 67.14763 
L 154.998953 69.118365 
L 155.252437 72.264816 
L 155.442826 70.788001 
L 155.570122 74.304275 
L 155.759404 82.133817 
L 155.823605 81.887846 
L 156.077089 77.929072 
L 156.140183 77.822773 
L 156.267478 76.779559 
L 156.393667 75.781831 
L 156.457868 76.013217 
L 156.648257 78.86302 
L 156.964835 88.892705 
L 157.027929 88.803958 
L 157.408708 81.146966 
L 157.725286 70.222639 
L 157.852581 71.599335 
L 158.106065 74.163861 
L 158.23336 74.888672 
L 158.296454 74.83132 
L 158.486844 73.514695 
L 158.549938 73.596027 
L 158.677233 74.304275 
L 158.740327 74.187346 
L 158.993811 70.839915 
L 159.058012 70.992442 
L 159.247294 72.269019 
L 159.437684 71.443595 
L 159.564979 72.779996 
L 159.755369 75.28272 
L 159.818463 75.172713 
L 160.008852 74.404394 
L 160.136147 75.713849 
L 160.32543 83.308051 
L 160.706209 104.961165 
L 160.833504 101.725719 
L 161.086988 84.678814 
L 161.340471 69.22763 
L 161.403565 68.460052 
L 161.467767 68.759173 
L 161.72125 71.097999 
L 161.847439 70.235988 
L 162.102029 67.305348 
L 162.165123 67.532037 
L 162.355513 71.988933 
L 162.545902 74.958879 
L 162.736292 71.667564 
L 162.925574 69.775688 
L 163.052869 70.853759 
L 163.243259 76.442616 
L 163.496742 83.904808 
L 163.559837 83.642027 
L 163.750226 78.931744 
L 163.940615 74.588563 
L 164.00371 74.857524 
L 164.131005 79.766068 
L 164.702173 119.80941 
L 164.765267 119.119208 
L 164.891456 113.099716 
L 165.525718 68.983884 
L 165.589919 69.178683 
L 165.716108 73.404935 
L 166.096886 90.688912 
L 166.159981 90.635515 
L 166.35037 87.564462 
L 166.731149 80.169262 
L 166.921538 82.416375 
L 166.984633 82.325155 
L 167.175022 77.932286 
L 167.365411 75.661689 
L 167.555801 78.592081 
L 167.999674 86.224847 
L 168.125862 83.728055 
L 168.316252 80.491868 
L 168.443547 87.339751 
L 168.633936 119.080891 
L 169.077809 215.00366 
L 169.203998 198.760178 
L 169.775166 74.16485 
L 169.902461 70.400628 
L 169.965555 70.928168 
L 170.346334 81.404309 
L 170.409429 80.686667 
L 170.726006 73.589105 
L 170.853302 76.322968 
L 171.297175 98.711028 
L 171.360269 97.302195 
L 171.613752 85.863924 
L 171.741048 93.72857 
L 172.184921 146.108039 
L 172.312216 137.748238 
L 172.882277 73.770307 
L 172.946478 75.11017 
L 173.072667 84.669173 
L 173.32615 128.088127 
L 173.706929 204.5248 
L 173.770023 205.082993 
L 173.897319 191.027294 
L 174.531581 85.49608 
L 174.721971 72.519193 
L 174.785065 73.53818 
L 174.91236 85.528464 
L 175.356233 159.74324 
L 175.419327 159.172686 
L 175.545516 144.835665 
L 175.926295 97.534076 
L 175.989389 98.316239 
L 176.243979 105.455332 
L 176.370168 99.999225 
L 176.687852 82.257173 
L 176.814041 85.668878 
L 177.067524 93.082865 
L 177.131725 92.973352 
L 177.322115 90.039252 
L 177.701787 84.303553 
L 178.019471 80.372961 
L 178.082566 81.505911 
L 178.209861 92.061406 
L 178.40025 140.952783 
L 178.907217 369.36 
L 178.970312 367.42511 
L 179.097607 324.79969 
L 179.604574 105.388833 
L 179.858058 77.805221 
L 180.048447 70.763528 
L 180.111541 70.707412 
L 180.238837 73.463276 
L 180.619615 86.354878 
L 180.68271 86.163539 
L 180.873099 81.401837 
L 181.000394 79.007389 
L 181.063489 79.536412 
L 181.189677 85.42711 
L 181.63355 119.007718 
L 181.697751 118.398352 
L 182.014329 104.299886 
L 182.07853 105.8343 
L 182.267812 127.461458 
L 182.585497 163.244186 
L 182.648591 161.357007 
L 182.838981 138.618901 
L 183.282854 78.0151 
L 183.473243 72.759972 
L 183.600538 74.688435 
L 183.789821 84.404414 
L 183.98021 107.844835 
L 184.677567 230.068953 
L 184.804862 218.886789 
L 185.755703 74.942069 
L 185.819904 73.764869 
L 185.882998 74.251867 
L 186.010293 80.330441 
L 186.580355 127.897778 
L 186.643449 125.75919 
L 186.898039 102.586741 
L 187.151523 85.514126 
L 187.214617 85.333418 
L 187.341912 89.546321 
L 187.721584 108.263851 
L 187.785785 108.079435 
L 187.911974 103.956268 
L 188.355847 84.413561 
L 188.420048 83.995781 
L 188.483142 84.125564 
L 188.863921 87.488569 
L 188.927015 87.287343 
L 189.117404 85.048141 
L 189.751667 74.306252 
L 189.814761 74.68794 
L 189.942056 78.153536 
L 190.132446 93.23737 
L 190.385929 138.3225 
L 190.892897 235.85706 
L 190.955991 236.562341 
L 191.083286 228.015899 
L 191.33677 182.138717 
L 191.780643 98.075954 
L 192.034126 79.62689 
L 192.28761 73.366124 
L 192.5422 71.549152 
L 192.605295 71.567445 
L 192.731483 72.103143 
L 193.112262 75.569233 
L 193.620336 81.756579 
L 193.936914 90.039746 
L 194.317693 99.424962 
L 194.571176 101.653287 
L 194.63427 101.67603 
L 194.761566 100.874338 
L 195.205439 95.92451 
L 195.331627 96.61496 
L 195.586218 98.436876 
L 195.649312 98.360242 
L 195.7755 96.966735 
L 195.96589 91.416195 
L 196.537058 73.119906 
L 196.664353 72.617334 
L 196.790541 74.526761 
L 196.980931 82.583239 
L 198.31255 160.217383 
L 198.439845 155.558518 
L 198.693329 126.749748 
L 199.074108 85.818191 
L 199.327591 77.145178 
L 199.45378 76.206039 
L 199.517981 76.242378 
L 199.644169 77.002045 
L 200.278432 83.026729 
L 200.342633 82.932049 
L 200.468821 82.830941 
L 200.596116 83.558224 
L 201.039989 88.729549 
L 201.166178 87.317008 
L 201.546957 80.236503 
L 201.610051 80.77492 
L 201.737346 84.89685 
L 202.053924 109.357001 
L 202.308514 123.20381 
L 202.371609 123.066858 
L 202.497797 118.155348 
L 203.068965 85.056299 
L 203.19626 84.128284 
L 203.259355 84.140891 
L 203.512838 84.505274 
L 203.703228 83.94535 
L 204.147101 82.005269 
L 204.400584 77.455918 
L 204.590974 75.102012 
L 204.654068 75.503229 
L 204.781363 78.573541 
L 205.352532 97.358559 
L 205.47872 98.922143 
L 205.606015 103.696453 
L 205.796405 122.302246 
L 206.430667 217.110853 
L 206.493761 214.63013 
L 206.684151 184.227369 
L 207.191118 82.735766 
L 207.444601 70.043167 
L 207.571897 68.980918 
L 207.698085 69.828096 
L 207.888475 73.790578 
L 208.396549 87.309839 
L 208.459643 87.230238 
L 208.585831 85.457763 
L 208.903516 79.537154 
L 208.96661 79.572752 
L 209.093905 81.44312 
L 209.474684 89.751503 
L 209.600873 88.210414 
L 209.918557 81.736061 
L 210.044746 86.462907 
L 210.235135 107.367973 
L 210.742102 175.404549 
L 210.806303 175.506151 
L 210.932492 167.223725 
L 211.629848 91.770196 
L 211.757144 94.832844 
L 212.517594 124.610913 
L 212.581795 124.572596 
L 212.707984 122.852035 
L 212.898373 114.753778 
L 213.59573 70.493578 
L 213.723025 73.002235 
L 214.166898 85.117359 
L 214.294193 83.409653 
L 214.484583 80.730917 
L 214.547677 81.519755 
L 214.673865 87.854683 
L 214.928456 120.893166 
L 215.372329 179.602619 
L 215.435423 180.171443 
L 215.562718 173.418982 
L 215.816202 136.669921 
L 216.195874 83.852401 
L 216.386263 75.937325 
L 216.450465 75.533635 
L 216.513559 75.843139 
L 217.5286 89.792292 
L 217.782084 92.543707 
L 217.908272 92.976072 
L 218.035567 94.495159 
L 218.225957 102.207772 
L 218.542535 129.947619 
L 218.923313 156.87193 
L 218.986408 157.135205 
L 219.113703 152.778675 
L 219.683764 112.324227 
L 219.747965 113.683619 
L 219.938355 126.74604 
L 220.318027 157.45163 
L 220.382228 158.6669 
L 220.445322 158.19424 
L 220.572617 152.165354 
L 220.826101 124.287072 
L 221.205773 84.147319 
L 221.396162 79.800677 
L 221.523457 81.607513 
L 222.094626 94.1021 
L 222.283908 94.683531 
L 222.411204 94.578962 
L 222.601593 93.942404 
L 222.791982 91.703203 
L 223.045466 84.304789 
L 223.362044 75.154914 
L 223.426245 74.631824 
L 223.489339 74.654814 
L 223.616634 76.100234 
L 224.060507 83.615576 
L 224.123602 83.427946 
L 224.24979 81.436446 
L 224.693663 70.148477 
L 224.820958 74.15422 
L 225.011348 93.607686 
L 225.327925 158.589771 
L 225.771798 247.800622 
L 225.899094 254.44975 
L 225.962188 253.107169 
L 226.089483 241.358406 
L 226.470262 164.966478 
L 226.849934 105.086004 
L 227.167619 83.124623 
L 227.421102 76.115808 
L 227.611492 75.094843 
L 227.73768 75.811249 
L 228.371943 81.280953 
L 228.499238 81.20506 
L 228.689627 81.051792 
L 228.815816 81.642617 
L 229.006205 84.59773 
L 229.32389 94.783155 
L 229.704669 105.039529 
L 229.767763 105.313682 
L 229.830857 105.024697 
L 229.958152 102.763494 
L 230.528214 84.81453 
L 230.592415 85.072862 
L 230.718603 88.109553 
L 231.036288 106.289903 
L 231.352866 122.271098 
L 231.480161 123.438904 
L 231.606349 120.819498 
L 231.859833 106.268149 
L 232.304813 79.781147 
L 232.367907 78.996759 
L 232.431001 79.35521 
L 232.558296 83.644499 
L 232.81178 105.623185 
L 233.699526 207.269293 
L 233.76262 208.355521 
L 233.826821 208.04132 
L 233.95301 203.253908 
L 234.206493 179.374942 
L 235.094239 79.128026 
L 235.347723 71.788696 
L 235.475018 71.169442 
L 235.602313 71.646304 
L 235.918891 73.36118 
L 235.981985 73.365382 
L 236.109281 72.915713 
L 236.49006 70.687388 
L 236.553154 70.8545 
L 236.680449 72.266547 
L 236.870838 77.662088 
L 237.25051 98.193871 
L 237.694383 118.452985 
L 237.821679 119.735742 
L 237.884773 119.428958 
L 238.012068 116.986058 
L 238.328646 103.141474 
L 238.772519 84.905997 
L 238.962908 82.953556 
L 239.026003 83.10361 
L 239.216392 85.201162 
L 239.660265 90.978391 
L 239.724466 91.099276 
L 239.850655 90.540093 
L 240.041044 87.776813 
L 240.675306 75.875523 
L 240.802602 77.332067 
L 240.991884 84.536422 
L 241.246475 104.241792 
L 241.753442 167.570557 
L 242.197315 212.386726 
L 242.32461 215.917832 
L 242.387704 215.690154 
L 242.513893 211.340299 
L 242.768483 189.736873 
L 243.656229 96.663907 
L 243.909713 88.354041 
L 244.035901 87.316513 
L 244.100102 87.361258 
L 244.290492 88.886031 
L 244.670164 92.150647 
L 244.734365 92.118263 
L 244.860553 91.33437 
L 245.114037 87.246801 
L 245.622111 78.819265 
L 245.685205 78.661794 
L 245.748299 78.785397 
L 245.875595 79.856051 
L 246.129078 84.688208 
L 246.763341 97.842343 
L 246.890636 98.120945 
L 247.016824 97.221853 
L 247.270308 92.38673 
L 247.90457 78.349818 
L 248.09496 77.553812 
L 248.222255 77.952309 
L 248.538833 80.57666 
L 248.919612 83.124128 
L 249.046907 83.195324 
L 249.173095 82.721923 
L 249.426579 80.206838 
L 249.870452 75.225368 
L 249.934653 75.131924 
L 250.060841 75.836959 
L 250.251231 79.609833 
L 250.504715 90.751208 
L 250.822399 115.730988 
L 251.836334 210.050372 
L 251.900535 210.781611 
L 251.963629 210.503503 
L 252.089817 206.953856 
L 252.344408 189.042468 
L 253.548732 76.637909 
L 253.802215 73.058351 
L 253.866416 73.007179 
L 253.992605 73.508021 
L 254.500679 76.485383 
L 254.626867 76.338789 
L 254.880351 75.029086 
L 255.198035 73.650906 
L 255.26113 73.686504 
L 255.388425 74.206628 
L 255.641909 77.021575 
L 256.592749 90.978886 
L 256.846232 91.94769 
L 257.036622 91.997873 
L 257.354307 91.551417 
L 257.79818 90.699789 
L 258.177852 89.156228 
L 258.432442 88.459351 
L 258.55863 88.714222 
L 258.74902 90.317854 
L 259.002503 95.124301 
L 259.446376 109.095703 
L 259.89025 120.955215 
L 260.080639 122.157877 
L 260.207934 121.284742 
L 260.461418 116.216255 
L 260.968385 104.554509 
L 261.09568 103.950335 
L 261.221869 104.816796 
L 261.412258 108.857395 
L 261.793037 123.81812 
L 262.23691 139.526893 
L 262.427299 141.152774 
L 262.554595 139.901906 
L 262.744984 134.677185 
L 263.188857 113.229994 
L 263.695824 92.939732 
L 264.076603 85.848845 
L 265.154739 71.817619 
L 265.280927 71.530611 
L 265.408222 71.909333 
L 265.598612 73.702078 
L 266.549452 85.73513 
L 266.676747 85.605346 
L 266.993325 84.7243 
L 267.056419 84.748526 
L 267.183715 85.330204 
L 267.374104 88.150837 
L 267.627588 96.888124 
L 268.008367 120.969058 
L 268.642629 161.313746 
L 268.831912 164.35736 
L 268.896113 164.061205 
L 269.022301 161.56565 
L 269.276891 150.113783 
L 270.290826 93.062841 
L 270.54431 89.081324 
L 270.7989 87.877673 
L 271.052384 86.860911 
L 271.305867 84.451383 
L 271.94013 77.198822 
L 272.003224 77.235903 
L 272.130519 78.098903 
L 272.320909 81.495034 
L 272.637486 92.088598 
L 273.399044 120.461542 
L 273.652528 123.420364 
L 273.715622 123.42333 
L 273.842917 122.60903 
L 274.096401 118.422578 
L 274.730663 106.785306 
L 274.984147 105.354966 
L 275.300725 104.054904 
L 275.491114 102.054504 
L 275.808799 95.490415 
L 276.506155 79.380672 
L 276.56925 79.322084 
L 276.696545 80.610033 
L 276.886934 86.545474 
L 277.203512 107.459439 
L 278.218553 187.727327 
L 278.281648 188.380448 
L 278.344742 188.218033 
L 278.472037 185.492081 
L 278.725521 171.523151 
L 279.994046 78.903562 
L 280.247529 75.329195 
L 280.374825 74.942811 
L 280.437919 74.961846 
L 280.691402 75.613731 
L 280.881792 75.945235 
L 281.00798 75.861926 
L 281.19837 75.296564 
L 281.516054 74.275599 
L 281.579148 74.282521 
L 281.706444 74.716863 
L 281.896833 76.715532 
L 282.150317 82.206001 
L 283.164251 109.880338 
L 283.228452 110.000728 
L 283.354641 109.280614 
L 283.54503 105.919092 
L 283.925809 93.668004 
L 284.369682 80.635248 
L 284.560071 78.546348 
L 284.623166 78.433869 
L 284.750461 79.040515 
L 285.003944 82.948859 
L 285.701301 96.329188 
L 285.891691 97.104924 
L 286.018986 96.740541 
L 286.335564 94.053895 
L 286.589047 92.709088 
L 286.716342 93.390144 
L 286.906732 97.18848 
L 287.160215 108.829461 
L 287.540994 140.715464 
L 288.364539 218.014395 
L 288.554929 223.15828 
L 288.618023 223.163718 
L 288.745318 220.616002 
L 288.998802 206.272554 
L 289.442675 162.427414 
L 290.141138 96.842143 
L 290.52081 80.272842 
L 290.774294 76.721218 
L 290.964683 76.29973 
L 291.155073 76.616402 
L 291.408556 76.929119 
L 291.535852 76.784503 
L 291.789335 75.862421 
L 292.170114 74.415765 
L 292.233208 74.415024 
L 292.360504 74.800419 
L 292.550893 76.562759 
L 292.804377 81.354126 
L 293.374438 98.574323 
L 293.818311 108.6003 
L 294.008701 109.691719 
L 294.135996 109.130065 
L 294.326385 106.434766 
L 294.706057 96.194461 
L 295.34032 79.66941 
L 295.59491 77.727845 
L 295.658004 77.750588 
L 295.784193 78.344874 
L 296.038783 81.252771 
L 296.673046 89.799955 
L 296.799234 90.254075 
L 296.862328 90.226388 
L 296.989624 89.656081 
L 297.243107 86.723958 
L 297.814275 79.206638 
L 297.87737 79.152253 
L 298.004665 79.949248 
L 298.195054 83.796037 
L 298.448538 94.469944 
L 298.82821 121.79646 
L 299.906345 208.053433 
L 300.096735 210.225642 
L 300.22403 208.034399 
L 300.477514 195.59395 
L 300.921387 157.226424 
L 301.618743 99.973268 
L 301.999522 83.53647 
L 302.3161 77.244308 
L 302.570691 75.364051 
L 302.824174 74.883728 
L 303.140752 74.640229 
L 303.394236 73.96659 
L 304.155793 71.089841 
L 304.283089 71.359297 
L 304.472371 72.603243 
L 304.726962 75.965012 
L 305.170835 85.665912 
L 305.805097 99.270458 
L 306.058581 101.194965 
L 306.121675 101.22018 
L 306.24897 100.72008 
L 306.438253 98.703859 
L 306.819032 91.58306 
L 307.453294 80.434763 
L 307.706778 78.856098 
L 307.834073 78.793308 
L 307.960261 79.157938 
L 308.214852 80.862184 
L 308.912209 86.252287 
L 309.038397 86.415196 
L 309.165692 86.164775 
L 309.356082 85.024904 
L 309.799955 80.124765 
L 310.116532 77.439108 
L 310.243828 77.28757 
L 310.371123 77.914487 
L 310.560405 80.595447 
L 310.814996 87.829962 
L 311.194668 106.581113 
L 311.82893 152.081798 
L 312.463193 191.894002 
L 312.716676 198.313475 
L 312.780878 198.714445 
L 312.843972 198.612101 
L 312.97016 196.903406 
L 313.224751 187.885292 
L 313.668624 159.53163 
L 314.492169 104.949546 
L 314.937149 88.729549 
L 315.253726 83.153793 
L 315.50721 81.308145 
L 315.697599 80.91212 
L 315.824895 80.934368 
L 316.141473 81.4095 
L 316.585346 81.988706 
L 316.966124 82.387204 
L 317.219608 83.071721 
L 317.473092 84.459788 
L 317.790776 87.470029 
L 318.297744 94.980674 
L 319.058194 106.480747 
L 319.375879 108.416872 
L 319.503174 108.477932 
L 319.629363 108.135798 
L 319.882846 106.388044 
L 320.39092 100.465457 
L 320.897888 95.254826 
L 321.214465 93.759965 
L 321.404855 93.554289 
L 321.595244 93.736481 
L 322.166413 94.677598 
L 322.292601 94.55523 
L 322.48299 93.903593 
L 322.736474 92.01147 
L 323.117253 87.089083 
L 323.941905 75.607056 
L 324.132294 74.946024 
L 324.258483 75.255033 
L 324.448872 76.967931 
L 324.702356 81.663876 
L 325.083134 93.386435 
L 326.478955 142.587811 
L 326.732438 144.530611 
L 326.795533 144.476967 
L 326.922828 143.730649 
L 327.176311 139.84134 
L 327.55709 129.196851 
L 329.014898 81.904903 
L 329.395677 77.133807 
L 329.64916 76.082435 
L 329.776455 76.068839 
L 329.966845 76.529138 
L 330.346517 78.442768 
L 330.980779 81.560297 
L 331.361558 82.438129 
L 331.805431 82.840088 
L 332.18621 83.262812 
L 332.566989 84.146824 
L 333.13705 86.257478 
L 333.961702 89.130519 
L 334.46867 90.130966 
L 335.420617 91.68837 
L 335.800289 92.924158 
L 336.245269 95.166574 
L 337.386498 101.522267 
L 337.576888 101.783318 
L 337.703076 101.740304 
L 337.893466 101.355155 
L 338.21115 99.991561 
L 339.098896 95.494123 
L 339.289286 95.356429 
L 339.415474 95.577184 
L 339.605864 96.450814 
L 339.859347 98.752312 
L 340.240126 104.895408 
L 340.683999 116.30698 
L 341.318262 139.803765 
L 343.156848 215.533178 
L 343.347237 217.19342 
L 343.410332 217.136316 
L 343.537627 216.024131 
L 343.728016 211.736077 
L 344.044594 197.671725 
L 344.552668 162.046962 
L 345.37732 104.385667 
L 345.821193 86.110143 
L 346.200865 78.305816 
L 346.51855 75.633013 
L 346.835128 74.639488 
L 347.152812 74.287959 
L 347.46939 74.250136 
L 347.722874 74.465948 
L 348.040558 75.133407 
L 348.421337 76.552129 
L 349.118694 80.300035 
L 350.132628 85.555904 
L 351.718838 92.829478 
L 352.796973 98.16297 
L 353.240847 99.34289 
L 353.49433 99.592569 
L 353.68472 99.552274 
L 353.938203 99.170092 
L 354.254781 98.130586 
L 354.63556 96.04317 
L 355.206728 91.461928 
L 356.538347 80.044423 
L 356.98222 78.012381 
L 357.298798 77.403263 
L 357.489188 77.379778 
L 357.679577 77.601523 
L 357.997262 78.466995 
L 358.441135 80.487665 
L 359.708553 86.854483 
L 360.089332 87.742698 
L 360.407016 87.991141 
L 360.6605 87.913765 
L 360.977078 87.556551 
L 361.61134 86.407286 
L 362.308697 85.303753 
L 362.689476 85.093874 
L 362.942959 85.185094 
L 363.260644 85.594963 
L 363.641423 86.520259 
L 364.211484 88.590124 
L 365.543103 93.661083 
L 366.114272 94.985865 
L 366.495051 95.375958 
L 366.748534 95.351237 
L 367.002018 95.062994 
L 367.318596 94.305304 
L 367.762469 92.518986 
L 368.396731 88.826701 
L 369.855646 79.97916 
L 370.299519 78.484546 
L 370.617203 77.977525 
L 370.870687 77.925117 
L 371.124171 78.178998 
L 371.440748 78.886752 
L 371.948822 80.706443 
L 373.153146 85.383107 
L 373.533925 86.042902 
L 373.787409 86.132638 
L 374.040892 85.940064 
L 374.358577 85.337868 
L 374.865544 83.741157 
L 376.261365 78.877853 
L 376.641036 78.253655 
L 376.958721 78.119421 
L 377.212205 78.280106 
L 377.528783 78.80814 
L 377.972656 80.079773 
L 378.924603 83.763653 
L 379.494664 85.508688 
L 379.938537 86.207542 
L 380.256222 86.333371 
L 380.5728 86.200126 
L 381.016673 85.728702 
L 382.285198 84.277844 
L 382.856366 84.015557 
L 383.553723 83.958452 
L 384.504563 84.11271 
L 385.329215 84.455091 
L 386.090773 85.029353 
L 386.915425 85.965774 
L 388.310138 88.00721 
L 389.388273 89.411593 
L 390.212925 90.134179 
L 391.925323 91.45031 
L 392.559586 92.388955 
L 393.700815 94.66153 
L 394.270877 95.541587 
L 394.651656 95.792749 
L 394.96934 95.723778 
L 395.285918 95.369778 
L 395.666697 94.556467 
L 396.173664 92.850738 
L 396.871021 89.599718 
L 399.344977 77.353821 
L 400.042333 75.258741 
L 400.613502 74.133702 
L 401.120469 73.550046 
L 401.564342 73.326818 
L 402.008215 73.336212 
L 402.515182 73.589599 
L 403.086351 74.137904 
L 403.783707 75.135879 
L 404.735654 76.955818 
L 406.257663 79.93936 
L 406.890818 80.718804 
L 407.461987 81.077996 
L 408.033155 81.16254 
L 408.920901 81.011744 
L 409.745553 80.940796 
L 410.315614 81.115324 
L 410.823689 81.499236 
L 411.39375 82.230969 
L 412.028012 83.436598 
L 412.78957 85.422165 
L 413.677316 88.448474 
L 414.691251 92.778553 
L 415.959776 99.155754 
L 417.989858 109.354282 
L 418.813403 112.483181 
L 419.447666 114.111534 
L 419.95574 114.854144 
L 420.335412 115.09171 
L 420.716191 115.085036 
L 421.160064 114.82176 
L 421.731232 114.190146 
L 422.809368 112.561052 
L 424.394471 110.209371 
L 425.282217 109.272209 
L 425.916479 108.889285 
L 426.423446 108.808448 
L 426.867319 108.936502 
L 427.311192 109.279872 
L 427.819267 109.974771 
L 428.389328 111.200918 
L 428.960496 112.96919 
L 429.594759 115.670669 
L 430.292115 119.687537 
L 431.053673 125.542884 
L 431.877218 133.905157 
L 432.70187 144.489575 
L 434.795047 172.878587 
L 435.048531 173.801658 
L 435.175826 173.698573 
L 435.365108 172.700351 
L 435.619699 169.581092 
L 435.936277 162.56585 
L 436.443244 144.943941 
L 437.839064 92.776576 
L 438.409125 80.560591 
L 438.789904 76.173407 
L 439.107589 74.432575 
L 439.424167 73.705539 
L 439.67765 73.574767 
L 439.931134 73.749295 
L 440.248819 74.338884 
L 440.692692 75.739312 
L 441.643532 79.831578 
L 442.531278 83.148355 
L 443.165541 84.693399 
L 443.799803 85.638472 
L 444.561361 86.304695 
L 446.209558 87.586463 
L 448.556218 89.721591 
L 449.190481 89.892658 
L 449.887837 89.839508 
L 452.044108 89.455349 
L 452.678371 89.683026 
L 453.312633 90.165575 
L 454.073084 91.069364 
L 455.088126 92.657422 
L 456.610134 94.999956 
L 457.49788 95.945523 
L 459.971836 98.183241 
L 460.669193 99.402467 
L 461.429643 101.226608 
L 462.381591 104.097176 
L 464.157083 109.517685 
L 464.854439 110.933193 
L 465.361407 111.529457 
L 465.80528 111.721289 
L 466.186059 111.639464 
L 466.629932 111.270136 
L 467.138006 110.524807 
L 467.835362 109.054419 
L 469.230076 105.379439 
L 470.308211 102.815407 
L 471.005568 101.634746 
L 471.63983 100.964321 
L 472.210999 100.667178 
L 472.845261 100.59623 
L 475.064626 100.632322 
L 475.635795 100.283513 
L 476.270057 99.597513 
L 476.967414 98.475193 
L 477.918254 96.446365 
L 479.94723 91.905912 
L 480.708788 90.7962 
L 481.34305 90.260749 
L 481.913112 90.067433 
L 482.547374 90.113661 
L 483.372026 90.439974 
L 485.528297 91.412734 
L 486.289855 91.477008 
L 487.050306 91.329673 
L 488.001146 90.894835 
L 490.60129 89.565603 
L 491.490143 89.463507 
L 492.757561 89.598234 
L 493.835696 89.631855 
L 494.53416 89.434336 
L 495.231517 88.994802 
L 496.056169 88.177535 
L 498.465923 85.524756 
L 499.035985 85.313394 
L 499.544059 85.37569 
L 500.051026 85.692857 
L 500.622194 86.353642 
L 501.319551 87.560754 
L 502.207297 89.597493 
L 505.441704 97.601563 
L 506.075966 98.473957 
L 506.646028 98.906816 
L 507.154102 98.998036 
L 507.597975 98.853914 
L 508.104942 98.448 
L 508.739204 97.616148 
L 509.563856 96.108927 
L 512.227095 90.807077 
L 512.924451 90.056062 
L 513.558714 89.692173 
L 514.192976 89.575986 
L 514.953427 89.665475 
L 516.095764 90.050871 
L 517.997444 90.716599 
L 518.949391 90.791256 
L 519.774043 90.63156 
L 520.724884 90.201914 
L 522.183798 89.246459 
L 524.14968 88.00721 
L 525.544393 87.381034 
L 526.940213 86.989705 
L 528.906095 86.708384 
L 530.428103 86.392206 
L 531.632427 85.901253 
L 533.028247 85.063468 
L 537.213494 82.340977 
L 539.116282 81.453009 
L 540.764479 80.886163 
L 542.033004 80.665901 
L 543.111139 80.706691 
L 544.061979 80.961808 
L 545.013927 81.448312 
L 546.027861 82.231217 
L 547.105996 83.339199 
L 548.628005 85.231074 
L 550.658088 87.663839 
L 551.608928 88.44798 
L 552.370486 88.807666 
L 553.067842 88.902594 
L 553.765199 88.775035 
L 554.52565 88.412135 
L 555.540691 87.673233 
L 557.633868 86.094321 
L 558.45852 85.783088 
L 559.155877 85.758367 
L 559.790139 85.951683 
L 560.487496 86.413713 
L 561.247947 87.219855 
L 562.009504 88.340445 
L 562.89725 90.04469 
L 563.912292 92.507614 
L 565.116616 96.088903 
L 566.829014 102.027311 
L 569.048379 109.688011 
L 570.316904 113.208734 
L 571.267744 115.241518 
L 572.219691 116.763819 
L 573.170532 117.865374 
L 574.311761 118.814896 
L 578.433914 121.844171 
L 580.083218 123.53136 
L 582.746456 126.280797 
L 584.014981 127.234274 
L 585.030022 127.713362 
L 585.917768 127.900003 
L 586.805515 127.867866 
L 587.756355 127.606815 
L 588.83449 127.071612 
L 590.16611 126.159171 
L 595.937566 121.955415 
L 598.53771 120.592562 
L 601.962506 118.738509 
L 605.386195 116.81771 
L 606.464331 116.49288 
L 607.288983 116.474339 
L 607.986339 116.671858 
L 608.684803 117.10719 
L 609.38216 117.813707 
L 610.14261 118.921689 
L 610.904168 120.397516 
L 611.855008 122.768726 
L 612.87005 125.950034 
L 613.948185 130.104843 
L 615.089415 135.458606 
L 616.548329 143.580347 
L 617.626465 149.171924 
L 618.070338 150.529832 
L 618.323822 150.806457 
L 618.514211 150.697686 
L 618.7046 150.267793 
L 618.958084 149.121494 
L 619.338863 146.007426 
L 619.782736 140.12464 
L 620.415891 128.139547 
L 622.255585 91.42015 
L 622.636364 85.667889 
L 622.636364 85.667889 
" style="fill:none;stroke:#000000;stroke-linecap:round;stroke-width:1.5;"/>
   </g>
   <g id="patch_3">
    <path d="M 90 384.48 
L 90 51.84 
" style="fill:none;stroke:#cccccc;stroke-linecap:square;stroke-linejoin:miter;"/>
   </g>
   <g id="patch_4">
    <path d="M 648 384.48 
L 648 51.84 
" style="fill:none;stroke:#cccccc;stroke-linecap:square;stroke-linejoin:miter;"/>
   </g>
   <g id="patch_5">
    <path d="M 90 384.48 
L 648 384.48 
" style="fill:none;stroke:#cccccc;stroke-linecap:square;stroke-linejoin:miter;"/>
   </g>
   <g id="patch_6">
    <path d="M 90 51.84 
L 648 51.84 
" style="fill:none;stroke:#cccccc;stroke-linecap:square;stroke-linejoin:miter;"/>
   </g>
   <g id="text_15">
    <!-- Periodogram: 1998 TU3 -->
    <g style="fill:#262626;" transform="translate(279.64125 45.84)scale(0.16 -0.16)">
     <defs>
      <path d="M 4050 3009 
Q 4050 2725 3954 2461 
Q 3859 2197 3662 1994 
Q 3466 1791 3162 1670 
Q 2859 1550 2444 1550 
L 1350 1550 
L 1350 0 
L 428 0 
L 428 4403 
L 2406 4403 
Q 2828 4403 3137 4301 
Q 3447 4200 3650 4015 
Q 3853 3831 3951 3575 
Q 4050 3319 4050 3009 
z
M 3122 2994 
Q 3122 3334 2917 3511 
Q 2713 3688 2303 3688 
L 1350 3688 
L 1350 2259 
L 2328 2259 
Q 2534 2259 2682 2312 
Q 2831 2366 2929 2462 
Q 3028 2559 3075 2695 
Q 3122 2831 3122 2994 
z
" id="LiberationSans-Bold-50" transform="scale(0.015625)"/>
      <path d="M 1831 -63 
Q 1466 -63 1173 45 
Q 881 153 675 373 
Q 469 594 359 926 
Q 250 1259 250 1706 
Q 250 2191 379 2522 
Q 509 2853 729 3058 
Q 950 3263 1237 3353 
Q 1525 3444 1844 3444 
Q 2244 3444 2526 3305 
Q 2809 3166 2990 2916 
Q 3172 2666 3256 2317 
Q 3341 1969 3341 1547 
L 3341 1522 
L 1172 1522 
Q 1172 1309 1209 1126 
Q 1247 944 1331 811 
Q 1416 678 1550 601 
Q 1684 525 1875 525 
Q 2106 525 2253 623 
Q 2400 722 2463 928 
L 3291 856 
Q 3234 713 3132 550 
Q 3031 388 2862 252 
Q 2694 116 2442 26 
Q 2191 -63 1831 -63 
z
M 1831 2891 
Q 1697 2891 1580 2845 
Q 1463 2800 1377 2701 
Q 1291 2603 1237 2447 
Q 1184 2291 1178 2072 
L 2491 2072 
Q 2466 2481 2294 2686 
Q 2122 2891 1831 2891 
z
" id="LiberationSans-Bold-65" transform="scale(0.015625)"/>
      <path d="M 447 0 
L 447 2588 
Q 447 2697 445 2819 
Q 444 2941 439 3052 
Q 434 3163 431 3252 
Q 428 3341 422 3381 
L 1259 3381 
Q 1266 3344 1272 3251 
Q 1278 3159 1284 3050 
Q 1291 2941 1295 2833 
Q 1300 2725 1300 2659 
L 1313 2659 
Q 1378 2844 1443 2989 
Q 1509 3134 1598 3236 
Q 1688 3338 1813 3392 
Q 1938 3447 2122 3447 
Q 2200 3447 2276 3433 
Q 2353 3419 2394 3400 
L 2394 2666 
Q 2309 2684 2223 2698 
Q 2138 2713 2019 2713 
Q 1691 2713 1508 2447 
Q 1325 2181 1325 1659 
L 1325 0 
L 447 0 
z
" id="LiberationSans-Bold-72" transform="scale(0.015625)"/>
      <path d="M 447 3991 
L 447 4638 
L 1325 4638 
L 1325 3991 
L 447 3991 
z
M 447 0 
L 447 3381 
L 1325 3381 
L 1325 0 
L 447 0 
z
" id="LiberationSans-Bold-69" transform="scale(0.015625)"/>
      <path d="M 3659 1694 
Q 3659 1306 3551 984 
Q 3444 663 3228 430 
Q 3013 197 2691 67 
Q 2369 -63 1941 -63 
Q 1528 -63 1212 65 
Q 897 194 683 425 
Q 469 656 359 979 
Q 250 1303 250 1694 
Q 250 2072 354 2392 
Q 459 2713 671 2947 
Q 884 3181 1206 3312 
Q 1528 3444 1959 3444 
Q 2416 3444 2737 3312 
Q 3059 3181 3264 2948 
Q 3469 2716 3564 2395 
Q 3659 2075 3659 1694 
z
M 2741 1694 
Q 2741 2297 2544 2569 
Q 2347 2841 1972 2841 
Q 1584 2841 1378 2566 
Q 1172 2291 1172 1694 
Q 1172 1391 1226 1172 
Q 1281 953 1381 812 
Q 1481 672 1622 605 
Q 1763 538 1931 538 
Q 2125 538 2276 605 
Q 2428 672 2531 812 
Q 2634 953 2687 1172 
Q 2741 1391 2741 1694 
z
" id="LiberationSans-Bold-6f" transform="scale(0.015625)"/>
      <path d="M 2638 0 
Q 2631 25 2623 89 
Q 2616 153 2608 234 
Q 2600 316 2595 400 
Q 2591 484 2591 550 
L 2578 550 
Q 2425 222 2151 79 
Q 1878 -63 1497 -63 
Q 1178 -63 945 68 
Q 713 200 561 434 
Q 409 669 336 989 
Q 263 1309 263 1688 
Q 263 2072 339 2394 
Q 416 2716 575 2948 
Q 734 3181 979 3312 
Q 1225 3444 1563 3444 
Q 1728 3444 1881 3409 
Q 2034 3375 2165 3303 
Q 2297 3231 2403 3118 
Q 2509 3006 2584 2847 
L 2591 2847 
Q 2591 2878 2589 2939 
Q 2588 3000 2588 3078 
Q 2588 3156 2586 3240 
Q 2584 3325 2584 3403 
L 2584 4638 
L 3463 4638 
L 3463 738 
Q 3463 491 3472 298 
Q 3481 106 3488 0 
L 2638 0 
z
M 2597 1709 
Q 2597 2044 2534 2264 
Q 2472 2484 2370 2614 
Q 2269 2744 2139 2795 
Q 2009 2847 1875 2847 
Q 1706 2847 1576 2781 
Q 1447 2716 1358 2575 
Q 1269 2434 1223 2215 
Q 1178 1997 1178 1688 
Q 1178 538 1869 538 
Q 2000 538 2131 594 
Q 2263 650 2366 784 
Q 2469 919 2533 1145 
Q 2597 1372 2597 1709 
z
" id="LiberationSans-Bold-64" transform="scale(0.015625)"/>
      <path d="M 1863 -1356 
Q 1528 -1356 1273 -1289 
Q 1019 -1222 839 -1101 
Q 659 -981 551 -814 
Q 444 -647 403 -447 
L 1281 -344 
Q 1328 -547 1483 -662 
Q 1638 -778 1888 -778 
Q 2044 -778 2173 -734 
Q 2303 -691 2395 -586 
Q 2488 -481 2539 -309 
Q 2591 -138 2591 116 
Q 2591 203 2591 293 
Q 2591 384 2594 459 
Q 2597 547 2597 628 
L 2591 628 
Q 2438 300 2161 153 
Q 1884 6 1503 6 
Q 1181 6 948 132 
Q 716 259 562 486 
Q 409 713 336 1027 
Q 263 1341 263 1719 
Q 263 2109 341 2426 
Q 419 2744 580 2972 
Q 741 3200 986 3323 
Q 1231 3447 1569 3447 
Q 1906 3447 2173 3303 
Q 2441 3159 2591 2838 
L 2606 2838 
Q 2606 2903 2611 2989 
Q 2616 3075 2622 3154 
Q 2628 3234 2636 3296 
Q 2644 3359 2650 3381 
L 3481 3381 
Q 3475 3269 3469 3066 
Q 3463 2863 3463 2600 
L 3463 103 
Q 3463 -266 3356 -539 
Q 3250 -813 3045 -994 
Q 2841 -1175 2542 -1265 
Q 2244 -1356 1863 -1356 
z
M 2597 1738 
Q 2597 2056 2534 2268 
Q 2472 2481 2372 2609 
Q 2272 2738 2142 2791 
Q 2013 2844 1881 2844 
Q 1713 2844 1583 2778 
Q 1453 2713 1362 2575 
Q 1272 2438 1225 2225 
Q 1178 2013 1178 1719 
Q 1178 1172 1353 894 
Q 1528 616 1875 616 
Q 2006 616 2136 667 
Q 2266 719 2369 848 
Q 2472 978 2534 1193 
Q 2597 1409 2597 1738 
z
" id="LiberationSans-Bold-67" transform="scale(0.015625)"/>
      <path d="M 1228 -63 
Q 984 -63 792 4 
Q 600 72 465 201 
Q 331 331 259 522 
Q 188 713 188 956 
Q 188 1256 292 1461 
Q 397 1666 578 1792 
Q 759 1919 1003 1976 
Q 1247 2034 1522 2038 
L 2250 2050 
L 2250 2222 
Q 2250 2406 2217 2529 
Q 2184 2653 2121 2731 
Q 2059 2809 1967 2842 
Q 1875 2875 1756 2875 
Q 1647 2875 1561 2853 
Q 1475 2831 1412 2776 
Q 1350 2722 1311 2630 
Q 1272 2538 1256 2397 
L 341 2441 
Q 378 2663 478 2845 
Q 578 3028 754 3162 
Q 931 3297 1189 3370 
Q 1447 3444 1794 3444 
Q 2109 3444 2356 3366 
Q 2603 3288 2775 3133 
Q 2947 2978 3037 2753 
Q 3128 2528 3128 2231 
L 3128 1000 
Q 3128 881 3139 787 
Q 3150 694 3179 630 
Q 3209 566 3264 533 
Q 3319 500 3406 500 
Q 3506 500 3600 519 
L 3600 44 
Q 3522 25 3459 9 
Q 3397 -6 3334 -15 
Q 3272 -25 3201 -31 
Q 3131 -38 3038 -38 
Q 2706 -38 2548 125 
Q 2391 288 2359 603 
L 2341 603 
Q 2166 288 1892 112 
Q 1619 -63 1228 -63 
z
M 2250 1566 
L 1800 1559 
Q 1659 1553 1532 1536 
Q 1406 1519 1311 1464 
Q 1216 1409 1159 1306 
Q 1103 1203 1103 1025 
Q 1103 784 1214 667 
Q 1325 550 1509 550 
Q 1678 550 1815 622 
Q 1953 694 2048 811 
Q 2144 928 2197 1081 
Q 2250 1234 2250 1394 
L 2250 1566 
z
" id="LiberationSans-Bold-61" transform="scale(0.015625)"/>
      <path d="M 2438 0 
L 2438 1897 
Q 2438 2094 2411 2258 
Q 2384 2422 2323 2539 
Q 2263 2656 2164 2722 
Q 2066 2788 1925 2788 
Q 1791 2788 1681 2717 
Q 1572 2647 1492 2517 
Q 1413 2388 1369 2208 
Q 1325 2028 1325 1813 
L 1325 0 
L 447 0 
L 447 2625 
Q 447 2734 445 2850 
Q 444 2966 439 3070 
Q 434 3175 431 3258 
Q 428 3341 422 3381 
L 1259 3381 
Q 1266 3344 1272 3261 
Q 1278 3178 1284 3078 
Q 1291 2978 1295 2878 
Q 1300 2778 1300 2709 
L 1313 2709 
Q 1475 3097 1717 3272 
Q 1959 3447 2297 3447 
Q 2684 3447 2920 3258 
Q 3156 3069 3238 2709 
L 3256 2709 
Q 3347 2919 3451 3059 
Q 3556 3200 3682 3286 
Q 3809 3372 3957 3409 
Q 4106 3447 4281 3447 
Q 4559 3447 4751 3347 
Q 4944 3247 5064 3072 
Q 5184 2897 5239 2659 
Q 5294 2422 5294 2147 
L 5294 0 
L 4422 0 
L 4422 1897 
Q 4422 2094 4395 2258 
Q 4369 2422 4308 2539 
Q 4247 2656 4148 2722 
Q 4050 2788 3909 2788 
Q 3778 2788 3670 2720 
Q 3563 2653 3483 2529 
Q 3403 2406 3359 2234 
Q 3316 2063 3309 1853 
L 3309 0 
L 2438 0 
z
" id="LiberationSans-Bold-6d" transform="scale(0.015625)"/>
      <path d="M 616 2350 
L 616 3231 
L 1516 3231 
L 1516 2350 
L 616 2350 
z
M 616 0 
L 616 878 
L 1516 878 
L 1516 0 
L 616 0 
z
" id="LiberationSans-Bold-3a" transform="scale(0.015625)"/>
      <path id="LiberationSans-Bold-20" transform="scale(0.015625)"/>
      <path d="M 403 0 
L 403 653 
L 1494 653 
L 1494 3656 
L 438 2997 
L 438 3688 
L 1541 4403 
L 2372 4403 
L 2372 653 
L 3381 653 
L 3381 0 
L 403 0 
z
" id="LiberationSans-Bold-31" transform="scale(0.015625)"/>
      <path d="M 3322 2272 
Q 3322 1100 2894 518 
Q 2466 -63 1678 -63 
Q 1394 -63 1167 -3 
Q 941 56 772 181 
Q 603 306 486 503 
Q 369 700 300 972 
L 1125 1088 
Q 1188 853 1330 740 
Q 1472 628 1688 628 
Q 1866 628 2006 712 
Q 2147 797 2247 969 
Q 2347 1141 2401 1405 
Q 2456 1669 2459 2028 
Q 2397 1906 2294 1812 
Q 2191 1719 2061 1656 
Q 1931 1594 1784 1561 
Q 1638 1528 1488 1528 
Q 1200 1528 965 1629 
Q 731 1731 565 1922 
Q 400 2113 311 2383 
Q 222 2653 222 2994 
Q 222 3344 326 3619 
Q 431 3894 628 4083 
Q 825 4272 1111 4370 
Q 1397 4469 1759 4469 
Q 2141 4469 2433 4339 
Q 2725 4209 2922 3939 
Q 3119 3669 3220 3255 
Q 3322 2841 3322 2272 
z
M 2394 2888 
Q 2394 3075 2351 3239 
Q 2309 3403 2225 3523 
Q 2141 3644 2019 3712 
Q 1897 3781 1738 3781 
Q 1591 3781 1475 3726 
Q 1359 3672 1278 3569 
Q 1197 3466 1155 3319 
Q 1113 3172 1113 2988 
Q 1113 2816 1153 2667 
Q 1194 2519 1272 2411 
Q 1350 2303 1469 2242 
Q 1588 2181 1741 2181 
Q 1863 2181 1980 2225 
Q 2097 2269 2189 2356 
Q 2281 2444 2337 2576 
Q 2394 2709 2394 2888 
z
" id="LiberationSans-Bold-39" transform="scale(0.015625)"/>
      <path d="M 3363 1241 
Q 3363 956 3269 717 
Q 3175 478 2981 304 
Q 2788 131 2491 34 
Q 2194 -63 1784 -63 
Q 1378 -63 1079 34 
Q 781 131 586 304 
Q 391 478 297 715 
Q 203 953 203 1234 
Q 203 1475 278 1661 
Q 353 1847 478 1981 
Q 603 2116 765 2195 
Q 928 2275 1100 2303 
L 1100 2316 
Q 916 2356 769 2450 
Q 622 2544 519 2675 
Q 416 2806 361 2967 
Q 306 3128 306 3303 
Q 306 3566 401 3781 
Q 497 3997 681 4150 
Q 866 4303 1139 4386 
Q 1413 4469 1772 4469 
Q 2156 4469 2436 4383 
Q 2716 4297 2897 4142 
Q 3078 3988 3165 3772 
Q 3253 3556 3253 3297 
Q 3253 3125 3198 2964 
Q 3144 2803 3041 2672 
Q 2938 2541 2789 2450 
Q 2641 2359 2453 2322 
L 2453 2309 
Q 2647 2278 2814 2195 
Q 2981 2113 3103 1980 
Q 3225 1847 3294 1661 
Q 3363 1475 3363 1241 
z
M 2350 3250 
Q 2350 3381 2322 3492 
Q 2294 3603 2228 3683 
Q 2163 3763 2052 3808 
Q 1941 3853 1772 3853 
Q 1609 3853 1500 3808 
Q 1391 3763 1325 3683 
Q 1259 3603 1231 3492 
Q 1203 3381 1203 3250 
Q 1203 3134 1226 3021 
Q 1250 2909 1312 2820 
Q 1375 2731 1487 2675 
Q 1600 2619 1778 2619 
Q 1966 2619 2080 2675 
Q 2194 2731 2253 2822 
Q 2313 2913 2331 3025 
Q 2350 3138 2350 3250 
z
M 2453 1313 
Q 2453 1447 2423 1572 
Q 2394 1697 2317 1792 
Q 2241 1888 2106 1945 
Q 1972 2003 1766 2003 
Q 1578 2003 1451 1945 
Q 1325 1888 1248 1791 
Q 1172 1694 1139 1567 
Q 1106 1441 1106 1300 
Q 1106 1134 1139 996 
Q 1172 859 1251 761 
Q 1331 663 1462 609 
Q 1594 556 1791 556 
Q 1988 556 2116 611 
Q 2244 666 2319 766 
Q 2394 866 2423 1005 
Q 2453 1144 2453 1313 
z
" id="LiberationSans-Bold-38" transform="scale(0.015625)"/>
      <path d="M 2416 3691 
L 2416 0 
L 1494 0 
L 1494 3691 
L 72 3691 
L 72 4403 
L 3841 4403 
L 3841 3691 
L 2416 3691 
z
" id="LiberationSans-Bold-54" transform="scale(0.015625)"/>
      <path d="M 2259 -63 
Q 1847 -63 1503 35 
Q 1159 134 911 342 
Q 663 550 523 875 
Q 384 1200 384 1650 
L 384 4403 
L 1306 4403 
L 1306 1722 
Q 1306 1444 1375 1242 
Q 1444 1041 1572 911 
Q 1700 781 1881 720 
Q 2063 659 2284 659 
Q 2509 659 2698 723 
Q 2888 788 3023 922 
Q 3159 1056 3234 1262 
Q 3309 1469 3309 1753 
L 3309 4403 
L 4231 4403 
L 4231 1697 
Q 4231 1244 4084 912 
Q 3938 581 3675 364 
Q 3413 147 3052 42 
Q 2691 -63 2259 -63 
z
" id="LiberationSans-Bold-55" transform="scale(0.015625)"/>
      <path d="M 3328 1222 
Q 3328 922 3229 683 
Q 3131 444 2934 275 
Q 2738 106 2445 17 
Q 2153 -72 1766 -72 
Q 1334 -72 1039 37 
Q 744 147 555 326 
Q 366 506 270 734 
Q 175 963 147 1197 
L 1041 1275 
Q 1059 1134 1111 1017 
Q 1163 900 1250 815 
Q 1338 731 1464 686 
Q 1591 641 1763 641 
Q 2078 641 2253 797 
Q 2428 953 2428 1275 
Q 2428 1472 2345 1590 
Q 2263 1709 2136 1773 
Q 2009 1838 1862 1859 
Q 1716 1881 1584 1881 
L 1278 1881 
L 1278 2591 
L 1566 2591 
Q 1697 2591 1833 2616 
Q 1969 2641 2078 2706 
Q 2188 2772 2256 2889 
Q 2325 3006 2325 3188 
Q 2325 3459 2173 3614 
Q 2022 3769 1731 3769 
Q 1459 3769 1292 3619 
Q 1125 3469 1100 3194 
L 222 3256 
Q 259 3566 392 3794 
Q 525 4022 726 4172 
Q 928 4322 1190 4395 
Q 1453 4469 1747 4469 
Q 2134 4469 2412 4375 
Q 2691 4281 2869 4122 
Q 3047 3963 3131 3750 
Q 3216 3538 3216 3297 
Q 3216 3103 3159 2936 
Q 3103 2769 2989 2636 
Q 2875 2503 2697 2408 
Q 2519 2313 2275 2266 
L 2275 2253 
Q 2547 2222 2747 2130 
Q 2947 2038 3075 1900 
Q 3203 1763 3265 1589 
Q 3328 1416 3328 1222 
z
" id="LiberationSans-Bold-33" transform="scale(0.015625)"/>
     </defs>
     <use xlink:href="#LiberationSans-Bold-50"/>
     <use x="66.699219" xlink:href="#LiberationSans-Bold-65"/>
     <use x="122.314453" xlink:href="#LiberationSans-Bold-72"/>
     <use x="161.230469" xlink:href="#LiberationSans-Bold-69"/>
     <use x="189.013672" xlink:href="#LiberationSans-Bold-6f"/>
     <use x="250.097656" xlink:href="#LiberationSans-Bold-64"/>
     <use x="311.181641" xlink:href="#LiberationSans-Bold-6f"/>
     <use x="372.265625" xlink:href="#LiberationSans-Bold-67"/>
     <use x="433.349609" xlink:href="#LiberationSans-Bold-72"/>
     <use x="472.265625" xlink:href="#LiberationSans-Bold-61"/>
     <use x="527.880859" xlink:href="#LiberationSans-Bold-6d"/>
     <use x="616.796875" xlink:href="#LiberationSans-Bold-3a"/>
     <use x="650.097656" xlink:href="#LiberationSans-Bold-20"/>
     <use x="677.880859" xlink:href="#LiberationSans-Bold-31"/>
     <use x="733.496094" xlink:href="#LiberationSans-Bold-39"/>
     <use x="789.111328" xlink:href="#LiberationSans-Bold-39"/>
     <use x="844.726562" xlink:href="#LiberationSans-Bold-38"/>
     <use x="900.341797" xlink:href="#LiberationSans-Bold-20"/>
     <use x="928.125" xlink:href="#LiberationSans-Bold-54"/>
     <use x="989.208984" xlink:href="#LiberationSans-Bold-55"/>
     <use x="1061.425781" xlink:href="#LiberationSans-Bold-33"/>
    </g>
   </g>
  </g>
 </g>
 <defs>
  <clipPath id="p5c8471930b">
   <rect height="332.64" width="558" x="90" y="51.84"/>
  </clipPath>
 </defs>
</svg>
