<?xml version="1.0" encoding="utf-8" standalone="no"?>
<!DOCTYPE svg PUBLIC "-//W3C//DTD SVG 1.1//EN"
  "http://www.w3.org/Graphics/SVG/1.1/DTD/svg11.dtd">
<svg height="432pt" version="1.1" viewBox="0 0 720 432" width="720pt" xmlns="http://www.w3.org/2000/svg" xmlns:xlink="http://www.w3.org/1999/xlink">
 <metadata>
  <rdf:RDF xmlns:cc="http://creativecommons.org/ns#" xmlns:dc="http://purl.org/dc/elements/1.1/" xmlns:rdf="http://www.w3.org/1999/02/22-rdf-syntax-ns#">
   <cc:Work>
    <dc:type rdf:resource="http://purl.org/dc/dcmitype/StillImage"/>
    <dc:date>2021-09-06T15:47:51.644593</dc:date>
    <dc:format>image/svg+xml</dc:format>
    <dc:creator>
     <cc:Agent>
      <dc:title>Matplotlib v3.4.2, https://matplotlib.org/</dc:title>
     </cc:Agent>
    </dc:creator>
   </cc:Work>
  </rdf:RDF>
 </metadata>
 <defs>
  <style type="text/css">*{stroke-linecap:butt;stroke-linejoin:round;}</style>
 </defs>
 <g id="figure_1">
  <g id="patch_1">
   <path d="M 0 432 
L 720 432 
L 720 0 
L 0 0 
z
" style="fill:#ffffff;"/>
  </g>
  <g id="axes_1">
   <g id="patch_2">
    <path d="M 90 384.48 
L 648 384.48 
L 648 51.84 
L 90 51.84 
z
" style="fill:#ffffff;"/>
   </g>
   <g id="LineCollection_1">
    <path clip-path="url(#p2404b72f4c)" d="M 136.5 149.18334 
L 136.5 223.938279 
" style="fill:none;stroke:#696969;"/>
    <path clip-path="url(#p2404b72f4c)" d="M 137.60391 122.576969 
L 137.60391 176.228582 
" style="fill:none;stroke:#696969;"/>
    <path clip-path="url(#p2404b72f4c)" d="M 140.87379 169.175541 
L 140.87379 217.461993 
" style="fill:none;stroke:#696969;"/>
    <path clip-path="url(#p2404b72f4c)" d="M 146.311035 179.577516 
L 146.311035 269.354906 
" style="fill:none;stroke:#696969;"/>
    <path clip-path="url(#p2404b72f4c)" d="M 147.435405 192.832147 
L 147.435405 228.242211 
" style="fill:none;stroke:#696969;"/>
    <path clip-path="url(#p2404b72f4c)" d="M 149.52651 229.392502 
L 149.52651 302.358695 
" style="fill:none;stroke:#696969;"/>
    <path clip-path="url(#p2404b72f4c)" d="M 155.65893 171.311948 
L 155.65893 255.365784 
" style="fill:none;stroke:#696969;"/>
    <path clip-path="url(#p2404b72f4c)" d="M 157.989975 162.454067 
L 157.989975 216.821392 
" style="fill:none;stroke:#696969;"/>
    <path clip-path="url(#p2404b72f4c)" d="M 168.431085 180.281961 
L 168.431085 297.242477 
" style="fill:none;stroke:#696969;"/>
    <path clip-path="url(#p2404b72f4c)" d="M 170.08602 199.9603 
L 170.08602 283.656816 
" style="fill:none;stroke:#696969;"/>
    <path clip-path="url(#p2404b72f4c)" d="M 179.501805 242.503346 
L 179.501805 311.177411 
" style="fill:none;stroke:#696969;"/>
    <path clip-path="url(#p2404b72f4c)" d="M 200.873205 224.944783 
L 200.873205 303.276138 
" style="fill:none;stroke:#696969;"/>
    <path clip-path="url(#p2404b72f4c)" d="M 201.92457 221.709591 
L 201.92457 258.192687 
" style="fill:none;stroke:#696969;"/>
    <path clip-path="url(#p2404b72f4c)" d="M 207.663135 191.458665 
L 207.663135 264.424859 
" style="fill:none;stroke:#696969;"/>
    <path clip-path="url(#p2404b72f4c)" d="M 214.968285 226.639637 
L 214.968285 332.869831 
" style="fill:none;stroke:#696969;"/>
    <path clip-path="url(#p2404b72f4c)" d="M 217.276545 200.838577 
L 217.276545 273.80477 
" style="fill:none;stroke:#696969;"/>
    <path clip-path="url(#p2404b72f4c)" d="M 217.53648 232.144829 
L 217.53648 294.3807 
" style="fill:none;stroke:#696969;"/>
    <path clip-path="url(#p2404b72f4c)" d="M 228.03246 191.465103 
L 228.03246 264.431297 
" style="fill:none;stroke:#696969;"/>
    <path clip-path="url(#p2404b72f4c)" d="M 228.52443 187.134345 
L 228.52443 221.114058 
" style="fill:none;stroke:#696969;"/>
    <path clip-path="url(#p2404b72f4c)" d="M 234.112335 190.110937 
L 234.112335 248.411998 
" style="fill:none;stroke:#696969;"/>
    <path clip-path="url(#p2404b72f4c)" d="M 236.310855 210.582246 
L 236.310855 283.54844 
" style="fill:none;stroke:#696969;"/>
    <path clip-path="url(#p2404b72f4c)" d="M 242.103825 219.68156 
L 242.103825 276.552269 
" style="fill:none;stroke:#696969;"/>
    <path clip-path="url(#p2404b72f4c)" d="M 248.897475 158.169449 
L 248.897475 191.076129 
" style="fill:none;stroke:#696969;"/>
    <path clip-path="url(#p2404b72f4c)" d="M 251.068095 173.574973 
L 251.068095 228.299618 
" style="fill:none;stroke:#696969;"/>
    <path clip-path="url(#p2404b72f4c)" d="M 262.915365 191.763406 
L 262.915365 264.7296 
" style="fill:none;stroke:#696969;"/>
    <path clip-path="url(#p2404b72f4c)" d="M 265.882065 204.343637 
L 265.882065 256.922217 
" style="fill:none;stroke:#696969;"/>
    <path clip-path="url(#p2404b72f4c)" d="M 269.952675 174.105588 
L 269.952675 217.026878 
" style="fill:none;stroke:#696969;"/>
    <path clip-path="url(#p2404b72f4c)" d="M 279.91158 189.129649 
L 279.91158 267.461004 
" style="fill:none;stroke:#696969;"/>
    <path clip-path="url(#p2404b72f4c)" d="M 286.262085 194.135344 
L 286.262085 244.92518 
" style="fill:none;stroke:#696969;"/>
    <path clip-path="url(#p2404b72f4c)" d="M 300.29067 144.442147 
L 300.29067 209.897115 
" style="fill:none;stroke:#696969;"/>
    <path clip-path="url(#p2404b72f4c)" d="M 313.34229 163.471838 
L 313.34229 211.75829 
" style="fill:none;stroke:#696969;"/>
    <path clip-path="url(#p2404b72f4c)" d="M 314.74938 168.163135 
L 314.74938 226.106877 
" style="fill:none;stroke:#696969;"/>
    <path clip-path="url(#p2404b72f4c)" d="M 326.35392 203.394003 
L 326.35392 253.826519 
" style="fill:none;stroke:#696969;"/>
    <path clip-path="url(#p2404b72f4c)" d="M 338.71176 150.352409 
L 338.71176 206.150086 
" style="fill:none;stroke:#696969;"/>
    <path clip-path="url(#p2404b72f4c)" d="M 346.744635 186.210465 
L 346.744635 237.0003 
" style="fill:none;stroke:#696969;"/>
    <path clip-path="url(#p2404b72f4c)" d="M 349.09986 113.469608 
L 349.09986 219.699801 
" style="fill:none;stroke:#696969;"/>
    <path clip-path="url(#p2404b72f4c)" d="M 354.356685 84.287422 
L 354.356685 303.722519 
" style="fill:none;stroke:#696969;"/>
    <path clip-path="url(#p2404b72f4c)" d="M 358.515645 182.005251 
L 358.515645 238.518641 
" style="fill:none;stroke:#696969;"/>
    <path clip-path="url(#p2404b72f4c)" d="M 368.23275 153.484054 
L 368.23275 347.702892 
" style="fill:none;stroke:#696969;"/>
    <path clip-path="url(#p2404b72f4c)" d="M 371.34081 171.787838 
L 371.34081 244.754031 
" style="fill:none;stroke:#696969;"/>
    <path clip-path="url(#p2404b72f4c)" d="M 372.793935 186.006588 
L 372.793935 283.652524 
" style="fill:none;stroke:#696969;"/>
    <path clip-path="url(#p2404b72f4c)" d="M 378.891945 212.774451 
L 378.891945 271.075513 
" style="fill:none;stroke:#696969;"/>
    <path clip-path="url(#p2404b72f4c)" d="M 380.983515 222.366286 
L 380.983515 283.529125 
" style="fill:none;stroke:#696969;"/>
    <path clip-path="url(#p2404b72f4c)" d="M 392.477385 220.529255 
L 392.477385 278.472997 
" style="fill:none;stroke:#696969;"/>
    <path clip-path="url(#p2404b72f4c)" d="M 393.72312 244.570006 
L 393.72312 322.901361 
" style="fill:none;stroke:#696969;"/>
    <path clip-path="url(#p2404b72f4c)" d="M 429.010575 200.752734 
L 429.010575 290.887444 
" style="fill:none;stroke:#696969;"/>
    <path clip-path="url(#p2404b72f4c)" d="M 438.768135 210.063435 
L 438.768135 316.293629 
" style="fill:none;stroke:#696969;"/>
    <path clip-path="url(#p2404b72f4c)" d="M 448.66566 231.914127 
L 448.66566 287.711805 
" style="fill:none;stroke:#696969;"/>
    <path clip-path="url(#p2404b72f4c)" d="M 460.099545 257.145945 
L 460.099545 330.112138 
" style="fill:none;stroke:#696969;"/>
    <path clip-path="url(#p2404b72f4c)" d="M 462.535215 218.017287 
L 462.535215 287.048671 
" style="fill:none;stroke:#696969;"/>
    <path clip-path="url(#p2404b72f4c)" d="M 469.03917 236.572161 
L 469.03917 292.369838 
" style="fill:none;stroke:#696969;"/>
    <path clip-path="url(#p2404b72f4c)" d="M 476.120655 261.191276 
L 476.120655 326.646244 
" style="fill:none;stroke:#696969;"/>
    <path clip-path="url(#p2404b72f4c)" d="M 479.90436 188.982643 
L 479.90436 271.248807 
" style="fill:none;stroke:#696969;"/>
    <path clip-path="url(#p2404b72f4c)" d="M 482.618565 189.960712 
L 482.618565 240.393228 
" style="fill:none;stroke:#696969;"/>
    <path clip-path="url(#p2404b72f4c)" d="M 490.892775 148.17469 
L 490.892775 218.994819 
" style="fill:none;stroke:#696969;"/>
    <path clip-path="url(#p2404b72f4c)" d="M 493.49817 158.986563 
L 493.49817 237.317918 
" style="fill:none;stroke:#696969;"/>
    <path clip-path="url(#p2404b72f4c)" d="M 496.308165 159.629309 
L 496.308165 206.842729 
" style="fill:none;stroke:#696969;"/>
    <path clip-path="url(#p2404b72f4c)" d="M 516.107865 183.782193 
L 516.107865 227.419195 
" style="fill:none;stroke:#696969;"/>
    <path clip-path="url(#p2404b72f4c)" d="M 519.27312 154.674046 
L 519.27312 198.668369 
" style="fill:none;stroke:#696969;"/>
    <path clip-path="url(#p2404b72f4c)" d="M 527.92956 169.803265 
L 527.92956 259.937974 
" style="fill:none;stroke:#696969;"/>
    <path clip-path="url(#p2404b72f4c)" d="M 536.25306 145.322034 
L 536.25306 188.243324 
" style="fill:none;stroke:#696969;"/>
    <path clip-path="url(#p2404b72f4c)" d="M 536.48091 178.796348 
L 536.48091 217.06819 
" style="fill:none;stroke:#696969;"/>
    <path clip-path="url(#p2404b72f4c)" d="M 541.51593 123.91504 
L 541.51593 207.611556 
" style="fill:none;stroke:#696969;"/>
    <path clip-path="url(#p2404b72f4c)" d="M 541.827945 65.363962 
L 541.827945 182.324478 
" style="fill:none;stroke:#696969;"/>
    <path clip-path="url(#p2404b72f4c)" d="M 546.330075 172.270702 
L 546.330075 245.236896 
" style="fill:none;stroke:#696969;"/>
    <path clip-path="url(#p2404b72f4c)" d="M 549.83478 125.716125 
L 549.83478 166.491351 
" style="fill:none;stroke:#696969;"/>
    <path clip-path="url(#p2404b72f4c)" d="M 556.86279 179.353788 
L 556.86279 212.617788 
" style="fill:none;stroke:#696969;"/>
    <path clip-path="url(#p2404b72f4c)" d="M 562.409775 102.741968 
L 562.409775 167.123903 
" style="fill:none;stroke:#696969;"/>
    <path clip-path="url(#p2404b72f4c)" d="M 563.318385 168.44266 
L 563.318385 239.262789 
" style="fill:none;stroke:#696969;"/>
    <path clip-path="url(#p2404b72f4c)" d="M 572.49702 156.751973 
L 572.49702 187.869909 
" style="fill:none;stroke:#696969;"/>
    <path clip-path="url(#p2404b72f4c)" d="M 579.050265 145.018366 
L 579.050265 182.574495 
" style="fill:none;stroke:#696969;"/>
    <path clip-path="url(#p2404b72f4c)" d="M 582.216915 122.578579 
L 582.216915 183.025705 
" style="fill:none;stroke:#696969;"/>
    <path clip-path="url(#p2404b72f4c)" d="M 592.29486 202.186842 
L 592.29486 239.742971 
" style="fill:none;stroke:#696969;"/>
    <path clip-path="url(#p2404b72f4c)" d="M 598.854615 189.726791 
L 598.854615 227.28292 
" style="fill:none;stroke:#696969;"/>
   </g>
   <g id="line2d_1">
    <defs>
     <path d="M 2 0 
L -2 -0 
" id="mf35c43b698" style="stroke:#696969;"/>
    </defs>
    <g clip-path="url(#p2404b72f4c)">
     <use style="fill:#696969;stroke:#696969;" x="136.5" xlink:href="#mf35c43b698" y="149.18334"/>
     <use style="fill:#696969;stroke:#696969;" x="137.60391" xlink:href="#mf35c43b698" y="122.576969"/>
     <use style="fill:#696969;stroke:#696969;" x="140.87379" xlink:href="#mf35c43b698" y="169.175541"/>
     <use style="fill:#696969;stroke:#696969;" x="146.311035" xlink:href="#mf35c43b698" y="179.577516"/>
     <use style="fill:#696969;stroke:#696969;" x="147.435405" xlink:href="#mf35c43b698" y="192.832147"/>
     <use style="fill:#696969;stroke:#696969;" x="149.52651" xlink:href="#mf35c43b698" y="229.392502"/>
     <use style="fill:#696969;stroke:#696969;" x="155.65893" xlink:href="#mf35c43b698" y="171.311948"/>
     <use style="fill:#696969;stroke:#696969;" x="157.989975" xlink:href="#mf35c43b698" y="162.454067"/>
     <use style="fill:#696969;stroke:#696969;" x="168.431085" xlink:href="#mf35c43b698" y="180.281961"/>
     <use style="fill:#696969;stroke:#696969;" x="170.08602" xlink:href="#mf35c43b698" y="199.9603"/>
     <use style="fill:#696969;stroke:#696969;" x="179.501805" xlink:href="#mf35c43b698" y="242.503346"/>
     <use style="fill:#696969;stroke:#696969;" x="200.873205" xlink:href="#mf35c43b698" y="224.944783"/>
     <use style="fill:#696969;stroke:#696969;" x="201.92457" xlink:href="#mf35c43b698" y="221.709591"/>
     <use style="fill:#696969;stroke:#696969;" x="207.663135" xlink:href="#mf35c43b698" y="191.458665"/>
     <use style="fill:#696969;stroke:#696969;" x="214.968285" xlink:href="#mf35c43b698" y="226.639637"/>
     <use style="fill:#696969;stroke:#696969;" x="217.276545" xlink:href="#mf35c43b698" y="200.838577"/>
     <use style="fill:#696969;stroke:#696969;" x="217.53648" xlink:href="#mf35c43b698" y="232.144829"/>
     <use style="fill:#696969;stroke:#696969;" x="228.03246" xlink:href="#mf35c43b698" y="191.465103"/>
     <use style="fill:#696969;stroke:#696969;" x="228.52443" xlink:href="#mf35c43b698" y="187.134345"/>
     <use style="fill:#696969;stroke:#696969;" x="234.112335" xlink:href="#mf35c43b698" y="190.110937"/>
     <use style="fill:#696969;stroke:#696969;" x="236.310855" xlink:href="#mf35c43b698" y="210.582246"/>
     <use style="fill:#696969;stroke:#696969;" x="242.103825" xlink:href="#mf35c43b698" y="219.68156"/>
     <use style="fill:#696969;stroke:#696969;" x="248.897475" xlink:href="#mf35c43b698" y="158.169449"/>
     <use style="fill:#696969;stroke:#696969;" x="251.068095" xlink:href="#mf35c43b698" y="173.574973"/>
     <use style="fill:#696969;stroke:#696969;" x="262.915365" xlink:href="#mf35c43b698" y="191.763406"/>
     <use style="fill:#696969;stroke:#696969;" x="265.882065" xlink:href="#mf35c43b698" y="204.343637"/>
     <use style="fill:#696969;stroke:#696969;" x="269.952675" xlink:href="#mf35c43b698" y="174.105588"/>
     <use style="fill:#696969;stroke:#696969;" x="279.91158" xlink:href="#mf35c43b698" y="189.129649"/>
     <use style="fill:#696969;stroke:#696969;" x="286.262085" xlink:href="#mf35c43b698" y="194.135344"/>
     <use style="fill:#696969;stroke:#696969;" x="300.29067" xlink:href="#mf35c43b698" y="144.442147"/>
     <use style="fill:#696969;stroke:#696969;" x="313.34229" xlink:href="#mf35c43b698" y="163.471838"/>
     <use style="fill:#696969;stroke:#696969;" x="314.74938" xlink:href="#mf35c43b698" y="168.163135"/>
     <use style="fill:#696969;stroke:#696969;" x="326.35392" xlink:href="#mf35c43b698" y="203.394003"/>
     <use style="fill:#696969;stroke:#696969;" x="338.71176" xlink:href="#mf35c43b698" y="150.352409"/>
     <use style="fill:#696969;stroke:#696969;" x="346.744635" xlink:href="#mf35c43b698" y="186.210465"/>
     <use style="fill:#696969;stroke:#696969;" x="349.09986" xlink:href="#mf35c43b698" y="113.469608"/>
     <use style="fill:#696969;stroke:#696969;" x="354.356685" xlink:href="#mf35c43b698" y="84.287422"/>
     <use style="fill:#696969;stroke:#696969;" x="358.515645" xlink:href="#mf35c43b698" y="182.005251"/>
     <use style="fill:#696969;stroke:#696969;" x="368.23275" xlink:href="#mf35c43b698" y="153.484054"/>
     <use style="fill:#696969;stroke:#696969;" x="371.34081" xlink:href="#mf35c43b698" y="171.787838"/>
     <use style="fill:#696969;stroke:#696969;" x="372.793935" xlink:href="#mf35c43b698" y="186.006588"/>
     <use style="fill:#696969;stroke:#696969;" x="378.891945" xlink:href="#mf35c43b698" y="212.774451"/>
     <use style="fill:#696969;stroke:#696969;" x="380.983515" xlink:href="#mf35c43b698" y="222.366286"/>
     <use style="fill:#696969;stroke:#696969;" x="392.477385" xlink:href="#mf35c43b698" y="220.529255"/>
     <use style="fill:#696969;stroke:#696969;" x="393.72312" xlink:href="#mf35c43b698" y="244.570006"/>
     <use style="fill:#696969;stroke:#696969;" x="429.010575" xlink:href="#mf35c43b698" y="200.752734"/>
     <use style="fill:#696969;stroke:#696969;" x="438.768135" xlink:href="#mf35c43b698" y="210.063435"/>
     <use style="fill:#696969;stroke:#696969;" x="448.66566" xlink:href="#mf35c43b698" y="231.914127"/>
     <use style="fill:#696969;stroke:#696969;" x="460.099545" xlink:href="#mf35c43b698" y="257.145945"/>
     <use style="fill:#696969;stroke:#696969;" x="462.535215" xlink:href="#mf35c43b698" y="218.017287"/>
     <use style="fill:#696969;stroke:#696969;" x="469.03917" xlink:href="#mf35c43b698" y="236.572161"/>
     <use style="fill:#696969;stroke:#696969;" x="476.120655" xlink:href="#mf35c43b698" y="261.191276"/>
     <use style="fill:#696969;stroke:#696969;" x="479.90436" xlink:href="#mf35c43b698" y="188.982643"/>
     <use style="fill:#696969;stroke:#696969;" x="482.618565" xlink:href="#mf35c43b698" y="189.960712"/>
     <use style="fill:#696969;stroke:#696969;" x="490.892775" xlink:href="#mf35c43b698" y="148.17469"/>
     <use style="fill:#696969;stroke:#696969;" x="493.49817" xlink:href="#mf35c43b698" y="158.986563"/>
     <use style="fill:#696969;stroke:#696969;" x="496.308165" xlink:href="#mf35c43b698" y="159.629309"/>
     <use style="fill:#696969;stroke:#696969;" x="516.107865" xlink:href="#mf35c43b698" y="183.782193"/>
     <use style="fill:#696969;stroke:#696969;" x="519.27312" xlink:href="#mf35c43b698" y="154.674046"/>
     <use style="fill:#696969;stroke:#696969;" x="527.92956" xlink:href="#mf35c43b698" y="169.803265"/>
     <use style="fill:#696969;stroke:#696969;" x="536.25306" xlink:href="#mf35c43b698" y="145.322034"/>
     <use style="fill:#696969;stroke:#696969;" x="536.48091" xlink:href="#mf35c43b698" y="178.796348"/>
     <use style="fill:#696969;stroke:#696969;" x="541.51593" xlink:href="#mf35c43b698" y="123.91504"/>
     <use style="fill:#696969;stroke:#696969;" x="541.827945" xlink:href="#mf35c43b698" y="65.363962"/>
     <use style="fill:#696969;stroke:#696969;" x="546.330075" xlink:href="#mf35c43b698" y="172.270702"/>
     <use style="fill:#696969;stroke:#696969;" x="549.83478" xlink:href="#mf35c43b698" y="125.716125"/>
     <use style="fill:#696969;stroke:#696969;" x="556.86279" xlink:href="#mf35c43b698" y="179.353788"/>
     <use style="fill:#696969;stroke:#696969;" x="562.409775" xlink:href="#mf35c43b698" y="102.741968"/>
     <use style="fill:#696969;stroke:#696969;" x="563.318385" xlink:href="#mf35c43b698" y="168.44266"/>
     <use style="fill:#696969;stroke:#696969;" x="572.49702" xlink:href="#mf35c43b698" y="156.751973"/>
     <use style="fill:#696969;stroke:#696969;" x="579.050265" xlink:href="#mf35c43b698" y="145.018366"/>
     <use style="fill:#696969;stroke:#696969;" x="582.216915" xlink:href="#mf35c43b698" y="122.578579"/>
     <use style="fill:#696969;stroke:#696969;" x="592.29486" xlink:href="#mf35c43b698" y="202.186842"/>
     <use style="fill:#696969;stroke:#696969;" x="598.854615" xlink:href="#mf35c43b698" y="189.726791"/>
    </g>
   </g>
   <g id="line2d_2">
    <g clip-path="url(#p2404b72f4c)">
     <use style="fill:#696969;stroke:#696969;" x="136.5" xlink:href="#mf35c43b698" y="223.938279"/>
     <use style="fill:#696969;stroke:#696969;" x="137.60391" xlink:href="#mf35c43b698" y="176.228582"/>
     <use style="fill:#696969;stroke:#696969;" x="140.87379" xlink:href="#mf35c43b698" y="217.461993"/>
     <use style="fill:#696969;stroke:#696969;" x="146.311035" xlink:href="#mf35c43b698" y="269.354906"/>
     <use style="fill:#696969;stroke:#696969;" x="147.435405" xlink:href="#mf35c43b698" y="228.242211"/>
     <use style="fill:#696969;stroke:#696969;" x="149.52651" xlink:href="#mf35c43b698" y="302.358695"/>
     <use style="fill:#696969;stroke:#696969;" x="155.65893" xlink:href="#mf35c43b698" y="255.365784"/>
     <use style="fill:#696969;stroke:#696969;" x="157.989975" xlink:href="#mf35c43b698" y="216.821392"/>
     <use style="fill:#696969;stroke:#696969;" x="168.431085" xlink:href="#mf35c43b698" y="297.242477"/>
     <use style="fill:#696969;stroke:#696969;" x="170.08602" xlink:href="#mf35c43b698" y="283.656816"/>
     <use style="fill:#696969;stroke:#696969;" x="179.501805" xlink:href="#mf35c43b698" y="311.177411"/>
     <use style="fill:#696969;stroke:#696969;" x="200.873205" xlink:href="#mf35c43b698" y="303.276138"/>
     <use style="fill:#696969;stroke:#696969;" x="201.92457" xlink:href="#mf35c43b698" y="258.192687"/>
     <use style="fill:#696969;stroke:#696969;" x="207.663135" xlink:href="#mf35c43b698" y="264.424859"/>
     <use style="fill:#696969;stroke:#696969;" x="214.968285" xlink:href="#mf35c43b698" y="332.869831"/>
     <use style="fill:#696969;stroke:#696969;" x="217.276545" xlink:href="#mf35c43b698" y="273.80477"/>
     <use style="fill:#696969;stroke:#696969;" x="217.53648" xlink:href="#mf35c43b698" y="294.3807"/>
     <use style="fill:#696969;stroke:#696969;" x="228.03246" xlink:href="#mf35c43b698" y="264.431297"/>
     <use style="fill:#696969;stroke:#696969;" x="228.52443" xlink:href="#mf35c43b698" y="221.114058"/>
     <use style="fill:#696969;stroke:#696969;" x="234.112335" xlink:href="#mf35c43b698" y="248.411998"/>
     <use style="fill:#696969;stroke:#696969;" x="236.310855" xlink:href="#mf35c43b698" y="283.54844"/>
     <use style="fill:#696969;stroke:#696969;" x="242.103825" xlink:href="#mf35c43b698" y="276.552269"/>
     <use style="fill:#696969;stroke:#696969;" x="248.897475" xlink:href="#mf35c43b698" y="191.076129"/>
     <use style="fill:#696969;stroke:#696969;" x="251.068095" xlink:href="#mf35c43b698" y="228.299618"/>
     <use style="fill:#696969;stroke:#696969;" x="262.915365" xlink:href="#mf35c43b698" y="264.7296"/>
     <use style="fill:#696969;stroke:#696969;" x="265.882065" xlink:href="#mf35c43b698" y="256.922217"/>
     <use style="fill:#696969;stroke:#696969;" x="269.952675" xlink:href="#mf35c43b698" y="217.026878"/>
     <use style="fill:#696969;stroke:#696969;" x="279.91158" xlink:href="#mf35c43b698" y="267.461004"/>
     <use style="fill:#696969;stroke:#696969;" x="286.262085" xlink:href="#mf35c43b698" y="244.92518"/>
     <use style="fill:#696969;stroke:#696969;" x="300.29067" xlink:href="#mf35c43b698" y="209.897115"/>
     <use style="fill:#696969;stroke:#696969;" x="313.34229" xlink:href="#mf35c43b698" y="211.75829"/>
     <use style="fill:#696969;stroke:#696969;" x="314.74938" xlink:href="#mf35c43b698" y="226.106877"/>
     <use style="fill:#696969;stroke:#696969;" x="326.35392" xlink:href="#mf35c43b698" y="253.826519"/>
     <use style="fill:#696969;stroke:#696969;" x="338.71176" xlink:href="#mf35c43b698" y="206.150086"/>
     <use style="fill:#696969;stroke:#696969;" x="346.744635" xlink:href="#mf35c43b698" y="237.0003"/>
     <use style="fill:#696969;stroke:#696969;" x="349.09986" xlink:href="#mf35c43b698" y="219.699801"/>
     <use style="fill:#696969;stroke:#696969;" x="354.356685" xlink:href="#mf35c43b698" y="303.722519"/>
     <use style="fill:#696969;stroke:#696969;" x="358.515645" xlink:href="#mf35c43b698" y="238.518641"/>
     <use style="fill:#696969;stroke:#696969;" x="368.23275" xlink:href="#mf35c43b698" y="347.702892"/>
     <use style="fill:#696969;stroke:#696969;" x="371.34081" xlink:href="#mf35c43b698" y="244.754031"/>
     <use style="fill:#696969;stroke:#696969;" x="372.793935" xlink:href="#mf35c43b698" y="283.652524"/>
     <use style="fill:#696969;stroke:#696969;" x="378.891945" xlink:href="#mf35c43b698" y="271.075513"/>
     <use style="fill:#696969;stroke:#696969;" x="380.983515" xlink:href="#mf35c43b698" y="283.529125"/>
     <use style="fill:#696969;stroke:#696969;" x="392.477385" xlink:href="#mf35c43b698" y="278.472997"/>
     <use style="fill:#696969;stroke:#696969;" x="393.72312" xlink:href="#mf35c43b698" y="322.901361"/>
     <use style="fill:#696969;stroke:#696969;" x="429.010575" xlink:href="#mf35c43b698" y="290.887444"/>
     <use style="fill:#696969;stroke:#696969;" x="438.768135" xlink:href="#mf35c43b698" y="316.293629"/>
     <use style="fill:#696969;stroke:#696969;" x="448.66566" xlink:href="#mf35c43b698" y="287.711805"/>
     <use style="fill:#696969;stroke:#696969;" x="460.099545" xlink:href="#mf35c43b698" y="330.112138"/>
     <use style="fill:#696969;stroke:#696969;" x="462.535215" xlink:href="#mf35c43b698" y="287.048671"/>
     <use style="fill:#696969;stroke:#696969;" x="469.03917" xlink:href="#mf35c43b698" y="292.369838"/>
     <use style="fill:#696969;stroke:#696969;" x="476.120655" xlink:href="#mf35c43b698" y="326.646244"/>
     <use style="fill:#696969;stroke:#696969;" x="479.90436" xlink:href="#mf35c43b698" y="271.248807"/>
     <use style="fill:#696969;stroke:#696969;" x="482.618565" xlink:href="#mf35c43b698" y="240.393228"/>
     <use style="fill:#696969;stroke:#696969;" x="490.892775" xlink:href="#mf35c43b698" y="218.994819"/>
     <use style="fill:#696969;stroke:#696969;" x="493.49817" xlink:href="#mf35c43b698" y="237.317918"/>
     <use style="fill:#696969;stroke:#696969;" x="496.308165" xlink:href="#mf35c43b698" y="206.842729"/>
     <use style="fill:#696969;stroke:#696969;" x="516.107865" xlink:href="#mf35c43b698" y="227.419195"/>
     <use style="fill:#696969;stroke:#696969;" x="519.27312" xlink:href="#mf35c43b698" y="198.668369"/>
     <use style="fill:#696969;stroke:#696969;" x="527.92956" xlink:href="#mf35c43b698" y="259.937974"/>
     <use style="fill:#696969;stroke:#696969;" x="536.25306" xlink:href="#mf35c43b698" y="188.243324"/>
     <use style="fill:#696969;stroke:#696969;" x="536.48091" xlink:href="#mf35c43b698" y="217.06819"/>
     <use style="fill:#696969;stroke:#696969;" x="541.51593" xlink:href="#mf35c43b698" y="207.611556"/>
     <use style="fill:#696969;stroke:#696969;" x="541.827945" xlink:href="#mf35c43b698" y="182.324478"/>
     <use style="fill:#696969;stroke:#696969;" x="546.330075" xlink:href="#mf35c43b698" y="245.236896"/>
     <use style="fill:#696969;stroke:#696969;" x="549.83478" xlink:href="#mf35c43b698" y="166.491351"/>
     <use style="fill:#696969;stroke:#696969;" x="556.86279" xlink:href="#mf35c43b698" y="212.617788"/>
     <use style="fill:#696969;stroke:#696969;" x="562.409775" xlink:href="#mf35c43b698" y="167.123903"/>
     <use style="fill:#696969;stroke:#696969;" x="563.318385" xlink:href="#mf35c43b698" y="239.262789"/>
     <use style="fill:#696969;stroke:#696969;" x="572.49702" xlink:href="#mf35c43b698" y="187.869909"/>
     <use style="fill:#696969;stroke:#696969;" x="579.050265" xlink:href="#mf35c43b698" y="182.574495"/>
     <use style="fill:#696969;stroke:#696969;" x="582.216915" xlink:href="#mf35c43b698" y="183.025705"/>
     <use style="fill:#696969;stroke:#696969;" x="592.29486" xlink:href="#mf35c43b698" y="239.742971"/>
     <use style="fill:#696969;stroke:#696969;" x="598.854615" xlink:href="#mf35c43b698" y="227.28292"/>
    </g>
   </g>
   <g id="line2d_3">
    <defs>
     <path d="M 0 3 
C 0.795609 3 1.55874 2.683901 2.12132 2.12132 
C 2.683901 1.55874 3 0.795609 3 0 
C 3 -0.795609 2.683901 -1.55874 2.12132 -2.12132 
C 1.55874 -2.683901 0.795609 -3 0 -3 
C -0.795609 -3 -1.55874 -2.683901 -2.12132 -2.12132 
C -2.683901 -1.55874 -3 -0.795609 -3 0 
C -3 0.795609 -2.683901 1.55874 -2.12132 2.12132 
C -1.55874 2.683901 -0.795609 3 0 3 
z
" id="mb310d1da6b" style="stroke:#1f77b4;"/>
    </defs>
    <g clip-path="url(#p2404b72f4c)">
     <use style="fill:#1f77b4;stroke:#1f77b4;" x="136.5" xlink:href="#mb310d1da6b" y="186.56081"/>
     <use style="fill:#1f77b4;stroke:#1f77b4;" x="137.60391" xlink:href="#mb310d1da6b" y="149.402775"/>
     <use style="fill:#1f77b4;stroke:#1f77b4;" x="140.87379" xlink:href="#mb310d1da6b" y="193.318767"/>
     <use style="fill:#1f77b4;stroke:#1f77b4;" x="146.311035" xlink:href="#mb310d1da6b" y="224.466211"/>
     <use style="fill:#1f77b4;stroke:#1f77b4;" x="147.435405" xlink:href="#mb310d1da6b" y="210.537179"/>
     <use style="fill:#1f77b4;stroke:#1f77b4;" x="149.52651" xlink:href="#mb310d1da6b" y="265.875598"/>
     <use style="fill:#1f77b4;stroke:#1f77b4;" x="155.65893" xlink:href="#mb310d1da6b" y="213.338866"/>
     <use style="fill:#1f77b4;stroke:#1f77b4;" x="157.989975" xlink:href="#mb310d1da6b" y="189.63773"/>
     <use style="fill:#1f77b4;stroke:#1f77b4;" x="168.431085" xlink:href="#mb310d1da6b" y="238.762219"/>
     <use style="fill:#1f77b4;stroke:#1f77b4;" x="170.08602" xlink:href="#mb310d1da6b" y="241.808558"/>
     <use style="fill:#1f77b4;stroke:#1f77b4;" x="179.501805" xlink:href="#mb310d1da6b" y="276.840379"/>
     <use style="fill:#1f77b4;stroke:#1f77b4;" x="200.873205" xlink:href="#mb310d1da6b" y="264.11046"/>
     <use style="fill:#1f77b4;stroke:#1f77b4;" x="201.92457" xlink:href="#mb310d1da6b" y="239.951139"/>
     <use style="fill:#1f77b4;stroke:#1f77b4;" x="207.663135" xlink:href="#mb310d1da6b" y="227.941762"/>
     <use style="fill:#1f77b4;stroke:#1f77b4;" x="214.968285" xlink:href="#mb310d1da6b" y="279.754734"/>
     <use style="fill:#1f77b4;stroke:#1f77b4;" x="217.276545" xlink:href="#mb310d1da6b" y="237.321674"/>
     <use style="fill:#1f77b4;stroke:#1f77b4;" x="217.53648" xlink:href="#mb310d1da6b" y="263.262765"/>
     <use style="fill:#1f77b4;stroke:#1f77b4;" x="228.03246" xlink:href="#mb310d1da6b" y="227.9482"/>
     <use style="fill:#1f77b4;stroke:#1f77b4;" x="228.52443" xlink:href="#mb310d1da6b" y="204.124202"/>
     <use style="fill:#1f77b4;stroke:#1f77b4;" x="234.112335" xlink:href="#mb310d1da6b" y="219.261468"/>
     <use style="fill:#1f77b4;stroke:#1f77b4;" x="236.310855" xlink:href="#mb310d1da6b" y="247.065343"/>
     <use style="fill:#1f77b4;stroke:#1f77b4;" x="242.103825" xlink:href="#mb310d1da6b" y="248.116915"/>
     <use style="fill:#1f77b4;stroke:#1f77b4;" x="248.897475" xlink:href="#mb310d1da6b" y="174.622789"/>
     <use style="fill:#1f77b4;stroke:#1f77b4;" x="251.068095" xlink:href="#mb310d1da6b" y="200.937296"/>
     <use style="fill:#1f77b4;stroke:#1f77b4;" x="262.915365" xlink:href="#mb310d1da6b" y="228.246503"/>
     <use style="fill:#1f77b4;stroke:#1f77b4;" x="265.882065" xlink:href="#mb310d1da6b" y="230.632927"/>
     <use style="fill:#1f77b4;stroke:#1f77b4;" x="269.952675" xlink:href="#mb310d1da6b" y="195.566233"/>
     <use style="fill:#1f77b4;stroke:#1f77b4;" x="279.91158" xlink:href="#mb310d1da6b" y="228.295326"/>
     <use style="fill:#1f77b4;stroke:#1f77b4;" x="286.262085" xlink:href="#mb310d1da6b" y="219.530262"/>
     <use style="fill:#1f77b4;stroke:#1f77b4;" x="300.29067" xlink:href="#mb310d1da6b" y="177.169631"/>
     <use style="fill:#1f77b4;stroke:#1f77b4;" x="313.34229" xlink:href="#mb310d1da6b" y="187.615064"/>
     <use style="fill:#1f77b4;stroke:#1f77b4;" x="314.74938" xlink:href="#mb310d1da6b" y="197.135006"/>
     <use style="fill:#1f77b4;stroke:#1f77b4;" x="326.35392" xlink:href="#mb310d1da6b" y="228.610261"/>
     <use style="fill:#1f77b4;stroke:#1f77b4;" x="338.71176" xlink:href="#mb310d1da6b" y="178.251248"/>
     <use style="fill:#1f77b4;stroke:#1f77b4;" x="346.744635" xlink:href="#mb310d1da6b" y="211.605382"/>
     <use style="fill:#1f77b4;stroke:#1f77b4;" x="349.09986" xlink:href="#mb310d1da6b" y="166.584705"/>
     <use style="fill:#1f77b4;stroke:#1f77b4;" x="354.356685" xlink:href="#mb310d1da6b" y="194.004971"/>
     <use style="fill:#1f77b4;stroke:#1f77b4;" x="358.515645" xlink:href="#mb310d1da6b" y="210.261946"/>
     <use style="fill:#1f77b4;stroke:#1f77b4;" x="368.23275" xlink:href="#mb310d1da6b" y="250.593473"/>
     <use style="fill:#1f77b4;stroke:#1f77b4;" x="371.34081" xlink:href="#mb310d1da6b" y="208.270935"/>
     <use style="fill:#1f77b4;stroke:#1f77b4;" x="372.793935" xlink:href="#mb310d1da6b" y="234.829556"/>
     <use style="fill:#1f77b4;stroke:#1f77b4;" x="378.891945" xlink:href="#mb310d1da6b" y="241.924982"/>
     <use style="fill:#1f77b4;stroke:#1f77b4;" x="380.983515" xlink:href="#mb310d1da6b" y="252.947706"/>
     <use style="fill:#1f77b4;stroke:#1f77b4;" x="392.477385" xlink:href="#mb310d1da6b" y="249.501126"/>
     <use style="fill:#1f77b4;stroke:#1f77b4;" x="393.72312" xlink:href="#mb310d1da6b" y="283.735684"/>
     <use style="fill:#1f77b4;stroke:#1f77b4;" x="429.010575" xlink:href="#mb310d1da6b" y="245.820089"/>
     <use style="fill:#1f77b4;stroke:#1f77b4;" x="438.768135" xlink:href="#mb310d1da6b" y="263.178532"/>
     <use style="fill:#1f77b4;stroke:#1f77b4;" x="448.66566" xlink:href="#mb310d1da6b" y="259.812966"/>
     <use style="fill:#1f77b4;stroke:#1f77b4;" x="460.099545" xlink:href="#mb310d1da6b" y="293.629041"/>
     <use style="fill:#1f77b4;stroke:#1f77b4;" x="462.535215" xlink:href="#mb310d1da6b" y="252.532979"/>
     <use style="fill:#1f77b4;stroke:#1f77b4;" x="469.03917" xlink:href="#mb310d1da6b" y="264.470999"/>
     <use style="fill:#1f77b4;stroke:#1f77b4;" x="476.120655" xlink:href="#mb310d1da6b" y="293.91876"/>
     <use style="fill:#1f77b4;stroke:#1f77b4;" x="479.90436" xlink:href="#mb310d1da6b" y="230.115725"/>
     <use style="fill:#1f77b4;stroke:#1f77b4;" x="482.618565" xlink:href="#mb310d1da6b" y="215.17697"/>
     <use style="fill:#1f77b4;stroke:#1f77b4;" x="490.892775" xlink:href="#mb310d1da6b" y="183.584755"/>
     <use style="fill:#1f77b4;stroke:#1f77b4;" x="493.49817" xlink:href="#mb310d1da6b" y="198.152241"/>
     <use style="fill:#1f77b4;stroke:#1f77b4;" x="496.308165" xlink:href="#mb310d1da6b" y="183.236019"/>
     <use style="fill:#1f77b4;stroke:#1f77b4;" x="516.107865" xlink:href="#mb310d1da6b" y="205.600694"/>
     <use style="fill:#1f77b4;stroke:#1f77b4;" x="519.27312" xlink:href="#mb310d1da6b" y="176.671208"/>
     <use style="fill:#1f77b4;stroke:#1f77b4;" x="527.92956" xlink:href="#mb310d1da6b" y="214.87062"/>
     <use style="fill:#1f77b4;stroke:#1f77b4;" x="536.25306" xlink:href="#mb310d1da6b" y="166.782679"/>
     <use style="fill:#1f77b4;stroke:#1f77b4;" x="536.48091" xlink:href="#mb310d1da6b" y="197.932269"/>
     <use style="fill:#1f77b4;stroke:#1f77b4;" x="541.51593" xlink:href="#mb310d1da6b" y="165.763298"/>
     <use style="fill:#1f77b4;stroke:#1f77b4;" x="541.827945" xlink:href="#mb310d1da6b" y="123.84422"/>
     <use style="fill:#1f77b4;stroke:#1f77b4;" x="546.330075" xlink:href="#mb310d1da6b" y="208.753799"/>
     <use style="fill:#1f77b4;stroke:#1f77b4;" x="549.83478" xlink:href="#mb310d1da6b" y="146.103738"/>
     <use style="fill:#1f77b4;stroke:#1f77b4;" x="556.86279" xlink:href="#mb310d1da6b" y="195.985788"/>
     <use style="fill:#1f77b4;stroke:#1f77b4;" x="562.409775" xlink:href="#mb310d1da6b" y="134.932935"/>
     <use style="fill:#1f77b4;stroke:#1f77b4;" x="563.318385" xlink:href="#mb310d1da6b" y="203.852724"/>
     <use style="fill:#1f77b4;stroke:#1f77b4;" x="572.49702" xlink:href="#mb310d1da6b" y="172.310941"/>
     <use style="fill:#1f77b4;stroke:#1f77b4;" x="579.050265" xlink:href="#mb310d1da6b" y="163.79643"/>
     <use style="fill:#1f77b4;stroke:#1f77b4;" x="582.216915" xlink:href="#mb310d1da6b" y="152.802142"/>
     <use style="fill:#1f77b4;stroke:#1f77b4;" x="592.29486" xlink:href="#mb310d1da6b" y="220.964906"/>
     <use style="fill:#1f77b4;stroke:#1f77b4;" x="598.854615" xlink:href="#mb310d1da6b" y="208.504856"/>
    </g>
   </g>
   <g id="matplotlib.axis_1">
    <g id="xtick_1">
     <g id="line2d_4">
      <path clip-path="url(#p2404b72f4c)" d="M 136.5 384.48 
L 136.5 51.84 
" style="fill:none;stroke:#808080;stroke-linecap:square;stroke-width:0.4;"/>
     </g>
     <g id="line2d_5">
      <defs>
       <path d="M 0 0 
L 0 -3.5 
" id="m6d5f09f22f" style="stroke:#000000;stroke-width:0.8;"/>
      </defs>
      <g>
       <use style="stroke:#000000;stroke-width:0.8;" x="136.5" xlink:href="#m6d5f09f22f" y="384.48"/>
      </g>
     </g>
     <g id="line2d_6">
      <defs>
       <path d="M 0 0 
L 0 3.5 
" id="m2bae6f7b4c" style="stroke:#000000;stroke-width:0.8;"/>
      </defs>
      <g>
       <use style="stroke:#000000;stroke-width:0.8;" x="136.5" xlink:href="#m2bae6f7b4c" y="51.84"/>
      </g>
     </g>
     <g id="text_1">
      <!-- $\mathdefault{0.0}$ -->
      <g transform="translate(127.151474 398.357725)scale(0.15 -0.15)">
       <defs>
        <path d="M 2688 2025 
C 2688 2416 2682 3080 2413 3591 
C 2176 4039 1798 4198 1466 4198 
C 1158 4198 768 4058 525 3597 
C 269 3118 243 2524 243 2025 
C 243 1661 250 1106 448 619 
C 723 -39 1216 -128 1466 -128 
C 1760 -128 2208 -7 2470 600 
C 2662 1042 2688 1559 2688 2025 
z
M 1466 -26 
C 1056 -26 813 325 723 812 
C 653 1188 653 1738 653 2096 
C 653 2588 653 2997 736 3387 
C 858 3929 1216 4096 1466 4096 
C 1728 4096 2067 3923 2189 3400 
C 2272 3036 2278 2607 2278 2096 
C 2278 1680 2278 1169 2202 792 
C 2067 95 1690 -26 1466 -26 
z
" id="CMR17-30" transform="scale(0.015625)"/>
        <path d="M 1178 307 
C 1178 492 1024 619 870 619 
C 685 619 557 466 557 313 
C 557 128 710 0 864 0 
C 1050 0 1178 153 1178 307 
z
" id="CMMI12-3a" transform="scale(0.015625)"/>
       </defs>
       <use transform="scale(0.996264)" xlink:href="#CMR17-30"/>
       <use transform="translate(45.690477 0)scale(0.996264)" xlink:href="#CMMI12-3a"/>
       <use transform="translate(72.787654 0)scale(0.996264)" xlink:href="#CMR17-30"/>
      </g>
     </g>
    </g>
    <g id="xtick_2">
     <g id="line2d_7">
      <path clip-path="url(#p2404b72f4c)" d="M 229.5 384.48 
L 229.5 51.84 
" style="fill:none;stroke:#808080;stroke-linecap:square;stroke-width:0.4;"/>
     </g>
     <g id="line2d_8">
      <g>
       <use style="stroke:#000000;stroke-width:0.8;" x="229.5" xlink:href="#m6d5f09f22f" y="384.48"/>
      </g>
     </g>
     <g id="line2d_9">
      <g>
       <use style="stroke:#000000;stroke-width:0.8;" x="229.5" xlink:href="#m2bae6f7b4c" y="51.84"/>
      </g>
     </g>
     <g id="text_2">
      <!-- $\mathdefault{0.2}$ -->
      <g transform="translate(220.151474 398.357725)scale(0.15 -0.15)">
       <defs>
        <path d="M 2669 989 
L 2554 989 
C 2490 536 2438 459 2413 420 
C 2381 369 1920 369 1830 369 
L 602 369 
C 832 619 1280 1072 1824 1597 
C 2214 1967 2669 2402 2669 3035 
C 2669 3790 2067 4224 1395 4224 
C 691 4224 262 3604 262 3030 
C 262 2780 448 2748 525 2748 
C 589 2748 781 2787 781 3010 
C 781 3207 614 3264 525 3264 
C 486 3264 448 3258 422 3245 
C 544 3790 915 4058 1306 4058 
C 1862 4058 2227 3617 2227 3035 
C 2227 2479 1901 2000 1536 1584 
L 262 146 
L 262 0 
L 2515 0 
L 2669 989 
z
" id="CMR17-32" transform="scale(0.015625)"/>
       </defs>
       <use transform="scale(0.996264)" xlink:href="#CMR17-30"/>
       <use transform="translate(45.690477 0)scale(0.996264)" xlink:href="#CMMI12-3a"/>
       <use transform="translate(72.787654 0)scale(0.996264)" xlink:href="#CMR17-32"/>
      </g>
     </g>
    </g>
    <g id="xtick_3">
     <g id="line2d_10">
      <path clip-path="url(#p2404b72f4c)" d="M 322.5 384.48 
L 322.5 51.84 
" style="fill:none;stroke:#808080;stroke-linecap:square;stroke-width:0.4;"/>
     </g>
     <g id="line2d_11">
      <g>
       <use style="stroke:#000000;stroke-width:0.8;" x="322.5" xlink:href="#m6d5f09f22f" y="384.48"/>
      </g>
     </g>
     <g id="line2d_12">
      <g>
       <use style="stroke:#000000;stroke-width:0.8;" x="322.5" xlink:href="#m2bae6f7b4c" y="51.84"/>
      </g>
     </g>
     <g id="text_3">
      <!-- $\mathdefault{0.4}$ -->
      <g transform="translate(313.151474 398.357725)scale(0.15 -0.15)">
       <defs>
        <path d="M 2150 4122 
C 2150 4256 2144 4256 2029 4256 
L 128 1254 
L 128 1088 
L 1779 1088 
L 1779 457 
C 1779 224 1766 160 1318 160 
L 1197 160 
L 1197 0 
C 1402 0 1747 0 1965 0 
C 2182 0 2528 0 2733 0 
L 2733 160 
L 2611 160 
C 2163 160 2150 224 2150 457 
L 2150 1088 
L 2803 1088 
L 2803 1254 
L 2150 1254 
L 2150 4122 
z
M 1798 3703 
L 1798 1254 
L 256 1254 
L 1798 3703 
z
" id="CMR17-34" transform="scale(0.015625)"/>
       </defs>
       <use transform="scale(0.996264)" xlink:href="#CMR17-30"/>
       <use transform="translate(45.690477 0)scale(0.996264)" xlink:href="#CMMI12-3a"/>
       <use transform="translate(72.787654 0)scale(0.996264)" xlink:href="#CMR17-34"/>
      </g>
     </g>
    </g>
    <g id="xtick_4">
     <g id="line2d_13">
      <path clip-path="url(#p2404b72f4c)" d="M 415.5 384.48 
L 415.5 51.84 
" style="fill:none;stroke:#808080;stroke-linecap:square;stroke-width:0.4;"/>
     </g>
     <g id="line2d_14">
      <g>
       <use style="stroke:#000000;stroke-width:0.8;" x="415.5" xlink:href="#m6d5f09f22f" y="384.48"/>
      </g>
     </g>
     <g id="line2d_15">
      <g>
       <use style="stroke:#000000;stroke-width:0.8;" x="415.5" xlink:href="#m2bae6f7b4c" y="51.84"/>
      </g>
     </g>
     <g id="text_4">
      <!-- $\mathdefault{0.6}$ -->
      <g transform="translate(406.151474 398.357725)scale(0.15 -0.15)">
       <defs>
        <path d="M 678 2176 
C 678 3690 1395 4032 1811 4032 
C 1946 4032 2272 4009 2400 3776 
C 2298 3776 2106 3776 2106 3553 
C 2106 3381 2246 3323 2336 3323 
C 2394 3323 2566 3348 2566 3560 
C 2566 3954 2246 4179 1805 4179 
C 1043 4179 243 3390 243 1984 
C 243 253 966 -128 1478 -128 
C 2099 -128 2688 427 2688 1283 
C 2688 2081 2170 2662 1517 2662 
C 1126 2662 838 2407 678 1960 
L 678 2176 
z
M 1478 25 
C 691 25 691 1200 691 1436 
C 691 1896 909 2560 1504 2560 
C 1613 2560 1926 2560 2138 2120 
C 2253 1870 2253 1609 2253 1289 
C 2253 944 2253 690 2118 434 
C 1978 171 1773 25 1478 25 
z
" id="CMR17-36" transform="scale(0.015625)"/>
       </defs>
       <use transform="scale(0.996264)" xlink:href="#CMR17-30"/>
       <use transform="translate(45.690477 0)scale(0.996264)" xlink:href="#CMMI12-3a"/>
       <use transform="translate(72.787654 0)scale(0.996264)" xlink:href="#CMR17-36"/>
      </g>
     </g>
    </g>
    <g id="xtick_5">
     <g id="line2d_16">
      <path clip-path="url(#p2404b72f4c)" d="M 508.5 384.48 
L 508.5 51.84 
" style="fill:none;stroke:#808080;stroke-linecap:square;stroke-width:0.4;"/>
     </g>
     <g id="line2d_17">
      <g>
       <use style="stroke:#000000;stroke-width:0.8;" x="508.5" xlink:href="#m6d5f09f22f" y="384.48"/>
      </g>
     </g>
     <g id="line2d_18">
      <g>
       <use style="stroke:#000000;stroke-width:0.8;" x="508.5" xlink:href="#m2bae6f7b4c" y="51.84"/>
      </g>
     </g>
     <g id="text_5">
      <!-- $\mathdefault{0.8}$ -->
      <g transform="translate(499.151474 398.357725)scale(0.15 -0.15)">
       <defs>
        <path d="M 1741 2264 
C 2144 2467 2554 2773 2554 3263 
C 2554 3841 1990 4179 1472 4179 
C 890 4179 378 3759 378 3180 
C 378 3021 416 2747 666 2505 
C 730 2442 998 2251 1171 2130 
C 883 1983 211 1634 211 934 
C 211 279 838 -128 1459 -128 
C 2144 -128 2720 362 2720 1010 
C 2720 1590 2330 1857 2074 2029 
L 1741 2264 
z
M 902 2822 
C 851 2854 595 3051 595 3351 
C 595 3739 998 4032 1459 4032 
C 1965 4032 2336 3676 2336 3262 
C 2336 2669 1670 2331 1638 2331 
C 1632 2331 1626 2331 1574 2370 
L 902 2822 
z
M 2080 1519 
C 2176 1449 2483 1240 2483 851 
C 2483 381 2010 25 1472 25 
C 890 25 448 438 448 940 
C 448 1443 838 1862 1280 2060 
L 2080 1519 
z
" id="CMR17-38" transform="scale(0.015625)"/>
       </defs>
       <use transform="scale(0.996264)" xlink:href="#CMR17-30"/>
       <use transform="translate(45.690477 0)scale(0.996264)" xlink:href="#CMMI12-3a"/>
       <use transform="translate(72.787654 0)scale(0.996264)" xlink:href="#CMR17-38"/>
      </g>
     </g>
    </g>
    <g id="xtick_6">
     <g id="line2d_19">
      <path clip-path="url(#p2404b72f4c)" d="M 601.5 384.48 
L 601.5 51.84 
" style="fill:none;stroke:#808080;stroke-linecap:square;stroke-width:0.4;"/>
     </g>
     <g id="line2d_20">
      <g>
       <use style="stroke:#000000;stroke-width:0.8;" x="601.5" xlink:href="#m6d5f09f22f" y="384.48"/>
      </g>
     </g>
     <g id="line2d_21">
      <g>
       <use style="stroke:#000000;stroke-width:0.8;" x="601.5" xlink:href="#m2bae6f7b4c" y="51.84"/>
      </g>
     </g>
     <g id="text_6">
      <!-- $\mathdefault{1.0}$ -->
      <g transform="translate(592.151474 398.357725)scale(0.15 -0.15)">
       <defs>
        <path d="M 1702 4058 
C 1702 4192 1696 4192 1606 4192 
C 1357 3916 979 3827 621 3827 
C 602 3827 570 3827 563 3808 
C 557 3795 557 3782 557 3648 
C 755 3648 1088 3686 1344 3839 
L 1344 461 
C 1344 236 1331 160 781 160 
L 589 160 
L 589 0 
C 896 0 1216 0 1523 0 
C 1830 0 2150 0 2458 0 
L 2458 160 
L 2266 160 
C 1715 160 1702 230 1702 458 
L 1702 4058 
z
" id="CMR17-31" transform="scale(0.015625)"/>
       </defs>
       <use transform="scale(0.996264)" xlink:href="#CMR17-31"/>
       <use transform="translate(45.690477 0)scale(0.996264)" xlink:href="#CMMI12-3a"/>
       <use transform="translate(72.787654 0)scale(0.996264)" xlink:href="#CMR17-30"/>
      </g>
     </g>
    </g>
    <g id="xtick_7">
     <g id="line2d_22">
      <defs>
       <path d="M 0 0 
L 0 -2 
" id="mfb68884805" style="stroke:#000000;stroke-width:0.6;"/>
      </defs>
      <g>
       <use style="stroke:#000000;stroke-width:0.6;" x="113.25" xlink:href="#mfb68884805" y="384.48"/>
      </g>
     </g>
     <g id="line2d_23">
      <defs>
       <path d="M 0 0 
L 0 2 
" id="maa24f04196" style="stroke:#000000;stroke-width:0.6;"/>
      </defs>
      <g>
       <use style="stroke:#000000;stroke-width:0.6;" x="113.25" xlink:href="#maa24f04196" y="51.84"/>
      </g>
     </g>
    </g>
    <g id="xtick_8">
     <g id="line2d_24">
      <g>
       <use style="stroke:#000000;stroke-width:0.6;" x="159.75" xlink:href="#mfb68884805" y="384.48"/>
      </g>
     </g>
     <g id="line2d_25">
      <g>
       <use style="stroke:#000000;stroke-width:0.6;" x="159.75" xlink:href="#maa24f04196" y="51.84"/>
      </g>
     </g>
    </g>
    <g id="xtick_9">
     <g id="line2d_26">
      <g>
       <use style="stroke:#000000;stroke-width:0.6;" x="183" xlink:href="#mfb68884805" y="384.48"/>
      </g>
     </g>
     <g id="line2d_27">
      <g>
       <use style="stroke:#000000;stroke-width:0.6;" x="183" xlink:href="#maa24f04196" y="51.84"/>
      </g>
     </g>
    </g>
    <g id="xtick_10">
     <g id="line2d_28">
      <g>
       <use style="stroke:#000000;stroke-width:0.6;" x="206.25" xlink:href="#mfb68884805" y="384.48"/>
      </g>
     </g>
     <g id="line2d_29">
      <g>
       <use style="stroke:#000000;stroke-width:0.6;" x="206.25" xlink:href="#maa24f04196" y="51.84"/>
      </g>
     </g>
    </g>
    <g id="xtick_11">
     <g id="line2d_30">
      <g>
       <use style="stroke:#000000;stroke-width:0.6;" x="252.75" xlink:href="#mfb68884805" y="384.48"/>
      </g>
     </g>
     <g id="line2d_31">
      <g>
       <use style="stroke:#000000;stroke-width:0.6;" x="252.75" xlink:href="#maa24f04196" y="51.84"/>
      </g>
     </g>
    </g>
    <g id="xtick_12">
     <g id="line2d_32">
      <g>
       <use style="stroke:#000000;stroke-width:0.6;" x="276" xlink:href="#mfb68884805" y="384.48"/>
      </g>
     </g>
     <g id="line2d_33">
      <g>
       <use style="stroke:#000000;stroke-width:0.6;" x="276" xlink:href="#maa24f04196" y="51.84"/>
      </g>
     </g>
    </g>
    <g id="xtick_13">
     <g id="line2d_34">
      <g>
       <use style="stroke:#000000;stroke-width:0.6;" x="299.25" xlink:href="#mfb68884805" y="384.48"/>
      </g>
     </g>
     <g id="line2d_35">
      <g>
       <use style="stroke:#000000;stroke-width:0.6;" x="299.25" xlink:href="#maa24f04196" y="51.84"/>
      </g>
     </g>
    </g>
    <g id="xtick_14">
     <g id="line2d_36">
      <g>
       <use style="stroke:#000000;stroke-width:0.6;" x="345.75" xlink:href="#mfb68884805" y="384.48"/>
      </g>
     </g>
     <g id="line2d_37">
      <g>
       <use style="stroke:#000000;stroke-width:0.6;" x="345.75" xlink:href="#maa24f04196" y="51.84"/>
      </g>
     </g>
    </g>
    <g id="xtick_15">
     <g id="line2d_38">
      <g>
       <use style="stroke:#000000;stroke-width:0.6;" x="369" xlink:href="#mfb68884805" y="384.48"/>
      </g>
     </g>
     <g id="line2d_39">
      <g>
       <use style="stroke:#000000;stroke-width:0.6;" x="369" xlink:href="#maa24f04196" y="51.84"/>
      </g>
     </g>
    </g>
    <g id="xtick_16">
     <g id="line2d_40">
      <g>
       <use style="stroke:#000000;stroke-width:0.6;" x="392.25" xlink:href="#mfb68884805" y="384.48"/>
      </g>
     </g>
     <g id="line2d_41">
      <g>
       <use style="stroke:#000000;stroke-width:0.6;" x="392.25" xlink:href="#maa24f04196" y="51.84"/>
      </g>
     </g>
    </g>
    <g id="xtick_17">
     <g id="line2d_42">
      <g>
       <use style="stroke:#000000;stroke-width:0.6;" x="438.75" xlink:href="#mfb68884805" y="384.48"/>
      </g>
     </g>
     <g id="line2d_43">
      <g>
       <use style="stroke:#000000;stroke-width:0.6;" x="438.75" xlink:href="#maa24f04196" y="51.84"/>
      </g>
     </g>
    </g>
    <g id="xtick_18">
     <g id="line2d_44">
      <g>
       <use style="stroke:#000000;stroke-width:0.6;" x="462" xlink:href="#mfb68884805" y="384.48"/>
      </g>
     </g>
     <g id="line2d_45">
      <g>
       <use style="stroke:#000000;stroke-width:0.6;" x="462" xlink:href="#maa24f04196" y="51.84"/>
      </g>
     </g>
    </g>
    <g id="xtick_19">
     <g id="line2d_46">
      <g>
       <use style="stroke:#000000;stroke-width:0.6;" x="485.25" xlink:href="#mfb68884805" y="384.48"/>
      </g>
     </g>
     <g id="line2d_47">
      <g>
       <use style="stroke:#000000;stroke-width:0.6;" x="485.25" xlink:href="#maa24f04196" y="51.84"/>
      </g>
     </g>
    </g>
    <g id="xtick_20">
     <g id="line2d_48">
      <g>
       <use style="stroke:#000000;stroke-width:0.6;" x="531.75" xlink:href="#mfb68884805" y="384.48"/>
      </g>
     </g>
     <g id="line2d_49">
      <g>
       <use style="stroke:#000000;stroke-width:0.6;" x="531.75" xlink:href="#maa24f04196" y="51.84"/>
      </g>
     </g>
    </g>
    <g id="xtick_21">
     <g id="line2d_50">
      <g>
       <use style="stroke:#000000;stroke-width:0.6;" x="555" xlink:href="#mfb68884805" y="384.48"/>
      </g>
     </g>
     <g id="line2d_51">
      <g>
       <use style="stroke:#000000;stroke-width:0.6;" x="555" xlink:href="#maa24f04196" y="51.84"/>
      </g>
     </g>
    </g>
    <g id="xtick_22">
     <g id="line2d_52">
      <g>
       <use style="stroke:#000000;stroke-width:0.6;" x="578.25" xlink:href="#mfb68884805" y="384.48"/>
      </g>
     </g>
     <g id="line2d_53">
      <g>
       <use style="stroke:#000000;stroke-width:0.6;" x="578.25" xlink:href="#maa24f04196" y="51.84"/>
      </g>
     </g>
    </g>
    <g id="xtick_23">
     <g id="line2d_54">
      <g>
       <use style="stroke:#000000;stroke-width:0.6;" x="624.75" xlink:href="#mfb68884805" y="384.48"/>
      </g>
     </g>
     <g id="line2d_55">
      <g>
       <use style="stroke:#000000;stroke-width:0.6;" x="624.75" xlink:href="#maa24f04196" y="51.84"/>
      </g>
     </g>
    </g>
    <g id="text_7">
     <!-- Phase [Period = 5.0906 H] -->
     <g transform="translate(284.014884 416.47144)scale(0.15 -0.15)">
      <defs>
       <path d="M 1267 2042 
L 2291 2042 
C 3117 2042 3718 2578 3718 3184 
C 3718 3791 3130 4352 2291 4352 
L 333 4352 
L 333 4186 
C 774 4186 845 4186 845 3899 
L 845 446 
C 845 160 774 160 333 160 
L 333 0 
C 518 0 858 0 1056 0 
C 1254 0 1594 0 1779 0 
L 1779 160 
C 1338 160 1267 160 1267 446 
L 1267 2042 
z
M 1254 2176 
L 1254 3938 
C 1254 4155 1267 4186 1523 4186 
L 2170 4186 
C 2995 4186 3232 3714 3232 3184 
C 3232 2604 2950 2176 2170 2176 
L 1254 2176 
z
" id="CMR17-50" transform="scale(0.015625)"/>
       <path d="M 2656 1933 
C 2656 2259 2592 2790 1837 2790 
C 1312 2790 1056 2368 979 2157 
L 973 2157 
L 973 4396 
L 211 4326 
L 211 4160 
C 589 4160 646 4122 646 3817 
L 646 426 
C 646 184 621 153 211 153 
L 211 -13 
C 365 0 646 0 813 0 
C 979 0 1267 0 1421 -13 
L 1421 153 
C 1011 153 986 178 986 428 
L 986 1658 
C 986 2247 1344 2688 1792 2688 
C 2266 2688 2317 2266 2317 1958 
L 2317 428 
C 2317 184 2291 153 1882 153 
L 1882 -13 
C 2035 0 2317 0 2483 0 
C 2650 0 2938 0 3091 -13 
L 3091 153 
C 2682 153 2656 178 2656 428 
L 2656 1933 
z
" id="CMR17-68" transform="scale(0.015625)"/>
       <path d="M 2304 1653 
C 2304 2072 2304 2294 2035 2543 
C 1798 2752 1523 2816 1306 2816 
C 800 2816 435 2407 435 1971 
C 435 1728 627 1728 666 1728 
C 749 1728 896 1778 896 1954 
C 896 2112 774 2181 666 2181 
C 640 2181 608 2174 589 2168 
C 723 2592 1069 2714 1293 2714 
C 1613 2714 1965 2429 1965 1885 
L 1965 1600 
C 1587 1600 1133 1549 774 1357 
C 371 1133 256 813 256 570 
C 256 77 832 -64 1171 -64 
C 1523 -64 1850 139 1990 511 
C 2003 233 2182 -18 2464 -18 
C 2598 -18 2938 70 2938 567 
L 2938 920 
L 2822 920 
L 2822 562 
C 2822 178 2650 128 2566 128 
C 2304 128 2304 458 2304 738 
L 2304 1653 
z
M 1965 870 
C 1965 317 1568 38 1216 38 
C 896 38 646 275 646 570 
C 646 761 730 1100 1101 1305 
C 1408 1478 1760 1504 1965 1504 
L 1965 870 
z
" id="CMR17-61" transform="scale(0.015625)"/>
       <path d="M 1978 2697 
C 1978 2813 1971 2819 1933 2819 
C 1907 2819 1901 2813 1824 2717 
C 1805 2691 1747 2626 1728 2601 
C 1523 2819 1235 2819 1126 2819 
C 416 2819 160 2447 160 2076 
C 160 1498 813 1365 998 1325 
C 1402 1243 1542 1217 1677 1101 
C 1760 1025 1901 884 1901 654 
C 1901 384 1747 38 1158 38 
C 602 38 403 460 288 1021 
C 269 1110 269 1117 218 1117 
C 166 1117 160 1110 160 983 
L 160 63 
C 160 -51 166 -58 205 -58 
C 237 -58 243 -51 275 0 
C 314 57 410 211 448 276 
C 576 103 800 -64 1158 -64 
C 1792 -64 2131 283 2131 784 
C 2131 1112 1958 1285 1875 1362 
C 1683 1561 1459 1606 1190 1657 
C 838 1735 390 1825 390 2217 
C 390 2383 480 2737 1126 2737 
C 1811 2737 1850 2094 1862 1888 
C 1869 1856 1901 1849 1920 1849 
C 1978 1849 1978 1869 1978 1978 
L 1978 2697 
z
" id="CMR17-73" transform="scale(0.015625)"/>
       <path d="M 2438 1472 
C 2464 1498 2464 1511 2464 1576 
C 2464 2238 2118 2816 1389 2816 
C 710 2816 173 2169 173 1383 
C 173 551 781 -64 1459 -64 
C 2176 -64 2458 607 2458 740 
C 2458 784 2419 784 2406 784 
C 2362 784 2355 771 2330 696 
C 2189 265 1837 51 1504 51 
C 1229 51 954 203 781 480 
C 582 803 582 1176 582 1472 
L 2438 1472 
z
M 589 1568 
C 634 2505 1126 2714 1382 2714 
C 1818 2714 2112 2297 2118 1568 
L 589 1568 
z
" id="CMR17-65" transform="scale(0.015625)"/>
       <path d="M 1504 -1600 
L 1504 -1377 
L 902 -1377 
L 902 4544 
L 1504 4544 
L 1504 4767 
L 678 4767 
L 678 -1600 
L 1504 -1600 
z
" id="CMR17-5b" transform="scale(0.015625)"/>
       <path d="M 960 1497 
C 960 2112 1222 2688 1702 2688 
C 1747 2688 1792 2682 1837 2662 
C 1837 2662 1696 2617 1696 2452 
C 1696 2298 1818 2234 1914 2234 
C 1990 2234 2131 2279 2131 2458 
C 2131 2663 1926 2790 1709 2790 
C 1222 2790 1011 2317 947 2093 
L 941 2093 
L 941 2790 
L 198 2720 
L 198 2554 
C 576 2554 634 2515 634 2208 
L 634 428 
C 634 184 608 153 198 153 
L 198 -13 
C 352 0 646 0 813 0 
C 998 0 1325 0 1498 -13 
L 1498 153 
C 1037 153 960 153 960 440 
L 960 1497 
z
" id="CMR17-72" transform="scale(0.015625)"/>
       <path d="M 992 3909 
C 992 4049 877 4170 730 4170 
C 589 4170 467 4056 467 3909 
C 467 3769 582 3648 730 3648 
C 870 3648 992 3763 992 3909 
z
M 243 2706 
L 243 2541 
C 602 2541 653 2502 653 2197 
L 653 427 
C 653 184 627 153 218 153 
L 218 -13 
C 371 0 646 0 806 0 
C 960 0 1222 0 1370 -13 
L 1370 153 
C 992 153 979 191 979 420 
L 979 2776 
L 243 2706 
z
" id="CMR17-69" transform="scale(0.015625)"/>
       <path d="M 2758 1356 
C 2758 2176 2163 2816 1466 2816 
C 768 2816 173 2176 173 1356 
C 173 551 768 -64 1466 -64 
C 2163 -64 2758 551 2758 1356 
z
M 1466 51 
C 1165 51 909 230 762 480 
C 602 767 582 1126 582 1408 
C 582 1677 595 2010 762 2298 
C 890 2509 1139 2714 1466 2714 
C 1754 2714 1997 2554 2150 2330 
C 2349 2029 2349 1607 2349 1408 
C 2349 1158 2336 775 2163 467 
C 1984 173 1709 51 1466 51 
z
" id="CMR17-6f" transform="scale(0.015625)"/>
       <path d="M 1869 4326 
L 1869 4160 
C 2246 4160 2304 4122 2304 3820 
L 2304 2345 
C 2278 2377 2016 2790 1498 2790 
C 845 2790 211 2208 211 1364 
C 211 525 806 -64 1434 -64 
C 1978 -64 2259 337 2291 380 
L 2291 -63 
L 3066 -63 
L 3066 128 
C 2688 128 2630 166 2630 473 
L 2630 4396 
L 1869 4326 
z
M 2291 755 
C 2291 563 2176 390 2029 262 
C 1811 70 1594 38 1472 38 
C 1286 38 621 134 621 1356 
C 621 2612 1363 2688 1530 2688 
C 1824 2688 2061 2522 2208 2291 
C 2291 2157 2291 2138 2291 2023 
L 2291 755 
z
" id="CMR17-64" transform="scale(0.015625)"/>
       <path d="M 4115 2017 
C 4211 2017 4307 2017 4307 2125 
C 4307 2240 4198 2240 4090 2240 
L 512 2240 
C 403 2240 294 2240 294 2125 
C 294 2017 390 2017 486 2017 
L 4115 2017 
z
M 4090 896 
C 4198 896 4307 896 4307 1011 
C 4307 1119 4211 1119 4115 1119 
L 486 1119 
C 390 1119 294 1119 294 1011 
C 294 896 403 896 512 896 
L 4090 896 
z
" id="CMR17-3d" transform="scale(0.015625)"/>
       <path d="M 730 3692 
C 794 3666 1056 3584 1325 3584 
C 1920 3584 2246 3911 2432 4100 
C 2432 4157 2432 4192 2394 4192 
C 2387 4192 2374 4192 2323 4163 
C 2099 4058 1837 3973 1517 3973 
C 1325 3973 1037 3999 723 4139 
C 653 4171 640 4171 634 4171 
C 602 4171 595 4164 595 4037 
L 595 2203 
C 595 2089 595 2057 659 2057 
C 691 2057 704 2070 736 2114 
C 941 2401 1222 2522 1542 2522 
C 1766 2522 2246 2382 2246 1289 
C 2246 1085 2246 715 2054 421 
C 1894 159 1645 25 1370 25 
C 947 25 518 320 403 814 
C 429 807 480 795 506 795 
C 589 795 749 840 749 1038 
C 749 1210 627 1280 506 1280 
C 358 1280 262 1190 262 1011 
C 262 454 704 -128 1382 -128 
C 2042 -128 2669 440 2669 1264 
C 2669 2030 2170 2624 1549 2624 
C 1222 2624 947 2503 730 2274 
L 730 3692 
z
" id="CMR17-35" transform="scale(0.015625)"/>
       <path d="M 1062 261 
C 1062 420 934 522 800 522 
C 672 522 538 420 538 261 
C 538 102 666 0 800 0 
C 928 0 1062 102 1062 261 
z
" id="CMR17-2e" transform="scale(0.015625)"/>
       <path d="M 2253 1864 
C 2253 464 1670 31 1190 31 
C 1043 31 685 31 538 294 
C 704 268 826 357 826 518 
C 826 692 685 749 595 749 
C 538 749 365 723 365 506 
C 365 71 742 -128 1203 -128 
C 1939 -128 2688 674 2688 2073 
C 2688 3817 1971 4179 1485 4179 
C 851 4179 243 3628 243 2778 
C 243 1991 762 1408 1414 1408 
C 1952 1408 2189 1903 2253 2112 
L 2253 1864 
z
M 1427 1510 
C 1254 1510 1011 1542 813 1922 
C 678 2169 678 2461 678 2771 
C 678 3146 678 3405 858 3684 
C 947 3817 1114 4032 1485 4032 
C 2240 4032 2240 2885 2240 2632 
C 2240 2182 2035 1510 1427 1510 
z
" id="CMR17-39" transform="scale(0.015625)"/>
       <path d="M 3590 3905 
C 3590 4192 3661 4192 4102 4192 
L 4102 4352 
C 3917 4352 3578 4352 3379 4352 
C 3181 4352 2842 4352 2656 4352 
L 2656 4192 
C 3098 4192 3168 4192 3168 3904 
L 3168 2341 
L 1261 2341 
L 1261 3904 
C 1261 4192 1331 4192 1773 4192 
L 1773 4352 
C 1587 4352 1248 4352 1050 4352 
C 851 4352 512 4352 326 4352 
L 326 4192 
C 768 4192 838 4192 838 3905 
L 838 447 
C 838 160 768 160 326 160 
L 326 0 
C 512 0 851 0 1050 0 
C 1248 0 1587 0 1773 0 
L 1773 160 
C 1331 160 1261 160 1261 446 
L 1261 2176 
L 3168 2176 
L 3168 446 
C 3168 160 3098 160 2656 160 
L 2656 0 
C 2842 0 3181 0 3379 0 
C 3578 0 3917 0 4102 0 
L 4102 160 
C 3661 160 3590 160 3590 447 
L 3590 3905 
z
" id="CMR17-48" transform="scale(0.015625)"/>
       <path d="M 915 4767 
L 90 4767 
L 90 4544 
L 691 4544 
L 691 -1377 
L 90 -1377 
L 90 -1600 
L 915 -1600 
L 915 4767 
z
" id="CMR17-5d" transform="scale(0.015625)"/>
      </defs>
      <use transform="scale(0.996264)" xlink:href="#CMR17-50"/>
      <use transform="translate(62.586301 0)scale(0.996264)" xlink:href="#CMR17-68"/>
      <use transform="translate(113.48167 0)scale(0.996264)" xlink:href="#CMR17-61"/>
      <use transform="translate(159.172147 0)scale(0.996264)" xlink:href="#CMR17-73"/>
      <use transform="translate(194.973485 0)scale(0.996264)" xlink:href="#CMR17-65"/>
      <use transform="translate(265.535112 0)scale(0.996264)" xlink:href="#CMR17-5b"/>
      <use transform="translate(290.40617 0)scale(0.996264)" xlink:href="#CMR17-50"/>
      <use transform="translate(350.390017 0)scale(0.996264)" xlink:href="#CMR17-65"/>
      <use transform="translate(390.875677 0)scale(0.996264)" xlink:href="#CMR17-72"/>
      <use transform="translate(426.156445 0)scale(0.996264)" xlink:href="#CMR17-69"/>
      <use transform="translate(451.027504 0)scale(0.996264)" xlink:href="#CMR17-6f"/>
      <use transform="translate(499.32042 0)scale(0.996264)" xlink:href="#CMR17-64"/>
      <use transform="translate(580.291756 0)scale(0.996264)" xlink:href="#CMR17-3d"/>
      <use transform="translate(682.08251 0)scale(0.996264)" xlink:href="#CMR17-35"/>
      <use transform="translate(727.772988 0)scale(0.996264)" xlink:href="#CMR17-2e"/>
      <use transform="translate(752.644046 0)scale(0.996264)" xlink:href="#CMR17-30"/>
      <use transform="translate(798.334523 0)scale(0.996264)" xlink:href="#CMR17-39"/>
      <use transform="translate(844.025 0)scale(0.996264)" xlink:href="#CMR17-30"/>
      <use transform="translate(889.715477 0)scale(0.996264)" xlink:href="#CMR17-36"/>
      <use transform="translate(965.481921 0)scale(0.996264)" xlink:href="#CMR17-48"/>
      <use transform="translate(1034.554351 0)scale(0.996264)" xlink:href="#CMR17-5d"/>
     </g>
    </g>
   </g>
   <g id="matplotlib.axis_2">
    <g id="ytick_1">
     <g id="line2d_56">
      <path clip-path="url(#p2404b72f4c)" d="M 90 73.300645 
L 648 73.300645 
" style="fill:none;stroke:#808080;stroke-linecap:square;stroke-width:0.4;"/>
     </g>
     <g id="line2d_57">
      <defs>
       <path d="M 0 0 
L 3.5 0 
" id="m2636ef3116" style="stroke:#000000;stroke-width:0.8;"/>
      </defs>
      <g>
       <use style="stroke:#000000;stroke-width:0.8;" x="90" xlink:href="#m2636ef3116" y="73.300645"/>
      </g>
     </g>
     <g id="line2d_58">
      <defs>
       <path d="M 0 0 
L -3.5 0 
" id="mb7edd79db3" style="stroke:#000000;stroke-width:0.8;"/>
      </defs>
      <g>
       <use style="stroke:#000000;stroke-width:0.8;" x="648" xlink:href="#mb7edd79db3" y="73.300645"/>
      </g>
     </g>
     <g id="text_8">
      <!-- $\mathdefault{17.8}$ -->
      <g transform="translate(60.48671 78.489508)scale(0.15 -0.15)">
       <defs>
        <path d="M 2886 3941 
L 2886 4081 
L 1382 4081 
C 634 4081 621 4165 595 4288 
L 480 4288 
L 294 3094 
L 410 3094 
C 429 3215 474 3540 550 3661 
C 589 3712 1062 3712 1171 3712 
L 2579 3712 
L 1869 2661 
C 1395 1954 1069 999 1069 165 
C 1069 89 1069 -128 1299 -128 
C 1530 -128 1530 89 1530 171 
L 1530 465 
C 1530 1508 1709 2196 2003 2636 
L 2886 3941 
z
" id="CMR17-37" transform="scale(0.015625)"/>
       </defs>
       <use transform="scale(0.996264)" xlink:href="#CMR17-31"/>
       <use transform="translate(45.690477 0)scale(0.996264)" xlink:href="#CMR17-37"/>
       <use transform="translate(91.380954 0)scale(0.996264)" xlink:href="#CMMI12-3a"/>
       <use transform="translate(118.478131 0)scale(0.996264)" xlink:href="#CMR17-38"/>
      </g>
     </g>
    </g>
    <g id="ytick_2">
     <g id="line2d_59">
      <path clip-path="url(#p2404b72f4c)" d="M 90 126.952258 
L 648 126.952258 
" style="fill:none;stroke:#808080;stroke-linecap:square;stroke-width:0.4;"/>
     </g>
     <g id="line2d_60">
      <g>
       <use style="stroke:#000000;stroke-width:0.8;" x="90" xlink:href="#m2636ef3116" y="126.952258"/>
      </g>
     </g>
     <g id="line2d_61">
      <g>
       <use style="stroke:#000000;stroke-width:0.8;" x="648" xlink:href="#mb7edd79db3" y="126.952258"/>
      </g>
     </g>
     <g id="text_9">
      <!-- $\mathdefault{17.9}$ -->
      <g transform="translate(60.48671 132.14112)scale(0.15 -0.15)">
       <use transform="scale(0.996264)" xlink:href="#CMR17-31"/>
       <use transform="translate(45.690477 0)scale(0.996264)" xlink:href="#CMR17-37"/>
       <use transform="translate(91.380954 0)scale(0.996264)" xlink:href="#CMMI12-3a"/>
       <use transform="translate(118.478131 0)scale(0.996264)" xlink:href="#CMR17-39"/>
      </g>
     </g>
    </g>
    <g id="ytick_3">
     <g id="line2d_62">
      <path clip-path="url(#p2404b72f4c)" d="M 90 180.603871 
L 648 180.603871 
" style="fill:none;stroke:#808080;stroke-linecap:square;stroke-width:0.4;"/>
     </g>
     <g id="line2d_63">
      <g>
       <use style="stroke:#000000;stroke-width:0.8;" x="90" xlink:href="#m2636ef3116" y="180.603871"/>
      </g>
     </g>
     <g id="line2d_64">
      <g>
       <use style="stroke:#000000;stroke-width:0.8;" x="648" xlink:href="#mb7edd79db3" y="180.603871"/>
      </g>
     </g>
     <g id="text_10">
      <!-- $\mathdefault{18.0}$ -->
      <g transform="translate(60.48671 185.792733)scale(0.15 -0.15)">
       <use transform="scale(0.996264)" xlink:href="#CMR17-31"/>
       <use transform="translate(45.690477 0)scale(0.996264)" xlink:href="#CMR17-38"/>
       <use transform="translate(91.380954 0)scale(0.996264)" xlink:href="#CMMI12-3a"/>
       <use transform="translate(118.478131 0)scale(0.996264)" xlink:href="#CMR17-30"/>
      </g>
     </g>
    </g>
    <g id="ytick_4">
     <g id="line2d_65">
      <path clip-path="url(#p2404b72f4c)" d="M 90 234.255484 
L 648 234.255484 
" style="fill:none;stroke:#808080;stroke-linecap:square;stroke-width:0.4;"/>
     </g>
     <g id="line2d_66">
      <g>
       <use style="stroke:#000000;stroke-width:0.8;" x="90" xlink:href="#m2636ef3116" y="234.255484"/>
      </g>
     </g>
     <g id="line2d_67">
      <g>
       <use style="stroke:#000000;stroke-width:0.8;" x="648" xlink:href="#mb7edd79db3" y="234.255484"/>
      </g>
     </g>
     <g id="text_11">
      <!-- $\mathdefault{18.1}$ -->
      <g transform="translate(60.48671 239.444346)scale(0.15 -0.15)">
       <use transform="scale(0.996264)" xlink:href="#CMR17-31"/>
       <use transform="translate(45.690477 0)scale(0.996264)" xlink:href="#CMR17-38"/>
       <use transform="translate(91.380954 0)scale(0.996264)" xlink:href="#CMMI12-3a"/>
       <use transform="translate(118.478131 0)scale(0.996264)" xlink:href="#CMR17-31"/>
      </g>
     </g>
    </g>
    <g id="ytick_5">
     <g id="line2d_68">
      <path clip-path="url(#p2404b72f4c)" d="M 90 287.907097 
L 648 287.907097 
" style="fill:none;stroke:#808080;stroke-linecap:square;stroke-width:0.4;"/>
     </g>
     <g id="line2d_69">
      <g>
       <use style="stroke:#000000;stroke-width:0.8;" x="90" xlink:href="#m2636ef3116" y="287.907097"/>
      </g>
     </g>
     <g id="line2d_70">
      <g>
       <use style="stroke:#000000;stroke-width:0.8;" x="648" xlink:href="#mb7edd79db3" y="287.907097"/>
      </g>
     </g>
     <g id="text_12">
      <!-- $\mathdefault{18.2}$ -->
      <g transform="translate(60.48671 293.095959)scale(0.15 -0.15)">
       <use transform="scale(0.996264)" xlink:href="#CMR17-31"/>
       <use transform="translate(45.690477 0)scale(0.996264)" xlink:href="#CMR17-38"/>
       <use transform="translate(91.380954 0)scale(0.996264)" xlink:href="#CMMI12-3a"/>
       <use transform="translate(118.478131 0)scale(0.996264)" xlink:href="#CMR17-32"/>
      </g>
     </g>
    </g>
    <g id="ytick_6">
     <g id="line2d_71">
      <path clip-path="url(#p2404b72f4c)" d="M 90 341.55871 
L 648 341.55871 
" style="fill:none;stroke:#808080;stroke-linecap:square;stroke-width:0.4;"/>
     </g>
     <g id="line2d_72">
      <g>
       <use style="stroke:#000000;stroke-width:0.8;" x="90" xlink:href="#m2636ef3116" y="341.55871"/>
      </g>
     </g>
     <g id="line2d_73">
      <g>
       <use style="stroke:#000000;stroke-width:0.8;" x="648" xlink:href="#mb7edd79db3" y="341.55871"/>
      </g>
     </g>
     <g id="text_13">
      <!-- $\mathdefault{18.3}$ -->
      <g transform="translate(60.48671 346.747572)scale(0.15 -0.15)">
       <defs>
        <path d="M 1414 2157 
C 1984 2157 2234 1662 2234 1090 
C 2234 320 1824 25 1453 25 
C 1114 25 563 194 390 693 
C 422 680 454 680 486 680 
C 640 680 755 782 755 948 
C 755 1133 614 1216 486 1216 
C 378 1216 211 1165 211 926 
C 211 335 787 -128 1466 -128 
C 2176 -128 2720 430 2720 1085 
C 2720 1707 2208 2157 1600 2227 
C 2086 2328 2554 2756 2554 3329 
C 2554 3820 2048 4179 1472 4179 
C 890 4179 378 3829 378 3329 
C 378 3110 544 3072 627 3072 
C 762 3072 877 3155 877 3321 
C 877 3486 762 3569 627 3569 
C 602 3569 570 3569 544 3557 
C 730 3959 1235 4032 1459 4032 
C 1683 4032 2106 3925 2106 3320 
C 2106 3143 2080 2828 1862 2550 
C 1670 2304 1453 2304 1242 2284 
C 1210 2284 1062 2269 1037 2269 
C 992 2263 966 2257 966 2208 
C 966 2163 973 2157 1101 2157 
L 1414 2157 
z
" id="CMR17-33" transform="scale(0.015625)"/>
       </defs>
       <use transform="scale(0.996264)" xlink:href="#CMR17-31"/>
       <use transform="translate(45.690477 0)scale(0.996264)" xlink:href="#CMR17-38"/>
       <use transform="translate(91.380954 0)scale(0.996264)" xlink:href="#CMMI12-3a"/>
       <use transform="translate(118.478131 0)scale(0.996264)" xlink:href="#CMR17-33"/>
      </g>
     </g>
    </g>
    <g id="ytick_7">
     <g id="line2d_74">
      <defs>
       <path d="M 0 0 
L 2 0 
" id="mf06e5e971a" style="stroke:#000000;stroke-width:0.6;"/>
      </defs>
      <g>
       <use style="stroke:#000000;stroke-width:0.6;" x="90" xlink:href="#mf06e5e971a" y="62.570323"/>
      </g>
     </g>
     <g id="line2d_75">
      <defs>
       <path d="M 0 0 
L -2 0 
" id="m27e6d2d884" style="stroke:#000000;stroke-width:0.6;"/>
      </defs>
      <g>
       <use style="stroke:#000000;stroke-width:0.6;" x="648" xlink:href="#m27e6d2d884" y="62.570323"/>
      </g>
     </g>
    </g>
    <g id="ytick_8">
     <g id="line2d_76">
      <g>
       <use style="stroke:#000000;stroke-width:0.6;" x="90" xlink:href="#mf06e5e971a" y="84.030968"/>
      </g>
     </g>
     <g id="line2d_77">
      <g>
       <use style="stroke:#000000;stroke-width:0.6;" x="648" xlink:href="#m27e6d2d884" y="84.030968"/>
      </g>
     </g>
    </g>
    <g id="ytick_9">
     <g id="line2d_78">
      <g>
       <use style="stroke:#000000;stroke-width:0.6;" x="90" xlink:href="#mf06e5e971a" y="94.76129"/>
      </g>
     </g>
     <g id="line2d_79">
      <g>
       <use style="stroke:#000000;stroke-width:0.6;" x="648" xlink:href="#m27e6d2d884" y="94.76129"/>
      </g>
     </g>
    </g>
    <g id="ytick_10">
     <g id="line2d_80">
      <g>
       <use style="stroke:#000000;stroke-width:0.6;" x="90" xlink:href="#mf06e5e971a" y="105.491613"/>
      </g>
     </g>
     <g id="line2d_81">
      <g>
       <use style="stroke:#000000;stroke-width:0.6;" x="648" xlink:href="#m27e6d2d884" y="105.491613"/>
      </g>
     </g>
    </g>
    <g id="ytick_11">
     <g id="line2d_82">
      <g>
       <use style="stroke:#000000;stroke-width:0.6;" x="90" xlink:href="#mf06e5e971a" y="116.221935"/>
      </g>
     </g>
     <g id="line2d_83">
      <g>
       <use style="stroke:#000000;stroke-width:0.6;" x="648" xlink:href="#m27e6d2d884" y="116.221935"/>
      </g>
     </g>
    </g>
    <g id="ytick_12">
     <g id="line2d_84">
      <g>
       <use style="stroke:#000000;stroke-width:0.6;" x="90" xlink:href="#mf06e5e971a" y="137.682581"/>
      </g>
     </g>
     <g id="line2d_85">
      <g>
       <use style="stroke:#000000;stroke-width:0.6;" x="648" xlink:href="#m27e6d2d884" y="137.682581"/>
      </g>
     </g>
    </g>
    <g id="ytick_13">
     <g id="line2d_86">
      <g>
       <use style="stroke:#000000;stroke-width:0.6;" x="90" xlink:href="#mf06e5e971a" y="148.412903"/>
      </g>
     </g>
     <g id="line2d_87">
      <g>
       <use style="stroke:#000000;stroke-width:0.6;" x="648" xlink:href="#m27e6d2d884" y="148.412903"/>
      </g>
     </g>
    </g>
    <g id="ytick_14">
     <g id="line2d_88">
      <g>
       <use style="stroke:#000000;stroke-width:0.6;" x="90" xlink:href="#mf06e5e971a" y="159.143226"/>
      </g>
     </g>
     <g id="line2d_89">
      <g>
       <use style="stroke:#000000;stroke-width:0.6;" x="648" xlink:href="#m27e6d2d884" y="159.143226"/>
      </g>
     </g>
    </g>
    <g id="ytick_15">
     <g id="line2d_90">
      <g>
       <use style="stroke:#000000;stroke-width:0.6;" x="90" xlink:href="#mf06e5e971a" y="169.873548"/>
      </g>
     </g>
     <g id="line2d_91">
      <g>
       <use style="stroke:#000000;stroke-width:0.6;" x="648" xlink:href="#m27e6d2d884" y="169.873548"/>
      </g>
     </g>
    </g>
    <g id="ytick_16">
     <g id="line2d_92">
      <g>
       <use style="stroke:#000000;stroke-width:0.6;" x="90" xlink:href="#mf06e5e971a" y="191.334194"/>
      </g>
     </g>
     <g id="line2d_93">
      <g>
       <use style="stroke:#000000;stroke-width:0.6;" x="648" xlink:href="#m27e6d2d884" y="191.334194"/>
      </g>
     </g>
    </g>
    <g id="ytick_17">
     <g id="line2d_94">
      <g>
       <use style="stroke:#000000;stroke-width:0.6;" x="90" xlink:href="#mf06e5e971a" y="202.064516"/>
      </g>
     </g>
     <g id="line2d_95">
      <g>
       <use style="stroke:#000000;stroke-width:0.6;" x="648" xlink:href="#m27e6d2d884" y="202.064516"/>
      </g>
     </g>
    </g>
    <g id="ytick_18">
     <g id="line2d_96">
      <g>
       <use style="stroke:#000000;stroke-width:0.6;" x="90" xlink:href="#mf06e5e971a" y="212.794839"/>
      </g>
     </g>
     <g id="line2d_97">
      <g>
       <use style="stroke:#000000;stroke-width:0.6;" x="648" xlink:href="#m27e6d2d884" y="212.794839"/>
      </g>
     </g>
    </g>
    <g id="ytick_19">
     <g id="line2d_98">
      <g>
       <use style="stroke:#000000;stroke-width:0.6;" x="90" xlink:href="#mf06e5e971a" y="223.525161"/>
      </g>
     </g>
     <g id="line2d_99">
      <g>
       <use style="stroke:#000000;stroke-width:0.6;" x="648" xlink:href="#m27e6d2d884" y="223.525161"/>
      </g>
     </g>
    </g>
    <g id="ytick_20">
     <g id="line2d_100">
      <g>
       <use style="stroke:#000000;stroke-width:0.6;" x="90" xlink:href="#mf06e5e971a" y="244.985806"/>
      </g>
     </g>
     <g id="line2d_101">
      <g>
       <use style="stroke:#000000;stroke-width:0.6;" x="648" xlink:href="#m27e6d2d884" y="244.985806"/>
      </g>
     </g>
    </g>
    <g id="ytick_21">
     <g id="line2d_102">
      <g>
       <use style="stroke:#000000;stroke-width:0.6;" x="90" xlink:href="#mf06e5e971a" y="255.716129"/>
      </g>
     </g>
     <g id="line2d_103">
      <g>
       <use style="stroke:#000000;stroke-width:0.6;" x="648" xlink:href="#m27e6d2d884" y="255.716129"/>
      </g>
     </g>
    </g>
    <g id="ytick_22">
     <g id="line2d_104">
      <g>
       <use style="stroke:#000000;stroke-width:0.6;" x="90" xlink:href="#mf06e5e971a" y="266.446452"/>
      </g>
     </g>
     <g id="line2d_105">
      <g>
       <use style="stroke:#000000;stroke-width:0.6;" x="648" xlink:href="#m27e6d2d884" y="266.446452"/>
      </g>
     </g>
    </g>
    <g id="ytick_23">
     <g id="line2d_106">
      <g>
       <use style="stroke:#000000;stroke-width:0.6;" x="90" xlink:href="#mf06e5e971a" y="277.176774"/>
      </g>
     </g>
     <g id="line2d_107">
      <g>
       <use style="stroke:#000000;stroke-width:0.6;" x="648" xlink:href="#m27e6d2d884" y="277.176774"/>
      </g>
     </g>
    </g>
    <g id="ytick_24">
     <g id="line2d_108">
      <g>
       <use style="stroke:#000000;stroke-width:0.6;" x="90" xlink:href="#mf06e5e971a" y="298.637419"/>
      </g>
     </g>
     <g id="line2d_109">
      <g>
       <use style="stroke:#000000;stroke-width:0.6;" x="648" xlink:href="#m27e6d2d884" y="298.637419"/>
      </g>
     </g>
    </g>
    <g id="ytick_25">
     <g id="line2d_110">
      <g>
       <use style="stroke:#000000;stroke-width:0.6;" x="90" xlink:href="#mf06e5e971a" y="309.367742"/>
      </g>
     </g>
     <g id="line2d_111">
      <g>
       <use style="stroke:#000000;stroke-width:0.6;" x="648" xlink:href="#m27e6d2d884" y="309.367742"/>
      </g>
     </g>
    </g>
    <g id="ytick_26">
     <g id="line2d_112">
      <g>
       <use style="stroke:#000000;stroke-width:0.6;" x="90" xlink:href="#mf06e5e971a" y="320.098065"/>
      </g>
     </g>
     <g id="line2d_113">
      <g>
       <use style="stroke:#000000;stroke-width:0.6;" x="648" xlink:href="#m27e6d2d884" y="320.098065"/>
      </g>
     </g>
    </g>
    <g id="ytick_27">
     <g id="line2d_114">
      <g>
       <use style="stroke:#000000;stroke-width:0.6;" x="90" xlink:href="#mf06e5e971a" y="330.828387"/>
      </g>
     </g>
     <g id="line2d_115">
      <g>
       <use style="stroke:#000000;stroke-width:0.6;" x="648" xlink:href="#m27e6d2d884" y="330.828387"/>
      </g>
     </g>
    </g>
    <g id="ytick_28">
     <g id="line2d_116">
      <g>
       <use style="stroke:#000000;stroke-width:0.6;" x="90" xlink:href="#mf06e5e971a" y="352.289032"/>
      </g>
     </g>
     <g id="line2d_117">
      <g>
       <use style="stroke:#000000;stroke-width:0.6;" x="648" xlink:href="#m27e6d2d884" y="352.289032"/>
      </g>
     </g>
    </g>
    <g id="ytick_29">
     <g id="line2d_118">
      <g>
       <use style="stroke:#000000;stroke-width:0.6;" x="90" xlink:href="#mf06e5e971a" y="363.019355"/>
      </g>
     </g>
     <g id="line2d_119">
      <g>
       <use style="stroke:#000000;stroke-width:0.6;" x="648" xlink:href="#m27e6d2d884" y="363.019355"/>
      </g>
     </g>
    </g>
    <g id="ytick_30">
     <g id="line2d_120">
      <g>
       <use style="stroke:#000000;stroke-width:0.6;" x="90" xlink:href="#mf06e5e971a" y="373.749677"/>
      </g>
     </g>
     <g id="line2d_121">
      <g>
       <use style="stroke:#000000;stroke-width:0.6;" x="648" xlink:href="#m27e6d2d884" y="373.749677"/>
      </g>
     </g>
    </g>
    <g id="text_14">
     <!-- $H_{g}$ [Mag] -->
     <g transform="translate(52.211102 247.67683)rotate(-90)scale(0.15 -0.15)">
      <defs>
       <path d="M 4787 3887 
C 4845 4103 4858 4167 5312 4167 
C 5427 4167 5491 4167 5491 4282 
C 5491 4352 5434 4352 5395 4352 
C 5280 4352 5146 4352 5024 4352 
L 4269 4352 
C 4147 4352 4013 4352 3891 4352 
C 3846 4352 3770 4352 3770 4231 
C 3770 4167 3814 4167 3936 4167 
C 4320 4167 4320 4116 4320 4046 
C 4320 4034 4320 3995 4294 3900 
L 3904 2361 
L 1971 2361 
L 2355 3887 
C 2413 4103 2426 4167 2880 4167 
C 2995 4167 3059 4167 3059 4282 
C 3059 4352 3002 4352 2963 4352 
C 2848 4352 2714 4352 2592 4352 
L 1837 4352 
C 1715 4352 1581 4352 1459 4352 
C 1414 4352 1338 4352 1338 4231 
C 1338 4167 1382 4167 1504 4167 
C 1888 4167 1888 4116 1888 4046 
C 1888 4034 1888 3995 1862 3899 
L 998 472 
C 941 249 928 185 486 185 
C 339 185 294 185 294 64 
C 294 0 365 0 384 0 
C 499 0 634 0 755 0 
L 1510 0 
C 1632 0 1766 0 1888 0 
C 1939 0 2010 0 2010 121 
C 2010 185 1952 185 1856 185 
C 1466 185 1466 236 1466 300 
C 1466 307 1466 351 1478 402 
L 1920 2176 
L 3859 2176 
C 3750 1753 3424 416 3411 376 
C 3341 185 3238 185 2861 185 
C 2784 185 2726 185 2726 64 
C 2726 0 2797 0 2816 0 
C 2931 0 3066 0 3187 0 
L 3942 0 
C 4064 0 4198 0 4320 0 
C 4371 0 4442 0 4442 121 
C 4442 185 4384 185 4288 185 
C 3898 185 3898 236 3898 300 
C 3898 307 3898 351 3910 402 
L 4787 3887 
z
" id="CMMI12-48" transform="scale(0.015625)"/>
       <path d="M 2163 811 
C 2138 709 2125 683 2042 588 
C 1779 249 1510 128 1312 128 
C 1101 128 902 294 902 734 
C 902 1073 1094 1788 1235 2076 
C 1421 2433 1709 2689 1978 2689 
C 2400 2689 2483 2165 2483 2127 
L 2464 2037 
L 2163 811 
z
M 2560 2395 
C 2477 2580 2298 2816 1978 2816 
C 1280 2816 486 1941 486 990 
C 486 326 890 0 1299 0 
C 1638 0 1939 268 2054 396 
L 1914 -171 
C 1824 -516 1786 -674 1555 -894 
C 1293 -1152 1050 -1152 909 -1152 
C 717 -1152 557 -1139 397 -1089 
C 602 -1033 653 -858 653 -789 
C 653 -689 576 -588 435 -588 
C 282 -588 115 -714 115 -922 
C 115 -1180 378 -1280 922 -1280 
C 1747 -1280 2176 -753 2259 -410 
L 2970 2435 
C 2989 2511 2989 2524 2989 2536 
C 2989 2625 2918 2695 2822 2695 
C 2669 2695 2579 2567 2560 2395 
z
" id="CMMI12-67" transform="scale(0.015625)"/>
       <path d="M 1338 4224 
C 1299 4320 1293 4320 1158 4320 
L 339 4320 
L 339 4160 
C 781 4160 851 4160 851 3875 
L 851 610 
C 851 451 851 153 339 153 
L 339 -13 
C 486 0 755 0 915 0 
C 1075 0 1344 0 1491 -13 
L 1491 153 
C 979 153 979 451 979 610 
L 979 4135 
L 986 4135 
L 2490 89 
C 2515 25 2528 -13 2579 -13 
C 2630 -13 2643 25 2669 89 
L 4186 4166 
L 4192 4166 
L 4192 438 
C 4192 153 4122 153 3680 153 
L 3680 -13 
C 3853 0 4198 0 4384 0 
C 4570 0 4922 0 5094 -13 
L 5094 153 
C 4653 153 4582 153 4582 438 
L 4582 3875 
C 4582 4160 4653 4160 5094 4160 
L 5094 4320 
L 4282 4320 
C 4147 4320 4141 4314 4102 4218 
L 2720 502 
L 1338 4224 
z
" id="CMR17-4d" transform="scale(0.015625)"/>
       <path d="M 710 1164 
C 832 1068 1043 960 1299 960 
C 1805 960 2240 1357 2240 1888 
C 2240 2054 2189 2310 1997 2509 
C 2176 2692 2438 2752 2586 2752 
C 2611 2752 2650 2752 2682 2734 
C 2656 2728 2598 2703 2598 2605 
C 2598 2527 2656 2471 2739 2471 
C 2835 2471 2886 2533 2886 2614 
C 2886 2731 2790 2854 2586 2854 
C 2330 2854 2106 2738 1926 2580 
C 1734 2753 1504 2816 1299 2816 
C 794 2816 358 2419 358 1888 
C 358 1522 570 1292 634 1228 
C 442 1004 442 743 442 711 
C 442 545 506 302 723 168 
C 390 85 128 -169 128 -486 
C 128 -943 736 -1280 1466 -1280 
C 2170 -1280 2803 -956 2803 -479 
C 2803 384 1856 384 1363 384 
C 1216 384 954 384 922 391 
C 723 423 589 602 589 826 
C 589 883 589 1024 710 1164 
z
M 1299 1068 
C 736 1068 736 1760 736 1889 
C 736 2016 736 2708 1299 2708 
C 1862 2708 1862 2016 1862 1889 
C 1862 1760 1862 1068 1299 1068 
z
M 1466 -1171 
C 826 -1171 384 -835 384 -486 
C 384 -289 493 -105 634 -4 
C 794 104 858 104 1293 104 
C 1818 104 2547 104 2547 -486 
C 2547 -835 2106 -1171 1466 -1171 
z
" id="CMR17-67" transform="scale(0.015625)"/>
      </defs>
      <use transform="scale(0.996264)" xlink:href="#CMMI12-48"/>
      <use transform="translate(80.824837 -14.943915)scale(0.697382)" xlink:href="#CMMI12-67"/>
      <use transform="translate(146.598616 0)scale(0.996264)" xlink:href="#CMR17-5b"/>
      <use transform="translate(171.469675 0)scale(0.996264)" xlink:href="#CMR17-4d"/>
      <use transform="translate(256.156615 0)scale(0.996264)" xlink:href="#CMR17-61"/>
      <use transform="translate(301.847093 0)scale(0.996264)" xlink:href="#CMR17-67"/>
      <use transform="translate(347.53757 0)scale(0.996264)" xlink:href="#CMR17-5d"/>
     </g>
    </g>
   </g>
   <g id="line2d_122">
    <path clip-path="url(#p2404b72f4c)" d="M 136.5 193.789291 
L 141.132812 201.621535 
L 152.25156 220.666486 
L 155.957809 226.528249 
L 159.664059 231.9364 
L 162.443746 235.64878 
L 165.223433 239.049006 
L 168.00312 242.122375 
L 170.782807 244.85634 
L 173.562494 247.25356 
L 176.342181 249.325028 
L 179.121868 251.08209 
L 181.901555 252.53509 
L 184.681242 253.6883 
L 187.46093 254.543726 
L 190.240617 255.103366 
L 193.020304 255.369219 
L 195.799991 255.343285 
L 198.579678 255.027562 
L 201.359365 254.424012 
L 204.139052 253.52668 
L 206.918739 252.327582 
L 209.698426 250.826877 
L 212.478113 249.032359 
L 215.2578 246.955917 
L 218.037487 244.611341 
L 221.743737 241.115967 
L 225.449986 237.290443 
L 231.00936 231.170152 
L 237.495297 224.030025 
L 241.201546 220.254654 
L 243.981233 217.688065 
L 246.76092 215.40904 
L 249.540607 213.463896 
L 251.393732 212.376363 
L 253.246857 211.469295 
L 255.099981 210.740636 
L 256.953106 210.186458 
L 258.806231 209.802832 
L 260.659356 209.585831 
L 262.51248 209.531528 
L 265.292167 209.739726 
L 268.071854 210.236733 
L 270.851541 210.950519 
L 275.484353 212.40926 
L 280.117165 213.85185 
L 282.896852 214.537971 
L 285.676539 214.974916 
L 287.529664 215.081793 
L 289.382789 215.022548 
L 291.235913 214.791086 
L 293.089038 214.381431 
L 294.942163 213.787606 
L 296.795287 213.003634 
L 298.648412 212.023538 
L 300.501537 210.841349 
L 302.354661 209.458549 
L 305.134349 207.059124 
L 307.914036 204.34896 
L 311.620285 200.406674 
L 319.959346 191.317629 
L 322.739033 188.662622 
L 324.592158 187.107908 
L 326.445283 185.769755 
L 328.298407 184.682192 
L 330.151532 183.865565 
L 332.004657 183.337269 
L 333.857782 183.114698 
L 335.710906 183.215247 
L 337.564031 183.656311 
L 339.417156 184.454989 
L 341.27028 185.615415 
L 343.123405 187.124002 
L 344.97653 188.965886 
L 346.829655 191.126202 
L 348.682779 193.587851 
L 351.462466 197.7879 
L 354.242153 202.500024 
L 357.948403 209.373746 
L 370.920276 234.285264 
L 373.699963 238.92512 
L 376.47965 243.077843 
L 378.332775 245.545119 
L 380.185899 247.751322 
L 382.039024 249.68081 
L 383.892149 251.332086 
L 385.745273 252.715068 
L 387.598398 253.840022 
L 389.451523 254.717217 
L 391.304648 255.356918 
L 393.157772 255.770666 
L 395.937459 256.109606 
L 398.717146 256.242435 
L 402.423396 256.191801 
L 415.395269 255.699562 
L 418.174956 255.881386 
L 420.954643 256.282614 
L 423.73433 256.956347 
L 426.514017 257.955687 
L 428.367142 258.829029 
L 430.220266 259.88332 
L 432.999954 261.740869 
L 441.339015 267.705615 
L 444.118702 269.314828 
L 445.971826 270.182166 
L 447.824951 270.848766 
L 449.678076 271.283821 
L 451.531201 271.463227 
L 453.384325 271.368823 
L 455.23745 270.982652 
L 457.090575 270.28676 
L 458.943699 269.263188 
L 460.796824 267.894265 
L 462.649949 266.175001 
L 464.503074 264.117912 
L 466.356198 261.736681 
L 468.209323 259.044965 
L 470.062448 256.056935 
L 472.842135 251.073332 
L 475.621822 245.583343 
L 479.328071 237.668683 
L 486.74057 220.969745 
L 491.373382 210.858525 
L 494.153069 205.204446 
L 496.932756 199.999463 
L 499.712443 195.369861 
L 502.49213 191.322535 
L 504.345255 188.943261 
L 506.19838 186.815959 
L 508.051504 184.937902 
L 509.904629 183.306362 
L 511.757754 181.918614 
L 513.610878 180.771929 
L 515.464003 179.86358 
L 517.317128 179.18873 
L 519.170252 178.716704 
L 521.94994 178.294931 
L 524.729627 178.129932 
L 528.435876 178.155762 
L 535.848375 178.313222 
L 539.554624 178.105731 
L 542.334311 177.734734 
L 545.113998 177.158698 
L 547.893685 176.380877 
L 551.599935 175.062717 
L 556.232747 173.117535 
L 562.718683 170.362535 
L 565.49837 169.385271 
L 568.278057 168.645398 
L 570.131182 168.320667 
L 571.984307 168.156383 
L 573.837431 168.173839 
L 575.690556 168.387903 
L 577.543681 168.809881 
L 579.396806 169.451038 
L 581.24993 170.322048 
L 583.103055 171.43187 
L 584.95618 172.78056 
L 586.809304 174.358961 
L 588.662429 176.157469 
L 591.442116 179.246927 
L 594.221803 182.777612 
L 597.00149 186.717116 
L 598.854615 189.55457 
L 598.854615 189.55457 
" style="fill:none;stroke:#d62728;stroke-linecap:square;stroke-width:3;"/>
   </g>
   <g id="patch_3">
    <path d="M 90 384.48 
L 90 51.84 
" style="fill:none;stroke:#000000;stroke-linecap:square;stroke-linejoin:miter;stroke-width:0.8;"/>
   </g>
   <g id="patch_4">
    <path d="M 648 384.48 
L 648 51.84 
" style="fill:none;stroke:#000000;stroke-linecap:square;stroke-linejoin:miter;stroke-width:0.8;"/>
   </g>
   <g id="patch_5">
    <path d="M 90 384.48 
L 648 384.48 
" style="fill:none;stroke:#000000;stroke-linecap:square;stroke-linejoin:miter;stroke-width:0.8;"/>
   </g>
   <g id="patch_6">
    <path d="M 90 51.84 
L 648 51.84 
" style="fill:none;stroke:#000000;stroke-linecap:square;stroke-linejoin:miter;stroke-width:0.8;"/>
   </g>
   <g id="text_15">
    <!-- 2001 SG276 Light Curve -->
    <g transform="translate(265.712523 45.84)scale(0.21 -0.21)">
     <defs>
      <path d="M 2803 4290 
C 2803 4404 2797 4411 2758 4411 
C 2720 4411 2707 4385 2682 4328 
L 2490 3907 
C 2246 4257 1875 4416 1472 4416 
C 819 4416 294 3901 294 3253 
C 294 3056 339 2776 557 2510 
C 794 2218 1018 2167 1530 2033 
C 1722 1982 2042 1899 2106 1874 
C 2470 1722 2662 1341 2662 985 
C 2662 527 2336 38 1779 38 
C 1094 38 454 419 410 1311 
C 403 1413 397 1419 352 1419 
C 301 1419 294 1413 294 1285 
L 294 -1 
C 294 -115 301 -122 339 -122 
C 384 -122 397 -90 486 108 
C 493 127 493 140 614 381 
C 934 -39 1472 -128 1779 -128 
C 2477 -128 2970 451 2970 1124 
C 2970 1454 2848 1708 2778 1823 
C 2509 2230 2221 2306 1914 2382 
C 1869 2402 1856 2402 1498 2490 
C 1152 2579 1005 2624 845 2796 
C 666 2992 602 3196 602 3399 
C 602 3812 934 4263 1478 4263 
C 2157 4263 2579 3786 2675 2993 
C 2694 2878 2701 2872 2746 2872 
C 2803 2872 2803 2891 2803 2999 
L 2803 4290 
z
" id="CMR17-53" transform="scale(0.015625)"/>
      <path d="M 3974 1233 
C 3974 1473 3994 1505 4390 1505 
L 4390 1670 
C 4237 1664 3891 1664 3718 1664 
C 3539 1664 3040 1664 2797 1664 
L 2797 1505 
L 2989 1505 
C 3539 1505 3552 1434 3552 1201 
L 3552 774 
C 3552 63 2720 63 2522 63 
C 1862 63 781 511 781 2160 
C 781 3808 1843 4250 2464 4250 
C 3187 4250 3712 3626 3834 2741 
C 3846 2664 3846 2651 3904 2651 
C 3974 2651 3974 2664 3974 2779 
L 3974 4288 
C 3974 4402 3968 4409 3930 4409 
C 3904 4409 3898 4402 3853 4326 
L 3571 3791 
C 3258 4187 2874 4416 2381 4416 
C 1286 4416 294 3456 294 2148 
C 294 845 1267 -128 2394 -128 
C 2912 -128 3418 56 3616 417 
C 3725 158 3904 -20 3936 -20 
C 3968 -20 3974 -13 3974 100 
L 3974 1233 
z
" id="CMR17-47" transform="scale(0.015625)"/>
      <path d="M 3469 1615 
L 3354 1615 
C 3302 983 3219 166 2125 166 
L 1530 166 
C 1274 166 1261 197 1261 414 
L 1261 3898 
C 1261 4129 1274 4192 1760 4192 
L 1901 4192 
L 1901 4352 
C 1638 4352 1331 4352 1069 4352 
C 870 4352 512 4352 326 4352 
L 326 4192 
C 768 4192 838 4192 838 3905 
L 838 452 
C 838 166 768 166 326 166 
L 326 0 
L 3315 0 
L 3469 1615 
z
" id="CMR17-4c" transform="scale(0.015625)"/>
      <path d="M 966 2560 
L 1862 2560 
L 1862 2725 
L 966 2725 
L 966 3904 
L 851 3904 
C 838 3245 614 2668 70 2668 
L 70 2560 
L 627 2560 
L 627 771 
C 627 650 627 -64 1370 -64 
C 1747 -64 1965 306 1965 777 
L 1965 1140 
L 1850 1140 
L 1850 783 
C 1850 344 1677 51 1408 51 
C 1222 51 966 178 966 758 
L 966 2560 
z
" id="CMR17-74" transform="scale(0.015625)"/>
      <path d="M 3974 4289 
C 3974 4403 3968 4410 3930 4410 
C 3904 4410 3898 4403 3853 4327 
L 3571 3792 
C 3258 4187 2874 4416 2381 4416 
C 1286 4416 294 3456 294 2148 
C 294 826 1286 -128 2387 -128 
C 3366 -128 3974 730 3974 1461 
C 3974 1524 3974 1550 3917 1550 
C 3866 1550 3866 1531 3859 1474 
C 3808 585 3168 38 2477 38 
C 1824 38 781 495 781 2147 
C 781 3805 1843 4250 2464 4250 
C 3187 4250 3712 3628 3834 2745 
C 3846 2668 3846 2655 3904 2655 
C 3974 2655 3974 2668 3974 2783 
L 3974 4289 
z
" id="CMR17-43" transform="scale(0.015625)"/>
      <path d="M 1882 2693 
L 1882 2528 
C 2259 2528 2317 2489 2317 2186 
L 2317 1032 
C 2317 500 2029 38 1555 38 
C 1030 38 986 348 986 678 
L 986 2763 
L 211 2693 
L 211 2528 
C 467 2528 640 2528 646 2274 
L 646 1058 
C 646 633 646 361 813 183 
C 896 101 1056 -64 1517 -64 
C 2061 -64 2272 377 2323 506 
L 2330 506 
L 2330 -63 
L 3091 -63 
L 3091 128 
C 2714 128 2656 166 2656 473 
L 2656 2763 
L 1882 2693 
z
" id="CMR17-75" transform="scale(0.015625)"/>
      <path d="M 2502 2163 
C 2560 2304 2662 2560 3034 2560 
L 3034 2726 
C 2912 2726 2752 2726 2630 2726 
C 2496 2726 2285 2726 2157 2732 
L 2157 2566 
C 2317 2553 2406 2477 2406 2311 
C 2406 2253 2406 2240 2368 2151 
L 1664 377 
L 902 2286 
C 864 2369 864 2381 864 2407 
C 864 2560 1075 2560 1171 2560 
L 1171 2732 
C 1018 2726 736 2726 576 2726 
C 403 2726 205 2726 64 2732 
L 64 2560 
C 307 2560 442 2560 518 2362 
L 1446 44 
C 1485 -51 1491 -64 1549 -64 
C 1606 -64 1613 -51 1651 44 
L 2502 2163 
z
" id="CMR17-76" transform="scale(0.015625)"/>
     </defs>
     <use transform="scale(0.996264)" xlink:href="#CMR17-32"/>
     <use transform="translate(45.690477 0)scale(0.996264)" xlink:href="#CMR17-30"/>
     <use transform="translate(91.380954 0)scale(0.996264)" xlink:href="#CMR17-30"/>
     <use transform="translate(137.071431 0)scale(0.996264)" xlink:href="#CMR17-31"/>
     <use transform="translate(212.837875 0)scale(0.996264)" xlink:href="#CMR17-53"/>
     <use transform="translate(263.733245 0)scale(0.996264)" xlink:href="#CMR17-47"/>
     <use transform="translate(336.088591 0)scale(0.996264)" xlink:href="#CMR17-32"/>
     <use transform="translate(381.779068 0)scale(0.996264)" xlink:href="#CMR17-37"/>
     <use transform="translate(427.469545 0)scale(0.996264)" xlink:href="#CMR17-36"/>
     <use transform="translate(503.235988 0)scale(0.996264)" xlink:href="#CMR17-4c"/>
     <use transform="translate(560.617396 0)scale(0.996264)" xlink:href="#CMR17-69"/>
     <use transform="translate(585.488455 0)scale(0.996264)" xlink:href="#CMR17-67"/>
     <use transform="translate(631.178932 0)scale(0.996264)" xlink:href="#CMR17-68"/>
     <use transform="translate(679.471848 0)scale(0.996264)" xlink:href="#CMR17-74"/>
     <use transform="translate(744.828582 0)scale(0.996264)" xlink:href="#CMR17-43"/>
     <use transform="translate(811.338462 0)scale(0.996264)" xlink:href="#CMR17-75"/>
     <use transform="translate(862.233832 0)scale(0.996264)" xlink:href="#CMR17-72"/>
     <use transform="translate(897.5146 0)scale(0.996264)" xlink:href="#CMR17-76"/>
     <use transform="translate(943.205062 0)scale(0.996264)" xlink:href="#CMR17-65"/>
    </g>
   </g>
   <g id="legend_1">
    <g id="patch_7">
     <path d="M 100.5 107.189705 
L 267.428612 107.189705 
Q 270.428612 107.189705 270.428612 104.189705 
L 270.428612 62.34 
Q 270.428612 59.34 267.428612 59.34 
L 100.5 59.34 
Q 97.5 59.34 97.5 62.34 
L 97.5 104.189705 
Q 97.5 107.189705 100.5 107.189705 
z
" style="fill:#ffffff;opacity:0.8;stroke:#cccccc;stroke-linejoin:miter;"/>
    </g>
    <g id="line2d_123">
     <path d="M 103.5 71.29797 
L 148.5 71.29797 
" style="fill:none;stroke:#d62728;stroke-linecap:square;stroke-width:3;"/>
    </g>
    <g id="line2d_124"/>
    <g id="text_16">
     <!-- Fit (6th order) -->
     <g transform="translate(160.5 76.54797)scale(0.15 -0.15)">
      <defs>
       <path d="M 3482 4325 
L 326 4325 
L 326 4160 
C 768 4160 838 4160 838 3874 
L 838 446 
C 838 160 768 160 326 160 
L 326 0 
C 512 0 870 0 1069 0 
C 1331 0 1638 0 1901 0 
L 1901 160 
L 1760 160 
C 1274 160 1261 223 1261 452 
L 1261 2075 
L 1837 2075 
C 2432 2075 2490 1865 2490 1332 
L 2605 1332 
L 2605 2987 
L 2490 2987 
C 2490 2450 2432 2240 1837 2240 
L 1261 2240 
L 1261 3911 
C 1261 4128 1274 4160 1530 4160 
L 2355 4160 
C 3322 4160 3430 3765 3520 2916 
L 3635 2916 
L 3482 4325 
z
" id="CMR17-46" transform="scale(0.015625)"/>
       <path d="M 1958 -1561 
C 1958 -1555 1958 -1542 1939 -1523 
C 1645 -1224 858 -407 858 1581 
C 858 3569 1632 4379 1946 4697 
C 1946 4704 1958 4717 1958 4736 
C 1958 4755 1939 4768 1914 4768 
C 1843 4768 1299 4296 986 3594 
C 666 2887 576 2199 576 1588 
C 576 1128 621 351 1005 -471 
C 1312 -1135 1837 -1600 1914 -1600 
C 1946 -1600 1958 -1587 1958 -1561 
z
" id="CMR17-28" transform="scale(0.015625)"/>
       <path d="M 1683 1581 
C 1683 2040 1638 2817 1254 3639 
C 947 4303 422 4768 346 4768 
C 326 4768 301 4761 301 4729 
C 301 4717 307 4710 314 4697 
C 621 4378 1402 3568 1402 1584 
C 1402 -407 627 -1217 314 -1537 
C 307 -1549 301 -1556 301 -1568 
C 301 -1600 326 -1600 346 -1600 
C 416 -1600 960 -1128 1274 -426 
C 1594 281 1683 969 1683 1581 
z
" id="CMR17-29" transform="scale(0.015625)"/>
      </defs>
      <use transform="scale(0.996264)" xlink:href="#CMR17-46"/>
      <use transform="translate(59.983847 0)scale(0.996264)" xlink:href="#CMR17-69"/>
      <use transform="translate(84.854905 0)scale(0.996264)" xlink:href="#CMR17-74"/>
      <use transform="translate(150.211639 0)scale(0.996264)" xlink:href="#CMR17-28"/>
      <use transform="translate(185.492407 0)scale(0.996264)" xlink:href="#CMR17-36"/>
      <use transform="translate(231.182884 0)scale(0.996264)" xlink:href="#CMR17-74"/>
      <use transform="translate(266.463652 0)scale(0.996264)" xlink:href="#CMR17-68"/>
      <use transform="translate(347.434988 0)scale(0.996264)" xlink:href="#CMR17-6f"/>
      <use transform="translate(393.125465 0)scale(0.996264)" xlink:href="#CMR17-72"/>
      <use transform="translate(428.406233 0)scale(0.996264)" xlink:href="#CMR17-64"/>
      <use transform="translate(479.301603 0)scale(0.996264)" xlink:href="#CMR17-65"/>
      <use transform="translate(519.787263 0)scale(0.996264)" xlink:href="#CMR17-72"/>
      <use transform="translate(555.068031 0)scale(0.996264)" xlink:href="#CMR17-29"/>
     </g>
    </g>
    <g id="LineCollection_2">
     <path d="M 126 100.53396 
L 126 85.53396 
" style="fill:none;stroke:#696969;"/>
    </g>
    <g id="line2d_125">
     <g>
      <use style="fill:#696969;stroke:#696969;" x="126" xlink:href="#mf35c43b698" y="100.53396"/>
     </g>
    </g>
    <g id="line2d_126">
     <g>
      <use style="fill:#696969;stroke:#696969;" x="126" xlink:href="#mf35c43b698" y="85.53396"/>
     </g>
    </g>
    <g id="line2d_127"/>
    <g id="line2d_128">
     <g>
      <use style="fill:#1f77b4;stroke:#1f77b4;" x="126" xlink:href="#mb310d1da6b" y="93.03396"/>
     </g>
    </g>
    <g id="text_17">
     <!-- Data of 5 nights -->
     <g transform="translate(160.5 98.28396)scale(0.15 -0.15)">
      <defs>
       <path d="M 333 4352 
L 333 4186 
C 774 4186 845 4186 845 3900 
L 845 452 
C 845 166 774 166 333 166 
L 333 0 
L 2368 0 
C 3398 0 4224 943 4224 2141 
C 4224 3346 3411 4352 2368 4352 
L 333 4352 
z
M 1523 166 
C 1267 166 1254 197 1254 414 
L 1254 3938 
C 1254 4155 1267 4186 1523 4186 
L 2240 4186 
C 2771 4186 3750 3874 3750 2141 
C 3750 1242 3488 879 3366 707 
C 3213 510 2848 166 2240 166 
L 1523 166 
z
" id="CMR17-44" transform="scale(0.015625)"/>
       <path d="M 979 2560 
L 1709 2560 
L 1709 2725 
L 966 2725 
L 966 3494 
C 966 4022 1235 4352 1510 4352 
C 1594 4352 1690 4327 1754 4282 
C 1702 4269 1568 4225 1568 4067 
C 1568 3901 1696 3850 1786 3850 
C 1875 3850 2003 3901 2003 4067 
C 2003 4308 1773 4454 1517 4454 
C 1152 4454 653 4156 653 3481 
L 653 2725 
L 141 2725 
L 141 2560 
L 653 2560 
L 653 427 
C 653 184 627 153 218 153 
L 218 -13 
C 371 0 666 0 832 0 
C 1018 0 1344 0 1517 -13 
L 1517 153 
C 1056 153 979 153 979 439 
L 979 2560 
z
" id="CMR17-66" transform="scale(0.015625)"/>
       <path d="M 2656 1933 
C 2656 2259 2592 2790 1837 2790 
C 1331 2790 1069 2400 973 2144 
L 966 2144 
L 966 2790 
L 211 2720 
L 211 2554 
C 589 2554 646 2515 646 2208 
L 646 428 
C 646 184 621 153 211 153 
L 211 -13 
C 365 0 646 0 813 0 
C 979 0 1267 0 1421 -13 
L 1421 153 
C 1011 153 986 178 986 428 
L 986 1658 
C 986 2247 1344 2688 1792 2688 
C 2266 2688 2317 2266 2317 1958 
L 2317 428 
C 2317 184 2291 153 1882 153 
L 1882 -13 
C 2035 0 2317 0 2483 0 
C 2650 0 2938 0 3091 -13 
L 3091 153 
C 2682 153 2656 178 2656 428 
L 2656 1933 
z
" id="CMR17-6e" transform="scale(0.015625)"/>
      </defs>
      <use transform="scale(0.996264)" xlink:href="#CMR17-44"/>
      <use transform="translate(70.393556 0)scale(0.996264)" xlink:href="#CMR17-61"/>
      <use transform="translate(116.084033 0)scale(0.996264)" xlink:href="#CMR17-74"/>
      <use transform="translate(151.364801 0)scale(0.996264)" xlink:href="#CMR17-61"/>
      <use transform="translate(227.131244 0)scale(0.996264)" xlink:href="#CMR17-6f"/>
      <use transform="translate(272.821721 0)scale(0.996264)" xlink:href="#CMR17-66"/>
      <use transform="translate(330.3712 0)scale(0.996264)" xlink:href="#CMR17-35"/>
      <use transform="translate(406.137644 0)scale(0.996264)" xlink:href="#CMR17-6e"/>
      <use transform="translate(457.033013 0)scale(0.996264)" xlink:href="#CMR17-69"/>
      <use transform="translate(481.904072 0)scale(0.996264)" xlink:href="#CMR17-67"/>
      <use transform="translate(527.594549 0)scale(0.996264)" xlink:href="#CMR17-68"/>
      <use transform="translate(575.887465 0)scale(0.996264)" xlink:href="#CMR17-74"/>
      <use transform="translate(611.168233 0)scale(0.996264)" xlink:href="#CMR17-73"/>
     </g>
    </g>
   </g>
  </g>
 </g>
 <defs>
  <clipPath id="p2404b72f4c">
   <rect height="332.64" width="558" x="90" y="51.84"/>
  </clipPath>
 </defs>
</svg>
