<?xml version="1.0" encoding="utf-8" standalone="no"?>
<!DOCTYPE svg PUBLIC "-//W3C//DTD SVG 1.1//EN"
  "http://www.w3.org/Graphics/SVG/1.1/DTD/svg11.dtd">
<svg height="432pt" version="1.1" viewBox="0 0 720 432" width="720pt" xmlns="http://www.w3.org/2000/svg" xmlns:xlink="http://www.w3.org/1999/xlink">
 <metadata>
  <rdf:RDF xmlns:cc="http://creativecommons.org/ns#" xmlns:dc="http://purl.org/dc/elements/1.1/" xmlns:rdf="http://www.w3.org/1999/02/22-rdf-syntax-ns#">
   <cc:Work>
    <dc:type rdf:resource="http://purl.org/dc/dcmitype/StillImage"/>
    <dc:date>2021-09-06T15:38:14.513108</dc:date>
    <dc:format>image/svg+xml</dc:format>
    <dc:creator>
     <cc:Agent>
      <dc:title>Matplotlib v3.4.2, https://matplotlib.org/</dc:title>
     </cc:Agent>
    </dc:creator>
   </cc:Work>
  </rdf:RDF>
 </metadata>
 <defs>
  <style type="text/css">*{stroke-linecap:butt;stroke-linejoin:round;}</style>
 </defs>
 <g id="figure_1">
  <g id="patch_1">
   <path d="M 0 432 
L 720 432 
L 720 0 
L 0 0 
z
" style="fill:#ffffff;"/>
  </g>
  <g id="axes_1">
   <g id="patch_2">
    <path d="M 90 384.48 
L 648 384.48 
L 648 51.84 
L 90 51.84 
z
" style="fill:#ffffff;"/>
   </g>
   <g id="matplotlib.axis_1">
    <g id="xtick_1">
     <g id="line2d_1">
      <path clip-path="url(#pe8c0cf0cb8)" d="M 90 384.48 
L 90 51.84 
" style="fill:none;stroke:#808080;stroke-linecap:square;stroke-width:0.4;"/>
     </g>
     <g id="line2d_2">
      <defs>
       <path d="M 0 0 
L 0 -3.5 
" id="m2835ebda99" style="stroke:#000000;stroke-width:0.8;"/>
      </defs>
      <g>
       <use style="stroke:#000000;stroke-width:0.8;" x="90" xlink:href="#m2835ebda99" y="384.48"/>
      </g>
     </g>
     <g id="line2d_3">
      <defs>
       <path d="M 0 0 
L 0 3.5 
" id="mb20a8da6ce" style="stroke:#000000;stroke-width:0.8;"/>
      </defs>
      <g>
       <use style="stroke:#000000;stroke-width:0.8;" x="90" xlink:href="#mb20a8da6ce" y="51.84"/>
      </g>
     </g>
     <g id="text_1">
      <!-- $\mathdefault{0}$ -->
      <g transform="translate(86.341881 398.357725)scale(0.15 -0.15)">
       <defs>
        <path d="M 2688 2025 
C 2688 2416 2682 3080 2413 3591 
C 2176 4039 1798 4198 1466 4198 
C 1158 4198 768 4058 525 3597 
C 269 3118 243 2524 243 2025 
C 243 1661 250 1106 448 619 
C 723 -39 1216 -128 1466 -128 
C 1760 -128 2208 -7 2470 600 
C 2662 1042 2688 1559 2688 2025 
z
M 1466 -26 
C 1056 -26 813 325 723 812 
C 653 1188 653 1738 653 2096 
C 653 2588 653 2997 736 3387 
C 858 3929 1216 4096 1466 4096 
C 1728 4096 2067 3923 2189 3400 
C 2272 3036 2278 2607 2278 2096 
C 2278 1680 2278 1169 2202 792 
C 2067 95 1690 -26 1466 -26 
z
" id="CMR17-30" transform="scale(0.015625)"/>
       </defs>
       <use transform="scale(0.996264)" xlink:href="#CMR17-30"/>
      </g>
     </g>
    </g>
    <g id="xtick_2">
     <g id="line2d_4">
      <path clip-path="url(#pe8c0cf0cb8)" d="M 175.846154 384.48 
L 175.846154 51.84 
" style="fill:none;stroke:#808080;stroke-linecap:square;stroke-width:0.4;"/>
     </g>
     <g id="line2d_5">
      <g>
       <use style="stroke:#000000;stroke-width:0.8;" x="175.846154" xlink:href="#m2835ebda99" y="384.48"/>
      </g>
     </g>
     <g id="line2d_6">
      <g>
       <use style="stroke:#000000;stroke-width:0.8;" x="175.846154" xlink:href="#mb20a8da6ce" y="51.84"/>
      </g>
     </g>
     <g id="text_2">
      <!-- $\mathdefault{2}$ -->
      <g transform="translate(172.188035 398.357725)scale(0.15 -0.15)">
       <defs>
        <path d="M 2669 989 
L 2554 989 
C 2490 536 2438 459 2413 420 
C 2381 369 1920 369 1830 369 
L 602 369 
C 832 619 1280 1072 1824 1597 
C 2214 1967 2669 2402 2669 3035 
C 2669 3790 2067 4224 1395 4224 
C 691 4224 262 3604 262 3030 
C 262 2780 448 2748 525 2748 
C 589 2748 781 2787 781 3010 
C 781 3207 614 3264 525 3264 
C 486 3264 448 3258 422 3245 
C 544 3790 915 4058 1306 4058 
C 1862 4058 2227 3617 2227 3035 
C 2227 2479 1901 2000 1536 1584 
L 262 146 
L 262 0 
L 2515 0 
L 2669 989 
z
" id="CMR17-32" transform="scale(0.015625)"/>
       </defs>
       <use transform="scale(0.996264)" xlink:href="#CMR17-32"/>
      </g>
     </g>
    </g>
    <g id="xtick_3">
     <g id="line2d_7">
      <path clip-path="url(#pe8c0cf0cb8)" d="M 261.692308 384.48 
L 261.692308 51.84 
" style="fill:none;stroke:#808080;stroke-linecap:square;stroke-width:0.4;"/>
     </g>
     <g id="line2d_8">
      <g>
       <use style="stroke:#000000;stroke-width:0.8;" x="261.692308" xlink:href="#m2835ebda99" y="384.48"/>
      </g>
     </g>
     <g id="line2d_9">
      <g>
       <use style="stroke:#000000;stroke-width:0.8;" x="261.692308" xlink:href="#mb20a8da6ce" y="51.84"/>
      </g>
     </g>
     <g id="text_3">
      <!-- $\mathdefault{4}$ -->
      <g transform="translate(258.034189 398.357725)scale(0.15 -0.15)">
       <defs>
        <path d="M 2150 4122 
C 2150 4256 2144 4256 2029 4256 
L 128 1254 
L 128 1088 
L 1779 1088 
L 1779 457 
C 1779 224 1766 160 1318 160 
L 1197 160 
L 1197 0 
C 1402 0 1747 0 1965 0 
C 2182 0 2528 0 2733 0 
L 2733 160 
L 2611 160 
C 2163 160 2150 224 2150 457 
L 2150 1088 
L 2803 1088 
L 2803 1254 
L 2150 1254 
L 2150 4122 
z
M 1798 3703 
L 1798 1254 
L 256 1254 
L 1798 3703 
z
" id="CMR17-34" transform="scale(0.015625)"/>
       </defs>
       <use transform="scale(0.996264)" xlink:href="#CMR17-34"/>
      </g>
     </g>
    </g>
    <g id="xtick_4">
     <g id="line2d_10">
      <path clip-path="url(#pe8c0cf0cb8)" d="M 347.538462 384.48 
L 347.538462 51.84 
" style="fill:none;stroke:#808080;stroke-linecap:square;stroke-width:0.4;"/>
     </g>
     <g id="line2d_11">
      <g>
       <use style="stroke:#000000;stroke-width:0.8;" x="347.538462" xlink:href="#m2835ebda99" y="384.48"/>
      </g>
     </g>
     <g id="line2d_12">
      <g>
       <use style="stroke:#000000;stroke-width:0.8;" x="347.538462" xlink:href="#mb20a8da6ce" y="51.84"/>
      </g>
     </g>
     <g id="text_4">
      <!-- $\mathdefault{6}$ -->
      <g transform="translate(343.880343 398.357725)scale(0.15 -0.15)">
       <defs>
        <path d="M 678 2176 
C 678 3690 1395 4032 1811 4032 
C 1946 4032 2272 4009 2400 3776 
C 2298 3776 2106 3776 2106 3553 
C 2106 3381 2246 3323 2336 3323 
C 2394 3323 2566 3348 2566 3560 
C 2566 3954 2246 4179 1805 4179 
C 1043 4179 243 3390 243 1984 
C 243 253 966 -128 1478 -128 
C 2099 -128 2688 427 2688 1283 
C 2688 2081 2170 2662 1517 2662 
C 1126 2662 838 2407 678 1960 
L 678 2176 
z
M 1478 25 
C 691 25 691 1200 691 1436 
C 691 1896 909 2560 1504 2560 
C 1613 2560 1926 2560 2138 2120 
C 2253 1870 2253 1609 2253 1289 
C 2253 944 2253 690 2118 434 
C 1978 171 1773 25 1478 25 
z
" id="CMR17-36" transform="scale(0.015625)"/>
       </defs>
       <use transform="scale(0.996264)" xlink:href="#CMR17-36"/>
      </g>
     </g>
    </g>
    <g id="xtick_5">
     <g id="line2d_13">
      <path clip-path="url(#pe8c0cf0cb8)" d="M 433.384615 384.48 
L 433.384615 51.84 
" style="fill:none;stroke:#808080;stroke-linecap:square;stroke-width:0.4;"/>
     </g>
     <g id="line2d_14">
      <g>
       <use style="stroke:#000000;stroke-width:0.8;" x="433.384615" xlink:href="#m2835ebda99" y="384.48"/>
      </g>
     </g>
     <g id="line2d_15">
      <g>
       <use style="stroke:#000000;stroke-width:0.8;" x="433.384615" xlink:href="#mb20a8da6ce" y="51.84"/>
      </g>
     </g>
     <g id="text_5">
      <!-- $\mathdefault{8}$ -->
      <g transform="translate(429.726496 398.357725)scale(0.15 -0.15)">
       <defs>
        <path d="M 1741 2264 
C 2144 2467 2554 2773 2554 3263 
C 2554 3841 1990 4179 1472 4179 
C 890 4179 378 3759 378 3180 
C 378 3021 416 2747 666 2505 
C 730 2442 998 2251 1171 2130 
C 883 1983 211 1634 211 934 
C 211 279 838 -128 1459 -128 
C 2144 -128 2720 362 2720 1010 
C 2720 1590 2330 1857 2074 2029 
L 1741 2264 
z
M 902 2822 
C 851 2854 595 3051 595 3351 
C 595 3739 998 4032 1459 4032 
C 1965 4032 2336 3676 2336 3262 
C 2336 2669 1670 2331 1638 2331 
C 1632 2331 1626 2331 1574 2370 
L 902 2822 
z
M 2080 1519 
C 2176 1449 2483 1240 2483 851 
C 2483 381 2010 25 1472 25 
C 890 25 448 438 448 940 
C 448 1443 838 1862 1280 2060 
L 2080 1519 
z
" id="CMR17-38" transform="scale(0.015625)"/>
       </defs>
       <use transform="scale(0.996264)" xlink:href="#CMR17-38"/>
      </g>
     </g>
    </g>
    <g id="xtick_6">
     <g id="line2d_16">
      <path clip-path="url(#pe8c0cf0cb8)" d="M 519.230769 384.48 
L 519.230769 51.84 
" style="fill:none;stroke:#808080;stroke-linecap:square;stroke-width:0.4;"/>
     </g>
     <g id="line2d_17">
      <g>
       <use style="stroke:#000000;stroke-width:0.8;" x="519.230769" xlink:href="#m2835ebda99" y="384.48"/>
      </g>
     </g>
     <g id="line2d_18">
      <g>
       <use style="stroke:#000000;stroke-width:0.8;" x="519.230769" xlink:href="#mb20a8da6ce" y="51.84"/>
      </g>
     </g>
     <g id="text_6">
      <!-- $\mathdefault{10}$ -->
      <g transform="translate(511.914531 398.357725)scale(0.15 -0.15)">
       <defs>
        <path d="M 1702 4058 
C 1702 4192 1696 4192 1606 4192 
C 1357 3916 979 3827 621 3827 
C 602 3827 570 3827 563 3808 
C 557 3795 557 3782 557 3648 
C 755 3648 1088 3686 1344 3839 
L 1344 461 
C 1344 236 1331 160 781 160 
L 589 160 
L 589 0 
C 896 0 1216 0 1523 0 
C 1830 0 2150 0 2458 0 
L 2458 160 
L 2266 160 
C 1715 160 1702 230 1702 458 
L 1702 4058 
z
" id="CMR17-31" transform="scale(0.015625)"/>
       </defs>
       <use transform="scale(0.996264)" xlink:href="#CMR17-31"/>
       <use transform="translate(45.690477 0)scale(0.996264)" xlink:href="#CMR17-30"/>
      </g>
     </g>
    </g>
    <g id="xtick_7">
     <g id="line2d_19">
      <path clip-path="url(#pe8c0cf0cb8)" d="M 605.076923 384.48 
L 605.076923 51.84 
" style="fill:none;stroke:#808080;stroke-linecap:square;stroke-width:0.4;"/>
     </g>
     <g id="line2d_20">
      <g>
       <use style="stroke:#000000;stroke-width:0.8;" x="605.076923" xlink:href="#m2835ebda99" y="384.48"/>
      </g>
     </g>
     <g id="line2d_21">
      <g>
       <use style="stroke:#000000;stroke-width:0.8;" x="605.076923" xlink:href="#mb20a8da6ce" y="51.84"/>
      </g>
     </g>
     <g id="text_7">
      <!-- $\mathdefault{12}$ -->
      <g transform="translate(597.760685 398.357725)scale(0.15 -0.15)">
       <use transform="scale(0.996264)" xlink:href="#CMR17-31"/>
       <use transform="translate(45.690477 0)scale(0.996264)" xlink:href="#CMR17-32"/>
      </g>
     </g>
    </g>
    <g id="xtick_8">
     <g id="line2d_22">
      <path clip-path="url(#pe8c0cf0cb8)" d="M 111.461538 384.48 
L 111.461538 51.84 
" style="fill:none;stroke:#808080;stroke-dasharray:0.74,0.32;stroke-dashoffset:0;stroke-width:0.2;"/>
     </g>
     <g id="line2d_23">
      <defs>
       <path d="M 0 0 
L 0 -2 
" id="mb3af1388b0" style="stroke:#000000;stroke-width:0.6;"/>
      </defs>
      <g>
       <use style="stroke:#000000;stroke-width:0.6;" x="111.461538" xlink:href="#mb3af1388b0" y="384.48"/>
      </g>
     </g>
     <g id="line2d_24">
      <defs>
       <path d="M 0 0 
L 0 2 
" id="m80f831b245" style="stroke:#000000;stroke-width:0.6;"/>
      </defs>
      <g>
       <use style="stroke:#000000;stroke-width:0.6;" x="111.461538" xlink:href="#m80f831b245" y="51.84"/>
      </g>
     </g>
    </g>
    <g id="xtick_9">
     <g id="line2d_25">
      <path clip-path="url(#pe8c0cf0cb8)" d="M 132.923077 384.48 
L 132.923077 51.84 
" style="fill:none;stroke:#808080;stroke-dasharray:0.74,0.32;stroke-dashoffset:0;stroke-width:0.2;"/>
     </g>
     <g id="line2d_26">
      <g>
       <use style="stroke:#000000;stroke-width:0.6;" x="132.923077" xlink:href="#mb3af1388b0" y="384.48"/>
      </g>
     </g>
     <g id="line2d_27">
      <g>
       <use style="stroke:#000000;stroke-width:0.6;" x="132.923077" xlink:href="#m80f831b245" y="51.84"/>
      </g>
     </g>
    </g>
    <g id="xtick_10">
     <g id="line2d_28">
      <path clip-path="url(#pe8c0cf0cb8)" d="M 154.384615 384.48 
L 154.384615 51.84 
" style="fill:none;stroke:#808080;stroke-dasharray:0.74,0.32;stroke-dashoffset:0;stroke-width:0.2;"/>
     </g>
     <g id="line2d_29">
      <g>
       <use style="stroke:#000000;stroke-width:0.6;" x="154.384615" xlink:href="#mb3af1388b0" y="384.48"/>
      </g>
     </g>
     <g id="line2d_30">
      <g>
       <use style="stroke:#000000;stroke-width:0.6;" x="154.384615" xlink:href="#m80f831b245" y="51.84"/>
      </g>
     </g>
    </g>
    <g id="xtick_11">
     <g id="line2d_31">
      <path clip-path="url(#pe8c0cf0cb8)" d="M 197.307692 384.48 
L 197.307692 51.84 
" style="fill:none;stroke:#808080;stroke-dasharray:0.74,0.32;stroke-dashoffset:0;stroke-width:0.2;"/>
     </g>
     <g id="line2d_32">
      <g>
       <use style="stroke:#000000;stroke-width:0.6;" x="197.307692" xlink:href="#mb3af1388b0" y="384.48"/>
      </g>
     </g>
     <g id="line2d_33">
      <g>
       <use style="stroke:#000000;stroke-width:0.6;" x="197.307692" xlink:href="#m80f831b245" y="51.84"/>
      </g>
     </g>
    </g>
    <g id="xtick_12">
     <g id="line2d_34">
      <path clip-path="url(#pe8c0cf0cb8)" d="M 218.769231 384.48 
L 218.769231 51.84 
" style="fill:none;stroke:#808080;stroke-dasharray:0.74,0.32;stroke-dashoffset:0;stroke-width:0.2;"/>
     </g>
     <g id="line2d_35">
      <g>
       <use style="stroke:#000000;stroke-width:0.6;" x="218.769231" xlink:href="#mb3af1388b0" y="384.48"/>
      </g>
     </g>
     <g id="line2d_36">
      <g>
       <use style="stroke:#000000;stroke-width:0.6;" x="218.769231" xlink:href="#m80f831b245" y="51.84"/>
      </g>
     </g>
    </g>
    <g id="xtick_13">
     <g id="line2d_37">
      <path clip-path="url(#pe8c0cf0cb8)" d="M 240.230769 384.48 
L 240.230769 51.84 
" style="fill:none;stroke:#808080;stroke-dasharray:0.74,0.32;stroke-dashoffset:0;stroke-width:0.2;"/>
     </g>
     <g id="line2d_38">
      <g>
       <use style="stroke:#000000;stroke-width:0.6;" x="240.230769" xlink:href="#mb3af1388b0" y="384.48"/>
      </g>
     </g>
     <g id="line2d_39">
      <g>
       <use style="stroke:#000000;stroke-width:0.6;" x="240.230769" xlink:href="#m80f831b245" y="51.84"/>
      </g>
     </g>
    </g>
    <g id="xtick_14">
     <g id="line2d_40">
      <path clip-path="url(#pe8c0cf0cb8)" d="M 283.153846 384.48 
L 283.153846 51.84 
" style="fill:none;stroke:#808080;stroke-dasharray:0.74,0.32;stroke-dashoffset:0;stroke-width:0.2;"/>
     </g>
     <g id="line2d_41">
      <g>
       <use style="stroke:#000000;stroke-width:0.6;" x="283.153846" xlink:href="#mb3af1388b0" y="384.48"/>
      </g>
     </g>
     <g id="line2d_42">
      <g>
       <use style="stroke:#000000;stroke-width:0.6;" x="283.153846" xlink:href="#m80f831b245" y="51.84"/>
      </g>
     </g>
    </g>
    <g id="xtick_15">
     <g id="line2d_43">
      <path clip-path="url(#pe8c0cf0cb8)" d="M 304.615385 384.48 
L 304.615385 51.84 
" style="fill:none;stroke:#808080;stroke-dasharray:0.74,0.32;stroke-dashoffset:0;stroke-width:0.2;"/>
     </g>
     <g id="line2d_44">
      <g>
       <use style="stroke:#000000;stroke-width:0.6;" x="304.615385" xlink:href="#mb3af1388b0" y="384.48"/>
      </g>
     </g>
     <g id="line2d_45">
      <g>
       <use style="stroke:#000000;stroke-width:0.6;" x="304.615385" xlink:href="#m80f831b245" y="51.84"/>
      </g>
     </g>
    </g>
    <g id="xtick_16">
     <g id="line2d_46">
      <path clip-path="url(#pe8c0cf0cb8)" d="M 326.076923 384.48 
L 326.076923 51.84 
" style="fill:none;stroke:#808080;stroke-dasharray:0.74,0.32;stroke-dashoffset:0;stroke-width:0.2;"/>
     </g>
     <g id="line2d_47">
      <g>
       <use style="stroke:#000000;stroke-width:0.6;" x="326.076923" xlink:href="#mb3af1388b0" y="384.48"/>
      </g>
     </g>
     <g id="line2d_48">
      <g>
       <use style="stroke:#000000;stroke-width:0.6;" x="326.076923" xlink:href="#m80f831b245" y="51.84"/>
      </g>
     </g>
    </g>
    <g id="xtick_17">
     <g id="line2d_49">
      <path clip-path="url(#pe8c0cf0cb8)" d="M 369 384.48 
L 369 51.84 
" style="fill:none;stroke:#808080;stroke-dasharray:0.74,0.32;stroke-dashoffset:0;stroke-width:0.2;"/>
     </g>
     <g id="line2d_50">
      <g>
       <use style="stroke:#000000;stroke-width:0.6;" x="369" xlink:href="#mb3af1388b0" y="384.48"/>
      </g>
     </g>
     <g id="line2d_51">
      <g>
       <use style="stroke:#000000;stroke-width:0.6;" x="369" xlink:href="#m80f831b245" y="51.84"/>
      </g>
     </g>
    </g>
    <g id="xtick_18">
     <g id="line2d_52">
      <path clip-path="url(#pe8c0cf0cb8)" d="M 390.461538 384.48 
L 390.461538 51.84 
" style="fill:none;stroke:#808080;stroke-dasharray:0.74,0.32;stroke-dashoffset:0;stroke-width:0.2;"/>
     </g>
     <g id="line2d_53">
      <g>
       <use style="stroke:#000000;stroke-width:0.6;" x="390.461538" xlink:href="#mb3af1388b0" y="384.48"/>
      </g>
     </g>
     <g id="line2d_54">
      <g>
       <use style="stroke:#000000;stroke-width:0.6;" x="390.461538" xlink:href="#m80f831b245" y="51.84"/>
      </g>
     </g>
    </g>
    <g id="xtick_19">
     <g id="line2d_55">
      <path clip-path="url(#pe8c0cf0cb8)" d="M 411.923077 384.48 
L 411.923077 51.84 
" style="fill:none;stroke:#808080;stroke-dasharray:0.74,0.32;stroke-dashoffset:0;stroke-width:0.2;"/>
     </g>
     <g id="line2d_56">
      <g>
       <use style="stroke:#000000;stroke-width:0.6;" x="411.923077" xlink:href="#mb3af1388b0" y="384.48"/>
      </g>
     </g>
     <g id="line2d_57">
      <g>
       <use style="stroke:#000000;stroke-width:0.6;" x="411.923077" xlink:href="#m80f831b245" y="51.84"/>
      </g>
     </g>
    </g>
    <g id="xtick_20">
     <g id="line2d_58">
      <path clip-path="url(#pe8c0cf0cb8)" d="M 454.846154 384.48 
L 454.846154 51.84 
" style="fill:none;stroke:#808080;stroke-dasharray:0.74,0.32;stroke-dashoffset:0;stroke-width:0.2;"/>
     </g>
     <g id="line2d_59">
      <g>
       <use style="stroke:#000000;stroke-width:0.6;" x="454.846154" xlink:href="#mb3af1388b0" y="384.48"/>
      </g>
     </g>
     <g id="line2d_60">
      <g>
       <use style="stroke:#000000;stroke-width:0.6;" x="454.846154" xlink:href="#m80f831b245" y="51.84"/>
      </g>
     </g>
    </g>
    <g id="xtick_21">
     <g id="line2d_61">
      <path clip-path="url(#pe8c0cf0cb8)" d="M 476.307692 384.48 
L 476.307692 51.84 
" style="fill:none;stroke:#808080;stroke-dasharray:0.74,0.32;stroke-dashoffset:0;stroke-width:0.2;"/>
     </g>
     <g id="line2d_62">
      <g>
       <use style="stroke:#000000;stroke-width:0.6;" x="476.307692" xlink:href="#mb3af1388b0" y="384.48"/>
      </g>
     </g>
     <g id="line2d_63">
      <g>
       <use style="stroke:#000000;stroke-width:0.6;" x="476.307692" xlink:href="#m80f831b245" y="51.84"/>
      </g>
     </g>
    </g>
    <g id="xtick_22">
     <g id="line2d_64">
      <path clip-path="url(#pe8c0cf0cb8)" d="M 497.769231 384.48 
L 497.769231 51.84 
" style="fill:none;stroke:#808080;stroke-dasharray:0.74,0.32;stroke-dashoffset:0;stroke-width:0.2;"/>
     </g>
     <g id="line2d_65">
      <g>
       <use style="stroke:#000000;stroke-width:0.6;" x="497.769231" xlink:href="#mb3af1388b0" y="384.48"/>
      </g>
     </g>
     <g id="line2d_66">
      <g>
       <use style="stroke:#000000;stroke-width:0.6;" x="497.769231" xlink:href="#m80f831b245" y="51.84"/>
      </g>
     </g>
    </g>
    <g id="xtick_23">
     <g id="line2d_67">
      <path clip-path="url(#pe8c0cf0cb8)" d="M 540.692308 384.48 
L 540.692308 51.84 
" style="fill:none;stroke:#808080;stroke-dasharray:0.74,0.32;stroke-dashoffset:0;stroke-width:0.2;"/>
     </g>
     <g id="line2d_68">
      <g>
       <use style="stroke:#000000;stroke-width:0.6;" x="540.692308" xlink:href="#mb3af1388b0" y="384.48"/>
      </g>
     </g>
     <g id="line2d_69">
      <g>
       <use style="stroke:#000000;stroke-width:0.6;" x="540.692308" xlink:href="#m80f831b245" y="51.84"/>
      </g>
     </g>
    </g>
    <g id="xtick_24">
     <g id="line2d_70">
      <path clip-path="url(#pe8c0cf0cb8)" d="M 562.153846 384.48 
L 562.153846 51.84 
" style="fill:none;stroke:#808080;stroke-dasharray:0.74,0.32;stroke-dashoffset:0;stroke-width:0.2;"/>
     </g>
     <g id="line2d_71">
      <g>
       <use style="stroke:#000000;stroke-width:0.6;" x="562.153846" xlink:href="#mb3af1388b0" y="384.48"/>
      </g>
     </g>
     <g id="line2d_72">
      <g>
       <use style="stroke:#000000;stroke-width:0.6;" x="562.153846" xlink:href="#m80f831b245" y="51.84"/>
      </g>
     </g>
    </g>
    <g id="xtick_25">
     <g id="line2d_73">
      <path clip-path="url(#pe8c0cf0cb8)" d="M 583.615385 384.48 
L 583.615385 51.84 
" style="fill:none;stroke:#808080;stroke-dasharray:0.74,0.32;stroke-dashoffset:0;stroke-width:0.2;"/>
     </g>
     <g id="line2d_74">
      <g>
       <use style="stroke:#000000;stroke-width:0.6;" x="583.615385" xlink:href="#mb3af1388b0" y="384.48"/>
      </g>
     </g>
     <g id="line2d_75">
      <g>
       <use style="stroke:#000000;stroke-width:0.6;" x="583.615385" xlink:href="#m80f831b245" y="51.84"/>
      </g>
     </g>
    </g>
    <g id="xtick_26">
     <g id="line2d_76">
      <path clip-path="url(#pe8c0cf0cb8)" d="M 626.538462 384.48 
L 626.538462 51.84 
" style="fill:none;stroke:#808080;stroke-dasharray:0.74,0.32;stroke-dashoffset:0;stroke-width:0.2;"/>
     </g>
     <g id="line2d_77">
      <g>
       <use style="stroke:#000000;stroke-width:0.6;" x="626.538462" xlink:href="#mb3af1388b0" y="384.48"/>
      </g>
     </g>
     <g id="line2d_78">
      <g>
       <use style="stroke:#000000;stroke-width:0.6;" x="626.538462" xlink:href="#m80f831b245" y="51.84"/>
      </g>
     </g>
    </g>
    <g id="xtick_27">
     <g id="line2d_79">
      <path clip-path="url(#pe8c0cf0cb8)" d="M 648 384.48 
L 648 51.84 
" style="fill:none;stroke:#808080;stroke-dasharray:0.74,0.32;stroke-dashoffset:0;stroke-width:0.2;"/>
     </g>
     <g id="line2d_80">
      <g>
       <use style="stroke:#000000;stroke-width:0.6;" x="648" xlink:href="#mb3af1388b0" y="384.48"/>
      </g>
     </g>
     <g id="line2d_81">
      <g>
       <use style="stroke:#000000;stroke-width:0.6;" x="648" xlink:href="#m80f831b245" y="51.84"/>
      </g>
     </g>
    </g>
    <g id="text_8">
     <!-- Hours -->
     <g transform="translate(350.061665 415.641194)scale(0.15 -0.15)">
      <defs>
       <path d="M 3590 3905 
C 3590 4192 3661 4192 4102 4192 
L 4102 4352 
C 3917 4352 3578 4352 3379 4352 
C 3181 4352 2842 4352 2656 4352 
L 2656 4192 
C 3098 4192 3168 4192 3168 3904 
L 3168 2341 
L 1261 2341 
L 1261 3904 
C 1261 4192 1331 4192 1773 4192 
L 1773 4352 
C 1587 4352 1248 4352 1050 4352 
C 851 4352 512 4352 326 4352 
L 326 4192 
C 768 4192 838 4192 838 3905 
L 838 447 
C 838 160 768 160 326 160 
L 326 0 
C 512 0 851 0 1050 0 
C 1248 0 1587 0 1773 0 
L 1773 160 
C 1331 160 1261 160 1261 446 
L 1261 2176 
L 3168 2176 
L 3168 446 
C 3168 160 3098 160 2656 160 
L 2656 0 
C 2842 0 3181 0 3379 0 
C 3578 0 3917 0 4102 0 
L 4102 160 
C 3661 160 3590 160 3590 447 
L 3590 3905 
z
" id="CMR17-48" transform="scale(0.015625)"/>
       <path d="M 2758 1356 
C 2758 2176 2163 2816 1466 2816 
C 768 2816 173 2176 173 1356 
C 173 551 768 -64 1466 -64 
C 2163 -64 2758 551 2758 1356 
z
M 1466 51 
C 1165 51 909 230 762 480 
C 602 767 582 1126 582 1408 
C 582 1677 595 2010 762 2298 
C 890 2509 1139 2714 1466 2714 
C 1754 2714 1997 2554 2150 2330 
C 2349 2029 2349 1607 2349 1408 
C 2349 1158 2336 775 2163 467 
C 1984 173 1709 51 1466 51 
z
" id="CMR17-6f" transform="scale(0.015625)"/>
       <path d="M 1882 2693 
L 1882 2528 
C 2259 2528 2317 2489 2317 2186 
L 2317 1032 
C 2317 500 2029 38 1555 38 
C 1030 38 986 348 986 678 
L 986 2763 
L 211 2693 
L 211 2528 
C 467 2528 640 2528 646 2274 
L 646 1058 
C 646 633 646 361 813 183 
C 896 101 1056 -64 1517 -64 
C 2061 -64 2272 377 2323 506 
L 2330 506 
L 2330 -63 
L 3091 -63 
L 3091 128 
C 2714 128 2656 166 2656 473 
L 2656 2763 
L 1882 2693 
z
" id="CMR17-75" transform="scale(0.015625)"/>
       <path d="M 960 1497 
C 960 2112 1222 2688 1702 2688 
C 1747 2688 1792 2682 1837 2662 
C 1837 2662 1696 2617 1696 2452 
C 1696 2298 1818 2234 1914 2234 
C 1990 2234 2131 2279 2131 2458 
C 2131 2663 1926 2790 1709 2790 
C 1222 2790 1011 2317 947 2093 
L 941 2093 
L 941 2790 
L 198 2720 
L 198 2554 
C 576 2554 634 2515 634 2208 
L 634 428 
C 634 184 608 153 198 153 
L 198 -13 
C 352 0 646 0 813 0 
C 998 0 1325 0 1498 -13 
L 1498 153 
C 1037 153 960 153 960 440 
L 960 1497 
z
" id="CMR17-72" transform="scale(0.015625)"/>
       <path d="M 1978 2697 
C 1978 2813 1971 2819 1933 2819 
C 1907 2819 1901 2813 1824 2717 
C 1805 2691 1747 2626 1728 2601 
C 1523 2819 1235 2819 1126 2819 
C 416 2819 160 2447 160 2076 
C 160 1498 813 1365 998 1325 
C 1402 1243 1542 1217 1677 1101 
C 1760 1025 1901 884 1901 654 
C 1901 384 1747 38 1158 38 
C 602 38 403 460 288 1021 
C 269 1110 269 1117 218 1117 
C 166 1117 160 1110 160 983 
L 160 63 
C 160 -51 166 -58 205 -58 
C 237 -58 243 -51 275 0 
C 314 57 410 211 448 276 
C 576 103 800 -64 1158 -64 
C 1792 -64 2131 283 2131 784 
C 2131 1112 1958 1285 1875 1362 
C 1683 1561 1459 1606 1190 1657 
C 838 1735 390 1825 390 2217 
C 390 2383 480 2737 1126 2737 
C 1811 2737 1850 2094 1862 1888 
C 1869 1856 1901 1849 1920 1849 
C 1978 1849 1978 1869 1978 1978 
L 1978 2697 
z
" id="CMR17-73" transform="scale(0.015625)"/>
      </defs>
      <use transform="scale(0.996264)" xlink:href="#CMR17-48"/>
      <use transform="translate(69.07243 0)scale(0.996264)" xlink:href="#CMR17-6f"/>
      <use transform="translate(114.762907 0)scale(0.996264)" xlink:href="#CMR17-75"/>
      <use transform="translate(165.658277 0)scale(0.996264)" xlink:href="#CMR17-72"/>
      <use transform="translate(200.939045 0)scale(0.996264)" xlink:href="#CMR17-73"/>
     </g>
    </g>
   </g>
   <g id="matplotlib.axis_2">
    <g id="ytick_1">
     <g id="line2d_82">
      <path clip-path="url(#pe8c0cf0cb8)" d="M 90 349.465263 
L 648 349.465263 
" style="fill:none;stroke:#808080;stroke-linecap:square;stroke-width:0.4;"/>
     </g>
     <g id="line2d_83">
      <defs>
       <path d="M 0 0 
L 3.5 0 
" id="mbcb2dc7a7e" style="stroke:#000000;stroke-width:0.8;"/>
      </defs>
      <g>
       <use style="stroke:#000000;stroke-width:0.8;" x="90" xlink:href="#mbcb2dc7a7e" y="349.465263"/>
      </g>
     </g>
     <g id="line2d_84">
      <defs>
       <path d="M 0 0 
L -3.5 0 
" id="m7d1e4d2982" style="stroke:#000000;stroke-width:0.8;"/>
      </defs>
      <g>
       <use style="stroke:#000000;stroke-width:0.8;" x="648" xlink:href="#m7d1e4d2982" y="349.465263"/>
      </g>
     </g>
     <g id="text_9">
      <!-- $\mathdefault{2.0}$ -->
      <g transform="translate(67.802948 354.654126)scale(0.15 -0.15)">
       <defs>
        <path d="M 1178 307 
C 1178 492 1024 619 870 619 
C 685 619 557 466 557 313 
C 557 128 710 0 864 0 
C 1050 0 1178 153 1178 307 
z
" id="CMMI12-3a" transform="scale(0.015625)"/>
       </defs>
       <use transform="scale(0.996264)" xlink:href="#CMR17-32"/>
       <use transform="translate(45.690477 0)scale(0.996264)" xlink:href="#CMMI12-3a"/>
       <use transform="translate(72.787654 0)scale(0.996264)" xlink:href="#CMR17-30"/>
      </g>
     </g>
    </g>
    <g id="ytick_2">
     <g id="line2d_85">
      <path clip-path="url(#pe8c0cf0cb8)" d="M 90 305.696842 
L 648 305.696842 
" style="fill:none;stroke:#808080;stroke-linecap:square;stroke-width:0.4;"/>
     </g>
     <g id="line2d_86">
      <g>
       <use style="stroke:#000000;stroke-width:0.8;" x="90" xlink:href="#mbcb2dc7a7e" y="305.696842"/>
      </g>
     </g>
     <g id="line2d_87">
      <g>
       <use style="stroke:#000000;stroke-width:0.8;" x="648" xlink:href="#m7d1e4d2982" y="305.696842"/>
      </g>
     </g>
     <g id="text_10">
      <!-- $\mathdefault{2.5}$ -->
      <g transform="translate(67.802948 310.885704)scale(0.15 -0.15)">
       <defs>
        <path d="M 730 3692 
C 794 3666 1056 3584 1325 3584 
C 1920 3584 2246 3911 2432 4100 
C 2432 4157 2432 4192 2394 4192 
C 2387 4192 2374 4192 2323 4163 
C 2099 4058 1837 3973 1517 3973 
C 1325 3973 1037 3999 723 4139 
C 653 4171 640 4171 634 4171 
C 602 4171 595 4164 595 4037 
L 595 2203 
C 595 2089 595 2057 659 2057 
C 691 2057 704 2070 736 2114 
C 941 2401 1222 2522 1542 2522 
C 1766 2522 2246 2382 2246 1289 
C 2246 1085 2246 715 2054 421 
C 1894 159 1645 25 1370 25 
C 947 25 518 320 403 814 
C 429 807 480 795 506 795 
C 589 795 749 840 749 1038 
C 749 1210 627 1280 506 1280 
C 358 1280 262 1190 262 1011 
C 262 454 704 -128 1382 -128 
C 2042 -128 2669 440 2669 1264 
C 2669 2030 2170 2624 1549 2624 
C 1222 2624 947 2503 730 2274 
L 730 3692 
z
" id="CMR17-35" transform="scale(0.015625)"/>
       </defs>
       <use transform="scale(0.996264)" xlink:href="#CMR17-32"/>
       <use transform="translate(45.690477 0)scale(0.996264)" xlink:href="#CMMI12-3a"/>
       <use transform="translate(72.787654 0)scale(0.996264)" xlink:href="#CMR17-35"/>
      </g>
     </g>
    </g>
    <g id="ytick_3">
     <g id="line2d_88">
      <path clip-path="url(#pe8c0cf0cb8)" d="M 90 261.928421 
L 648 261.928421 
" style="fill:none;stroke:#808080;stroke-linecap:square;stroke-width:0.4;"/>
     </g>
     <g id="line2d_89">
      <g>
       <use style="stroke:#000000;stroke-width:0.8;" x="90" xlink:href="#mbcb2dc7a7e" y="261.928421"/>
      </g>
     </g>
     <g id="line2d_90">
      <g>
       <use style="stroke:#000000;stroke-width:0.8;" x="648" xlink:href="#m7d1e4d2982" y="261.928421"/>
      </g>
     </g>
     <g id="text_11">
      <!-- $\mathdefault{3.0}$ -->
      <g transform="translate(67.802948 267.117283)scale(0.15 -0.15)">
       <defs>
        <path d="M 1414 2157 
C 1984 2157 2234 1662 2234 1090 
C 2234 320 1824 25 1453 25 
C 1114 25 563 194 390 693 
C 422 680 454 680 486 680 
C 640 680 755 782 755 948 
C 755 1133 614 1216 486 1216 
C 378 1216 211 1165 211 926 
C 211 335 787 -128 1466 -128 
C 2176 -128 2720 430 2720 1085 
C 2720 1707 2208 2157 1600 2227 
C 2086 2328 2554 2756 2554 3329 
C 2554 3820 2048 4179 1472 4179 
C 890 4179 378 3829 378 3329 
C 378 3110 544 3072 627 3072 
C 762 3072 877 3155 877 3321 
C 877 3486 762 3569 627 3569 
C 602 3569 570 3569 544 3557 
C 730 3959 1235 4032 1459 4032 
C 1683 4032 2106 3925 2106 3320 
C 2106 3143 2080 2828 1862 2550 
C 1670 2304 1453 2304 1242 2284 
C 1210 2284 1062 2269 1037 2269 
C 992 2263 966 2257 966 2208 
C 966 2163 973 2157 1101 2157 
L 1414 2157 
z
" id="CMR17-33" transform="scale(0.015625)"/>
       </defs>
       <use transform="scale(0.996264)" xlink:href="#CMR17-33"/>
       <use transform="translate(45.690477 0)scale(0.996264)" xlink:href="#CMMI12-3a"/>
       <use transform="translate(72.787654 0)scale(0.996264)" xlink:href="#CMR17-30"/>
      </g>
     </g>
    </g>
    <g id="ytick_4">
     <g id="line2d_91">
      <path clip-path="url(#pe8c0cf0cb8)" d="M 90 218.16 
L 648 218.16 
" style="fill:none;stroke:#808080;stroke-linecap:square;stroke-width:0.4;"/>
     </g>
     <g id="line2d_92">
      <g>
       <use style="stroke:#000000;stroke-width:0.8;" x="90" xlink:href="#mbcb2dc7a7e" y="218.16"/>
      </g>
     </g>
     <g id="line2d_93">
      <g>
       <use style="stroke:#000000;stroke-width:0.8;" x="648" xlink:href="#m7d1e4d2982" y="218.16"/>
      </g>
     </g>
     <g id="text_12">
      <!-- $\mathdefault{3.5}$ -->
      <g transform="translate(67.802948 223.348862)scale(0.15 -0.15)">
       <use transform="scale(0.996264)" xlink:href="#CMR17-33"/>
       <use transform="translate(45.690477 0)scale(0.996264)" xlink:href="#CMMI12-3a"/>
       <use transform="translate(72.787654 0)scale(0.996264)" xlink:href="#CMR17-35"/>
      </g>
     </g>
    </g>
    <g id="ytick_5">
     <g id="line2d_94">
      <path clip-path="url(#pe8c0cf0cb8)" d="M 90 174.391579 
L 648 174.391579 
" style="fill:none;stroke:#808080;stroke-linecap:square;stroke-width:0.4;"/>
     </g>
     <g id="line2d_95">
      <g>
       <use style="stroke:#000000;stroke-width:0.8;" x="90" xlink:href="#mbcb2dc7a7e" y="174.391579"/>
      </g>
     </g>
     <g id="line2d_96">
      <g>
       <use style="stroke:#000000;stroke-width:0.8;" x="648" xlink:href="#m7d1e4d2982" y="174.391579"/>
      </g>
     </g>
     <g id="text_13">
      <!-- $\mathdefault{4.0}$ -->
      <g transform="translate(67.802948 179.580441)scale(0.15 -0.15)">
       <use transform="scale(0.996264)" xlink:href="#CMR17-34"/>
       <use transform="translate(45.690477 0)scale(0.996264)" xlink:href="#CMMI12-3a"/>
       <use transform="translate(72.787654 0)scale(0.996264)" xlink:href="#CMR17-30"/>
      </g>
     </g>
    </g>
    <g id="ytick_6">
     <g id="line2d_97">
      <path clip-path="url(#pe8c0cf0cb8)" d="M 90 130.623158 
L 648 130.623158 
" style="fill:none;stroke:#808080;stroke-linecap:square;stroke-width:0.4;"/>
     </g>
     <g id="line2d_98">
      <g>
       <use style="stroke:#000000;stroke-width:0.8;" x="90" xlink:href="#mbcb2dc7a7e" y="130.623158"/>
      </g>
     </g>
     <g id="line2d_99">
      <g>
       <use style="stroke:#000000;stroke-width:0.8;" x="648" xlink:href="#m7d1e4d2982" y="130.623158"/>
      </g>
     </g>
     <g id="text_14">
      <!-- $\mathdefault{4.5}$ -->
      <g transform="translate(67.802948 135.81202)scale(0.15 -0.15)">
       <use transform="scale(0.996264)" xlink:href="#CMR17-34"/>
       <use transform="translate(45.690477 0)scale(0.996264)" xlink:href="#CMMI12-3a"/>
       <use transform="translate(72.787654 0)scale(0.996264)" xlink:href="#CMR17-35"/>
      </g>
     </g>
    </g>
    <g id="ytick_7">
     <g id="line2d_100">
      <path clip-path="url(#pe8c0cf0cb8)" d="M 90 86.854737 
L 648 86.854737 
" style="fill:none;stroke:#808080;stroke-linecap:square;stroke-width:0.4;"/>
     </g>
     <g id="line2d_101">
      <g>
       <use style="stroke:#000000;stroke-width:0.8;" x="90" xlink:href="#mbcb2dc7a7e" y="86.854737"/>
      </g>
     </g>
     <g id="line2d_102">
      <g>
       <use style="stroke:#000000;stroke-width:0.8;" x="648" xlink:href="#m7d1e4d2982" y="86.854737"/>
      </g>
     </g>
     <g id="text_15">
      <!-- $\mathdefault{5.0}$ -->
      <g transform="translate(67.802948 92.043599)scale(0.15 -0.15)">
       <use transform="scale(0.996264)" xlink:href="#CMR17-35"/>
       <use transform="translate(45.690477 0)scale(0.996264)" xlink:href="#CMMI12-3a"/>
       <use transform="translate(72.787654 0)scale(0.996264)" xlink:href="#CMR17-30"/>
      </g>
     </g>
    </g>
    <g id="ytick_8">
     <g id="line2d_103">
      <path clip-path="url(#pe8c0cf0cb8)" d="M 90 375.726316 
L 648 375.726316 
" style="fill:none;stroke:#808080;stroke-dasharray:0.74,0.32;stroke-dashoffset:0;stroke-width:0.2;"/>
     </g>
     <g id="line2d_104">
      <defs>
       <path d="M 0 0 
L 2 0 
" id="mc81cda8320" style="stroke:#000000;stroke-width:0.6;"/>
      </defs>
      <g>
       <use style="stroke:#000000;stroke-width:0.6;" x="90" xlink:href="#mc81cda8320" y="375.726316"/>
      </g>
     </g>
     <g id="line2d_105">
      <defs>
       <path d="M 0 0 
L -2 0 
" id="m8d3b21f7ef" style="stroke:#000000;stroke-width:0.6;"/>
      </defs>
      <g>
       <use style="stroke:#000000;stroke-width:0.6;" x="648" xlink:href="#m8d3b21f7ef" y="375.726316"/>
      </g>
     </g>
    </g>
    <g id="ytick_9">
     <g id="line2d_106">
      <path clip-path="url(#pe8c0cf0cb8)" d="M 90 366.972632 
L 648 366.972632 
" style="fill:none;stroke:#808080;stroke-dasharray:0.74,0.32;stroke-dashoffset:0;stroke-width:0.2;"/>
     </g>
     <g id="line2d_107">
      <g>
       <use style="stroke:#000000;stroke-width:0.6;" x="90" xlink:href="#mc81cda8320" y="366.972632"/>
      </g>
     </g>
     <g id="line2d_108">
      <g>
       <use style="stroke:#000000;stroke-width:0.6;" x="648" xlink:href="#m8d3b21f7ef" y="366.972632"/>
      </g>
     </g>
    </g>
    <g id="ytick_10">
     <g id="line2d_109">
      <path clip-path="url(#pe8c0cf0cb8)" d="M 90 358.218947 
L 648 358.218947 
" style="fill:none;stroke:#808080;stroke-dasharray:0.74,0.32;stroke-dashoffset:0;stroke-width:0.2;"/>
     </g>
     <g id="line2d_110">
      <g>
       <use style="stroke:#000000;stroke-width:0.6;" x="90" xlink:href="#mc81cda8320" y="358.218947"/>
      </g>
     </g>
     <g id="line2d_111">
      <g>
       <use style="stroke:#000000;stroke-width:0.6;" x="648" xlink:href="#m8d3b21f7ef" y="358.218947"/>
      </g>
     </g>
    </g>
    <g id="ytick_11">
     <g id="line2d_112">
      <path clip-path="url(#pe8c0cf0cb8)" d="M 90 340.711579 
L 648 340.711579 
" style="fill:none;stroke:#808080;stroke-dasharray:0.74,0.32;stroke-dashoffset:0;stroke-width:0.2;"/>
     </g>
     <g id="line2d_113">
      <g>
       <use style="stroke:#000000;stroke-width:0.6;" x="90" xlink:href="#mc81cda8320" y="340.711579"/>
      </g>
     </g>
     <g id="line2d_114">
      <g>
       <use style="stroke:#000000;stroke-width:0.6;" x="648" xlink:href="#m8d3b21f7ef" y="340.711579"/>
      </g>
     </g>
    </g>
    <g id="ytick_12">
     <g id="line2d_115">
      <path clip-path="url(#pe8c0cf0cb8)" d="M 90 331.957895 
L 648 331.957895 
" style="fill:none;stroke:#808080;stroke-dasharray:0.74,0.32;stroke-dashoffset:0;stroke-width:0.2;"/>
     </g>
     <g id="line2d_116">
      <g>
       <use style="stroke:#000000;stroke-width:0.6;" x="90" xlink:href="#mc81cda8320" y="331.957895"/>
      </g>
     </g>
     <g id="line2d_117">
      <g>
       <use style="stroke:#000000;stroke-width:0.6;" x="648" xlink:href="#m8d3b21f7ef" y="331.957895"/>
      </g>
     </g>
    </g>
    <g id="ytick_13">
     <g id="line2d_118">
      <path clip-path="url(#pe8c0cf0cb8)" d="M 90 323.204211 
L 648 323.204211 
" style="fill:none;stroke:#808080;stroke-dasharray:0.74,0.32;stroke-dashoffset:0;stroke-width:0.2;"/>
     </g>
     <g id="line2d_119">
      <g>
       <use style="stroke:#000000;stroke-width:0.6;" x="90" xlink:href="#mc81cda8320" y="323.204211"/>
      </g>
     </g>
     <g id="line2d_120">
      <g>
       <use style="stroke:#000000;stroke-width:0.6;" x="648" xlink:href="#m8d3b21f7ef" y="323.204211"/>
      </g>
     </g>
    </g>
    <g id="ytick_14">
     <g id="line2d_121">
      <path clip-path="url(#pe8c0cf0cb8)" d="M 90 314.450526 
L 648 314.450526 
" style="fill:none;stroke:#808080;stroke-dasharray:0.74,0.32;stroke-dashoffset:0;stroke-width:0.2;"/>
     </g>
     <g id="line2d_122">
      <g>
       <use style="stroke:#000000;stroke-width:0.6;" x="90" xlink:href="#mc81cda8320" y="314.450526"/>
      </g>
     </g>
     <g id="line2d_123">
      <g>
       <use style="stroke:#000000;stroke-width:0.6;" x="648" xlink:href="#m8d3b21f7ef" y="314.450526"/>
      </g>
     </g>
    </g>
    <g id="ytick_15">
     <g id="line2d_124">
      <path clip-path="url(#pe8c0cf0cb8)" d="M 90 296.943158 
L 648 296.943158 
" style="fill:none;stroke:#808080;stroke-dasharray:0.74,0.32;stroke-dashoffset:0;stroke-width:0.2;"/>
     </g>
     <g id="line2d_125">
      <g>
       <use style="stroke:#000000;stroke-width:0.6;" x="90" xlink:href="#mc81cda8320" y="296.943158"/>
      </g>
     </g>
     <g id="line2d_126">
      <g>
       <use style="stroke:#000000;stroke-width:0.6;" x="648" xlink:href="#m8d3b21f7ef" y="296.943158"/>
      </g>
     </g>
    </g>
    <g id="ytick_16">
     <g id="line2d_127">
      <path clip-path="url(#pe8c0cf0cb8)" d="M 90 288.189474 
L 648 288.189474 
" style="fill:none;stroke:#808080;stroke-dasharray:0.74,0.32;stroke-dashoffset:0;stroke-width:0.2;"/>
     </g>
     <g id="line2d_128">
      <g>
       <use style="stroke:#000000;stroke-width:0.6;" x="90" xlink:href="#mc81cda8320" y="288.189474"/>
      </g>
     </g>
     <g id="line2d_129">
      <g>
       <use style="stroke:#000000;stroke-width:0.6;" x="648" xlink:href="#m8d3b21f7ef" y="288.189474"/>
      </g>
     </g>
    </g>
    <g id="ytick_17">
     <g id="line2d_130">
      <path clip-path="url(#pe8c0cf0cb8)" d="M 90 279.435789 
L 648 279.435789 
" style="fill:none;stroke:#808080;stroke-dasharray:0.74,0.32;stroke-dashoffset:0;stroke-width:0.2;"/>
     </g>
     <g id="line2d_131">
      <g>
       <use style="stroke:#000000;stroke-width:0.6;" x="90" xlink:href="#mc81cda8320" y="279.435789"/>
      </g>
     </g>
     <g id="line2d_132">
      <g>
       <use style="stroke:#000000;stroke-width:0.6;" x="648" xlink:href="#m8d3b21f7ef" y="279.435789"/>
      </g>
     </g>
    </g>
    <g id="ytick_18">
     <g id="line2d_133">
      <path clip-path="url(#pe8c0cf0cb8)" d="M 90 270.682105 
L 648 270.682105 
" style="fill:none;stroke:#808080;stroke-dasharray:0.74,0.32;stroke-dashoffset:0;stroke-width:0.2;"/>
     </g>
     <g id="line2d_134">
      <g>
       <use style="stroke:#000000;stroke-width:0.6;" x="90" xlink:href="#mc81cda8320" y="270.682105"/>
      </g>
     </g>
     <g id="line2d_135">
      <g>
       <use style="stroke:#000000;stroke-width:0.6;" x="648" xlink:href="#m8d3b21f7ef" y="270.682105"/>
      </g>
     </g>
    </g>
    <g id="ytick_19">
     <g id="line2d_136">
      <path clip-path="url(#pe8c0cf0cb8)" d="M 90 253.174737 
L 648 253.174737 
" style="fill:none;stroke:#808080;stroke-dasharray:0.74,0.32;stroke-dashoffset:0;stroke-width:0.2;"/>
     </g>
     <g id="line2d_137">
      <g>
       <use style="stroke:#000000;stroke-width:0.6;" x="90" xlink:href="#mc81cda8320" y="253.174737"/>
      </g>
     </g>
     <g id="line2d_138">
      <g>
       <use style="stroke:#000000;stroke-width:0.6;" x="648" xlink:href="#m8d3b21f7ef" y="253.174737"/>
      </g>
     </g>
    </g>
    <g id="ytick_20">
     <g id="line2d_139">
      <path clip-path="url(#pe8c0cf0cb8)" d="M 90 244.421053 
L 648 244.421053 
" style="fill:none;stroke:#808080;stroke-dasharray:0.74,0.32;stroke-dashoffset:0;stroke-width:0.2;"/>
     </g>
     <g id="line2d_140">
      <g>
       <use style="stroke:#000000;stroke-width:0.6;" x="90" xlink:href="#mc81cda8320" y="244.421053"/>
      </g>
     </g>
     <g id="line2d_141">
      <g>
       <use style="stroke:#000000;stroke-width:0.6;" x="648" xlink:href="#m8d3b21f7ef" y="244.421053"/>
      </g>
     </g>
    </g>
    <g id="ytick_21">
     <g id="line2d_142">
      <path clip-path="url(#pe8c0cf0cb8)" d="M 90 235.667368 
L 648 235.667368 
" style="fill:none;stroke:#808080;stroke-dasharray:0.74,0.32;stroke-dashoffset:0;stroke-width:0.2;"/>
     </g>
     <g id="line2d_143">
      <g>
       <use style="stroke:#000000;stroke-width:0.6;" x="90" xlink:href="#mc81cda8320" y="235.667368"/>
      </g>
     </g>
     <g id="line2d_144">
      <g>
       <use style="stroke:#000000;stroke-width:0.6;" x="648" xlink:href="#m8d3b21f7ef" y="235.667368"/>
      </g>
     </g>
    </g>
    <g id="ytick_22">
     <g id="line2d_145">
      <path clip-path="url(#pe8c0cf0cb8)" d="M 90 226.913684 
L 648 226.913684 
" style="fill:none;stroke:#808080;stroke-dasharray:0.74,0.32;stroke-dashoffset:0;stroke-width:0.2;"/>
     </g>
     <g id="line2d_146">
      <g>
       <use style="stroke:#000000;stroke-width:0.6;" x="90" xlink:href="#mc81cda8320" y="226.913684"/>
      </g>
     </g>
     <g id="line2d_147">
      <g>
       <use style="stroke:#000000;stroke-width:0.6;" x="648" xlink:href="#m8d3b21f7ef" y="226.913684"/>
      </g>
     </g>
    </g>
    <g id="ytick_23">
     <g id="line2d_148">
      <path clip-path="url(#pe8c0cf0cb8)" d="M 90 209.406316 
L 648 209.406316 
" style="fill:none;stroke:#808080;stroke-dasharray:0.74,0.32;stroke-dashoffset:0;stroke-width:0.2;"/>
     </g>
     <g id="line2d_149">
      <g>
       <use style="stroke:#000000;stroke-width:0.6;" x="90" xlink:href="#mc81cda8320" y="209.406316"/>
      </g>
     </g>
     <g id="line2d_150">
      <g>
       <use style="stroke:#000000;stroke-width:0.6;" x="648" xlink:href="#m8d3b21f7ef" y="209.406316"/>
      </g>
     </g>
    </g>
    <g id="ytick_24">
     <g id="line2d_151">
      <path clip-path="url(#pe8c0cf0cb8)" d="M 90 200.652632 
L 648 200.652632 
" style="fill:none;stroke:#808080;stroke-dasharray:0.74,0.32;stroke-dashoffset:0;stroke-width:0.2;"/>
     </g>
     <g id="line2d_152">
      <g>
       <use style="stroke:#000000;stroke-width:0.6;" x="90" xlink:href="#mc81cda8320" y="200.652632"/>
      </g>
     </g>
     <g id="line2d_153">
      <g>
       <use style="stroke:#000000;stroke-width:0.6;" x="648" xlink:href="#m8d3b21f7ef" y="200.652632"/>
      </g>
     </g>
    </g>
    <g id="ytick_25">
     <g id="line2d_154">
      <path clip-path="url(#pe8c0cf0cb8)" d="M 90 191.898947 
L 648 191.898947 
" style="fill:none;stroke:#808080;stroke-dasharray:0.74,0.32;stroke-dashoffset:0;stroke-width:0.2;"/>
     </g>
     <g id="line2d_155">
      <g>
       <use style="stroke:#000000;stroke-width:0.6;" x="90" xlink:href="#mc81cda8320" y="191.898947"/>
      </g>
     </g>
     <g id="line2d_156">
      <g>
       <use style="stroke:#000000;stroke-width:0.6;" x="648" xlink:href="#m8d3b21f7ef" y="191.898947"/>
      </g>
     </g>
    </g>
    <g id="ytick_26">
     <g id="line2d_157">
      <path clip-path="url(#pe8c0cf0cb8)" d="M 90 183.145263 
L 648 183.145263 
" style="fill:none;stroke:#808080;stroke-dasharray:0.74,0.32;stroke-dashoffset:0;stroke-width:0.2;"/>
     </g>
     <g id="line2d_158">
      <g>
       <use style="stroke:#000000;stroke-width:0.6;" x="90" xlink:href="#mc81cda8320" y="183.145263"/>
      </g>
     </g>
     <g id="line2d_159">
      <g>
       <use style="stroke:#000000;stroke-width:0.6;" x="648" xlink:href="#m8d3b21f7ef" y="183.145263"/>
      </g>
     </g>
    </g>
    <g id="ytick_27">
     <g id="line2d_160">
      <path clip-path="url(#pe8c0cf0cb8)" d="M 90 165.637895 
L 648 165.637895 
" style="fill:none;stroke:#808080;stroke-dasharray:0.74,0.32;stroke-dashoffset:0;stroke-width:0.2;"/>
     </g>
     <g id="line2d_161">
      <g>
       <use style="stroke:#000000;stroke-width:0.6;" x="90" xlink:href="#mc81cda8320" y="165.637895"/>
      </g>
     </g>
     <g id="line2d_162">
      <g>
       <use style="stroke:#000000;stroke-width:0.6;" x="648" xlink:href="#m8d3b21f7ef" y="165.637895"/>
      </g>
     </g>
    </g>
    <g id="ytick_28">
     <g id="line2d_163">
      <path clip-path="url(#pe8c0cf0cb8)" d="M 90 156.884211 
L 648 156.884211 
" style="fill:none;stroke:#808080;stroke-dasharray:0.74,0.32;stroke-dashoffset:0;stroke-width:0.2;"/>
     </g>
     <g id="line2d_164">
      <g>
       <use style="stroke:#000000;stroke-width:0.6;" x="90" xlink:href="#mc81cda8320" y="156.884211"/>
      </g>
     </g>
     <g id="line2d_165">
      <g>
       <use style="stroke:#000000;stroke-width:0.6;" x="648" xlink:href="#m8d3b21f7ef" y="156.884211"/>
      </g>
     </g>
    </g>
    <g id="ytick_29">
     <g id="line2d_166">
      <path clip-path="url(#pe8c0cf0cb8)" d="M 90 148.130526 
L 648 148.130526 
" style="fill:none;stroke:#808080;stroke-dasharray:0.74,0.32;stroke-dashoffset:0;stroke-width:0.2;"/>
     </g>
     <g id="line2d_167">
      <g>
       <use style="stroke:#000000;stroke-width:0.6;" x="90" xlink:href="#mc81cda8320" y="148.130526"/>
      </g>
     </g>
     <g id="line2d_168">
      <g>
       <use style="stroke:#000000;stroke-width:0.6;" x="648" xlink:href="#m8d3b21f7ef" y="148.130526"/>
      </g>
     </g>
    </g>
    <g id="ytick_30">
     <g id="line2d_169">
      <path clip-path="url(#pe8c0cf0cb8)" d="M 90 139.376842 
L 648 139.376842 
" style="fill:none;stroke:#808080;stroke-dasharray:0.74,0.32;stroke-dashoffset:0;stroke-width:0.2;"/>
     </g>
     <g id="line2d_170">
      <g>
       <use style="stroke:#000000;stroke-width:0.6;" x="90" xlink:href="#mc81cda8320" y="139.376842"/>
      </g>
     </g>
     <g id="line2d_171">
      <g>
       <use style="stroke:#000000;stroke-width:0.6;" x="648" xlink:href="#m8d3b21f7ef" y="139.376842"/>
      </g>
     </g>
    </g>
    <g id="ytick_31">
     <g id="line2d_172">
      <path clip-path="url(#pe8c0cf0cb8)" d="M 90 121.869474 
L 648 121.869474 
" style="fill:none;stroke:#808080;stroke-dasharray:0.74,0.32;stroke-dashoffset:0;stroke-width:0.2;"/>
     </g>
     <g id="line2d_173">
      <g>
       <use style="stroke:#000000;stroke-width:0.6;" x="90" xlink:href="#mc81cda8320" y="121.869474"/>
      </g>
     </g>
     <g id="line2d_174">
      <g>
       <use style="stroke:#000000;stroke-width:0.6;" x="648" xlink:href="#m8d3b21f7ef" y="121.869474"/>
      </g>
     </g>
    </g>
    <g id="ytick_32">
     <g id="line2d_175">
      <path clip-path="url(#pe8c0cf0cb8)" d="M 90 113.115789 
L 648 113.115789 
" style="fill:none;stroke:#808080;stroke-dasharray:0.74,0.32;stroke-dashoffset:0;stroke-width:0.2;"/>
     </g>
     <g id="line2d_176">
      <g>
       <use style="stroke:#000000;stroke-width:0.6;" x="90" xlink:href="#mc81cda8320" y="113.115789"/>
      </g>
     </g>
     <g id="line2d_177">
      <g>
       <use style="stroke:#000000;stroke-width:0.6;" x="648" xlink:href="#m8d3b21f7ef" y="113.115789"/>
      </g>
     </g>
    </g>
    <g id="ytick_33">
     <g id="line2d_178">
      <path clip-path="url(#pe8c0cf0cb8)" d="M 90 104.362105 
L 648 104.362105 
" style="fill:none;stroke:#808080;stroke-dasharray:0.74,0.32;stroke-dashoffset:0;stroke-width:0.2;"/>
     </g>
     <g id="line2d_179">
      <g>
       <use style="stroke:#000000;stroke-width:0.6;" x="90" xlink:href="#mc81cda8320" y="104.362105"/>
      </g>
     </g>
     <g id="line2d_180">
      <g>
       <use style="stroke:#000000;stroke-width:0.6;" x="648" xlink:href="#m8d3b21f7ef" y="104.362105"/>
      </g>
     </g>
    </g>
    <g id="ytick_34">
     <g id="line2d_181">
      <path clip-path="url(#pe8c0cf0cb8)" d="M 90 95.608421 
L 648 95.608421 
" style="fill:none;stroke:#808080;stroke-dasharray:0.74,0.32;stroke-dashoffset:0;stroke-width:0.2;"/>
     </g>
     <g id="line2d_182">
      <g>
       <use style="stroke:#000000;stroke-width:0.6;" x="90" xlink:href="#mc81cda8320" y="95.608421"/>
      </g>
     </g>
     <g id="line2d_183">
      <g>
       <use style="stroke:#000000;stroke-width:0.6;" x="648" xlink:href="#m8d3b21f7ef" y="95.608421"/>
      </g>
     </g>
    </g>
    <g id="ytick_35">
     <g id="line2d_184">
      <path clip-path="url(#pe8c0cf0cb8)" d="M 90 78.101053 
L 648 78.101053 
" style="fill:none;stroke:#808080;stroke-dasharray:0.74,0.32;stroke-dashoffset:0;stroke-width:0.2;"/>
     </g>
     <g id="line2d_185">
      <g>
       <use style="stroke:#000000;stroke-width:0.6;" x="90" xlink:href="#mc81cda8320" y="78.101053"/>
      </g>
     </g>
     <g id="line2d_186">
      <g>
       <use style="stroke:#000000;stroke-width:0.6;" x="648" xlink:href="#m8d3b21f7ef" y="78.101053"/>
      </g>
     </g>
    </g>
    <g id="ytick_36">
     <g id="line2d_187">
      <path clip-path="url(#pe8c0cf0cb8)" d="M 90 69.347368 
L 648 69.347368 
" style="fill:none;stroke:#808080;stroke-dasharray:0.74,0.32;stroke-dashoffset:0;stroke-width:0.2;"/>
     </g>
     <g id="line2d_188">
      <g>
       <use style="stroke:#000000;stroke-width:0.6;" x="90" xlink:href="#mc81cda8320" y="69.347368"/>
      </g>
     </g>
     <g id="line2d_189">
      <g>
       <use style="stroke:#000000;stroke-width:0.6;" x="648" xlink:href="#m8d3b21f7ef" y="69.347368"/>
      </g>
     </g>
    </g>
    <g id="ytick_37">
     <g id="line2d_190">
      <path clip-path="url(#pe8c0cf0cb8)" d="M 90 60.593684 
L 648 60.593684 
" style="fill:none;stroke:#808080;stroke-dasharray:0.74,0.32;stroke-dashoffset:0;stroke-width:0.2;"/>
     </g>
     <g id="line2d_191">
      <g>
       <use style="stroke:#000000;stroke-width:0.6;" x="90" xlink:href="#mc81cda8320" y="60.593684"/>
      </g>
     </g>
     <g id="line2d_192">
      <g>
       <use style="stroke:#000000;stroke-width:0.6;" x="648" xlink:href="#m8d3b21f7ef" y="60.593684"/>
      </g>
     </g>
    </g>
    <g id="ytick_38">
     <g id="line2d_193">
      <path clip-path="url(#pe8c0cf0cb8)" d="M 90 51.84 
L 648 51.84 
" style="fill:none;stroke:#808080;stroke-dasharray:0.74,0.32;stroke-dashoffset:0;stroke-width:0.2;"/>
     </g>
     <g id="line2d_194">
      <g>
       <use style="stroke:#000000;stroke-width:0.6;" x="90" xlink:href="#mc81cda8320" y="51.84"/>
      </g>
     </g>
     <g id="line2d_195">
      <g>
       <use style="stroke:#000000;stroke-width:0.6;" x="648" xlink:href="#m8d3b21f7ef" y="51.84"/>
      </g>
     </g>
    </g>
    <g id="text_16">
     <!-- RMSE (x0.01 Mag) -->
     <g transform="translate(60.066958 280.746719)rotate(-90)scale(0.15 -0.15)">
      <defs>
       <path d="M 2509 2146 
C 3117 2268 3629 2676 3629 3186 
C 3629 3785 2950 4326 2054 4326 
L 333 4326 
L 333 4160 
C 774 4160 845 4160 845 3873 
L 845 415 
C 845 128 774 128 333 128 
L 333 -26 
C 518 -26 851 -26 1050 -26 
C 1248 -26 1581 -26 1766 -26 
L 1766 128 
C 1325 128 1254 128 1254 417 
L 1254 2112 
L 2003 2112 
C 2368 2112 2573 1964 2662 1881 
C 2918 1632 2918 1459 2918 1024 
C 2918 595 2918 377 3110 160 
C 3354 -102 3680 -128 3821 -128 
C 4294 -128 4365 396 4365 503 
C 4365 540 4365 585 4307 585 
C 4256 585 4250 547 4250 522 
C 4218 112 4032 -26 3834 -26 
C 3482 -26 3443 375 3405 764 
C 3386 898 3373 993 3360 1133 
C 3322 1452 3270 1917 2509 2146 
z
M 1984 2214 
L 1254 2214 
L 1254 3913 
C 1254 4129 1267 4160 1523 4160 
L 1990 4160 
C 2522 4160 3142 3977 3142 3190 
C 3142 2372 2464 2214 1984 2214 
z
" id="CMR17-52" transform="scale(0.015625)"/>
       <path d="M 1338 4224 
C 1299 4320 1293 4320 1158 4320 
L 339 4320 
L 339 4160 
C 781 4160 851 4160 851 3875 
L 851 610 
C 851 451 851 153 339 153 
L 339 -13 
C 486 0 755 0 915 0 
C 1075 0 1344 0 1491 -13 
L 1491 153 
C 979 153 979 451 979 610 
L 979 4135 
L 986 4135 
L 2490 89 
C 2515 25 2528 -13 2579 -13 
C 2630 -13 2643 25 2669 89 
L 4186 4166 
L 4192 4166 
L 4192 438 
C 4192 153 4122 153 3680 153 
L 3680 -13 
C 3853 0 4198 0 4384 0 
C 4570 0 4922 0 5094 -13 
L 5094 153 
C 4653 153 4582 153 4582 438 
L 4582 3875 
C 4582 4160 4653 4160 5094 4160 
L 5094 4320 
L 4282 4320 
C 4147 4320 4141 4314 4102 4218 
L 2720 502 
L 1338 4224 
z
" id="CMR17-4d" transform="scale(0.015625)"/>
       <path d="M 2803 4290 
C 2803 4404 2797 4411 2758 4411 
C 2720 4411 2707 4385 2682 4328 
L 2490 3907 
C 2246 4257 1875 4416 1472 4416 
C 819 4416 294 3901 294 3253 
C 294 3056 339 2776 557 2510 
C 794 2218 1018 2167 1530 2033 
C 1722 1982 2042 1899 2106 1874 
C 2470 1722 2662 1341 2662 985 
C 2662 527 2336 38 1779 38 
C 1094 38 454 419 410 1311 
C 403 1413 397 1419 352 1419 
C 301 1419 294 1413 294 1285 
L 294 -1 
C 294 -115 301 -122 339 -122 
C 384 -122 397 -90 486 108 
C 493 127 493 140 614 381 
C 934 -39 1472 -128 1779 -128 
C 2477 -128 2970 451 2970 1124 
C 2970 1454 2848 1708 2778 1823 
C 2509 2230 2221 2306 1914 2382 
C 1869 2402 1856 2402 1498 2490 
C 1152 2579 1005 2624 845 2796 
C 666 2992 602 3196 602 3399 
C 602 3812 934 4263 1478 4263 
C 2157 4263 2579 3786 2675 2993 
C 2694 2878 2701 2872 2746 2872 
C 2803 2872 2803 2891 2803 2999 
L 2803 4290 
z
" id="CMR17-53" transform="scale(0.015625)"/>
       <path d="M 3885 1615 
L 3770 1615 
C 3629 676 3546 166 2419 166 
L 1530 166 
C 1274 166 1261 197 1261 414 
L 1261 2176 
L 1862 2176 
C 2464 2176 2522 1960 2522 1430 
L 2637 1430 
L 2637 3081 
L 2522 3081 
C 2522 2557 2464 2342 1862 2342 
L 1261 2342 
L 1261 3913 
C 1261 4128 1274 4160 1530 4160 
L 2406 4160 
C 3398 4160 3514 3769 3603 2929 
L 3718 2929 
L 3565 4325 
L 326 4325 
L 326 4160 
C 768 4160 838 4160 838 3874 
L 838 451 
C 838 166 768 166 326 166 
L 326 0 
L 3654 0 
L 3885 1615 
z
" id="CMR17-45" transform="scale(0.015625)"/>
       <path d="M 1958 -1561 
C 1958 -1555 1958 -1542 1939 -1523 
C 1645 -1224 858 -407 858 1581 
C 858 3569 1632 4379 1946 4697 
C 1946 4704 1958 4717 1958 4736 
C 1958 4755 1939 4768 1914 4768 
C 1843 4768 1299 4296 986 3594 
C 666 2887 576 2199 576 1588 
C 576 1128 621 351 1005 -471 
C 1312 -1135 1837 -1600 1914 -1600 
C 1946 -1600 1958 -1587 1958 -1561 
z
" id="CMR17-28" transform="scale(0.015625)"/>
       <path d="M 1664 1477 
C 1856 1726 2074 2006 2253 2216 
C 2464 2458 2707 2560 2989 2560 
L 2989 2726 
C 2880 2726 2656 2726 2541 2726 
C 2368 2726 2170 2726 2022 2732 
L 2022 2566 
C 2112 2553 2163 2489 2163 2400 
C 2163 2285 2099 2215 2067 2171 
L 1594 1573 
L 1030 2306 
C 973 2376 973 2388 973 2420 
C 973 2497 1037 2560 1146 2560 
L 1146 2732 
C 992 2726 717 2726 557 2726 
C 384 2726 179 2726 38 2732 
L 38 2560 
C 384 2560 461 2534 614 2343 
L 1350 1395 
C 1363 1382 1395 1344 1395 1325 
C 1395 1299 838 619 768 530 
C 480 185 179 160 6 160 
L 6 0 
C 115 0 339 0 454 0 
C 582 0 864 0 979 -6 
L 979 160 
C 941 166 838 179 838 325 
C 838 440 890 510 947 586 
L 1478 1236 
L 2035 512 
C 2086 442 2163 346 2163 301 
C 2163 211 2086 160 1984 160 
L 1984 -6 
C 2138 0 2413 0 2573 0 
C 2746 0 2950 0 3091 -6 
L 3091 160 
C 2771 160 2675 172 2522 370 
L 1664 1477 
z
" id="CMR17-78" transform="scale(0.015625)"/>
       <path d="M 1062 261 
C 1062 420 934 522 800 522 
C 672 522 538 420 538 261 
C 538 102 666 0 800 0 
C 928 0 1062 102 1062 261 
z
" id="CMR17-2e" transform="scale(0.015625)"/>
       <path d="M 2304 1653 
C 2304 2072 2304 2294 2035 2543 
C 1798 2752 1523 2816 1306 2816 
C 800 2816 435 2407 435 1971 
C 435 1728 627 1728 666 1728 
C 749 1728 896 1778 896 1954 
C 896 2112 774 2181 666 2181 
C 640 2181 608 2174 589 2168 
C 723 2592 1069 2714 1293 2714 
C 1613 2714 1965 2429 1965 1885 
L 1965 1600 
C 1587 1600 1133 1549 774 1357 
C 371 1133 256 813 256 570 
C 256 77 832 -64 1171 -64 
C 1523 -64 1850 139 1990 511 
C 2003 233 2182 -18 2464 -18 
C 2598 -18 2938 70 2938 567 
L 2938 920 
L 2822 920 
L 2822 562 
C 2822 178 2650 128 2566 128 
C 2304 128 2304 458 2304 738 
L 2304 1653 
z
M 1965 870 
C 1965 317 1568 38 1216 38 
C 896 38 646 275 646 570 
C 646 761 730 1100 1101 1305 
C 1408 1478 1760 1504 1965 1504 
L 1965 870 
z
" id="CMR17-61" transform="scale(0.015625)"/>
       <path d="M 710 1164 
C 832 1068 1043 960 1299 960 
C 1805 960 2240 1357 2240 1888 
C 2240 2054 2189 2310 1997 2509 
C 2176 2692 2438 2752 2586 2752 
C 2611 2752 2650 2752 2682 2734 
C 2656 2728 2598 2703 2598 2605 
C 2598 2527 2656 2471 2739 2471 
C 2835 2471 2886 2533 2886 2614 
C 2886 2731 2790 2854 2586 2854 
C 2330 2854 2106 2738 1926 2580 
C 1734 2753 1504 2816 1299 2816 
C 794 2816 358 2419 358 1888 
C 358 1522 570 1292 634 1228 
C 442 1004 442 743 442 711 
C 442 545 506 302 723 168 
C 390 85 128 -169 128 -486 
C 128 -943 736 -1280 1466 -1280 
C 2170 -1280 2803 -956 2803 -479 
C 2803 384 1856 384 1363 384 
C 1216 384 954 384 922 391 
C 723 423 589 602 589 826 
C 589 883 589 1024 710 1164 
z
M 1299 1068 
C 736 1068 736 1760 736 1889 
C 736 2016 736 2708 1299 2708 
C 1862 2708 1862 2016 1862 1889 
C 1862 1760 1862 1068 1299 1068 
z
M 1466 -1171 
C 826 -1171 384 -835 384 -486 
C 384 -289 493 -105 634 -4 
C 794 104 858 104 1293 104 
C 1818 104 2547 104 2547 -486 
C 2547 -835 2106 -1171 1466 -1171 
z
" id="CMR17-67" transform="scale(0.015625)"/>
       <path d="M 1683 1581 
C 1683 2040 1638 2817 1254 3639 
C 947 4303 422 4768 346 4768 
C 326 4768 301 4761 301 4729 
C 301 4717 307 4710 314 4697 
C 621 4378 1402 3568 1402 1584 
C 1402 -407 627 -1217 314 -1537 
C 307 -1549 301 -1556 301 -1568 
C 301 -1600 326 -1600 346 -1600 
C 416 -1600 960 -1128 1274 -426 
C 1594 281 1683 969 1683 1581 
z
" id="CMR17-29" transform="scale(0.015625)"/>
      </defs>
      <use transform="scale(0.996264)" xlink:href="#CMR17-52"/>
      <use transform="translate(67.791102 0)scale(0.996264)" xlink:href="#CMR17-4d"/>
      <use transform="translate(152.478043 0)scale(0.996264)" xlink:href="#CMR17-53"/>
      <use transform="translate(203.373412 0)scale(0.996264)" xlink:href="#CMR17-45"/>
      <use transform="translate(296.035679 0)scale(0.996264)" xlink:href="#CMR17-28"/>
      <use transform="translate(331.316447 0)scale(0.996264)" xlink:href="#CMR17-78"/>
      <use transform="translate(379.609363 0)scale(0.996264)" xlink:href="#CMR17-30"/>
      <use transform="translate(425.29984 0)scale(0.996264)" xlink:href="#CMR17-2e"/>
      <use transform="translate(450.170898 0)scale(0.996264)" xlink:href="#CMR17-30"/>
      <use transform="translate(495.861376 0)scale(0.996264)" xlink:href="#CMR17-31"/>
      <use transform="translate(571.627819 0)scale(0.996264)" xlink:href="#CMR17-4d"/>
      <use transform="translate(656.31476 0)scale(0.996264)" xlink:href="#CMR17-61"/>
      <use transform="translate(702.005237 0)scale(0.996264)" xlink:href="#CMR17-67"/>
      <use transform="translate(747.695714 0)scale(0.996264)" xlink:href="#CMR17-29"/>
     </g>
    </g>
   </g>
   <g id="line2d_196">
    <path clip-path="url(#pe8c0cf0cb8)" d="M 132.987331 -1 
L 133.040858 5.269437 
L 133.100607 35.984627 
L 133.159326 22.284236 
L 133.19977 -1 
M 134.3253 -1 
L 134.339882 12.292343 
L 134.387556 -1 
M 135.026202 -1 
L 135.047598 13.152392 
L 135.076342 -1 
M 135.797863 -1 
L 135.815062 6.36356 
L 135.885735 -1 
M 136.212465 -1 
L 136.228154 2.102179 
L 136.234429 -1 
M 136.950387 -1 
L 136.995618 19.652878 
L 137.016813 -1 
M 139.124608 -1 
L 139.238263 23.546605 
L 139.265537 -1 
M 139.401479 -1 
L 139.41545 13.101971 
L 139.450425 -1 
M 140.29463 -1 
L 140.300352 2.422389 
L 140.308885 -1 
M 140.45165 -1 
L 140.477538 24.76468 
L 140.550654 -1 
M 140.770587 -1 
L 140.772162 0.616854 
L 140.774254 -1 
M 140.872038 -1 
L 140.89063 19.65034 
L 140.975613 -1 
M 141.465712 -1 
L 141.539627 12.928823 
L 141.564076 -1 
M 142.01103 -1 
L 142.012468 -0.329419 
L 142.014558 -1 
M 142.100345 -1 
L 142.129905 17.416837 
L 142.150788 -1 
M 142.518788 -1 
L 142.542997 21.424274 
L 142.585651 -1 
M 142.775029 -1 
L 142.778902 1.635695 
L 142.782213 -1 
M 144.545155 -1 
L 144.549737 1.531176 
L 144.565443 -1 
M 145.810376 -1 
L 145.848761 31.451094 
L 145.900498 -1 
M 146.047852 -1 
L 146.084666 12.290767 
L 146.143385 6.864008 
L 146.167209 -1 
M 146.37467 -1 
L 146.37929 1.276532 
L 146.383545 -1 
M 146.477991 -1 
L 146.497758 13.404236 
L 146.556476 1.008056 
L 146.615195 15.989549 
L 146.63498 -1 
M 146.845678 -1 
L 146.85213 0.390309 
L 146.856976 -1 
M 147.326212 -1 
L 147.38266 8.659039 
L 147.393949 -1 
M 154.59274 -1 
L 154.642154 37.740266 
L 154.686337 -1 
M 155.729967 -1 
L 155.763991 -0.517361 
L 155.765065 -1 
M 156.392974 -1 
L 156.412988 3.061933 
L 156.421352 -1 
M 157.829774 -1 
L 157.888169 6.64788 
L 157.946887 5.534761 
L 157.973706 -1 
M 158.829628 -1 
L 158.891538 1.64086 
L 158.900006 -1 
M 160.045437 -1 
L 160.072095 11.74016 
L 160.105905 -1 
M 160.939564 -1 
L 160.956997 5.363889 
L 160.988412 -1 
M 161.967925 -1 
L 162.019086 39.530482 
L 162.078834 38.213665 
L 162.137553 38.575455 
L 162.207866 -1 
M 162.567868 -1 
L 162.669113 16.409201 
L 162.78655 3.337411 
L 162.846299 14.650848 
L 162.897208 -1 
M 163.514511 -1 
L 163.554015 15.220188 
L 163.612734 9.826342 
L 163.642923 -1 
M 163.949352 -1 
L 163.967106 4.39757 
L 163.976146 -1 
M 164.709322 -1 
L 164.734571 7.32524 
L 164.748054 -1 
M 165.060937 -1 
L 165.088944 1.886051 
L 165.104464 -1 
M 167.52394 -1 
L 167.567494 1.034492 
L 167.600063 -1 
M 167.657442 -1 
L 167.684932 0.437929 
L 167.690574 -1 
M 168.003641 -1 
L 168.039305 9.915893 
L 168.099054 7.963909 
L 168.120313 -1 
M 168.324403 -1 
L 168.334959 3.379954 
L 168.389655 -1 
M 171.224537 -1 
L 171.226601 -0.562355 
L 171.229266 -1 
M 173.246584 -1 
L 173.292059 3.886793 
L 173.311939 -1 
M 173.63822 -1 
L 173.646432 -0.583101 
L 173.76387 28.297404 
L 173.823618 18.3084 
L 173.87754 -1 
M 173.965084 -1 
L 174.118242 35.677723 
L 174.19582 -1 
M 176.357559 -1 
L 176.479355 5.617396 
L 176.500138 -1 
M 179.799849 -1 
L 179.902556 17.844192 
L 179.961275 14.796422 
L 180.019994 14.325123 
L 180.256929 39.216312 
L 180.433086 17.127703 
L 180.610272 40.413816 
L 180.670021 39.849904 
L 180.787458 22.398909 
L 180.905926 25.833242 
L 180.964645 32.896852 
L 181.023364 28.056065 
L 181.110838 -1 
M 186.695917 -1 
L 186.807678 12.532807 
L 186.862309 -1 
M 187.972229 -1 
L 188.105671 36.212135 
L 188.16542 28.432999 
L 188.224139 23.470623 
L 188.342607 47.463946 
L 188.460044 66.366476 
L 188.578512 57.393162 
L 188.69595 58.903348 
L 188.814417 70.440441 
L 188.931855 101.564515 
L 188.991604 96.18809 
L 189.227509 74.126442 
L 189.404695 94.751085 
L 189.463414 92.652214 
L 190.024697 -1 
M 192.116564 -1 
L 192.17787 16.242705 
L 192.237618 3.535157 
L 192.250185 -1 
M 193.018832 -1 
L 193.063802 2.327236 
L 193.122521 0.79823 
L 193.140295 -1 
M 198.211098 -1 
L 198.433994 21.526604 
L 198.61118 34.131997 
L 199.024272 85.843424 
L 199.437364 135.163169 
L 199.61455 114.658101 
L 200.027642 68.885174 
L 200.14611 66.641867 
L 200.204828 66.591709 
L 200.323296 36.759591 
L 200.500482 11.718626 
L 200.61792 5.035101 
L 200.658173 -1 
M 203.032175 -1 
L 203.09647 12.277899 
L 203.156219 8.82921 
L 203.204006 -1 
M 203.544048 -1 
L 203.62803 13.441264 
L 203.686748 12.548213 
L 203.754732 -1 
M 210.731509 -1 
L 211.005991 17.779765 
L 211.241897 32.898603 
L 211.536521 52.233566 
L 211.713707 54.562483 
L 212.245266 84.198694 
L 212.303985 83.565803 
L 212.362704 82.622681 
L 212.422453 83.155255 
L 212.53989 85.208081 
L 212.658358 83.201037 
L 212.835545 67.505593 
L 213.366074 23.879332 
L 213.484542 23.01333 
L 213.601979 17.423928 
L 213.763362 -1 
M 214.131731 -1 
L 214.133538 -0.885453 
L 214.192621 -1 
M 226.324246 -1 
L 226.468601 9.479259 
L 226.763225 7.239454 
L 226.881692 6.003346 
L 227.00016 9.603036 
L 227.413252 34.821175 
L 227.649157 49.694735 
L 227.826343 52.277509 
L 227.885062 51.907578 
L 227.943781 51.625447 
L 228.120967 55.087879 
L 228.239435 54.897574 
L 228.356873 56.495559 
L 228.652527 65.95339 
L 228.711246 65.553697 
L 228.769964 65.252745 
L 228.947151 66.818867 
L 229.065618 63.451062 
L 229.419991 48.642104 
L 229.596148 45.237359 
L 229.833083 23.34098 
L 229.891802 25.63252 
L 230.068988 34.446955 
L 230.186426 29.889874 
L 230.423361 17.433469 
L 230.48208 17.823883 
L 230.599518 19.850011 
L 230.659266 19.244081 
L 230.776704 11.773249 
L 230.87649 -1 
M 235.345347 -1 
L 235.498929 3.771419 
L 235.631234 -1 
M 248.286912 -1 
L 248.660175 13.567317 
L 248.837361 15.589768 
L 249.013518 14.994955 
L 249.131985 16.06947 
L 249.426609 19.665221 
L 249.545077 20.350547 
L 249.780982 24.357546 
L 249.958169 26.359513 
L 250.076636 24.094848 
L 250.429979 12.41043 
L 250.548447 14.417387 
L 250.784352 27.765092 
L 251.020257 39.813663 
L 251.080006 39.903826 
L 251.197444 36.618919 
L 251.493098 16.357291 
L 251.698651 -1 
M 269.747537 -1 
L 270.32019 46.315462 
L 270.497376 48.945594 
L 270.556095 49.111039 
L 270.614814 49.049676 
L 270.733281 48.277688 
L 270.910468 44.186566 
L 271.854089 10.482956 
L 272.143153 -1 
M 277.601011 -1 
L 277.992775 8.741936 
L 278.110213 9.130687 
L 278.228681 7.841182 
L 278.405867 2.516316 
L 278.484736 -1 
M 285.996525 -1 
L 286.608982 58.087679 
L 286.667701 57.856232 
L 287.022074 52.516047 
L 287.080793 53.005115 
L 287.257979 57.997429 
L 287.848257 79.994387 
L 288.20263 83.838918 
L 288.438535 85.431388 
L 288.498284 85.25789 
L 288.615722 83.416027 
L 288.851627 73.424397 
L 289.854997 9.207194 
L 289.980084 -1 
M 293.402845 -1 
L 293.69129 8.394502 
L 293.750009 8.033763 
L 293.927195 2.617246 
L 294.004506 -1 
M 305.729324 -1 
L 306.439444 34.771979 
L 307.325376 71.474164 
L 307.797186 110.946539 
L 308.387465 160.480399 
L 308.62337 166.175108 
L 308.682089 165.970535 
L 308.800556 163.904315 
L 309.036462 154.823243 
L 309.449553 128.388955 
L 309.981113 95.823849 
L 310.511642 73.110752 
L 311.279106 24.885218 
L 311.750917 1.586324 
L 311.818407 -1 
M 314.343736 -1 
L 314.643589 8.725129 
L 315.056681 14.816993 
L 315.292586 16.489559 
L 315.351305 16.490347 
L 315.469772 15.889057 
L 315.705678 12.617105 
L 316.118769 2.770523 
L 316.227992 -1 
M 330.311633 -1 
L 330.932382 31.218071 
L 331.228036 37.903697 
L 331.758565 46.047425 
L 332.171657 59.679362 
L 332.644497 72.49852 
L 333.352213 84.423401 
L 334.355583 114.479964 
L 334.414302 114.602778 
L 334.47405 114.54264 
L 334.651237 113.507254 
L 335.123047 108.149124 
L 335.417671 103.391409 
L 335.713326 93.965355 
L 336.126417 70.671101 
L 337.071068 14.313218 
L 337.48416 3.063334 
L 337.778784 -0.031969 
L 338.014689 -0.556315 
L 338.250594 -0.640875 
L 338.388508 -1 
M 341.234852 -1 
L 341.379172 0.278524 
L 341.43789 0.203768 
L 341.551177 -1 
M 343.951663 -1 
L 344.270814 12.343727 
L 344.448 14.399005 
L 344.506719 14.207912 
L 344.683905 11.492956 
L 345.08729 -1 
M 359.079082 -1 
L 359.910609 24.654383 
L 360.619355 41.133369 
L 361.150914 48.463004 
L 361.564006 53.951126 
L 361.977098 63.301724 
L 362.626095 77.80973 
L 362.803281 78.734644 
L 362.920719 78.305889 
L 363.156624 75.686261 
L 363.510997 72.116071 
L 363.629465 71.98179 
L 363.746902 72.383759 
L 364.101275 75.104842 
L 364.691553 80.941361 
L 365.576455 91.513623 
L 365.87211 93.993454 
L 366.166734 98.604019 
L 367.288571 118.970516 
L 367.8191 124.366637 
L 368.056036 125.235703 
L 368.173473 125.02579 
L 368.35066 123.656188 
L 368.586565 119.484357 
L 368.940938 107.866905 
L 369.82584 73.779884 
L 370.003026 72.030285 
L 370.062775 71.993782 
L 370.180213 72.683485 
L 370.416118 76.589116 
L 371.183583 91.720472 
L 371.242302 91.77527 
L 371.360769 91.129949 
L 371.537956 88.308986 
L 371.892329 77.295188 
L 373.927609 -1 
M 378.972322 -1 
L 379.741071 19.446204 
L 380.27263 29.310468 
L 380.391098 29.70062 
L 380.508535 28.85195 
L 380.685722 25.064406 
L 381.040095 10.569355 
L 381.281021 -1 
M 384.042428 -1 
L 384.403547 12.538496 
L 385.289479 54.536835 
L 386.470036 111.218691 
L 386.705941 114.329925 
L 386.76466 114.398204 
L 386.883127 113.796914 
L 387.119033 110.50229 
L 387.826748 99.758455 
L 388.299589 94.002645 
L 388.652932 86.724132 
L 389.125772 71.912198 
L 390.306329 31.820849 
L 391.014044 9.034047 
L 391.275627 -1 
M 404.707611 -1 
L 405.061222 7.724408 
L 405.710219 32.443762 
L 406.240748 49.972051 
L 406.536402 54.259781 
L 406.772308 55.317576 
L 407.185399 56.390165 
L 407.481054 58.329281 
L 407.952864 63.5126 
L 408.601861 70.653068 
L 408.837766 71.441337 
L 408.956234 71.185992 
L 409.13342 69.858934 
L 409.428044 65.042219 
L 409.959604 50.754543 
L 410.490133 38.055573 
L 410.844506 34.062405 
L 411.080411 33.311077 
L 411.198879 33.322194 
L 411.493503 33.819053 
L 411.729408 34.094882 
L 411.847876 34.050938 
L 412.025062 33.695538 
L 412.319686 32.375133 
L 413.205618 27.670115 
L 413.323056 27.620919 
L 413.441524 27.833284 
L 413.61871 28.694384 
L 413.913334 31.616976 
L 414.326426 38.274591 
L 415.152609 55.777232 
L 415.861355 74.550208 
L 416.510352 98.190845 
L 417.690908 143.387343 
L 417.985532 148.355321 
L 418.162719 149.112427 
L 418.281186 148.638152 
L 418.458373 146.431086 
L 418.752997 138.809166 
L 419.166089 120.849144 
L 420.701018 46.59987 
L 421.350015 31.188833 
L 422.723446 -1 
M 424.297646 -1 
L 425.009121 7.539442 
L 425.186308 8.241926 
L 425.245026 8.230984 
L 425.363494 7.773866 
L 425.540681 5.921149 
L 425.882271 -1 
M 427.970387 -1 
L 428.845414 18.305511 
L 429.141068 20.590835 
L 429.199787 20.610181 
L 429.317225 20.17985 
L 429.494411 18.377904 
L 429.790065 12.749898 
L 430.324108 -1 
M 448.837146 -1 
L 449.324873 6.597021 
L 449.856432 19.50888 
L 451.744704 67.991948 
L 453.279633 101.755871 
L 454.696095 123.796685 
L 454.873281 124.33775 
L 454.990719 124.288379 
L 455.167905 123.709936 
L 455.522278 121.377954 
L 456.171275 116.915326 
L 456.40718 116.251709 
L 456.525648 116.204089 
L 456.702834 116.492961 
L 456.93874 117.481952 
L 457.470299 121.091709 
L 458.059547 124.464416 
L 458.709574 126.561361 
L 459.476009 128.751795 
L 459.594476 128.76799 
L 459.712944 128.5544 
L 459.89013 127.662049 
L 460.126036 125.094856 
L 460.42066 119.252997 
L 460.89247 104.289712 
L 462.132775 62.415326 
L 462.486118 57.005812 
L 462.722023 55.818987 
L 462.781772 55.834744 
L 462.89921 56.239164 
L 463.136145 58.487635 
L 463.489488 64.967638 
L 464.670044 89.561901 
L 464.847231 90.153038 
L 464.965698 89.846659 
L 465.141855 88.3707 
L 465.437509 83.549258 
L 466.086506 67.418669 
L 466.735503 53.380999 
L 467.208343 47.707386 
L 467.621435 45.278939 
L 467.974778 44.307455 
L 468.270432 43.989433 
L 468.506337 43.991709 
L 468.801991 44.260272 
L 469.332521 45.160939 
L 470.158704 46.466113 
L 470.748982 47.027137 
L 471.044636 47.036591 
L 471.280542 46.810571 
L 471.575166 46.183457 
L 472.048006 44.547656 
L 472.814441 41.981688 
L 473.168814 41.452966 
L 473.404719 41.38031 
L 473.700373 41.560286 
L 474.113465 42.149672 
L 475.588645 44.846507 
L 475.943018 46.367372 
L 476.35611 49.489461 
L 477.476917 59.55506 
L 477.654103 59.826949 
L 477.772571 59.643122 
L 477.949758 58.785436 
L 478.244382 55.782047 
L 478.657473 48.552029 
L 479.366219 31.154869 
L 480.133684 14.052534 
L 480.487026 9.769356 
L 480.722932 8.818881 
L 480.841399 8.990278 
L 481.018586 10.102609 
L 481.254491 13.213843 
L 481.608864 21.220576 
L 482.199142 41.333653 
L 483.674322 94.792228 
L 484.383068 111.834425 
L 485.032065 122.592353 
L 485.562594 128.10376 
L 485.916967 129.791908 
L 486.094154 129.899578 
L 486.27134 129.451215 
L 486.507246 127.927461 
L 486.861618 123.594737 
L 487.333429 114.150562 
L 487.923707 97.037372 
L 488.632453 69.197768 
L 490.08393 -1 
M 495.728168 -1 
L 497.24866 25.764788 
L 497.72047 30.787477 
L 498.074843 32.76721 
L 498.310748 33.226166 
L 498.429216 33.213298 
L 498.606402 32.916723 
L 498.901026 31.782858 
L 499.373867 28.791287 
L 500.435956 21.721636 
L 500.671861 21.151246 
L 500.790329 21.119033 
L 500.967515 21.419372 
L 501.20342 22.486796 
L 501.556763 25.396608 
L 502.147041 32.480877 
L 503.21016 47.706073 
L 503.68197 57.818504 
L 504.272249 76.27127 
L 505.570242 119.701274 
L 506.101802 129.880233 
L 506.456175 132.986653 
L 506.633361 133.311414 
L 506.750799 133.054144 
L 506.927985 131.956607 
L 507.222609 128.319713 
L 507.635701 120.150688 
L 509.525003 74.30598 
L 510.351186 50.583671 
L 511.97279 -1 
M 522.161802 -1 
L 522.803686 14.229796 
L 523.512432 36.651745 
L 524.457083 74.906396 
L 525.932263 135.418339 
L 526.58126 153.192694 
L 527.053071 161.073986 
L 527.466162 164.514534 
L 527.703098 165.193295 
L 527.820535 165.225684 
L 527.997722 164.933573 
L 528.293376 163.669016 
L 528.706468 160.658974 
L 529.414183 153.436047 
L 530.181648 143.290177 
L 530.771926 132.545204 
L 531.420923 116.329267 
L 533.899473 48.220001 
L 535.08003 24.310013 
L 535.788775 14.013405 
L 536.260586 9.848489 
L 536.55521 8.575966 
L 536.732396 8.347145 
L 536.850864 8.426278 
L 537.02805 8.900728 
L 537.322674 10.656542 
L 537.677047 14.361451 
L 538.148858 21.894609 
L 538.797855 36.303436 
L 540.096879 71.331741 
L 540.923062 90.553781 
L 541.394873 97.209295 
L 541.630778 98.589313 
L 541.749246 98.694357 
L 541.867713 98.385002 
L 542.0449 97.129549 
L 542.339524 93.001574 
L 542.811334 82.181145 
L 545.762725 6.097798 
L 546.109734 -1 
M 553.669507 -1 
L 554.438681 4.681715 
L 555.028959 7.614724 
L 555.382302 8.526595 
L 555.619237 8.697467 
L 555.795393 8.572377 
L 556.032329 8.051358 
L 556.385671 6.503006 
L 556.798763 3.615954 
L 557.294085 -1 
M 561.354217 -1 
L 562.169985 12.237895 
L 564.589817 54.74456 
L 565.061627 59.103369 
L 565.474719 61.056054 
L 565.710624 61.418456 
L 565.88781 61.372237 
L 566.123716 60.960289 
L 566.537838 59.625527 
L 567.127086 57.762218 
L 567.364021 57.489628 
L 567.540177 57.575151 
L 567.717364 57.946833 
L 568.013018 59.252357 
L 568.42611 62.523346 
L 569.016388 69.605339 
L 570.37413 86.920827 
L 570.963378 91.203129 
L 572.262402 99.536549 
L 573.324491 108.788056 
L 574.033237 114.181988 
L 574.446329 115.958636 
L 574.740953 116.465387 
L 574.976858 116.475541 
L 575.272512 116.150079 
L 576.098695 115.041162 
L 576.334601 115.05438 
L 576.570506 115.303073 
L 576.86616 115.961875 
L 577.279252 117.5076 
L 577.86953 120.760119 
L 580.289361 135.645672 
L 580.702453 136.728765 
L 581.055796 137.113752 
L 581.291701 137.08574 
L 581.528636 136.828382 
L 581.881979 136.008162 
L 582.295071 134.377613 
L 582.767911 131.580548 
L 583.35819 126.5646 
L 584.007186 118.91992 
L 584.774651 106.912316 
L 585.718272 88.196589 
L 587.194482 54.144057 
L 588.610944 23.292835 
L 589.554565 7.123117 
L 590.170842 -1 
M 597.198243 -1 
L 598.407707 16.698072 
L 598.820799 19.774905 
L 599.056704 20.256795 
L 599.175172 20.112622 
L 599.352358 19.410839 
L 599.646982 17.01907 
L 600.119823 10.68753 
L 600.802764 -1 
L 600.802764 -1 
" style="fill:none;stroke:#000000;stroke-linecap:square;stroke-width:1.5;"/>
   </g>
   <g id="patch_3">
    <path d="M 90 384.48 
L 90 51.84 
" style="fill:none;stroke:#000000;stroke-linecap:square;stroke-linejoin:miter;stroke-width:0.8;"/>
   </g>
   <g id="patch_4">
    <path d="M 648 384.48 
L 648 51.84 
" style="fill:none;stroke:#000000;stroke-linecap:square;stroke-linejoin:miter;stroke-width:0.8;"/>
   </g>
   <g id="patch_5">
    <path d="M 90 384.48 
L 648 384.48 
" style="fill:none;stroke:#000000;stroke-linecap:square;stroke-linejoin:miter;stroke-width:0.8;"/>
   </g>
   <g id="patch_6">
    <path d="M 90 51.84 
L 648 51.84 
" style="fill:none;stroke:#000000;stroke-linecap:square;stroke-linejoin:miter;stroke-width:0.8;"/>
   </g>
   <g id="text_17">
    <!-- Periodogram: 2001 SG276 -->
    <g transform="translate(259.002236 45.84)scale(0.21 -0.21)">
     <defs>
      <path d="M 1267 2042 
L 2291 2042 
C 3117 2042 3718 2578 3718 3184 
C 3718 3791 3130 4352 2291 4352 
L 333 4352 
L 333 4186 
C 774 4186 845 4186 845 3899 
L 845 446 
C 845 160 774 160 333 160 
L 333 0 
C 518 0 858 0 1056 0 
C 1254 0 1594 0 1779 0 
L 1779 160 
C 1338 160 1267 160 1267 446 
L 1267 2042 
z
M 1254 2176 
L 1254 3938 
C 1254 4155 1267 4186 1523 4186 
L 2170 4186 
C 2995 4186 3232 3714 3232 3184 
C 3232 2604 2950 2176 2170 2176 
L 1254 2176 
z
" id="CMR17-50" transform="scale(0.015625)"/>
      <path d="M 2438 1472 
C 2464 1498 2464 1511 2464 1576 
C 2464 2238 2118 2816 1389 2816 
C 710 2816 173 2169 173 1383 
C 173 551 781 -64 1459 -64 
C 2176 -64 2458 607 2458 740 
C 2458 784 2419 784 2406 784 
C 2362 784 2355 771 2330 696 
C 2189 265 1837 51 1504 51 
C 1229 51 954 203 781 480 
C 582 803 582 1176 582 1472 
L 2438 1472 
z
M 589 1568 
C 634 2505 1126 2714 1382 2714 
C 1818 2714 2112 2297 2118 1568 
L 589 1568 
z
" id="CMR17-65" transform="scale(0.015625)"/>
      <path d="M 992 3909 
C 992 4049 877 4170 730 4170 
C 589 4170 467 4056 467 3909 
C 467 3769 582 3648 730 3648 
C 870 3648 992 3763 992 3909 
z
M 243 2706 
L 243 2541 
C 602 2541 653 2502 653 2197 
L 653 427 
C 653 184 627 153 218 153 
L 218 -13 
C 371 0 646 0 806 0 
C 960 0 1222 0 1370 -13 
L 1370 153 
C 992 153 979 191 979 420 
L 979 2776 
L 243 2706 
z
" id="CMR17-69" transform="scale(0.015625)"/>
      <path d="M 1869 4326 
L 1869 4160 
C 2246 4160 2304 4122 2304 3820 
L 2304 2345 
C 2278 2377 2016 2790 1498 2790 
C 845 2790 211 2208 211 1364 
C 211 525 806 -64 1434 -64 
C 1978 -64 2259 337 2291 380 
L 2291 -63 
L 3066 -63 
L 3066 128 
C 2688 128 2630 166 2630 473 
L 2630 4396 
L 1869 4326 
z
M 2291 755 
C 2291 563 2176 390 2029 262 
C 1811 70 1594 38 1472 38 
C 1286 38 621 134 621 1356 
C 621 2612 1363 2688 1530 2688 
C 1824 2688 2061 2522 2208 2291 
C 2291 2157 2291 2138 2291 2023 
L 2291 755 
z
" id="CMR17-64" transform="scale(0.015625)"/>
      <path d="M 4326 1933 
C 4326 2252 4269 2790 3507 2790 
C 3072 2790 2771 2496 2656 2151 
L 2650 2151 
C 2573 2676 2195 2790 1837 2790 
C 1331 2790 1069 2400 973 2144 
L 966 2144 
L 966 2790 
L 211 2720 
L 211 2554 
C 589 2554 646 2515 646 2208 
L 646 428 
C 646 184 621 153 211 153 
L 211 -13 
C 365 0 646 0 813 0 
C 979 0 1267 0 1421 -13 
L 1421 153 
C 1011 153 986 178 986 428 
L 986 1658 
C 986 2247 1344 2688 1792 2688 
C 2266 2688 2317 2266 2317 1958 
L 2317 428 
C 2317 184 2291 153 1882 153 
L 1882 -13 
C 2035 0 2317 0 2483 0 
C 2650 0 2938 0 3091 -13 
L 3091 153 
C 2682 153 2656 178 2656 428 
L 2656 1658 
C 2656 2247 3014 2688 3462 2688 
C 3936 2688 3987 2266 3987 1958 
L 3987 428 
C 3987 184 3962 153 3552 153 
L 3552 -13 
C 3706 0 3987 0 4154 0 
C 4320 0 4608 0 4762 -13 
L 4762 153 
C 4352 153 4326 178 4326 428 
L 4326 1933 
z
" id="CMR17-6d" transform="scale(0.015625)"/>
      <path d="M 1062 2491 
C 1062 2650 934 2752 800 2752 
C 672 2752 538 2650 538 2491 
C 538 2332 666 2230 800 2230 
C 928 2230 1062 2332 1062 2491 
z
M 1062 261 
C 1062 420 934 522 800 522 
C 672 522 538 420 538 261 
C 538 102 666 0 800 0 
C 928 0 1062 102 1062 261 
z
" id="CMR17-3a" transform="scale(0.015625)"/>
      <path d="M 3974 1233 
C 3974 1473 3994 1505 4390 1505 
L 4390 1670 
C 4237 1664 3891 1664 3718 1664 
C 3539 1664 3040 1664 2797 1664 
L 2797 1505 
L 2989 1505 
C 3539 1505 3552 1434 3552 1201 
L 3552 774 
C 3552 63 2720 63 2522 63 
C 1862 63 781 511 781 2160 
C 781 3808 1843 4250 2464 4250 
C 3187 4250 3712 3626 3834 2741 
C 3846 2664 3846 2651 3904 2651 
C 3974 2651 3974 2664 3974 2779 
L 3974 4288 
C 3974 4402 3968 4409 3930 4409 
C 3904 4409 3898 4402 3853 4326 
L 3571 3791 
C 3258 4187 2874 4416 2381 4416 
C 1286 4416 294 3456 294 2148 
C 294 845 1267 -128 2394 -128 
C 2912 -128 3418 56 3616 417 
C 3725 158 3904 -20 3936 -20 
C 3968 -20 3974 -13 3974 100 
L 3974 1233 
z
" id="CMR17-47" transform="scale(0.015625)"/>
      <path d="M 2886 3941 
L 2886 4081 
L 1382 4081 
C 634 4081 621 4165 595 4288 
L 480 4288 
L 294 3094 
L 410 3094 
C 429 3215 474 3540 550 3661 
C 589 3712 1062 3712 1171 3712 
L 2579 3712 
L 1869 2661 
C 1395 1954 1069 999 1069 165 
C 1069 89 1069 -128 1299 -128 
C 1530 -128 1530 89 1530 171 
L 1530 465 
C 1530 1508 1709 2196 2003 2636 
L 2886 3941 
z
" id="CMR17-37" transform="scale(0.015625)"/>
     </defs>
     <use transform="scale(0.996264)" xlink:href="#CMR17-50"/>
     <use transform="translate(59.983847 0)scale(0.996264)" xlink:href="#CMR17-65"/>
     <use transform="translate(100.469507 0)scale(0.996264)" xlink:href="#CMR17-72"/>
     <use transform="translate(135.750275 0)scale(0.996264)" xlink:href="#CMR17-69"/>
     <use transform="translate(160.621333 0)scale(0.996264)" xlink:href="#CMR17-6f"/>
     <use transform="translate(208.914249 0)scale(0.996264)" xlink:href="#CMR17-64"/>
     <use transform="translate(259.809619 0)scale(0.996264)" xlink:href="#CMR17-6f"/>
     <use transform="translate(305.500096 0)scale(0.996264)" xlink:href="#CMR17-67"/>
     <use transform="translate(351.190573 0)scale(0.996264)" xlink:href="#CMR17-72"/>
     <use transform="translate(386.471341 0)scale(0.996264)" xlink:href="#CMR17-61"/>
     <use transform="translate(432.161818 0)scale(0.996264)" xlink:href="#CMR17-6d"/>
     <use transform="translate(509.081408 0)scale(0.996264)" xlink:href="#CMR17-3a"/>
     <use transform="translate(574.438127 0)scale(0.996264)" xlink:href="#CMR17-32"/>
     <use transform="translate(620.128604 0)scale(0.996264)" xlink:href="#CMR17-30"/>
     <use transform="translate(665.819081 0)scale(0.996264)" xlink:href="#CMR17-30"/>
     <use transform="translate(711.509558 0)scale(0.996264)" xlink:href="#CMR17-31"/>
     <use transform="translate(787.276002 0)scale(0.996264)" xlink:href="#CMR17-53"/>
     <use transform="translate(838.171372 0)scale(0.996264)" xlink:href="#CMR17-47"/>
     <use transform="translate(910.526717 0)scale(0.996264)" xlink:href="#CMR17-32"/>
     <use transform="translate(956.217195 0)scale(0.996264)" xlink:href="#CMR17-37"/>
     <use transform="translate(1001.907672 0)scale(0.996264)" xlink:href="#CMR17-36"/>
    </g>
   </g>
  </g>
 </g>
 <defs>
  <clipPath id="pe8c0cf0cb8">
   <rect height="332.64" width="558" x="90" y="51.84"/>
  </clipPath>
 </defs>
</svg>
