<?xml version="1.0" encoding="utf-8" standalone="no"?>
<!DOCTYPE svg PUBLIC "-//W3C//DTD SVG 1.1//EN"
  "http://www.w3.org/Graphics/SVG/1.1/DTD/svg11.dtd">
<svg height="432pt" version="1.1" viewBox="0 0 720 432" width="720pt" xmlns="http://www.w3.org/2000/svg" xmlns:xlink="http://www.w3.org/1999/xlink">
 <metadata>
  <rdf:RDF xmlns:cc="http://creativecommons.org/ns#" xmlns:dc="http://purl.org/dc/elements/1.1/" xmlns:rdf="http://www.w3.org/1999/02/22-rdf-syntax-ns#">
   <cc:Work>
    <dc:type rdf:resource="http://purl.org/dc/dcmitype/StillImage"/>
    <dc:date>2021-08-25T16:33:55.272892</dc:date>
    <dc:format>image/svg+xml</dc:format>
    <dc:creator>
     <cc:Agent>
      <dc:title>Matplotlib v3.4.2, https://matplotlib.org/</dc:title>
     </cc:Agent>
    </dc:creator>
   </cc:Work>
  </rdf:RDF>
 </metadata>
 <defs>
  <style type="text/css">*{stroke-linecap:butt;stroke-linejoin:round;}</style>
 </defs>
 <g id="figure_1">
  <g id="patch_1">
   <path d="M 0 432 
L 720 432 
L 720 0 
L 0 0 
z
" style="fill:#ffffff;"/>
  </g>
  <g id="axes_1">
   <g id="patch_2">
    <path d="M 90 384.48 
L 648 384.48 
L 648 51.84 
L 90 51.84 
z
" style="fill:#ffffff;"/>
   </g>
   <g id="matplotlib.axis_1">
    <g id="xtick_1">
     <g id="line2d_1">
      <path clip-path="url(#p0b7de125c6)" d="M 90 384.48 
L 90 51.84 
" style="fill:none;stroke:#cccccc;stroke-linecap:round;stroke-width:0.8;"/>
     </g>
     <g id="line2d_2"/>
     <g id="text_1">
      <!-- 2.00 -->
      <g style="fill:#262626;" transform="translate(80.269531 395.226875)scale(0.1 -0.1)">
       <defs>
        <path d="M 322 0 
L 322 397 
Q 481 763 711 1042 
Q 941 1322 1194 1548 
Q 1447 1775 1695 1969 
Q 1944 2163 2144 2356 
Q 2344 2550 2467 2762 
Q 2591 2975 2591 3244 
Q 2591 3431 2534 3573 
Q 2478 3716 2372 3812 
Q 2266 3909 2117 3957 
Q 1969 4006 1788 4006 
Q 1619 4006 1470 3959 
Q 1322 3913 1206 3819 
Q 1091 3725 1017 3586 
Q 944 3447 922 3263 
L 347 3316 
Q 375 3553 478 3762 
Q 581 3972 762 4130 
Q 944 4288 1198 4378 
Q 1453 4469 1788 4469 
Q 2116 4469 2372 4391 
Q 2628 4313 2804 4159 
Q 2981 4006 3075 3781 
Q 3169 3556 3169 3263 
Q 3169 3041 3089 2841 
Q 3009 2641 2876 2459 
Q 2744 2278 2569 2109 
Q 2394 1941 2203 1780 
Q 2013 1619 1819 1461 
Q 1625 1303 1454 1143 
Q 1284 984 1150 820 
Q 1016 656 941 478 
L 3238 478 
L 3238 0 
L 322 0 
z
" id="LiberationSans-32" transform="scale(0.015625)"/>
        <path d="M 584 0 
L 584 684 
L 1194 684 
L 1194 0 
L 584 0 
z
" id="LiberationSans-2e" transform="scale(0.015625)"/>
        <path d="M 3309 2203 
Q 3309 1569 3189 1136 
Q 3069 703 2861 436 
Q 2653 169 2372 53 
Q 2091 -63 1772 -63 
Q 1450 -63 1172 53 
Q 894 169 689 434 
Q 484 700 367 1133 
Q 250 1566 250 2203 
Q 250 2869 367 3305 
Q 484 3741 690 4000 
Q 897 4259 1178 4364 
Q 1459 4469 1791 4469 
Q 2106 4469 2382 4364 
Q 2659 4259 2865 4000 
Q 3072 3741 3190 3305 
Q 3309 2869 3309 2203 
z
M 2738 2203 
Q 2738 2728 2675 3076 
Q 2613 3425 2491 3633 
Q 2369 3841 2192 3927 
Q 2016 4013 1791 4013 
Q 1553 4013 1372 3925 
Q 1191 3838 1067 3630 
Q 944 3422 881 3073 
Q 819 2725 819 2203 
Q 819 1697 883 1350 
Q 947 1003 1070 792 
Q 1194 581 1372 489 
Q 1550 397 1778 397 
Q 2000 397 2178 489 
Q 2356 581 2479 792 
Q 2603 1003 2670 1350 
Q 2738 1697 2738 2203 
z
" id="LiberationSans-30" transform="scale(0.015625)"/>
       </defs>
       <use xlink:href="#LiberationSans-32"/>
       <use x="55.615234" xlink:href="#LiberationSans-2e"/>
       <use x="83.398438" xlink:href="#LiberationSans-30"/>
       <use x="139.013672" xlink:href="#LiberationSans-30"/>
      </g>
     </g>
    </g>
    <g id="xtick_2">
     <g id="line2d_3">
      <path clip-path="url(#p0b7de125c6)" d="M 159.75 384.48 
L 159.75 51.84 
" style="fill:none;stroke:#cccccc;stroke-linecap:round;stroke-width:0.8;"/>
     </g>
     <g id="line2d_4"/>
     <g id="text_2">
      <!-- 2.25 -->
      <g style="fill:#262626;" transform="translate(150.019531 395.226875)scale(0.1 -0.1)">
       <defs>
        <path d="M 3291 1434 
Q 3291 1103 3191 828 
Q 3091 553 2894 354 
Q 2697 156 2405 46 
Q 2113 -63 1728 -63 
Q 1381 -63 1123 18 
Q 866 100 687 242 
Q 509 384 404 575 
Q 300 766 256 984 
L 825 1050 
Q 859 925 921 808 
Q 984 691 1092 598 
Q 1200 506 1358 451 
Q 1516 397 1741 397 
Q 1959 397 2137 464 
Q 2316 531 2442 662 
Q 2569 794 2637 984 
Q 2706 1175 2706 1422 
Q 2706 1625 2640 1795 
Q 2575 1966 2453 2089 
Q 2331 2213 2154 2281 
Q 1978 2350 1753 2350 
Q 1613 2350 1494 2325 
Q 1375 2300 1273 2256 
Q 1172 2213 1089 2155 
Q 1006 2097 934 2034 
L 384 2034 
L 531 4403 
L 3034 4403 
L 3034 3925 
L 1044 3925 
L 959 2528 
Q 1109 2644 1334 2726 
Q 1559 2809 1869 2809 
Q 2197 2809 2459 2709 
Q 2722 2609 2906 2426 
Q 3091 2244 3191 1991 
Q 3291 1738 3291 1434 
z
" id="LiberationSans-35" transform="scale(0.015625)"/>
       </defs>
       <use xlink:href="#LiberationSans-32"/>
       <use x="55.615234" xlink:href="#LiberationSans-2e"/>
       <use x="83.398438" xlink:href="#LiberationSans-32"/>
       <use x="139.013672" xlink:href="#LiberationSans-35"/>
      </g>
     </g>
    </g>
    <g id="xtick_3">
     <g id="line2d_5">
      <path clip-path="url(#p0b7de125c6)" d="M 229.5 384.48 
L 229.5 51.84 
" style="fill:none;stroke:#cccccc;stroke-linecap:round;stroke-width:0.8;"/>
     </g>
     <g id="line2d_6"/>
     <g id="text_3">
      <!-- 2.50 -->
      <g style="fill:#262626;" transform="translate(219.769531 395.226875)scale(0.1 -0.1)">
       <use xlink:href="#LiberationSans-32"/>
       <use x="55.615234" xlink:href="#LiberationSans-2e"/>
       <use x="83.398438" xlink:href="#LiberationSans-35"/>
       <use x="139.013672" xlink:href="#LiberationSans-30"/>
      </g>
     </g>
    </g>
    <g id="xtick_4">
     <g id="line2d_7">
      <path clip-path="url(#p0b7de125c6)" d="M 299.25 384.48 
L 299.25 51.84 
" style="fill:none;stroke:#cccccc;stroke-linecap:round;stroke-width:0.8;"/>
     </g>
     <g id="line2d_8"/>
     <g id="text_4">
      <!-- 2.75 -->
      <g style="fill:#262626;" transform="translate(289.519531 395.226875)scale(0.1 -0.1)">
       <defs>
        <path d="M 3238 3947 
Q 2906 3441 2628 2973 
Q 2350 2506 2150 2032 
Q 1950 1559 1839 1061 
Q 1728 563 1728 0 
L 1141 0 
Q 1141 528 1266 1036 
Q 1391 1544 1603 2033 
Q 1816 2522 2097 2994 
Q 2378 3466 2694 3925 
L 328 3925 
L 328 4403 
L 3238 4403 
L 3238 3947 
z
" id="LiberationSans-37" transform="scale(0.015625)"/>
       </defs>
       <use xlink:href="#LiberationSans-32"/>
       <use x="55.615234" xlink:href="#LiberationSans-2e"/>
       <use x="83.398438" xlink:href="#LiberationSans-37"/>
       <use x="139.013672" xlink:href="#LiberationSans-35"/>
      </g>
     </g>
    </g>
    <g id="xtick_5">
     <g id="line2d_9">
      <path clip-path="url(#p0b7de125c6)" d="M 369 384.48 
L 369 51.84 
" style="fill:none;stroke:#cccccc;stroke-linecap:round;stroke-width:0.8;"/>
     </g>
     <g id="line2d_10"/>
     <g id="text_5">
      <!-- 3.00 -->
      <g style="fill:#262626;" transform="translate(359.269531 395.226875)scale(0.1 -0.1)">
       <defs>
        <path d="M 3278 1216 
Q 3278 913 3179 675 
Q 3081 438 2892 273 
Q 2703 109 2423 23 
Q 2144 -63 1784 -63 
Q 1375 -63 1095 39 
Q 816 141 634 308 
Q 453 475 362 689 
Q 272 903 244 1131 
L 825 1184 
Q 850 1009 917 865 
Q 984 722 1100 619 
Q 1216 516 1384 459 
Q 1553 403 1784 403 
Q 2209 403 2451 612 
Q 2694 822 2694 1234 
Q 2694 1478 2586 1626 
Q 2478 1775 2317 1858 
Q 2156 1941 1967 1969 
Q 1778 1997 1619 1997 
L 1300 1997 
L 1300 2484 
L 1606 2484 
Q 1766 2484 1937 2517 
Q 2109 2550 2251 2636 
Q 2394 2722 2486 2869 
Q 2578 3016 2578 3244 
Q 2578 3597 2370 3801 
Q 2163 4006 1753 4006 
Q 1381 4006 1151 3815 
Q 922 3625 884 3278 
L 319 3322 
Q 353 3613 478 3828 
Q 603 4044 795 4186 
Q 988 4328 1234 4398 
Q 1481 4469 1759 4469 
Q 2128 4469 2393 4376 
Q 2659 4284 2828 4126 
Q 2997 3969 3076 3756 
Q 3156 3544 3156 3303 
Q 3156 3109 3103 2940 
Q 3050 2772 2937 2637 
Q 2825 2503 2651 2406 
Q 2478 2309 2234 2259 
L 2234 2247 
Q 2500 2219 2697 2126 
Q 2894 2034 3022 1896 
Q 3150 1759 3214 1584 
Q 3278 1409 3278 1216 
z
" id="LiberationSans-33" transform="scale(0.015625)"/>
       </defs>
       <use xlink:href="#LiberationSans-33"/>
       <use x="55.615234" xlink:href="#LiberationSans-2e"/>
       <use x="83.398438" xlink:href="#LiberationSans-30"/>
       <use x="139.013672" xlink:href="#LiberationSans-30"/>
      </g>
     </g>
    </g>
    <g id="xtick_6">
     <g id="line2d_11">
      <path clip-path="url(#p0b7de125c6)" d="M 438.75 384.48 
L 438.75 51.84 
" style="fill:none;stroke:#cccccc;stroke-linecap:round;stroke-width:0.8;"/>
     </g>
     <g id="line2d_12"/>
     <g id="text_6">
      <!-- 3.25 -->
      <g style="fill:#262626;" transform="translate(429.019531 395.226875)scale(0.1 -0.1)">
       <use xlink:href="#LiberationSans-33"/>
       <use x="55.615234" xlink:href="#LiberationSans-2e"/>
       <use x="83.398438" xlink:href="#LiberationSans-32"/>
       <use x="139.013672" xlink:href="#LiberationSans-35"/>
      </g>
     </g>
    </g>
    <g id="xtick_7">
     <g id="line2d_13">
      <path clip-path="url(#p0b7de125c6)" d="M 508.5 384.48 
L 508.5 51.84 
" style="fill:none;stroke:#cccccc;stroke-linecap:round;stroke-width:0.8;"/>
     </g>
     <g id="line2d_14"/>
     <g id="text_7">
      <!-- 3.50 -->
      <g style="fill:#262626;" transform="translate(498.769531 395.226875)scale(0.1 -0.1)">
       <use xlink:href="#LiberationSans-33"/>
       <use x="55.615234" xlink:href="#LiberationSans-2e"/>
       <use x="83.398438" xlink:href="#LiberationSans-35"/>
       <use x="139.013672" xlink:href="#LiberationSans-30"/>
      </g>
     </g>
    </g>
    <g id="xtick_8">
     <g id="line2d_15">
      <path clip-path="url(#p0b7de125c6)" d="M 578.25 384.48 
L 578.25 51.84 
" style="fill:none;stroke:#cccccc;stroke-linecap:round;stroke-width:0.8;"/>
     </g>
     <g id="line2d_16"/>
     <g id="text_8">
      <!-- 3.75 -->
      <g style="fill:#262626;" transform="translate(568.519531 395.226875)scale(0.1 -0.1)">
       <use xlink:href="#LiberationSans-33"/>
       <use x="55.615234" xlink:href="#LiberationSans-2e"/>
       <use x="83.398438" xlink:href="#LiberationSans-37"/>
       <use x="139.013672" xlink:href="#LiberationSans-35"/>
      </g>
     </g>
    </g>
    <g id="xtick_9">
     <g id="line2d_17">
      <path clip-path="url(#p0b7de125c6)" d="M 648 384.48 
L 648 51.84 
" style="fill:none;stroke:#cccccc;stroke-linecap:round;stroke-width:0.8;"/>
     </g>
     <g id="line2d_18"/>
     <g id="text_9">
      <!-- 4.00 -->
      <g style="fill:#262626;" transform="translate(638.269531 395.226875)scale(0.1 -0.1)">
       <defs>
        <path d="M 2753 997 
L 2753 0 
L 2222 0 
L 2222 997 
L 147 997 
L 147 1434 
L 2163 4403 
L 2753 4403 
L 2753 1441 
L 3372 1441 
L 3372 997 
L 2753 997 
z
M 2222 3769 
Q 2216 3753 2191 3708 
Q 2166 3663 2134 3606 
Q 2103 3550 2070 3492 
Q 2038 3434 2013 3397 
L 884 1734 
Q 869 1709 839 1668 
Q 809 1628 778 1586 
Q 747 1544 715 1503 
Q 684 1463 666 1441 
L 2222 1441 
L 2222 3769 
z
" id="LiberationSans-34" transform="scale(0.015625)"/>
       </defs>
       <use xlink:href="#LiberationSans-34"/>
       <use x="55.615234" xlink:href="#LiberationSans-2e"/>
       <use x="83.398438" xlink:href="#LiberationSans-30"/>
       <use x="139.013672" xlink:href="#LiberationSans-30"/>
      </g>
     </g>
    </g>
    <g id="text_10">
     <!-- Hours -->
     <g style="fill:#262626;" transform="translate(355.663281 408.54875)scale(0.1 -0.1)">
      <defs>
       <path d="M 3503 0 
L 3503 2041 
L 1122 2041 
L 1122 0 
L 525 0 
L 525 4403 
L 1122 4403 
L 1122 2541 
L 3503 2541 
L 3503 4403 
L 4100 4403 
L 4100 0 
L 3503 0 
z
" id="LiberationSans-48" transform="scale(0.015625)"/>
       <path d="M 3291 1694 
Q 3291 806 2900 371 
Q 2509 -63 1766 -63 
Q 1413 -63 1134 43 
Q 856 150 664 369 
Q 472 588 370 917 
Q 269 1247 269 1694 
Q 269 3444 1784 3444 
Q 2178 3444 2464 3334 
Q 2750 3225 2933 3006 
Q 3116 2788 3203 2459 
Q 3291 2131 3291 1694 
z
M 2700 1694 
Q 2700 2088 2639 2344 
Q 2578 2600 2461 2753 
Q 2344 2906 2175 2967 
Q 2006 3028 1794 3028 
Q 1578 3028 1404 2964 
Q 1231 2900 1109 2745 
Q 988 2591 923 2334 
Q 859 2078 859 1694 
Q 859 1300 928 1042 
Q 997 784 1117 631 
Q 1238 478 1402 415 
Q 1566 353 1759 353 
Q 1975 353 2150 414 
Q 2325 475 2447 628 
Q 2569 781 2634 1040 
Q 2700 1300 2700 1694 
z
" id="LiberationSans-6f" transform="scale(0.015625)"/>
       <path d="M 981 3381 
L 981 1238 
Q 981 991 1017 825 
Q 1053 659 1134 557 
Q 1216 456 1348 414 
Q 1481 372 1678 372 
Q 1878 372 2039 442 
Q 2200 513 2314 645 
Q 2428 778 2490 973 
Q 2553 1169 2553 1422 
L 2553 3381 
L 3116 3381 
L 3116 722 
Q 3116 616 3117 498 
Q 3119 381 3122 276 
Q 3125 172 3128 97 
Q 3131 22 3134 0 
L 2603 0 
Q 2600 16 2597 84 
Q 2594 153 2589 242 
Q 2584 331 2581 423 
Q 2578 516 2578 578 
L 2569 578 
Q 2488 431 2391 312 
Q 2294 194 2166 111 
Q 2038 28 1872 -17 
Q 1706 -63 1488 -63 
Q 1206 -63 1003 6 
Q 800 75 669 219 
Q 538 363 477 588 
Q 416 813 416 1128 
L 416 3381 
L 981 3381 
z
" id="LiberationSans-75" transform="scale(0.015625)"/>
       <path d="M 444 0 
L 444 2594 
Q 444 2700 442 2811 
Q 441 2922 437 3025 
Q 434 3128 431 3218 
Q 428 3309 425 3381 
L 956 3381 
Q 959 3309 964 3217 
Q 969 3125 973 3028 
Q 978 2931 979 2842 
Q 981 2753 981 2691 
L 994 2691 
Q 1053 2884 1120 3026 
Q 1188 3169 1278 3261 
Q 1369 3353 1494 3398 
Q 1619 3444 1797 3444 
Q 1866 3444 1928 3433 
Q 1991 3422 2025 3413 
L 2025 2897 
Q 1969 2913 1894 2920 
Q 1819 2928 1725 2928 
Q 1531 2928 1395 2840 
Q 1259 2753 1173 2598 
Q 1088 2444 1047 2230 
Q 1006 2016 1006 1763 
L 1006 0 
L 444 0 
z
" id="LiberationSans-72" transform="scale(0.015625)"/>
       <path d="M 2969 934 
Q 2969 697 2876 511 
Q 2784 325 2609 198 
Q 2434 72 2179 4 
Q 1925 -63 1597 -63 
Q 1303 -63 1067 -17 
Q 831 28 653 128 
Q 475 228 354 392 
Q 234 556 178 794 
L 675 891 
Q 747 619 972 492 
Q 1197 366 1597 366 
Q 1778 366 1929 391 
Q 2081 416 2190 477 
Q 2300 538 2361 639 
Q 2422 741 2422 891 
Q 2422 1044 2350 1142 
Q 2278 1241 2150 1306 
Q 2022 1372 1839 1420 
Q 1656 1469 1438 1528 
Q 1234 1581 1034 1647 
Q 834 1713 673 1820 
Q 513 1928 413 2087 
Q 313 2247 313 2488 
Q 313 2950 642 3192 
Q 972 3434 1603 3434 
Q 2163 3434 2492 3237 
Q 2822 3041 2909 2606 
L 2403 2544 
Q 2375 2675 2300 2764 
Q 2225 2853 2119 2908 
Q 2013 2963 1880 2986 
Q 1747 3009 1603 3009 
Q 1222 3009 1040 2893 
Q 859 2778 859 2544 
Q 859 2406 926 2317 
Q 994 2228 1114 2167 
Q 1234 2106 1403 2061 
Q 1572 2016 1775 1966 
Q 1909 1931 2050 1892 
Q 2191 1853 2323 1798 
Q 2456 1744 2573 1670 
Q 2691 1597 2778 1494 
Q 2866 1391 2917 1253 
Q 2969 1116 2969 934 
z
" id="LiberationSans-73" transform="scale(0.015625)"/>
      </defs>
      <use xlink:href="#LiberationSans-48"/>
      <use x="72.216797" xlink:href="#LiberationSans-6f"/>
      <use x="127.832031" xlink:href="#LiberationSans-75"/>
      <use x="183.447266" xlink:href="#LiberationSans-72"/>
      <use x="216.748047" xlink:href="#LiberationSans-73"/>
     </g>
    </g>
   </g>
   <g id="matplotlib.axis_2">
    <g id="ytick_1">
     <g id="line2d_19">
      <path clip-path="url(#p0b7de125c6)" d="M 90 333.706905 
L 648 333.706905 
" style="fill:none;stroke:#cccccc;stroke-linecap:round;stroke-width:0.8;"/>
     </g>
     <g id="line2d_20"/>
     <g id="text_11">
      <!-- 4.0 -->
      <g style="fill:#262626;" transform="translate(72.6 337.330343)scale(0.1 -0.1)">
       <use xlink:href="#LiberationSans-34"/>
       <use x="55.615234" xlink:href="#LiberationSans-2e"/>
       <use x="83.398438" xlink:href="#LiberationSans-30"/>
      </g>
     </g>
    </g>
    <g id="ytick_2">
     <g id="line2d_21">
      <path clip-path="url(#p0b7de125c6)" d="M 90 260.567852 
L 648 260.567852 
" style="fill:none;stroke:#cccccc;stroke-linecap:round;stroke-width:0.8;"/>
     </g>
     <g id="line2d_22"/>
     <g id="text_12">
      <!-- 4.5 -->
      <g style="fill:#262626;" transform="translate(72.6 264.191289)scale(0.1 -0.1)">
       <use xlink:href="#LiberationSans-34"/>
       <use x="55.615234" xlink:href="#LiberationSans-2e"/>
       <use x="83.398438" xlink:href="#LiberationSans-35"/>
      </g>
     </g>
    </g>
    <g id="ytick_3">
     <g id="line2d_23">
      <path clip-path="url(#p0b7de125c6)" d="M 90 187.428798 
L 648 187.428798 
" style="fill:none;stroke:#cccccc;stroke-linecap:round;stroke-width:0.8;"/>
     </g>
     <g id="line2d_24"/>
     <g id="text_13">
      <!-- 5.0 -->
      <g style="fill:#262626;" transform="translate(72.6 191.052236)scale(0.1 -0.1)">
       <use xlink:href="#LiberationSans-35"/>
       <use x="55.615234" xlink:href="#LiberationSans-2e"/>
       <use x="83.398438" xlink:href="#LiberationSans-30"/>
      </g>
     </g>
    </g>
    <g id="ytick_4">
     <g id="line2d_25">
      <path clip-path="url(#p0b7de125c6)" d="M 90 114.289744 
L 648 114.289744 
" style="fill:none;stroke:#cccccc;stroke-linecap:round;stroke-width:0.8;"/>
     </g>
     <g id="line2d_26"/>
     <g id="text_14">
      <!-- 5.5 -->
      <g style="fill:#262626;" transform="translate(72.6 117.913182)scale(0.1 -0.1)">
       <use xlink:href="#LiberationSans-35"/>
       <use x="55.615234" xlink:href="#LiberationSans-2e"/>
       <use x="83.398438" xlink:href="#LiberationSans-35"/>
      </g>
     </g>
    </g>
    <g id="text_15">
     <!-- RMSE (x0.01 Mag) -->
     <g style="fill:#262626;" transform="translate(66.525 260.670156)rotate(-90)scale(0.1 -0.1)">
      <defs>
       <path d="M 3638 0 
L 2494 1828 
L 1122 1828 
L 1122 0 
L 525 0 
L 525 4403 
L 2597 4403 
Q 2972 4403 3261 4317 
Q 3550 4231 3747 4068 
Q 3944 3906 4047 3672 
Q 4150 3438 4150 3144 
Q 4150 2934 4089 2731 
Q 4028 2528 3897 2359 
Q 3766 2191 3562 2069 
Q 3359 1947 3075 1897 
L 4325 0 
L 3638 0 
z
M 3550 3138 
Q 3550 3338 3481 3484 
Q 3413 3631 3281 3729 
Q 3150 3828 2962 3876 
Q 2775 3925 2538 3925 
L 1122 3925 
L 1122 2300 
L 2563 2300 
Q 2819 2300 3006 2364 
Q 3194 2428 3314 2540 
Q 3434 2653 3492 2806 
Q 3550 2959 3550 3138 
z
" id="LiberationSans-52" transform="scale(0.015625)"/>
       <path d="M 4269 0 
L 4269 2938 
Q 4269 3097 4272 3262 
Q 4275 3428 4281 3566 
Q 4288 3725 4297 3875 
Q 4253 3716 4206 3559 
Q 4166 3425 4117 3273 
Q 4069 3122 4022 3000 
L 2884 0 
L 2466 0 
L 1313 3000 
Q 1294 3047 1273 3109 
Q 1253 3172 1229 3242 
Q 1206 3313 1182 3386 
Q 1159 3459 1138 3531 
Q 1084 3697 1034 3875 
Q 1038 3700 1044 3528 
Q 1050 3381 1053 3220 
Q 1056 3059 1056 2938 
L 1056 0 
L 525 0 
L 525 4403 
L 1309 4403 
L 2481 1350 
Q 2503 1288 2534 1189 
Q 2566 1091 2594 987 
Q 2622 884 2645 792 
Q 2669 700 2678 650 
Q 2688 700 2713 794 
Q 2738 888 2770 991 
Q 2803 1094 2834 1191 
Q 2866 1288 2891 1350 
L 4041 4403 
L 4806 4403 
L 4806 0 
L 4269 0 
z
" id="LiberationSans-4d" transform="scale(0.015625)"/>
       <path d="M 3975 1216 
Q 3975 938 3867 703 
Q 3759 469 3534 298 
Q 3309 128 2967 32 
Q 2625 -63 2156 -63 
Q 1334 -63 875 225 
Q 416 513 291 1056 
L 869 1172 
Q 913 1000 1003 859 
Q 1094 719 1248 617 
Q 1403 516 1631 459 
Q 1859 403 2178 403 
Q 2444 403 2666 448 
Q 2888 494 3047 587 
Q 3206 681 3295 829 
Q 3384 978 3384 1184 
Q 3384 1400 3286 1534 
Q 3188 1669 3009 1756 
Q 2831 1844 2584 1903 
Q 2338 1963 2038 2031 
Q 1853 2072 1667 2120 
Q 1481 2169 1311 2236 
Q 1141 2303 991 2393 
Q 841 2484 731 2611 
Q 622 2738 559 2905 
Q 497 3072 497 3291 
Q 497 3603 623 3826 
Q 750 4050 975 4194 
Q 1200 4338 1506 4403 
Q 1813 4469 2169 4469 
Q 2578 4469 2868 4405 
Q 3159 4341 3359 4212 
Q 3559 4084 3679 3895 
Q 3800 3706 3872 3456 
L 3284 3353 
Q 3241 3513 3158 3638 
Q 3075 3763 2940 3847 
Q 2806 3931 2614 3975 
Q 2422 4019 2163 4019 
Q 1856 4019 1648 3964 
Q 1441 3909 1314 3815 
Q 1188 3722 1133 3595 
Q 1078 3469 1078 3322 
Q 1078 3125 1176 2998 
Q 1275 2872 1444 2787 
Q 1613 2703 1834 2647 
Q 2056 2591 2306 2534 
Q 2509 2488 2711 2439 
Q 2913 2391 3097 2323 
Q 3281 2256 3442 2165 
Q 3603 2075 3722 1944 
Q 3841 1813 3908 1634 
Q 3975 1456 3975 1216 
z
" id="LiberationSans-53" transform="scale(0.015625)"/>
       <path d="M 525 0 
L 525 4403 
L 3866 4403 
L 3866 3916 
L 1122 3916 
L 1122 2503 
L 3678 2503 
L 3678 2022 
L 1122 2022 
L 1122 488 
L 3994 488 
L 3994 0 
L 525 0 
z
" id="LiberationSans-45" transform="scale(0.015625)"/>
       <path id="LiberationSans-20" transform="scale(0.015625)"/>
       <path d="M 397 1663 
Q 397 2097 462 2494 
Q 528 2891 668 3256 
Q 809 3622 1028 3965 
Q 1247 4309 1550 4638 
L 2094 4638 
Q 1800 4309 1586 3964 
Q 1372 3619 1234 3251 
Q 1097 2884 1030 2487 
Q 963 2091 963 1656 
Q 963 1222 1030 825 
Q 1097 428 1234 59 
Q 1372 -309 1586 -653 
Q 1800 -997 2094 -1325 
L 1550 -1325 
Q 1247 -997 1028 -653 
Q 809 -309 668 56 
Q 528 422 462 817 
Q 397 1213 397 1650 
L 397 1663 
z
" id="LiberationSans-28" transform="scale(0.015625)"/>
       <path d="M 2503 0 
L 1594 1388 
L 678 0 
L 72 0 
L 1275 1738 
L 128 3381 
L 750 3381 
L 1594 2066 
L 2431 3381 
L 3059 3381 
L 1913 1744 
L 3131 0 
L 2503 0 
z
" id="LiberationSans-78" transform="scale(0.015625)"/>
       <path d="M 488 0 
L 488 478 
L 1609 478 
L 1609 3866 
L 616 3156 
L 616 3688 
L 1656 4403 
L 2175 4403 
L 2175 478 
L 3247 478 
L 3247 0 
L 488 0 
z
" id="LiberationSans-31" transform="scale(0.015625)"/>
       <path d="M 1294 -63 
Q 784 -63 528 206 
Q 272 475 272 944 
Q 272 1278 398 1492 
Q 525 1706 729 1828 
Q 934 1950 1196 1997 
Q 1459 2044 1731 2050 
L 2491 2063 
L 2491 2247 
Q 2491 2456 2447 2603 
Q 2403 2750 2312 2840 
Q 2222 2931 2086 2973 
Q 1950 3016 1766 3016 
Q 1603 3016 1472 2992 
Q 1341 2969 1244 2908 
Q 1147 2847 1087 2742 
Q 1028 2638 1009 2478 
L 422 2531 
Q 453 2731 540 2898 
Q 628 3066 789 3187 
Q 950 3309 1192 3376 
Q 1434 3444 1778 3444 
Q 2416 3444 2737 3151 
Q 3059 2859 3059 2306 
L 3059 850 
Q 3059 600 3125 473 
Q 3191 347 3375 347 
Q 3422 347 3469 353 
Q 3516 359 3559 369 
L 3559 19 
Q 3453 -6 3348 -18 
Q 3244 -31 3125 -31 
Q 2966 -31 2852 11 
Q 2738 53 2666 139 
Q 2594 225 2556 351 
Q 2519 478 2509 647 
L 2491 647 
Q 2400 484 2292 353 
Q 2184 222 2040 130 
Q 1897 38 1714 -12 
Q 1531 -63 1294 -63 
z
M 1422 359 
Q 1691 359 1892 457 
Q 2094 556 2226 709 
Q 2359 863 2425 1044 
Q 2491 1225 2491 1391 
L 2491 1669 
L 1875 1656 
Q 1669 1653 1483 1626 
Q 1297 1600 1156 1522 
Q 1016 1444 933 1303 
Q 850 1163 850 934 
Q 850 659 998 509 
Q 1147 359 1422 359 
z
" id="LiberationSans-61" transform="scale(0.015625)"/>
       <path d="M 1713 -1328 
Q 1422 -1328 1197 -1268 
Q 972 -1209 812 -1098 
Q 653 -988 553 -834 
Q 453 -681 409 -494 
L 975 -413 
Q 1031 -647 1223 -773 
Q 1416 -900 1728 -900 
Q 1919 -900 2075 -847 
Q 2231 -794 2340 -676 
Q 2450 -559 2509 -371 
Q 2569 -184 2569 84 
L 2569 628 
L 2563 628 
Q 2500 500 2408 383 
Q 2316 266 2183 175 
Q 2050 84 1875 29 
Q 1700 -25 1475 -25 
Q 1153 -25 923 83 
Q 694 191 548 406 
Q 403 622 336 942 
Q 269 1263 269 1684 
Q 269 2091 336 2416 
Q 403 2741 554 2967 
Q 706 3194 948 3314 
Q 1191 3434 1538 3434 
Q 1897 3434 2161 3270 
Q 2425 3106 2569 2803 
L 2575 2803 
Q 2575 2881 2579 2978 
Q 2584 3075 2589 3161 
Q 2594 3247 2600 3309 
Q 2606 3372 2613 3381 
L 3147 3381 
Q 3144 3353 3141 3286 
Q 3138 3219 3134 3125 
Q 3131 3031 3129 2917 
Q 3128 2803 3128 2681 
L 3128 97 
Q 3128 -613 2779 -970 
Q 2431 -1328 1713 -1328 
z
M 2569 1691 
Q 2569 2044 2492 2295 
Q 2416 2547 2291 2706 
Q 2166 2866 2005 2941 
Q 1844 3016 1675 3016 
Q 1459 3016 1304 2941 
Q 1150 2866 1048 2705 
Q 947 2544 898 2292 
Q 850 2041 850 1691 
Q 850 1325 898 1076 
Q 947 828 1047 675 
Q 1147 522 1300 456 
Q 1453 391 1666 391 
Q 1834 391 1995 462 
Q 2156 534 2284 690 
Q 2413 847 2491 1094 
Q 2569 1341 2569 1691 
z
" id="LiberationSans-67" transform="scale(0.015625)"/>
       <path d="M 1734 1650 
Q 1734 1213 1668 817 
Q 1603 422 1462 56 
Q 1322 -309 1103 -653 
Q 884 -997 581 -1325 
L 38 -1325 
Q 331 -997 545 -653 
Q 759 -309 896 59 
Q 1034 428 1101 825 
Q 1169 1222 1169 1656 
Q 1169 2091 1101 2487 
Q 1034 2884 896 3251 
Q 759 3619 545 3964 
Q 331 4309 38 4638 
L 581 4638 
Q 884 4309 1103 3965 
Q 1322 3622 1462 3256 
Q 1603 2891 1668 2494 
Q 1734 2097 1734 1663 
L 1734 1650 
z
" id="LiberationSans-29" transform="scale(0.015625)"/>
      </defs>
      <use xlink:href="#LiberationSans-52"/>
      <use x="72.216797" xlink:href="#LiberationSans-4d"/>
      <use x="155.517578" xlink:href="#LiberationSans-53"/>
      <use x="222.216797" xlink:href="#LiberationSans-45"/>
      <use x="288.916016" xlink:href="#LiberationSans-20"/>
      <use x="316.699219" xlink:href="#LiberationSans-28"/>
      <use x="350" xlink:href="#LiberationSans-78"/>
      <use x="400" xlink:href="#LiberationSans-30"/>
      <use x="455.615234" xlink:href="#LiberationSans-2e"/>
      <use x="483.398438" xlink:href="#LiberationSans-30"/>
      <use x="539.013672" xlink:href="#LiberationSans-31"/>
      <use x="594.628906" xlink:href="#LiberationSans-20"/>
      <use x="622.412109" xlink:href="#LiberationSans-4d"/>
      <use x="705.712891" xlink:href="#LiberationSans-61"/>
      <use x="761.328125" xlink:href="#LiberationSans-67"/>
      <use x="816.943359" xlink:href="#LiberationSans-29"/>
     </g>
    </g>
   </g>
   <g id="line2d_27">
    <path clip-path="url(#p0b7de125c6)" d="M 89.897328 70.070604 
L 90.279 82.905484 
L 90.660672 86.53596 
L 91.430712 69.116139 
L 91.812384 72.862175 
L 92.194056 69.150807 
L 92.582424 74.456168 
L 92.964096 84.456617 
L 93.345768 89.248688 
L 93.734136 85.930223 
L 94.115808 92.314969 
L 94.49748 94.716563 
L 94.879152 91.586212 
L 95.26752 81.407157 
L 95.649192 80.801858 
L 96.419232 101.808272 
L 96.800904 104.989967 
L 97.182576 103.761963 
L 97.570944 93.398598 
L 97.952616 91.566464 
L 98.334288 90.943758 
L 98.71596 87.376913 
L 99.104328 75.639412 
L 99.486 69.682674 
L 99.867672 70.023941 
L 100.25604 78.105222 
L 100.637712 94.794676 
L 101.019384 99.019919 
L 101.789424 86.91365 
L 102.171096 91.777836 
L 102.552768 84.636246 
L 102.941136 72.323579 
L 103.322808 72.607798 
L 103.70448 75.639412 
L 104.086152 82.470599 
L 104.47452 80.772603 
L 105.237864 75.478652 
L 105.626232 74.994179 
L 106.007904 78.477353 
L 106.389576 83.51444 
L 106.777944 84.349541 
L 107.159616 80.628665 
L 107.541288 82.777491 
L 107.92296 91.223296 
L 108.311328 90.371811 
L 108.693 88.931411 
L 109.074672 83.278347 
L 109.46304 86.119653 
L 109.844712 92.847422 
L 110.226384 105.197829 
L 110.996424 89.08866 
L 111.759768 93.298543 
L 112.148136 85.130813 
L 112.529808 82.178043 
L 112.91148 75.660329 
L 113.293152 75.827233 
L 113.68152 73.370053 
L 114.063192 79.025603 
L 114.444864 76.739862 
L 114.833232 79.967342 
L 115.214904 81.529446 
L 115.984944 85.728798 
L 116.366616 87.374134 
L 116.748288 85.930515 
L 117.12996 89.82751 
L 117.518328 99.478208 
L 117.9 112.490377 
L 118.281672 112.97134 
L 119.051712 99.733756 
L 119.433384 102.434343 
L 119.815056 112.408901 
L 120.966768 90.754328 
L 121.355136 87.5248 
L 121.736808 88.574638 
L 122.506848 116.728347 
L 122.88852 114.208414 
L 123.270192 96.229957 
L 123.651864 86.265199 
L 124.040232 84.942407 
L 124.803576 103.93852 
L 125.191944 105.281353 
L 125.955288 83.936013 
L 126.33696 87.744364 
L 127.107 77.32044 
L 127.488672 74.861358 
L 127.87704 75.320672 
L 128.258712 73.319002 
L 128.640384 73.70386 
L 129.410424 80.120641 
L 129.792096 80.553917 
L 130.562136 82.31964 
L 130.943808 82.795044 
L 131.32548 85.960648 
L 131.707152 86.779806 
L 132.477192 123.123479 
L 132.858864 123.747941 
L 133.628904 81.811763 
L 134.010576 79.323572 
L 134.398944 83.572366 
L 134.780616 98.806646 
L 135.162288 109.069518 
L 135.54396 104.312846 
L 135.932328 89.001478 
L 136.314 88.461565 
L 136.695672 91.849805 
L 137.08404 92.456567 
L 137.465712 95.622903 
L 137.847384 105.340304 
L 138.229056 106.59654 
L 138.617424 98.876128 
L 138.999096 98.085641 
L 139.380768 89.723068 
L 140.150808 79.278518 
L 140.53248 75.601233 
L 140.920848 77.740843 
L 141.684192 109.156846 
L 142.065864 110.770293 
L 142.454232 100.894327 
L 142.835904 94.962311 
L 143.605944 74.715665 
L 143.987616 87.783713 
L 144.369288 110.74528 
L 144.75096 125.736445 
L 145.139328 130.2658 
L 145.521 138.197438 
L 145.902672 135.569698 
L 146.672712 91.011046 
L 147.054384 81.772414 
L 147.436056 79.048862 
L 147.824424 91.366941 
L 148.206096 109.953769 
L 148.587768 119.012626 
L 148.976136 114.772755 
L 149.357808 106.104168 
L 149.73948 108.669886 
L 150.121152 124.693775 
L 150.50952 148.549833 
L 150.891192 156.542029 
L 151.272864 135.221264 
L 151.661232 94.298793 
L 152.042904 80.985437 
L 152.424576 83.984724 
L 152.812944 79.545037 
L 153.194616 77.884342 
L 153.95796 99.49152 
L 154.346328 95.3027 
L 154.728 86.945393 
L 155.109672 88.04555 
L 155.49804 84.861369 
L 155.879712 74.680559 
L 156.261384 77.302008 
L 156.643056 91.042204 
L 157.031424 95.7645 
L 157.413096 94.497439 
L 157.794768 95.230438 
L 158.183136 100.832159 
L 158.94648 127.729192 
L 159.334848 125.819677 
L 159.71652 111.5482 
L 160.098192 90.99832 
L 160.479864 89.528372 
L 160.868232 98.320271 
L 161.249904 119.189183 
L 161.631576 164.470449 
L 162.019944 196.439091 
L 162.401616 190.272006 
L 163.16496 120.173342 
L 163.935 76.082195 
L 164.316672 82.621997 
L 165.086712 169.978112 
L 165.468384 175.216185 
L 165.850056 156.788069 
L 166.238424 149.088136 
L 167.390136 90.565483 
L 167.771808 81.309882 
L 168.15348 79.050032 
L 168.535152 80.862856 
L 169.305192 92.796956 
L 169.686864 86.278365 
L 170.075232 77.66668 
L 170.456904 81.13742 
L 170.838576 90.045026 
L 171.226944 110.421566 
L 171.608616 149.697677 
L 171.990288 171.076222 
L 172.37196 163.305637 
L 172.760328 130.234058 
L 173.142 113.221037 
L 173.91204 96.08953 
L 174.293712 81.003869 
L 174.675384 90.201836 
L 175.057056 109.523126 
L 175.827096 133.555595 
L 176.208768 161.861872 
L 176.597136 165.742337 
L 176.978808 142.141535 
L 177.36048 104.69273 
L 177.742152 79.268864 
L 178.13052 72.432995 
L 178.512192 76.781258 
L 178.893864 84.272014 
L 179.282232 94.304644 
L 179.663904 96.18973 
L 180.045576 90.056728 
L 180.815616 106.513893 
L 181.197288 97.236058 
L 181.57896 97.855838 
L 182.349 126.403034 
L 182.730672 123.958288 
L 183.11904 110.518256 
L 183.500712 111.655129 
L 183.882384 119.751184 
L 184.264056 115.773882 
L 184.652424 102.885611 
L 185.415768 122.927467 
L 185.804136 105.162576 
L 186.185808 78.026816 
L 186.56748 72.904596 
L 186.949152 87.687169 
L 187.719192 127.47496 
L 188.100864 142.632298 
L 188.489232 150.806611 
L 188.870904 145.622808 
L 189.252576 121.89957 
L 189.640944 106.656953 
L 190.022616 101.760001 
L 190.404288 106.923618 
L 191.174328 152.340483 
L 191.556 153.708623 
L 192.32604 112.845102 
L 192.707712 108.111689 
L 193.089384 119.114289 
L 193.471056 153.444444 
L 194.622768 369.36 
L 195.011136 321.865546 
L 195.392808 218.049779 
L 195.77448 151.243251 
L 196.156152 105.78967 
L 196.54452 77.527277 
L 196.926192 78.433031 
L 197.307864 95.790976 
L 197.696232 122.498287 
L 198.077904 137.43021 
L 198.459576 128.8981 
L 198.847944 127.701545 
L 199.229616 134.802909 
L 199.611288 130.516521 
L 200.381328 101.674135 
L 200.763 96.452153 
L 201.144672 94.569993 
L 201.53304 90.990567 
L 201.914712 95.349655 
L 202.296384 95.433765 
L 202.678056 94.205029 
L 203.066424 95.900392 
L 203.448096 99.632971 
L 203.829768 98.750329 
L 204.218136 93.697444 
L 204.599808 83.875015 
L 204.98148 87.763672 
L 205.363152 106.534664 
L 205.75152 117.530682 
L 206.133192 116.221493 
L 206.514864 125.485286 
L 206.903232 142.383333 
L 207.284904 139.225481 
L 207.666576 117.200386 
L 208.054944 88.015563 
L 208.436616 79.447469 
L 209.19996 86.964263 
L 209.588328 79.157839 
L 209.97 75.888084 
L 210.74004 101.312536 
L 211.503384 95.769327 
L 211.885056 98.386681 
L 212.655096 87.02058 
L 213.425136 101.889749 
L 213.806808 105.363562 
L 214.18848 100.822065 
L 214.576848 93.404595 
L 214.95852 89.868761 
L 215.340192 92.574028 
L 215.721864 88.969443 
L 216.110232 82.631798 
L 216.491904 82.783049 
L 216.873576 88.142825 
L 217.261944 90.566361 
L 217.643616 94.200494 
L 218.025288 124.001294 
L 218.40696 163.363124 
L 218.795328 188.704782 
L 219.177 184.484366 
L 219.94704 132.680267 
L 221.092056 78.349506 
L 221.480424 72.211677 
L 222.243768 87.630706 
L 222.632136 91.350265 
L 223.013808 103.552639 
L 223.39548 123.37537 
L 223.783848 134.834943 
L 224.16552 138.240883 
L 224.547192 133.726448 
L 225.317232 118.922811 
L 225.698904 118.010913 
L 226.080576 135.604366 
L 226.850616 176.817638 
L 227.232288 177.519919 
L 228.002328 110.969085 
L 228.384 96.249851 
L 228.765672 90.121237 
L 229.15404 88.68581 
L 229.535712 106.41969 
L 230.299056 158.807731 
L 230.687424 171.029852 
L 231.069096 154.289932 
L 231.450768 126.756881 
L 231.839136 112.897177 
L 232.60248 93.92359 
L 232.984152 82.380931 
L 233.37252 80.594875 
L 234.135864 109.410784 
L 234.524232 108.445641 
L 234.905904 98.783826 
L 235.675944 88.810731 
L 236.057616 88.102745 
L 236.439288 92.873898 
L 236.82096 89.854572 
L 237.209328 80.820728 
L 237.591 75.415752 
L 237.972672 74.470649 
L 238.36104 78.491103 
L 239.124384 104.097817 
L 239.506056 99.494738 
L 239.894424 89.302518 
L 240.276096 87.77084 
L 240.657768 90.153272 
L 241.046136 85.571256 
L 241.427808 76.011836 
L 241.80948 69.752742 
L 242.191152 72.892747 
L 242.961192 83.557884 
L 243.342864 88.199581 
L 243.731232 99.527065 
L 244.882944 152.824956 
L 245.264616 145.098401 
L 245.646288 129.883137 
L 246.02796 122.050383 
L 247.179672 86.104586 
L 247.56804 88.2401 
L 248.331384 104.478287 
L 248.713056 105.02171 
L 249.483096 88.869389 
L 249.864768 90.264004 
L 250.253136 98.966674 
L 250.634808 102.787312 
L 251.01648 96.864657 
L 251.398152 88.032385 
L 251.78652 82.817863 
L 252.168192 82.909726 
L 252.549864 94.954997 
L 252.938232 116.014071 
L 253.319904 126.365734 
L 253.701576 122.699858 
L 254.853288 91.623805 
L 255.23496 87.563418 
L 255.623328 86.410015 
L 256.005 89.121426 
L 256.386672 94.936419 
L 257.156712 114.25142 
L 257.538384 116.707868 
L 258.308424 92.346127 
L 258.690096 93.302493 
L 259.071768 100.929726 
L 259.841808 109.072151 
L 260.22348 112.257503 
L 260.605152 111.608906 
L 260.99352 109.417513 
L 261.375192 109.288057 
L 261.756864 108.753996 
L 262.145232 109.147045 
L 262.526904 113.737837 
L 262.908576 121.143313 
L 263.296944 123.336607 
L 263.678616 114.165262 
L 264.44196 87.671664 
L 264.830328 81.889729 
L 265.212 78.574628 
L 265.593672 78.100979 
L 265.98204 81.870859 
L 266.745384 93.475247 
L 267.127056 96.58395 
L 267.515424 97.363027 
L 267.897096 90.51531 
L 268.278768 80.474342 
L 268.667136 75.220471 
L 269.048808 76.755075 
L 269.43048 82.87696 
L 270.20052 102.906967 
L 270.582192 105.39823 
L 271.733904 81.842773 
L 272.115576 80.532268 
L 272.885616 81.84014 
L 273.267288 81.007818 
L 273.64896 80.520419 
L 274.037328 80.251999 
L 274.419 78.389586 
L 274.800672 75.926117 
L 275.18904 74.52565 
L 275.570712 75.113103 
L 275.952384 78.355065 
L 276.722424 88.59146 
L 277.104096 89.354447 
L 277.485768 89.33704 
L 278.255808 98.159072 
L 278.63748 96.474534 
L 279.019152 92.978341 
L 279.789192 90.045903 
L 280.170864 88.060324 
L 280.559232 87.020872 
L 280.940904 86.430347 
L 281.322576 86.737093 
L 282.092616 92.986532 
L 282.474288 93.777312 
L 282.85596 94.001995 
L 283.626 98.286773 
L 284.007672 98.848335 
L 284.39604 100.777743 
L 284.777712 106.037465 
L 285.929424 130.81683 
L 286.311096 126.665896 
L 287.84448 76.90735 
L 288.226152 74.308866 
L 289.766232 85.021689 
L 290.917944 98.41857 
L 291.299616 107.878082 
L 291.681288 113.74676 
L 292.451328 109.951867 
L 292.833 112.916047 
L 293.214672 115.009433 
L 293.60304 112.441082 
L 293.984712 105.520372 
L 295.136424 73.060382 
L 295.518096 69.029543 
L 295.899768 69.587594 
L 296.669808 75.580461 
L 297.05148 75.648627 
L 297.82152 71.432453 
L 298.584864 68.453061 
L 298.973232 70.485888 
L 299.736576 85.156997 
L 300.124944 89.531297 
L 300.506616 90.256836 
L 300.888288 86.715151 
L 301.26996 82.050196 
L 301.658328 79.434597 
L 302.04 81.926445 
L 302.421672 87.231074 
L 302.81004 88.648362 
L 303.191712 86.739141 
L 303.573384 86.543713 
L 303.955056 87.050274 
L 304.725096 82.933423 
L 305.106768 83.51561 
L 305.495136 84.755902 
L 305.876808 84.402787 
L 306.25848 82.473086 
L 306.640152 81.231477 
L 307.02852 82.742384 
L 307.410192 87.611543 
L 307.791864 94.855674 
L 308.180232 99.404484 
L 308.943576 97.170232 
L 309.331944 99.811576 
L 310.095288 108.562079 
L 310.47696 109.41883 
L 310.865328 105.390623 
L 311.628672 82.853701 
L 312.01704 77.373831 
L 312.398712 77.259442 
L 312.780384 76.854397 
L 313.162056 74.772714 
L 313.550424 73.334215 
L 314.313768 73.911282 
L 314.702136 73.826294 
L 315.083808 73.888463 
L 315.46548 75.010854 
L 315.847152 77.598368 
L 316.23552 81.464791 
L 316.617192 87.865628 
L 317.387232 104.019412 
L 317.768904 103.153007 
L 318.920616 79.798537 
L 319.302288 77.840604 
L 319.68396 76.971566 
L 320.072328 77.547902 
L 321.22404 87.293827 
L 321.605712 91.162591 
L 322.369056 104.564883 
L 322.757424 105.983781 
L 323.520768 91.299068 
L 323.909136 89.076226 
L 324.290808 95.858703 
L 325.44252 136.338244 
L 325.824192 138.634371 
L 326.205864 133.455541 
L 327.357576 100.168056 
L 327.745944 95.405241 
L 328.509288 83.415848 
L 328.89096 82.239919 
L 329.279328 85.810567 
L 330.042672 95.853729 
L 330.43104 97.504478 
L 330.812712 96.716624 
L 331.194384 93.21575 
L 331.576056 86.136328 
L 331.964424 81.613117 
L 332.346096 84.732351 
L 332.727768 91.260304 
L 333.116136 95.135211 
L 333.497808 92.677593 
L 333.87948 86.948465 
L 334.267848 85.922909 
L 334.64952 89.376389 
L 335.031192 89.654756 
L 335.412864 87.750215 
L 335.801232 87.870017 
L 336.182904 89.57284 
L 336.564576 90.067991 
L 336.952944 88.983632 
L 337.334616 89.100508 
L 337.716288 92.837767 
L 338.09796 99.154495 
L 338.486328 101.28957 
L 338.868 95.481598 
L 339.249672 86.569165 
L 339.63804 80.770701 
L 340.019712 77.987321 
L 340.401384 76.14451 
L 340.783056 75.682125 
L 341.553096 78.319519 
L 341.934768 78.625972 
L 342.323136 80.426363 
L 342.704808 86.697305 
L 343.474848 110.099169 
L 343.85652 116.204379 
L 344.238192 112.282663 
L 344.619864 104.196994 
L 345.008232 99.586893 
L 345.389904 99.262594 
L 345.771576 98.440219 
L 347.30496 83.696117 
L 348.075 72.124934 
L 348.456672 70.115219 
L 348.84504 71.823601 
L 349.226712 72.493262 
L 349.608384 72.344058 
L 349.990056 77.953824 
L 350.760096 104.165544 
L 351.141768 110.827342 
L 351.530136 110.81169 
L 351.911808 105.257364 
L 352.675152 92.05518 
L 353.445192 82.11529 
L 353.826864 79.096841 
L 354.215232 77.323365 
L 354.596904 76.527612 
L 354.978576 77.276995 
L 355.366944 80.34079 
L 355.748616 87.34561 
L 356.51196 109.436091 
L 356.900328 112.17427 
L 357.282 107.298821 
L 358.05204 91.350265 
L 358.433712 89.700541 
L 358.815384 93.555847 
L 359.197056 104.901323 
L 359.967096 139.210853 
L 360.348768 147.426563 
L 360.737136 141.585678 
L 361.50048 114.963063 
L 361.888848 109.70495 
L 363.033864 82.872571 
L 363.422232 79.767087 
L 363.803904 80.492188 
L 364.185576 84.071467 
L 365.337288 100.926947 
L 365.71896 101.880826 
L 366.107328 96.861147 
L 366.870672 77.704566 
L 367.25904 72.998799 
L 367.640712 72.876072 
L 368.792424 77.269388 
L 369.174096 81.668849 
L 369.555768 88.375261 
L 369.944136 91.011485 
L 370.325808 86.357208 
L 370.70748 79.90415 
L 371.089152 77.837094 
L 371.47752 80.459568 
L 372.240864 88.934921 
L 373.392576 106.608388 
L 373.780944 104.205624 
L 374.162616 98.571723 
L 374.544288 95.424842 
L 374.92596 97.102798 
L 375.314328 100.136606 
L 375.696 99.768278 
L 376.077672 97.23401 
L 376.46604 96.254824 
L 377.229384 98.227677 
L 377.611056 97.660703 
L 377.999424 96.870362 
L 378.381096 97.963791 
L 378.762768 100.325597 
L 379.151136 101.033583 
L 379.532808 99.543302 
L 379.91448 96.908248 
L 380.68452 89.859691 
L 381.066192 89.891434 
L 381.836232 96.44835 
L 382.217904 97.917567 
L 382.599576 97.995241 
L 382.987944 97.088609 
L 383.369616 95.497981 
L 384.13296 89.193102 
L 384.521328 90.231238 
L 384.903 93.835823 
L 385.284672 93.606898 
L 385.67304 88.578588 
L 386.054712 82.151128 
L 386.436384 77.861815 
L 386.818056 77.276264 
L 387.588096 79.369942 
L 387.969768 79.770598 
L 388.739808 81.015278 
L 389.12148 81.936977 
L 389.503152 84.088435 
L 389.89152 87.1259 
L 390.273192 87.897663 
L 390.654864 85.240814 
L 391.043232 81.616335 
L 391.424904 79.210206 
L 391.806576 79.09962 
L 392.194944 80.99085 
L 393.33996 89.602827 
L 393.728328 88.980999 
L 394.491672 82.409894 
L 394.88004 81.752227 
L 395.261712 84.194779 
L 395.643384 87.753579 
L 396.025056 90.036249 
L 396.413424 90.794409 
L 396.795096 92.163133 
L 397.565136 100.253044 
L 399.09852 117.682226 
L 399.480192 116.94162 
L 400.250232 103.494859 
L 400.631904 100.379574 
L 401.013576 100.531411 
L 401.401944 102.436537 
L 402.165288 109.448085 
L 402.54696 113.129466 
L 402.935328 114.59137 
L 403.317 112.698677 
L 404.08704 104.89986 
L 404.468712 103.055586 
L 404.850384 100.44891 
L 406.002096 85.608411 
L 406.383768 83.48299 
L 406.772136 82.564656 
L 407.153808 82.712397 
L 407.53548 84.565155 
L 407.917152 87.362432 
L 408.30552 88.68581 
L 408.687192 87.428696 
L 409.068864 85.116185 
L 409.457232 85.353887 
L 409.838904 91.4177 
L 410.608944 112.285442 
L 410.990616 119.043929 
L 411.372288 122.706002 
L 411.75396 124.135139 
L 412.142328 123.136206 
L 412.905672 115.355673 
L 413.29404 115.296284 
L 414.057384 125.796712 
L 414.439056 126.937827 
L 414.827424 122.039559 
L 415.590768 107.767204 
L 415.979136 104.663182 
L 416.360808 105.904791 
L 416.74248 111.519091 
L 417.51252 127.079717 
L 417.894192 128.138771 
L 418.275864 121.39257 
L 419.045904 101.491141 
L 419.427576 97.032585 
L 419.815944 97.390381 
L 420.197616 101.957037 
L 420.96096 117.785937 
L 421.349328 122.377461 
L 421.731 121.487359 
L 422.112672 115.386684 
L 422.882712 96.052083 
L 423.264384 90.076914 
L 424.034424 81.566893 
L 424.416096 76.650925 
L 424.797768 73.814446 
L 425.186136 73.800988 
L 425.94948 76.46442 
L 426.337848 78.535864 
L 427.101192 83.751264 
L 427.482864 83.871066 
L 428.634576 76.672135 
L 429.404616 76.839331 
L 429.786288 77.086541 
L 430.16796 78.640892 
L 431.319672 85.741816 
L 431.70804 92.279131 
L 432.471384 116.275616 
L 432.853056 121.206358 
L 433.241424 116.451735 
L 434.393136 76.856445 
L 434.774808 72.644367 
L 435.15648 74.023185 
L 435.538152 80.006544 
L 436.689864 113.695563 
L 437.078232 115.834734 
L 437.459904 108.571148 
L 437.841576 96.109131 
L 438.229944 88.173836 
L 438.611616 88.209089 
L 438.993288 91.124851 
L 439.37496 91.820403 
L 439.763328 89.11616 
L 440.145 85.131105 
L 440.526672 82.511996 
L 440.91504 81.632718 
L 441.296712 81.892654 
L 441.678384 83.45783 
L 442.448424 89.687668 
L 442.830096 90.290188 
L 443.211768 87.824963 
L 443.600136 84.585195 
L 443.981808 83.0326 
L 444.36348 82.252937 
L 444.751848 80.604822 
L 445.13352 80.242491 
L 445.515192 85.769756 
L 446.285232 110.608948 
L 446.666904 118.356715 
L 447.048576 117.473195 
L 447.818616 105.337378 
L 448.200288 102.23204 
L 448.58196 96.400956 
L 449.352 81.361519 
L 449.733672 83.982676 
L 450.885384 115.585476 
L 451.655424 117.883359 
L 452.418768 134.446721 
L 452.807136 135.95046 
L 453.188808 130.955648 
L 454.722192 97.914057 
L 455.103864 98.337678 
L 455.492232 104.170664 
L 456.255576 123.188866 
L 456.643944 127.013453 
L 457.025616 123.814058 
L 457.78896 104.835059 
L 458.177328 100.459881 
L 458.559 102.751474 
L 458.940672 110.356034 
L 460.092384 144.618316 
L 460.474056 144.814475 
L 460.862424 133.800757 
L 461.625768 92.461686 
L 462.014136 85.792575 
L 462.77748 90.050584 
L 463.165848 87.563125 
L 463.54752 84.093116 
L 463.929192 86.774832 
L 464.699232 101.403375 
L 465.080904 103.478915 
L 465.462576 101.93334 
L 465.850944 101.486461 
L 466.232616 105.820681 
L 466.614288 111.633334 
L 466.99596 113.575176 
L 467.384328 109.407566 
L 467.766 102.497681 
L 468.147672 101.593682 
L 469.299384 122.710975 
L 469.681056 120.611153 
L 470.451096 109.962692 
L 470.832768 109.701146 
L 471.221136 112.204257 
L 471.602808 116.441934 
L 471.98448 122.010449 
L 472.366152 125.86634 
L 472.75452 124.657352 
L 473.136192 117.747027 
L 473.906232 93.697151 
L 474.287904 87.828035 
L 474.669576 90.615072 
L 475.439616 105.978954 
L 475.821288 121.750074 
L 476.591328 176.907599 
L 476.973 194.75148 
L 477.354672 200.181324 
L 477.74304 187.705556 
L 478.506384 134.393915 
L 479.658096 81.700299 
L 480.039768 71.887378 
L 480.428136 78.128626 
L 480.809808 101.331552 
L 481.579848 162.674008 
L 481.96152 179.377505 
L 482.343192 176.635961 
L 483.113232 153.855486 
L 483.494904 144.035105 
L 484.646616 103.167927 
L 485.028288 95.604764 
L 485.798328 86.058947 
L 486.18 83.29707 
L 486.561672 84.317214 
L 486.95004 89.680793 
L 487.713384 102.383292 
L 488.095056 105.133027 
L 488.483424 103.812429 
L 489.246768 95.943837 
L 489.635136 96.242098 
L 490.016808 99.567584 
L 490.39848 106.382242 
L 490.780152 121.959544 
L 491.550192 172.138055 
L 491.931864 186.094595 
L 492.320232 185.265345 
L 492.701904 166.542771 
L 493.083576 140.314521 
L 493.471944 125.383769 
L 494.235288 118.920617 
L 494.61696 111.452388 
L 495.387 83.412484 
L 495.768672 77.184986 
L 496.15704 80.904253 
L 496.920384 94.919305 
L 497.302056 97.85613 
L 497.690424 104.890937 
L 498.453768 140.766228 
L 498.842136 149.740244 
L 499.223808 145.916827 
L 499.60548 130.28745 
L 500.37552 93.177571 
L 500.757192 84.194633 
L 501.138864 80.190416 
L 501.527232 78.861187 
L 501.908904 79.803364 
L 502.678944 85.399818 
L 503.060616 85.475298 
L 503.442288 81.829023 
L 503.82396 76.186053 
L 504.212328 72.981831 
L 504.594 74.453242 
L 504.975672 77.783263 
L 505.36404 79.227467 
L 505.745712 78.54113 
L 506.127384 80.474927 
L 506.509056 89.695421 
L 507.279096 118.041632 
L 507.660768 125.900423 
L 508.049136 122.022005 
L 508.430808 110.987516 
L 508.81248 105.721504 
L 509.194152 109.266115 
L 509.58252 114.858913 
L 509.964192 118.615188 
L 510.345864 116.534236 
L 510.734232 110.305568 
L 511.115904 112.290562 
L 511.885944 138.678986 
L 512.267616 141.97902 
L 512.649288 131.940392 
L 513.419328 92.512299 
L 513.801 86.114387 
L 514.182672 90.998759 
L 514.952712 111.645183 
L 515.716056 128.385542 
L 516.486096 149.974289 
L 516.867768 149.439057 
L 517.256136 141.03655 
L 518.01948 117.51269 
L 518.407848 110.009647 
L 518.78952 107.393024 
L 519.171192 108.921192 
L 519.552864 115.070723 
L 520.704576 153.420016 
L 521.092944 155.368294 
L 521.474616 146.562937 
L 522.626328 86.444975 
L 523.008 78.543324 
L 523.389672 79.738709 
L 523.77804 89.899187 
L 524.159712 112.71784 
L 524.541384 153.868651 
L 525.693096 319.658795 
L 526.074768 341.842016 
L 526.463136 316.299957 
L 527.22648 196.630861 
L 527.99652 127.531131 
L 528.759864 87.19743 
L 529.148232 78.403629 
L 529.529904 81.572013 
L 529.911576 96.569614 
L 530.681616 135.871616 
L 531.063288 143.340869 
L 531.44496 137.99733 
L 531.833328 130.829849 
L 532.215 131.173456 
L 532.596672 135.760299 
L 532.98504 136.905803 
L 533.366712 131.378392 
L 534.518424 94.363009 
L 534.900096 88.172666 
L 535.281768 85.61865 
L 535.670136 84.991117 
L 536.051808 86.276609 
L 536.815152 93.832897 
L 537.20352 95.433326 
L 537.585192 93.778921 
L 538.355232 84.449303 
L 538.736904 83.772767 
L 539.118576 89.269898 
L 539.888616 105.926147 
L 540.270288 106.654027 
L 541.040328 96.035407 
L 541.422 99.391319 
L 542.19204 116.333981 
L 542.573712 121.628371 
L 542.955384 120.921701 
L 543.337056 119.119848 
L 543.725424 124.759161 
L 544.107096 135.687306 
L 544.488768 142.725623 
L 544.877136 142.282401 
L 545.258808 133.730397 
L 546.028848 97.870758 
L 546.41052 87.663472 
L 546.792192 87.391541 
L 547.562232 95.10815 
L 547.943904 92.909005 
L 548.325576 86.828516 
L 548.713944 83.556714 
L 549.095616 85.909012 
L 549.85896 96.022096 
L 550.247328 97.479464 
L 551.010672 90.784169 
L 551.39904 90.479472 
L 551.780712 93.309807 
L 552.544056 101.351885 
L 552.932424 106.692206 
L 554.084136 126.062207 
L 554.465808 125.612401 
L 554.84748 119.1178 
L 555.61752 101.810613 
L 555.999192 99.053124 
L 556.380864 99.099787 
L 556.769232 98.844239 
L 557.150904 96.342152 
L 558.302616 79.79488 
L 558.684288 81.008842 
L 559.454328 86.912041 
L 560.217672 87.942132 
L 560.60604 94.611243 
L 560.987712 111.094884 
L 562.139424 181.905191 
L 562.521096 186.570877 
L 562.902768 170.817895 
L 563.672808 131.310519 
L 565.587864 74.869111 
L 565.976232 70.021601 
L 566.357904 71.894253 
L 567.509616 89.729358 
L 567.891288 91.503272 
L 568.27296 95.036035 
L 568.661328 103.924185 
L 569.424672 127.963383 
L 569.81304 135.746549 
L 570.194712 137.850028 
L 570.576384 133.543015 
L 571.346424 118.556969 
L 571.728096 114.427685 
L 572.109768 114.18106 
L 572.498136 119.222681 
L 572.879808 131.021327 
L 573.643152 164.309836 
L 574.03152 173.989058 
L 574.413192 174.483186 
L 574.794864 164.375954 
L 575.564904 118.916082 
L 575.946576 96.978462 
L 576.334944 83.076629 
L 576.716616 77.068987 
L 577.098288 76.387624 
L 577.47996 79.001029 
L 577.868328 85.306639 
L 578.25 97.361272 
L 579.783384 167.703342 
L 580.165056 170.871872 
L 580.553424 160.273438 
L 581.316768 131.082179 
L 582.46848 114.466302 
L 583.620192 90.055412 
L 584.001864 88.51993 
L 584.390232 93.955332 
L 585.153576 113.05428 
L 585.541944 115.854335 
L 585.923616 110.760054 
L 586.68696 95.43947 
L 587.838672 83.231099 
L 588.608712 75.328132 
L 588.990384 72.598436 
L 589.372056 71.622761 
L 589.760424 71.97807 
L 590.523768 73.494536 
L 590.912136 74.085645 
L 591.293808 75.204819 
L 591.67548 77.726508 
L 592.44552 85.797841 
L 592.827192 87.692581 
L 593.208864 86.084546 
L 593.597232 82.513897 
L 593.978904 80.12854 
L 594.360576 80.549968 
L 595.512288 86.914821 
L 595.89396 86.094054 
L 596.282328 83.503908 
L 596.664 81.854622 
L 597.045672 83.563004 
L 597.815712 92.56686 
L 598.197384 94.564288 
L 598.579056 93.134273 
L 598.967424 90.706203 
L 599.349096 92.073172 
L 599.730768 100.033919 
L 601.270848 149.530481 
L 601.65252 147.038633 
L 602.804232 114.29033 
L 603.567576 102.829147 
L 604.337616 94.335363 
L 604.719288 92.600943 
L 605.10096 93.99117 
L 605.489328 98.356548 
L 606.252672 108.544379 
L 606.64104 109.69866 
L 607.022712 106.309689 
L 607.786056 92.393521 
L 608.174424 87.745095 
L 608.556096 85.958747 
L 608.937768 85.919983 
L 609.707808 87.055686 
L 610.08948 87.253747 
L 610.85952 87.090647 
L 611.241192 86.594179 
L 612.011232 83.946545 
L 612.392904 84.125736 
L 612.774576 87.314306 
L 613.926288 105.88007 
L 614.30796 108.96449 
L 614.696328 108.410681 
L 615.078 104.2223 
L 615.84804 91.59689 
L 616.229712 87.672834 
L 616.611384 86.504949 
L 617.381424 87.078798 
L 617.763096 86.867573 
L 618.144768 87.430743 
L 618.533136 90.052925 
L 619.29648 100.369773 
L 619.684848 105.523005 
L 620.06652 108.142846 
L 620.448192 106.169262 
L 621.218232 92.755413 
L 621.599904 88.964469 
L 621.981576 89.390578 
L 622.751616 93.850597 
L 623.133288 94.207516 
L 623.51496 92.394106 
L 624.666672 80.950331 
L 625.05504 80.932924 
L 626.970096 92.8404 
L 627.740136 102.097172 
L 628.50348 110.987516 
L 628.885152 113.011127 
L 629.27352 112.581509 
L 629.655192 109.526344 
L 630.425232 98.442706 
L 631.188576 86.362767 
L 631.576944 81.530323 
L 631.958616 78.367644 
L 632.340288 77.196103 
L 632.72196 78.062801 
L 633.110328 80.680594 
L 633.873672 87.165249 
L 634.26204 88.078902 
L 634.643712 86.61144 
L 635.407056 81.254443 
L 635.795424 79.583654 
L 636.177096 78.939007 
L 636.558768 79.07446 
L 636.947136 79.87387 
L 637.328808 81.568209 
L 637.71048 84.628786 
L 638.092152 89.463131 
L 639.632232 115.232068 
L 640.013904 114.744523 
L 640.395576 109.220769 
L 641.165616 92.972636 
L 641.547288 87.827889 
L 641.92896 86.15593 
L 642.317328 87.24146 
L 643.080672 91.987599 
L 643.46904 93.084977 
L 643.850712 93.065961 
L 644.232384 92.753072 
L 644.614056 92.878579 
L 645.384096 93.845185 
L 645.765768 93.418053 
L 646.154136 91.862824 
L 646.91748 86.931496 
L 647.305848 85.439167 
L 647.68752 85.549461 
L 648.069192 86.802625 
L 648.069192 86.802625 
" style="fill:none;stroke:#000000;stroke-linecap:round;stroke-width:1.5;"/>
   </g>
   <g id="patch_3">
    <path d="M 90 384.48 
L 90 51.84 
" style="fill:none;stroke:#cccccc;stroke-linecap:square;stroke-linejoin:miter;"/>
   </g>
   <g id="patch_4">
    <path d="M 648 384.48 
L 648 51.84 
" style="fill:none;stroke:#cccccc;stroke-linecap:square;stroke-linejoin:miter;"/>
   </g>
   <g id="patch_5">
    <path d="M 90 384.48 
L 648 384.48 
" style="fill:none;stroke:#cccccc;stroke-linecap:square;stroke-linejoin:miter;"/>
   </g>
   <g id="patch_6">
    <path d="M 90 51.84 
L 648 51.84 
" style="fill:none;stroke:#cccccc;stroke-linecap:square;stroke-linejoin:miter;"/>
   </g>
   <g id="text_16">
    <!-- Periodogram: 2000 QL7 -->
    <g style="fill:#262626;" transform="translate(279.19625 45.84)scale(0.16 -0.16)">
     <defs>
      <path d="M 4050 3009 
Q 4050 2725 3954 2461 
Q 3859 2197 3662 1994 
Q 3466 1791 3162 1670 
Q 2859 1550 2444 1550 
L 1350 1550 
L 1350 0 
L 428 0 
L 428 4403 
L 2406 4403 
Q 2828 4403 3137 4301 
Q 3447 4200 3650 4015 
Q 3853 3831 3951 3575 
Q 4050 3319 4050 3009 
z
M 3122 2994 
Q 3122 3334 2917 3511 
Q 2713 3688 2303 3688 
L 1350 3688 
L 1350 2259 
L 2328 2259 
Q 2534 2259 2682 2312 
Q 2831 2366 2929 2462 
Q 3028 2559 3075 2695 
Q 3122 2831 3122 2994 
z
" id="LiberationSans-Bold-50" transform="scale(0.015625)"/>
      <path d="M 1831 -63 
Q 1466 -63 1173 45 
Q 881 153 675 373 
Q 469 594 359 926 
Q 250 1259 250 1706 
Q 250 2191 379 2522 
Q 509 2853 729 3058 
Q 950 3263 1237 3353 
Q 1525 3444 1844 3444 
Q 2244 3444 2526 3305 
Q 2809 3166 2990 2916 
Q 3172 2666 3256 2317 
Q 3341 1969 3341 1547 
L 3341 1522 
L 1172 1522 
Q 1172 1309 1209 1126 
Q 1247 944 1331 811 
Q 1416 678 1550 601 
Q 1684 525 1875 525 
Q 2106 525 2253 623 
Q 2400 722 2463 928 
L 3291 856 
Q 3234 713 3132 550 
Q 3031 388 2862 252 
Q 2694 116 2442 26 
Q 2191 -63 1831 -63 
z
M 1831 2891 
Q 1697 2891 1580 2845 
Q 1463 2800 1377 2701 
Q 1291 2603 1237 2447 
Q 1184 2291 1178 2072 
L 2491 2072 
Q 2466 2481 2294 2686 
Q 2122 2891 1831 2891 
z
" id="LiberationSans-Bold-65" transform="scale(0.015625)"/>
      <path d="M 447 0 
L 447 2588 
Q 447 2697 445 2819 
Q 444 2941 439 3052 
Q 434 3163 431 3252 
Q 428 3341 422 3381 
L 1259 3381 
Q 1266 3344 1272 3251 
Q 1278 3159 1284 3050 
Q 1291 2941 1295 2833 
Q 1300 2725 1300 2659 
L 1313 2659 
Q 1378 2844 1443 2989 
Q 1509 3134 1598 3236 
Q 1688 3338 1813 3392 
Q 1938 3447 2122 3447 
Q 2200 3447 2276 3433 
Q 2353 3419 2394 3400 
L 2394 2666 
Q 2309 2684 2223 2698 
Q 2138 2713 2019 2713 
Q 1691 2713 1508 2447 
Q 1325 2181 1325 1659 
L 1325 0 
L 447 0 
z
" id="LiberationSans-Bold-72" transform="scale(0.015625)"/>
      <path d="M 447 3991 
L 447 4638 
L 1325 4638 
L 1325 3991 
L 447 3991 
z
M 447 0 
L 447 3381 
L 1325 3381 
L 1325 0 
L 447 0 
z
" id="LiberationSans-Bold-69" transform="scale(0.015625)"/>
      <path d="M 3659 1694 
Q 3659 1306 3551 984 
Q 3444 663 3228 430 
Q 3013 197 2691 67 
Q 2369 -63 1941 -63 
Q 1528 -63 1212 65 
Q 897 194 683 425 
Q 469 656 359 979 
Q 250 1303 250 1694 
Q 250 2072 354 2392 
Q 459 2713 671 2947 
Q 884 3181 1206 3312 
Q 1528 3444 1959 3444 
Q 2416 3444 2737 3312 
Q 3059 3181 3264 2948 
Q 3469 2716 3564 2395 
Q 3659 2075 3659 1694 
z
M 2741 1694 
Q 2741 2297 2544 2569 
Q 2347 2841 1972 2841 
Q 1584 2841 1378 2566 
Q 1172 2291 1172 1694 
Q 1172 1391 1226 1172 
Q 1281 953 1381 812 
Q 1481 672 1622 605 
Q 1763 538 1931 538 
Q 2125 538 2276 605 
Q 2428 672 2531 812 
Q 2634 953 2687 1172 
Q 2741 1391 2741 1694 
z
" id="LiberationSans-Bold-6f" transform="scale(0.015625)"/>
      <path d="M 2638 0 
Q 2631 25 2623 89 
Q 2616 153 2608 234 
Q 2600 316 2595 400 
Q 2591 484 2591 550 
L 2578 550 
Q 2425 222 2151 79 
Q 1878 -63 1497 -63 
Q 1178 -63 945 68 
Q 713 200 561 434 
Q 409 669 336 989 
Q 263 1309 263 1688 
Q 263 2072 339 2394 
Q 416 2716 575 2948 
Q 734 3181 979 3312 
Q 1225 3444 1563 3444 
Q 1728 3444 1881 3409 
Q 2034 3375 2165 3303 
Q 2297 3231 2403 3118 
Q 2509 3006 2584 2847 
L 2591 2847 
Q 2591 2878 2589 2939 
Q 2588 3000 2588 3078 
Q 2588 3156 2586 3240 
Q 2584 3325 2584 3403 
L 2584 4638 
L 3463 4638 
L 3463 738 
Q 3463 491 3472 298 
Q 3481 106 3488 0 
L 2638 0 
z
M 2597 1709 
Q 2597 2044 2534 2264 
Q 2472 2484 2370 2614 
Q 2269 2744 2139 2795 
Q 2009 2847 1875 2847 
Q 1706 2847 1576 2781 
Q 1447 2716 1358 2575 
Q 1269 2434 1223 2215 
Q 1178 1997 1178 1688 
Q 1178 538 1869 538 
Q 2000 538 2131 594 
Q 2263 650 2366 784 
Q 2469 919 2533 1145 
Q 2597 1372 2597 1709 
z
" id="LiberationSans-Bold-64" transform="scale(0.015625)"/>
      <path d="M 1863 -1356 
Q 1528 -1356 1273 -1289 
Q 1019 -1222 839 -1101 
Q 659 -981 551 -814 
Q 444 -647 403 -447 
L 1281 -344 
Q 1328 -547 1483 -662 
Q 1638 -778 1888 -778 
Q 2044 -778 2173 -734 
Q 2303 -691 2395 -586 
Q 2488 -481 2539 -309 
Q 2591 -138 2591 116 
Q 2591 203 2591 293 
Q 2591 384 2594 459 
Q 2597 547 2597 628 
L 2591 628 
Q 2438 300 2161 153 
Q 1884 6 1503 6 
Q 1181 6 948 132 
Q 716 259 562 486 
Q 409 713 336 1027 
Q 263 1341 263 1719 
Q 263 2109 341 2426 
Q 419 2744 580 2972 
Q 741 3200 986 3323 
Q 1231 3447 1569 3447 
Q 1906 3447 2173 3303 
Q 2441 3159 2591 2838 
L 2606 2838 
Q 2606 2903 2611 2989 
Q 2616 3075 2622 3154 
Q 2628 3234 2636 3296 
Q 2644 3359 2650 3381 
L 3481 3381 
Q 3475 3269 3469 3066 
Q 3463 2863 3463 2600 
L 3463 103 
Q 3463 -266 3356 -539 
Q 3250 -813 3045 -994 
Q 2841 -1175 2542 -1265 
Q 2244 -1356 1863 -1356 
z
M 2597 1738 
Q 2597 2056 2534 2268 
Q 2472 2481 2372 2609 
Q 2272 2738 2142 2791 
Q 2013 2844 1881 2844 
Q 1713 2844 1583 2778 
Q 1453 2713 1362 2575 
Q 1272 2438 1225 2225 
Q 1178 2013 1178 1719 
Q 1178 1172 1353 894 
Q 1528 616 1875 616 
Q 2006 616 2136 667 
Q 2266 719 2369 848 
Q 2472 978 2534 1193 
Q 2597 1409 2597 1738 
z
" id="LiberationSans-Bold-67" transform="scale(0.015625)"/>
      <path d="M 1228 -63 
Q 984 -63 792 4 
Q 600 72 465 201 
Q 331 331 259 522 
Q 188 713 188 956 
Q 188 1256 292 1461 
Q 397 1666 578 1792 
Q 759 1919 1003 1976 
Q 1247 2034 1522 2038 
L 2250 2050 
L 2250 2222 
Q 2250 2406 2217 2529 
Q 2184 2653 2121 2731 
Q 2059 2809 1967 2842 
Q 1875 2875 1756 2875 
Q 1647 2875 1561 2853 
Q 1475 2831 1412 2776 
Q 1350 2722 1311 2630 
Q 1272 2538 1256 2397 
L 341 2441 
Q 378 2663 478 2845 
Q 578 3028 754 3162 
Q 931 3297 1189 3370 
Q 1447 3444 1794 3444 
Q 2109 3444 2356 3366 
Q 2603 3288 2775 3133 
Q 2947 2978 3037 2753 
Q 3128 2528 3128 2231 
L 3128 1000 
Q 3128 881 3139 787 
Q 3150 694 3179 630 
Q 3209 566 3264 533 
Q 3319 500 3406 500 
Q 3506 500 3600 519 
L 3600 44 
Q 3522 25 3459 9 
Q 3397 -6 3334 -15 
Q 3272 -25 3201 -31 
Q 3131 -38 3038 -38 
Q 2706 -38 2548 125 
Q 2391 288 2359 603 
L 2341 603 
Q 2166 288 1892 112 
Q 1619 -63 1228 -63 
z
M 2250 1566 
L 1800 1559 
Q 1659 1553 1532 1536 
Q 1406 1519 1311 1464 
Q 1216 1409 1159 1306 
Q 1103 1203 1103 1025 
Q 1103 784 1214 667 
Q 1325 550 1509 550 
Q 1678 550 1815 622 
Q 1953 694 2048 811 
Q 2144 928 2197 1081 
Q 2250 1234 2250 1394 
L 2250 1566 
z
" id="LiberationSans-Bold-61" transform="scale(0.015625)"/>
      <path d="M 2438 0 
L 2438 1897 
Q 2438 2094 2411 2258 
Q 2384 2422 2323 2539 
Q 2263 2656 2164 2722 
Q 2066 2788 1925 2788 
Q 1791 2788 1681 2717 
Q 1572 2647 1492 2517 
Q 1413 2388 1369 2208 
Q 1325 2028 1325 1813 
L 1325 0 
L 447 0 
L 447 2625 
Q 447 2734 445 2850 
Q 444 2966 439 3070 
Q 434 3175 431 3258 
Q 428 3341 422 3381 
L 1259 3381 
Q 1266 3344 1272 3261 
Q 1278 3178 1284 3078 
Q 1291 2978 1295 2878 
Q 1300 2778 1300 2709 
L 1313 2709 
Q 1475 3097 1717 3272 
Q 1959 3447 2297 3447 
Q 2684 3447 2920 3258 
Q 3156 3069 3238 2709 
L 3256 2709 
Q 3347 2919 3451 3059 
Q 3556 3200 3682 3286 
Q 3809 3372 3957 3409 
Q 4106 3447 4281 3447 
Q 4559 3447 4751 3347 
Q 4944 3247 5064 3072 
Q 5184 2897 5239 2659 
Q 5294 2422 5294 2147 
L 5294 0 
L 4422 0 
L 4422 1897 
Q 4422 2094 4395 2258 
Q 4369 2422 4308 2539 
Q 4247 2656 4148 2722 
Q 4050 2788 3909 2788 
Q 3778 2788 3670 2720 
Q 3563 2653 3483 2529 
Q 3403 2406 3359 2234 
Q 3316 2063 3309 1853 
L 3309 0 
L 2438 0 
z
" id="LiberationSans-Bold-6d" transform="scale(0.015625)"/>
      <path d="M 616 2350 
L 616 3231 
L 1516 3231 
L 1516 2350 
L 616 2350 
z
M 616 0 
L 616 878 
L 1516 878 
L 1516 0 
L 616 0 
z
" id="LiberationSans-Bold-3a" transform="scale(0.015625)"/>
      <path id="LiberationSans-Bold-20" transform="scale(0.015625)"/>
      <path d="M 222 0 
L 222 609 
Q 372 938 587 1202 
Q 803 1466 1039 1686 
Q 1275 1906 1508 2095 
Q 1741 2284 1927 2461 
Q 2113 2638 2228 2816 
Q 2344 2994 2344 3194 
Q 2344 3488 2197 3628 
Q 2050 3769 1766 3769 
Q 1484 3769 1336 3617 
Q 1188 3466 1144 3163 
L 259 3213 
Q 291 3472 387 3700 
Q 484 3928 664 4100 
Q 844 4272 1114 4370 
Q 1384 4469 1759 4469 
Q 2116 4469 2391 4386 
Q 2666 4303 2853 4143 
Q 3041 3984 3137 3754 
Q 3234 3525 3234 3231 
Q 3234 2922 3112 2672 
Q 2991 2422 2800 2211 
Q 2609 2000 2376 1815 
Q 2144 1631 1925 1456 
Q 1706 1281 1526 1103 
Q 1347 925 1259 722 
L 3303 722 
L 3303 0 
L 222 0 
z
" id="LiberationSans-Bold-32" transform="scale(0.015625)"/>
      <path d="M 3297 2203 
Q 3297 1572 3181 1139 
Q 3066 706 2861 439 
Q 2656 172 2376 54 
Q 2097 -63 1766 -63 
Q 1434 -63 1156 53 
Q 878 169 678 436 
Q 478 703 365 1136 
Q 253 1569 253 2203 
Q 253 2869 364 3305 
Q 475 3741 678 4000 
Q 881 4259 1164 4364 
Q 1447 4469 1791 4469 
Q 2113 4469 2389 4364 
Q 2666 4259 2867 4000 
Q 3069 3741 3183 3305 
Q 3297 2869 3297 2203 
z
M 2416 2203 
Q 2416 2669 2381 2973 
Q 2347 3278 2272 3458 
Q 2197 3638 2076 3709 
Q 1956 3781 1784 3781 
Q 1600 3781 1475 3707 
Q 1350 3634 1273 3453 
Q 1197 3272 1164 2967 
Q 1131 2663 1131 2203 
Q 1131 1750 1165 1447 
Q 1200 1144 1275 961 
Q 1350 778 1472 703 
Q 1594 628 1772 628 
Q 1944 628 2066 703 
Q 2188 778 2266 961 
Q 2344 1144 2380 1447 
Q 2416 1750 2416 2203 
z
" id="LiberationSans-Bold-30" transform="scale(0.015625)"/>
      <path d="M 4709 2222 
Q 4709 1781 4598 1411 
Q 4488 1041 4277 755 
Q 4066 469 3762 280 
Q 3459 91 3072 13 
Q 3134 -169 3218 -283 
Q 3303 -397 3409 -461 
Q 3516 -525 3641 -548 
Q 3766 -572 3909 -572 
Q 4000 -572 4094 -564 
Q 4188 -556 4281 -541 
L 4275 -1172 
Q 4106 -1209 3922 -1234 
Q 3738 -1259 3519 -1259 
Q 3222 -1259 3000 -1170 
Q 2778 -1081 2614 -920 
Q 2450 -759 2336 -532 
Q 2222 -306 2138 -31 
Q 1669 13 1317 197 
Q 966 381 731 678 
Q 497 975 380 1369 
Q 263 1763 263 2222 
Q 263 2738 408 3153 
Q 553 3569 836 3861 
Q 1119 4153 1533 4311 
Q 1947 4469 2484 4469 
Q 3022 4469 3436 4309 
Q 3850 4150 4133 3856 
Q 4416 3563 4562 3148 
Q 4709 2734 4709 2222 
z
M 3769 2222 
Q 3769 2569 3686 2848 
Q 3603 3128 3440 3328 
Q 3278 3528 3039 3636 
Q 2800 3744 2484 3744 
Q 2163 3744 1920 3636 
Q 1678 3528 1515 3328 
Q 1353 3128 1272 2848 
Q 1191 2569 1191 2222 
Q 1191 1878 1273 1590 
Q 1356 1303 1518 1097 
Q 1681 891 1922 775 
Q 2163 659 2478 659 
Q 2816 659 3059 776 
Q 3303 894 3461 1101 
Q 3619 1309 3694 1596 
Q 3769 1884 3769 2222 
z
" id="LiberationSans-Bold-51" transform="scale(0.015625)"/>
      <path d="M 428 0 
L 428 4403 
L 1350 4403 
L 1350 713 
L 3713 713 
L 3713 0 
L 428 0 
z
" id="LiberationSans-Bold-4c" transform="scale(0.015625)"/>
      <path d="M 3278 3706 
Q 2981 3238 2717 2797 
Q 2453 2356 2256 1911 
Q 2059 1466 1945 995 
Q 1831 525 1831 0 
L 916 0 
Q 916 522 1039 992 
Q 1163 1463 1375 1909 
Q 1588 2356 1869 2792 
Q 2150 3228 2463 3681 
L 275 3681 
L 275 4403 
L 3278 4403 
L 3278 3706 
z
" id="LiberationSans-Bold-37" transform="scale(0.015625)"/>
     </defs>
     <use xlink:href="#LiberationSans-Bold-50"/>
     <use x="66.699219" xlink:href="#LiberationSans-Bold-65"/>
     <use x="122.314453" xlink:href="#LiberationSans-Bold-72"/>
     <use x="161.230469" xlink:href="#LiberationSans-Bold-69"/>
     <use x="189.013672" xlink:href="#LiberationSans-Bold-6f"/>
     <use x="250.097656" xlink:href="#LiberationSans-Bold-64"/>
     <use x="311.181641" xlink:href="#LiberationSans-Bold-6f"/>
     <use x="372.265625" xlink:href="#LiberationSans-Bold-67"/>
     <use x="433.349609" xlink:href="#LiberationSans-Bold-72"/>
     <use x="472.265625" xlink:href="#LiberationSans-Bold-61"/>
     <use x="527.880859" xlink:href="#LiberationSans-Bold-6d"/>
     <use x="616.796875" xlink:href="#LiberationSans-Bold-3a"/>
     <use x="650.097656" xlink:href="#LiberationSans-Bold-20"/>
     <use x="677.880859" xlink:href="#LiberationSans-Bold-32"/>
     <use x="733.496094" xlink:href="#LiberationSans-Bold-30"/>
     <use x="789.111328" xlink:href="#LiberationSans-Bold-30"/>
     <use x="844.726562" xlink:href="#LiberationSans-Bold-30"/>
     <use x="900.341797" xlink:href="#LiberationSans-Bold-20"/>
     <use x="928.125" xlink:href="#LiberationSans-Bold-51"/>
     <use x="1005.908203" xlink:href="#LiberationSans-Bold-4c"/>
     <use x="1066.992188" xlink:href="#LiberationSans-Bold-37"/>
    </g>
   </g>
  </g>
 </g>
 <defs>
  <clipPath id="p0b7de125c6">
   <rect height="332.64" width="558" x="90" y="51.84"/>
  </clipPath>
 </defs>
</svg>
