<?xml version="1.0" encoding="utf-8" standalone="no"?>
<!DOCTYPE svg PUBLIC "-//W3C//DTD SVG 1.1//EN"
  "http://www.w3.org/Graphics/SVG/1.1/DTD/svg11.dtd">
<svg height="432pt" version="1.1" viewBox="0 0 720 432" width="720pt" xmlns="http://www.w3.org/2000/svg" xmlns:xlink="http://www.w3.org/1999/xlink">
 <metadata>
  <rdf:RDF xmlns:cc="http://creativecommons.org/ns#" xmlns:dc="http://purl.org/dc/elements/1.1/" xmlns:rdf="http://www.w3.org/1999/02/22-rdf-syntax-ns#">
   <cc:Work>
    <dc:type rdf:resource="http://purl.org/dc/dcmitype/StillImage"/>
    <dc:date>2021-09-06T16:02:06.956271</dc:date>
    <dc:format>image/svg+xml</dc:format>
    <dc:creator>
     <cc:Agent>
      <dc:title>Matplotlib v3.4.2, https://matplotlib.org/</dc:title>
     </cc:Agent>
    </dc:creator>
   </cc:Work>
  </rdf:RDF>
 </metadata>
 <defs>
  <style type="text/css">*{stroke-linecap:butt;stroke-linejoin:round;}</style>
 </defs>
 <g id="figure_1">
  <g id="patch_1">
   <path d="M 0 432 
L 720 432 
L 720 0 
L 0 0 
z
" style="fill:#ffffff;"/>
  </g>
  <g id="axes_1">
   <g id="patch_2">
    <path d="M 90 384.48 
L 648 384.48 
L 648 51.84 
L 90 51.84 
z
" style="fill:#ffffff;"/>
   </g>
   <g id="matplotlib.axis_1">
    <g id="xtick_1">
     <g id="line2d_1">
      <path clip-path="url(#pbcbc93cdc9)" d="M 121 384.48 
L 121 51.84 
" style="fill:none;stroke:#808080;stroke-linecap:square;stroke-width:0.4;"/>
     </g>
     <g id="line2d_2">
      <defs>
       <path d="M 0 0 
L 0 -3.5 
" id="m141a143da1" style="stroke:#000000;stroke-width:0.8;"/>
      </defs>
      <g>
       <use style="stroke:#000000;stroke-width:0.8;" x="121" xlink:href="#m141a143da1" y="384.48"/>
      </g>
     </g>
     <g id="line2d_3">
      <defs>
       <path d="M 0 0 
L 0 3.5 
" id="m4267160947" style="stroke:#000000;stroke-width:0.8;"/>
      </defs>
      <g>
       <use style="stroke:#000000;stroke-width:0.8;" x="121" xlink:href="#m4267160947" y="51.84"/>
      </g>
     </g>
     <g id="text_1">
      <!-- $\mathdefault{2.2}$ -->
      <g transform="translate(111.651474 398.357725)scale(0.15 -0.15)">
       <defs>
        <path d="M 2669 989 
L 2554 989 
C 2490 536 2438 459 2413 420 
C 2381 369 1920 369 1830 369 
L 602 369 
C 832 619 1280 1072 1824 1597 
C 2214 1967 2669 2402 2669 3035 
C 2669 3790 2067 4224 1395 4224 
C 691 4224 262 3604 262 3030 
C 262 2780 448 2748 525 2748 
C 589 2748 781 2787 781 3010 
C 781 3207 614 3264 525 3264 
C 486 3264 448 3258 422 3245 
C 544 3790 915 4058 1306 4058 
C 1862 4058 2227 3617 2227 3035 
C 2227 2479 1901 2000 1536 1584 
L 262 146 
L 262 0 
L 2515 0 
L 2669 989 
z
" id="CMR17-32" transform="scale(0.015625)"/>
        <path d="M 1178 307 
C 1178 492 1024 619 870 619 
C 685 619 557 466 557 313 
C 557 128 710 0 864 0 
C 1050 0 1178 153 1178 307 
z
" id="CMMI12-3a" transform="scale(0.015625)"/>
       </defs>
       <use transform="scale(0.996264)" xlink:href="#CMR17-32"/>
       <use transform="translate(45.690477 0)scale(0.996264)" xlink:href="#CMMI12-3a"/>
       <use transform="translate(72.787654 0)scale(0.996264)" xlink:href="#CMR17-32"/>
      </g>
     </g>
    </g>
    <g id="xtick_2">
     <g id="line2d_4">
      <path clip-path="url(#pbcbc93cdc9)" d="M 183 384.48 
L 183 51.84 
" style="fill:none;stroke:#808080;stroke-linecap:square;stroke-width:0.4;"/>
     </g>
     <g id="line2d_5">
      <g>
       <use style="stroke:#000000;stroke-width:0.8;" x="183" xlink:href="#m141a143da1" y="384.48"/>
      </g>
     </g>
     <g id="line2d_6">
      <g>
       <use style="stroke:#000000;stroke-width:0.8;" x="183" xlink:href="#m4267160947" y="51.84"/>
      </g>
     </g>
     <g id="text_2">
      <!-- $\mathdefault{2.4}$ -->
      <g transform="translate(173.651474 398.357725)scale(0.15 -0.15)">
       <defs>
        <path d="M 2150 4122 
C 2150 4256 2144 4256 2029 4256 
L 128 1254 
L 128 1088 
L 1779 1088 
L 1779 457 
C 1779 224 1766 160 1318 160 
L 1197 160 
L 1197 0 
C 1402 0 1747 0 1965 0 
C 2182 0 2528 0 2733 0 
L 2733 160 
L 2611 160 
C 2163 160 2150 224 2150 457 
L 2150 1088 
L 2803 1088 
L 2803 1254 
L 2150 1254 
L 2150 4122 
z
M 1798 3703 
L 1798 1254 
L 256 1254 
L 1798 3703 
z
" id="CMR17-34" transform="scale(0.015625)"/>
       </defs>
       <use transform="scale(0.996264)" xlink:href="#CMR17-32"/>
       <use transform="translate(45.690477 0)scale(0.996264)" xlink:href="#CMMI12-3a"/>
       <use transform="translate(72.787654 0)scale(0.996264)" xlink:href="#CMR17-34"/>
      </g>
     </g>
    </g>
    <g id="xtick_3">
     <g id="line2d_7">
      <path clip-path="url(#pbcbc93cdc9)" d="M 245 384.48 
L 245 51.84 
" style="fill:none;stroke:#808080;stroke-linecap:square;stroke-width:0.4;"/>
     </g>
     <g id="line2d_8">
      <g>
       <use style="stroke:#000000;stroke-width:0.8;" x="245" xlink:href="#m141a143da1" y="384.48"/>
      </g>
     </g>
     <g id="line2d_9">
      <g>
       <use style="stroke:#000000;stroke-width:0.8;" x="245" xlink:href="#m4267160947" y="51.84"/>
      </g>
     </g>
     <g id="text_3">
      <!-- $\mathdefault{2.6}$ -->
      <g transform="translate(235.651474 398.357725)scale(0.15 -0.15)">
       <defs>
        <path d="M 678 2176 
C 678 3690 1395 4032 1811 4032 
C 1946 4032 2272 4009 2400 3776 
C 2298 3776 2106 3776 2106 3553 
C 2106 3381 2246 3323 2336 3323 
C 2394 3323 2566 3348 2566 3560 
C 2566 3954 2246 4179 1805 4179 
C 1043 4179 243 3390 243 1984 
C 243 253 966 -128 1478 -128 
C 2099 -128 2688 427 2688 1283 
C 2688 2081 2170 2662 1517 2662 
C 1126 2662 838 2407 678 1960 
L 678 2176 
z
M 1478 25 
C 691 25 691 1200 691 1436 
C 691 1896 909 2560 1504 2560 
C 1613 2560 1926 2560 2138 2120 
C 2253 1870 2253 1609 2253 1289 
C 2253 944 2253 690 2118 434 
C 1978 171 1773 25 1478 25 
z
" id="CMR17-36" transform="scale(0.015625)"/>
       </defs>
       <use transform="scale(0.996264)" xlink:href="#CMR17-32"/>
       <use transform="translate(45.690477 0)scale(0.996264)" xlink:href="#CMMI12-3a"/>
       <use transform="translate(72.787654 0)scale(0.996264)" xlink:href="#CMR17-36"/>
      </g>
     </g>
    </g>
    <g id="xtick_4">
     <g id="line2d_10">
      <path clip-path="url(#pbcbc93cdc9)" d="M 307 384.48 
L 307 51.84 
" style="fill:none;stroke:#808080;stroke-linecap:square;stroke-width:0.4;"/>
     </g>
     <g id="line2d_11">
      <g>
       <use style="stroke:#000000;stroke-width:0.8;" x="307" xlink:href="#m141a143da1" y="384.48"/>
      </g>
     </g>
     <g id="line2d_12">
      <g>
       <use style="stroke:#000000;stroke-width:0.8;" x="307" xlink:href="#m4267160947" y="51.84"/>
      </g>
     </g>
     <g id="text_4">
      <!-- $\mathdefault{2.8}$ -->
      <g transform="translate(297.651474 398.357725)scale(0.15 -0.15)">
       <defs>
        <path d="M 1741 2264 
C 2144 2467 2554 2773 2554 3263 
C 2554 3841 1990 4179 1472 4179 
C 890 4179 378 3759 378 3180 
C 378 3021 416 2747 666 2505 
C 730 2442 998 2251 1171 2130 
C 883 1983 211 1634 211 934 
C 211 279 838 -128 1459 -128 
C 2144 -128 2720 362 2720 1010 
C 2720 1590 2330 1857 2074 2029 
L 1741 2264 
z
M 902 2822 
C 851 2854 595 3051 595 3351 
C 595 3739 998 4032 1459 4032 
C 1965 4032 2336 3676 2336 3262 
C 2336 2669 1670 2331 1638 2331 
C 1632 2331 1626 2331 1574 2370 
L 902 2822 
z
M 2080 1519 
C 2176 1449 2483 1240 2483 851 
C 2483 381 2010 25 1472 25 
C 890 25 448 438 448 940 
C 448 1443 838 1862 1280 2060 
L 2080 1519 
z
" id="CMR17-38" transform="scale(0.015625)"/>
       </defs>
       <use transform="scale(0.996264)" xlink:href="#CMR17-32"/>
       <use transform="translate(45.690477 0)scale(0.996264)" xlink:href="#CMMI12-3a"/>
       <use transform="translate(72.787654 0)scale(0.996264)" xlink:href="#CMR17-38"/>
      </g>
     </g>
    </g>
    <g id="xtick_5">
     <g id="line2d_13">
      <path clip-path="url(#pbcbc93cdc9)" d="M 369 384.48 
L 369 51.84 
" style="fill:none;stroke:#808080;stroke-linecap:square;stroke-width:0.4;"/>
     </g>
     <g id="line2d_14">
      <g>
       <use style="stroke:#000000;stroke-width:0.8;" x="369" xlink:href="#m141a143da1" y="384.48"/>
      </g>
     </g>
     <g id="line2d_15">
      <g>
       <use style="stroke:#000000;stroke-width:0.8;" x="369" xlink:href="#m4267160947" y="51.84"/>
      </g>
     </g>
     <g id="text_5">
      <!-- $\mathdefault{3.0}$ -->
      <g transform="translate(359.651474 398.357725)scale(0.15 -0.15)">
       <defs>
        <path d="M 1414 2157 
C 1984 2157 2234 1662 2234 1090 
C 2234 320 1824 25 1453 25 
C 1114 25 563 194 390 693 
C 422 680 454 680 486 680 
C 640 680 755 782 755 948 
C 755 1133 614 1216 486 1216 
C 378 1216 211 1165 211 926 
C 211 335 787 -128 1466 -128 
C 2176 -128 2720 430 2720 1085 
C 2720 1707 2208 2157 1600 2227 
C 2086 2328 2554 2756 2554 3329 
C 2554 3820 2048 4179 1472 4179 
C 890 4179 378 3829 378 3329 
C 378 3110 544 3072 627 3072 
C 762 3072 877 3155 877 3321 
C 877 3486 762 3569 627 3569 
C 602 3569 570 3569 544 3557 
C 730 3959 1235 4032 1459 4032 
C 1683 4032 2106 3925 2106 3320 
C 2106 3143 2080 2828 1862 2550 
C 1670 2304 1453 2304 1242 2284 
C 1210 2284 1062 2269 1037 2269 
C 992 2263 966 2257 966 2208 
C 966 2163 973 2157 1101 2157 
L 1414 2157 
z
" id="CMR17-33" transform="scale(0.015625)"/>
        <path d="M 2688 2025 
C 2688 2416 2682 3080 2413 3591 
C 2176 4039 1798 4198 1466 4198 
C 1158 4198 768 4058 525 3597 
C 269 3118 243 2524 243 2025 
C 243 1661 250 1106 448 619 
C 723 -39 1216 -128 1466 -128 
C 1760 -128 2208 -7 2470 600 
C 2662 1042 2688 1559 2688 2025 
z
M 1466 -26 
C 1056 -26 813 325 723 812 
C 653 1188 653 1738 653 2096 
C 653 2588 653 2997 736 3387 
C 858 3929 1216 4096 1466 4096 
C 1728 4096 2067 3923 2189 3400 
C 2272 3036 2278 2607 2278 2096 
C 2278 1680 2278 1169 2202 792 
C 2067 95 1690 -26 1466 -26 
z
" id="CMR17-30" transform="scale(0.015625)"/>
       </defs>
       <use transform="scale(0.996264)" xlink:href="#CMR17-33"/>
       <use transform="translate(45.690477 0)scale(0.996264)" xlink:href="#CMMI12-3a"/>
       <use transform="translate(72.787654 0)scale(0.996264)" xlink:href="#CMR17-30"/>
      </g>
     </g>
    </g>
    <g id="xtick_6">
     <g id="line2d_16">
      <path clip-path="url(#pbcbc93cdc9)" d="M 431 384.48 
L 431 51.84 
" style="fill:none;stroke:#808080;stroke-linecap:square;stroke-width:0.4;"/>
     </g>
     <g id="line2d_17">
      <g>
       <use style="stroke:#000000;stroke-width:0.8;" x="431" xlink:href="#m141a143da1" y="384.48"/>
      </g>
     </g>
     <g id="line2d_18">
      <g>
       <use style="stroke:#000000;stroke-width:0.8;" x="431" xlink:href="#m4267160947" y="51.84"/>
      </g>
     </g>
     <g id="text_6">
      <!-- $\mathdefault{3.2}$ -->
      <g transform="translate(421.651474 398.357725)scale(0.15 -0.15)">
       <use transform="scale(0.996264)" xlink:href="#CMR17-33"/>
       <use transform="translate(45.690477 0)scale(0.996264)" xlink:href="#CMMI12-3a"/>
       <use transform="translate(72.787654 0)scale(0.996264)" xlink:href="#CMR17-32"/>
      </g>
     </g>
    </g>
    <g id="xtick_7">
     <g id="line2d_19">
      <path clip-path="url(#pbcbc93cdc9)" d="M 493 384.48 
L 493 51.84 
" style="fill:none;stroke:#808080;stroke-linecap:square;stroke-width:0.4;"/>
     </g>
     <g id="line2d_20">
      <g>
       <use style="stroke:#000000;stroke-width:0.8;" x="493" xlink:href="#m141a143da1" y="384.48"/>
      </g>
     </g>
     <g id="line2d_21">
      <g>
       <use style="stroke:#000000;stroke-width:0.8;" x="493" xlink:href="#m4267160947" y="51.84"/>
      </g>
     </g>
     <g id="text_7">
      <!-- $\mathdefault{3.4}$ -->
      <g transform="translate(483.651474 398.357725)scale(0.15 -0.15)">
       <use transform="scale(0.996264)" xlink:href="#CMR17-33"/>
       <use transform="translate(45.690477 0)scale(0.996264)" xlink:href="#CMMI12-3a"/>
       <use transform="translate(72.787654 0)scale(0.996264)" xlink:href="#CMR17-34"/>
      </g>
     </g>
    </g>
    <g id="xtick_8">
     <g id="line2d_22">
      <path clip-path="url(#pbcbc93cdc9)" d="M 555 384.48 
L 555 51.84 
" style="fill:none;stroke:#808080;stroke-linecap:square;stroke-width:0.4;"/>
     </g>
     <g id="line2d_23">
      <g>
       <use style="stroke:#000000;stroke-width:0.8;" x="555" xlink:href="#m141a143da1" y="384.48"/>
      </g>
     </g>
     <g id="line2d_24">
      <g>
       <use style="stroke:#000000;stroke-width:0.8;" x="555" xlink:href="#m4267160947" y="51.84"/>
      </g>
     </g>
     <g id="text_8">
      <!-- $\mathdefault{3.6}$ -->
      <g transform="translate(545.651474 398.357725)scale(0.15 -0.15)">
       <use transform="scale(0.996264)" xlink:href="#CMR17-33"/>
       <use transform="translate(45.690477 0)scale(0.996264)" xlink:href="#CMMI12-3a"/>
       <use transform="translate(72.787654 0)scale(0.996264)" xlink:href="#CMR17-36"/>
      </g>
     </g>
    </g>
    <g id="xtick_9">
     <g id="line2d_25">
      <path clip-path="url(#pbcbc93cdc9)" d="M 617 384.48 
L 617 51.84 
" style="fill:none;stroke:#808080;stroke-linecap:square;stroke-width:0.4;"/>
     </g>
     <g id="line2d_26">
      <g>
       <use style="stroke:#000000;stroke-width:0.8;" x="617" xlink:href="#m141a143da1" y="384.48"/>
      </g>
     </g>
     <g id="line2d_27">
      <g>
       <use style="stroke:#000000;stroke-width:0.8;" x="617" xlink:href="#m4267160947" y="51.84"/>
      </g>
     </g>
     <g id="text_9">
      <!-- $\mathdefault{3.8}$ -->
      <g transform="translate(607.651474 398.357725)scale(0.15 -0.15)">
       <use transform="scale(0.996264)" xlink:href="#CMR17-33"/>
       <use transform="translate(45.690477 0)scale(0.996264)" xlink:href="#CMMI12-3a"/>
       <use transform="translate(72.787654 0)scale(0.996264)" xlink:href="#CMR17-38"/>
      </g>
     </g>
    </g>
    <g id="xtick_10">
     <g id="line2d_28">
      <path clip-path="url(#pbcbc93cdc9)" d="M 105.5 384.48 
L 105.5 51.84 
" style="fill:none;stroke:#808080;stroke-dasharray:0.74,0.32;stroke-dashoffset:0;stroke-width:0.2;"/>
     </g>
     <g id="line2d_29">
      <defs>
       <path d="M 0 0 
L 0 -2 
" id="m87c09cc947" style="stroke:#000000;stroke-width:0.6;"/>
      </defs>
      <g>
       <use style="stroke:#000000;stroke-width:0.6;" x="105.5" xlink:href="#m87c09cc947" y="384.48"/>
      </g>
     </g>
     <g id="line2d_30">
      <defs>
       <path d="M 0 0 
L 0 2 
" id="m3719a4a448" style="stroke:#000000;stroke-width:0.6;"/>
      </defs>
      <g>
       <use style="stroke:#000000;stroke-width:0.6;" x="105.5" xlink:href="#m3719a4a448" y="51.84"/>
      </g>
     </g>
    </g>
    <g id="xtick_11">
     <g id="line2d_31">
      <path clip-path="url(#pbcbc93cdc9)" d="M 136.5 384.48 
L 136.5 51.84 
" style="fill:none;stroke:#808080;stroke-dasharray:0.74,0.32;stroke-dashoffset:0;stroke-width:0.2;"/>
     </g>
     <g id="line2d_32">
      <g>
       <use style="stroke:#000000;stroke-width:0.6;" x="136.5" xlink:href="#m87c09cc947" y="384.48"/>
      </g>
     </g>
     <g id="line2d_33">
      <g>
       <use style="stroke:#000000;stroke-width:0.6;" x="136.5" xlink:href="#m3719a4a448" y="51.84"/>
      </g>
     </g>
    </g>
    <g id="xtick_12">
     <g id="line2d_34">
      <path clip-path="url(#pbcbc93cdc9)" d="M 152 384.48 
L 152 51.84 
" style="fill:none;stroke:#808080;stroke-dasharray:0.74,0.32;stroke-dashoffset:0;stroke-width:0.2;"/>
     </g>
     <g id="line2d_35">
      <g>
       <use style="stroke:#000000;stroke-width:0.6;" x="152" xlink:href="#m87c09cc947" y="384.48"/>
      </g>
     </g>
     <g id="line2d_36">
      <g>
       <use style="stroke:#000000;stroke-width:0.6;" x="152" xlink:href="#m3719a4a448" y="51.84"/>
      </g>
     </g>
    </g>
    <g id="xtick_13">
     <g id="line2d_37">
      <path clip-path="url(#pbcbc93cdc9)" d="M 167.5 384.48 
L 167.5 51.84 
" style="fill:none;stroke:#808080;stroke-dasharray:0.74,0.32;stroke-dashoffset:0;stroke-width:0.2;"/>
     </g>
     <g id="line2d_38">
      <g>
       <use style="stroke:#000000;stroke-width:0.6;" x="167.5" xlink:href="#m87c09cc947" y="384.48"/>
      </g>
     </g>
     <g id="line2d_39">
      <g>
       <use style="stroke:#000000;stroke-width:0.6;" x="167.5" xlink:href="#m3719a4a448" y="51.84"/>
      </g>
     </g>
    </g>
    <g id="xtick_14">
     <g id="line2d_40">
      <path clip-path="url(#pbcbc93cdc9)" d="M 198.5 384.48 
L 198.5 51.84 
" style="fill:none;stroke:#808080;stroke-dasharray:0.74,0.32;stroke-dashoffset:0;stroke-width:0.2;"/>
     </g>
     <g id="line2d_41">
      <g>
       <use style="stroke:#000000;stroke-width:0.6;" x="198.5" xlink:href="#m87c09cc947" y="384.48"/>
      </g>
     </g>
     <g id="line2d_42">
      <g>
       <use style="stroke:#000000;stroke-width:0.6;" x="198.5" xlink:href="#m3719a4a448" y="51.84"/>
      </g>
     </g>
    </g>
    <g id="xtick_15">
     <g id="line2d_43">
      <path clip-path="url(#pbcbc93cdc9)" d="M 214 384.48 
L 214 51.84 
" style="fill:none;stroke:#808080;stroke-dasharray:0.74,0.32;stroke-dashoffset:0;stroke-width:0.2;"/>
     </g>
     <g id="line2d_44">
      <g>
       <use style="stroke:#000000;stroke-width:0.6;" x="214" xlink:href="#m87c09cc947" y="384.48"/>
      </g>
     </g>
     <g id="line2d_45">
      <g>
       <use style="stroke:#000000;stroke-width:0.6;" x="214" xlink:href="#m3719a4a448" y="51.84"/>
      </g>
     </g>
    </g>
    <g id="xtick_16">
     <g id="line2d_46">
      <path clip-path="url(#pbcbc93cdc9)" d="M 229.5 384.48 
L 229.5 51.84 
" style="fill:none;stroke:#808080;stroke-dasharray:0.74,0.32;stroke-dashoffset:0;stroke-width:0.2;"/>
     </g>
     <g id="line2d_47">
      <g>
       <use style="stroke:#000000;stroke-width:0.6;" x="229.5" xlink:href="#m87c09cc947" y="384.48"/>
      </g>
     </g>
     <g id="line2d_48">
      <g>
       <use style="stroke:#000000;stroke-width:0.6;" x="229.5" xlink:href="#m3719a4a448" y="51.84"/>
      </g>
     </g>
    </g>
    <g id="xtick_17">
     <g id="line2d_49">
      <path clip-path="url(#pbcbc93cdc9)" d="M 260.5 384.48 
L 260.5 51.84 
" style="fill:none;stroke:#808080;stroke-dasharray:0.74,0.32;stroke-dashoffset:0;stroke-width:0.2;"/>
     </g>
     <g id="line2d_50">
      <g>
       <use style="stroke:#000000;stroke-width:0.6;" x="260.5" xlink:href="#m87c09cc947" y="384.48"/>
      </g>
     </g>
     <g id="line2d_51">
      <g>
       <use style="stroke:#000000;stroke-width:0.6;" x="260.5" xlink:href="#m3719a4a448" y="51.84"/>
      </g>
     </g>
    </g>
    <g id="xtick_18">
     <g id="line2d_52">
      <path clip-path="url(#pbcbc93cdc9)" d="M 276 384.48 
L 276 51.84 
" style="fill:none;stroke:#808080;stroke-dasharray:0.74,0.32;stroke-dashoffset:0;stroke-width:0.2;"/>
     </g>
     <g id="line2d_53">
      <g>
       <use style="stroke:#000000;stroke-width:0.6;" x="276" xlink:href="#m87c09cc947" y="384.48"/>
      </g>
     </g>
     <g id="line2d_54">
      <g>
       <use style="stroke:#000000;stroke-width:0.6;" x="276" xlink:href="#m3719a4a448" y="51.84"/>
      </g>
     </g>
    </g>
    <g id="xtick_19">
     <g id="line2d_55">
      <path clip-path="url(#pbcbc93cdc9)" d="M 291.5 384.48 
L 291.5 51.84 
" style="fill:none;stroke:#808080;stroke-dasharray:0.74,0.32;stroke-dashoffset:0;stroke-width:0.2;"/>
     </g>
     <g id="line2d_56">
      <g>
       <use style="stroke:#000000;stroke-width:0.6;" x="291.5" xlink:href="#m87c09cc947" y="384.48"/>
      </g>
     </g>
     <g id="line2d_57">
      <g>
       <use style="stroke:#000000;stroke-width:0.6;" x="291.5" xlink:href="#m3719a4a448" y="51.84"/>
      </g>
     </g>
    </g>
    <g id="xtick_20">
     <g id="line2d_58">
      <path clip-path="url(#pbcbc93cdc9)" d="M 322.5 384.48 
L 322.5 51.84 
" style="fill:none;stroke:#808080;stroke-dasharray:0.74,0.32;stroke-dashoffset:0;stroke-width:0.2;"/>
     </g>
     <g id="line2d_59">
      <g>
       <use style="stroke:#000000;stroke-width:0.6;" x="322.5" xlink:href="#m87c09cc947" y="384.48"/>
      </g>
     </g>
     <g id="line2d_60">
      <g>
       <use style="stroke:#000000;stroke-width:0.6;" x="322.5" xlink:href="#m3719a4a448" y="51.84"/>
      </g>
     </g>
    </g>
    <g id="xtick_21">
     <g id="line2d_61">
      <path clip-path="url(#pbcbc93cdc9)" d="M 338 384.48 
L 338 51.84 
" style="fill:none;stroke:#808080;stroke-dasharray:0.74,0.32;stroke-dashoffset:0;stroke-width:0.2;"/>
     </g>
     <g id="line2d_62">
      <g>
       <use style="stroke:#000000;stroke-width:0.6;" x="338" xlink:href="#m87c09cc947" y="384.48"/>
      </g>
     </g>
     <g id="line2d_63">
      <g>
       <use style="stroke:#000000;stroke-width:0.6;" x="338" xlink:href="#m3719a4a448" y="51.84"/>
      </g>
     </g>
    </g>
    <g id="xtick_22">
     <g id="line2d_64">
      <path clip-path="url(#pbcbc93cdc9)" d="M 353.5 384.48 
L 353.5 51.84 
" style="fill:none;stroke:#808080;stroke-dasharray:0.74,0.32;stroke-dashoffset:0;stroke-width:0.2;"/>
     </g>
     <g id="line2d_65">
      <g>
       <use style="stroke:#000000;stroke-width:0.6;" x="353.5" xlink:href="#m87c09cc947" y="384.48"/>
      </g>
     </g>
     <g id="line2d_66">
      <g>
       <use style="stroke:#000000;stroke-width:0.6;" x="353.5" xlink:href="#m3719a4a448" y="51.84"/>
      </g>
     </g>
    </g>
    <g id="xtick_23">
     <g id="line2d_67">
      <path clip-path="url(#pbcbc93cdc9)" d="M 384.5 384.48 
L 384.5 51.84 
" style="fill:none;stroke:#808080;stroke-dasharray:0.74,0.32;stroke-dashoffset:0;stroke-width:0.2;"/>
     </g>
     <g id="line2d_68">
      <g>
       <use style="stroke:#000000;stroke-width:0.6;" x="384.5" xlink:href="#m87c09cc947" y="384.48"/>
      </g>
     </g>
     <g id="line2d_69">
      <g>
       <use style="stroke:#000000;stroke-width:0.6;" x="384.5" xlink:href="#m3719a4a448" y="51.84"/>
      </g>
     </g>
    </g>
    <g id="xtick_24">
     <g id="line2d_70">
      <path clip-path="url(#pbcbc93cdc9)" d="M 400 384.48 
L 400 51.84 
" style="fill:none;stroke:#808080;stroke-dasharray:0.74,0.32;stroke-dashoffset:0;stroke-width:0.2;"/>
     </g>
     <g id="line2d_71">
      <g>
       <use style="stroke:#000000;stroke-width:0.6;" x="400" xlink:href="#m87c09cc947" y="384.48"/>
      </g>
     </g>
     <g id="line2d_72">
      <g>
       <use style="stroke:#000000;stroke-width:0.6;" x="400" xlink:href="#m3719a4a448" y="51.84"/>
      </g>
     </g>
    </g>
    <g id="xtick_25">
     <g id="line2d_73">
      <path clip-path="url(#pbcbc93cdc9)" d="M 415.5 384.48 
L 415.5 51.84 
" style="fill:none;stroke:#808080;stroke-dasharray:0.74,0.32;stroke-dashoffset:0;stroke-width:0.2;"/>
     </g>
     <g id="line2d_74">
      <g>
       <use style="stroke:#000000;stroke-width:0.6;" x="415.5" xlink:href="#m87c09cc947" y="384.48"/>
      </g>
     </g>
     <g id="line2d_75">
      <g>
       <use style="stroke:#000000;stroke-width:0.6;" x="415.5" xlink:href="#m3719a4a448" y="51.84"/>
      </g>
     </g>
    </g>
    <g id="xtick_26">
     <g id="line2d_76">
      <path clip-path="url(#pbcbc93cdc9)" d="M 446.5 384.48 
L 446.5 51.84 
" style="fill:none;stroke:#808080;stroke-dasharray:0.74,0.32;stroke-dashoffset:0;stroke-width:0.2;"/>
     </g>
     <g id="line2d_77">
      <g>
       <use style="stroke:#000000;stroke-width:0.6;" x="446.5" xlink:href="#m87c09cc947" y="384.48"/>
      </g>
     </g>
     <g id="line2d_78">
      <g>
       <use style="stroke:#000000;stroke-width:0.6;" x="446.5" xlink:href="#m3719a4a448" y="51.84"/>
      </g>
     </g>
    </g>
    <g id="xtick_27">
     <g id="line2d_79">
      <path clip-path="url(#pbcbc93cdc9)" d="M 462 384.48 
L 462 51.84 
" style="fill:none;stroke:#808080;stroke-dasharray:0.74,0.32;stroke-dashoffset:0;stroke-width:0.2;"/>
     </g>
     <g id="line2d_80">
      <g>
       <use style="stroke:#000000;stroke-width:0.6;" x="462" xlink:href="#m87c09cc947" y="384.48"/>
      </g>
     </g>
     <g id="line2d_81">
      <g>
       <use style="stroke:#000000;stroke-width:0.6;" x="462" xlink:href="#m3719a4a448" y="51.84"/>
      </g>
     </g>
    </g>
    <g id="xtick_28">
     <g id="line2d_82">
      <path clip-path="url(#pbcbc93cdc9)" d="M 477.5 384.48 
L 477.5 51.84 
" style="fill:none;stroke:#808080;stroke-dasharray:0.74,0.32;stroke-dashoffset:0;stroke-width:0.2;"/>
     </g>
     <g id="line2d_83">
      <g>
       <use style="stroke:#000000;stroke-width:0.6;" x="477.5" xlink:href="#m87c09cc947" y="384.48"/>
      </g>
     </g>
     <g id="line2d_84">
      <g>
       <use style="stroke:#000000;stroke-width:0.6;" x="477.5" xlink:href="#m3719a4a448" y="51.84"/>
      </g>
     </g>
    </g>
    <g id="xtick_29">
     <g id="line2d_85">
      <path clip-path="url(#pbcbc93cdc9)" d="M 508.5 384.48 
L 508.5 51.84 
" style="fill:none;stroke:#808080;stroke-dasharray:0.74,0.32;stroke-dashoffset:0;stroke-width:0.2;"/>
     </g>
     <g id="line2d_86">
      <g>
       <use style="stroke:#000000;stroke-width:0.6;" x="508.5" xlink:href="#m87c09cc947" y="384.48"/>
      </g>
     </g>
     <g id="line2d_87">
      <g>
       <use style="stroke:#000000;stroke-width:0.6;" x="508.5" xlink:href="#m3719a4a448" y="51.84"/>
      </g>
     </g>
    </g>
    <g id="xtick_30">
     <g id="line2d_88">
      <path clip-path="url(#pbcbc93cdc9)" d="M 524 384.48 
L 524 51.84 
" style="fill:none;stroke:#808080;stroke-dasharray:0.74,0.32;stroke-dashoffset:0;stroke-width:0.2;"/>
     </g>
     <g id="line2d_89">
      <g>
       <use style="stroke:#000000;stroke-width:0.6;" x="524" xlink:href="#m87c09cc947" y="384.48"/>
      </g>
     </g>
     <g id="line2d_90">
      <g>
       <use style="stroke:#000000;stroke-width:0.6;" x="524" xlink:href="#m3719a4a448" y="51.84"/>
      </g>
     </g>
    </g>
    <g id="xtick_31">
     <g id="line2d_91">
      <path clip-path="url(#pbcbc93cdc9)" d="M 539.5 384.48 
L 539.5 51.84 
" style="fill:none;stroke:#808080;stroke-dasharray:0.74,0.32;stroke-dashoffset:0;stroke-width:0.2;"/>
     </g>
     <g id="line2d_92">
      <g>
       <use style="stroke:#000000;stroke-width:0.6;" x="539.5" xlink:href="#m87c09cc947" y="384.48"/>
      </g>
     </g>
     <g id="line2d_93">
      <g>
       <use style="stroke:#000000;stroke-width:0.6;" x="539.5" xlink:href="#m3719a4a448" y="51.84"/>
      </g>
     </g>
    </g>
    <g id="xtick_32">
     <g id="line2d_94">
      <path clip-path="url(#pbcbc93cdc9)" d="M 570.5 384.48 
L 570.5 51.84 
" style="fill:none;stroke:#808080;stroke-dasharray:0.74,0.32;stroke-dashoffset:0;stroke-width:0.2;"/>
     </g>
     <g id="line2d_95">
      <g>
       <use style="stroke:#000000;stroke-width:0.6;" x="570.5" xlink:href="#m87c09cc947" y="384.48"/>
      </g>
     </g>
     <g id="line2d_96">
      <g>
       <use style="stroke:#000000;stroke-width:0.6;" x="570.5" xlink:href="#m3719a4a448" y="51.84"/>
      </g>
     </g>
    </g>
    <g id="xtick_33">
     <g id="line2d_97">
      <path clip-path="url(#pbcbc93cdc9)" d="M 586 384.48 
L 586 51.84 
" style="fill:none;stroke:#808080;stroke-dasharray:0.74,0.32;stroke-dashoffset:0;stroke-width:0.2;"/>
     </g>
     <g id="line2d_98">
      <g>
       <use style="stroke:#000000;stroke-width:0.6;" x="586" xlink:href="#m87c09cc947" y="384.48"/>
      </g>
     </g>
     <g id="line2d_99">
      <g>
       <use style="stroke:#000000;stroke-width:0.6;" x="586" xlink:href="#m3719a4a448" y="51.84"/>
      </g>
     </g>
    </g>
    <g id="xtick_34">
     <g id="line2d_100">
      <path clip-path="url(#pbcbc93cdc9)" d="M 601.5 384.48 
L 601.5 51.84 
" style="fill:none;stroke:#808080;stroke-dasharray:0.74,0.32;stroke-dashoffset:0;stroke-width:0.2;"/>
     </g>
     <g id="line2d_101">
      <g>
       <use style="stroke:#000000;stroke-width:0.6;" x="601.5" xlink:href="#m87c09cc947" y="384.48"/>
      </g>
     </g>
     <g id="line2d_102">
      <g>
       <use style="stroke:#000000;stroke-width:0.6;" x="601.5" xlink:href="#m3719a4a448" y="51.84"/>
      </g>
     </g>
    </g>
    <g id="xtick_35">
     <g id="line2d_103">
      <path clip-path="url(#pbcbc93cdc9)" d="M 632.5 384.48 
L 632.5 51.84 
" style="fill:none;stroke:#808080;stroke-dasharray:0.74,0.32;stroke-dashoffset:0;stroke-width:0.2;"/>
     </g>
     <g id="line2d_104">
      <g>
       <use style="stroke:#000000;stroke-width:0.6;" x="632.5" xlink:href="#m87c09cc947" y="384.48"/>
      </g>
     </g>
     <g id="line2d_105">
      <g>
       <use style="stroke:#000000;stroke-width:0.6;" x="632.5" xlink:href="#m3719a4a448" y="51.84"/>
      </g>
     </g>
    </g>
    <g id="text_10">
     <!-- Hours -->
     <g transform="translate(350.061665 415.641194)scale(0.15 -0.15)">
      <defs>
       <path d="M 3590 3905 
C 3590 4192 3661 4192 4102 4192 
L 4102 4352 
C 3917 4352 3578 4352 3379 4352 
C 3181 4352 2842 4352 2656 4352 
L 2656 4192 
C 3098 4192 3168 4192 3168 3904 
L 3168 2341 
L 1261 2341 
L 1261 3904 
C 1261 4192 1331 4192 1773 4192 
L 1773 4352 
C 1587 4352 1248 4352 1050 4352 
C 851 4352 512 4352 326 4352 
L 326 4192 
C 768 4192 838 4192 838 3905 
L 838 447 
C 838 160 768 160 326 160 
L 326 0 
C 512 0 851 0 1050 0 
C 1248 0 1587 0 1773 0 
L 1773 160 
C 1331 160 1261 160 1261 446 
L 1261 2176 
L 3168 2176 
L 3168 446 
C 3168 160 3098 160 2656 160 
L 2656 0 
C 2842 0 3181 0 3379 0 
C 3578 0 3917 0 4102 0 
L 4102 160 
C 3661 160 3590 160 3590 447 
L 3590 3905 
z
" id="CMR17-48" transform="scale(0.015625)"/>
       <path d="M 2758 1356 
C 2758 2176 2163 2816 1466 2816 
C 768 2816 173 2176 173 1356 
C 173 551 768 -64 1466 -64 
C 2163 -64 2758 551 2758 1356 
z
M 1466 51 
C 1165 51 909 230 762 480 
C 602 767 582 1126 582 1408 
C 582 1677 595 2010 762 2298 
C 890 2509 1139 2714 1466 2714 
C 1754 2714 1997 2554 2150 2330 
C 2349 2029 2349 1607 2349 1408 
C 2349 1158 2336 775 2163 467 
C 1984 173 1709 51 1466 51 
z
" id="CMR17-6f" transform="scale(0.015625)"/>
       <path d="M 1882 2693 
L 1882 2528 
C 2259 2528 2317 2489 2317 2186 
L 2317 1032 
C 2317 500 2029 38 1555 38 
C 1030 38 986 348 986 678 
L 986 2763 
L 211 2693 
L 211 2528 
C 467 2528 640 2528 646 2274 
L 646 1058 
C 646 633 646 361 813 183 
C 896 101 1056 -64 1517 -64 
C 2061 -64 2272 377 2323 506 
L 2330 506 
L 2330 -63 
L 3091 -63 
L 3091 128 
C 2714 128 2656 166 2656 473 
L 2656 2763 
L 1882 2693 
z
" id="CMR17-75" transform="scale(0.015625)"/>
       <path d="M 960 1497 
C 960 2112 1222 2688 1702 2688 
C 1747 2688 1792 2682 1837 2662 
C 1837 2662 1696 2617 1696 2452 
C 1696 2298 1818 2234 1914 2234 
C 1990 2234 2131 2279 2131 2458 
C 2131 2663 1926 2790 1709 2790 
C 1222 2790 1011 2317 947 2093 
L 941 2093 
L 941 2790 
L 198 2720 
L 198 2554 
C 576 2554 634 2515 634 2208 
L 634 428 
C 634 184 608 153 198 153 
L 198 -13 
C 352 0 646 0 813 0 
C 998 0 1325 0 1498 -13 
L 1498 153 
C 1037 153 960 153 960 440 
L 960 1497 
z
" id="CMR17-72" transform="scale(0.015625)"/>
       <path d="M 1978 2697 
C 1978 2813 1971 2819 1933 2819 
C 1907 2819 1901 2813 1824 2717 
C 1805 2691 1747 2626 1728 2601 
C 1523 2819 1235 2819 1126 2819 
C 416 2819 160 2447 160 2076 
C 160 1498 813 1365 998 1325 
C 1402 1243 1542 1217 1677 1101 
C 1760 1025 1901 884 1901 654 
C 1901 384 1747 38 1158 38 
C 602 38 403 460 288 1021 
C 269 1110 269 1117 218 1117 
C 166 1117 160 1110 160 983 
L 160 63 
C 160 -51 166 -58 205 -58 
C 237 -58 243 -51 275 0 
C 314 57 410 211 448 276 
C 576 103 800 -64 1158 -64 
C 1792 -64 2131 283 2131 784 
C 2131 1112 1958 1285 1875 1362 
C 1683 1561 1459 1606 1190 1657 
C 838 1735 390 1825 390 2217 
C 390 2383 480 2737 1126 2737 
C 1811 2737 1850 2094 1862 1888 
C 1869 1856 1901 1849 1920 1849 
C 1978 1849 1978 1869 1978 1978 
L 1978 2697 
z
" id="CMR17-73" transform="scale(0.015625)"/>
      </defs>
      <use transform="scale(0.996264)" xlink:href="#CMR17-48"/>
      <use transform="translate(69.07243 0)scale(0.996264)" xlink:href="#CMR17-6f"/>
      <use transform="translate(114.762907 0)scale(0.996264)" xlink:href="#CMR17-75"/>
      <use transform="translate(165.658277 0)scale(0.996264)" xlink:href="#CMR17-72"/>
      <use transform="translate(200.939045 0)scale(0.996264)" xlink:href="#CMR17-73"/>
     </g>
    </g>
   </g>
   <g id="matplotlib.axis_2">
    <g id="ytick_1">
     <g id="line2d_106">
      <path clip-path="url(#pbcbc93cdc9)" d="M 90 329.04 
L 648 329.04 
" style="fill:none;stroke:#808080;stroke-linecap:square;stroke-width:0.4;"/>
     </g>
     <g id="line2d_107">
      <defs>
       <path d="M 0 0 
L 3.5 0 
" id="mb6738ab875" style="stroke:#000000;stroke-width:0.8;"/>
      </defs>
      <g>
       <use style="stroke:#000000;stroke-width:0.8;" x="90" xlink:href="#mb6738ab875" y="329.04"/>
      </g>
     </g>
     <g id="line2d_108">
      <defs>
       <path d="M 0 0 
L -3.5 0 
" id="md2d3a12cbf" style="stroke:#000000;stroke-width:0.8;"/>
      </defs>
      <g>
       <use style="stroke:#000000;stroke-width:0.8;" x="648" xlink:href="#md2d3a12cbf" y="329.04"/>
      </g>
     </g>
     <g id="text_11">
      <!-- $\mathdefault{4.0}$ -->
      <g transform="translate(67.802948 334.228862)scale(0.15 -0.15)">
       <use transform="scale(0.996264)" xlink:href="#CMR17-34"/>
       <use transform="translate(45.690477 0)scale(0.996264)" xlink:href="#CMMI12-3a"/>
       <use transform="translate(72.787654 0)scale(0.996264)" xlink:href="#CMR17-30"/>
      </g>
     </g>
    </g>
    <g id="ytick_2">
     <g id="line2d_109">
      <path clip-path="url(#pbcbc93cdc9)" d="M 90 259.74 
L 648 259.74 
" style="fill:none;stroke:#808080;stroke-linecap:square;stroke-width:0.4;"/>
     </g>
     <g id="line2d_110">
      <g>
       <use style="stroke:#000000;stroke-width:0.8;" x="90" xlink:href="#mb6738ab875" y="259.74"/>
      </g>
     </g>
     <g id="line2d_111">
      <g>
       <use style="stroke:#000000;stroke-width:0.8;" x="648" xlink:href="#md2d3a12cbf" y="259.74"/>
      </g>
     </g>
     <g id="text_12">
      <!-- $\mathdefault{4.5}$ -->
      <g transform="translate(67.802948 264.928862)scale(0.15 -0.15)">
       <defs>
        <path d="M 730 3692 
C 794 3666 1056 3584 1325 3584 
C 1920 3584 2246 3911 2432 4100 
C 2432 4157 2432 4192 2394 4192 
C 2387 4192 2374 4192 2323 4163 
C 2099 4058 1837 3973 1517 3973 
C 1325 3973 1037 3999 723 4139 
C 653 4171 640 4171 634 4171 
C 602 4171 595 4164 595 4037 
L 595 2203 
C 595 2089 595 2057 659 2057 
C 691 2057 704 2070 736 2114 
C 941 2401 1222 2522 1542 2522 
C 1766 2522 2246 2382 2246 1289 
C 2246 1085 2246 715 2054 421 
C 1894 159 1645 25 1370 25 
C 947 25 518 320 403 814 
C 429 807 480 795 506 795 
C 589 795 749 840 749 1038 
C 749 1210 627 1280 506 1280 
C 358 1280 262 1190 262 1011 
C 262 454 704 -128 1382 -128 
C 2042 -128 2669 440 2669 1264 
C 2669 2030 2170 2624 1549 2624 
C 1222 2624 947 2503 730 2274 
L 730 3692 
z
" id="CMR17-35" transform="scale(0.015625)"/>
       </defs>
       <use transform="scale(0.996264)" xlink:href="#CMR17-34"/>
       <use transform="translate(45.690477 0)scale(0.996264)" xlink:href="#CMMI12-3a"/>
       <use transform="translate(72.787654 0)scale(0.996264)" xlink:href="#CMR17-35"/>
      </g>
     </g>
    </g>
    <g id="ytick_3">
     <g id="line2d_112">
      <path clip-path="url(#pbcbc93cdc9)" d="M 90 190.44 
L 648 190.44 
" style="fill:none;stroke:#808080;stroke-linecap:square;stroke-width:0.4;"/>
     </g>
     <g id="line2d_113">
      <g>
       <use style="stroke:#000000;stroke-width:0.8;" x="90" xlink:href="#mb6738ab875" y="190.44"/>
      </g>
     </g>
     <g id="line2d_114">
      <g>
       <use style="stroke:#000000;stroke-width:0.8;" x="648" xlink:href="#md2d3a12cbf" y="190.44"/>
      </g>
     </g>
     <g id="text_13">
      <!-- $\mathdefault{5.0}$ -->
      <g transform="translate(67.802948 195.628862)scale(0.15 -0.15)">
       <use transform="scale(0.996264)" xlink:href="#CMR17-35"/>
       <use transform="translate(45.690477 0)scale(0.996264)" xlink:href="#CMMI12-3a"/>
       <use transform="translate(72.787654 0)scale(0.996264)" xlink:href="#CMR17-30"/>
      </g>
     </g>
    </g>
    <g id="ytick_4">
     <g id="line2d_115">
      <path clip-path="url(#pbcbc93cdc9)" d="M 90 121.14 
L 648 121.14 
" style="fill:none;stroke:#808080;stroke-linecap:square;stroke-width:0.4;"/>
     </g>
     <g id="line2d_116">
      <g>
       <use style="stroke:#000000;stroke-width:0.8;" x="90" xlink:href="#mb6738ab875" y="121.14"/>
      </g>
     </g>
     <g id="line2d_117">
      <g>
       <use style="stroke:#000000;stroke-width:0.8;" x="648" xlink:href="#md2d3a12cbf" y="121.14"/>
      </g>
     </g>
     <g id="text_14">
      <!-- $\mathdefault{5.5}$ -->
      <g transform="translate(67.802948 126.328862)scale(0.15 -0.15)">
       <use transform="scale(0.996264)" xlink:href="#CMR17-35"/>
       <use transform="translate(45.690477 0)scale(0.996264)" xlink:href="#CMMI12-3a"/>
       <use transform="translate(72.787654 0)scale(0.996264)" xlink:href="#CMR17-35"/>
      </g>
     </g>
    </g>
    <g id="ytick_5">
     <g id="line2d_118">
      <path clip-path="url(#pbcbc93cdc9)" d="M 90 51.84 
L 648 51.84 
" style="fill:none;stroke:#808080;stroke-linecap:square;stroke-width:0.4;"/>
     </g>
     <g id="line2d_119">
      <g>
       <use style="stroke:#000000;stroke-width:0.8;" x="90" xlink:href="#mb6738ab875" y="51.84"/>
      </g>
     </g>
     <g id="line2d_120">
      <g>
       <use style="stroke:#000000;stroke-width:0.8;" x="648" xlink:href="#md2d3a12cbf" y="51.84"/>
      </g>
     </g>
     <g id="text_15">
      <!-- $\mathdefault{6.0}$ -->
      <g transform="translate(67.802948 57.028862)scale(0.15 -0.15)">
       <use transform="scale(0.996264)" xlink:href="#CMR17-36"/>
       <use transform="translate(45.690477 0)scale(0.996264)" xlink:href="#CMMI12-3a"/>
       <use transform="translate(72.787654 0)scale(0.996264)" xlink:href="#CMR17-30"/>
      </g>
     </g>
    </g>
    <g id="ytick_6">
     <g id="line2d_121">
      <path clip-path="url(#pbcbc93cdc9)" d="M 90 370.62 
L 648 370.62 
" style="fill:none;stroke:#808080;stroke-dasharray:0.74,0.32;stroke-dashoffset:0;stroke-width:0.2;"/>
     </g>
     <g id="line2d_122">
      <defs>
       <path d="M 0 0 
L 2 0 
" id="maeeb6b4108" style="stroke:#000000;stroke-width:0.6;"/>
      </defs>
      <g>
       <use style="stroke:#000000;stroke-width:0.6;" x="90" xlink:href="#maeeb6b4108" y="370.62"/>
      </g>
     </g>
     <g id="line2d_123">
      <defs>
       <path d="M 0 0 
L -2 0 
" id="m09d1f9306e" style="stroke:#000000;stroke-width:0.6;"/>
      </defs>
      <g>
       <use style="stroke:#000000;stroke-width:0.6;" x="648" xlink:href="#m09d1f9306e" y="370.62"/>
      </g>
     </g>
    </g>
    <g id="ytick_7">
     <g id="line2d_124">
      <path clip-path="url(#pbcbc93cdc9)" d="M 90 356.76 
L 648 356.76 
" style="fill:none;stroke:#808080;stroke-dasharray:0.74,0.32;stroke-dashoffset:0;stroke-width:0.2;"/>
     </g>
     <g id="line2d_125">
      <g>
       <use style="stroke:#000000;stroke-width:0.6;" x="90" xlink:href="#maeeb6b4108" y="356.76"/>
      </g>
     </g>
     <g id="line2d_126">
      <g>
       <use style="stroke:#000000;stroke-width:0.6;" x="648" xlink:href="#m09d1f9306e" y="356.76"/>
      </g>
     </g>
    </g>
    <g id="ytick_8">
     <g id="line2d_127">
      <path clip-path="url(#pbcbc93cdc9)" d="M 90 342.9 
L 648 342.9 
" style="fill:none;stroke:#808080;stroke-dasharray:0.74,0.32;stroke-dashoffset:0;stroke-width:0.2;"/>
     </g>
     <g id="line2d_128">
      <g>
       <use style="stroke:#000000;stroke-width:0.6;" x="90" xlink:href="#maeeb6b4108" y="342.9"/>
      </g>
     </g>
     <g id="line2d_129">
      <g>
       <use style="stroke:#000000;stroke-width:0.6;" x="648" xlink:href="#m09d1f9306e" y="342.9"/>
      </g>
     </g>
    </g>
    <g id="ytick_9">
     <g id="line2d_130">
      <path clip-path="url(#pbcbc93cdc9)" d="M 90 315.18 
L 648 315.18 
" style="fill:none;stroke:#808080;stroke-dasharray:0.74,0.32;stroke-dashoffset:0;stroke-width:0.2;"/>
     </g>
     <g id="line2d_131">
      <g>
       <use style="stroke:#000000;stroke-width:0.6;" x="90" xlink:href="#maeeb6b4108" y="315.18"/>
      </g>
     </g>
     <g id="line2d_132">
      <g>
       <use style="stroke:#000000;stroke-width:0.6;" x="648" xlink:href="#m09d1f9306e" y="315.18"/>
      </g>
     </g>
    </g>
    <g id="ytick_10">
     <g id="line2d_133">
      <path clip-path="url(#pbcbc93cdc9)" d="M 90 301.32 
L 648 301.32 
" style="fill:none;stroke:#808080;stroke-dasharray:0.74,0.32;stroke-dashoffset:0;stroke-width:0.2;"/>
     </g>
     <g id="line2d_134">
      <g>
       <use style="stroke:#000000;stroke-width:0.6;" x="90" xlink:href="#maeeb6b4108" y="301.32"/>
      </g>
     </g>
     <g id="line2d_135">
      <g>
       <use style="stroke:#000000;stroke-width:0.6;" x="648" xlink:href="#m09d1f9306e" y="301.32"/>
      </g>
     </g>
    </g>
    <g id="ytick_11">
     <g id="line2d_136">
      <path clip-path="url(#pbcbc93cdc9)" d="M 90 287.46 
L 648 287.46 
" style="fill:none;stroke:#808080;stroke-dasharray:0.74,0.32;stroke-dashoffset:0;stroke-width:0.2;"/>
     </g>
     <g id="line2d_137">
      <g>
       <use style="stroke:#000000;stroke-width:0.6;" x="90" xlink:href="#maeeb6b4108" y="287.46"/>
      </g>
     </g>
     <g id="line2d_138">
      <g>
       <use style="stroke:#000000;stroke-width:0.6;" x="648" xlink:href="#m09d1f9306e" y="287.46"/>
      </g>
     </g>
    </g>
    <g id="ytick_12">
     <g id="line2d_139">
      <path clip-path="url(#pbcbc93cdc9)" d="M 90 273.6 
L 648 273.6 
" style="fill:none;stroke:#808080;stroke-dasharray:0.74,0.32;stroke-dashoffset:0;stroke-width:0.2;"/>
     </g>
     <g id="line2d_140">
      <g>
       <use style="stroke:#000000;stroke-width:0.6;" x="90" xlink:href="#maeeb6b4108" y="273.6"/>
      </g>
     </g>
     <g id="line2d_141">
      <g>
       <use style="stroke:#000000;stroke-width:0.6;" x="648" xlink:href="#m09d1f9306e" y="273.6"/>
      </g>
     </g>
    </g>
    <g id="ytick_13">
     <g id="line2d_142">
      <path clip-path="url(#pbcbc93cdc9)" d="M 90 245.88 
L 648 245.88 
" style="fill:none;stroke:#808080;stroke-dasharray:0.74,0.32;stroke-dashoffset:0;stroke-width:0.2;"/>
     </g>
     <g id="line2d_143">
      <g>
       <use style="stroke:#000000;stroke-width:0.6;" x="90" xlink:href="#maeeb6b4108" y="245.88"/>
      </g>
     </g>
     <g id="line2d_144">
      <g>
       <use style="stroke:#000000;stroke-width:0.6;" x="648" xlink:href="#m09d1f9306e" y="245.88"/>
      </g>
     </g>
    </g>
    <g id="ytick_14">
     <g id="line2d_145">
      <path clip-path="url(#pbcbc93cdc9)" d="M 90 232.02 
L 648 232.02 
" style="fill:none;stroke:#808080;stroke-dasharray:0.74,0.32;stroke-dashoffset:0;stroke-width:0.2;"/>
     </g>
     <g id="line2d_146">
      <g>
       <use style="stroke:#000000;stroke-width:0.6;" x="90" xlink:href="#maeeb6b4108" y="232.02"/>
      </g>
     </g>
     <g id="line2d_147">
      <g>
       <use style="stroke:#000000;stroke-width:0.6;" x="648" xlink:href="#m09d1f9306e" y="232.02"/>
      </g>
     </g>
    </g>
    <g id="ytick_15">
     <g id="line2d_148">
      <path clip-path="url(#pbcbc93cdc9)" d="M 90 218.16 
L 648 218.16 
" style="fill:none;stroke:#808080;stroke-dasharray:0.74,0.32;stroke-dashoffset:0;stroke-width:0.2;"/>
     </g>
     <g id="line2d_149">
      <g>
       <use style="stroke:#000000;stroke-width:0.6;" x="90" xlink:href="#maeeb6b4108" y="218.16"/>
      </g>
     </g>
     <g id="line2d_150">
      <g>
       <use style="stroke:#000000;stroke-width:0.6;" x="648" xlink:href="#m09d1f9306e" y="218.16"/>
      </g>
     </g>
    </g>
    <g id="ytick_16">
     <g id="line2d_151">
      <path clip-path="url(#pbcbc93cdc9)" d="M 90 204.3 
L 648 204.3 
" style="fill:none;stroke:#808080;stroke-dasharray:0.74,0.32;stroke-dashoffset:0;stroke-width:0.2;"/>
     </g>
     <g id="line2d_152">
      <g>
       <use style="stroke:#000000;stroke-width:0.6;" x="90" xlink:href="#maeeb6b4108" y="204.3"/>
      </g>
     </g>
     <g id="line2d_153">
      <g>
       <use style="stroke:#000000;stroke-width:0.6;" x="648" xlink:href="#m09d1f9306e" y="204.3"/>
      </g>
     </g>
    </g>
    <g id="ytick_17">
     <g id="line2d_154">
      <path clip-path="url(#pbcbc93cdc9)" d="M 90 176.58 
L 648 176.58 
" style="fill:none;stroke:#808080;stroke-dasharray:0.74,0.32;stroke-dashoffset:0;stroke-width:0.2;"/>
     </g>
     <g id="line2d_155">
      <g>
       <use style="stroke:#000000;stroke-width:0.6;" x="90" xlink:href="#maeeb6b4108" y="176.58"/>
      </g>
     </g>
     <g id="line2d_156">
      <g>
       <use style="stroke:#000000;stroke-width:0.6;" x="648" xlink:href="#m09d1f9306e" y="176.58"/>
      </g>
     </g>
    </g>
    <g id="ytick_18">
     <g id="line2d_157">
      <path clip-path="url(#pbcbc93cdc9)" d="M 90 162.72 
L 648 162.72 
" style="fill:none;stroke:#808080;stroke-dasharray:0.74,0.32;stroke-dashoffset:0;stroke-width:0.2;"/>
     </g>
     <g id="line2d_158">
      <g>
       <use style="stroke:#000000;stroke-width:0.6;" x="90" xlink:href="#maeeb6b4108" y="162.72"/>
      </g>
     </g>
     <g id="line2d_159">
      <g>
       <use style="stroke:#000000;stroke-width:0.6;" x="648" xlink:href="#m09d1f9306e" y="162.72"/>
      </g>
     </g>
    </g>
    <g id="ytick_19">
     <g id="line2d_160">
      <path clip-path="url(#pbcbc93cdc9)" d="M 90 148.86 
L 648 148.86 
" style="fill:none;stroke:#808080;stroke-dasharray:0.74,0.32;stroke-dashoffset:0;stroke-width:0.2;"/>
     </g>
     <g id="line2d_161">
      <g>
       <use style="stroke:#000000;stroke-width:0.6;" x="90" xlink:href="#maeeb6b4108" y="148.86"/>
      </g>
     </g>
     <g id="line2d_162">
      <g>
       <use style="stroke:#000000;stroke-width:0.6;" x="648" xlink:href="#m09d1f9306e" y="148.86"/>
      </g>
     </g>
    </g>
    <g id="ytick_20">
     <g id="line2d_163">
      <path clip-path="url(#pbcbc93cdc9)" d="M 90 135 
L 648 135 
" style="fill:none;stroke:#808080;stroke-dasharray:0.74,0.32;stroke-dashoffset:0;stroke-width:0.2;"/>
     </g>
     <g id="line2d_164">
      <g>
       <use style="stroke:#000000;stroke-width:0.6;" x="90" xlink:href="#maeeb6b4108" y="135"/>
      </g>
     </g>
     <g id="line2d_165">
      <g>
       <use style="stroke:#000000;stroke-width:0.6;" x="648" xlink:href="#m09d1f9306e" y="135"/>
      </g>
     </g>
    </g>
    <g id="ytick_21">
     <g id="line2d_166">
      <path clip-path="url(#pbcbc93cdc9)" d="M 90 107.28 
L 648 107.28 
" style="fill:none;stroke:#808080;stroke-dasharray:0.74,0.32;stroke-dashoffset:0;stroke-width:0.2;"/>
     </g>
     <g id="line2d_167">
      <g>
       <use style="stroke:#000000;stroke-width:0.6;" x="90" xlink:href="#maeeb6b4108" y="107.28"/>
      </g>
     </g>
     <g id="line2d_168">
      <g>
       <use style="stroke:#000000;stroke-width:0.6;" x="648" xlink:href="#m09d1f9306e" y="107.28"/>
      </g>
     </g>
    </g>
    <g id="ytick_22">
     <g id="line2d_169">
      <path clip-path="url(#pbcbc93cdc9)" d="M 90 93.42 
L 648 93.42 
" style="fill:none;stroke:#808080;stroke-dasharray:0.74,0.32;stroke-dashoffset:0;stroke-width:0.2;"/>
     </g>
     <g id="line2d_170">
      <g>
       <use style="stroke:#000000;stroke-width:0.6;" x="90" xlink:href="#maeeb6b4108" y="93.42"/>
      </g>
     </g>
     <g id="line2d_171">
      <g>
       <use style="stroke:#000000;stroke-width:0.6;" x="648" xlink:href="#m09d1f9306e" y="93.42"/>
      </g>
     </g>
    </g>
    <g id="ytick_23">
     <g id="line2d_172">
      <path clip-path="url(#pbcbc93cdc9)" d="M 90 79.56 
L 648 79.56 
" style="fill:none;stroke:#808080;stroke-dasharray:0.74,0.32;stroke-dashoffset:0;stroke-width:0.2;"/>
     </g>
     <g id="line2d_173">
      <g>
       <use style="stroke:#000000;stroke-width:0.6;" x="90" xlink:href="#maeeb6b4108" y="79.56"/>
      </g>
     </g>
     <g id="line2d_174">
      <g>
       <use style="stroke:#000000;stroke-width:0.6;" x="648" xlink:href="#m09d1f9306e" y="79.56"/>
      </g>
     </g>
    </g>
    <g id="ytick_24">
     <g id="line2d_175">
      <path clip-path="url(#pbcbc93cdc9)" d="M 90 65.7 
L 648 65.7 
" style="fill:none;stroke:#808080;stroke-dasharray:0.74,0.32;stroke-dashoffset:0;stroke-width:0.2;"/>
     </g>
     <g id="line2d_176">
      <g>
       <use style="stroke:#000000;stroke-width:0.6;" x="90" xlink:href="#maeeb6b4108" y="65.7"/>
      </g>
     </g>
     <g id="line2d_177">
      <g>
       <use style="stroke:#000000;stroke-width:0.6;" x="648" xlink:href="#m09d1f9306e" y="65.7"/>
      </g>
     </g>
    </g>
    <g id="text_16">
     <!-- RMSE (x0.01 Mag) -->
     <g transform="translate(60.066958 280.746719)rotate(-90)scale(0.15 -0.15)">
      <defs>
       <path d="M 2509 2146 
C 3117 2268 3629 2676 3629 3186 
C 3629 3785 2950 4326 2054 4326 
L 333 4326 
L 333 4160 
C 774 4160 845 4160 845 3873 
L 845 415 
C 845 128 774 128 333 128 
L 333 -26 
C 518 -26 851 -26 1050 -26 
C 1248 -26 1581 -26 1766 -26 
L 1766 128 
C 1325 128 1254 128 1254 417 
L 1254 2112 
L 2003 2112 
C 2368 2112 2573 1964 2662 1881 
C 2918 1632 2918 1459 2918 1024 
C 2918 595 2918 377 3110 160 
C 3354 -102 3680 -128 3821 -128 
C 4294 -128 4365 396 4365 503 
C 4365 540 4365 585 4307 585 
C 4256 585 4250 547 4250 522 
C 4218 112 4032 -26 3834 -26 
C 3482 -26 3443 375 3405 764 
C 3386 898 3373 993 3360 1133 
C 3322 1452 3270 1917 2509 2146 
z
M 1984 2214 
L 1254 2214 
L 1254 3913 
C 1254 4129 1267 4160 1523 4160 
L 1990 4160 
C 2522 4160 3142 3977 3142 3190 
C 3142 2372 2464 2214 1984 2214 
z
" id="CMR17-52" transform="scale(0.015625)"/>
       <path d="M 1338 4224 
C 1299 4320 1293 4320 1158 4320 
L 339 4320 
L 339 4160 
C 781 4160 851 4160 851 3875 
L 851 610 
C 851 451 851 153 339 153 
L 339 -13 
C 486 0 755 0 915 0 
C 1075 0 1344 0 1491 -13 
L 1491 153 
C 979 153 979 451 979 610 
L 979 4135 
L 986 4135 
L 2490 89 
C 2515 25 2528 -13 2579 -13 
C 2630 -13 2643 25 2669 89 
L 4186 4166 
L 4192 4166 
L 4192 438 
C 4192 153 4122 153 3680 153 
L 3680 -13 
C 3853 0 4198 0 4384 0 
C 4570 0 4922 0 5094 -13 
L 5094 153 
C 4653 153 4582 153 4582 438 
L 4582 3875 
C 4582 4160 4653 4160 5094 4160 
L 5094 4320 
L 4282 4320 
C 4147 4320 4141 4314 4102 4218 
L 2720 502 
L 1338 4224 
z
" id="CMR17-4d" transform="scale(0.015625)"/>
       <path d="M 2803 4290 
C 2803 4404 2797 4411 2758 4411 
C 2720 4411 2707 4385 2682 4328 
L 2490 3907 
C 2246 4257 1875 4416 1472 4416 
C 819 4416 294 3901 294 3253 
C 294 3056 339 2776 557 2510 
C 794 2218 1018 2167 1530 2033 
C 1722 1982 2042 1899 2106 1874 
C 2470 1722 2662 1341 2662 985 
C 2662 527 2336 38 1779 38 
C 1094 38 454 419 410 1311 
C 403 1413 397 1419 352 1419 
C 301 1419 294 1413 294 1285 
L 294 -1 
C 294 -115 301 -122 339 -122 
C 384 -122 397 -90 486 108 
C 493 127 493 140 614 381 
C 934 -39 1472 -128 1779 -128 
C 2477 -128 2970 451 2970 1124 
C 2970 1454 2848 1708 2778 1823 
C 2509 2230 2221 2306 1914 2382 
C 1869 2402 1856 2402 1498 2490 
C 1152 2579 1005 2624 845 2796 
C 666 2992 602 3196 602 3399 
C 602 3812 934 4263 1478 4263 
C 2157 4263 2579 3786 2675 2993 
C 2694 2878 2701 2872 2746 2872 
C 2803 2872 2803 2891 2803 2999 
L 2803 4290 
z
" id="CMR17-53" transform="scale(0.015625)"/>
       <path d="M 3885 1615 
L 3770 1615 
C 3629 676 3546 166 2419 166 
L 1530 166 
C 1274 166 1261 197 1261 414 
L 1261 2176 
L 1862 2176 
C 2464 2176 2522 1960 2522 1430 
L 2637 1430 
L 2637 3081 
L 2522 3081 
C 2522 2557 2464 2342 1862 2342 
L 1261 2342 
L 1261 3913 
C 1261 4128 1274 4160 1530 4160 
L 2406 4160 
C 3398 4160 3514 3769 3603 2929 
L 3718 2929 
L 3565 4325 
L 326 4325 
L 326 4160 
C 768 4160 838 4160 838 3874 
L 838 451 
C 838 166 768 166 326 166 
L 326 0 
L 3654 0 
L 3885 1615 
z
" id="CMR17-45" transform="scale(0.015625)"/>
       <path d="M 1958 -1561 
C 1958 -1555 1958 -1542 1939 -1523 
C 1645 -1224 858 -407 858 1581 
C 858 3569 1632 4379 1946 4697 
C 1946 4704 1958 4717 1958 4736 
C 1958 4755 1939 4768 1914 4768 
C 1843 4768 1299 4296 986 3594 
C 666 2887 576 2199 576 1588 
C 576 1128 621 351 1005 -471 
C 1312 -1135 1837 -1600 1914 -1600 
C 1946 -1600 1958 -1587 1958 -1561 
z
" id="CMR17-28" transform="scale(0.015625)"/>
       <path d="M 1664 1477 
C 1856 1726 2074 2006 2253 2216 
C 2464 2458 2707 2560 2989 2560 
L 2989 2726 
C 2880 2726 2656 2726 2541 2726 
C 2368 2726 2170 2726 2022 2732 
L 2022 2566 
C 2112 2553 2163 2489 2163 2400 
C 2163 2285 2099 2215 2067 2171 
L 1594 1573 
L 1030 2306 
C 973 2376 973 2388 973 2420 
C 973 2497 1037 2560 1146 2560 
L 1146 2732 
C 992 2726 717 2726 557 2726 
C 384 2726 179 2726 38 2732 
L 38 2560 
C 384 2560 461 2534 614 2343 
L 1350 1395 
C 1363 1382 1395 1344 1395 1325 
C 1395 1299 838 619 768 530 
C 480 185 179 160 6 160 
L 6 0 
C 115 0 339 0 454 0 
C 582 0 864 0 979 -6 
L 979 160 
C 941 166 838 179 838 325 
C 838 440 890 510 947 586 
L 1478 1236 
L 2035 512 
C 2086 442 2163 346 2163 301 
C 2163 211 2086 160 1984 160 
L 1984 -6 
C 2138 0 2413 0 2573 0 
C 2746 0 2950 0 3091 -6 
L 3091 160 
C 2771 160 2675 172 2522 370 
L 1664 1477 
z
" id="CMR17-78" transform="scale(0.015625)"/>
       <path d="M 1062 261 
C 1062 420 934 522 800 522 
C 672 522 538 420 538 261 
C 538 102 666 0 800 0 
C 928 0 1062 102 1062 261 
z
" id="CMR17-2e" transform="scale(0.015625)"/>
       <path d="M 1702 4058 
C 1702 4192 1696 4192 1606 4192 
C 1357 3916 979 3827 621 3827 
C 602 3827 570 3827 563 3808 
C 557 3795 557 3782 557 3648 
C 755 3648 1088 3686 1344 3839 
L 1344 461 
C 1344 236 1331 160 781 160 
L 589 160 
L 589 0 
C 896 0 1216 0 1523 0 
C 1830 0 2150 0 2458 0 
L 2458 160 
L 2266 160 
C 1715 160 1702 230 1702 458 
L 1702 4058 
z
" id="CMR17-31" transform="scale(0.015625)"/>
       <path d="M 2304 1653 
C 2304 2072 2304 2294 2035 2543 
C 1798 2752 1523 2816 1306 2816 
C 800 2816 435 2407 435 1971 
C 435 1728 627 1728 666 1728 
C 749 1728 896 1778 896 1954 
C 896 2112 774 2181 666 2181 
C 640 2181 608 2174 589 2168 
C 723 2592 1069 2714 1293 2714 
C 1613 2714 1965 2429 1965 1885 
L 1965 1600 
C 1587 1600 1133 1549 774 1357 
C 371 1133 256 813 256 570 
C 256 77 832 -64 1171 -64 
C 1523 -64 1850 139 1990 511 
C 2003 233 2182 -18 2464 -18 
C 2598 -18 2938 70 2938 567 
L 2938 920 
L 2822 920 
L 2822 562 
C 2822 178 2650 128 2566 128 
C 2304 128 2304 458 2304 738 
L 2304 1653 
z
M 1965 870 
C 1965 317 1568 38 1216 38 
C 896 38 646 275 646 570 
C 646 761 730 1100 1101 1305 
C 1408 1478 1760 1504 1965 1504 
L 1965 870 
z
" id="CMR17-61" transform="scale(0.015625)"/>
       <path d="M 710 1164 
C 832 1068 1043 960 1299 960 
C 1805 960 2240 1357 2240 1888 
C 2240 2054 2189 2310 1997 2509 
C 2176 2692 2438 2752 2586 2752 
C 2611 2752 2650 2752 2682 2734 
C 2656 2728 2598 2703 2598 2605 
C 2598 2527 2656 2471 2739 2471 
C 2835 2471 2886 2533 2886 2614 
C 2886 2731 2790 2854 2586 2854 
C 2330 2854 2106 2738 1926 2580 
C 1734 2753 1504 2816 1299 2816 
C 794 2816 358 2419 358 1888 
C 358 1522 570 1292 634 1228 
C 442 1004 442 743 442 711 
C 442 545 506 302 723 168 
C 390 85 128 -169 128 -486 
C 128 -943 736 -1280 1466 -1280 
C 2170 -1280 2803 -956 2803 -479 
C 2803 384 1856 384 1363 384 
C 1216 384 954 384 922 391 
C 723 423 589 602 589 826 
C 589 883 589 1024 710 1164 
z
M 1299 1068 
C 736 1068 736 1760 736 1889 
C 736 2016 736 2708 1299 2708 
C 1862 2708 1862 2016 1862 1889 
C 1862 1760 1862 1068 1299 1068 
z
M 1466 -1171 
C 826 -1171 384 -835 384 -486 
C 384 -289 493 -105 634 -4 
C 794 104 858 104 1293 104 
C 1818 104 2547 104 2547 -486 
C 2547 -835 2106 -1171 1466 -1171 
z
" id="CMR17-67" transform="scale(0.015625)"/>
       <path d="M 1683 1581 
C 1683 2040 1638 2817 1254 3639 
C 947 4303 422 4768 346 4768 
C 326 4768 301 4761 301 4729 
C 301 4717 307 4710 314 4697 
C 621 4378 1402 3568 1402 1584 
C 1402 -407 627 -1217 314 -1537 
C 307 -1549 301 -1556 301 -1568 
C 301 -1600 326 -1600 346 -1600 
C 416 -1600 960 -1128 1274 -426 
C 1594 281 1683 969 1683 1581 
z
" id="CMR17-29" transform="scale(0.015625)"/>
      </defs>
      <use transform="scale(0.996264)" xlink:href="#CMR17-52"/>
      <use transform="translate(67.791102 0)scale(0.996264)" xlink:href="#CMR17-4d"/>
      <use transform="translate(152.478043 0)scale(0.996264)" xlink:href="#CMR17-53"/>
      <use transform="translate(203.373412 0)scale(0.996264)" xlink:href="#CMR17-45"/>
      <use transform="translate(296.035679 0)scale(0.996264)" xlink:href="#CMR17-28"/>
      <use transform="translate(331.316447 0)scale(0.996264)" xlink:href="#CMR17-78"/>
      <use transform="translate(379.609363 0)scale(0.996264)" xlink:href="#CMR17-30"/>
      <use transform="translate(425.29984 0)scale(0.996264)" xlink:href="#CMR17-2e"/>
      <use transform="translate(450.170898 0)scale(0.996264)" xlink:href="#CMR17-30"/>
      <use transform="translate(495.861376 0)scale(0.996264)" xlink:href="#CMR17-31"/>
      <use transform="translate(571.627819 0)scale(0.996264)" xlink:href="#CMR17-4d"/>
      <use transform="translate(656.31476 0)scale(0.996264)" xlink:href="#CMR17-61"/>
      <use transform="translate(702.005237 0)scale(0.996264)" xlink:href="#CMR17-67"/>
      <use transform="translate(747.695714 0)scale(0.996264)" xlink:href="#CMR17-29"/>
     </g>
    </g>
   </g>
   <g id="line2d_178">
    <path clip-path="url(#pbcbc93cdc9)" d="M 90 119.435081 
L 90.42408 119.890798 
L 91.27968 107.348053 
L 91.70376 109.906886 
L 92.12784 119.357881 
L 93.40752 98.839953 
L 93.83904 95.779942 
L 94.26312 96.774674 
L 95.11872 123.450601 
L 95.5428 121.062938 
L 95.96688 104.028167 
L 96.39096 94.586458 
L 96.82248 93.333098 
L 97.67064 111.33211 
L 98.10216 112.604458 
L 98.95032 92.37953 
L 99.3744 95.987981 
L 100.23 86.111206 
L 100.65408 83.781202 
L 101.0856 84.216406 
L 101.50968 82.319803 
L 101.93376 82.68446 
L 102.78936 88.764426 
L 103.21344 89.174959 
L 104.06904 90.848 
L 104.49312 91.29845 
L 104.9172 94.297892 
L 105.34128 95.074052 
L 106.19688 129.510054 
L 106.62096 130.101737 
L 107.47656 90.366781 
L 107.90064 88.009195 
L 108.33216 92.03497 
L 108.75624 106.469606 
L 109.18032 116.193782 
L 109.6044 111.686787 
L 110.03592 97.179109 
L 110.46 96.667537 
L 110.88408 99.877928 
L 111.3156 100.452841 
L 111.73968 103.452977 
L 112.16376 112.660313 
L 112.58784 113.85061 
L 113.01936 106.535441 
L 113.44344 105.786446 
L 113.86752 97.862823 
L 114.72312 87.966506 
L 115.1472 84.48224 
L 115.57872 86.509543 
L 116.42688 116.276526 
L 116.85096 117.805284 
L 117.28248 108.447705 
L 117.70656 102.827059 
L 118.56216 83.643156 
L 118.98624 96.025264 
L 119.41032 117.781583 
L 119.8344 131.985866 
L 120.26592 136.277476 
L 120.69 143.792784 
L 121.11408 141.302974 
L 121.96968 99.083196 
L 122.39376 90.329497 
L 122.81784 87.748904 
L 123.24936 99.42041 
L 123.67344 117.031619 
L 124.09752 125.614978 
L 124.52904 121.597657 
L 124.95312 113.384083 
L 125.3772 115.815127 
L 125.80128 130.997925 
L 126.2328 153.601783 
L 126.65688 161.174471 
L 127.08096 140.972828 
L 127.51248 102.19837 
L 127.93656 89.583829 
L 128.36064 92.425684 
L 128.79216 88.219035 
L 129.21624 86.645509 
L 130.0644 107.118531 
L 130.49592 103.149581 
L 130.92 95.230948 
L 131.34408 96.273358 
L 131.7756 93.256313 
L 132.19968 83.609892 
L 132.62376 86.093743 
L 133.04784 99.112718 
L 133.47936 103.587142 
L 133.90344 102.386588 
L 134.32752 103.081113 
L 134.75904 108.3888 
L 135.18312 123.06557 
L 135.6072 133.874014 
L 136.03872 132.064729 
L 136.4628 118.542359 
L 136.88688 99.071138 
L 137.31096 97.678346 
L 137.74248 106.008761 
L 138.16656 125.782268 
L 138.59064 168.68673 
L 139.02216 198.977344 
L 139.44624 193.133968 
L 140.2944 126.714769 
L 141.15 84.937957 
L 141.57408 91.134486 
L 142.42968 173.905297 
L 142.85376 178.868425 
L 143.27784 161.407597 
L 143.70936 154.111831 
L 144.98904 98.66102 
L 145.41312 89.891244 
L 145.8372 87.750013 
L 146.26128 89.467682 
L 147.11688 100.775363 
L 147.54096 94.598932 
L 147.97248 86.439272 
L 148.39656 89.727835 
L 148.82064 98.167882 
L 149.25216 117.474862 
L 149.67624 154.689377 
L 150.10032 174.945767 
L 150.5244 167.583058 
L 150.95592 136.2474 
L 151.38 120.127388 
L 152.2356 103.895111 
L 152.65968 89.601293 
L 153.08376 98.316461 
L 153.50784 116.62358 
L 154.36344 139.39459 
L 154.78752 166.215076 
L 155.21904 169.891857 
L 155.64312 147.529856 
L 156.0672 112.046731 
L 156.49128 87.957358 
L 156.9228 81.480303 
L 157.34688 85.600327 
L 157.77096 92.697894 
L 158.20248 102.203914 
L 158.62656 103.990052 
L 159.05064 98.17897 
L 159.48216 107.308552 
L 159.90624 113.772301 
L 160.33032 104.981458 
L 160.7544 105.568706 
L 161.61 132.617466 
L 162.03408 130.301044 
L 162.4656 117.566476 
L 162.88968 118.643675 
L 163.31376 126.31477 
L 163.73784 122.546236 
L 164.16936 110.334467 
L 165.01752 129.32433 
L 165.44904 112.491914 
L 165.87312 86.780506 
L 166.2972 81.927149 
L 166.72128 95.933788 
L 167.57688 133.633127 
L 168.00096 147.994859 
L 168.43248 155.740104 
L 168.85656 150.828397 
L 169.28064 128.350388 
L 169.71216 113.907852 
L 170.13624 109.26794 
L 170.56032 114.16052 
L 171.41592 157.193464 
L 171.84 158.489789 
L 172.6956 119.771186 
L 173.11968 115.286229 
L 173.54376 125.711305 
L 173.96784 158.239478 
L 175.24752 362.821671 
L 175.67904 317.820191 
L 176.10312 219.453692 
L 176.5272 156.153825 
L 176.95128 113.086093 
L 177.3828 86.307187 
L 177.80688 87.165398 
L 178.23096 103.612228 
L 178.66248 128.917678 
L 179.08656 143.065827 
L 179.51064 134.981566 
L 179.94216 133.847818 
L 180.36624 140.576432 
L 180.79032 136.515037 
L 181.64592 109.186582 
L 182.07 104.2387 
L 182.49408 102.455334 
L 182.9256 99.063792 
L 183.34968 103.194072 
L 183.77376 103.273767 
L 184.19784 102.109527 
L 184.62936 103.715901 
L 185.05344 107.252557 
L 185.47752 106.416245 
L 185.90904 101.628585 
L 186.33312 92.321734 
L 186.7572 96.006276 
L 187.18128 113.791982 
L 187.6128 124.210822 
L 188.03688 122.970352 
L 188.46096 131.74789 
L 188.89248 147.758962 
L 189.31656 144.766865 
L 189.74064 123.897863 
L 190.17216 96.244945 
L 190.59624 88.126589 
L 191.4444 95.248827 
L 191.87592 87.852161 
L 192.3 84.754035 
L 193.1556 108.843962 
L 194.00376 103.591715 
L 194.42784 106.071685 
L 195.28344 95.302188 
L 196.13904 109.390878 
L 196.56312 112.682351 
L 196.9872 108.379237 
L 197.41872 101.351108 
L 197.8428 98.000869 
L 198.26688 100.564137 
L 198.69096 97.148756 
L 199.12248 91.143772 
L 199.54656 91.287085 
L 199.97064 96.365527 
L 200.40216 98.661852 
L 200.82624 102.10523 
L 201.25032 130.341793 
L 201.6744 167.637528 
L 202.10592 191.649008 
L 202.53 187.650121 
L 203.3856 138.565208 
L 204.65784 87.086257 
L 205.08936 81.270601 
L 205.93752 95.880289 
L 206.36904 99.404609 
L 206.79312 110.966483 
L 207.2172 129.748723 
L 207.64872 140.606786 
L 208.0728 143.833948 
L 208.49688 139.556475 
L 209.35248 125.529878 
L 209.77656 124.665845 
L 210.20064 141.335822 
L 211.05624 180.385817 
L 211.48032 181.051236 
L 212.33592 117.993641 
L 212.76 104.047016 
L 213.18408 98.240092 
L 213.6156 96.88001 
L 214.03968 113.683043 
L 214.88784 163.321247 
L 215.31936 174.901831 
L 215.74344 159.040586 
L 216.16752 132.952739 
L 216.59904 119.820528 
L 217.4472 101.842861 
L 217.87128 90.906073 
L 218.3028 89.213767 
L 219.15096 116.517136 
L 219.58248 115.602653 
L 220.00656 106.447984 
L 220.86216 96.998375 
L 221.28624 96.327551 
L 221.71032 100.848267 
L 222.1344 97.987424 
L 222.56592 89.427766 
L 222.99 84.306496 
L 223.41408 83.411001 
L 223.8456 87.220422 
L 224.69376 111.483045 
L 225.11784 107.12158 
L 225.54936 97.464348 
L 225.97344 96.013067 
L 226.39752 98.270446 
L 226.82904 93.928939 
L 227.25312 84.871291 
L 227.6772 78.940735 
L 228.10128 81.915923 
L 228.95688 92.021249 
L 229.38096 96.419304 
L 229.81248 107.152211 
L 231.09216 157.652507 
L 231.51624 150.331516 
L 231.94032 135.914899 
L 232.3644 128.493284 
L 233.64408 94.434275 
L 234.0756 96.457696 
L 234.92376 111.843544 
L 235.34784 112.358443 
L 236.20344 97.053953 
L 236.62752 98.375366 
L 237.05904 106.621234 
L 237.48312 110.241328 
L 237.9072 104.629552 
L 238.33128 96.260884 
L 238.7628 91.320071 
L 239.18688 91.407112 
L 239.61096 102.820129 
L 240.04248 122.773817 
L 240.46656 132.582123 
L 240.89064 129.108668 
L 242.17032 99.663791 
L 242.5944 95.816533 
L 243.02592 94.723672 
L 243.45 97.292761 
L 243.87408 102.802527 
L 244.3056 110.940287 
L 244.72968 121.103687 
L 245.15376 123.431197 
L 246.00936 100.348198 
L 246.43344 101.254365 
L 246.85752 108.481246 
L 247.71312 116.196277 
L 248.1372 119.21443 
L 248.56128 118.599878 
L 248.9928 116.523511 
L 249.41688 116.40085 
L 249.84096 115.894822 
L 250.27248 116.26724 
L 250.69656 120.617062 
L 251.12064 127.633826 
L 251.55216 129.711994 
L 251.97624 121.022051 
L 252.8244 95.919097 
L 253.25592 90.440654 
L 253.68 87.299563 
L 254.10408 86.850776 
L 254.5356 90.422775 
L 255.38376 101.418052 
L 255.80784 104.363579 
L 256.23936 105.101762 
L 256.66344 98.613481 
L 257.08752 89.099561 
L 257.51904 84.121465 
L 257.94312 85.575517 
L 258.3672 91.376066 
L 259.2228 110.354702 
L 259.64688 112.715199 
L 260.92656 90.396164 
L 261.35064 89.154446 
L 262.20624 90.393669 
L 262.63032 89.605035 
L 263.0544 89.14322 
L 263.48592 88.888889 
L 263.91 87.124234 
L 264.33408 84.790071 
L 264.7656 83.463115 
L 265.18968 84.019732 
L 265.61376 87.091524 
L 266.46936 96.790613 
L 266.89344 97.513551 
L 267.31752 97.497058 
L 268.17312 105.856024 
L 268.5972 104.259906 
L 269.02128 100.947227 
L 269.87688 98.168713 
L 270.30096 96.287357 
L 270.73248 95.302465 
L 271.15656 94.742937 
L 271.58064 95.033581 
L 272.43624 100.954989 
L 272.86032 101.704261 
L 273.2844 101.91715 
L 274.14 105.977021 
L 274.56408 106.509107 
L 274.9956 108.337241 
L 275.41968 113.320881 
L 276.26784 131.802914 
L 276.69936 136.799582 
L 277.12344 132.86653 
L 278.8272 85.7198 
L 279.25128 83.257709 
L 280.96248 93.408219 
L 282.24216 106.1019 
L 282.66624 115.064885 
L 283.09032 120.625517 
L 283.5144 118.570495 
L 283.94592 117.029817 
L 284.37 119.838407 
L 284.79408 121.821912 
L 285.2256 119.388373 
L 285.64968 112.83093 
L 286.92936 82.074758 
L 287.35344 78.255497 
L 287.77752 78.784256 
L 288.63312 84.462559 
L 289.0572 84.527147 
L 289.9128 80.532279 
L 290.33688 78.899571 
L 290.76096 77.709274 
L 291.19248 79.635398 
L 292.04064 93.536424 
L 292.47216 97.681118 
L 292.89624 98.368574 
L 293.32032 95.012791 
L 293.7444 90.592699 
L 294.17592 88.114392 
L 294.6 90.475443 
L 295.02408 95.501633 
L 295.4556 96.844529 
L 295.87968 95.035522 
L 296.30376 94.850352 
L 296.72784 95.330324 
L 297.58344 91.429565 
L 298.00752 91.981193 
L 298.43904 93.156383 
L 298.86312 92.821802 
L 299.2872 90.993391 
L 299.71128 89.816954 
L 300.1428 91.248554 
L 300.56688 95.862132 
L 300.99096 102.72602 
L 301.42248 107.036064 
L 302.27064 104.919088 
L 302.70216 107.421788 
L 303.55032 115.712978 
L 303.9744 116.524759 
L 304.40592 112.707992 
L 305.25408 91.354028 
L 305.6856 86.161795 
L 306.10968 86.05341 
L 306.53376 85.669627 
L 306.95784 83.69721 
L 307.38936 82.334218 
L 308.23752 82.880995 
L 308.66904 82.800468 
L 309.09312 82.859373 
L 309.5172 83.922851 
L 309.94128 86.374546 
L 310.3728 90.038021 
L 310.79688 96.10288 
L 311.65248 111.408755 
L 312.07656 110.587828 
L 313.35624 88.459229 
L 313.78032 86.604068 
L 314.2044 85.780645 
L 314.63592 86.326729 
L 315.9156 95.561093 
L 316.33968 99.226786 
L 316.76376 104.770647 
L 317.18784 111.925595 
L 317.61936 113.270015 
L 318.46752 99.356099 
L 318.89904 97.249934 
L 319.32312 103.6764 
L 320.6028 142.031178 
L 321.02688 144.206782 
L 321.45096 139.299788 
L 322.30656 114.204733 
L 322.73064 107.759556 
L 323.16216 103.24674 
L 324.01032 91.886668 
L 324.4344 90.772463 
L 324.86592 94.155689 
L 325.71408 103.671688 
L 326.1456 105.235789 
L 326.56968 104.489289 
L 326.99376 101.172175 
L 327.41784 94.464351 
L 327.84936 90.178562 
L 328.27344 93.134068 
L 328.69752 99.31937 
L 329.12904 102.990884 
L 329.55312 100.662266 
L 329.9772 95.233858 
L 330.40872 94.262134 
L 330.8328 97.534341 
L 331.25688 97.798097 
L 331.68096 95.993525 
L 332.11248 96.107038 
L 332.53656 97.720481 
L 332.96064 98.189642 
L 333.39216 97.1622 
L 333.81624 97.272941 
L 334.24032 100.814033 
L 334.6644 106.799197 
L 335.09592 108.822202 
L 335.52 103.319089 
L 335.94408 94.874468 
L 336.3756 89.380364 
L 336.79968 86.743084 
L 337.22376 84.997001 
L 337.64784 84.558886 
L 338.50344 87.057844 
L 338.92752 87.348211 
L 339.35904 89.0541 
L 339.78312 94.995882 
L 340.63872 117.169387 
L 341.0628 122.954135 
L 341.48688 119.238269 
L 341.91096 111.577016 
L 342.34248 107.208898 
L 342.76656 106.901622 
L 343.19064 106.122413 
L 343.62216 102.567323 
L 344.04624 98.059635 
L 344.8944 92.152226 
L 345.75 81.188411 
L 346.17408 79.284186 
L 346.6056 80.902895 
L 347.02968 81.537406 
L 347.45376 81.396034 
L 347.87784 86.711344 
L 348.73344 111.547217 
L 349.15752 117.859338 
L 349.58904 117.844508 
L 350.01312 112.581727 
L 350.86128 100.072523 
L 351.71688 90.654376 
L 352.14096 87.794365 
L 352.57248 86.113978 
L 352.99656 85.359994 
L 353.42064 86.070042 
L 353.85216 88.973019 
L 354.27624 95.610157 
L 355.1244 116.541113 
L 355.55592 119.135567 
L 355.98 114.516029 
L 356.8356 99.404609 
L 357.25968 97.841479 
L 357.68376 101.49442 
L 358.10784 112.244375 
L 358.96344 144.753005 
L 359.38752 152.537474 
L 359.81904 147.003176 
L 360.24312 132.348721 
L 360.6672 121.777976 
L 361.09872 116.79586 
L 362.37096 91.371908 
L 362.80248 88.42943 
L 363.22656 89.11647 
L 363.65064 92.507873 
L 364.93032 108.478613 
L 365.3544 109.382423 
L 365.78592 104.626226 
L 366.63408 86.47517 
L 367.0656 82.016408 
L 367.48968 81.900122 
L 368.76936 86.062835 
L 369.19344 90.231368 
L 369.61752 96.585763 
L 370.04904 99.083612 
L 370.47312 94.673637 
L 370.8972 88.559298 
L 371.32128 86.600741 
L 371.7528 89.085562 
L 372.60096 97.116046 
L 373.88064 113.861837 
L 374.31216 111.585193 
L 374.73624 106.247014 
L 375.16032 103.265312 
L 375.5844 104.855193 
L 376.01592 107.729757 
L 376.44 107.380762 
L 376.86408 104.979517 
L 377.2956 104.051729 
L 378.14376 105.921027 
L 378.56784 105.383813 
L 378.99936 104.634958 
L 379.42344 105.670993 
L 379.84752 107.908828 
L 380.27904 108.579652 
L 380.70312 107.167595 
L 381.1272 104.670855 
L 381.9828 97.992275 
L 382.40688 98.022352 
L 383.26248 104.235097 
L 383.68656 105.627195 
L 384.11064 105.700792 
L 384.54216 104.841749 
L 384.96624 103.334612 
L 385.8144 97.360675 
L 386.24592 98.344319 
L 386.67 101.759701 
L 387.09408 101.542792 
L 387.5256 96.778417 
L 387.94968 90.688333 
L 388.37376 86.624165 
L 388.79784 86.069349 
L 389.22936 87.240796 
L 389.65344 88.053131 
L 390.07752 88.432756 
L 390.93312 89.612104 
L 391.3572 90.485422 
L 391.78128 92.523951 
L 392.2128 95.40198 
L 392.63688 96.133234 
L 393.06096 93.615842 
L 393.49248 90.181611 
L 393.91656 87.90178 
L 394.34064 87.796998 
L 394.77216 89.588957 
L 396.0444 97.748894 
L 396.47592 97.159705 
L 397.32408 90.933516 
L 397.7556 90.31037 
L 398.17968 92.624713 
L 398.60376 95.996713 
L 399.02784 98.159566 
L 399.45936 98.877929 
L 399.88344 100.17481 
L 400.73904 107.840083 
L 401.5872 115.70092 
L 402.4428 124.354411 
L 402.86688 123.652679 
L 403.72248 110.911736 
L 404.14656 107.959972 
L 404.57064 108.103838 
L 405.00216 109.908965 
L 405.42624 112.818179 
L 406.2744 120.040625 
L 406.70592 121.425793 
L 407.13 119.632448 
L 407.9856 112.242989 
L 408.40968 110.49552 
L 408.83376 108.025668 
L 410.11344 93.964144 
L 410.53752 91.950286 
L 410.96904 91.080155 
L 411.39312 91.220141 
L 411.8172 92.975648 
L 412.24128 95.626096 
L 412.6728 96.88001 
L 413.09688 95.688882 
L 413.52096 93.497755 
L 413.95248 93.72298 
L 414.37656 99.468504 
L 415.23216 119.240903 
L 415.65624 125.644639 
L 416.08032 129.11449 
L 416.5044 130.468612 
L 416.93592 129.522112 
L 417.78408 122.149978 
L 418.2156 122.093707 
L 419.06376 132.042969 
L 419.48784 133.124188 
L 419.91936 128.483028 
L 420.76752 114.959826 
L 421.19904 112.018734 
L 421.62312 113.195171 
L 422.0472 118.514777 
L 422.9028 133.25863 
L 423.32688 134.262094 
L 423.75096 127.87 
L 424.60656 109.013193 
L 425.03064 104.788665 
L 425.46216 105.127681 
L 425.88624 109.454634 
L 426.7344 124.452679 
L 427.16592 128.803194 
L 427.59 127.959813 
L 428.01408 122.179361 
L 428.86968 103.859629 
L 429.29376 98.198096 
L 430.14936 90.134764 
L 430.57344 85.476834 
L 430.99752 82.789241 
L 431.42904 82.77649 
L 432.2772 85.300119 
L 432.70872 87.262834 
L 433.55688 92.204478 
L 433.98096 92.317991 
L 434.41248 89.90843 
L 434.83656 86.880991 
L 435.26064 85.496931 
L 436.11624 85.655351 
L 436.54032 85.889585 
L 436.9644 87.362348 
L 438.24408 94.090547 
L 438.6756 100.284719 
L 439.52376 123.021634 
L 439.94784 127.693562 
L 440.37936 123.188508 
L 441.65904 85.671567 
L 442.08312 81.68058 
L 442.5072 82.987024 
L 442.93128 88.656318 
L 444.21096 120.577007 
L 444.64248 122.603893 
L 445.06656 115.721572 
L 445.49064 103.913683 
L 445.92216 96.39491 
L 446.34624 96.428313 
L 446.77032 99.191027 
L 447.1944 99.85007 
L 447.62592 97.287772 
L 448.05 93.511892 
L 448.47408 91.030259 
L 448.9056 90.197134 
L 449.32968 90.443426 
L 449.75376 91.926446 
L 450.60936 97.829282 
L 451.03344 98.400175 
L 451.45752 96.064349 
L 451.88904 92.994637 
L 452.31312 91.523536 
L 452.7372 90.784798 
L 453.16872 89.223192 
L 453.5928 88.87988 
L 454.01688 94.117019 
L 454.87248 117.652408 
L 455.29656 124.993496 
L 455.72064 124.156352 
L 456.57624 112.657541 
L 457.00032 109.715202 
L 457.4244 104.19019 
L 457.85592 95.883199 
L 458.28 89.94017 
L 458.70408 92.423743 
L 459.98376 122.367719 
L 460.83936 124.544986 
L 461.68752 140.238941 
L 462.11904 141.663749 
L 462.54312 136.931114 
L 464.24688 105.623869 
L 464.67096 106.025254 
L 465.10248 111.552068 
L 465.95064 129.572008 
L 466.38216 133.195844 
L 466.80624 130.164385 
L 467.6544 112.181589 
L 468.08592 108.036063 
L 468.51 110.207371 
L 468.93408 117.412769 
L 470.21376 149.876631 
L 470.63784 150.062494 
L 471.06936 139.626884 
L 471.91752 100.457692 
L 472.34904 94.138641 
L 473.1972 98.173148 
L 473.62872 95.816255 
L 474.0528 92.528386 
L 474.47688 95.06934 
L 475.33248 108.930033 
L 475.75656 110.896628 
L 476.18064 109.432181 
L 476.61216 109.008758 
L 477.03624 113.115476 
L 477.46032 118.623024 
L 477.8844 120.462939 
L 478.31592 116.514086 
L 478.74 109.9669 
L 479.16408 109.110352 
L 480.44376 129.119202 
L 480.86784 127.129599 
L 481.72344 117.040073 
L 482.14752 116.792257 
L 482.57904 119.16398 
L 483.00312 123.179222 
L 483.4272 128.455447 
L 483.85128 132.108943 
L 484.2828 130.963414 
L 484.70688 124.415811 
L 485.56248 101.628308 
L 485.98656 96.06726 
L 486.41064 98.708006 
L 487.26624 113.265441 
L 487.69032 128.208739 
L 488.54592 180.471056 
L 488.97 197.378316 
L 489.39408 202.523148 
L 489.8256 190.702231 
L 490.67376 140.188907 
L 491.95344 90.261167 
L 492.37752 80.963325 
L 492.80904 86.876971 
L 493.23312 108.86198 
L 494.08872 166.984583 
L 494.5128 182.811317 
L 494.93688 180.213676 
L 495.79248 158.628944 
L 496.21656 149.324033 
L 497.49624 110.601965 
L 497.92032 103.43579 
L 498.77592 94.391032 
L 499.2 91.774125 
L 499.62408 92.740721 
L 500.0556 97.822768 
L 500.90376 109.858514 
L 501.32784 112.463917 
L 501.75936 111.212636 
L 502.60752 103.757065 
L 503.03904 104.039671 
L 503.46312 107.190603 
L 503.8872 113.647561 
L 504.31128 128.407214 
L 505.16688 175.951865 
L 505.59096 189.175829 
L 506.02248 188.390106 
L 506.44656 170.650276 
L 506.87064 145.798742 
L 507.30216 131.651701 
L 508.15032 125.527799 
L 508.5744 118.451576 
L 509.43 91.88348 
L 509.85408 85.982863 
L 510.2856 89.506906 
L 511.13376 102.786311 
L 511.55784 105.568983 
L 511.98936 112.234534 
L 512.83752 146.226739 
L 513.26904 154.72971 
L 513.69312 151.106983 
L 514.1172 136.297989 
L 514.9728 101.136001 
L 515.39688 92.624575 
L 515.82096 88.830538 
L 516.25248 87.57108 
L 516.67656 88.463803 
L 517.53216 93.7665 
L 517.95624 93.838018 
L 518.38032 90.383135 
L 518.8044 85.036363 
L 519.23592 82.00033 
L 519.66 83.394508 
L 520.08408 86.549737 
L 520.5156 87.918134 
L 520.93968 87.267823 
L 521.36376 89.100115 
L 521.78784 97.836628 
L 522.64344 124.694951 
L 523.06752 132.141236 
L 523.49904 128.466396 
L 523.92312 118.011105 
L 524.3472 113.021505 
L 524.77128 116.38006 
L 525.2028 121.679293 
L 525.62688 125.238402 
L 526.05096 123.266678 
L 526.48248 117.364952 
L 526.90656 119.245754 
L 527.76216 144.249055 
L 528.18624 147.375871 
L 528.61032 137.864169 
L 529.46592 100.505648 
L 529.89 94.443561 
L 530.31408 99.071554 
L 531.16968 118.634251 
L 532.01784 134.495912 
L 532.44936 146.528332 
L 532.87344 154.95147 
L 533.29752 154.444333 
L 533.72904 146.482871 
L 534.5772 124.193774 
L 535.00872 117.084564 
L 535.4328 114.605287 
L 535.85688 116.053241 
L 536.28096 121.879985 
L 536.71248 133.514624 
L 537.13656 147.951338 
L 537.56064 158.216332 
L 537.99216 160.062345 
L 538.41624 151.719179 
L 539.69592 94.756797 
L 540.12 87.269902 
L 540.54408 88.402541 
L 540.9756 98.029697 
L 541.39968 119.650604 
L 541.82376 158.641418 
L 543.10344 315.729272 
L 543.52752 336.7481 
L 543.95904 312.546739 
L 544.8072 199.159049 
L 545.6628 133.686349 
L 546.08688 111.542227 
L 546.51096 95.469755 
L 546.94248 87.137539 
L 547.36656 90.139615 
L 547.79064 104.349996 
L 548.64624 141.589044 
L 549.07032 148.666237 
L 549.4944 143.603179 
L 549.92592 136.811918 
L 550.35 137.137489 
L 550.77408 141.483569 
L 551.2056 142.568946 
L 551.62968 137.331668 
L 552.90936 102.259215 
L 553.33344 96.393802 
L 553.75752 93.973846 
L 554.18904 93.379252 
L 554.61312 94.597268 
L 555.46128 101.756929 
L 555.8928 103.273351 
L 556.31688 101.705785 
L 557.17248 92.865877 
L 557.59656 92.224852 
L 558.02064 97.43344 
L 558.87624 113.215406 
L 559.30032 113.90508 
L 559.7244 108.134746 
L 560.15592 103.843829 
L 560.58 107.02359 
L 561.4356 123.076935 
L 561.85968 128.093423 
L 562.28376 127.423847 
L 562.70784 125.716572 
L 563.13936 131.059879 
L 563.56344 141.414408 
L 563.98752 148.083286 
L 564.41904 147.663328 
L 564.84312 139.560217 
L 565.69872 105.582843 
L 566.1228 95.911335 
L 566.54688 95.653678 
L 566.97096 99.848407 
L 567.40248 102.965243 
L 567.82656 100.881531 
L 568.25064 95.120206 
L 568.68216 92.02014 
L 569.10624 94.248967 
L 569.9544 103.831216 
L 570.38592 105.212088 
L 571.23408 98.868227 
L 571.6656 98.579524 
L 572.08968 101.261295 
L 572.93784 108.881246 
L 573.36936 113.941255 
L 574.64904 132.294528 
L 575.07312 131.868333 
L 575.4972 125.714632 
L 576.3528 109.315895 
L 576.77688 106.703147 
L 577.20096 106.74736 
L 577.63248 106.505226 
L 578.05656 104.134473 
L 579.33624 88.455764 
L 579.76032 89.606005 
L 580.61592 95.199347 
L 581.46408 96.175368 
L 581.8956 102.494419 
L 582.31968 118.112837 
L 583.59936 185.206325 
L 584.02344 189.627111 
L 584.44752 174.701 
L 585.30312 137.267357 
L 587.43096 83.788547 
L 587.86248 79.195482 
L 588.28656 80.969839 
L 589.56624 97.868783 
L 589.99032 99.549585 
L 590.4144 102.896914 
L 590.84592 111.318527 
L 591.69408 134.095912 
L 592.1256 141.470541 
L 592.54968 143.463609 
L 592.97376 139.382671 
L 593.82936 125.183239 
L 594.25344 121.2707 
L 594.67752 121.03702 
L 595.10904 125.814008 
L 595.53312 136.993345 
L 596.38128 168.534547 
L 596.8128 177.705709 
L 597.23688 178.1739 
L 597.66096 168.597194 
L 598.51656 125.523502 
L 598.94064 104.737383 
L 599.37216 91.565255 
L 599.79624 85.872953 
L 600.22032 85.227354 
L 600.6444 87.703582 
L 601.07592 93.678212 
L 601.5 105.100099 
L 603.20376 171.749929 
L 603.62784 174.752143 
L 604.05936 164.710019 
L 604.48344 148.668455 
L 604.90752 137.051003 
L 606.1872 121.30729 
L 607.46688 98.177722 
L 607.89096 96.722838 
L 608.32248 101.872937 
L 609.17064 119.969384 
L 609.60216 122.622466 
L 610.02624 117.795582 
L 610.8744 103.279172 
L 611.73 95.387704 
L 613.00968 84.223474 
L 613.43376 81.63706 
L 613.85784 80.712598 
L 614.28936 81.049257 
L 615.13752 82.486123 
L 615.56904 83.046206 
L 615.99312 84.106634 
L 616.4172 86.49596 
L 617.2728 94.143631 
L 617.69688 95.938916 
L 618.12096 94.415287 
L 618.55248 91.032061 
L 618.97656 88.77191 
L 619.40064 89.171217 
L 620.68032 95.20198 
L 621.1044 94.424296 
L 621.53592 91.970105 
L 621.96 90.40739 
L 622.38408 92.0261 
L 623.23968 100.557346 
L 623.66376 102.449929 
L 624.08784 101.094975 
L 624.51936 98.794354 
L 624.94344 100.089571 
L 625.36752 107.63246 
L 627.07872 154.530958 
L 627.5028 152.169907 
L 628.78248 121.140554 
L 629.63064 110.280967 
L 630.48624 102.23302 
L 630.91032 100.589639 
L 631.3344 101.906894 
L 631.76592 106.043134 
L 632.61408 115.696208 
L 633.0456 116.7899 
L 633.46968 113.578816 
L 634.31784 100.393105 
L 634.74936 95.988674 
L 635.17344 94.296091 
L 635.59752 94.259362 
L 636.45312 95.335452 
L 636.8772 95.523116 
L 637.7328 95.368577 
L 638.15688 94.898169 
L 639.01248 92.389509 
L 639.43656 92.559294 
L 639.86064 95.580497 
L 641.14032 113.171747 
L 641.5644 116.094267 
L 641.99592 115.569527 
L 642.42 111.600994 
L 643.2756 99.638289 
L 643.69968 95.920205 
L 644.12376 94.813623 
L 644.97936 95.357351 
L 645.40344 95.157212 
L 645.82752 95.690822 
L 646.25904 98.175366 
L 647.1072 107.950685 
L 647.53872 112.833425 
L 647.9628 115.315751 
L 648.38688 113.44576 
L 648.38688 113.44576 
" style="fill:none;stroke:#000000;stroke-linecap:square;stroke-width:1.5;"/>
   </g>
   <g id="patch_3">
    <path d="M 90 384.48 
L 90 51.84 
" style="fill:none;stroke:#000000;stroke-linecap:square;stroke-linejoin:miter;stroke-width:0.8;"/>
   </g>
   <g id="patch_4">
    <path d="M 648 384.48 
L 648 51.84 
" style="fill:none;stroke:#000000;stroke-linecap:square;stroke-linejoin:miter;stroke-width:0.8;"/>
   </g>
   <g id="patch_5">
    <path d="M 90 384.48 
L 648 384.48 
" style="fill:none;stroke:#000000;stroke-linecap:square;stroke-linejoin:miter;stroke-width:0.8;"/>
   </g>
   <g id="patch_6">
    <path d="M 90 51.84 
L 648 51.84 
" style="fill:none;stroke:#000000;stroke-linecap:square;stroke-linejoin:miter;stroke-width:0.8;"/>
   </g>
   <g id="text_17">
    <!-- Periodogram: 2000 QL7 -->
    <g transform="translate(267.983464 45.84)scale(0.21 -0.21)">
     <defs>
      <path d="M 1267 2042 
L 2291 2042 
C 3117 2042 3718 2578 3718 3184 
C 3718 3791 3130 4352 2291 4352 
L 333 4352 
L 333 4186 
C 774 4186 845 4186 845 3899 
L 845 446 
C 845 160 774 160 333 160 
L 333 0 
C 518 0 858 0 1056 0 
C 1254 0 1594 0 1779 0 
L 1779 160 
C 1338 160 1267 160 1267 446 
L 1267 2042 
z
M 1254 2176 
L 1254 3938 
C 1254 4155 1267 4186 1523 4186 
L 2170 4186 
C 2995 4186 3232 3714 3232 3184 
C 3232 2604 2950 2176 2170 2176 
L 1254 2176 
z
" id="CMR17-50" transform="scale(0.015625)"/>
      <path d="M 2438 1472 
C 2464 1498 2464 1511 2464 1576 
C 2464 2238 2118 2816 1389 2816 
C 710 2816 173 2169 173 1383 
C 173 551 781 -64 1459 -64 
C 2176 -64 2458 607 2458 740 
C 2458 784 2419 784 2406 784 
C 2362 784 2355 771 2330 696 
C 2189 265 1837 51 1504 51 
C 1229 51 954 203 781 480 
C 582 803 582 1176 582 1472 
L 2438 1472 
z
M 589 1568 
C 634 2505 1126 2714 1382 2714 
C 1818 2714 2112 2297 2118 1568 
L 589 1568 
z
" id="CMR17-65" transform="scale(0.015625)"/>
      <path d="M 992 3909 
C 992 4049 877 4170 730 4170 
C 589 4170 467 4056 467 3909 
C 467 3769 582 3648 730 3648 
C 870 3648 992 3763 992 3909 
z
M 243 2706 
L 243 2541 
C 602 2541 653 2502 653 2197 
L 653 427 
C 653 184 627 153 218 153 
L 218 -13 
C 371 0 646 0 806 0 
C 960 0 1222 0 1370 -13 
L 1370 153 
C 992 153 979 191 979 420 
L 979 2776 
L 243 2706 
z
" id="CMR17-69" transform="scale(0.015625)"/>
      <path d="M 1869 4326 
L 1869 4160 
C 2246 4160 2304 4122 2304 3820 
L 2304 2345 
C 2278 2377 2016 2790 1498 2790 
C 845 2790 211 2208 211 1364 
C 211 525 806 -64 1434 -64 
C 1978 -64 2259 337 2291 380 
L 2291 -63 
L 3066 -63 
L 3066 128 
C 2688 128 2630 166 2630 473 
L 2630 4396 
L 1869 4326 
z
M 2291 755 
C 2291 563 2176 390 2029 262 
C 1811 70 1594 38 1472 38 
C 1286 38 621 134 621 1356 
C 621 2612 1363 2688 1530 2688 
C 1824 2688 2061 2522 2208 2291 
C 2291 2157 2291 2138 2291 2023 
L 2291 755 
z
" id="CMR17-64" transform="scale(0.015625)"/>
      <path d="M 4326 1933 
C 4326 2252 4269 2790 3507 2790 
C 3072 2790 2771 2496 2656 2151 
L 2650 2151 
C 2573 2676 2195 2790 1837 2790 
C 1331 2790 1069 2400 973 2144 
L 966 2144 
L 966 2790 
L 211 2720 
L 211 2554 
C 589 2554 646 2515 646 2208 
L 646 428 
C 646 184 621 153 211 153 
L 211 -13 
C 365 0 646 0 813 0 
C 979 0 1267 0 1421 -13 
L 1421 153 
C 1011 153 986 178 986 428 
L 986 1658 
C 986 2247 1344 2688 1792 2688 
C 2266 2688 2317 2266 2317 1958 
L 2317 428 
C 2317 184 2291 153 1882 153 
L 1882 -13 
C 2035 0 2317 0 2483 0 
C 2650 0 2938 0 3091 -13 
L 3091 153 
C 2682 153 2656 178 2656 428 
L 2656 1658 
C 2656 2247 3014 2688 3462 2688 
C 3936 2688 3987 2266 3987 1958 
L 3987 428 
C 3987 184 3962 153 3552 153 
L 3552 -13 
C 3706 0 3987 0 4154 0 
C 4320 0 4608 0 4762 -13 
L 4762 153 
C 4352 153 4326 178 4326 428 
L 4326 1933 
z
" id="CMR17-6d" transform="scale(0.015625)"/>
      <path d="M 1062 2491 
C 1062 2650 934 2752 800 2752 
C 672 2752 538 2650 538 2491 
C 538 2332 666 2230 800 2230 
C 928 2230 1062 2332 1062 2491 
z
M 1062 261 
C 1062 420 934 522 800 522 
C 672 522 538 420 538 261 
C 538 102 666 0 800 0 
C 928 0 1062 102 1062 261 
z
" id="CMR17-3a" transform="scale(0.015625)"/>
      <path d="M 3027 83 
C 3789 408 4307 1236 4307 2193 
C 4307 3499 3366 4480 2304 4480 
C 1216 4480 294 3488 294 2199 
C 294 928 1216 -64 2304 -64 
C 2451 -64 2656 -45 2899 38 
C 3008 -747 3078 -1216 3629 -1216 
C 4307 -1216 4339 -213 4339 -33 
C 4339 32 4339 76 4294 76 
C 4262 76 4256 31 4256 18 
C 4211 -603 3866 -732 3661 -732 
C 3283 -732 3149 -394 3027 83 
z
M 1958 100 
C 1293 310 768 1017 768 2199 
C 768 3711 1606 4365 2298 4365 
C 3014 4365 3834 3686 3834 2198 
C 3834 1124 3405 527 2976 254 
C 2880 579 2726 960 2310 960 
C 2003 960 1830 692 1830 450 
C 1830 304 1888 183 1958 100 
z
M 2874 192 
C 2618 57 2413 57 2304 57 
C 2016 57 1933 315 1933 454 
C 1933 650 2067 858 2310 858 
C 2720 858 2822 493 2874 192 
z
" id="CMR17-51" transform="scale(0.015625)"/>
      <path d="M 3469 1615 
L 3354 1615 
C 3302 983 3219 166 2125 166 
L 1530 166 
C 1274 166 1261 197 1261 414 
L 1261 3898 
C 1261 4129 1274 4192 1760 4192 
L 1901 4192 
L 1901 4352 
C 1638 4352 1331 4352 1069 4352 
C 870 4352 512 4352 326 4352 
L 326 4192 
C 768 4192 838 4192 838 3905 
L 838 452 
C 838 166 768 166 326 166 
L 326 0 
L 3315 0 
L 3469 1615 
z
" id="CMR17-4c" transform="scale(0.015625)"/>
      <path d="M 2886 3941 
L 2886 4081 
L 1382 4081 
C 634 4081 621 4165 595 4288 
L 480 4288 
L 294 3094 
L 410 3094 
C 429 3215 474 3540 550 3661 
C 589 3712 1062 3712 1171 3712 
L 2579 3712 
L 1869 2661 
C 1395 1954 1069 999 1069 165 
C 1069 89 1069 -128 1299 -128 
C 1530 -128 1530 89 1530 171 
L 1530 465 
C 1530 1508 1709 2196 2003 2636 
L 2886 3941 
z
" id="CMR17-37" transform="scale(0.015625)"/>
     </defs>
     <use transform="scale(0.996264)" xlink:href="#CMR17-50"/>
     <use transform="translate(59.983847 0)scale(0.996264)" xlink:href="#CMR17-65"/>
     <use transform="translate(100.469507 0)scale(0.996264)" xlink:href="#CMR17-72"/>
     <use transform="translate(135.750275 0)scale(0.996264)" xlink:href="#CMR17-69"/>
     <use transform="translate(160.621333 0)scale(0.996264)" xlink:href="#CMR17-6f"/>
     <use transform="translate(208.914249 0)scale(0.996264)" xlink:href="#CMR17-64"/>
     <use transform="translate(259.809619 0)scale(0.996264)" xlink:href="#CMR17-6f"/>
     <use transform="translate(305.500096 0)scale(0.996264)" xlink:href="#CMR17-67"/>
     <use transform="translate(351.190573 0)scale(0.996264)" xlink:href="#CMR17-72"/>
     <use transform="translate(386.471341 0)scale(0.996264)" xlink:href="#CMR17-61"/>
     <use transform="translate(432.161818 0)scale(0.996264)" xlink:href="#CMR17-6d"/>
     <use transform="translate(509.081408 0)scale(0.996264)" xlink:href="#CMR17-3a"/>
     <use transform="translate(574.438127 0)scale(0.996264)" xlink:href="#CMR17-32"/>
     <use transform="translate(620.128604 0)scale(0.996264)" xlink:href="#CMR17-30"/>
     <use transform="translate(665.819081 0)scale(0.996264)" xlink:href="#CMR17-30"/>
     <use transform="translate(711.509558 0)scale(0.996264)" xlink:href="#CMR17-30"/>
     <use transform="translate(787.276002 0)scale(0.996264)" xlink:href="#CMR17-51"/>
     <use transform="translate(858.99079 0)scale(0.996264)" xlink:href="#CMR17-4c"/>
     <use transform="translate(916.372198 0)scale(0.996264)" xlink:href="#CMR17-37"/>
    </g>
   </g>
  </g>
 </g>
 <defs>
  <clipPath id="pbcbc93cdc9">
   <rect height="332.64" width="558" x="90" y="51.84"/>
  </clipPath>
 </defs>
</svg>
