<?xml version="1.0" encoding="utf-8" standalone="no"?>
<!DOCTYPE svg PUBLIC "-//W3C//DTD SVG 1.1//EN"
  "http://www.w3.org/Graphics/SVG/1.1/DTD/svg11.dtd">
<svg height="270pt" version="1.1" viewBox="0 0 360 270" width="360pt" xmlns="http://www.w3.org/2000/svg" xmlns:xlink="http://www.w3.org/1999/xlink">
 <metadata>
  <rdf:RDF xmlns:cc="http://creativecommons.org/ns#" xmlns:dc="http://purl.org/dc/elements/1.1/" xmlns:rdf="http://www.w3.org/1999/02/22-rdf-syntax-ns#">
   <cc:Work>
    <dc:type rdf:resource="http://purl.org/dc/dcmitype/StillImage"/>
    <dc:date>2021-09-06T17:10:02.407293</dc:date>
    <dc:format>image/svg+xml</dc:format>
    <dc:creator>
     <cc:Agent>
      <dc:title>Matplotlib v3.4.2, https://matplotlib.org/</dc:title>
     </cc:Agent>
    </dc:creator>
   </cc:Work>
  </rdf:RDF>
 </metadata>
 <defs>
  <style type="text/css">*{stroke-linecap:butt;stroke-linejoin:round;}</style>
 </defs>
 <g id="figure_1">
  <g id="patch_1">
   <path d="M 0 270 
L 360 270 
L 360 0 
L 0 0 
z
" style="fill:#ffffff;"/>
  </g>
  <g id="axes_1">
   <g id="patch_2">
    <path d="M 36 120.868085 
L 324 120.868085 
L 324 32.4 
L 36 32.4 
z
" style="fill:#ffffff;"/>
   </g>
   <g id="matplotlib.axis_1">
    <g id="ytick_1">
     <g id="line2d_1">
      <path clip-path="url(#pe9268729e9)" d="M 36 108.229787 
L 324 108.229787 
" style="fill:none;stroke:#808080;stroke-linecap:square;stroke-width:0.4;"/>
     </g>
     <g id="line2d_2">
      <defs>
       <path d="M 0 0 
L 3.5 0 
" id="md2c0ff7b5b" style="stroke:#000000;stroke-width:0.8;"/>
      </defs>
      <g>
       <use style="stroke:#000000;stroke-width:0.8;" x="36" xlink:href="#md2c0ff7b5b" y="108.229787"/>
      </g>
     </g>
     <g id="line2d_3">
      <defs>
       <path d="M 0 0 
L -3.5 0 
" id="mf6bedcaf13" style="stroke:#000000;stroke-width:0.8;"/>
      </defs>
      <g>
       <use style="stroke:#000000;stroke-width:0.8;" x="324" xlink:href="#mf6bedcaf13" y="108.229787"/>
      </g>
     </g>
     <g id="text_1">
      <!-- 2 -->
      <g transform="translate(28.04625 110.88924)scale(0.07 -0.07)">
       <defs>
        <path d="M 819 3553 
L 469 3553 
L 469 4384 
Q 803 4563 1142 4656 
Q 1481 4750 1806 4750 
Q 2534 4750 2956 4397 
Q 3378 4044 3378 3438 
Q 3378 2753 2422 1800 
Q 2347 1728 2309 1691 
L 1131 513 
L 3078 513 
L 3078 1088 
L 3444 1088 
L 3444 0 
L 434 0 
L 434 341 
L 1850 1753 
Q 2319 2222 2519 2614 
Q 2719 3006 2719 3438 
Q 2719 3909 2473 4175 
Q 2228 4441 1797 4441 
Q 1350 4441 1106 4219 
Q 863 3997 819 3553 
z
" id="DejaVuSerif-32" transform="scale(0.015625)"/>
       </defs>
       <use xlink:href="#DejaVuSerif-32"/>
      </g>
     </g>
    </g>
    <g id="ytick_2">
     <g id="line2d_4">
      <path clip-path="url(#pe9268729e9)" d="M 36 82.953191 
L 324 82.953191 
" style="fill:none;stroke:#808080;stroke-linecap:square;stroke-width:0.4;"/>
     </g>
     <g id="line2d_5">
      <g>
       <use style="stroke:#000000;stroke-width:0.8;" x="36" xlink:href="#md2c0ff7b5b" y="82.953191"/>
      </g>
     </g>
     <g id="line2d_6">
      <g>
       <use style="stroke:#000000;stroke-width:0.8;" x="324" xlink:href="#mf6bedcaf13" y="82.953191"/>
      </g>
     </g>
     <g id="text_2">
      <!-- 4 -->
      <g transform="translate(28.04625 85.612645)scale(0.07 -0.07)">
       <defs>
        <path d="M 2234 1581 
L 2234 4063 
L 641 1581 
L 2234 1581 
z
M 3609 0 
L 1484 0 
L 1484 331 
L 2234 331 
L 2234 1247 
L 197 1247 
L 197 1588 
L 2241 4750 
L 2859 4750 
L 2859 1581 
L 3750 1581 
L 3750 1247 
L 2859 1247 
L 2859 331 
L 3609 331 
L 3609 0 
z
" id="DejaVuSerif-34" transform="scale(0.015625)"/>
       </defs>
       <use xlink:href="#DejaVuSerif-34"/>
      </g>
     </g>
    </g>
    <g id="ytick_3">
     <g id="line2d_7">
      <path clip-path="url(#pe9268729e9)" d="M 36 57.676596 
L 324 57.676596 
" style="fill:none;stroke:#808080;stroke-linecap:square;stroke-width:0.4;"/>
     </g>
     <g id="line2d_8">
      <g>
       <use style="stroke:#000000;stroke-width:0.8;" x="36" xlink:href="#md2c0ff7b5b" y="57.676596"/>
      </g>
     </g>
     <g id="line2d_9">
      <g>
       <use style="stroke:#000000;stroke-width:0.8;" x="324" xlink:href="#mf6bedcaf13" y="57.676596"/>
      </g>
     </g>
     <g id="text_3">
      <!-- 6 -->
      <g transform="translate(28.04625 60.336049)scale(0.07 -0.07)">
       <defs>
        <path d="M 2094 219 
Q 2534 219 2771 542 
Q 3009 866 3009 1472 
Q 3009 2078 2771 2401 
Q 2534 2725 2094 2725 
Q 1647 2725 1412 2412 
Q 1178 2100 1178 1509 
Q 1178 888 1415 553 
Q 1653 219 2094 219 
z
M 1075 2569 
Q 1288 2803 1556 2918 
Q 1825 3034 2163 3034 
Q 2859 3034 3264 2615 
Q 3669 2197 3669 1472 
Q 3669 763 3233 336 
Q 2797 -91 2069 -91 
Q 1278 -91 853 498 
Q 428 1088 428 2181 
Q 428 3406 931 4078 
Q 1434 4750 2350 4750 
Q 2597 4750 2869 4703 
Q 3141 4656 3425 4563 
L 3425 3794 
L 3072 3794 
Q 3034 4109 2831 4275 
Q 2628 4441 2284 4441 
Q 1678 4441 1381 3981 
Q 1084 3522 1075 2569 
z
" id="DejaVuSerif-36" transform="scale(0.015625)"/>
       </defs>
       <use xlink:href="#DejaVuSerif-36"/>
      </g>
     </g>
    </g>
    <g id="ytick_4">
     <g id="line2d_10">
      <path clip-path="url(#pe9268729e9)" d="M 36 32.4 
L 324 32.4 
" style="fill:none;stroke:#808080;stroke-linecap:square;stroke-width:0.4;"/>
     </g>
     <g id="line2d_11">
      <g>
       <use style="stroke:#000000;stroke-width:0.8;" x="36" xlink:href="#md2c0ff7b5b" y="32.4"/>
      </g>
     </g>
     <g id="line2d_12">
      <g>
       <use style="stroke:#000000;stroke-width:0.8;" x="324" xlink:href="#mf6bedcaf13" y="32.4"/>
      </g>
     </g>
     <g id="text_4">
      <!-- 8 -->
      <g transform="translate(28.04625 35.059453)scale(0.07 -0.07)">
       <defs>
        <path d="M 2981 1275 
Q 2981 1775 2732 2051 
Q 2484 2328 2034 2328 
Q 1584 2328 1336 2051 
Q 1088 1775 1088 1275 
Q 1088 772 1336 495 
Q 1584 219 2034 219 
Q 2484 219 2732 495 
Q 2981 772 2981 1275 
z
M 2853 3541 
Q 2853 3966 2637 4203 
Q 2422 4441 2034 4441 
Q 1650 4441 1433 4203 
Q 1216 3966 1216 3541 
Q 1216 3113 1433 2875 
Q 1650 2638 2034 2638 
Q 2422 2638 2637 2875 
Q 2853 3113 2853 3541 
z
M 2516 2484 
Q 3047 2413 3344 2092 
Q 3641 1772 3641 1275 
Q 3641 619 3225 264 
Q 2809 -91 2034 -91 
Q 1263 -91 845 264 
Q 428 619 428 1275 
Q 428 1772 725 2092 
Q 1022 2413 1556 2484 
Q 1084 2569 832 2842 
Q 581 3116 581 3541 
Q 581 4103 968 4426 
Q 1356 4750 2034 4750 
Q 2713 4750 3100 4426 
Q 3488 4103 3488 3541 
Q 3488 3116 3236 2842 
Q 2984 2569 2516 2484 
z
" id="DejaVuSerif-38" transform="scale(0.015625)"/>
       </defs>
       <use xlink:href="#DejaVuSerif-38"/>
      </g>
     </g>
    </g>
    <g id="ytick_5">
     <g id="line2d_13">
      <path clip-path="url(#pe9268729e9)" d="M 36 114.548936 
L 324 114.548936 
" style="fill:none;stroke:#808080;stroke-dasharray:0.74,0.32;stroke-dashoffset:0;stroke-width:0.2;"/>
     </g>
     <g id="line2d_14">
      <defs>
       <path d="M 0 0 
L 2 0 
" id="maf84346c00" style="stroke:#000000;stroke-width:0.6;"/>
      </defs>
      <g>
       <use style="stroke:#000000;stroke-width:0.6;" x="36" xlink:href="#maf84346c00" y="114.548936"/>
      </g>
     </g>
     <g id="line2d_15">
      <defs>
       <path d="M 0 0 
L -2 0 
" id="m6ab2dfc7f0" style="stroke:#000000;stroke-width:0.6;"/>
      </defs>
      <g>
       <use style="stroke:#000000;stroke-width:0.6;" x="324" xlink:href="#m6ab2dfc7f0" y="114.548936"/>
      </g>
     </g>
    </g>
    <g id="ytick_6">
     <g id="line2d_16">
      <path clip-path="url(#pe9268729e9)" d="M 36 101.910638 
L 324 101.910638 
" style="fill:none;stroke:#808080;stroke-dasharray:0.74,0.32;stroke-dashoffset:0;stroke-width:0.2;"/>
     </g>
     <g id="line2d_17">
      <g>
       <use style="stroke:#000000;stroke-width:0.6;" x="36" xlink:href="#maf84346c00" y="101.910638"/>
      </g>
     </g>
     <g id="line2d_18">
      <g>
       <use style="stroke:#000000;stroke-width:0.6;" x="324" xlink:href="#m6ab2dfc7f0" y="101.910638"/>
      </g>
     </g>
    </g>
    <g id="ytick_7">
     <g id="line2d_19">
      <path clip-path="url(#pe9268729e9)" d="M 36 95.591489 
L 324 95.591489 
" style="fill:none;stroke:#808080;stroke-dasharray:0.74,0.32;stroke-dashoffset:0;stroke-width:0.2;"/>
     </g>
     <g id="line2d_20">
      <g>
       <use style="stroke:#000000;stroke-width:0.6;" x="36" xlink:href="#maf84346c00" y="95.591489"/>
      </g>
     </g>
     <g id="line2d_21">
      <g>
       <use style="stroke:#000000;stroke-width:0.6;" x="324" xlink:href="#m6ab2dfc7f0" y="95.591489"/>
      </g>
     </g>
    </g>
    <g id="ytick_8">
     <g id="line2d_22">
      <path clip-path="url(#pe9268729e9)" d="M 36 89.27234 
L 324 89.27234 
" style="fill:none;stroke:#808080;stroke-dasharray:0.74,0.32;stroke-dashoffset:0;stroke-width:0.2;"/>
     </g>
     <g id="line2d_23">
      <g>
       <use style="stroke:#000000;stroke-width:0.6;" x="36" xlink:href="#maf84346c00" y="89.27234"/>
      </g>
     </g>
     <g id="line2d_24">
      <g>
       <use style="stroke:#000000;stroke-width:0.6;" x="324" xlink:href="#m6ab2dfc7f0" y="89.27234"/>
      </g>
     </g>
    </g>
    <g id="ytick_9">
     <g id="line2d_25">
      <path clip-path="url(#pe9268729e9)" d="M 36 76.634043 
L 324 76.634043 
" style="fill:none;stroke:#808080;stroke-dasharray:0.74,0.32;stroke-dashoffset:0;stroke-width:0.2;"/>
     </g>
     <g id="line2d_26">
      <g>
       <use style="stroke:#000000;stroke-width:0.6;" x="36" xlink:href="#maf84346c00" y="76.634043"/>
      </g>
     </g>
     <g id="line2d_27">
      <g>
       <use style="stroke:#000000;stroke-width:0.6;" x="324" xlink:href="#m6ab2dfc7f0" y="76.634043"/>
      </g>
     </g>
    </g>
    <g id="ytick_10">
     <g id="line2d_28">
      <path clip-path="url(#pe9268729e9)" d="M 36 70.314894 
L 324 70.314894 
" style="fill:none;stroke:#808080;stroke-dasharray:0.74,0.32;stroke-dashoffset:0;stroke-width:0.2;"/>
     </g>
     <g id="line2d_29">
      <g>
       <use style="stroke:#000000;stroke-width:0.6;" x="36" xlink:href="#maf84346c00" y="70.314894"/>
      </g>
     </g>
     <g id="line2d_30">
      <g>
       <use style="stroke:#000000;stroke-width:0.6;" x="324" xlink:href="#m6ab2dfc7f0" y="70.314894"/>
      </g>
     </g>
    </g>
    <g id="ytick_11">
     <g id="line2d_31">
      <path clip-path="url(#pe9268729e9)" d="M 36 63.995745 
L 324 63.995745 
" style="fill:none;stroke:#808080;stroke-dasharray:0.74,0.32;stroke-dashoffset:0;stroke-width:0.2;"/>
     </g>
     <g id="line2d_32">
      <g>
       <use style="stroke:#000000;stroke-width:0.6;" x="36" xlink:href="#maf84346c00" y="63.995745"/>
      </g>
     </g>
     <g id="line2d_33">
      <g>
       <use style="stroke:#000000;stroke-width:0.6;" x="324" xlink:href="#m6ab2dfc7f0" y="63.995745"/>
      </g>
     </g>
    </g>
    <g id="ytick_12">
     <g id="line2d_34">
      <path clip-path="url(#pe9268729e9)" d="M 36 51.357447 
L 324 51.357447 
" style="fill:none;stroke:#808080;stroke-dasharray:0.74,0.32;stroke-dashoffset:0;stroke-width:0.2;"/>
     </g>
     <g id="line2d_35">
      <g>
       <use style="stroke:#000000;stroke-width:0.6;" x="36" xlink:href="#maf84346c00" y="51.357447"/>
      </g>
     </g>
     <g id="line2d_36">
      <g>
       <use style="stroke:#000000;stroke-width:0.6;" x="324" xlink:href="#m6ab2dfc7f0" y="51.357447"/>
      </g>
     </g>
    </g>
    <g id="ytick_13">
     <g id="line2d_37">
      <path clip-path="url(#pe9268729e9)" d="M 36 45.038298 
L 324 45.038298 
" style="fill:none;stroke:#808080;stroke-dasharray:0.74,0.32;stroke-dashoffset:0;stroke-width:0.2;"/>
     </g>
     <g id="line2d_38">
      <g>
       <use style="stroke:#000000;stroke-width:0.6;" x="36" xlink:href="#maf84346c00" y="45.038298"/>
      </g>
     </g>
     <g id="line2d_39">
      <g>
       <use style="stroke:#000000;stroke-width:0.6;" x="324" xlink:href="#m6ab2dfc7f0" y="45.038298"/>
      </g>
     </g>
    </g>
    <g id="ytick_14">
     <g id="line2d_40">
      <path clip-path="url(#pe9268729e9)" d="M 36 38.719149 
L 324 38.719149 
" style="fill:none;stroke:#808080;stroke-dasharray:0.74,0.32;stroke-dashoffset:0;stroke-width:0.2;"/>
     </g>
     <g id="line2d_41">
      <g>
       <use style="stroke:#000000;stroke-width:0.6;" x="36" xlink:href="#maf84346c00" y="38.719149"/>
      </g>
     </g>
     <g id="line2d_42">
      <g>
       <use style="stroke:#000000;stroke-width:0.6;" x="324" xlink:href="#m6ab2dfc7f0" y="38.719149"/>
      </g>
     </g>
    </g>
    <g id="text_5">
     <!-- Period [hours] -->
     <g transform="translate(22.3825 105.590293)rotate(-90)scale(0.08 -0.08)">
      <defs>
       <path d="M 1581 2375 
L 2406 2375 
Q 2872 2375 3115 2626 
Q 3359 2878 3359 3353 
Q 3359 3831 3115 4081 
Q 2872 4331 2406 4331 
L 1581 4331 
L 1581 2375 
z
M 353 0 
L 353 331 
L 947 331 
L 947 4331 
L 353 4331 
L 353 4666 
L 2559 4666 
Q 3259 4666 3668 4311 
Q 4078 3956 4078 3353 
Q 4078 2753 3668 2397 
Q 3259 2041 2559 2041 
L 1581 2041 
L 1581 331 
L 2303 331 
L 2303 0 
L 353 0 
z
" id="DejaVuSerif-50" transform="scale(0.015625)"/>
       <path d="M 3469 1600 
L 991 1600 
L 991 1575 
Q 991 903 1244 561 
Q 1497 219 1991 219 
Q 2369 219 2611 417 
Q 2853 616 2950 1006 
L 3413 1006 
Q 3275 459 2904 184 
Q 2534 -91 1931 -91 
Q 1203 -91 761 389 
Q 319 869 319 1663 
Q 319 2450 753 2931 
Q 1188 3413 1894 3413 
Q 2647 3413 3050 2948 
Q 3453 2484 3469 1600 
z
M 2791 1931 
Q 2772 2513 2545 2808 
Q 2319 3103 1894 3103 
Q 1497 3103 1269 2806 
Q 1041 2509 991 1931 
L 2791 1931 
z
" id="DejaVuSerif-65" transform="scale(0.015625)"/>
       <path d="M 3059 3328 
L 3059 2497 
L 2728 2497 
Q 2713 2744 2591 2866 
Q 2469 2988 2234 2988 
Q 1809 2988 1582 2694 
Q 1356 2400 1356 1850 
L 1356 331 
L 2022 331 
L 2022 0 
L 263 0 
L 263 331 
L 781 331 
L 781 2994 
L 231 2994 
L 231 3322 
L 1356 3322 
L 1356 2731 
Q 1525 3078 1790 3245 
Q 2056 3413 2438 3413 
Q 2578 3413 2733 3391 
Q 2888 3369 3059 3328 
z
" id="DejaVuSerif-72" transform="scale(0.015625)"/>
       <path d="M 622 4353 
Q 622 4497 726 4603 
Q 831 4709 978 4709 
Q 1122 4709 1226 4603 
Q 1331 4497 1331 4353 
Q 1331 4206 1228 4103 
Q 1125 4000 978 4000 
Q 831 4000 726 4103 
Q 622 4206 622 4353 
z
M 1356 331 
L 1900 331 
L 1900 0 
L 231 0 
L 231 331 
L 781 331 
L 781 2988 
L 231 2988 
L 231 3322 
L 1356 3322 
L 1356 331 
z
" id="DejaVuSerif-69" transform="scale(0.015625)"/>
       <path d="M 1925 219 
Q 2388 219 2623 584 
Q 2859 950 2859 1663 
Q 2859 2375 2623 2739 
Q 2388 3103 1925 3103 
Q 1463 3103 1227 2739 
Q 991 2375 991 1663 
Q 991 950 1228 584 
Q 1466 219 1925 219 
z
M 1925 -91 
Q 1200 -91 759 389 
Q 319 869 319 1663 
Q 319 2456 758 2934 
Q 1197 3413 1925 3413 
Q 2653 3413 3092 2934 
Q 3531 2456 3531 1663 
Q 3531 869 3092 389 
Q 2653 -91 1925 -91 
z
" id="DejaVuSerif-6f" transform="scale(0.015625)"/>
       <path d="M 3359 331 
L 3909 331 
L 3909 0 
L 2784 0 
L 2784 519 
Q 2616 206 2355 57 
Q 2094 -91 1709 -91 
Q 1097 -91 708 395 
Q 319 881 319 1663 
Q 319 2444 706 2928 
Q 1094 3413 1709 3413 
Q 2094 3413 2355 3264 
Q 2616 3116 2784 2803 
L 2784 4531 
L 2241 4531 
L 2241 4863 
L 3359 4863 
L 3359 331 
z
M 2784 1497 
L 2784 1825 
Q 2784 2422 2554 2737 
Q 2325 3053 1888 3053 
Q 1444 3053 1217 2703 
Q 991 2353 991 1663 
Q 991 975 1217 622 
Q 1444 269 1888 269 
Q 2325 269 2554 583 
Q 2784 897 2784 1497 
z
" id="DejaVuSerif-64" transform="scale(0.015625)"/>
       <path id="DejaVuSerif-20" transform="scale(0.015625)"/>
       <path d="M 550 4863 
L 2003 4863 
L 2003 4531 
L 1147 4531 
L 1147 -513 
L 2003 -513 
L 2003 -844 
L 550 -844 
L 550 4863 
z
" id="DejaVuSerif-5b" transform="scale(0.015625)"/>
       <path d="M 263 0 
L 263 331 
L 781 331 
L 781 4531 
L 231 4531 
L 231 4863 
L 1356 4863 
L 1356 2731 
Q 1516 3069 1770 3241 
Q 2025 3413 2363 3413 
Q 2913 3413 3172 3097 
Q 3431 2781 3431 2113 
L 3431 331 
L 3944 331 
L 3944 0 
L 2356 0 
L 2356 331 
L 2853 331 
L 2853 1931 
Q 2853 2541 2704 2764 
Q 2556 2988 2175 2988 
Q 1775 2988 1565 2697 
Q 1356 2406 1356 1850 
L 1356 331 
L 1856 331 
L 1856 0 
L 263 0 
z
" id="DejaVuSerif-68" transform="scale(0.015625)"/>
       <path d="M 2266 3322 
L 3341 3322 
L 3341 331 
L 3884 331 
L 3884 0 
L 2766 0 
L 2766 588 
Q 2606 256 2353 82 
Q 2100 -91 1766 -91 
Q 1213 -91 952 223 
Q 691 538 691 1209 
L 691 2988 
L 172 2988 
L 172 3322 
L 1269 3322 
L 1269 1388 
Q 1269 781 1417 556 
Q 1566 331 1947 331 
Q 2347 331 2556 625 
Q 2766 919 2766 1478 
L 2766 2988 
L 2266 2988 
L 2266 3322 
z
" id="DejaVuSerif-75" transform="scale(0.015625)"/>
       <path d="M 359 184 
L 359 959 
L 691 959 
Q 703 588 923 403 
Q 1144 219 1575 219 
Q 1963 219 2166 364 
Q 2369 509 2369 788 
Q 2369 1006 2220 1140 
Q 2072 1275 1594 1428 
L 1178 1569 
Q 750 1706 558 1912 
Q 366 2119 366 2438 
Q 366 2894 700 3153 
Q 1034 3413 1625 3413 
Q 1888 3413 2178 3344 
Q 2469 3275 2778 3144 
L 2778 2419 
L 2447 2419 
Q 2434 2741 2221 2922 
Q 2009 3103 1644 3103 
Q 1281 3103 1095 2975 
Q 909 2847 909 2591 
Q 909 2381 1050 2254 
Q 1191 2128 1613 1997 
L 2069 1856 
Q 2541 1709 2748 1489 
Q 2956 1269 2956 922 
Q 2956 450 2595 179 
Q 2234 -91 1600 -91 
Q 1278 -91 972 -22 
Q 666 47 359 184 
z
" id="DejaVuSerif-73" transform="scale(0.015625)"/>
       <path d="M 1947 4863 
L 1947 -844 
L 494 -844 
L 494 -513 
L 1350 -513 
L 1350 4531 
L 494 4531 
L 494 4863 
L 1947 4863 
z
" id="DejaVuSerif-5d" transform="scale(0.015625)"/>
      </defs>
      <use xlink:href="#DejaVuSerif-50"/>
      <use x="62.785156" xlink:href="#DejaVuSerif-65"/>
      <use x="121.964844" xlink:href="#DejaVuSerif-72"/>
      <use x="169.767578" xlink:href="#DejaVuSerif-69"/>
      <use x="201.75" xlink:href="#DejaVuSerif-6f"/>
      <use x="261.955078" xlink:href="#DejaVuSerif-64"/>
      <use x="325.96875" xlink:href="#DejaVuSerif-20"/>
      <use x="357.755859" xlink:href="#DejaVuSerif-5b"/>
      <use x="396.769531" xlink:href="#DejaVuSerif-68"/>
      <use x="461.173828" xlink:href="#DejaVuSerif-6f"/>
      <use x="521.378906" xlink:href="#DejaVuSerif-75"/>
      <use x="585.783203" xlink:href="#DejaVuSerif-72"/>
      <use x="633.585938" xlink:href="#DejaVuSerif-73"/>
      <use x="684.904297" xlink:href="#DejaVuSerif-5d"/>
     </g>
    </g>
   </g>
   <g id="LineCollection_1">
    <path clip-path="url(#pe9268729e9)" d="M 60 74.634417 
L 60 71.141685 
" style="fill:none;stroke:#808080;"/>
    <path clip-path="url(#pe9268729e9)" d="M 108 105.585541 
L 108 101.39531 
" style="fill:none;stroke:#808080;"/>
    <path clip-path="url(#pe9268729e9)" d="M 156 105.066108 
L 156 101.846496 
" style="fill:none;stroke:#808080;"/>
    <path clip-path="url(#pe9268729e9)" d="M 204 71.555744 
L 204 66.783984 
" style="fill:none;stroke:#808080;"/>
    <path clip-path="url(#pe9268729e9)" d="M 252 49.9871 
L 252 45.220645 
" style="fill:none;stroke:#808080;"/>
    <path clip-path="url(#pe9268729e9)" d="M 300 80.910942 
L 300 78.072182 
" style="fill:none;stroke:#808080;"/>
   </g>
   <g id="line2d_43">
    <defs>
     <path d="M 3 0 
L -3 -0 
" id="mc30615b6bb" style="stroke:#808080;"/>
    </defs>
    <g clip-path="url(#pe9268729e9)">
     <use style="fill:#808080;stroke:#808080;" x="60" xlink:href="#mc30615b6bb" y="74.634417"/>
     <use style="fill:#808080;stroke:#808080;" x="108" xlink:href="#mc30615b6bb" y="105.585541"/>
     <use style="fill:#808080;stroke:#808080;" x="156" xlink:href="#mc30615b6bb" y="105.066108"/>
     <use style="fill:#808080;stroke:#808080;" x="204" xlink:href="#mc30615b6bb" y="71.555744"/>
     <use style="fill:#808080;stroke:#808080;" x="252" xlink:href="#mc30615b6bb" y="49.9871"/>
     <use style="fill:#808080;stroke:#808080;" x="300" xlink:href="#mc30615b6bb" y="80.910942"/>
    </g>
   </g>
   <g id="line2d_44">
    <g clip-path="url(#pe9268729e9)">
     <use style="fill:#808080;stroke:#808080;" x="60" xlink:href="#mc30615b6bb" y="71.141685"/>
     <use style="fill:#808080;stroke:#808080;" x="108" xlink:href="#mc30615b6bb" y="101.39531"/>
     <use style="fill:#808080;stroke:#808080;" x="156" xlink:href="#mc30615b6bb" y="101.846496"/>
     <use style="fill:#808080;stroke:#808080;" x="204" xlink:href="#mc30615b6bb" y="66.783984"/>
     <use style="fill:#808080;stroke:#808080;" x="252" xlink:href="#mc30615b6bb" y="45.220645"/>
     <use style="fill:#808080;stroke:#808080;" x="300" xlink:href="#mc30615b6bb" y="78.072182"/>
    </g>
   </g>
   <g id="line2d_45">
    <defs>
     <path d="M 0 1.5 
C 0.397805 1.5 0.77937 1.341951 1.06066 1.06066 
C 1.341951 0.77937 1.5 0.397805 1.5 0 
C 1.5 -0.397805 1.341951 -0.77937 1.06066 -1.06066 
C 0.77937 -1.341951 0.397805 -1.5 0 -1.5 
C -0.397805 -1.5 -0.77937 -1.341951 -1.06066 -1.06066 
C -1.341951 -0.77937 -1.5 -0.397805 -1.5 0 
C -1.5 0.397805 -1.341951 0.77937 -1.06066 1.06066 
C -0.77937 1.341951 -0.397805 1.5 0 1.5 
z
" id="md9e20211d1" style="stroke:#000000;"/>
    </defs>
    <g clip-path="url(#pe9268729e9)">
     <use style="stroke:#000000;" x="60" xlink:href="#md9e20211d1" y="72.888051"/>
     <use style="stroke:#000000;" x="108" xlink:href="#md9e20211d1" y="103.490426"/>
     <use style="stroke:#000000;" x="156" xlink:href="#md9e20211d1" y="103.456302"/>
     <use style="stroke:#000000;" x="204" xlink:href="#md9e20211d1" y="69.169864"/>
     <use style="stroke:#000000;" x="252" xlink:href="#md9e20211d1" y="47.603872"/>
     <use style="stroke:#000000;" x="300" xlink:href="#md9e20211d1" y="79.491562"/>
    </g>
   </g>
   <g id="patch_3">
    <path d="M 36 120.868085 
L 36 32.4 
" style="fill:none;stroke:#000000;stroke-linecap:square;stroke-linejoin:miter;stroke-width:0.8;"/>
   </g>
   <g id="patch_4">
    <path d="M 324 120.868085 
L 324 32.4 
" style="fill:none;stroke:#000000;stroke-linecap:square;stroke-linejoin:miter;stroke-width:0.8;"/>
   </g>
   <g id="patch_5">
    <path d="M 36 120.868085 
L 324 120.868085 
" style="fill:none;stroke:#000000;stroke-linecap:square;stroke-linejoin:miter;stroke-width:0.8;"/>
   </g>
   <g id="patch_6">
    <path d="M 36 32.4 
L 324 32.4 
" style="fill:none;stroke:#000000;stroke-linecap:square;stroke-linejoin:miter;stroke-width:0.8;"/>
   </g>
   <g id="text_6">
    <!-- Ivar -->
    <g transform="translate(52.880234 67.832732)scale(0.07 -0.07)">
     <defs>
      <path d="M 1581 331 
L 2175 331 
L 2175 0 
L 353 0 
L 353 331 
L 947 331 
L 947 4331 
L 353 4331 
L 353 4666 
L 2175 4666 
L 2175 4331 
L 1581 4331 
L 1581 331 
z
" id="DejaVuSerif-49" transform="scale(0.015625)"/>
      <path d="M 1581 0 
L 359 2988 
L -19 2988 
L -19 3322 
L 1509 3322 
L 1509 2988 
L 978 2988 
L 1913 703 
L 2847 2988 
L 2350 2988 
L 2350 3322 
L 3597 3322 
L 3597 2988 
L 3225 2988 
L 2003 0 
L 1581 0 
z
" id="DejaVuSerif-76" transform="scale(0.015625)"/>
      <path d="M 2547 1044 
L 2547 1747 
L 1806 1747 
Q 1378 1747 1168 1562 
Q 959 1378 959 997 
Q 959 650 1171 447 
Q 1384 244 1747 244 
Q 2106 244 2326 466 
Q 2547 688 2547 1044 
z
M 3122 2075 
L 3122 331 
L 3634 331 
L 3634 0 
L 2547 0 
L 2547 359 
Q 2356 128 2106 18 
Q 1856 -91 1522 -91 
Q 969 -91 644 203 
Q 319 497 319 997 
Q 319 1513 691 1797 
Q 1063 2081 1741 2081 
L 2547 2081 
L 2547 2309 
Q 2547 2688 2317 2895 
Q 2088 3103 1672 3103 
Q 1328 3103 1125 2947 
Q 922 2791 872 2484 
L 575 2484 
L 575 3156 
Q 875 3284 1158 3348 
Q 1441 3413 1709 3413 
Q 2400 3413 2761 3070 
Q 3122 2728 3122 2075 
z
" id="DejaVuSerif-61" transform="scale(0.015625)"/>
     </defs>
     <use xlink:href="#DejaVuSerif-49"/>
     <use x="39.501953" xlink:href="#DejaVuSerif-76"/>
     <use x="95.996094" xlink:href="#DejaVuSerif-61"/>
     <use x="155.615234" xlink:href="#DejaVuSerif-72"/>
    </g>
   </g>
   <g id="text_7">
    <!-- 2000QL7 -->
    <g transform="translate(91.671953 98.435106)scale(0.07 -0.07)">
     <defs>
      <path d="M 2034 219 
Q 2513 219 2750 744 
Q 2988 1269 2988 2328 
Q 2988 3391 2750 3916 
Q 2513 4441 2034 4441 
Q 1556 4441 1318 3916 
Q 1081 3391 1081 2328 
Q 1081 1269 1318 744 
Q 1556 219 2034 219 
z
M 2034 -91 
Q 1275 -91 848 546 
Q 422 1184 422 2328 
Q 422 3475 848 4112 
Q 1275 4750 2034 4750 
Q 2797 4750 3222 4112 
Q 3647 3475 3647 2328 
Q 3647 1184 3222 546 
Q 2797 -91 2034 -91 
z
" id="DejaVuSerif-30" transform="scale(0.015625)"/>
      <path d="M 2700 -91 
Q 1628 -91 993 567 
Q 359 1225 359 2328 
Q 359 2894 529 3339 
Q 700 3784 1050 4134 
Q 1356 4441 1750 4595 
Q 2144 4750 2625 4750 
Q 3641 4750 4266 4084 
Q 4891 3419 4891 2328 
Q 4891 1403 4422 773 
Q 3953 144 3128 -38 
Q 3297 -247 3539 -347 
Q 3781 -447 4122 -447 
L 4219 -447 
L 4219 -1025 
Q 3691 -1000 3314 -767 
Q 2938 -534 2700 -91 
z
M 2625 244 
Q 3391 244 3781 770 
Q 4172 1297 4172 2328 
Q 4172 3363 3781 3889 
Q 3391 4416 2625 4416 
Q 1856 4416 1465 3889 
Q 1075 3363 1075 2328 
Q 1075 1297 1465 770 
Q 1856 244 2625 244 
z
" id="DejaVuSerif-51" transform="scale(0.015625)"/>
      <path d="M 353 0 
L 353 331 
L 947 331 
L 947 4331 
L 353 4331 
L 353 4666 
L 2175 4666 
L 2175 4331 
L 1581 4331 
L 1581 384 
L 3713 384 
L 3713 1166 
L 4097 1166 
L 4097 0 
L 353 0 
z
" id="DejaVuSerif-4c" transform="scale(0.015625)"/>
      <path d="M 3609 4347 
L 1784 0 
L 1319 0 
L 3059 4153 
L 903 4153 
L 903 3578 
L 538 3578 
L 538 4666 
L 3609 4666 
L 3609 4347 
z
" id="DejaVuSerif-37" transform="scale(0.015625)"/>
     </defs>
     <use xlink:href="#DejaVuSerif-32"/>
     <use x="63.623047" xlink:href="#DejaVuSerif-30"/>
     <use x="127.246094" xlink:href="#DejaVuSerif-30"/>
     <use x="190.869141" xlink:href="#DejaVuSerif-30"/>
     <use x="254.492188" xlink:href="#DejaVuSerif-51"/>
     <use x="336.474609" xlink:href="#DejaVuSerif-4c"/>
     <use x="402.880859" xlink:href="#DejaVuSerif-37"/>
    </g>
   </g>
   <g id="text_8">
    <!-- 1998TU3 -->
    <g transform="translate(139.581172 98.400983)scale(0.07 -0.07)">
     <defs>
      <path d="M 909 0 
L 909 331 
L 1722 331 
L 1722 4213 
L 781 3603 
L 781 4013 
L 1919 4750 
L 2350 4750 
L 2350 331 
L 3163 331 
L 3163 0 
L 909 0 
z
" id="DejaVuSerif-31" transform="scale(0.015625)"/>
      <path d="M 2994 2091 
Q 2784 1856 2512 1740 
Q 2241 1625 1900 1625 
Q 1206 1625 804 2044 
Q 403 2463 403 3188 
Q 403 3897 839 4323 
Q 1275 4750 2003 4750 
Q 2794 4750 3217 4161 
Q 3641 3572 3641 2478 
Q 3641 1253 3137 581 
Q 2634 -91 1722 -91 
Q 1475 -91 1203 -44 
Q 931 3 647 97 
L 647 872 
L 997 872 
Q 1038 556 1241 387 
Q 1444 219 1784 219 
Q 2391 219 2687 676 
Q 2984 1134 2994 2091 
z
M 1978 4441 
Q 1534 4441 1298 4117 
Q 1063 3794 1063 3188 
Q 1063 2581 1298 2256 
Q 1534 1931 1978 1931 
Q 2422 1931 2658 2245 
Q 2894 2559 2894 3150 
Q 2894 3772 2656 4106 
Q 2419 4441 1978 4441 
z
" id="DejaVuSerif-39" transform="scale(0.015625)"/>
      <path d="M 1222 0 
L 1222 331 
L 1819 331 
L 1819 4294 
L 447 4294 
L 447 3566 
L 63 3566 
L 63 4666 
L 4206 4666 
L 4206 3566 
L 3822 3566 
L 3822 4294 
L 2450 4294 
L 2450 331 
L 3047 331 
L 3047 0 
L 1222 0 
z
" id="DejaVuSerif-54" transform="scale(0.015625)"/>
      <path d="M 897 4331 
L 300 4331 
L 300 4666 
L 2125 4666 
L 2125 4331 
L 1528 4331 
L 1528 1919 
Q 1528 1025 1820 672 
Q 2113 319 2828 319 
Q 3544 319 3836 672 
Q 4128 1025 4128 1919 
L 4128 4331 
L 3531 4331 
L 3531 4666 
L 5106 4666 
L 5106 4331 
L 4513 4331 
L 4513 1856 
Q 4513 791 4103 350 
Q 3694 -91 2713 -91 
Q 1731 -91 1314 353 
Q 897 797 897 1856 
L 897 4331 
z
" id="DejaVuSerif-55" transform="scale(0.015625)"/>
      <path d="M 622 4469 
Q 988 4606 1323 4678 
Q 1659 4750 1953 4750 
Q 2638 4750 3022 4454 
Q 3406 4159 3406 3634 
Q 3406 3213 3140 2930 
Q 2875 2647 2388 2547 
Q 2963 2466 3280 2130 
Q 3597 1794 3597 1259 
Q 3597 606 3158 257 
Q 2719 -91 1894 -91 
Q 1528 -91 1179 -12 
Q 831 66 488 225 
L 488 1131 
L 838 1131 
Q 869 681 1141 450 
Q 1413 219 1906 219 
Q 2384 219 2661 495 
Q 2938 772 2938 1253 
Q 2938 1803 2653 2086 
Q 2369 2369 1819 2369 
L 1522 2369 
L 1522 2688 
L 1678 2688 
Q 2225 2688 2498 2914 
Q 2772 3141 2772 3597 
Q 2772 4006 2547 4223 
Q 2322 4441 1900 4441 
Q 1478 4441 1245 4241 
Q 1013 4041 972 3647 
L 622 3647 
L 622 4469 
z
" id="DejaVuSerif-33" transform="scale(0.015625)"/>
     </defs>
     <use xlink:href="#DejaVuSerif-31"/>
     <use x="63.623047" xlink:href="#DejaVuSerif-39"/>
     <use x="127.246094" xlink:href="#DejaVuSerif-39"/>
     <use x="190.869141" xlink:href="#DejaVuSerif-38"/>
     <use x="254.492188" xlink:href="#DejaVuSerif-54"/>
     <use x="321.191406" xlink:href="#DejaVuSerif-55"/>
     <use x="405.46875" xlink:href="#DejaVuSerif-33"/>
    </g>
   </g>
   <g id="text_9">
    <!-- 2001SG276 -->
    <g transform="translate(183.218203 64.114545)scale(0.07 -0.07)">
     <defs>
      <path d="M 594 225 
L 594 1288 
L 953 1284 
Q 969 753 1261 498 
Q 1553 244 2150 244 
Q 2706 244 2998 464 
Q 3291 684 3291 1106 
Q 3291 1444 3114 1625 
Q 2938 1806 2369 1978 
L 1753 2163 
Q 1084 2366 811 2669 
Q 538 2972 538 3500 
Q 538 4094 959 4422 
Q 1381 4750 2144 4750 
Q 2469 4750 2856 4679 
Q 3244 4609 3681 4475 
L 3681 3481 
L 3328 3481 
Q 3275 3975 2998 4195 
Q 2722 4416 2156 4416 
Q 1663 4416 1405 4214 
Q 1147 4013 1147 3628 
Q 1147 3294 1340 3103 
Q 1534 2913 2163 2725 
L 2741 2553 
Q 3375 2363 3645 2067 
Q 3916 1772 3916 1275 
Q 3916 597 3481 253 
Q 3047 -91 2188 -91 
Q 1803 -91 1404 -12 
Q 1006 66 594 225 
z
" id="DejaVuSerif-53" transform="scale(0.015625)"/>
      <path d="M 4097 3272 
Q 3988 3856 3641 4136 
Q 3294 4416 2675 4416 
Q 1869 4416 1472 3897 
Q 1075 3378 1075 2328 
Q 1075 1300 1484 772 
Q 1894 244 2688 244 
Q 3041 244 3362 331 
Q 3684 419 3975 594 
L 3975 1797 
L 3097 1797 
L 3097 2131 
L 4609 2131 
L 4609 391 
Q 4194 150 3714 29 
Q 3234 -91 2688 -91 
Q 1631 -91 995 570 
Q 359 1231 359 2328 
Q 359 3434 996 4092 
Q 1634 4750 2713 4750 
Q 3113 4750 3539 4658 
Q 3966 4566 4447 4378 
L 4447 3272 
L 4097 3272 
z
" id="DejaVuSerif-47" transform="scale(0.015625)"/>
     </defs>
     <use xlink:href="#DejaVuSerif-32"/>
     <use x="63.623047" xlink:href="#DejaVuSerif-30"/>
     <use x="127.246094" xlink:href="#DejaVuSerif-30"/>
     <use x="190.869141" xlink:href="#DejaVuSerif-31"/>
     <use x="254.492188" xlink:href="#DejaVuSerif-53"/>
     <use x="322.998047" xlink:href="#DejaVuSerif-47"/>
     <use x="402.880859" xlink:href="#DejaVuSerif-32"/>
     <use x="466.503906" xlink:href="#DejaVuSerif-37"/>
     <use x="530.126953" xlink:href="#DejaVuSerif-36"/>
    </g>
   </g>
   <g id="text_10">
    <!-- 2001UY4 -->
    <g transform="translate(235.605234 42.548553)scale(0.07 -0.07)">
     <defs>
      <path d="M 1209 0 
L 1209 331 
L 1806 331 
L 1806 2009 
L 366 4331 
L -72 4331 
L -72 4666 
L 1663 4666 
L 1663 4331 
L 1119 4331 
L 2284 2444 
L 3450 4331 
L 2925 4331 
L 2925 4666 
L 4281 4666 
L 4281 4331 
L 3841 4331 
L 2438 2069 
L 2438 331 
L 3034 331 
L 3034 0 
L 1209 0 
z
" id="DejaVuSerif-59" transform="scale(0.015625)"/>
     </defs>
     <use xlink:href="#DejaVuSerif-32"/>
     <use x="63.623047" xlink:href="#DejaVuSerif-30"/>
     <use x="127.246094" xlink:href="#DejaVuSerif-30"/>
     <use x="190.869141" xlink:href="#DejaVuSerif-31"/>
     <use x="254.492188" xlink:href="#DejaVuSerif-55"/>
     <use x="338.769531" xlink:href="#DejaVuSerif-59"/>
     <use x="404.785156" xlink:href="#DejaVuSerif-34"/>
    </g>
   </g>
   <g id="text_11">
    <!-- 2003RP8 -->
    <g transform="translate(283.875391 74.436243)scale(0.07 -0.07)">
     <defs>
      <path d="M 3066 2316 
Q 3284 2256 3442 2114 
Q 3600 1972 3725 1716 
L 4403 331 
L 4972 331 
L 4972 0 
L 3872 0 
L 3144 1484 
Q 2934 1916 2759 2042 
Q 2584 2169 2278 2169 
L 1581 2169 
L 1581 331 
L 2241 331 
L 2241 0 
L 353 0 
L 353 331 
L 947 331 
L 947 4331 
L 353 4331 
L 353 4666 
L 2719 4666 
Q 3400 4666 3770 4341 
Q 4141 4016 4141 3419 
Q 4141 2938 3870 2661 
Q 3600 2384 3066 2316 
z
M 1581 2503 
L 2503 2503 
Q 2975 2503 3200 2726 
Q 3425 2950 3425 3419 
Q 3425 3888 3200 4109 
Q 2975 4331 2503 4331 
L 1581 4331 
L 1581 2503 
z
" id="DejaVuSerif-52" transform="scale(0.015625)"/>
     </defs>
     <use xlink:href="#DejaVuSerif-32"/>
     <use x="63.623047" xlink:href="#DejaVuSerif-30"/>
     <use x="127.246094" xlink:href="#DejaVuSerif-30"/>
     <use x="190.869141" xlink:href="#DejaVuSerif-33"/>
     <use x="254.492188" xlink:href="#DejaVuSerif-52"/>
     <use x="329.785156" xlink:href="#DejaVuSerif-50"/>
     <use x="397.070312" xlink:href="#DejaVuSerif-38"/>
    </g>
   </g>
   <g id="text_12">
    <!-- Rotation Period Comparison -->
    <g transform="translate(108.418359 26.4)scale(0.09 -0.09)">
     <defs>
      <path d="M 3397 2278 
Q 3675 2238 3865 2094 
Q 4056 1950 4197 1678 
L 4878 378 
L 5356 378 
L 5356 0 
L 3822 0 
L 3078 1409 
Q 2863 1847 2711 1967 
Q 2559 2088 2291 2088 
L 2100 2088 
L 2100 378 
L 2700 378 
L 2700 0 
L 300 0 
L 300 378 
L 897 378 
L 897 4288 
L 300 4288 
L 300 4666 
L 2963 4666 
Q 3775 4666 4217 4339 
Q 4659 4013 4659 3413 
Q 4659 2925 4345 2642 
Q 4031 2359 3397 2278 
z
M 2100 2463 
L 2509 2463 
Q 2947 2463 3183 2700 
Q 3419 2938 3419 3378 
Q 3419 3819 3183 4053 
Q 2947 4288 2509 4288 
L 2100 4288 
L 2100 2463 
z
" id="DejaVuSerif-Bold-52" transform="scale(0.015625)"/>
      <path d="M 2138 263 
Q 2488 263 2630 563 
Q 2772 863 2772 1663 
Q 2772 2463 2631 2761 
Q 2491 3059 2138 3059 
Q 1784 3059 1640 2757 
Q 1497 2456 1497 1663 
Q 1497 869 1640 566 
Q 1784 263 2138 263 
z
M 2138 -91 
Q 1259 -91 761 376 
Q 263 844 263 1663 
Q 263 2484 761 2948 
Q 1259 3413 2138 3413 
Q 3019 3413 3516 2948 
Q 4013 2484 4013 1663 
Q 4013 844 3514 376 
Q 3016 -91 2138 -91 
z
" id="DejaVuSerif-Bold-6f" transform="scale(0.015625)"/>
      <path d="M 634 2944 
L 153 2944 
L 153 3322 
L 634 3322 
L 634 4353 
L 1741 4353 
L 1741 3322 
L 2663 3322 
L 2663 2944 
L 1741 2944 
L 1741 909 
Q 1741 475 1809 369 
Q 1878 263 2059 263 
Q 2259 263 2356 397 
Q 2453 531 2459 813 
L 2925 813 
Q 2897 313 2651 111 
Q 2406 -91 1806 -91 
Q 1122 -91 878 123 
Q 634 338 634 909 
L 634 2944 
z
" id="DejaVuSerif-Bold-74" transform="scale(0.015625)"/>
      <path d="M 3525 2041 
L 3525 378 
L 4000 378 
L 4000 0 
L 2419 0 
L 2419 422 
Q 2200 159 1931 34 
Q 1663 -91 1319 -91 
Q 809 -91 536 182 
Q 263 456 263 966 
Q 263 1525 655 1803 
Q 1047 2081 1838 2081 
L 2419 2081 
L 2419 2278 
Q 2419 2681 2228 2873 
Q 2038 3066 1638 3066 
Q 1306 3066 1126 2930 
Q 947 2794 872 2484 
L 519 2484 
L 519 3200 
Q 816 3306 1134 3359 
Q 1453 3413 1806 3413 
Q 2697 3413 3111 3081 
Q 3525 2750 3525 2041 
z
M 2419 1044 
L 2419 1709 
L 2003 1709 
Q 1694 1709 1528 1540 
Q 1363 1372 1363 1056 
Q 1363 741 1483 584 
Q 1603 428 1850 428 
Q 2106 428 2262 597 
Q 2419 766 2419 1044 
z
" id="DejaVuSerif-Bold-61" transform="scale(0.015625)"/>
      <path d="M 588 4263 
Q 588 4516 763 4689 
Q 938 4863 1191 4863 
Q 1438 4863 1611 4689 
Q 1784 4516 1784 4263 
Q 1784 4016 1611 3842 
Q 1438 3669 1191 3669 
Q 938 3669 763 3841 
Q 588 4013 588 4263 
z
M 1797 378 
L 2272 378 
L 2272 0 
L 219 0 
L 219 378 
L 691 378 
L 691 2944 
L 219 2944 
L 219 3322 
L 1797 3322 
L 1797 378 
z
" id="DejaVuSerif-Bold-69" transform="scale(0.015625)"/>
      <path d="M 219 0 
L 219 378 
L 691 378 
L 691 2944 
L 219 2944 
L 219 3322 
L 1797 3322 
L 1797 2853 
Q 1997 3150 2253 3281 
Q 2509 3413 2900 3413 
Q 3459 3413 3745 3083 
Q 4031 2753 4031 2113 
L 4031 378 
L 4506 378 
L 4506 0 
L 2522 0 
L 2522 378 
L 2925 378 
L 2925 2144 
Q 2925 2566 2817 2730 
Q 2709 2894 2444 2894 
Q 2109 2894 1953 2648 
Q 1797 2403 1797 1869 
L 1797 378 
L 2203 378 
L 2203 0 
L 219 0 
z
" id="DejaVuSerif-Bold-6e" transform="scale(0.015625)"/>
      <path id="DejaVuSerif-Bold-20" transform="scale(0.015625)"/>
      <path d="M 300 0 
L 300 378 
L 897 378 
L 897 4288 
L 300 4288 
L 300 4666 
L 2956 4666 
Q 3734 4666 4193 4295 
Q 4653 3925 4653 3303 
Q 4653 2678 4192 2304 
Q 3731 1931 2956 1931 
L 2100 1931 
L 2100 378 
L 2853 378 
L 2853 0 
L 300 0 
z
M 2100 2309 
L 2450 2309 
Q 2856 2309 3098 2579 
Q 3341 2850 3341 3303 
Q 3341 3753 3100 4020 
Q 2859 4288 2450 4288 
L 2100 4288 
L 2100 2309 
z
" id="DejaVuSerif-Bold-50" transform="scale(0.015625)"/>
      <path d="M 2566 1875 
Q 2566 2531 2444 2795 
Q 2322 3059 2028 3059 
Q 1744 3059 1620 2800 
Q 1497 2541 1497 1931 
L 1497 1875 
L 2566 1875 
z
M 3781 1503 
L 1497 1503 
L 1497 1478 
Q 1497 834 1690 548 
Q 1884 263 2316 263 
Q 2675 263 2897 453 
Q 3119 644 3181 1006 
L 3700 1006 
Q 3566 441 3166 175 
Q 2766 -91 2047 -91 
Q 1184 -91 723 364 
Q 263 819 263 1663 
Q 263 2488 734 2950 
Q 1206 3413 2047 3413 
Q 2872 3413 3312 2927 
Q 3753 2441 3781 1503 
z
" id="DejaVuSerif-Bold-65" transform="scale(0.015625)"/>
      <path d="M 3438 3359 
L 3438 2369 
L 3084 2369 
Q 3066 2634 2941 2764 
Q 2816 2894 2578 2894 
Q 2216 2894 2006 2575 
Q 1797 2256 1797 1691 
L 1797 378 
L 2400 378 
L 2400 0 
L 219 0 
L 219 378 
L 691 378 
L 691 2944 
L 184 2944 
L 184 3322 
L 1797 3322 
L 1797 2731 
Q 1959 3078 2226 3245 
Q 2494 3413 2881 3413 
Q 2978 3413 3117 3398 
Q 3256 3384 3438 3359 
z
" id="DejaVuSerif-Bold-72" transform="scale(0.015625)"/>
      <path d="M 2747 1497 
L 2747 1825 
Q 2747 2406 2597 2665 
Q 2447 2925 2119 2925 
Q 1775 2925 1636 2651 
Q 1497 2378 1497 1663 
Q 1497 947 1637 672 
Q 1778 397 2119 397 
Q 2447 397 2597 656 
Q 2747 916 2747 1497 
z
M 3853 378 
L 4325 378 
L 4325 0 
L 2747 0 
L 2747 422 
Q 2606 163 2367 36 
Q 2128 -91 1778 -91 
Q 1072 -91 667 378 
Q 263 847 263 1663 
Q 263 2481 667 2947 
Q 1072 3413 1778 3413 
Q 2128 3413 2367 3286 
Q 2606 3159 2747 2900 
L 2747 4488 
L 2272 4488 
L 2272 4863 
L 3853 4863 
L 3853 378 
z
" id="DejaVuSerif-Bold-64" transform="scale(0.015625)"/>
      <path d="M 4769 1331 
Q 4584 609 4106 259 
Q 3628 -91 2822 -91 
Q 1641 -91 955 561 
Q 269 1213 269 2328 
Q 269 3447 955 4098 
Q 1641 4750 2822 4750 
Q 3238 4750 3688 4650 
Q 4138 4550 4641 4347 
L 4641 3200 
L 4244 3200 
Q 4122 3788 3800 4080 
Q 3478 4372 2950 4372 
Q 2269 4372 1937 3870 
Q 1606 3369 1606 2328 
Q 1606 1288 1937 788 
Q 2269 288 2956 288 
Q 3422 288 3717 547 
Q 4013 806 4147 1331 
L 4769 1331 
z
" id="DejaVuSerif-Bold-43" transform="scale(0.015625)"/>
      <path d="M 3884 2778 
Q 4116 3109 4384 3261 
Q 4653 3413 5013 3413 
Q 5584 3413 5867 3089 
Q 6150 2766 6150 2113 
L 6150 378 
L 6625 378 
L 6625 0 
L 4647 0 
L 4647 378 
L 5044 378 
L 5044 1947 
Q 5044 2569 4948 2731 
Q 4853 2894 4594 2894 
Q 4300 2894 4137 2667 
Q 3975 2441 3975 2022 
L 3975 378 
L 4372 378 
L 4372 0 
L 2472 0 
L 2472 378 
L 2869 378 
L 2869 1947 
Q 2869 2569 2772 2731 
Q 2675 2894 2419 2894 
Q 2122 2894 1959 2667 
Q 1797 2441 1797 2022 
L 1797 378 
L 2194 378 
L 2194 0 
L 219 0 
L 219 378 
L 691 378 
L 691 2944 
L 219 2944 
L 219 3322 
L 1797 3322 
L 1797 2853 
Q 1991 3144 2241 3278 
Q 2491 3413 2834 3413 
Q 3241 3413 3494 3258 
Q 3747 3103 3884 2778 
z
" id="DejaVuSerif-Bold-6d" transform="scale(0.015625)"/>
      <path d="M 1728 1825 
L 1728 1497 
Q 1728 916 1876 656 
Q 2025 397 2356 397 
Q 2697 397 2836 672 
Q 2975 947 2975 1663 
Q 2975 2378 2836 2651 
Q 2697 2925 2356 2925 
Q 2025 2925 1876 2665 
Q 1728 2406 1728 1825 
z
M 622 2944 
L 147 2944 
L 147 3322 
L 1728 3322 
L 1728 2900 
Q 1869 3159 2106 3286 
Q 2344 3413 2694 3413 
Q 3403 3413 3811 2945 
Q 4219 2478 4219 1663 
Q 4219 847 3811 378 
Q 3403 -91 2694 -91 
Q 2344 -91 2106 36 
Q 1869 163 1728 422 
L 1728 -953 
L 2241 -953 
L 2241 -1331 
L 147 -1331 
L 147 -953 
L 622 -953 
L 622 2944 
z
" id="DejaVuSerif-Bold-70" transform="scale(0.015625)"/>
      <path d="M 300 97 
L 300 1025 
L 653 1025 
Q 697 653 931 458 
Q 1166 263 1569 263 
Q 1906 263 2086 380 
Q 2266 497 2266 716 
Q 2266 916 2152 1025 
Q 2038 1134 1709 1216 
L 1253 1331 
Q 738 1459 506 1698 
Q 275 1938 275 2344 
Q 275 2884 650 3148 
Q 1025 3413 1806 3413 
Q 2100 3413 2433 3364 
Q 2766 3316 3169 3213 
L 3169 2375 
L 2816 2375 
Q 2788 2716 2573 2887 
Q 2359 3059 1959 3059 
Q 1622 3059 1448 2951 
Q 1275 2844 1275 2638 
Q 1275 2469 1375 2372 
Q 1475 2275 1734 2209 
L 2188 2094 
Q 2841 1928 3091 1684 
Q 3341 1441 3341 1006 
Q 3341 444 2939 176 
Q 2538 -91 1691 -91 
Q 1381 -91 1034 -44 
Q 688 3 300 97 
z
" id="DejaVuSerif-Bold-73" transform="scale(0.015625)"/>
     </defs>
     <use xlink:href="#DejaVuSerif-Bold-52"/>
     <use x="83.105469" xlink:href="#DejaVuSerif-Bold-6f"/>
     <use x="149.804688" xlink:href="#DejaVuSerif-Bold-74"/>
     <use x="195.996094" xlink:href="#DejaVuSerif-Bold-61"/>
     <use x="260.791016" xlink:href="#DejaVuSerif-Bold-74"/>
     <use x="306.982422" xlink:href="#DejaVuSerif-Bold-69"/>
     <use x="344.970703" xlink:href="#DejaVuSerif-Bold-6f"/>
     <use x="411.669922" xlink:href="#DejaVuSerif-Bold-6e"/>
     <use x="484.375" xlink:href="#DejaVuSerif-Bold-20"/>
     <use x="519.189453" xlink:href="#DejaVuSerif-Bold-50"/>
     <use x="591.759766" xlink:href="#DejaVuSerif-Bold-65"/>
     <use x="655.382812" xlink:href="#DejaVuSerif-Bold-72"/>
     <use x="708.068359" xlink:href="#DejaVuSerif-Bold-69"/>
     <use x="746.056641" xlink:href="#DejaVuSerif-Bold-6f"/>
     <use x="812.755859" xlink:href="#DejaVuSerif-Bold-64"/>
     <use x="882.677734" xlink:href="#DejaVuSerif-Bold-20"/>
     <use x="917.492188" xlink:href="#DejaVuSerif-Bold-43"/>
     <use x="997.082031" xlink:href="#DejaVuSerif-Bold-6f"/>
     <use x="1063.78125" xlink:href="#DejaVuSerif-Bold-6d"/>
     <use x="1169.591797" xlink:href="#DejaVuSerif-Bold-70"/>
     <use x="1239.513672" xlink:href="#DejaVuSerif-Bold-61"/>
     <use x="1304.308594" xlink:href="#DejaVuSerif-Bold-72"/>
     <use x="1356.994141" xlink:href="#DejaVuSerif-Bold-69"/>
     <use x="1394.982422" xlink:href="#DejaVuSerif-Bold-73"/>
     <use x="1451.28125" xlink:href="#DejaVuSerif-Bold-6f"/>
     <use x="1517.980469" xlink:href="#DejaVuSerif-Bold-6e"/>
    </g>
   </g>
  </g>
  <g id="axes_2">
   <g id="patch_7">
    <path d="M 36 240.3 
L 324 240.3 
L 324 151.831915 
L 36 151.831915 
z
" style="fill:#ffffff;"/>
   </g>
   <g id="matplotlib.axis_2">
    <g id="ytick_15">
     <g id="line2d_46">
      <path clip-path="url(#p39786af0d7)" d="M 36 240.3 
L 324 240.3 
" style="fill:none;stroke:#808080;stroke-linecap:square;stroke-width:0.4;"/>
     </g>
     <g id="line2d_47">
      <g>
       <use style="stroke:#000000;stroke-width:0.8;" x="36" xlink:href="#md2c0ff7b5b" y="240.3"/>
      </g>
     </g>
     <g id="line2d_48">
      <g>
       <use style="stroke:#000000;stroke-width:0.8;" x="324" xlink:href="#mf6bedcaf13" y="240.3"/>
      </g>
     </g>
     <g id="text_13">
      <!-- 0 -->
      <g transform="translate(28.04625 242.959453)scale(0.07 -0.07)">
       <use xlink:href="#DejaVuSerif-30"/>
      </g>
     </g>
    </g>
    <g id="ytick_16">
     <g id="line2d_49">
      <path clip-path="url(#p39786af0d7)" d="M 36 220.374756 
L 324 220.374756 
" style="fill:none;stroke:#808080;stroke-linecap:square;stroke-width:0.4;"/>
     </g>
     <g id="line2d_50">
      <g>
       <use style="stroke:#000000;stroke-width:0.8;" x="36" xlink:href="#md2c0ff7b5b" y="220.374756"/>
      </g>
     </g>
     <g id="line2d_51">
      <g>
       <use style="stroke:#000000;stroke-width:0.8;" x="324" xlink:href="#mf6bedcaf13" y="220.374756"/>
      </g>
     </g>
     <g id="text_14">
      <!-- 1 -->
      <g transform="translate(28.04625 223.034209)scale(0.07 -0.07)">
       <use xlink:href="#DejaVuSerif-31"/>
      </g>
     </g>
    </g>
    <g id="ytick_17">
     <g id="line2d_52">
      <path clip-path="url(#p39786af0d7)" d="M 36 200.449511 
L 324 200.449511 
" style="fill:none;stroke:#808080;stroke-linecap:square;stroke-width:0.4;"/>
     </g>
     <g id="line2d_53">
      <g>
       <use style="stroke:#000000;stroke-width:0.8;" x="36" xlink:href="#md2c0ff7b5b" y="200.449511"/>
      </g>
     </g>
     <g id="line2d_54">
      <g>
       <use style="stroke:#000000;stroke-width:0.8;" x="324" xlink:href="#mf6bedcaf13" y="200.449511"/>
      </g>
     </g>
     <g id="text_15">
      <!-- 2 -->
      <g transform="translate(28.04625 203.108964)scale(0.07 -0.07)">
       <use xlink:href="#DejaVuSerif-32"/>
      </g>
     </g>
    </g>
    <g id="ytick_18">
     <g id="line2d_55">
      <path clip-path="url(#p39786af0d7)" d="M 36 180.524267 
L 324 180.524267 
" style="fill:none;stroke:#808080;stroke-linecap:square;stroke-width:0.4;"/>
     </g>
     <g id="line2d_56">
      <g>
       <use style="stroke:#000000;stroke-width:0.8;" x="36" xlink:href="#md2c0ff7b5b" y="180.524267"/>
      </g>
     </g>
     <g id="line2d_57">
      <g>
       <use style="stroke:#000000;stroke-width:0.8;" x="324" xlink:href="#mf6bedcaf13" y="180.524267"/>
      </g>
     </g>
     <g id="text_16">
      <!-- 3 -->
      <g transform="translate(28.04625 183.18372)scale(0.07 -0.07)">
       <use xlink:href="#DejaVuSerif-33"/>
      </g>
     </g>
    </g>
    <g id="ytick_19">
     <g id="line2d_58">
      <path clip-path="url(#p39786af0d7)" d="M 36 160.599022 
L 324 160.599022 
" style="fill:none;stroke:#808080;stroke-linecap:square;stroke-width:0.4;"/>
     </g>
     <g id="line2d_59">
      <g>
       <use style="stroke:#000000;stroke-width:0.8;" x="36" xlink:href="#md2c0ff7b5b" y="160.599022"/>
      </g>
     </g>
     <g id="line2d_60">
      <g>
       <use style="stroke:#000000;stroke-width:0.8;" x="324" xlink:href="#mf6bedcaf13" y="160.599022"/>
      </g>
     </g>
     <g id="text_17">
      <!-- 4 -->
      <g transform="translate(28.04625 163.258476)scale(0.07 -0.07)">
       <use xlink:href="#DejaVuSerif-34"/>
      </g>
     </g>
    </g>
    <g id="ytick_20">
     <g id="line2d_61">
      <path clip-path="url(#p39786af0d7)" d="M 36 236.314951 
L 324 236.314951 
" style="fill:none;stroke:#808080;stroke-dasharray:0.74,0.32;stroke-dashoffset:0;stroke-width:0.2;"/>
     </g>
     <g id="line2d_62">
      <g>
       <use style="stroke:#000000;stroke-width:0.6;" x="36" xlink:href="#maf84346c00" y="236.314951"/>
      </g>
     </g>
     <g id="line2d_63">
      <g>
       <use style="stroke:#000000;stroke-width:0.6;" x="324" xlink:href="#m6ab2dfc7f0" y="236.314951"/>
      </g>
     </g>
    </g>
    <g id="ytick_21">
     <g id="line2d_64">
      <path clip-path="url(#p39786af0d7)" d="M 36 232.329902 
L 324 232.329902 
" style="fill:none;stroke:#808080;stroke-dasharray:0.74,0.32;stroke-dashoffset:0;stroke-width:0.2;"/>
     </g>
     <g id="line2d_65">
      <g>
       <use style="stroke:#000000;stroke-width:0.6;" x="36" xlink:href="#maf84346c00" y="232.329902"/>
      </g>
     </g>
     <g id="line2d_66">
      <g>
       <use style="stroke:#000000;stroke-width:0.6;" x="324" xlink:href="#m6ab2dfc7f0" y="232.329902"/>
      </g>
     </g>
    </g>
    <g id="ytick_22">
     <g id="line2d_67">
      <path clip-path="url(#p39786af0d7)" d="M 36 228.344853 
L 324 228.344853 
" style="fill:none;stroke:#808080;stroke-dasharray:0.74,0.32;stroke-dashoffset:0;stroke-width:0.2;"/>
     </g>
     <g id="line2d_68">
      <g>
       <use style="stroke:#000000;stroke-width:0.6;" x="36" xlink:href="#maf84346c00" y="228.344853"/>
      </g>
     </g>
     <g id="line2d_69">
      <g>
       <use style="stroke:#000000;stroke-width:0.6;" x="324" xlink:href="#m6ab2dfc7f0" y="228.344853"/>
      </g>
     </g>
    </g>
    <g id="ytick_23">
     <g id="line2d_70">
      <path clip-path="url(#p39786af0d7)" d="M 36 224.359804 
L 324 224.359804 
" style="fill:none;stroke:#808080;stroke-dasharray:0.74,0.32;stroke-dashoffset:0;stroke-width:0.2;"/>
     </g>
     <g id="line2d_71">
      <g>
       <use style="stroke:#000000;stroke-width:0.6;" x="36" xlink:href="#maf84346c00" y="224.359804"/>
      </g>
     </g>
     <g id="line2d_72">
      <g>
       <use style="stroke:#000000;stroke-width:0.6;" x="324" xlink:href="#m6ab2dfc7f0" y="224.359804"/>
      </g>
     </g>
    </g>
    <g id="ytick_24">
     <g id="line2d_73">
      <path clip-path="url(#p39786af0d7)" d="M 36 216.389707 
L 324 216.389707 
" style="fill:none;stroke:#808080;stroke-dasharray:0.74,0.32;stroke-dashoffset:0;stroke-width:0.2;"/>
     </g>
     <g id="line2d_74">
      <g>
       <use style="stroke:#000000;stroke-width:0.6;" x="36" xlink:href="#maf84346c00" y="216.389707"/>
      </g>
     </g>
     <g id="line2d_75">
      <g>
       <use style="stroke:#000000;stroke-width:0.6;" x="324" xlink:href="#m6ab2dfc7f0" y="216.389707"/>
      </g>
     </g>
    </g>
    <g id="ytick_25">
     <g id="line2d_76">
      <path clip-path="url(#p39786af0d7)" d="M 36 212.404658 
L 324 212.404658 
" style="fill:none;stroke:#808080;stroke-dasharray:0.74,0.32;stroke-dashoffset:0;stroke-width:0.2;"/>
     </g>
     <g id="line2d_77">
      <g>
       <use style="stroke:#000000;stroke-width:0.6;" x="36" xlink:href="#maf84346c00" y="212.404658"/>
      </g>
     </g>
     <g id="line2d_78">
      <g>
       <use style="stroke:#000000;stroke-width:0.6;" x="324" xlink:href="#m6ab2dfc7f0" y="212.404658"/>
      </g>
     </g>
    </g>
    <g id="ytick_26">
     <g id="line2d_79">
      <path clip-path="url(#p39786af0d7)" d="M 36 208.419609 
L 324 208.419609 
" style="fill:none;stroke:#808080;stroke-dasharray:0.74,0.32;stroke-dashoffset:0;stroke-width:0.2;"/>
     </g>
     <g id="line2d_80">
      <g>
       <use style="stroke:#000000;stroke-width:0.6;" x="36" xlink:href="#maf84346c00" y="208.419609"/>
      </g>
     </g>
     <g id="line2d_81">
      <g>
       <use style="stroke:#000000;stroke-width:0.6;" x="324" xlink:href="#m6ab2dfc7f0" y="208.419609"/>
      </g>
     </g>
    </g>
    <g id="ytick_27">
     <g id="line2d_82">
      <path clip-path="url(#p39786af0d7)" d="M 36 204.43456 
L 324 204.43456 
" style="fill:none;stroke:#808080;stroke-dasharray:0.74,0.32;stroke-dashoffset:0;stroke-width:0.2;"/>
     </g>
     <g id="line2d_83">
      <g>
       <use style="stroke:#000000;stroke-width:0.6;" x="36" xlink:href="#maf84346c00" y="204.43456"/>
      </g>
     </g>
     <g id="line2d_84">
      <g>
       <use style="stroke:#000000;stroke-width:0.6;" x="324" xlink:href="#m6ab2dfc7f0" y="204.43456"/>
      </g>
     </g>
    </g>
    <g id="ytick_28">
     <g id="line2d_85">
      <path clip-path="url(#p39786af0d7)" d="M 36 196.464462 
L 324 196.464462 
" style="fill:none;stroke:#808080;stroke-dasharray:0.74,0.32;stroke-dashoffset:0;stroke-width:0.2;"/>
     </g>
     <g id="line2d_86">
      <g>
       <use style="stroke:#000000;stroke-width:0.6;" x="36" xlink:href="#maf84346c00" y="196.464462"/>
      </g>
     </g>
     <g id="line2d_87">
      <g>
       <use style="stroke:#000000;stroke-width:0.6;" x="324" xlink:href="#m6ab2dfc7f0" y="196.464462"/>
      </g>
     </g>
    </g>
    <g id="ytick_29">
     <g id="line2d_88">
      <path clip-path="url(#p39786af0d7)" d="M 36 192.479413 
L 324 192.479413 
" style="fill:none;stroke:#808080;stroke-dasharray:0.74,0.32;stroke-dashoffset:0;stroke-width:0.2;"/>
     </g>
     <g id="line2d_89">
      <g>
       <use style="stroke:#000000;stroke-width:0.6;" x="36" xlink:href="#maf84346c00" y="192.479413"/>
      </g>
     </g>
     <g id="line2d_90">
      <g>
       <use style="stroke:#000000;stroke-width:0.6;" x="324" xlink:href="#m6ab2dfc7f0" y="192.479413"/>
      </g>
     </g>
    </g>
    <g id="ytick_30">
     <g id="line2d_91">
      <path clip-path="url(#p39786af0d7)" d="M 36 188.494365 
L 324 188.494365 
" style="fill:none;stroke:#808080;stroke-dasharray:0.74,0.32;stroke-dashoffset:0;stroke-width:0.2;"/>
     </g>
     <g id="line2d_92">
      <g>
       <use style="stroke:#000000;stroke-width:0.6;" x="36" xlink:href="#maf84346c00" y="188.494365"/>
      </g>
     </g>
     <g id="line2d_93">
      <g>
       <use style="stroke:#000000;stroke-width:0.6;" x="324" xlink:href="#m6ab2dfc7f0" y="188.494365"/>
      </g>
     </g>
    </g>
    <g id="ytick_31">
     <g id="line2d_94">
      <path clip-path="url(#p39786af0d7)" d="M 36 184.509316 
L 324 184.509316 
" style="fill:none;stroke:#808080;stroke-dasharray:0.74,0.32;stroke-dashoffset:0;stroke-width:0.2;"/>
     </g>
     <g id="line2d_95">
      <g>
       <use style="stroke:#000000;stroke-width:0.6;" x="36" xlink:href="#maf84346c00" y="184.509316"/>
      </g>
     </g>
     <g id="line2d_96">
      <g>
       <use style="stroke:#000000;stroke-width:0.6;" x="324" xlink:href="#m6ab2dfc7f0" y="184.509316"/>
      </g>
     </g>
    </g>
    <g id="ytick_32">
     <g id="line2d_97">
      <path clip-path="url(#p39786af0d7)" d="M 36 176.539218 
L 324 176.539218 
" style="fill:none;stroke:#808080;stroke-dasharray:0.74,0.32;stroke-dashoffset:0;stroke-width:0.2;"/>
     </g>
     <g id="line2d_98">
      <g>
       <use style="stroke:#000000;stroke-width:0.6;" x="36" xlink:href="#maf84346c00" y="176.539218"/>
      </g>
     </g>
     <g id="line2d_99">
      <g>
       <use style="stroke:#000000;stroke-width:0.6;" x="324" xlink:href="#m6ab2dfc7f0" y="176.539218"/>
      </g>
     </g>
    </g>
    <g id="ytick_33">
     <g id="line2d_100">
      <path clip-path="url(#p39786af0d7)" d="M 36 172.554169 
L 324 172.554169 
" style="fill:none;stroke:#808080;stroke-dasharray:0.74,0.32;stroke-dashoffset:0;stroke-width:0.2;"/>
     </g>
     <g id="line2d_101">
      <g>
       <use style="stroke:#000000;stroke-width:0.6;" x="36" xlink:href="#maf84346c00" y="172.554169"/>
      </g>
     </g>
     <g id="line2d_102">
      <g>
       <use style="stroke:#000000;stroke-width:0.6;" x="324" xlink:href="#m6ab2dfc7f0" y="172.554169"/>
      </g>
     </g>
    </g>
    <g id="ytick_34">
     <g id="line2d_103">
      <path clip-path="url(#p39786af0d7)" d="M 36 168.56912 
L 324 168.56912 
" style="fill:none;stroke:#808080;stroke-dasharray:0.74,0.32;stroke-dashoffset:0;stroke-width:0.2;"/>
     </g>
     <g id="line2d_104">
      <g>
       <use style="stroke:#000000;stroke-width:0.6;" x="36" xlink:href="#maf84346c00" y="168.56912"/>
      </g>
     </g>
     <g id="line2d_105">
      <g>
       <use style="stroke:#000000;stroke-width:0.6;" x="324" xlink:href="#m6ab2dfc7f0" y="168.56912"/>
      </g>
     </g>
    </g>
    <g id="ytick_35">
     <g id="line2d_106">
      <path clip-path="url(#p39786af0d7)" d="M 36 164.584071 
L 324 164.584071 
" style="fill:none;stroke:#808080;stroke-dasharray:0.74,0.32;stroke-dashoffset:0;stroke-width:0.2;"/>
     </g>
     <g id="line2d_107">
      <g>
       <use style="stroke:#000000;stroke-width:0.6;" x="36" xlink:href="#maf84346c00" y="164.584071"/>
      </g>
     </g>
     <g id="line2d_108">
      <g>
       <use style="stroke:#000000;stroke-width:0.6;" x="324" xlink:href="#m6ab2dfc7f0" y="164.584071"/>
      </g>
     </g>
    </g>
    <g id="ytick_36">
     <g id="line2d_109">
      <path clip-path="url(#p39786af0d7)" d="M 36 156.613974 
L 324 156.613974 
" style="fill:none;stroke:#808080;stroke-dasharray:0.74,0.32;stroke-dashoffset:0;stroke-width:0.2;"/>
     </g>
     <g id="line2d_110">
      <g>
       <use style="stroke:#000000;stroke-width:0.6;" x="36" xlink:href="#maf84346c00" y="156.613974"/>
      </g>
     </g>
     <g id="line2d_111">
      <g>
       <use style="stroke:#000000;stroke-width:0.6;" x="324" xlink:href="#m6ab2dfc7f0" y="156.613974"/>
      </g>
     </g>
    </g>
    <g id="ytick_37">
     <g id="line2d_112">
      <path clip-path="url(#p39786af0d7)" d="M 36 152.628925 
L 324 152.628925 
" style="fill:none;stroke:#808080;stroke-dasharray:0.74,0.32;stroke-dashoffset:0;stroke-width:0.2;"/>
     </g>
     <g id="line2d_113">
      <g>
       <use style="stroke:#000000;stroke-width:0.6;" x="36" xlink:href="#maf84346c00" y="152.628925"/>
      </g>
     </g>
     <g id="line2d_114">
      <g>
       <use style="stroke:#000000;stroke-width:0.6;" x="324" xlink:href="#m6ab2dfc7f0" y="152.628925"/>
      </g>
     </g>
    </g>
    <g id="text_18">
     <!-- Period [years] -->
     <g transform="translate(22.26875 224.474082)rotate(-90)scale(0.08 -0.08)">
      <defs>
       <path d="M 1381 -609 
L 1600 -56 
L 359 2988 
L -19 2988 
L -19 3322 
L 1509 3322 
L 1509 2988 
L 978 2988 
L 1913 703 
L 2847 2988 
L 2350 2988 
L 2350 3322 
L 3597 3322 
L 3597 2988 
L 3225 2988 
L 1703 -750 
Q 1547 -1138 1356 -1280 
Q 1166 -1422 819 -1422 
Q 672 -1422 517 -1397 
Q 363 -1372 206 -1325 
L 206 -691 
L 500 -691 
Q 519 -903 608 -995 
Q 697 -1088 884 -1088 
Q 1056 -1088 1161 -992 
Q 1266 -897 1381 -609 
z
" id="DejaVuSerif-79" transform="scale(0.015625)"/>
      </defs>
      <use xlink:href="#DejaVuSerif-50"/>
      <use x="62.785156" xlink:href="#DejaVuSerif-65"/>
      <use x="121.964844" xlink:href="#DejaVuSerif-72"/>
      <use x="169.767578" xlink:href="#DejaVuSerif-69"/>
      <use x="201.75" xlink:href="#DejaVuSerif-6f"/>
      <use x="261.955078" xlink:href="#DejaVuSerif-64"/>
      <use x="325.96875" xlink:href="#DejaVuSerif-20"/>
      <use x="357.755859" xlink:href="#DejaVuSerif-5b"/>
      <use x="396.769531" xlink:href="#DejaVuSerif-79"/>
      <use x="453.263672" xlink:href="#DejaVuSerif-65"/>
      <use x="512.443359" xlink:href="#DejaVuSerif-61"/>
      <use x="572.0625" xlink:href="#DejaVuSerif-72"/>
      <use x="619.865234" xlink:href="#DejaVuSerif-73"/>
      <use x="671.183594" xlink:href="#DejaVuSerif-5d"/>
     </g>
    </g>
   </g>
   <g id="LineCollection_2">
    <path clip-path="url(#p39786af0d7)" d="M 60 191.441975 
L 60 188.426749 
" style="fill:none;stroke:#808080;"/>
    <path clip-path="url(#p39786af0d7)" d="M 108 168.184756 
L 108 163.923954 
" style="fill:none;stroke:#808080;"/>
    <path clip-path="url(#p39786af0d7)" d="M 156 228.058061 
L 156 224.764076 
" style="fill:none;stroke:#808080;"/>
    <path clip-path="url(#p39786af0d7)" d="M 204 208.659744 
L 204 204.044189 
" style="fill:none;stroke:#808080;"/>
    <path clip-path="url(#p39786af0d7)" d="M 252 208.078718 
L 252 202.823574 
" style="fill:none;stroke:#808080;"/>
    <path clip-path="url(#p39786af0d7)" d="M 300 197.287259 
L 300 191.886554 
" style="fill:none;stroke:#808080;"/>
   </g>
   <g id="line2d_115">
    <g clip-path="url(#p39786af0d7)">
     <use style="fill:#808080;stroke:#808080;" x="60" xlink:href="#mc30615b6bb" y="191.441975"/>
     <use style="fill:#808080;stroke:#808080;" x="108" xlink:href="#mc30615b6bb" y="168.184756"/>
     <use style="fill:#808080;stroke:#808080;" x="156" xlink:href="#mc30615b6bb" y="228.058061"/>
     <use style="fill:#808080;stroke:#808080;" x="204" xlink:href="#mc30615b6bb" y="208.659744"/>
     <use style="fill:#808080;stroke:#808080;" x="252" xlink:href="#mc30615b6bb" y="208.078718"/>
     <use style="fill:#808080;stroke:#808080;" x="300" xlink:href="#mc30615b6bb" y="197.287259"/>
    </g>
   </g>
   <g id="line2d_116">
    <g clip-path="url(#p39786af0d7)">
     <use style="fill:#808080;stroke:#808080;" x="60" xlink:href="#mc30615b6bb" y="188.426749"/>
     <use style="fill:#808080;stroke:#808080;" x="108" xlink:href="#mc30615b6bb" y="163.923954"/>
     <use style="fill:#808080;stroke:#808080;" x="156" xlink:href="#mc30615b6bb" y="224.764076"/>
     <use style="fill:#808080;stroke:#808080;" x="204" xlink:href="#mc30615b6bb" y="204.044189"/>
     <use style="fill:#808080;stroke:#808080;" x="252" xlink:href="#mc30615b6bb" y="202.823574"/>
     <use style="fill:#808080;stroke:#808080;" x="300" xlink:href="#mc30615b6bb" y="191.886554"/>
    </g>
   </g>
   <g id="line2d_117">
    <g clip-path="url(#p39786af0d7)">
     <use style="stroke:#000000;" x="60" xlink:href="#md9e20211d1" y="189.934362"/>
     <use style="stroke:#000000;" x="108" xlink:href="#md9e20211d1" y="166.054355"/>
     <use style="stroke:#000000;" x="156" xlink:href="#md9e20211d1" y="226.411069"/>
     <use style="stroke:#000000;" x="204" xlink:href="#md9e20211d1" y="206.351966"/>
     <use style="stroke:#000000;" x="252" xlink:href="#md9e20211d1" y="205.451146"/>
     <use style="stroke:#000000;" x="300" xlink:href="#md9e20211d1" y="194.586907"/>
    </g>
   </g>
   <g id="patch_8">
    <path d="M 36 240.3 
L 36 151.831915 
" style="fill:none;stroke:#000000;stroke-linecap:square;stroke-linejoin:miter;stroke-width:0.8;"/>
   </g>
   <g id="patch_9">
    <path d="M 324 240.3 
L 324 151.831915 
" style="fill:none;stroke:#000000;stroke-linecap:square;stroke-linejoin:miter;stroke-width:0.8;"/>
   </g>
   <g id="patch_10">
    <path d="M 36 240.3 
L 324 240.3 
" style="fill:none;stroke:#000000;stroke-linecap:square;stroke-linejoin:miter;stroke-width:0.8;"/>
   </g>
   <g id="patch_11">
    <path d="M 36 151.831915 
L 324 151.831915 
" style="fill:none;stroke:#000000;stroke-linecap:square;stroke-linejoin:miter;stroke-width:0.8;"/>
   </g>
   <g id="text_19">
    <!-- Ivar -->
    <g transform="translate(52.880234 183.956789)scale(0.07 -0.07)">
     <use xlink:href="#DejaVuSerif-49"/>
     <use x="39.501953" xlink:href="#DejaVuSerif-76"/>
     <use x="95.996094" xlink:href="#DejaVuSerif-61"/>
     <use x="155.615234" xlink:href="#DejaVuSerif-72"/>
    </g>
   </g>
   <g id="text_20">
    <!-- 2000QL7 -->
    <g transform="translate(91.671953 160.076782)scale(0.07 -0.07)">
     <use xlink:href="#DejaVuSerif-32"/>
     <use x="63.623047" xlink:href="#DejaVuSerif-30"/>
     <use x="127.246094" xlink:href="#DejaVuSerif-30"/>
     <use x="190.869141" xlink:href="#DejaVuSerif-30"/>
     <use x="254.492188" xlink:href="#DejaVuSerif-51"/>
     <use x="336.474609" xlink:href="#DejaVuSerif-4c"/>
     <use x="402.880859" xlink:href="#DejaVuSerif-37"/>
    </g>
   </g>
   <g id="text_21">
    <!-- 1998TU3 -->
    <g transform="translate(139.581172 220.433495)scale(0.07 -0.07)">
     <use xlink:href="#DejaVuSerif-31"/>
     <use x="63.623047" xlink:href="#DejaVuSerif-39"/>
     <use x="127.246094" xlink:href="#DejaVuSerif-39"/>
     <use x="190.869141" xlink:href="#DejaVuSerif-38"/>
     <use x="254.492188" xlink:href="#DejaVuSerif-54"/>
     <use x="321.191406" xlink:href="#DejaVuSerif-55"/>
     <use x="405.46875" xlink:href="#DejaVuSerif-33"/>
    </g>
   </g>
   <g id="text_22">
    <!-- 2001SG276 -->
    <g transform="translate(183.218203 200.374393)scale(0.07 -0.07)">
     <use xlink:href="#DejaVuSerif-32"/>
     <use x="63.623047" xlink:href="#DejaVuSerif-30"/>
     <use x="127.246094" xlink:href="#DejaVuSerif-30"/>
     <use x="190.869141" xlink:href="#DejaVuSerif-31"/>
     <use x="254.492188" xlink:href="#DejaVuSerif-53"/>
     <use x="322.998047" xlink:href="#DejaVuSerif-47"/>
     <use x="402.880859" xlink:href="#DejaVuSerif-32"/>
     <use x="466.503906" xlink:href="#DejaVuSerif-37"/>
     <use x="530.126953" xlink:href="#DejaVuSerif-36"/>
    </g>
   </g>
   <g id="text_23">
    <!-- 2001UY4 -->
    <g transform="translate(235.605234 199.473573)scale(0.07 -0.07)">
     <use xlink:href="#DejaVuSerif-32"/>
     <use x="63.623047" xlink:href="#DejaVuSerif-30"/>
     <use x="127.246094" xlink:href="#DejaVuSerif-30"/>
     <use x="190.869141" xlink:href="#DejaVuSerif-31"/>
     <use x="254.492188" xlink:href="#DejaVuSerif-55"/>
     <use x="338.769531" xlink:href="#DejaVuSerif-59"/>
     <use x="404.785156" xlink:href="#DejaVuSerif-34"/>
    </g>
   </g>
   <g id="text_24">
    <!-- 2003RP8 -->
    <g transform="translate(283.875391 188.609333)scale(0.07 -0.07)">
     <use xlink:href="#DejaVuSerif-32"/>
     <use x="63.623047" xlink:href="#DejaVuSerif-30"/>
     <use x="127.246094" xlink:href="#DejaVuSerif-30"/>
     <use x="190.869141" xlink:href="#DejaVuSerif-33"/>
     <use x="254.492188" xlink:href="#DejaVuSerif-52"/>
     <use x="329.785156" xlink:href="#DejaVuSerif-50"/>
     <use x="397.070312" xlink:href="#DejaVuSerif-38"/>
    </g>
   </g>
   <g id="text_25">
    <!-- Orbit Period Comparison -->
    <g transform="translate(116.990156 145.831915)scale(0.09 -0.09)">
     <defs>
      <path d="M 2784 288 
Q 3381 288 3672 791 
Q 3963 1294 3963 2328 
Q 3963 3366 3672 3869 
Q 3381 4372 2784 4372 
Q 2191 4372 1898 3864 
Q 1606 3356 1606 2328 
Q 1606 1303 1898 795 
Q 2191 288 2784 288 
z
M 2784 -91 
Q 1606 -91 937 553 
Q 269 1197 269 2328 
Q 269 3459 939 4104 
Q 1609 4750 2784 4750 
Q 3963 4750 4631 4106 
Q 5300 3463 5300 2328 
Q 5300 1197 4629 553 
Q 3959 -91 2784 -91 
z
" id="DejaVuSerif-Bold-4f" transform="scale(0.015625)"/>
      <path d="M 622 378 
L 622 4488 
L 147 4488 
L 147 4863 
L 1728 4863 
L 1728 2900 
Q 1869 3159 2106 3286 
Q 2344 3413 2694 3413 
Q 3403 3413 3811 2945 
Q 4219 2478 4219 1663 
Q 4219 847 3811 378 
Q 3403 -91 2694 -91 
Q 2344 -91 2106 36 
Q 1869 163 1728 422 
L 1728 0 
L 147 0 
L 147 378 
L 622 378 
z
M 1728 1497 
Q 1728 916 1876 656 
Q 2025 397 2356 397 
Q 2697 397 2836 672 
Q 2975 947 2975 1663 
Q 2975 2378 2836 2651 
Q 2697 2925 2356 2925 
Q 2025 2925 1876 2665 
Q 1728 2406 1728 1825 
L 1728 1497 
z
" id="DejaVuSerif-Bold-62" transform="scale(0.015625)"/>
     </defs>
     <use xlink:href="#DejaVuSerif-Bold-4f"/>
     <use x="87.109375" xlink:href="#DejaVuSerif-Bold-72"/>
     <use x="139.794922" xlink:href="#DejaVuSerif-Bold-62"/>
     <use x="209.716797" xlink:href="#DejaVuSerif-Bold-69"/>
     <use x="247.705078" xlink:href="#DejaVuSerif-Bold-74"/>
     <use x="293.896484" xlink:href="#DejaVuSerif-Bold-20"/>
     <use x="328.710938" xlink:href="#DejaVuSerif-Bold-50"/>
     <use x="401.28125" xlink:href="#DejaVuSerif-Bold-65"/>
     <use x="464.904297" xlink:href="#DejaVuSerif-Bold-72"/>
     <use x="517.589844" xlink:href="#DejaVuSerif-Bold-69"/>
     <use x="555.578125" xlink:href="#DejaVuSerif-Bold-6f"/>
     <use x="622.277344" xlink:href="#DejaVuSerif-Bold-64"/>
     <use x="692.199219" xlink:href="#DejaVuSerif-Bold-20"/>
     <use x="727.013672" xlink:href="#DejaVuSerif-Bold-43"/>
     <use x="806.603516" xlink:href="#DejaVuSerif-Bold-6f"/>
     <use x="873.302734" xlink:href="#DejaVuSerif-Bold-6d"/>
     <use x="979.113281" xlink:href="#DejaVuSerif-Bold-70"/>
     <use x="1049.035156" xlink:href="#DejaVuSerif-Bold-61"/>
     <use x="1113.830078" xlink:href="#DejaVuSerif-Bold-72"/>
     <use x="1166.515625" xlink:href="#DejaVuSerif-Bold-69"/>
     <use x="1204.503906" xlink:href="#DejaVuSerif-Bold-73"/>
     <use x="1260.802734" xlink:href="#DejaVuSerif-Bold-6f"/>
     <use x="1327.501953" xlink:href="#DejaVuSerif-Bold-6e"/>
    </g>
   </g>
  </g>
 </g>
 <defs>
  <clipPath id="pe9268729e9">
   <rect height="88.468085" width="288" x="36" y="32.4"/>
  </clipPath>
  <clipPath id="p39786af0d7">
   <rect height="88.468085" width="288" x="36" y="151.831915"/>
  </clipPath>
 </defs>
</svg>
