<?xml version="1.0" encoding="utf-8" standalone="no"?>
<!DOCTYPE svg PUBLIC "-//W3C//DTD SVG 1.1//EN"
  "http://www.w3.org/Graphics/SVG/1.1/DTD/svg11.dtd">
<svg height="432pt" version="1.1" viewBox="0 0 1008 432" width="1008pt" xmlns="http://www.w3.org/2000/svg" xmlns:xlink="http://www.w3.org/1999/xlink">
 <metadata>
  <rdf:RDF xmlns:cc="http://creativecommons.org/ns#" xmlns:dc="http://purl.org/dc/elements/1.1/" xmlns:rdf="http://www.w3.org/1999/02/22-rdf-syntax-ns#">
   <cc:Work>
    <dc:type rdf:resource="http://purl.org/dc/dcmitype/StillImage"/>
    <dc:date>2021-08-02T19:32:00.279188</dc:date>
    <dc:format>image/svg+xml</dc:format>
    <dc:creator>
     <cc:Agent>
      <dc:title>Matplotlib v3.4.2, https://matplotlib.org/</dc:title>
     </cc:Agent>
    </dc:creator>
   </cc:Work>
  </rdf:RDF>
 </metadata>
 <defs>
  <style type="text/css">*{stroke-linecap:butt;stroke-linejoin:round;}</style>
 </defs>
 <g id="figure_1">
  <g id="patch_1">
   <path d="M 0 432 
L 1008 432 
L 1008 0 
L 0 0 
z
" style="fill:#ffffff;"/>
  </g>
  <g id="axes_1">
   <g id="patch_2">
    <path d="M 322.751356 384.48 
L 710.448644 384.48 
L 710.448644 51.84 
L 322.751356 51.84 
z
" style="fill:#ffffff;"/>
   </g>
   <g id="matplotlib.axis_1">
    <g id="xtick_1">
     <g id="line2d_1">
      <path clip-path="url(#pdb208a3120)" d="M 348.734335 384.48 
L 348.734335 51.84 
" style="fill:none;stroke:#cccccc;stroke-linecap:round;stroke-width:0.8;"/>
     </g>
     <g id="line2d_2"/>
     <g id="text_1">
      <!-- −2 -->
      <g style="fill:#262626;" transform="translate(343.033554 395.226875)scale(0.1 -0.1)">
       <defs>
        <path d="M 316 1900 
L 316 2356 
L 3425 2356 
L 3425 1900 
L 316 1900 
z
" id="LiberationSans-2212" transform="scale(0.015625)"/>
        <path d="M 322 0 
L 322 397 
Q 481 763 711 1042 
Q 941 1322 1194 1548 
Q 1447 1775 1695 1969 
Q 1944 2163 2144 2356 
Q 2344 2550 2467 2762 
Q 2591 2975 2591 3244 
Q 2591 3431 2534 3573 
Q 2478 3716 2372 3812 
Q 2266 3909 2117 3957 
Q 1969 4006 1788 4006 
Q 1619 4006 1470 3959 
Q 1322 3913 1206 3819 
Q 1091 3725 1017 3586 
Q 944 3447 922 3263 
L 347 3316 
Q 375 3553 478 3762 
Q 581 3972 762 4130 
Q 944 4288 1198 4378 
Q 1453 4469 1788 4469 
Q 2116 4469 2372 4391 
Q 2628 4313 2804 4159 
Q 2981 4006 3075 3781 
Q 3169 3556 3169 3263 
Q 3169 3041 3089 2841 
Q 3009 2641 2876 2459 
Q 2744 2278 2569 2109 
Q 2394 1941 2203 1780 
Q 2013 1619 1819 1461 
Q 1625 1303 1454 1143 
Q 1284 984 1150 820 
Q 1016 656 941 478 
L 3238 478 
L 3238 0 
L 322 0 
z
" id="LiberationSans-32" transform="scale(0.015625)"/>
       </defs>
       <use xlink:href="#LiberationSans-2212"/>
       <use x="58.398438" xlink:href="#LiberationSans-32"/>
      </g>
     </g>
    </g>
    <g id="xtick_2">
     <g id="line2d_3">
      <path clip-path="url(#pdb208a3120)" d="M 407.861539 384.48 
L 407.861539 51.84 
" style="fill:none;stroke:#cccccc;stroke-linecap:round;stroke-width:0.8;"/>
     </g>
     <g id="line2d_4"/>
     <g id="text_2">
      <!-- −1 -->
      <g style="fill:#262626;" transform="translate(402.160758 395.226875)scale(0.1 -0.1)">
       <defs>
        <path d="M 488 0 
L 488 478 
L 1609 478 
L 1609 3866 
L 616 3156 
L 616 3688 
L 1656 4403 
L 2175 4403 
L 2175 478 
L 3247 478 
L 3247 0 
L 488 0 
z
" id="LiberationSans-31" transform="scale(0.015625)"/>
       </defs>
       <use xlink:href="#LiberationSans-2212"/>
       <use x="58.398438" xlink:href="#LiberationSans-31"/>
      </g>
     </g>
    </g>
    <g id="xtick_3">
     <g id="line2d_5">
      <path clip-path="url(#pdb208a3120)" d="M 466.988743 384.48 
L 466.988743 51.84 
" style="fill:none;stroke:#cccccc;stroke-linecap:round;stroke-width:0.8;"/>
     </g>
     <g id="line2d_6"/>
     <g id="text_3">
      <!-- 0 -->
      <g style="fill:#262626;" transform="translate(464.208274 395.226875)scale(0.1 -0.1)">
       <defs>
        <path d="M 3309 2203 
Q 3309 1569 3189 1136 
Q 3069 703 2861 436 
Q 2653 169 2372 53 
Q 2091 -63 1772 -63 
Q 1450 -63 1172 53 
Q 894 169 689 434 
Q 484 700 367 1133 
Q 250 1566 250 2203 
Q 250 2869 367 3305 
Q 484 3741 690 4000 
Q 897 4259 1178 4364 
Q 1459 4469 1791 4469 
Q 2106 4469 2382 4364 
Q 2659 4259 2865 4000 
Q 3072 3741 3190 3305 
Q 3309 2869 3309 2203 
z
M 2738 2203 
Q 2738 2728 2675 3076 
Q 2613 3425 2491 3633 
Q 2369 3841 2192 3927 
Q 2016 4013 1791 4013 
Q 1553 4013 1372 3925 
Q 1191 3838 1067 3630 
Q 944 3422 881 3073 
Q 819 2725 819 2203 
Q 819 1697 883 1350 
Q 947 1003 1070 792 
Q 1194 581 1372 489 
Q 1550 397 1778 397 
Q 2000 397 2178 489 
Q 2356 581 2479 792 
Q 2603 1003 2670 1350 
Q 2738 1697 2738 2203 
z
" id="LiberationSans-30" transform="scale(0.015625)"/>
       </defs>
       <use xlink:href="#LiberationSans-30"/>
      </g>
     </g>
    </g>
    <g id="xtick_4">
     <g id="line2d_7">
      <path clip-path="url(#pdb208a3120)" d="M 526.115947 384.48 
L 526.115947 51.84 
" style="fill:none;stroke:#cccccc;stroke-linecap:round;stroke-width:0.8;"/>
     </g>
     <g id="line2d_8"/>
     <g id="text_4">
      <!-- 1 -->
      <g style="fill:#262626;" transform="translate(523.335478 395.226875)scale(0.1 -0.1)">
       <use xlink:href="#LiberationSans-31"/>
      </g>
     </g>
    </g>
    <g id="xtick_5">
     <g id="line2d_9">
      <path clip-path="url(#pdb208a3120)" d="M 585.243151 384.48 
L 585.243151 51.84 
" style="fill:none;stroke:#cccccc;stroke-linecap:round;stroke-width:0.8;"/>
     </g>
     <g id="line2d_10"/>
     <g id="text_5">
      <!-- 2 -->
      <g style="fill:#262626;" transform="translate(582.462682 395.226875)scale(0.1 -0.1)">
       <use xlink:href="#LiberationSans-32"/>
      </g>
     </g>
    </g>
    <g id="xtick_6">
     <g id="line2d_11">
      <path clip-path="url(#pdb208a3120)" d="M 644.370355 384.48 
L 644.370355 51.84 
" style="fill:none;stroke:#cccccc;stroke-linecap:round;stroke-width:0.8;"/>
     </g>
     <g id="line2d_12"/>
     <g id="text_6">
      <!-- 3 -->
      <g style="fill:#262626;" transform="translate(641.589886 395.226875)scale(0.1 -0.1)">
       <defs>
        <path d="M 3278 1216 
Q 3278 913 3179 675 
Q 3081 438 2892 273 
Q 2703 109 2423 23 
Q 2144 -63 1784 -63 
Q 1375 -63 1095 39 
Q 816 141 634 308 
Q 453 475 362 689 
Q 272 903 244 1131 
L 825 1184 
Q 850 1009 917 865 
Q 984 722 1100 619 
Q 1216 516 1384 459 
Q 1553 403 1784 403 
Q 2209 403 2451 612 
Q 2694 822 2694 1234 
Q 2694 1478 2586 1626 
Q 2478 1775 2317 1858 
Q 2156 1941 1967 1969 
Q 1778 1997 1619 1997 
L 1300 1997 
L 1300 2484 
L 1606 2484 
Q 1766 2484 1937 2517 
Q 2109 2550 2251 2636 
Q 2394 2722 2486 2869 
Q 2578 3016 2578 3244 
Q 2578 3597 2370 3801 
Q 2163 4006 1753 4006 
Q 1381 4006 1151 3815 
Q 922 3625 884 3278 
L 319 3322 
Q 353 3613 478 3828 
Q 603 4044 795 4186 
Q 988 4328 1234 4398 
Q 1481 4469 1759 4469 
Q 2128 4469 2393 4376 
Q 2659 4284 2828 4126 
Q 2997 3969 3076 3756 
Q 3156 3544 3156 3303 
Q 3156 3109 3103 2940 
Q 3050 2772 2937 2637 
Q 2825 2503 2651 2406 
Q 2478 2309 2234 2259 
L 2234 2247 
Q 2500 2219 2697 2126 
Q 2894 2034 3022 1896 
Q 3150 1759 3214 1584 
Q 3278 1409 3278 1216 
z
" id="LiberationSans-33" transform="scale(0.015625)"/>
       </defs>
       <use xlink:href="#LiberationSans-33"/>
      </g>
     </g>
    </g>
    <g id="xtick_7">
     <g id="line2d_13">
      <path clip-path="url(#pdb208a3120)" d="M 703.497558 384.48 
L 703.497558 51.84 
" style="fill:none;stroke:#cccccc;stroke-linecap:round;stroke-width:0.8;"/>
     </g>
     <g id="line2d_14"/>
     <g id="text_7">
      <!-- 4 -->
      <g style="fill:#262626;" transform="translate(700.71709 395.226875)scale(0.1 -0.1)">
       <defs>
        <path d="M 2753 997 
L 2753 0 
L 2222 0 
L 2222 997 
L 147 997 
L 147 1434 
L 2163 4403 
L 2753 4403 
L 2753 1441 
L 3372 1441 
L 3372 997 
L 2753 997 
z
M 2222 3769 
Q 2216 3753 2191 3708 
Q 2166 3663 2134 3606 
Q 2103 3550 2070 3492 
Q 2038 3434 2013 3397 
L 884 1734 
Q 869 1709 839 1668 
Q 809 1628 778 1586 
Q 747 1544 715 1503 
Q 684 1463 666 1441 
L 2222 1441 
L 2222 3769 
z
" id="LiberationSans-34" transform="scale(0.015625)"/>
       </defs>
       <use xlink:href="#LiberationSans-34"/>
      </g>
     </g>
    </g>
    <g id="text_8">
     <!-- $x$ (km) -->
     <g style="fill:#262626;" transform="translate(502.25 408.601875)scale(0.1 -0.1)">
      <defs>
       <path d="M 3841 3500 
L 2234 1784 
L 3219 0 
L 2559 0 
L 1819 1388 
L 531 0 
L -166 0 
L 1556 1844 
L 641 3500 
L 1300 3500 
L 1972 2234 
L 3144 3500 
L 3841 3500 
z
" id="DejaVuSans-Oblique-78" transform="scale(0.015625)"/>
       <path id="LiberationSans-20" transform="scale(0.015625)"/>
       <path d="M 397 1663 
Q 397 2097 462 2494 
Q 528 2891 668 3256 
Q 809 3622 1028 3965 
Q 1247 4309 1550 4638 
L 2094 4638 
Q 1800 4309 1586 3964 
Q 1372 3619 1234 3251 
Q 1097 2884 1030 2487 
Q 963 2091 963 1656 
Q 963 1222 1030 825 
Q 1097 428 1234 59 
Q 1372 -309 1586 -653 
Q 1800 -997 2094 -1325 
L 1550 -1325 
Q 1247 -997 1028 -653 
Q 809 -309 668 56 
Q 528 422 462 817 
Q 397 1213 397 1650 
L 397 1663 
z
" id="LiberationSans-28" transform="scale(0.015625)"/>
       <path d="M 2550 0 
L 1406 1544 
L 994 1203 
L 994 0 
L 431 0 
L 431 4638 
L 994 4638 
L 994 1741 
L 2478 3381 
L 3138 3381 
L 1766 1928 
L 3209 0 
L 2550 0 
z
" id="LiberationSans-6b" transform="scale(0.015625)"/>
       <path d="M 2400 0 
L 2400 2144 
Q 2400 2391 2369 2556 
Q 2338 2722 2264 2823 
Q 2191 2925 2072 2967 
Q 1953 3009 1781 3009 
Q 1603 3009 1459 2939 
Q 1316 2869 1214 2736 
Q 1113 2603 1058 2408 
Q 1003 2213 1003 1959 
L 1003 0 
L 444 0 
L 444 2659 
Q 444 2766 442 2883 
Q 441 3000 437 3104 
Q 434 3209 431 3284 
Q 428 3359 425 3381 
L 956 3381 
Q 959 3366 962 3297 
Q 966 3228 970 3139 
Q 975 3050 978 2958 
Q 981 2866 981 2803 
L 991 2803 
Q 1066 2950 1153 3069 
Q 1241 3188 1358 3270 
Q 1475 3353 1626 3398 
Q 1778 3444 1978 3444 
Q 2363 3444 2586 3291 
Q 2809 3138 2897 2803 
L 2906 2803 
Q 2981 2950 3075 3069 
Q 3169 3188 3294 3270 
Q 3419 3353 3575 3398 
Q 3731 3444 3931 3444 
Q 4188 3444 4373 3375 
Q 4559 3306 4678 3162 
Q 4797 3019 4853 2792 
Q 4909 2566 4909 2253 
L 4909 0 
L 4353 0 
L 4353 2144 
Q 4353 2391 4322 2556 
Q 4291 2722 4217 2823 
Q 4144 2925 4025 2967 
Q 3906 3009 3734 3009 
Q 3556 3009 3412 2942 
Q 3269 2875 3167 2744 
Q 3066 2613 3011 2416 
Q 2956 2219 2956 1959 
L 2956 0 
L 2400 0 
z
" id="LiberationSans-6d" transform="scale(0.015625)"/>
       <path d="M 1734 1650 
Q 1734 1213 1668 817 
Q 1603 422 1462 56 
Q 1322 -309 1103 -653 
Q 884 -997 581 -1325 
L 38 -1325 
Q 331 -997 545 -653 
Q 759 -309 896 59 
Q 1034 428 1101 825 
Q 1169 1222 1169 1656 
Q 1169 2091 1101 2487 
Q 1034 2884 896 3251 
Q 759 3619 545 3964 
Q 331 4309 38 4638 
L 581 4638 
Q 884 4309 1103 3965 
Q 1322 3622 1462 3256 
Q 1603 2891 1668 2494 
Q 1734 2097 1734 1663 
L 1734 1650 
z
" id="LiberationSans-29" transform="scale(0.015625)"/>
      </defs>
      <use transform="translate(0 0.53125)" xlink:href="#DejaVuSans-Oblique-78"/>
      <use transform="translate(59.179688 0.53125)" xlink:href="#LiberationSans-20"/>
      <use transform="translate(86.962891 0.53125)" xlink:href="#LiberationSans-28"/>
      <use transform="translate(120.263672 0.53125)" xlink:href="#LiberationSans-6b"/>
      <use transform="translate(170.263672 0.53125)" xlink:href="#LiberationSans-6d"/>
      <use transform="translate(253.564453 0.53125)" xlink:href="#LiberationSans-29"/>
     </g>
    </g>
    <g id="text_9">
     <!-- 1e8 -->
     <g style="fill:#262626;" transform="translate(693.765831 407.54875)scale(0.1 -0.1)">
      <defs>
       <path d="M 863 1572 
Q 863 1306 917 1082 
Q 972 859 1086 698 
Q 1200 538 1378 448 
Q 1556 359 1806 359 
Q 2172 359 2392 506 
Q 2613 653 2691 878 
L 3184 738 
Q 3131 597 3036 455 
Q 2941 313 2781 198 
Q 2622 84 2383 10 
Q 2144 -63 1806 -63 
Q 1056 -63 664 384 
Q 272 831 272 1713 
Q 272 2188 390 2517 
Q 509 2847 715 3053 
Q 922 3259 1197 3351 
Q 1472 3444 1784 3444 
Q 2209 3444 2495 3306 
Q 2781 3169 2954 2926 
Q 3128 2684 3201 2356 
Q 3275 2028 3275 1647 
L 3275 1572 
L 863 1572 
z
M 2694 2003 
Q 2647 2538 2422 2783 
Q 2197 3028 1775 3028 
Q 1634 3028 1479 2983 
Q 1325 2938 1194 2822 
Q 1063 2706 972 2507 
Q 881 2309 869 2003 
L 2694 2003 
z
" id="LiberationSans-65" transform="scale(0.015625)"/>
       <path d="M 3281 1228 
Q 3281 947 3192 711 
Q 3103 475 2920 303 
Q 2738 131 2453 34 
Q 2169 -63 1781 -63 
Q 1394 -63 1111 34 
Q 828 131 642 301 
Q 456 472 367 708 
Q 278 944 278 1222 
Q 278 1463 351 1650 
Q 425 1838 548 1973 
Q 672 2109 830 2192 
Q 988 2275 1156 2303 
L 1156 2316 
Q 972 2359 826 2456 
Q 681 2553 582 2689 
Q 484 2825 432 2990 
Q 381 3156 381 3341 
Q 381 3572 470 3776 
Q 559 3981 734 4136 
Q 909 4291 1168 4380 
Q 1428 4469 1769 4469 
Q 2128 4469 2392 4378 
Q 2656 4288 2829 4133 
Q 3003 3978 3087 3772 
Q 3172 3566 3172 3334 
Q 3172 3153 3120 2987 
Q 3069 2822 2970 2686 
Q 2872 2550 2726 2454 
Q 2581 2359 2391 2322 
L 2391 2309 
Q 2581 2278 2743 2195 
Q 2906 2113 3025 1977 
Q 3144 1841 3212 1653 
Q 3281 1466 3281 1228 
z
M 2588 3303 
Q 2588 3469 2545 3606 
Q 2503 3744 2406 3842 
Q 2309 3941 2153 3995 
Q 1997 4050 1769 4050 
Q 1547 4050 1394 3995 
Q 1241 3941 1142 3842 
Q 1044 3744 1000 3606 
Q 956 3469 956 3303 
Q 956 3172 990 3034 
Q 1025 2897 1115 2784 
Q 1206 2672 1365 2600 
Q 1525 2528 1775 2528 
Q 2041 2528 2202 2600 
Q 2363 2672 2448 2784 
Q 2534 2897 2561 3034 
Q 2588 3172 2588 3303 
z
M 2697 1281 
Q 2697 1441 2653 1589 
Q 2609 1738 2503 1852 
Q 2397 1966 2217 2036 
Q 2038 2106 1769 2106 
Q 1522 2106 1348 2036 
Q 1175 1966 1067 1850 
Q 959 1734 909 1582 
Q 859 1431 859 1269 
Q 859 1066 909 898 
Q 959 731 1068 611 
Q 1178 491 1356 425 
Q 1534 359 1788 359 
Q 2044 359 2219 425 
Q 2394 491 2500 611 
Q 2606 731 2651 901 
Q 2697 1072 2697 1281 
z
" id="LiberationSans-38" transform="scale(0.015625)"/>
      </defs>
      <use xlink:href="#LiberationSans-31"/>
      <use x="55.615234" xlink:href="#LiberationSans-65"/>
      <use x="111.230469" xlink:href="#LiberationSans-38"/>
     </g>
    </g>
   </g>
   <g id="matplotlib.axis_2">
    <g id="ytick_1">
     <g id="line2d_15">
      <path clip-path="url(#pdb208a3120)" d="M 322.751356 355.436698 
L 710.448644 355.436698 
" style="fill:none;stroke:#cccccc;stroke-linecap:round;stroke-width:0.8;"/>
     </g>
     <g id="line2d_16"/>
     <g id="text_10">
      <!-- −2 -->
      <g style="fill:#262626;" transform="translate(307.849794 359.060135)scale(0.1 -0.1)">
       <use xlink:href="#LiberationSans-2212"/>
       <use x="58.398438" xlink:href="#LiberationSans-32"/>
      </g>
     </g>
    </g>
    <g id="ytick_2">
     <g id="line2d_17">
      <path clip-path="url(#pdb208a3120)" d="M 322.751356 296.309494 
L 710.448644 296.309494 
" style="fill:none;stroke:#cccccc;stroke-linecap:round;stroke-width:0.8;"/>
     </g>
     <g id="line2d_18"/>
     <g id="text_11">
      <!-- −1 -->
      <g style="fill:#262626;" transform="translate(307.849794 299.932932)scale(0.1 -0.1)">
       <use xlink:href="#LiberationSans-2212"/>
       <use x="58.398438" xlink:href="#LiberationSans-31"/>
      </g>
     </g>
    </g>
    <g id="ytick_3">
     <g id="line2d_19">
      <path clip-path="url(#pdb208a3120)" d="M 322.751356 237.18229 
L 710.448644 237.18229 
" style="fill:none;stroke:#cccccc;stroke-linecap:round;stroke-width:0.8;"/>
     </g>
     <g id="line2d_20"/>
     <g id="text_12">
      <!-- 0 -->
      <g style="fill:#262626;" transform="translate(313.690419 240.805728)scale(0.1 -0.1)">
       <use xlink:href="#LiberationSans-30"/>
      </g>
     </g>
    </g>
    <g id="ytick_4">
     <g id="line2d_21">
      <path clip-path="url(#pdb208a3120)" d="M 322.751356 178.055086 
L 710.448644 178.055086 
" style="fill:none;stroke:#cccccc;stroke-linecap:round;stroke-width:0.8;"/>
     </g>
     <g id="line2d_22"/>
     <g id="text_13">
      <!-- 1 -->
      <g style="fill:#262626;" transform="translate(313.690419 181.678524)scale(0.1 -0.1)">
       <use xlink:href="#LiberationSans-31"/>
      </g>
     </g>
    </g>
    <g id="ytick_5">
     <g id="line2d_23">
      <path clip-path="url(#pdb208a3120)" d="M 322.751356 118.927882 
L 710.448644 118.927882 
" style="fill:none;stroke:#cccccc;stroke-linecap:round;stroke-width:0.8;"/>
     </g>
     <g id="line2d_24"/>
     <g id="text_14">
      <!-- 2 -->
      <g style="fill:#262626;" transform="translate(313.690419 122.55132)scale(0.1 -0.1)">
       <use xlink:href="#LiberationSans-32"/>
      </g>
     </g>
    </g>
    <g id="ytick_6">
     <g id="line2d_25">
      <path clip-path="url(#pdb208a3120)" d="M 322.751356 59.800679 
L 710.448644 59.800679 
" style="fill:none;stroke:#cccccc;stroke-linecap:round;stroke-width:0.8;"/>
     </g>
     <g id="line2d_26"/>
     <g id="text_15">
      <!-- 3 -->
      <g style="fill:#262626;" transform="translate(313.690419 63.424116)scale(0.1 -0.1)">
       <use xlink:href="#LiberationSans-33"/>
      </g>
     </g>
    </g>
    <g id="text_16">
     <!-- $y$ (km) -->
     <g style="fill:#262626;" transform="translate(301.749794 232.51)rotate(-90)scale(0.1 -0.1)">
      <defs>
       <path d="M 1588 -325 
Q 1188 -997 936 -1164 
Q 684 -1331 294 -1331 
L -159 -1331 
L -63 -850 
L 269 -850 
Q 509 -850 678 -719 
Q 847 -588 1056 -206 
L 1234 128 
L 459 3500 
L 1069 3500 
L 1650 819 
L 3256 3500 
L 3859 3500 
L 1588 -325 
z
" id="DejaVuSans-Oblique-79" transform="scale(0.015625)"/>
      </defs>
      <use transform="translate(0 0.53125)" xlink:href="#DejaVuSans-Oblique-79"/>
      <use transform="translate(59.179688 0.53125)" xlink:href="#LiberationSans-20"/>
      <use transform="translate(86.962891 0.53125)" xlink:href="#LiberationSans-28"/>
      <use transform="translate(120.263672 0.53125)" xlink:href="#LiberationSans-6b"/>
      <use transform="translate(170.263672 0.53125)" xlink:href="#LiberationSans-6d"/>
      <use transform="translate(253.564453 0.53125)" xlink:href="#LiberationSans-29"/>
     </g>
    </g>
    <g id="text_17">
     <!-- 1e8 -->
     <g style="fill:#262626;" transform="translate(322.751356 48.84)scale(0.1 -0.1)">
      <use xlink:href="#LiberationSans-31"/>
      <use x="55.615234" xlink:href="#LiberationSans-65"/>
      <use x="111.230469" xlink:href="#LiberationSans-38"/>
     </g>
    </g>
   </g>
   <g id="patch_3">
    <path clip-path="url(#pdb208a3120)" d="M 466.988743 241.262175 
C 468.070741 241.262175 469.108569 240.832292 469.873657 240.067204 
C 470.638745 239.302116 471.068628 238.264288 471.068628 237.18229 
C 471.068628 236.100292 470.638745 235.062464 469.873657 234.297376 
C 469.108569 233.532288 468.070741 233.102406 466.988743 233.102406 
C 465.906745 233.102406 464.868917 233.532288 464.103829 234.297376 
C 463.338741 235.062464 462.908858 236.100292 462.908858 237.18229 
C 462.908858 238.264288 463.338741 239.302116 464.103829 240.067204 
C 464.868917 240.832292 465.906745 241.262175 466.988743 241.262175 
z
" style="fill:#ffcc00;"/>
   </g>
   <g id="line2d_27">
    <path clip-path="url(#pdb208a3120)" d="M 438.231742 258.610007 
L 440.348094 260.369335 
L 442.633189 261.981614 
L 445.080176 263.428835 
L 447.680295 264.692341 
L 450.422586 265.75296 
L 453.293572 266.591213 
L 456.27694 267.187605 
L 459.353215 267.523015 
L 462.499481 267.579212 
L 465.689163 267.339496 
L 468.891917 266.789473 
L 472.073695 265.917961 
L 475.197029 264.717975 
L 478.2216 263.187757 
L 481.105126 261.33174 
L 483.804584 259.161354 
L 486.277723 256.695526 
L 488.48479 253.960774 
L 490.390307 250.990787 
L 491.964738 247.825479 
L 493.185837 244.509563 
L 494.039531 241.090775 
L 494.520252 237.617924 
L 494.630693 234.13899 
L 494.381075 230.69943 
L 493.788046 227.340842 
L 492.873374 224.10004 
L 491.662579 221.008546 
L 490.183631 218.092455 
L 488.465793 215.372585 
L 486.538666 212.864839 
L 484.431431 210.580696 
L 482.172297 208.527762 
L 479.78812 206.710326 
L 477.304165 205.129905 
L 474.743984 203.785728 
L 472.129378 202.675176 
L 469.480425 201.794162 
L 466.815543 201.137441 
L 464.151589 200.698884 
L 461.503963 200.471692 
L 458.886729 200.448568 
L 456.31273 200.621862 
L 453.793701 200.983678 
L 451.340381 201.525955 
L 448.962615 202.240535 
L 446.669444 203.119208 
L 444.469192 204.153742 
L 442.369548 205.335903 
L 440.37763 206.65747 
L 438.500051 208.110237 
L 436.742971 209.686005 
L 435.112149 211.376581 
L 433.612984 213.173761 
L 432.250553 215.069312 
L 431.029638 217.054957 
L 429.954757 219.122345 
L 429.030184 221.263032 
L 428.259959 223.468445 
L 427.647908 225.729859 
L 427.197641 228.038356 
L 426.912556 230.384794 
L 426.795832 232.759767 
L 426.850419 235.153564 
L 427.079015 237.556124 
L 427.484047 239.956995 
L 428.067627 242.345282 
L 428.831515 244.709602 
L 429.777058 247.038029 
L 430.905121 249.318049 
L 432.216002 251.536506 
L 433.709336 253.67956 
L 435.383964 255.73264 
L 437.237798 257.680416 
L 438.23097 258.609811 
L 438.23097 258.609811 
" style="fill:none;stroke:#8c8680;stroke-linecap:round;stroke-width:1.5;"/>
   </g>
   <g id="line2d_28">
    <defs>
     <path d="M 0 3 
C 0.795609 3 1.55874 2.683901 2.12132 2.12132 
C 2.683901 1.55874 3 0.795609 3 0 
C 3 -0.795609 2.683901 -1.55874 2.12132 -2.12132 
C 1.55874 -2.683901 0.795609 -3 0 -3 
C -0.795609 -3 -1.55874 -2.683901 -2.12132 -2.12132 
C -2.683901 -1.55874 -3 -0.795609 -3 0 
C -3 0.795609 -2.683901 1.55874 -2.12132 2.12132 
C -1.55874 2.683901 -0.795609 3 0 3 
z
" id="m2c4eb1321e"/>
    </defs>
    <g clip-path="url(#pdb208a3120)">
     <use style="fill:#8c8680;" x="438.231742" xlink:href="#m2c4eb1321e" y="258.610007"/>
    </g>
   </g>
   <g id="line2d_29">
    <path clip-path="url(#pdb208a3120)" d="M 501.219245 183.708131 
L 498.907773 182.286935 
L 496.538563 180.965037 
L 494.115928 179.744779 
L 491.644272 178.628316 
L 489.128086 177.617608 
L 486.571935 176.714421 
L 483.980456 175.92032 
L 481.358341 175.236669 
L 478.710336 174.664631 
L 476.041226 174.20516 
L 473.355827 173.859006 
L 470.658979 173.626712 
L 467.955537 173.508611 
L 465.250358 173.504831 
L 462.548299 173.615291 
L 459.854199 173.839703 
L 457.172878 174.177576 
L 454.509126 174.628213 
L 451.86769 175.190716 
L 449.253273 175.863986 
L 446.67052 176.64673 
L 444.12401 177.537458 
L 441.618251 178.534492 
L 439.157671 179.635964 
L 436.74661 180.839826 
L 434.38931 182.143849 
L 432.089914 183.545632 
L 429.852451 185.042603 
L 427.680837 186.632028 
L 425.578863 188.311011 
L 423.550192 190.076505 
L 421.598351 191.925317 
L 419.726726 193.854109 
L 417.938557 195.859412 
L 416.236932 197.937626 
L 414.624784 200.085031 
L 413.104884 202.297789 
L 411.679838 204.571956 
L 410.352082 206.903487 
L 409.123882 209.288243 
L 407.997324 211.721997 
L 406.974319 214.200444 
L 406.056593 216.719208 
L 405.245689 219.273847 
L 404.542963 221.859864 
L 403.949584 224.472712 
L 403.46653 227.107804 
L 403.094587 229.760519 
L 402.834352 232.426211 
L 402.686226 235.100214 
L 402.650421 237.777856 
L 402.726953 240.454459 
L 402.915648 243.125351 
L 403.216136 245.785874 
L 403.627861 248.431392 
L 404.150074 251.057294 
L 404.781838 253.659009 
L 405.522029 256.232004 
L 406.369338 258.771803 
L 407.322275 261.273982 
L 408.379169 263.734188 
L 409.538172 266.148136 
L 410.797261 268.511623 
L 412.154243 270.820529 
L 413.606758 273.070832 
L 415.152283 275.258605 
L 416.788134 277.380029 
L 418.511474 279.431397 
L 420.319314 281.409121 
L 422.208521 283.309737 
L 424.175821 285.129911 
L 426.217803 286.866445 
L 428.330928 288.516283 
L 430.511533 290.076514 
L 432.755834 291.54438 
L 435.059938 292.917278 
L 437.419844 294.192767 
L 439.831452 295.36857 
L 442.290569 296.442581 
L 444.792915 297.412866 
L 447.334134 298.277666 
L 449.909793 299.035407 
L 452.515398 299.684692 
L 455.146397 300.224315 
L 457.798186 300.653255 
L 460.466121 300.970685 
L 463.145523 301.175967 
L 465.831685 301.26866 
L 468.519885 301.248516 
L 471.205385 301.115487 
L 473.883449 300.869719 
L 476.549345 300.511557 
L 479.198355 300.041544 
L 481.825782 299.46042 
L 484.42696 298.769121 
L 486.997263 297.968778 
L 489.532109 297.06072 
L 492.026972 296.046464 
L 494.477392 294.927722 
L 496.878975 293.70639 
L 499.22741 292.384553 
L 501.518473 290.964477 
L 503.748033 289.448608 
L 505.912064 287.839565 
L 508.006648 286.140141 
L 510.027989 284.353294 
L 511.972411 282.482145 
L 513.836374 280.529971 
L 515.616476 278.500199 
L 517.30946 276.396405 
L 518.912221 274.222302 
L 520.421816 271.981736 
L 521.835461 269.678681 
L 523.150545 267.317228 
L 524.364634 264.901582 
L 525.47547 262.436052 
L 526.480984 259.925045 
L 527.379294 257.373055 
L 528.168714 254.784658 
L 528.847752 252.164501 
L 529.41512 249.517298 
L 529.86973 246.847813 
L 530.210702 244.16086 
L 530.437363 241.461288 
L 530.549251 238.753975 
L 530.546112 236.043818 
L 530.427908 233.335721 
L 530.194809 230.634591 
L 529.8472 227.945323 
L 529.385676 225.272794 
L 528.811044 222.621854 
L 528.124319 219.997315 
L 527.326727 217.40394 
L 526.419695 214.846439 
L 525.404855 212.329456 
L 524.284041 209.85756 
L 523.05928 207.435238 
L 521.732793 205.066885 
L 520.306989 202.756796 
L 518.784462 200.509159 
L 517.167983 198.328045 
L 515.460495 196.217399 
L 513.665113 194.181038 
L 511.785107 192.222637 
L 509.823908 190.345727 
L 507.785091 188.553686 
L 505.672374 186.849734 
L 503.489608 185.236925 
L 501.240772 183.718144 
L 501.240772 183.718144 
" style="fill:none;stroke:#e6db67;stroke-linecap:round;stroke-width:1.5;"/>
   </g>
   <g id="line2d_30">
    <defs>
     <path d="M 0 3 
C 0.795609 3 1.55874 2.683901 2.12132 2.12132 
C 2.683901 1.55874 3 0.795609 3 0 
C 3 -0.795609 2.683901 -1.55874 2.12132 -2.12132 
C 1.55874 -2.683901 0.795609 -3 0 -3 
C -0.795609 -3 -1.55874 -2.683901 -2.12132 -2.12132 
C -2.683901 -1.55874 -3 -0.795609 -3 0 
C -3 0.795609 -2.683901 1.55874 -2.12132 2.12132 
C -1.55874 2.683901 -0.795609 3 0 3 
z
" id="mcdf4b38f62"/>
    </defs>
    <g clip-path="url(#pdb208a3120)">
     <use style="fill:#e6db67;" x="501.219245" xlink:href="#mcdf4b38f62" y="183.708131"/>
    </g>
   </g>
   <g id="line2d_31">
    <path clip-path="url(#pdb208a3120)" d="M 377.404654 229.336035 
L 377.154964 232.995622 
L 377.057453 236.663055 
L 377.112621 240.331929 
L 377.320596 243.995707 
L 377.681087 247.647771 
L 378.193333 251.281533 
L 378.856115 254.890565 
L 379.667851 258.468747 
L 380.626797 262.010332 
L 381.731264 265.509842 
L 382.979689 268.961813 
L 384.370477 272.360605 
L 385.901812 275.700399 
L 387.571568 278.97528 
L 389.377267 282.179293 
L 391.316037 285.306492 
L 393.384558 288.351033 
L 395.579057 291.307321 
L 397.895421 294.170166 
L 400.329398 296.934836 
L 402.876793 299.596962 
L 405.53355 302.152331 
L 408.295658 304.59669 
L 411.15897 306.925699 
L 414.119083 309.134985 
L 417.171293 311.220231 
L 420.310569 313.177214 
L 423.531501 315.001879 
L 426.828268 316.690478 
L 430.19474 318.239752 
L 433.624704 319.647008 
L 437.112082 320.910005 
L 440.650995 322.026746 
L 444.235693 322.99531 
L 447.86041 323.813778 
L 451.519234 324.480263 
L 455.206044 324.99299 
L 458.914494 325.350355 
L 462.63798 325.550974 
L 466.369594 325.593792 
L 470.102177 325.478269 
L 473.828547 325.204519 
L 477.54178 324.773198 
L 481.235284 324.185259 
L 484.902723 323.441777 
L 488.537872 322.543879 
L 492.134512 321.492758 
L 495.686357 320.289733 
L 499.187022 318.936316 
L 502.630016 317.434257 
L 506.008705 315.785619 
L 509.316324 313.992929 
L 512.546139 312.059351 
L 515.691777 309.988661 
L 518.747387 307.784961 
L 521.707536 305.452435 
L 524.567053 302.995284 
L 527.320916 300.417743 
L 529.964189 297.724125 
L 532.491984 294.918873 
L 534.899444 292.006618 
L 537.181731 288.992236 
L 539.334026 285.880947 
L 541.35162 282.678478 
L 543.230199 279.391119 
L 544.966103 276.025492 
L 546.556281 272.588217 
L 547.998082 269.085794 
L 549.289109 265.524632 
L 550.427159 261.911097 
L 551.410187 258.251555 
L 552.23627 254.55242 
L 552.903598 250.820219 
L 553.410482 247.061671 
L 553.755417 243.283802 
L 553.937273 239.494027 
L 553.955575 235.700024 
L 553.810564 231.909395 
L 553.502986 228.129445 
L 553.033884 224.367188 
L 552.404513 220.629428 
L 551.616302 216.9228 
L 550.670818 213.253812 
L 549.569735 209.628909 
L 548.314842 206.054564 
L 546.908104 202.537377 
L 545.351815 199.084129 
L 543.648811 195.701724 
L 541.802593 192.396922 
L 539.81719 189.176065 
L 537.696915 186.045021 
L 535.446216 183.009266 
L 533.069637 180.073961 
L 530.571785 177.243995 
L 527.957289 174.524038 
L 525.230779 171.918649 
L 522.396957 169.432387 
L 519.460748 167.069871 
L 516.427478 164.835707 
L 513.302981 162.734296 
L 510.093529 160.769583 
L 506.805611 158.944947 
L 503.445746 157.263256 
L 500.020408 155.726969 
L 496.536002 154.338198 
L 492.998826 153.098762 
L 489.415034 152.010279 
L 485.79068 151.074309 
L 482.131881 150.292449 
L 478.445019 149.666253 
L 474.736831 149.197042 
L 471.014339 148.885693 
L 467.284682 148.732528 
L 463.554921 148.737332 
L 459.83194 148.899459 
L 456.122414 149.217913 
L 452.432784 149.69141 
L 448.769225 150.318453 
L 445.137645 151.097475 
L 441.543837 152.026982 
L 437.993724 153.105518 
L 434.493481 154.33144 
L 431.049454 155.702704 
L 427.667993 157.216768 
L 424.355281 158.870611 
L 421.117233 160.660815 
L 417.959444 162.58366 
L 414.887177 164.6352 
L 411.905344 166.811327 
L 409.018495 169.107888 
L 406.230905 171.520848 
L 403.54684 174.046336 
L 400.970755 176.680431 
L 398.507238 179.418885 
L 396.160807 182.257017 
L 393.935745 185.189754 
L 391.836006 188.211701 
L 389.865166 191.31724 
L 388.026405 194.500605 
L 386.322503 197.755956 
L 384.755837 201.077473 
L 383.328433 204.459495 
L 382.042167 207.896624 
L 380.899044 211.383596 
L 379.901221 214.914955 
L 379.050781 218.48488 
L 378.349536 222.087226 
L 377.798936 225.715626 
L 377.400024 229.363572 
L 377.400024 229.363572 
" style="fill:none;stroke:#2a7bd1;stroke-linecap:round;stroke-width:1.5;"/>
   </g>
   <g id="line2d_32">
    <defs>
     <path d="M 0 3 
C 0.795609 3 1.55874 2.683901 2.12132 2.12132 
C 2.683901 1.55874 3 0.795609 3 0 
C 3 -0.795609 2.683901 -1.55874 2.12132 -2.12132 
C 1.55874 -2.683901 0.795609 -3 0 -3 
C -0.795609 -3 -1.55874 -2.683901 -2.12132 -2.12132 
C -2.683901 -1.55874 -3 -0.795609 -3 0 
C -3 0.795609 -2.683901 1.55874 -2.12132 2.12132 
C -1.55874 2.683901 -0.795609 3 0 3 
z
" id="m9209ea5427"/>
    </defs>
    <g clip-path="url(#pdb208a3120)">
     <use style="fill:#2a7bd1;" x="377.404654" xlink:href="#m9209ea5427" y="229.336035"/>
    </g>
   </g>
   <g id="line2d_33">
    <path clip-path="url(#pdb208a3120)" d="M 567.705035 129.802417 
L 563.895303 126.298335 
L 559.953707 122.945141 
L 555.885666 119.747331 
L 551.696719 116.70925 
L 547.392523 113.835084 
L 542.978858 111.128868 
L 538.461619 108.594474 
L 533.84682 106.235617 
L 529.140594 104.055851 
L 524.349186 102.058563 
L 519.478961 100.246975 
L 514.536396 98.624141 
L 509.528084 97.192937 
L 504.460734 95.956068 
L 499.341167 94.916055 
L 494.176317 94.075233 
L 488.973234 93.435748 
L 483.739076 92.99955 
L 478.481116 92.768388 
L 473.206735 92.743804 
L 467.923421 92.927123 
L 462.638772 93.319452 
L 457.360487 93.921668 
L 452.09637 94.734412 
L 446.854323 95.758081 
L 441.642345 96.992818 
L 436.468526 98.438502 
L 431.341044 100.094742 
L 426.26816 101.960864 
L 421.25821 104.0359 
L 416.319599 106.318581 
L 411.460797 108.807322 
L 406.690322 111.500216 
L 402.016741 114.395016 
L 397.448649 117.489131 
L 392.994667 120.779608 
L 388.663422 124.263124 
L 384.463534 127.935977 
L 380.403603 131.794066 
L 376.492191 135.832893 
L 372.737801 140.047539 
L 369.148862 144.432666 
L 365.733701 148.982502 
L 362.500526 153.690831 
L 359.4574 158.550993 
L 356.612213 163.555872 
L 353.972657 168.697892 
L 351.546193 173.969017 
L 349.340026 179.360749 
L 347.361066 184.864128 
L 345.615903 190.469734 
L 344.110766 196.1677 
L 342.851491 201.947713 
L 341.843486 207.799026 
L 341.091691 213.71048 
L 340.600549 219.670513 
L 340.37396 225.667186 
L 340.415255 231.688208 
L 340.727152 237.720962 
L 341.311732 243.752541 
L 342.170399 249.769779 
L 343.303852 255.759295 
L 344.712062 261.707535 
L 346.394243 267.600817 
L 348.348833 273.42538 
L 350.573478 279.167441 
L 353.065017 284.813243 
L 355.819474 290.34912 
L 358.832057 295.761547 
L 362.097159 301.037209 
L 365.608364 306.163055 
L 369.35846 311.126361 
L 373.339461 315.91479 
L 377.542629 320.516449 
L 381.958502 324.919948 
L 386.576933 329.114452 
L 391.387127 333.089734 
L 396.37769 336.836218 
L 401.536671 340.34503 
L 406.851622 343.608026 
L 412.309651 346.617834 
L 417.897481 349.367879 
L 423.601511 351.852402 
L 429.407877 354.066483 
L 435.302517 356.006043 
L 441.271232 357.667858 
L 447.299748 359.049551 
L 453.373778 360.149588 
L 459.479078 360.967269 
L 465.601509 361.502707 
L 471.727087 361.756813 
L 477.842035 361.731265 
L 483.932832 361.428484 
L 489.986255 360.851598 
L 495.989419 360.004412 
L 501.929816 358.891369 
L 507.795343 357.517512 
L 513.574332 355.888443 
L 519.255575 354.010286 
L 524.828341 351.889644 
L 530.282394 349.533558 
L 535.608006 346.949467 
L 540.795966 344.145169 
L 545.837586 341.128781 
L 550.724703 337.9087 
L 555.449682 334.493569 
L 560.005409 330.892241 
L 564.385291 327.113746 
L 568.583249 323.167257 
L 572.593708 319.062063 
L 576.411591 314.807543 
L 580.032302 310.413134 
L 583.451722 305.88831 
L 586.66619 301.242561 
L 589.672494 296.485369 
L 592.467852 291.626193 
L 595.049903 286.674447 
L 597.41669 281.639489 
L 599.566644 276.530603 
L 601.498572 271.35699 
L 603.211641 266.127753 
L 604.705365 260.851891 
L 605.979588 255.538284 
L 607.034476 250.195694 
L 607.870495 244.832748 
L 608.488406 239.45794 
L 608.88925 234.079623 
L 609.074332 228.706007 
L 609.045216 223.345152 
L 608.803709 218.004968 
L 608.351853 212.693212 
L 607.691913 207.417487 
L 606.826372 202.185238 
L 605.757916 197.003757 
L 604.48943 191.880175 
L 603.023989 186.821466 
L 601.36485 181.83445 
L 599.515446 176.925785 
L 597.479379 172.101976 
L 595.260415 167.369369 
L 592.862478 162.734155 
L 590.289644 158.202371 
L 587.546141 153.779895 
L 584.636337 149.472455 
L 581.564744 145.285622 
L 578.336008 141.224815 
L 574.954911 137.295299 
L 571.426365 133.502187 
L 567.755413 129.85044 
L 567.755413 129.85044 
" style="fill:none;stroke:#cc653f;stroke-linecap:round;stroke-width:1.5;"/>
   </g>
   <g id="line2d_34">
    <defs>
     <path d="M 0 3 
C 0.795609 3 1.55874 2.683901 2.12132 2.12132 
C 2.683901 1.55874 3 0.795609 3 0 
C 3 -0.795609 2.683901 -1.55874 2.12132 -2.12132 
C 1.55874 -2.683901 0.795609 -3 0 -3 
C -0.795609 -3 -1.55874 -2.683901 -2.12132 -2.12132 
C -2.683901 -1.55874 -3 -0.795609 -3 0 
C -3 0.795609 -2.683901 1.55874 -2.12132 2.12132 
C -1.55874 2.683901 -0.795609 3 0 3 
z
" id="m4b7cf3223a"/>
    </defs>
    <g clip-path="url(#pdb208a3120)">
     <use style="fill:#cc653f;" x="567.705035" xlink:href="#m4b7cf3223a" y="129.802417"/>
    </g>
   </g>
   <g id="line2d_35">
    <path clip-path="url(#pdb208a3120)" d="M 404.628665 320.828631 
L 408.76335 325.024385 
L 413.033041 329.017557 
L 417.423908 332.805806 
L 421.922446 336.387914 
L 426.51557 339.763688 
L 431.190691 342.933858 
L 435.935782 345.899971 
L 440.739417 348.664288 
L 445.5908 351.22969 
L 450.479779 353.599577 
L 455.396851 355.777787 
L 460.333156 357.768512 
L 465.280463 359.576228 
L 470.231152 361.205629 
L 475.17819 362.661569 
L 480.115104 363.949011 
L 485.035952 365.072986 
L 489.935297 366.038552 
L 494.808169 366.85076 
L 499.650042 367.514635 
L 504.456801 368.035143 
L 509.224711 368.417181 
L 513.950391 368.665557 
L 518.630789 368.784978 
L 523.263154 368.780045 
L 527.845012 368.65524 
L 532.374144 368.414927 
L 536.848569 368.063342 
L 541.266517 367.604598 
L 545.626416 367.042678 
L 549.926875 366.381439 
L 554.166667 365.624614 
L 558.344714 364.775807 
L 562.460075 363.838503 
L 566.511936 362.816066 
L 570.499595 361.711745 
L 574.422452 360.528673 
L 578.280004 359.269873 
L 582.071831 357.938262 
L 585.797591 356.536654 
L 589.457014 355.067762 
L 593.049891 353.534204 
L 596.576073 351.938504 
L 600.035462 350.283099 
L 603.428008 348.570337 
L 606.753702 346.802488 
L 610.012576 344.981741 
L 613.204693 343.110208 
L 616.330151 341.189929 
" style="fill:none;stroke:#000000;stroke-linecap:round;stroke-width:1.5;"/>
   </g>
   <g id="line2d_36">
    <defs>
     <path d="M 0 3 
C 0.795609 3 1.55874 2.683901 2.12132 2.12132 
C 2.683901 1.55874 3 0.795609 3 0 
C 3 -0.795609 2.683901 -1.55874 2.12132 -2.12132 
C 1.55874 -2.683901 0.795609 -3 0 -3 
C -0.795609 -3 -1.55874 -2.683901 -2.12132 -2.12132 
C -2.683901 -1.55874 -3 -0.795609 -3 0 
C -3 0.795609 -2.683901 1.55874 -2.12132 2.12132 
C -1.55874 2.683901 -0.795609 3 0 3 
z
" id="m782025ec5a"/>
    </defs>
    <g clip-path="url(#pdb208a3120)">
     <use x="520.953136" xlink:href="#m782025ec5a" y="368.797773"/>
    </g>
   </g>
   <g id="line2d_37">
    <path clip-path="url(#pdb208a3120)" d="M 520.371888 369.36 
L 527.254566 369.221391 
L 534.141277 368.814173 
L 541.019778 368.139069 
L 547.877838 367.197279 
L 554.703265 365.990479 
L 561.483923 364.520813 
L 568.207756 362.790896 
L 574.862809 360.803802 
L 581.437251 358.563064 
L 587.919392 356.072667 
L 594.297706 353.337038 
L 600.560854 350.361041 
L 606.6977 347.149967 
L 612.697333 343.709527 
L 618.549085 340.045835 
L 624.242553 336.165407 
L 629.767614 332.075142 
L 635.114444 327.782311 
L 640.273536 323.294549 
L 645.235719 318.619832 
L 649.99217 313.766474 
L 654.534431 308.743103 
L 658.854427 303.558651 
L 662.944477 298.222335 
L 666.79731 292.743643 
L 670.406074 287.132315 
L 673.764354 281.39833 
L 676.866178 275.551881 
L 679.706032 269.603364 
L 682.278867 263.563354 
L 684.580108 257.44259 
L 686.605664 251.251956 
L 688.351934 245.002457 
L 689.815811 238.705205 
L 690.994695 232.371396 
L 691.886488 226.012293 
L 692.489606 219.6392 
L 692.802976 213.263449 
L 692.82604 206.896376 
L 692.558758 200.549301 
L 692.001605 194.233509 
L 691.155572 187.96023 
L 690.022162 181.740617 
L 688.603391 175.585728 
L 686.901782 169.506507 
L 684.92036 163.513762 
L 682.662647 157.618148 
L 680.132658 151.830147 
L 677.334892 146.16005 
L 674.274322 140.617938 
L 670.956389 135.213665 
L 667.386995 129.95684 
L 663.572483 124.856809 
L 659.519637 119.922639 
L 655.235662 115.163104 
L 650.728176 110.586665 
L 646.005191 106.20146 
L 641.075106 102.015285 
L 635.946687 98.035584 
L 630.62905 94.269431 
L 625.131651 90.723522 
L 619.464264 87.404164 
L 613.636965 84.317256 
L 607.660115 81.468288 
L 601.544341 78.862325 
L 595.300516 76.503999 
L 588.939742 74.397505 
L 582.473328 72.546588 
L 575.91277 70.954538 
L 569.269734 69.624185 
L 562.55603 68.557896 
L 555.783595 67.757566 
L 548.96447 67.224618 
L 542.11078 66.96 
L 535.234709 66.964182 
L 528.348484 67.237156 
L 521.464348 67.778438 
L 514.594541 68.587064 
L 507.751276 69.661598 
L 500.946721 71.000128 
L 494.192975 72.600275 
L 487.502044 74.459195 
L 480.885826 76.57358 
L 474.356083 78.939674 
L 467.924426 81.553268 
L 461.60229 84.409716 
L 455.400914 87.503938 
L 449.331326 90.830435 
L 443.404316 94.383291 
L 437.630423 98.156189 
L 432.019911 102.142422 
L 426.582758 106.334902 
L 421.328628 110.726174 
L 416.266866 115.308432 
L 411.406468 120.073529 
L 406.756079 125.012991 
L 402.323965 130.118037 
L 398.118007 135.379591 
L 394.145683 140.788298 
L 390.414055 146.33454 
L 386.929759 152.008457 
L 383.698989 157.799962 
L 380.727489 163.698756 
L 378.020542 169.694353 
L 375.582963 175.776091 
L 373.419083 181.933159 
L 371.532751 188.154608 
L 369.927321 194.429378 
L 368.605646 200.746312 
L 367.570078 207.094179 
L 366.822456 213.461693 
L 366.364111 219.837532 
L 366.195856 226.210361 
L 366.317992 232.568848 
L 366.730301 238.901689 
L 367.43205 245.197623 
L 368.421992 251.445458 
L 369.698366 257.634085 
L 371.258903 263.7525 
L 373.100828 269.789825 
L 375.220867 275.735326 
L 377.615249 281.578432 
L 380.279719 287.308755 
L 383.209539 292.916106 
L 386.399499 298.390515 
L 389.843928 303.722249 
L 393.536702 308.901829 
L 397.471256 313.920044 
L 401.640593 318.767974 
L 406.037301 323.436999 
L 410.653562 327.918817 
L 415.48117 332.20546 
L 420.51154 336.289306 
L 425.73573 340.163094 
L 431.14445 343.819938 
L 436.728084 347.253334 
L 442.476705 350.457179 
L 448.380091 353.425777 
L 454.427747 356.153849 
L 460.60892 358.636545 
L 466.912621 360.869451 
L 473.327641 362.848597 
L 479.842575 364.570463 
L 486.44584 366.03199 
L 493.125695 367.230577 
L 499.870264 368.164094 
L 506.667554 368.830881 
L 513.505482 369.229753 
L 520.371888 369.36 
L 520.371888 369.36 
" style="fill:none;stroke:#1f77b4;stroke-dasharray:5.55,2.4;stroke-dashoffset:0;stroke-width:1.5;"/>
   </g>
   <g id="line2d_38">
    <defs>
     <path d="M 0 3 
C 0.795609 3 1.55874 2.683901 2.12132 2.12132 
C 2.683901 1.55874 3 0.795609 3 0 
C 3 -0.795609 2.683901 -1.55874 2.12132 -2.12132 
C 1.55874 -2.683901 0.795609 -3 0 -3 
C -0.795609 -3 -1.55874 -2.683901 -2.12132 -2.12132 
C -2.683901 -1.55874 -3 -0.795609 -3 0 
C -3 0.795609 -2.683901 1.55874 -2.12132 2.12132 
C -1.55874 2.683901 -0.795609 3 0 3 
z
" id="m3c43399bc9"/>
    </defs>
    <g clip-path="url(#pdb208a3120)">
     <use style="fill:#1f77b4;" x="520.371888" xlink:href="#m3c43399bc9" y="369.36"/>
    </g>
   </g>
   <g id="patch_4">
    <path d="M 322.751356 384.48 
L 322.751356 51.84 
" style="fill:none;stroke:#cccccc;stroke-linecap:square;stroke-linejoin:miter;"/>
   </g>
   <g id="patch_5">
    <path d="M 710.448644 384.48 
L 710.448644 51.84 
" style="fill:none;stroke:#cccccc;stroke-linecap:square;stroke-linejoin:miter;"/>
   </g>
   <g id="patch_6">
    <path d="M 322.751356 384.48 
L 710.448644 384.48 
" style="fill:none;stroke:#cccccc;stroke-linecap:square;stroke-linejoin:miter;"/>
   </g>
   <g id="patch_7">
    <path d="M 322.751356 51.84 
L 710.448644 51.84 
" style="fill:none;stroke:#cccccc;stroke-linecap:square;stroke-linejoin:miter;"/>
   </g>
   <g id="legend_1">
    <g id="text_18">
     <!-- Names and epochs -->
     <g style="fill:#262626;" transform="translate(778.548352 63.097275)scale(0.1 -0.1)">
      <defs>
       <path d="M 3381 0 
L 1025 3750 
Q 1031 3597 1041 3447 
Q 1047 3319 1051 3176 
Q 1056 3034 1056 2925 
L 1056 0 
L 525 0 
L 525 4403 
L 1219 4403 
L 3600 628 
Q 3591 781 3581 934 
Q 3575 1066 3569 1220 
Q 3563 1375 3563 1516 
L 3563 4403 
L 4100 4403 
L 4100 0 
L 3381 0 
z
" id="LiberationSans-4e" transform="scale(0.015625)"/>
       <path d="M 1294 -63 
Q 784 -63 528 206 
Q 272 475 272 944 
Q 272 1278 398 1492 
Q 525 1706 729 1828 
Q 934 1950 1196 1997 
Q 1459 2044 1731 2050 
L 2491 2063 
L 2491 2247 
Q 2491 2456 2447 2603 
Q 2403 2750 2312 2840 
Q 2222 2931 2086 2973 
Q 1950 3016 1766 3016 
Q 1603 3016 1472 2992 
Q 1341 2969 1244 2908 
Q 1147 2847 1087 2742 
Q 1028 2638 1009 2478 
L 422 2531 
Q 453 2731 540 2898 
Q 628 3066 789 3187 
Q 950 3309 1192 3376 
Q 1434 3444 1778 3444 
Q 2416 3444 2737 3151 
Q 3059 2859 3059 2306 
L 3059 850 
Q 3059 600 3125 473 
Q 3191 347 3375 347 
Q 3422 347 3469 353 
Q 3516 359 3559 369 
L 3559 19 
Q 3453 -6 3348 -18 
Q 3244 -31 3125 -31 
Q 2966 -31 2852 11 
Q 2738 53 2666 139 
Q 2594 225 2556 351 
Q 2519 478 2509 647 
L 2491 647 
Q 2400 484 2292 353 
Q 2184 222 2040 130 
Q 1897 38 1714 -12 
Q 1531 -63 1294 -63 
z
M 1422 359 
Q 1691 359 1892 457 
Q 2094 556 2226 709 
Q 2359 863 2425 1044 
Q 2491 1225 2491 1391 
L 2491 1669 
L 1875 1656 
Q 1669 1653 1483 1626 
Q 1297 1600 1156 1522 
Q 1016 1444 933 1303 
Q 850 1163 850 934 
Q 850 659 998 509 
Q 1147 359 1422 359 
z
" id="LiberationSans-61" transform="scale(0.015625)"/>
       <path d="M 2969 934 
Q 2969 697 2876 511 
Q 2784 325 2609 198 
Q 2434 72 2179 4 
Q 1925 -63 1597 -63 
Q 1303 -63 1067 -17 
Q 831 28 653 128 
Q 475 228 354 392 
Q 234 556 178 794 
L 675 891 
Q 747 619 972 492 
Q 1197 366 1597 366 
Q 1778 366 1929 391 
Q 2081 416 2190 477 
Q 2300 538 2361 639 
Q 2422 741 2422 891 
Q 2422 1044 2350 1142 
Q 2278 1241 2150 1306 
Q 2022 1372 1839 1420 
Q 1656 1469 1438 1528 
Q 1234 1581 1034 1647 
Q 834 1713 673 1820 
Q 513 1928 413 2087 
Q 313 2247 313 2488 
Q 313 2950 642 3192 
Q 972 3434 1603 3434 
Q 2163 3434 2492 3237 
Q 2822 3041 2909 2606 
L 2403 2544 
Q 2375 2675 2300 2764 
Q 2225 2853 2119 2908 
Q 2013 2963 1880 2986 
Q 1747 3009 1603 3009 
Q 1222 3009 1040 2893 
Q 859 2778 859 2544 
Q 859 2406 926 2317 
Q 994 2228 1114 2167 
Q 1234 2106 1403 2061 
Q 1572 2016 1775 1966 
Q 1909 1931 2050 1892 
Q 2191 1853 2323 1798 
Q 2456 1744 2573 1670 
Q 2691 1597 2778 1494 
Q 2866 1391 2917 1253 
Q 2969 1116 2969 934 
z
" id="LiberationSans-73" transform="scale(0.015625)"/>
       <path d="M 2578 0 
L 2578 2144 
Q 2578 2391 2542 2556 
Q 2506 2722 2425 2823 
Q 2344 2925 2211 2967 
Q 2078 3009 1881 3009 
Q 1681 3009 1520 2939 
Q 1359 2869 1245 2736 
Q 1131 2603 1068 2408 
Q 1006 2213 1006 1959 
L 1006 0 
L 444 0 
L 444 2659 
Q 444 2766 442 2883 
Q 441 3000 437 3104 
Q 434 3209 431 3284 
Q 428 3359 425 3381 
L 956 3381 
Q 959 3366 962 3297 
Q 966 3228 970 3139 
Q 975 3050 978 2958 
Q 981 2866 981 2803 
L 991 2803 
Q 1072 2950 1169 3069 
Q 1266 3188 1394 3270 
Q 1522 3353 1687 3398 
Q 1853 3444 2072 3444 
Q 2353 3444 2556 3375 
Q 2759 3306 2890 3162 
Q 3022 3019 3083 2792 
Q 3144 2566 3144 2253 
L 3144 0 
L 2578 0 
z
" id="LiberationSans-6e" transform="scale(0.015625)"/>
       <path d="M 2566 544 
Q 2409 219 2151 78 
Q 1894 -63 1513 -63 
Q 872 -63 570 368 
Q 269 800 269 1675 
Q 269 3444 1513 3444 
Q 1897 3444 2153 3303 
Q 2409 3163 2566 2856 
L 2572 2856 
Q 2572 2888 2570 2955 
Q 2569 3022 2567 3095 
Q 2566 3169 2566 3234 
Q 2566 3300 2566 3328 
L 2566 4638 
L 3128 4638 
L 3128 697 
Q 3128 575 3129 462 
Q 3131 350 3134 256 
Q 3138 163 3141 95 
Q 3144 28 3147 0 
L 2609 0 
Q 2603 31 2598 89 
Q 2594 147 2589 222 
Q 2584 297 2581 380 
Q 2578 463 2578 544 
L 2566 544 
z
M 859 1694 
Q 859 1344 903 1094 
Q 947 844 1044 683 
Q 1141 522 1291 447 
Q 1441 372 1656 372 
Q 1878 372 2048 444 
Q 2219 516 2333 677 
Q 2447 838 2506 1097 
Q 2566 1356 2566 1731 
Q 2566 2091 2506 2339 
Q 2447 2588 2331 2741 
Q 2216 2894 2048 2961 
Q 1881 3028 1663 3028 
Q 1456 3028 1306 2956 
Q 1156 2884 1056 2725 
Q 956 2566 907 2311 
Q 859 2056 859 1694 
z
" id="LiberationSans-64" transform="scale(0.015625)"/>
       <path d="M 3291 1706 
Q 3291 1322 3228 997 
Q 3166 672 3020 437 
Q 2875 203 2636 70 
Q 2397 -63 2047 -63 
Q 1684 -63 1412 75 
Q 1141 213 997 525 
L 981 525 
Q 984 519 986 469 
Q 988 419 989 344 
Q 991 269 992 176 
Q 994 84 994 -6 
L 994 -1328 
L 431 -1328 
L 431 2691 
Q 431 2813 429 2925 
Q 428 3038 425 3130 
Q 422 3222 419 3287 
Q 416 3353 413 3381 
L 956 3381 
Q 959 3372 964 3315 
Q 969 3259 973 3179 
Q 978 3100 983 3009 
Q 988 2919 988 2838 
L 1000 2838 
Q 1078 3000 1178 3114 
Q 1278 3228 1406 3301 
Q 1534 3375 1692 3408 
Q 1850 3441 2047 3441 
Q 2397 3441 2636 3316 
Q 2875 3191 3020 2964 
Q 3166 2738 3228 2417 
Q 3291 2097 3291 1706 
z
M 2700 1694 
Q 2700 2006 2662 2250 
Q 2625 2494 2533 2662 
Q 2441 2831 2287 2918 
Q 2134 3006 1903 3006 
Q 1716 3006 1550 2953 
Q 1384 2900 1261 2750 
Q 1138 2600 1066 2336 
Q 994 2072 994 1650 
Q 994 1291 1053 1042 
Q 1113 794 1227 641 
Q 1341 488 1509 420 
Q 1678 353 1897 353 
Q 2131 353 2286 443 
Q 2441 534 2533 706 
Q 2625 878 2662 1126 
Q 2700 1375 2700 1694 
z
" id="LiberationSans-70" transform="scale(0.015625)"/>
       <path d="M 3291 1694 
Q 3291 806 2900 371 
Q 2509 -63 1766 -63 
Q 1413 -63 1134 43 
Q 856 150 664 369 
Q 472 588 370 917 
Q 269 1247 269 1694 
Q 269 3444 1784 3444 
Q 2178 3444 2464 3334 
Q 2750 3225 2933 3006 
Q 3116 2788 3203 2459 
Q 3291 2131 3291 1694 
z
M 2700 1694 
Q 2700 2088 2639 2344 
Q 2578 2600 2461 2753 
Q 2344 2906 2175 2967 
Q 2006 3028 1794 3028 
Q 1578 3028 1404 2964 
Q 1231 2900 1109 2745 
Q 988 2591 923 2334 
Q 859 2078 859 1694 
Q 859 1300 928 1042 
Q 997 784 1117 631 
Q 1238 478 1402 415 
Q 1566 353 1759 353 
Q 1975 353 2150 414 
Q 2325 475 2447 628 
Q 2569 781 2634 1040 
Q 2700 1300 2700 1694 
z
" id="LiberationSans-6f" transform="scale(0.015625)"/>
       <path d="M 859 1706 
Q 859 1416 901 1172 
Q 944 928 1044 751 
Q 1144 575 1308 478 
Q 1472 381 1713 381 
Q 2013 381 2214 543 
Q 2416 706 2463 1044 
L 3031 1006 
Q 3003 797 2909 603 
Q 2816 409 2655 262 
Q 2494 116 2262 26 
Q 2031 -63 1728 -63 
Q 1331 -63 1053 71 
Q 775 206 601 442 
Q 428 678 350 998 
Q 272 1319 272 1694 
Q 272 2034 328 2295 
Q 384 2556 486 2751 
Q 588 2947 725 3080 
Q 863 3213 1023 3292 
Q 1184 3372 1362 3408 
Q 1541 3444 1722 3444 
Q 2006 3444 2228 3366 
Q 2450 3288 2611 3152 
Q 2772 3016 2872 2831 
Q 2972 2647 3013 2434 
L 2434 2391 
Q 2391 2672 2212 2837 
Q 2034 3003 1706 3003 
Q 1466 3003 1305 2923 
Q 1144 2844 1044 2683 
Q 944 2522 901 2278 
Q 859 2034 859 1706 
z
" id="LiberationSans-63" transform="scale(0.015625)"/>
       <path d="M 991 2803 
Q 1084 2975 1193 3095 
Q 1303 3216 1434 3294 
Q 1566 3372 1722 3408 
Q 1878 3444 2072 3444 
Q 2397 3444 2605 3356 
Q 2813 3269 2933 3111 
Q 3053 2953 3098 2734 
Q 3144 2516 3144 2253 
L 3144 0 
L 2578 0 
L 2578 2144 
Q 2578 2359 2551 2521 
Q 2525 2684 2450 2792 
Q 2375 2900 2237 2954 
Q 2100 3009 1881 3009 
Q 1681 3009 1520 2937 
Q 1359 2866 1245 2734 
Q 1131 2603 1068 2415 
Q 1006 2228 1006 1994 
L 1006 0 
L 444 0 
L 444 4638 
L 1006 4638 
L 1006 3431 
Q 1006 3328 1003 3225 
Q 1000 3122 995 3034 
Q 991 2947 987 2886 
Q 984 2825 981 2803 
L 991 2803 
z
" id="LiberationSans-68" transform="scale(0.015625)"/>
      </defs>
      <use xlink:href="#LiberationSans-4e"/>
      <use x="72.216797" xlink:href="#LiberationSans-61"/>
      <use x="127.832031" xlink:href="#LiberationSans-6d"/>
      <use x="211.132812" xlink:href="#LiberationSans-65"/>
      <use x="266.748047" xlink:href="#LiberationSans-73"/>
      <use x="316.748047" xlink:href="#LiberationSans-20"/>
      <use x="344.53125" xlink:href="#LiberationSans-61"/>
      <use x="400.146484" xlink:href="#LiberationSans-6e"/>
      <use x="455.761719" xlink:href="#LiberationSans-64"/>
      <use x="511.376953" xlink:href="#LiberationSans-20"/>
      <use x="539.160156" xlink:href="#LiberationSans-65"/>
      <use x="594.775391" xlink:href="#LiberationSans-70"/>
      <use x="650.390625" xlink:href="#LiberationSans-6f"/>
      <use x="706.005859" xlink:href="#LiberationSans-63"/>
      <use x="756.005859" xlink:href="#LiberationSans-68"/>
      <use x="811.621094" xlink:href="#LiberationSans-73"/>
     </g>
    </g>
    <g id="line2d_39"/>
    <g id="line2d_40">
     <g>
      <use style="fill:#8c8680;" x="748.833508" xlink:href="#m2c4eb1321e" y="73.91915"/>
     </g>
    </g>
    <g id="text_19">
     <!-- 2021-07-01 00:01 (Mercury (☿)) -->
     <g style="fill:#262626;" transform="translate(766.833508 77.41915)scale(0.1 -0.1)">
      <defs>
       <path d="M 284 1450 
L 284 1950 
L 1847 1950 
L 1847 1450 
L 284 1450 
z
" id="LiberationSans-2d" transform="scale(0.015625)"/>
       <path d="M 3238 3947 
Q 2906 3441 2628 2973 
Q 2350 2506 2150 2032 
Q 1950 1559 1839 1061 
Q 1728 563 1728 0 
L 1141 0 
Q 1141 528 1266 1036 
Q 1391 1544 1603 2033 
Q 1816 2522 2097 2994 
Q 2378 3466 2694 3925 
L 328 3925 
L 328 4403 
L 3238 4403 
L 3238 3947 
z
" id="LiberationSans-37" transform="scale(0.015625)"/>
       <path d="M 584 2734 
L 584 3381 
L 1194 3381 
L 1194 2734 
L 584 2734 
z
M 584 0 
L 584 647 
L 1194 647 
L 1194 0 
L 584 0 
z
" id="LiberationSans-3a" transform="scale(0.015625)"/>
       <path d="M 4269 0 
L 4269 2938 
Q 4269 3097 4272 3262 
Q 4275 3428 4281 3566 
Q 4288 3725 4297 3875 
Q 4253 3716 4206 3559 
Q 4166 3425 4117 3273 
Q 4069 3122 4022 3000 
L 2884 0 
L 2466 0 
L 1313 3000 
Q 1294 3047 1273 3109 
Q 1253 3172 1229 3242 
Q 1206 3313 1182 3386 
Q 1159 3459 1138 3531 
Q 1084 3697 1034 3875 
Q 1038 3700 1044 3528 
Q 1050 3381 1053 3220 
Q 1056 3059 1056 2938 
L 1056 0 
L 525 0 
L 525 4403 
L 1309 4403 
L 2481 1350 
Q 2503 1288 2534 1189 
Q 2566 1091 2594 987 
Q 2622 884 2645 792 
Q 2669 700 2678 650 
Q 2688 700 2713 794 
Q 2738 888 2770 991 
Q 2803 1094 2834 1191 
Q 2866 1288 2891 1350 
L 4041 4403 
L 4806 4403 
L 4806 0 
L 4269 0 
z
" id="LiberationSans-4d" transform="scale(0.015625)"/>
       <path d="M 444 0 
L 444 2594 
Q 444 2700 442 2811 
Q 441 2922 437 3025 
Q 434 3128 431 3218 
Q 428 3309 425 3381 
L 956 3381 
Q 959 3309 964 3217 
Q 969 3125 973 3028 
Q 978 2931 979 2842 
Q 981 2753 981 2691 
L 994 2691 
Q 1053 2884 1120 3026 
Q 1188 3169 1278 3261 
Q 1369 3353 1494 3398 
Q 1619 3444 1797 3444 
Q 1866 3444 1928 3433 
Q 1991 3422 2025 3413 
L 2025 2897 
Q 1969 2913 1894 2920 
Q 1819 2928 1725 2928 
Q 1531 2928 1395 2840 
Q 1259 2753 1173 2598 
Q 1088 2444 1047 2230 
Q 1006 2016 1006 1763 
L 1006 0 
L 444 0 
z
" id="LiberationSans-72" transform="scale(0.015625)"/>
       <path d="M 981 3381 
L 981 1238 
Q 981 991 1017 825 
Q 1053 659 1134 557 
Q 1216 456 1348 414 
Q 1481 372 1678 372 
Q 1878 372 2039 442 
Q 2200 513 2314 645 
Q 2428 778 2490 973 
Q 2553 1169 2553 1422 
L 2553 3381 
L 3116 3381 
L 3116 722 
Q 3116 616 3117 498 
Q 3119 381 3122 276 
Q 3125 172 3128 97 
Q 3131 22 3134 0 
L 2603 0 
Q 2600 16 2597 84 
Q 2594 153 2589 242 
Q 2584 331 2581 423 
Q 2578 516 2578 578 
L 2569 578 
Q 2488 431 2391 312 
Q 2294 194 2166 111 
Q 2038 28 1872 -17 
Q 1706 -63 1488 -63 
Q 1206 -63 1003 6 
Q 800 75 669 219 
Q 538 363 477 588 
Q 416 813 416 1128 
L 416 3381 
L 981 3381 
z
" id="LiberationSans-75" transform="scale(0.015625)"/>
       <path d="M 1888 0 
Q 1769 -306 1645 -551 
Q 1522 -797 1369 -970 
Q 1216 -1144 1028 -1236 
Q 841 -1328 597 -1328 
Q 491 -1328 400 -1322 
Q 309 -1316 209 -1294 
L 209 -872 
Q 269 -881 344 -886 
Q 419 -891 472 -891 
Q 719 -891 931 -706 
Q 1144 -522 1303 -119 
L 1356 16 
L 16 3381 
L 616 3381 
L 1328 1513 
Q 1359 1428 1407 1287 
Q 1456 1147 1504 1006 
Q 1553 866 1590 753 
Q 1628 641 1634 613 
Q 1644 647 1680 748 
Q 1716 850 1761 975 
Q 1806 1100 1853 1228 
Q 1900 1356 1931 1450 
L 2594 3381 
L 3188 3381 
L 1888 0 
z
" id="LiberationSans-79" transform="scale(0.015625)"/>
       <path d="M 213 0 
L 213 4266 
L 1913 4266 
L 1913 0 
L 213 0 
z
M 425 213 
L 1700 213 
L 1700 4053 
L 425 4053 
L 425 213 
z
" id="LiberationSans-263f" transform="scale(0.015625)"/>
      </defs>
      <use xlink:href="#LiberationSans-32"/>
      <use x="55.615234" xlink:href="#LiberationSans-30"/>
      <use x="111.230469" xlink:href="#LiberationSans-32"/>
      <use x="166.845703" xlink:href="#LiberationSans-31"/>
      <use x="222.460938" xlink:href="#LiberationSans-2d"/>
      <use x="255.761719" xlink:href="#LiberationSans-30"/>
      <use x="311.376953" xlink:href="#LiberationSans-37"/>
      <use x="366.992188" xlink:href="#LiberationSans-2d"/>
      <use x="400.292969" xlink:href="#LiberationSans-30"/>
      <use x="455.908203" xlink:href="#LiberationSans-31"/>
      <use x="511.523438" xlink:href="#LiberationSans-20"/>
      <use x="539.306641" xlink:href="#LiberationSans-30"/>
      <use x="594.921875" xlink:href="#LiberationSans-30"/>
      <use x="650.537109" xlink:href="#LiberationSans-3a"/>
      <use x="678.320312" xlink:href="#LiberationSans-30"/>
      <use x="733.935547" xlink:href="#LiberationSans-31"/>
      <use x="789.550781" xlink:href="#LiberationSans-20"/>
      <use x="817.333984" xlink:href="#LiberationSans-28"/>
      <use x="850.634766" xlink:href="#LiberationSans-4d"/>
      <use x="933.935547" xlink:href="#LiberationSans-65"/>
      <use x="989.550781" xlink:href="#LiberationSans-72"/>
      <use x="1022.851562" xlink:href="#LiberationSans-63"/>
      <use x="1072.851562" xlink:href="#LiberationSans-75"/>
      <use x="1128.466797" xlink:href="#LiberationSans-72"/>
      <use x="1161.767578" xlink:href="#LiberationSans-79"/>
      <use x="1211.767578" xlink:href="#LiberationSans-20"/>
      <use x="1239.550781" xlink:href="#LiberationSans-28"/>
      <use x="1272.851562" xlink:href="#LiberationSans-263f"/>
      <use x="1309.375" xlink:href="#LiberationSans-29"/>
      <use x="1342.675781" xlink:href="#LiberationSans-29"/>
     </g>
    </g>
    <g id="line2d_41"/>
    <g id="line2d_42">
     <g>
      <use style="fill:#e6db67;" x="748.833508" xlink:href="#mcdf4b38f62" y="88.241025"/>
     </g>
    </g>
    <g id="text_20">
     <!-- 2021-07-01 00:01 (Venus (♀)) -->
     <g style="fill:#262626;" transform="translate(766.833508 91.741025)scale(0.1 -0.1)">
      <defs>
       <path d="M 2444 0 
L 1825 0 
L 28 4403 
L 656 4403 
L 1875 1303 
Q 1922 1163 1969 1023 
Q 2016 884 2053 775 
Q 2097 647 2138 525 
Q 2175 641 2219 769 
Q 2256 878 2301 1015 
Q 2347 1153 2400 1303 
L 3613 4403 
L 4241 4403 
L 2444 0 
z
" id="LiberationSans-56" transform="scale(0.015625)"/>
       <path d="M 2288 1806 
Q 2116 1831 1975 1903 
Q 1834 1975 1725 2106 
Q 1503 2356 1503 2694 
Q 1503 3075 1763 3334 
Q 1900 3469 2058 3536 
Q 2216 3603 2403 3603 
Q 2772 3603 3031 3334 
Q 3300 3075 3300 2694 
Q 3300 2353 3075 2100 
Q 2850 1844 2519 1806 
L 2519 1288 
L 3319 1288 
L 3319 1069 
L 2519 1069 
L 2519 250 
L 2288 250 
L 2288 1069 
L 1481 1069 
L 1481 1288 
L 2288 1288 
L 2288 1806 
z
M 2397 3341 
Q 2138 3341 1944 3156 
Q 1853 3059 1804 2948 
Q 1756 2838 1756 2700 
Q 1756 2566 1804 2455 
Q 1853 2344 1944 2247 
Q 2138 2053 2397 2053 
Q 2669 2053 2853 2247 
Q 3044 2438 3044 2700 
Q 3044 2838 2997 2948 
Q 2950 3059 2859 3156 
Q 2666 3341 2397 3341 
z
" id="LiberationSans-2640" transform="scale(0.015625)"/>
      </defs>
      <use xlink:href="#LiberationSans-32"/>
      <use x="55.615234" xlink:href="#LiberationSans-30"/>
      <use x="111.230469" xlink:href="#LiberationSans-32"/>
      <use x="166.845703" xlink:href="#LiberationSans-31"/>
      <use x="222.460938" xlink:href="#LiberationSans-2d"/>
      <use x="255.761719" xlink:href="#LiberationSans-30"/>
      <use x="311.376953" xlink:href="#LiberationSans-37"/>
      <use x="366.992188" xlink:href="#LiberationSans-2d"/>
      <use x="400.292969" xlink:href="#LiberationSans-30"/>
      <use x="455.908203" xlink:href="#LiberationSans-31"/>
      <use x="511.523438" xlink:href="#LiberationSans-20"/>
      <use x="539.306641" xlink:href="#LiberationSans-30"/>
      <use x="594.921875" xlink:href="#LiberationSans-30"/>
      <use x="650.537109" xlink:href="#LiberationSans-3a"/>
      <use x="678.320312" xlink:href="#LiberationSans-30"/>
      <use x="733.935547" xlink:href="#LiberationSans-31"/>
      <use x="789.550781" xlink:href="#LiberationSans-20"/>
      <use x="817.333984" xlink:href="#LiberationSans-28"/>
      <use x="850.634766" xlink:href="#LiberationSans-56"/>
      <use x="911.833984" xlink:href="#LiberationSans-65"/>
      <use x="967.449219" xlink:href="#LiberationSans-6e"/>
      <use x="1023.064453" xlink:href="#LiberationSans-75"/>
      <use x="1078.679688" xlink:href="#LiberationSans-73"/>
      <use x="1128.679688" xlink:href="#LiberationSans-20"/>
      <use x="1156.462891" xlink:href="#LiberationSans-28"/>
      <use x="1189.763672" xlink:href="#LiberationSans-2640"/>
      <use x="1264.763672" xlink:href="#LiberationSans-29"/>
      <use x="1298.064453" xlink:href="#LiberationSans-29"/>
     </g>
    </g>
    <g id="line2d_43"/>
    <g id="line2d_44">
     <g>
      <use style="fill:#2a7bd1;" x="748.833508" xlink:href="#m9209ea5427" y="102.5629"/>
     </g>
    </g>
    <g id="text_21">
     <!-- 2021-07-01 00:01 (Earth (♁)) -->
     <g style="fill:#262626;" transform="translate(766.833508 106.0629)scale(0.1 -0.1)">
      <defs>
       <path d="M 525 0 
L 525 4403 
L 3866 4403 
L 3866 3916 
L 1122 3916 
L 1122 2503 
L 3678 2503 
L 3678 2022 
L 1122 2022 
L 1122 488 
L 3994 488 
L 3994 0 
L 525 0 
z
" id="LiberationSans-45" transform="scale(0.015625)"/>
       <path d="M 1731 25 
Q 1603 -9 1470 -29 
Q 1338 -50 1163 -50 
Q 488 -50 488 716 
L 488 2972 
L 97 2972 
L 97 3381 
L 509 3381 
L 675 4138 
L 1050 4138 
L 1050 3381 
L 1675 3381 
L 1675 2972 
L 1050 2972 
L 1050 838 
Q 1050 594 1129 495 
Q 1209 397 1406 397 
Q 1488 397 1564 409 
Q 1641 422 1731 441 
L 1731 25 
z
" id="LiberationSans-74" transform="scale(0.015625)"/>
       <path d="M 213 0 
L 213 4266 
L 1913 4266 
L 1913 0 
L 213 0 
z
M 425 213 
L 1700 213 
L 1700 4053 
L 425 4053 
L 425 213 
z
" id="LiberationSans-2641" transform="scale(0.015625)"/>
      </defs>
      <use xlink:href="#LiberationSans-32"/>
      <use x="55.615234" xlink:href="#LiberationSans-30"/>
      <use x="111.230469" xlink:href="#LiberationSans-32"/>
      <use x="166.845703" xlink:href="#LiberationSans-31"/>
      <use x="222.460938" xlink:href="#LiberationSans-2d"/>
      <use x="255.761719" xlink:href="#LiberationSans-30"/>
      <use x="311.376953" xlink:href="#LiberationSans-37"/>
      <use x="366.992188" xlink:href="#LiberationSans-2d"/>
      <use x="400.292969" xlink:href="#LiberationSans-30"/>
      <use x="455.908203" xlink:href="#LiberationSans-31"/>
      <use x="511.523438" xlink:href="#LiberationSans-20"/>
      <use x="539.306641" xlink:href="#LiberationSans-30"/>
      <use x="594.921875" xlink:href="#LiberationSans-30"/>
      <use x="650.537109" xlink:href="#LiberationSans-3a"/>
      <use x="678.320312" xlink:href="#LiberationSans-30"/>
      <use x="733.935547" xlink:href="#LiberationSans-31"/>
      <use x="789.550781" xlink:href="#LiberationSans-20"/>
      <use x="817.333984" xlink:href="#LiberationSans-28"/>
      <use x="850.634766" xlink:href="#LiberationSans-45"/>
      <use x="917.333984" xlink:href="#LiberationSans-61"/>
      <use x="972.949219" xlink:href="#LiberationSans-72"/>
      <use x="1006.25" xlink:href="#LiberationSans-74"/>
      <use x="1034.033203" xlink:href="#LiberationSans-68"/>
      <use x="1089.648438" xlink:href="#LiberationSans-20"/>
      <use x="1117.431641" xlink:href="#LiberationSans-28"/>
      <use x="1150.732422" xlink:href="#LiberationSans-2641"/>
      <use x="1187.255859" xlink:href="#LiberationSans-29"/>
      <use x="1220.556641" xlink:href="#LiberationSans-29"/>
     </g>
    </g>
    <g id="line2d_45"/>
    <g id="line2d_46">
     <g>
      <use style="fill:#cc653f;" x="748.833508" xlink:href="#m4b7cf3223a" y="116.884775"/>
     </g>
    </g>
    <g id="text_22">
     <!-- 2021-07-01 00:01 (Mars (♂)) -->
     <g style="fill:#262626;" transform="translate(766.833508 120.384775)scale(0.1 -0.1)">
      <defs>
       <path d="M 3197 3200 
Q 3144 3216 3059 3244 
Q 2975 3272 2859 3316 
Q 2772 3350 2709 3387 
Q 2647 3425 2603 3469 
Q 2588 3478 2583 3493 
Q 2578 3509 2578 3525 
Q 2578 3550 2597 3578 
Q 2606 3584 2615 3587 
Q 2625 3591 2641 3591 
Q 2656 3591 2679 3587 
Q 2703 3584 2744 3578 
Q 2844 3553 2942 3539 
Q 3041 3525 3141 3525 
Q 3284 3525 3384 3536 
Q 3484 3547 3544 3566 
Q 3656 3603 3697 3603 
Q 3747 3603 3747 3559 
Q 3747 3531 3728 3475 
Q 3700 3369 3689 3245 
Q 3678 3122 3678 2981 
Q 3678 2884 3684 2784 
Q 3691 2684 3716 2578 
Q 3722 2544 3725 2519 
Q 3728 2494 3728 2478 
Q 3728 2463 3725 2452 
Q 3722 2441 3716 2431 
Q 3688 2413 3672 2413 
Q 3606 2413 3544 2534 
Q 3475 2666 3426 2794 
Q 3378 2922 3344 3053 
L 2603 2309 
Q 2866 2056 2866 1716 
Q 2866 1325 2597 1056 
Q 2325 781 1956 781 
Q 1588 781 1316 1044 
Q 1053 1306 1053 1672 
Q 1053 2038 1316 2309 
Q 1581 2578 1963 2578 
Q 2184 2578 2444 2444 
L 3197 3200 
z
M 1963 2344 
Q 1681 2344 1488 2150 
Q 1297 1959 1297 1684 
Q 1297 1400 1488 1209 
Q 1688 1019 1963 1019 
Q 2241 1019 2428 1209 
Q 2622 1403 2622 1684 
Q 2622 1956 2428 2150 
Q 2241 2344 1963 2344 
z
" id="LiberationSans-2642" transform="scale(0.015625)"/>
      </defs>
      <use xlink:href="#LiberationSans-32"/>
      <use x="55.615234" xlink:href="#LiberationSans-30"/>
      <use x="111.230469" xlink:href="#LiberationSans-32"/>
      <use x="166.845703" xlink:href="#LiberationSans-31"/>
      <use x="222.460938" xlink:href="#LiberationSans-2d"/>
      <use x="255.761719" xlink:href="#LiberationSans-30"/>
      <use x="311.376953" xlink:href="#LiberationSans-37"/>
      <use x="366.992188" xlink:href="#LiberationSans-2d"/>
      <use x="400.292969" xlink:href="#LiberationSans-30"/>
      <use x="455.908203" xlink:href="#LiberationSans-31"/>
      <use x="511.523438" xlink:href="#LiberationSans-20"/>
      <use x="539.306641" xlink:href="#LiberationSans-30"/>
      <use x="594.921875" xlink:href="#LiberationSans-30"/>
      <use x="650.537109" xlink:href="#LiberationSans-3a"/>
      <use x="678.320312" xlink:href="#LiberationSans-30"/>
      <use x="733.935547" xlink:href="#LiberationSans-31"/>
      <use x="789.550781" xlink:href="#LiberationSans-20"/>
      <use x="817.333984" xlink:href="#LiberationSans-28"/>
      <use x="850.634766" xlink:href="#LiberationSans-4d"/>
      <use x="933.935547" xlink:href="#LiberationSans-61"/>
      <use x="989.550781" xlink:href="#LiberationSans-72"/>
      <use x="1022.851562" xlink:href="#LiberationSans-73"/>
      <use x="1072.851562" xlink:href="#LiberationSans-20"/>
      <use x="1100.634766" xlink:href="#LiberationSans-28"/>
      <use x="1133.935547" xlink:href="#LiberationSans-2642"/>
      <use x="1208.935547" xlink:href="#LiberationSans-29"/>
      <use x="1242.236328" xlink:href="#LiberationSans-29"/>
     </g>
    </g>
    <g id="line2d_47"/>
    <g id="line2d_48">
     <g>
      <use x="748.833508" xlink:href="#m782025ec5a" y="131.20665"/>
     </g>
    </g>
    <g id="text_23">
     <!-- Ivar -->
     <g style="fill:#262626;" transform="translate(766.833508 134.70665)scale(0.1 -0.1)">
      <defs>
       <path d="M 591 0 
L 591 4403 
L 1188 4403 
L 1188 0 
L 591 0 
z
" id="LiberationSans-49" transform="scale(0.015625)"/>
       <path d="M 1916 0 
L 1250 0 
L 22 3381 
L 622 3381 
L 1366 1181 
Q 1388 1113 1417 1014 
Q 1447 916 1478 809 
Q 1509 703 1536 604 
Q 1563 506 1581 441 
Q 1600 506 1629 604 
Q 1659 703 1690 806 
Q 1722 909 1755 1007 
Q 1788 1106 1813 1175 
L 2581 3381 
L 3178 3381 
L 1916 0 
z
" id="LiberationSans-76" transform="scale(0.015625)"/>
      </defs>
      <use xlink:href="#LiberationSans-49"/>
      <use x="27.783203" xlink:href="#LiberationSans-76"/>
      <use x="77.783203" xlink:href="#LiberationSans-61"/>
      <use x="133.398438" xlink:href="#LiberationSans-72"/>
     </g>
    </g>
    <g id="line2d_49"/>
    <g id="line2d_50">
     <g>
      <use style="fill:#1f77b4;" x="748.833508" xlink:href="#m3c43399bc9" y="145.528525"/>
     </g>
    </g>
    <g id="text_24">
     <!-- 2021-07-01 00:01 (Ivar 1627) -->
     <g style="fill:#262626;" transform="translate(766.833508 149.028525)scale(0.1 -0.1)">
      <defs>
       <path d="M 3278 1441 
Q 3278 1109 3186 832 
Q 3094 556 2914 357 
Q 2734 159 2468 48 
Q 2203 -63 1856 -63 
Q 1472 -63 1184 84 
Q 897 231 706 507 
Q 516 784 420 1186 
Q 325 1588 325 2100 
Q 325 2688 433 3131 
Q 541 3575 744 3872 
Q 947 4169 1239 4319 
Q 1531 4469 1900 4469 
Q 2125 4469 2322 4422 
Q 2519 4375 2680 4270 
Q 2841 4166 2962 3994 
Q 3084 3822 3156 3572 
L 2619 3475 
Q 2531 3759 2339 3886 
Q 2147 4013 1894 4013 
Q 1663 4013 1475 3903 
Q 1288 3794 1156 3576 
Q 1025 3359 954 3031 
Q 884 2703 884 2266 
Q 1038 2550 1316 2698 
Q 1594 2847 1953 2847 
Q 2253 2847 2497 2750 
Q 2741 2653 2914 2470 
Q 3088 2288 3183 2027 
Q 3278 1766 3278 1441 
z
M 2706 1416 
Q 2706 1644 2650 1828 
Q 2594 2013 2481 2142 
Q 2369 2272 2203 2342 
Q 2038 2413 1819 2413 
Q 1666 2413 1509 2367 
Q 1353 2322 1226 2220 
Q 1100 2119 1020 1953 
Q 941 1788 941 1550 
Q 941 1306 1003 1095 
Q 1066 884 1183 728 
Q 1300 572 1465 481 
Q 1631 391 1838 391 
Q 2041 391 2202 461 
Q 2363 531 2475 664 
Q 2588 797 2647 987 
Q 2706 1178 2706 1416 
z
" id="LiberationSans-36" transform="scale(0.015625)"/>
      </defs>
      <use xlink:href="#LiberationSans-32"/>
      <use x="55.615234" xlink:href="#LiberationSans-30"/>
      <use x="111.230469" xlink:href="#LiberationSans-32"/>
      <use x="166.845703" xlink:href="#LiberationSans-31"/>
      <use x="222.460938" xlink:href="#LiberationSans-2d"/>
      <use x="255.761719" xlink:href="#LiberationSans-30"/>
      <use x="311.376953" xlink:href="#LiberationSans-37"/>
      <use x="366.992188" xlink:href="#LiberationSans-2d"/>
      <use x="400.292969" xlink:href="#LiberationSans-30"/>
      <use x="455.908203" xlink:href="#LiberationSans-31"/>
      <use x="511.523438" xlink:href="#LiberationSans-20"/>
      <use x="539.306641" xlink:href="#LiberationSans-30"/>
      <use x="594.921875" xlink:href="#LiberationSans-30"/>
      <use x="650.537109" xlink:href="#LiberationSans-3a"/>
      <use x="678.320312" xlink:href="#LiberationSans-30"/>
      <use x="733.935547" xlink:href="#LiberationSans-31"/>
      <use x="789.550781" xlink:href="#LiberationSans-20"/>
      <use x="817.333984" xlink:href="#LiberationSans-28"/>
      <use x="850.634766" xlink:href="#LiberationSans-49"/>
      <use x="878.417969" xlink:href="#LiberationSans-76"/>
      <use x="928.417969" xlink:href="#LiberationSans-61"/>
      <use x="984.033203" xlink:href="#LiberationSans-72"/>
      <use x="1017.333984" xlink:href="#LiberationSans-20"/>
      <use x="1045.117188" xlink:href="#LiberationSans-31"/>
      <use x="1100.732422" xlink:href="#LiberationSans-36"/>
      <use x="1156.347656" xlink:href="#LiberationSans-32"/>
      <use x="1211.962891" xlink:href="#LiberationSans-37"/>
      <use x="1267.578125" xlink:href="#LiberationSans-29"/>
     </g>
    </g>
   </g>
  </g>
 </g>
 <defs>
  <clipPath id="pdb208a3120">
   <rect height="332.64" width="387.697288" x="322.751356" y="51.84"/>
  </clipPath>
 </defs>
</svg>
