<?xml version="1.0" encoding="utf-8" standalone="no"?>
<!DOCTYPE svg PUBLIC "-//W3C//DTD SVG 1.1//EN"
  "http://www.w3.org/Graphics/SVG/1.1/DTD/svg11.dtd">
<svg height="432pt" version="1.1" viewBox="0 0 1008 432" width="1008pt" xmlns="http://www.w3.org/2000/svg" xmlns:xlink="http://www.w3.org/1999/xlink">
 <metadata>
  <rdf:RDF xmlns:cc="http://creativecommons.org/ns#" xmlns:dc="http://purl.org/dc/elements/1.1/" xmlns:rdf="http://www.w3.org/1999/02/22-rdf-syntax-ns#">
   <cc:Work>
    <dc:type rdf:resource="http://purl.org/dc/dcmitype/StillImage"/>
    <dc:date>2021-08-20T14:20:15.792967</dc:date>
    <dc:format>image/svg+xml</dc:format>
    <dc:creator>
     <cc:Agent>
      <dc:title>Matplotlib v3.4.2, https://matplotlib.org/</dc:title>
     </cc:Agent>
    </dc:creator>
   </cc:Work>
  </rdf:RDF>
 </metadata>
 <defs>
  <style type="text/css">*{stroke-linecap:butt;stroke-linejoin:round;}</style>
 </defs>
 <g id="figure_1">
  <g id="patch_1">
   <path d="M 0 432 
L 1008 432 
L 1008 0 
L 0 0 
z
" style="fill:#ffffff;"/>
  </g>
  <g id="axes_1">
   <g id="patch_2">
    <path d="M 306.215171 384.48 
L 726.984829 384.48 
L 726.984829 51.84 
L 306.215171 51.84 
z
" style="fill:#ffffff;"/>
   </g>
   <g id="matplotlib.axis_1">
    <g id="xtick_1">
     <g id="line2d_1">
      <path clip-path="url(#pa580489b71)" d="M 320.546864 384.48 
L 320.546864 51.84 
" style="fill:none;stroke:#cccccc;stroke-linecap:round;stroke-width:0.8;"/>
     </g>
     <g id="line2d_2"/>
     <g id="text_1">
      <!-- −4 -->
      <g style="fill:#262626;" transform="translate(314.846083 395.226875)scale(0.1 -0.1)">
       <defs>
        <path d="M 316 1900 
L 316 2356 
L 3425 2356 
L 3425 1900 
L 316 1900 
z
" id="LiberationSans-2212" transform="scale(0.015625)"/>
        <path d="M 2753 997 
L 2753 0 
L 2222 0 
L 2222 997 
L 147 997 
L 147 1434 
L 2163 4403 
L 2753 4403 
L 2753 1441 
L 3372 1441 
L 3372 997 
L 2753 997 
z
M 2222 3769 
Q 2216 3753 2191 3708 
Q 2166 3663 2134 3606 
Q 2103 3550 2070 3492 
Q 2038 3434 2013 3397 
L 884 1734 
Q 869 1709 839 1668 
Q 809 1628 778 1586 
Q 747 1544 715 1503 
Q 684 1463 666 1441 
L 2222 1441 
L 2222 3769 
z
" id="LiberationSans-34" transform="scale(0.015625)"/>
       </defs>
       <use xlink:href="#LiberationSans-2212"/>
       <use x="58.398438" xlink:href="#LiberationSans-34"/>
      </g>
     </g>
    </g>
    <g id="xtick_2">
     <g id="line2d_3">
      <path clip-path="url(#pa580489b71)" d="M 410.375186 384.48 
L 410.375186 51.84 
" style="fill:none;stroke:#cccccc;stroke-linecap:round;stroke-width:0.8;"/>
     </g>
     <g id="line2d_4"/>
     <g id="text_2">
      <!-- −2 -->
      <g style="fill:#262626;" transform="translate(404.674404 395.226875)scale(0.1 -0.1)">
       <defs>
        <path d="M 322 0 
L 322 397 
Q 481 763 711 1042 
Q 941 1322 1194 1548 
Q 1447 1775 1695 1969 
Q 1944 2163 2144 2356 
Q 2344 2550 2467 2762 
Q 2591 2975 2591 3244 
Q 2591 3431 2534 3573 
Q 2478 3716 2372 3812 
Q 2266 3909 2117 3957 
Q 1969 4006 1788 4006 
Q 1619 4006 1470 3959 
Q 1322 3913 1206 3819 
Q 1091 3725 1017 3586 
Q 944 3447 922 3263 
L 347 3316 
Q 375 3553 478 3762 
Q 581 3972 762 4130 
Q 944 4288 1198 4378 
Q 1453 4469 1788 4469 
Q 2116 4469 2372 4391 
Q 2628 4313 2804 4159 
Q 2981 4006 3075 3781 
Q 3169 3556 3169 3263 
Q 3169 3041 3089 2841 
Q 3009 2641 2876 2459 
Q 2744 2278 2569 2109 
Q 2394 1941 2203 1780 
Q 2013 1619 1819 1461 
Q 1625 1303 1454 1143 
Q 1284 984 1150 820 
Q 1016 656 941 478 
L 3238 478 
L 3238 0 
L 322 0 
z
" id="LiberationSans-32" transform="scale(0.015625)"/>
       </defs>
       <use xlink:href="#LiberationSans-2212"/>
       <use x="58.398438" xlink:href="#LiberationSans-32"/>
      </g>
     </g>
    </g>
    <g id="xtick_3">
     <g id="line2d_5">
      <path clip-path="url(#pa580489b71)" d="M 500.203507 384.48 
L 500.203507 51.84 
" style="fill:none;stroke:#cccccc;stroke-linecap:round;stroke-width:0.8;"/>
     </g>
     <g id="line2d_6"/>
     <g id="text_3">
      <!-- 0 -->
      <g style="fill:#262626;" transform="translate(497.423038 395.226875)scale(0.1 -0.1)">
       <defs>
        <path d="M 3309 2203 
Q 3309 1569 3189 1136 
Q 3069 703 2861 436 
Q 2653 169 2372 53 
Q 2091 -63 1772 -63 
Q 1450 -63 1172 53 
Q 894 169 689 434 
Q 484 700 367 1133 
Q 250 1566 250 2203 
Q 250 2869 367 3305 
Q 484 3741 690 4000 
Q 897 4259 1178 4364 
Q 1459 4469 1791 4469 
Q 2106 4469 2382 4364 
Q 2659 4259 2865 4000 
Q 3072 3741 3190 3305 
Q 3309 2869 3309 2203 
z
M 2738 2203 
Q 2738 2728 2675 3076 
Q 2613 3425 2491 3633 
Q 2369 3841 2192 3927 
Q 2016 4013 1791 4013 
Q 1553 4013 1372 3925 
Q 1191 3838 1067 3630 
Q 944 3422 881 3073 
Q 819 2725 819 2203 
Q 819 1697 883 1350 
Q 947 1003 1070 792 
Q 1194 581 1372 489 
Q 1550 397 1778 397 
Q 2000 397 2178 489 
Q 2356 581 2479 792 
Q 2603 1003 2670 1350 
Q 2738 1697 2738 2203 
z
" id="LiberationSans-30" transform="scale(0.015625)"/>
       </defs>
       <use xlink:href="#LiberationSans-30"/>
      </g>
     </g>
    </g>
    <g id="xtick_4">
     <g id="line2d_7">
      <path clip-path="url(#pa580489b71)" d="M 590.031828 384.48 
L 590.031828 51.84 
" style="fill:none;stroke:#cccccc;stroke-linecap:round;stroke-width:0.8;"/>
     </g>
     <g id="line2d_8"/>
     <g id="text_4">
      <!-- 2 -->
      <g style="fill:#262626;" transform="translate(587.25136 395.226875)scale(0.1 -0.1)">
       <use xlink:href="#LiberationSans-32"/>
      </g>
     </g>
    </g>
    <g id="xtick_5">
     <g id="line2d_9">
      <path clip-path="url(#pa580489b71)" d="M 679.86015 384.48 
L 679.86015 51.84 
" style="fill:none;stroke:#cccccc;stroke-linecap:round;stroke-width:0.8;"/>
     </g>
     <g id="line2d_10"/>
     <g id="text_5">
      <!-- 4 -->
      <g style="fill:#262626;" transform="translate(677.079681 395.226875)scale(0.1 -0.1)">
       <use xlink:href="#LiberationSans-34"/>
      </g>
     </g>
    </g>
    <g id="text_6">
     <!-- $x$ (km) -->
     <g style="fill:#262626;" transform="translate(502.25 408.601875)scale(0.1 -0.1)">
      <defs>
       <path d="M 3841 3500 
L 2234 1784 
L 3219 0 
L 2559 0 
L 1819 1388 
L 531 0 
L -166 0 
L 1556 1844 
L 641 3500 
L 1300 3500 
L 1972 2234 
L 3144 3500 
L 3841 3500 
z
" id="DejaVuSans-Oblique-78" transform="scale(0.015625)"/>
       <path id="LiberationSans-20" transform="scale(0.015625)"/>
       <path d="M 397 1663 
Q 397 2097 462 2494 
Q 528 2891 668 3256 
Q 809 3622 1028 3965 
Q 1247 4309 1550 4638 
L 2094 4638 
Q 1800 4309 1586 3964 
Q 1372 3619 1234 3251 
Q 1097 2884 1030 2487 
Q 963 2091 963 1656 
Q 963 1222 1030 825 
Q 1097 428 1234 59 
Q 1372 -309 1586 -653 
Q 1800 -997 2094 -1325 
L 1550 -1325 
Q 1247 -997 1028 -653 
Q 809 -309 668 56 
Q 528 422 462 817 
Q 397 1213 397 1650 
L 397 1663 
z
" id="LiberationSans-28" transform="scale(0.015625)"/>
       <path d="M 2550 0 
L 1406 1544 
L 994 1203 
L 994 0 
L 431 0 
L 431 4638 
L 994 4638 
L 994 1741 
L 2478 3381 
L 3138 3381 
L 1766 1928 
L 3209 0 
L 2550 0 
z
" id="LiberationSans-6b" transform="scale(0.015625)"/>
       <path d="M 2400 0 
L 2400 2144 
Q 2400 2391 2369 2556 
Q 2338 2722 2264 2823 
Q 2191 2925 2072 2967 
Q 1953 3009 1781 3009 
Q 1603 3009 1459 2939 
Q 1316 2869 1214 2736 
Q 1113 2603 1058 2408 
Q 1003 2213 1003 1959 
L 1003 0 
L 444 0 
L 444 2659 
Q 444 2766 442 2883 
Q 441 3000 437 3104 
Q 434 3209 431 3284 
Q 428 3359 425 3381 
L 956 3381 
Q 959 3366 962 3297 
Q 966 3228 970 3139 
Q 975 3050 978 2958 
Q 981 2866 981 2803 
L 991 2803 
Q 1066 2950 1153 3069 
Q 1241 3188 1358 3270 
Q 1475 3353 1626 3398 
Q 1778 3444 1978 3444 
Q 2363 3444 2586 3291 
Q 2809 3138 2897 2803 
L 2906 2803 
Q 2981 2950 3075 3069 
Q 3169 3188 3294 3270 
Q 3419 3353 3575 3398 
Q 3731 3444 3931 3444 
Q 4188 3444 4373 3375 
Q 4559 3306 4678 3162 
Q 4797 3019 4853 2792 
Q 4909 2566 4909 2253 
L 4909 0 
L 4353 0 
L 4353 2144 
Q 4353 2391 4322 2556 
Q 4291 2722 4217 2823 
Q 4144 2925 4025 2967 
Q 3906 3009 3734 3009 
Q 3556 3009 3412 2942 
Q 3269 2875 3167 2744 
Q 3066 2613 3011 2416 
Q 2956 2219 2956 1959 
L 2956 0 
L 2400 0 
z
" id="LiberationSans-6d" transform="scale(0.015625)"/>
       <path d="M 1734 1650 
Q 1734 1213 1668 817 
Q 1603 422 1462 56 
Q 1322 -309 1103 -653 
Q 884 -997 581 -1325 
L 38 -1325 
Q 331 -997 545 -653 
Q 759 -309 896 59 
Q 1034 428 1101 825 
Q 1169 1222 1169 1656 
Q 1169 2091 1101 2487 
Q 1034 2884 896 3251 
Q 759 3619 545 3964 
Q 331 4309 38 4638 
L 581 4638 
Q 884 4309 1103 3965 
Q 1322 3622 1462 3256 
Q 1603 2891 1668 2494 
Q 1734 2097 1734 1663 
L 1734 1650 
z
" id="LiberationSans-29" transform="scale(0.015625)"/>
      </defs>
      <use transform="translate(0 0.53125)" xlink:href="#DejaVuSans-Oblique-78"/>
      <use transform="translate(59.179688 0.53125)" xlink:href="#LiberationSans-20"/>
      <use transform="translate(86.962891 0.53125)" xlink:href="#LiberationSans-28"/>
      <use transform="translate(120.263672 0.53125)" xlink:href="#LiberationSans-6b"/>
      <use transform="translate(170.263672 0.53125)" xlink:href="#LiberationSans-6d"/>
      <use transform="translate(253.564453 0.53125)" xlink:href="#LiberationSans-29"/>
     </g>
    </g>
    <g id="text_7">
     <!-- 1e8 -->
     <g style="fill:#262626;" transform="translate(710.302017 407.54875)scale(0.1 -0.1)">
      <defs>
       <path d="M 488 0 
L 488 478 
L 1609 478 
L 1609 3866 
L 616 3156 
L 616 3688 
L 1656 4403 
L 2175 4403 
L 2175 478 
L 3247 478 
L 3247 0 
L 488 0 
z
" id="LiberationSans-31" transform="scale(0.015625)"/>
       <path d="M 863 1572 
Q 863 1306 917 1082 
Q 972 859 1086 698 
Q 1200 538 1378 448 
Q 1556 359 1806 359 
Q 2172 359 2392 506 
Q 2613 653 2691 878 
L 3184 738 
Q 3131 597 3036 455 
Q 2941 313 2781 198 
Q 2622 84 2383 10 
Q 2144 -63 1806 -63 
Q 1056 -63 664 384 
Q 272 831 272 1713 
Q 272 2188 390 2517 
Q 509 2847 715 3053 
Q 922 3259 1197 3351 
Q 1472 3444 1784 3444 
Q 2209 3444 2495 3306 
Q 2781 3169 2954 2926 
Q 3128 2684 3201 2356 
Q 3275 2028 3275 1647 
L 3275 1572 
L 863 1572 
z
M 2694 2003 
Q 2647 2538 2422 2783 
Q 2197 3028 1775 3028 
Q 1634 3028 1479 2983 
Q 1325 2938 1194 2822 
Q 1063 2706 972 2507 
Q 881 2309 869 2003 
L 2694 2003 
z
" id="LiberationSans-65" transform="scale(0.015625)"/>
       <path d="M 3281 1228 
Q 3281 947 3192 711 
Q 3103 475 2920 303 
Q 2738 131 2453 34 
Q 2169 -63 1781 -63 
Q 1394 -63 1111 34 
Q 828 131 642 301 
Q 456 472 367 708 
Q 278 944 278 1222 
Q 278 1463 351 1650 
Q 425 1838 548 1973 
Q 672 2109 830 2192 
Q 988 2275 1156 2303 
L 1156 2316 
Q 972 2359 826 2456 
Q 681 2553 582 2689 
Q 484 2825 432 2990 
Q 381 3156 381 3341 
Q 381 3572 470 3776 
Q 559 3981 734 4136 
Q 909 4291 1168 4380 
Q 1428 4469 1769 4469 
Q 2128 4469 2392 4378 
Q 2656 4288 2829 4133 
Q 3003 3978 3087 3772 
Q 3172 3566 3172 3334 
Q 3172 3153 3120 2987 
Q 3069 2822 2970 2686 
Q 2872 2550 2726 2454 
Q 2581 2359 2391 2322 
L 2391 2309 
Q 2581 2278 2743 2195 
Q 2906 2113 3025 1977 
Q 3144 1841 3212 1653 
Q 3281 1466 3281 1228 
z
M 2588 3303 
Q 2588 3469 2545 3606 
Q 2503 3744 2406 3842 
Q 2309 3941 2153 3995 
Q 1997 4050 1769 4050 
Q 1547 4050 1394 3995 
Q 1241 3941 1142 3842 
Q 1044 3744 1000 3606 
Q 956 3469 956 3303 
Q 956 3172 990 3034 
Q 1025 2897 1115 2784 
Q 1206 2672 1365 2600 
Q 1525 2528 1775 2528 
Q 2041 2528 2202 2600 
Q 2363 2672 2448 2784 
Q 2534 2897 2561 3034 
Q 2588 3172 2588 3303 
z
M 2697 1281 
Q 2697 1441 2653 1589 
Q 2609 1738 2503 1852 
Q 2397 1966 2217 2036 
Q 2038 2106 1769 2106 
Q 1522 2106 1348 2036 
Q 1175 1966 1067 1850 
Q 959 1734 909 1582 
Q 859 1431 859 1269 
Q 859 1066 909 898 
Q 959 731 1068 611 
Q 1178 491 1356 425 
Q 1534 359 1788 359 
Q 2044 359 2219 425 
Q 2394 491 2500 611 
Q 2606 731 2651 901 
Q 2697 1072 2697 1281 
z
" id="LiberationSans-38" transform="scale(0.015625)"/>
      </defs>
      <use xlink:href="#LiberationSans-31"/>
      <use x="55.615234" xlink:href="#LiberationSans-65"/>
      <use x="111.230469" xlink:href="#LiberationSans-38"/>
     </g>
    </g>
   </g>
   <g id="matplotlib.axis_2">
    <g id="ytick_1">
     <g id="line2d_11">
      <path clip-path="url(#pa580489b71)" d="M 306.215171 362.755725 
L 726.984829 362.755725 
" style="fill:none;stroke:#cccccc;stroke-linecap:round;stroke-width:0.8;"/>
     </g>
     <g id="line2d_12"/>
     <g id="text_8">
      <!-- −4 -->
      <g style="fill:#262626;" transform="translate(291.313608 366.379163)scale(0.1 -0.1)">
       <use xlink:href="#LiberationSans-2212"/>
       <use x="58.398438" xlink:href="#LiberationSans-34"/>
      </g>
     </g>
    </g>
    <g id="ytick_2">
     <g id="line2d_13">
      <path clip-path="url(#pa580489b71)" d="M 306.215171 317.841564 
L 726.984829 317.841564 
" style="fill:none;stroke:#cccccc;stroke-linecap:round;stroke-width:0.8;"/>
     </g>
     <g id="line2d_14"/>
     <g id="text_9">
      <!-- −3 -->
      <g style="fill:#262626;" transform="translate(291.313608 321.465002)scale(0.1 -0.1)">
       <defs>
        <path d="M 3278 1216 
Q 3278 913 3179 675 
Q 3081 438 2892 273 
Q 2703 109 2423 23 
Q 2144 -63 1784 -63 
Q 1375 -63 1095 39 
Q 816 141 634 308 
Q 453 475 362 689 
Q 272 903 244 1131 
L 825 1184 
Q 850 1009 917 865 
Q 984 722 1100 619 
Q 1216 516 1384 459 
Q 1553 403 1784 403 
Q 2209 403 2451 612 
Q 2694 822 2694 1234 
Q 2694 1478 2586 1626 
Q 2478 1775 2317 1858 
Q 2156 1941 1967 1969 
Q 1778 1997 1619 1997 
L 1300 1997 
L 1300 2484 
L 1606 2484 
Q 1766 2484 1937 2517 
Q 2109 2550 2251 2636 
Q 2394 2722 2486 2869 
Q 2578 3016 2578 3244 
Q 2578 3597 2370 3801 
Q 2163 4006 1753 4006 
Q 1381 4006 1151 3815 
Q 922 3625 884 3278 
L 319 3322 
Q 353 3613 478 3828 
Q 603 4044 795 4186 
Q 988 4328 1234 4398 
Q 1481 4469 1759 4469 
Q 2128 4469 2393 4376 
Q 2659 4284 2828 4126 
Q 2997 3969 3076 3756 
Q 3156 3544 3156 3303 
Q 3156 3109 3103 2940 
Q 3050 2772 2937 2637 
Q 2825 2503 2651 2406 
Q 2478 2309 2234 2259 
L 2234 2247 
Q 2500 2219 2697 2126 
Q 2894 2034 3022 1896 
Q 3150 1759 3214 1584 
Q 3278 1409 3278 1216 
z
" id="LiberationSans-33" transform="scale(0.015625)"/>
       </defs>
       <use xlink:href="#LiberationSans-2212"/>
       <use x="58.398438" xlink:href="#LiberationSans-33"/>
      </g>
     </g>
    </g>
    <g id="ytick_3">
     <g id="line2d_15">
      <path clip-path="url(#pa580489b71)" d="M 306.215171 272.927404 
L 726.984829 272.927404 
" style="fill:none;stroke:#cccccc;stroke-linecap:round;stroke-width:0.8;"/>
     </g>
     <g id="line2d_16"/>
     <g id="text_10">
      <!-- −2 -->
      <g style="fill:#262626;" transform="translate(291.313608 276.550841)scale(0.1 -0.1)">
       <use xlink:href="#LiberationSans-2212"/>
       <use x="58.398438" xlink:href="#LiberationSans-32"/>
      </g>
     </g>
    </g>
    <g id="ytick_4">
     <g id="line2d_17">
      <path clip-path="url(#pa580489b71)" d="M 306.215171 228.013243 
L 726.984829 228.013243 
" style="fill:none;stroke:#cccccc;stroke-linecap:round;stroke-width:0.8;"/>
     </g>
     <g id="line2d_18"/>
     <g id="text_11">
      <!-- −1 -->
      <g style="fill:#262626;" transform="translate(291.313608 231.63668)scale(0.1 -0.1)">
       <use xlink:href="#LiberationSans-2212"/>
       <use x="58.398438" xlink:href="#LiberationSans-31"/>
      </g>
     </g>
    </g>
    <g id="ytick_5">
     <g id="line2d_19">
      <path clip-path="url(#pa580489b71)" d="M 306.215171 183.099082 
L 726.984829 183.099082 
" style="fill:none;stroke:#cccccc;stroke-linecap:round;stroke-width:0.8;"/>
     </g>
     <g id="line2d_20"/>
     <g id="text_12">
      <!-- 0 -->
      <g style="fill:#262626;" transform="translate(297.154233 186.72252)scale(0.1 -0.1)">
       <use xlink:href="#LiberationSans-30"/>
      </g>
     </g>
    </g>
    <g id="ytick_6">
     <g id="line2d_21">
      <path clip-path="url(#pa580489b71)" d="M 306.215171 138.184922 
L 726.984829 138.184922 
" style="fill:none;stroke:#cccccc;stroke-linecap:round;stroke-width:0.8;"/>
     </g>
     <g id="line2d_22"/>
     <g id="text_13">
      <!-- 1 -->
      <g style="fill:#262626;" transform="translate(297.154233 141.808359)scale(0.1 -0.1)">
       <use xlink:href="#LiberationSans-31"/>
      </g>
     </g>
    </g>
    <g id="ytick_7">
     <g id="line2d_23">
      <path clip-path="url(#pa580489b71)" d="M 306.215171 93.270761 
L 726.984829 93.270761 
" style="fill:none;stroke:#cccccc;stroke-linecap:round;stroke-width:0.8;"/>
     </g>
     <g id="line2d_24"/>
     <g id="text_14">
      <!-- 2 -->
      <g style="fill:#262626;" transform="translate(297.154233 96.894198)scale(0.1 -0.1)">
       <use xlink:href="#LiberationSans-32"/>
      </g>
     </g>
    </g>
    <g id="text_15">
     <!-- $y$ (km) -->
     <g style="fill:#262626;" transform="translate(285.213608 232.51)rotate(-90)scale(0.1 -0.1)">
      <defs>
       <path d="M 1588 -325 
Q 1188 -997 936 -1164 
Q 684 -1331 294 -1331 
L -159 -1331 
L -63 -850 
L 269 -850 
Q 509 -850 678 -719 
Q 847 -588 1056 -206 
L 1234 128 
L 459 3500 
L 1069 3500 
L 1650 819 
L 3256 3500 
L 3859 3500 
L 1588 -325 
z
" id="DejaVuSans-Oblique-79" transform="scale(0.015625)"/>
      </defs>
      <use transform="translate(0 0.53125)" xlink:href="#DejaVuSans-Oblique-79"/>
      <use transform="translate(59.179688 0.53125)" xlink:href="#LiberationSans-20"/>
      <use transform="translate(86.962891 0.53125)" xlink:href="#LiberationSans-28"/>
      <use transform="translate(120.263672 0.53125)" xlink:href="#LiberationSans-6b"/>
      <use transform="translate(170.263672 0.53125)" xlink:href="#LiberationSans-6d"/>
      <use transform="translate(253.564453 0.53125)" xlink:href="#LiberationSans-29"/>
     </g>
    </g>
    <g id="text_16">
     <!-- 1e8 -->
     <g style="fill:#262626;" transform="translate(306.215171 48.84)scale(0.1 -0.1)">
      <use xlink:href="#LiberationSans-31"/>
      <use x="55.615234" xlink:href="#LiberationSans-65"/>
      <use x="111.230469" xlink:href="#LiberationSans-38"/>
     </g>
    </g>
   </g>
   <g id="patch_3">
    <path clip-path="url(#pa580489b71)" d="M 500.203507 186.21325 
C 501.029394 186.21325 501.821566 185.885122 502.405556 185.301132 
C 502.989547 184.717141 503.317675 183.924969 503.317675 183.099082 
C 503.317675 182.273195 502.989547 181.481023 502.405556 180.897033 
C 501.821566 180.313043 501.029394 179.984914 500.203507 179.984914 
C 499.37762 179.984914 498.585448 180.313043 498.001458 180.897033 
C 497.417467 181.481023 497.089339 182.273195 497.089339 183.099082 
C 497.089339 183.924969 497.417467 184.717141 498.001458 185.301132 
C 498.585448 185.885122 499.37762 186.21325 500.203507 186.21325 
z
" style="fill:#ffcc00;"/>
   </g>
   <g id="line2d_25">
    <path clip-path="url(#pa580489b71)" d="M 490.161737 74.105748 
L 485.120668 72.668883 
L 480.018088 71.42836 
L 474.86307 70.386383 
L 469.664778 69.544805 
L 464.432456 68.905123 
L 459.175406 68.468473 
L 453.902975 68.235632 
L 448.624537 68.207014 
L 443.349477 68.38267 
L 438.087175 68.762288 
L 432.846985 69.345192 
L 427.638225 70.130347 
L 422.470157 71.116356 
L 417.351967 72.301466 
L 412.292758 73.68357 
L 407.301523 75.260211 
L 402.387137 77.028586 
L 397.558338 78.98555 
L 392.82371 81.127624 
L 388.191672 83.451 
L 383.67046 85.951546 
L 379.268112 88.624817 
L 374.992455 91.46606 
L 370.851092 94.470223 
L 366.851385 97.631965 
L 363.000445 100.945664 
L 359.305121 104.405429 
L 355.77198 108.005109 
L 352.407307 111.738303 
L 349.217082 115.598374 
L 346.206978 119.578458 
L 343.382347 123.67148 
L 340.748211 127.870162 
L 338.309253 132.167039 
L 336.06981 136.554471 
L 334.033863 141.024658 
L 332.205032 145.569652 
L 330.586569 150.181372 
L 329.181351 154.851618 
L 327.991877 159.572087 
L 327.020261 164.334387 
L 326.268232 169.130049 
L 325.737125 173.950547 
L 325.427886 178.787312 
L 325.341064 183.631743 
L 325.476814 188.475226 
L 325.834894 193.309151 
L 326.414667 198.124923 
L 327.215104 202.913979 
L 328.23478 207.667806 
L 329.471882 212.37795 
L 330.924212 217.036037 
L 332.589187 221.633785 
L 334.463846 226.163021 
L 336.544857 230.61569 
L 338.82852 234.983876 
L 341.310774 239.259813 
L 343.987206 243.435899 
L 346.853058 247.504707 
L 349.903234 251.459005 
L 353.13231 255.291762 
L 356.534547 258.996162 
L 360.103894 262.56562 
L 363.834005 265.99379 
L 367.71825 269.274576 
L 371.74972 272.402145 
L 375.92125 275.370936 
L 380.225421 278.175672 
L 384.654582 280.811364 
L 389.200856 283.273328 
L 393.856163 285.557186 
L 398.612223 287.658877 
L 403.460581 289.574664 
L 408.392618 291.301142 
L 413.399563 292.83524 
L 418.472515 294.174232 
L 423.602455 295.315735 
L 428.78026 296.257722 
L 433.996727 296.998517 
L 439.242579 297.536803 
L 444.50849 297.871623 
L 449.785097 298.002381 
L 455.063019 297.928846 
L 460.332872 297.651147 
L 465.585285 297.169779 
L 470.810922 296.485597 
L 476.000489 295.599819 
L 481.144761 294.514018 
L 486.234592 293.230125 
L 491.260931 291.750424 
L 496.214843 290.077544 
L 501.087519 288.214461 
L 505.870295 286.164486 
L 510.554669 283.931265 
L 515.132312 281.518768 
L 519.595084 278.931284 
L 523.935051 276.173414 
L 528.144496 273.250061 
L 532.215937 270.166423 
L 536.142133 266.927983 
L 539.916104 263.540498 
L 543.53114 260.009991 
L 546.980813 256.342739 
L 550.258991 252.545262 
L 553.359844 248.624313 
L 556.27786 244.586862 
L 559.007851 240.440089 
L 561.544962 236.191365 
L 563.884682 231.848245 
L 566.022853 227.418451 
L 567.955671 222.909858 
L 569.679702 218.330483 
L 571.191878 213.688469 
L 572.489513 208.992067 
L 573.570298 204.249629 
L 574.432312 199.469586 
L 575.074023 194.660436 
L 575.494289 189.830731 
L 575.692364 184.989057 
L 575.667894 180.144023 
L 575.420924 175.304243 
L 574.951893 170.478322 
L 574.261635 165.674841 
L 573.351377 160.902338 
L 572.222736 156.169301 
L 570.877721 151.484144 
L 569.318722 146.855198 
L 567.548512 142.290691 
L 565.570237 137.79874 
L 563.387415 133.387332 
L 561.003927 129.06431 
L 558.42401 124.837359 
L 555.652252 120.713995 
L 552.693581 116.70155 
L 549.553257 112.807157 
L 546.236863 109.037741 
L 542.750296 105.400003 
L 539.099755 101.900411 
L 535.291731 98.545188 
L 531.332994 95.340298 
L 527.230582 92.29144 
L 522.991789 89.404035 
L 518.624153 86.683216 
L 514.135437 84.133821 
L 509.533624 81.760383 
L 504.826895 79.567121 
L 500.023618 77.557936 
L 495.132333 75.736398 
L 490.161737 74.105748 
L 490.161737 74.105748 
" style="fill:none;stroke:#1f77b4;stroke-dasharray:5.55,2.4;stroke-dashoffset:0;stroke-width:1.5;"/>
   </g>
   <g id="line2d_26">
    <defs>
     <path d="M 0 3 
C 0.795609 3 1.55874 2.683901 2.12132 2.12132 
C 2.683901 1.55874 3 0.795609 3 0 
C 3 -0.795609 2.683901 -1.55874 2.12132 -2.12132 
C 1.55874 -2.683901 0.795609 -3 0 -3 
C -0.795609 -3 -1.55874 -2.683901 -2.12132 -2.12132 
C -2.683901 -1.55874 -3 -0.795609 -3 0 
C -3 0.795609 -2.683901 1.55874 -2.12132 2.12132 
C -1.55874 2.683901 -0.795609 3 0 3 
z
" id="m1a2c5d436e"/>
    </defs>
    <g clip-path="url(#pa580489b71)">
     <use style="fill:#1f77b4;" x="490.161737" xlink:href="#m1a2c5d436e" y="74.105748"/>
    </g>
   </g>
   <g id="line2d_27">
    <path clip-path="url(#pa580489b71)" d="M 388.489717 69.459802 
L 385.373639 69.920998 
L 382.346547 70.509883 
L 379.413824 71.225409 
L 376.580683 72.066304 
L 373.852163 73.031074 
L 371.233114 74.118002 
L 368.728192 75.325157 
L 366.341853 76.650392 
L 364.078337 78.091351 
L 361.94167 79.645472 
L 359.935651 81.309992 
L 358.063846 83.081952 
L 356.329584 84.9582 
L 354.735947 86.935401 
L 353.285769 89.010039 
L 351.981629 91.178427 
L 350.825845 93.436708 
L 349.820472 95.780868 
L 348.967298 98.206738 
L 348.26784 100.710006 
L 347.723341 103.286221 
L 347.334769 105.930802 
L 347.102815 108.639047 
L 347.027892 111.406142 
L 347.110133 114.227166 
L 347.349391 117.097105 
L 347.745242 120.010854 
L 348.296981 122.963234 
L 349.003627 125.948995 
L 349.863925 128.962829 
L 350.876344 131.999378 
L 352.039084 135.053242 
L 353.350078 138.118991 
L 354.806996 141.191176 
L 356.407246 144.264334 
L 358.147984 147.333 
L 360.026115 150.391719 
L 362.038299 153.435053 
L 364.180959 156.45759 
L 366.450286 159.453957 
L 368.842243 162.418827 
L 371.35258 165.346927 
L 373.976832 168.233052 
L 376.710333 171.07207 
L 382.485459 176.588688 
L 388.636904 181.857565 
L 395.120939 186.841248 
L 401.891471 191.504307 
L 408.90037 195.813595 
L 416.097813 199.738478 
L 423.432635 203.251056 
L 430.852695 206.326359 
L 438.305246 208.942525 
L 442.027148 210.072489 
L 445.73731 211.080957 
L 449.429133 211.966137 
L 453.096054 212.726454 
L 456.731554 213.360556 
L 460.329169 213.867317 
L 463.882502 214.245835 
L 467.385236 214.495438 
L 470.831142 214.615681 
L 474.214094 214.60635 
L 477.528078 214.467463 
L 480.767201 214.199266 
L 483.925705 213.802236 
L 486.997973 213.27708 
L 489.978543 212.624729 
L 492.862115 211.846346 
L 495.643564 210.943313 
L 498.317943 209.917235 
L 500.880498 208.769939 
L 503.326672 207.503462 
L 505.652117 206.120057 
L 507.852697 204.622184 
L 509.924501 203.012506 
L 511.863844 201.293885 
L 513.667278 199.469375 
L 515.331598 197.542222 
L 516.853844 195.515852 
L 518.231309 193.393867 
L 519.461544 191.180041 
L 520.542363 188.878309 
L 521.471843 186.492764 
L 522.248331 184.027647 
L 522.870448 181.487341 
L 523.337088 178.876363 
L 523.647419 176.199354 
L 523.800892 173.461075 
L 523.797232 170.666395 
L 523.636447 167.820281 
L 523.318822 164.927794 
L 522.844922 161.994078 
L 522.215589 159.024347 
L 521.431943 156.023882 
L 520.495377 152.998018 
L 519.407555 149.952135 
L 518.170413 146.891648 
L 516.786149 143.821999 
L 515.257226 140.748644 
L 513.58636 137.67705 
L 511.776523 134.612676 
L 509.830933 131.560971 
L 507.753049 128.527361 
L 505.546566 125.51724 
L 503.215406 122.535959 
L 500.763713 119.588819 
L 498.195848 116.68106 
L 495.516376 113.817853 
L 489.841856 108.245364 
L 483.78049 102.910966 
L 477.375369 97.85258 
L 470.672023 93.106165 
L 463.718104 88.70546 
L 456.563047 84.681749 
L 449.257713 81.063636 
L 441.854035 77.876841 
L 434.404643 75.144017 
L 430.679351 73.954046 
L 426.962492 72.884592 
L 423.260677 71.937558 
L 419.580487 71.114626 
L 415.928464 70.417262 
L 412.311103 69.846703 
L 408.734834 69.403965 
L 405.206017 69.089835 
L 401.730924 68.904871 
L 398.315736 68.849403 
L 394.966523 68.923528 
L 391.689241 69.127115 
L 388.489717 69.459802 
L 388.489717 69.459802 
" style="fill:none;stroke:#ff7f0e;stroke-dasharray:5.55,2.4;stroke-dashoffset:0;stroke-width:1.5;"/>
   </g>
   <g id="line2d_28">
    <defs>
     <path d="M 0 3 
C 0.795609 3 1.55874 2.683901 2.12132 2.12132 
C 2.683901 1.55874 3 0.795609 3 0 
C 3 -0.795609 2.683901 -1.55874 2.12132 -2.12132 
C 1.55874 -2.683901 0.795609 -3 0 -3 
C -0.795609 -3 -1.55874 -2.683901 -2.12132 -2.12132 
C -2.683901 -1.55874 -3 -0.795609 -3 0 
C -3 0.795609 -2.683901 1.55874 -2.12132 2.12132 
C -1.55874 2.683901 -0.795609 3 0 3 
z
" id="mdec7a04d8b"/>
    </defs>
    <g clip-path="url(#pa580489b71)">
     <use style="fill:#ff7f0e;" x="388.489717" xlink:href="#mdec7a04d8b" y="69.459802"/>
    </g>
   </g>
   <g id="line2d_29">
    <path clip-path="url(#pa580489b71)" d="M 426.384132 222.804367 
L 428.58834 225.842453 
L 430.904121 228.76727 
L 433.327358 231.573617 
L 435.853741 234.256505 
L 438.478779 236.811164 
L 441.197805 239.233052 
L 444.005985 241.517863 
L 446.898325 243.661534 
L 449.869683 245.660253 
L 452.914777 247.510469 
L 456.028191 249.20889 
L 459.204392 250.752497 
L 462.43773 252.138546 
L 465.722459 253.364572 
L 469.052737 254.428396 
L 472.422643 255.328125 
L 475.826187 256.062161 
L 479.257315 256.629197 
L 482.709929 257.028227 
L 486.177889 257.258541 
L 489.65503 257.319728 
L 493.135169 257.211681 
L 496.612119 256.934591 
L 500.079698 256.488952 
L 503.53174 255.875554 
L 506.962109 255.09549 
L 510.364704 254.150145 
L 513.733477 253.041202 
L 517.062437 251.77063 
L 520.345666 250.34069 
L 523.577327 248.753924 
L 526.751673 247.013152 
L 529.863061 245.121471 
L 532.90596 243.082243 
L 535.874957 240.899094 
L 538.764776 238.575906 
L 541.570278 236.116808 
L 544.286475 233.526174 
L 546.908537 230.80861 
L 549.431803 227.968946 
L 551.851787 225.012232 
L 554.164185 221.943726 
L 556.364886 218.768881 
L 558.449978 215.493344 
L 560.415754 212.122938 
L 562.258718 208.663656 
L 563.975593 205.121647 
L 565.563328 201.50321 
L 567.019098 197.814779 
L 568.340317 194.06291 
L 569.524634 190.254274 
L 570.569944 186.395644 
L 571.474389 182.49388 
L 572.23636 178.555918 
L 572.854503 174.588761 
L 573.327719 170.599462 
L 573.655166 166.595114 
L 573.836262 162.582836 
L 573.870685 158.569762 
L 573.758374 154.563027 
L 573.499529 150.569755 
L 573.09461 146.597046 
L 572.544336 142.651963 
L 571.849687 138.741521 
L 571.011897 134.872671 
L 570.032456 131.052293 
L 568.913104 127.28718 
L 567.655833 123.584024 
L 566.262878 119.949412 
L 564.736716 116.389803 
L 563.080059 112.911529 
L 561.295853 109.520772 
L 559.387271 106.223562 
L 557.357706 103.02576 
L 555.210766 99.933053 
L 552.950269 96.950939 
L 550.580233 94.08472 
L 548.104873 91.339492 
L 545.52859 88.720136 
L 542.855963 86.23131 
L 540.091746 83.877438 
L 537.240853 81.662705 
L 534.308352 79.591049 
L 531.299457 77.666153 
L 528.219518 75.89144 
L 525.074011 74.270066 
L 521.868529 72.804912 
L 518.608771 71.498584 
L 515.300533 70.353405 
L 511.949696 69.37141 
L 508.562218 68.554346 
L 505.144122 67.903665 
L 501.701486 67.420525 
L 498.24043 67.105783 
L 494.767107 66.96 
L 491.287694 66.983435 
L 487.808376 67.176046 
L 484.33534 67.537491 
L 480.87476 68.067128 
L 477.432789 68.764013 
L 474.015548 69.62691 
L 470.629111 70.654282 
L 467.2795 71.844304 
L 463.972671 73.19486 
L 460.714501 74.703549 
L 457.510786 76.367688 
L 454.36722 78.184318 
L 451.289392 80.150209 
L 448.282776 82.261867 
L 445.352716 84.515537 
L 442.504423 86.907211 
L 439.74296 89.432638 
L 437.073237 92.087328 
L 434.500001 94.86656 
L 432.027827 97.765393 
L 429.66111 100.778673 
L 427.404059 103.901042 
L 425.260685 107.12695 
L 423.234801 110.45066 
L 421.330008 113.866264 
L 419.549693 117.367687 
L 417.897021 120.948706 
L 416.37493 124.602952 
L 414.986126 128.32393 
L 413.73308 132.105022 
L 412.618019 135.939507 
L 411.642924 139.820567 
L 410.809531 143.741302 
L 410.119321 147.69474 
L 409.57352 151.673852 
L 409.1731 155.671565 
L 408.918771 159.680769 
L 408.810988 163.694337 
L 408.84994 167.705133 
L 409.035559 171.706026 
L 409.367515 175.689902 
L 409.845218 179.649678 
L 410.467818 183.578314 
L 411.234208 187.468824 
L 412.143026 191.314293 
L 413.192655 195.107882 
L 414.38123 198.842846 
L 415.706638 202.512546 
L 417.166522 206.110456 
L 418.758285 209.63018 
L 420.479099 213.065459 
L 422.325903 216.410186 
L 424.295415 219.658414 
L 426.384132 222.804367 
L 426.384132 222.804367 
" style="fill:none;stroke:#2ca02c;stroke-dasharray:5.55,2.4;stroke-dashoffset:0;stroke-width:1.5;"/>
   </g>
   <g id="line2d_30">
    <defs>
     <path d="M 0 3 
C 0.795609 3 1.55874 2.683901 2.12132 2.12132 
C 2.683901 1.55874 3 0.795609 3 0 
C 3 -0.795609 2.683901 -1.55874 2.12132 -2.12132 
C 1.55874 -2.683901 0.795609 -3 0 -3 
C -0.795609 -3 -1.55874 -2.683901 -2.12132 -2.12132 
C -2.683901 -1.55874 -3 -0.795609 -3 0 
C -3 0.795609 -2.683901 1.55874 -2.12132 2.12132 
C -1.55874 2.683901 -0.795609 3 0 3 
z
" id="me618dafb6d"/>
    </defs>
    <g clip-path="url(#pa580489b71)">
     <use style="fill:#2ca02c;" x="426.384132" xlink:href="#me618dafb6d" y="222.804367"/>
    </g>
   </g>
   <g id="line2d_31">
    <path clip-path="url(#pa580489b71)" d="M 508.662848 270.121533 
L 513.040633 268.328562 
L 517.325199 266.407085 
L 521.508927 264.360518 
L 525.58438 262.192501 
L 529.54431 259.906887 
L 533.381679 257.507742 
L 537.089662 254.99933 
L 540.661668 252.38611 
L 544.091344 249.672731 
L 547.372595 246.864015 
L 550.499585 243.964956 
L 553.466754 240.98071 
L 556.268828 237.916581 
L 558.900825 234.778018 
L 561.358064 231.570601 
L 563.636177 228.300033 
L 565.731114 224.972128 
L 567.639149 221.592803 
L 569.356891 218.168067 
L 570.881284 214.70401 
L 572.20962 211.206789 
L 573.339536 207.682622 
L 574.269024 204.137777 
L 574.99643 200.578554 
L 575.520461 197.011283 
L 575.840186 193.442305 
L 575.955036 189.877967 
L 575.864808 186.324606 
L 575.56966 182.788539 
L 575.070119 179.276053 
L 574.367072 175.793394 
L 573.46177 172.346753 
L 572.355821 168.942259 
L 571.051193 165.585964 
L 569.550205 162.283836 
L 567.855525 159.041746 
L 565.970167 155.865458 
L 563.897482 152.76062 
L 561.641157 149.732752 
L 559.205202 146.787237 
L 556.593948 143.929312 
L 553.812039 141.164059 
L 550.86442 138.496394 
L 547.756333 135.931061 
L 544.493303 133.472619 
L 541.081131 131.125441 
L 537.525886 128.893699 
L 533.833886 126.781362 
L 530.011698 124.792185 
L 526.066116 122.929704 
L 522.004156 121.197232 
L 517.83304 119.597848 
L 513.560183 118.134396 
L 509.193183 116.809479 
L 504.739804 115.625451 
L 500.207965 114.584417 
L 495.605722 113.68823 
L 490.941258 112.938482 
L 486.222866 112.336506 
L 481.458936 111.883372 
L 476.657938 111.579887 
L 471.828407 111.426589 
L 466.978931 111.423752 
L 462.118131 111.57138 
L 457.25465 111.869211 
L 452.397135 112.316715 
L 447.554222 112.913097 
L 442.734522 113.657296 
L 437.946605 114.547989 
L 433.198982 115.583593 
L 428.500096 116.762266 
L 423.8583 118.081913 
L 419.281847 119.540187 
L 414.778875 121.134496 
L 410.357389 122.862005 
L 406.025251 124.719642 
L 401.790162 126.704105 
L 397.659654 128.811866 
L 393.641069 131.039176 
L 389.741552 133.382076 
L 385.968038 135.836401 
L 382.327234 138.397786 
L 378.825615 141.061677 
L 375.469405 143.823339 
L 372.264573 146.67786 
L 369.216815 149.620167 
L 366.331552 152.645027 
L 363.613913 155.747062 
L 361.068729 158.920758 
L 358.700527 162.160471 
L 356.513516 165.460441 
L 354.511585 168.814801 
L 352.698294 172.217587 
L 351.076865 175.66275 
L 349.650183 179.144163 
L 348.420784 182.655637 
L 347.390854 186.190929 
L 346.562223 189.743753 
L 345.936365 193.307792 
L 345.514393 196.87671 
L 345.297057 200.44416 
L 345.284744 204.003801 
L 345.477474 207.549303 
L 345.874907 211.074363 
L 346.476335 214.572713 
L 347.280688 218.038134 
L 348.286537 221.464463 
L 349.492093 224.845609 
L 350.895214 228.175561 
L 352.493403 231.448397 
L 354.28382 234.6583 
L 356.263281 237.799561 
L 358.428268 240.866596 
L 360.774929 243.853951 
L 363.299095 246.756316 
L 365.996275 249.56853 
L 368.861676 252.285593 
L 371.890202 254.902674 
L 375.07647 257.41512 
L 378.414812 259.818464 
L 381.899295 262.108432 
L 385.523724 264.280955 
L 389.281653 266.332168 
L 393.166401 268.258425 
L 397.171062 270.056301 
L 401.288516 271.7226 
L 405.511441 273.254358 
L 409.83233 274.648853 
L 414.243499 275.903604 
L 418.737107 277.016382 
L 423.305164 277.985208 
L 427.939548 278.808359 
L 432.632018 279.484371 
L 437.374233 280.012043 
L 442.157761 280.390437 
L 446.974096 280.618879 
L 451.814675 280.696964 
L 456.670893 280.624552 
L 461.534114 280.401773 
L 466.395693 280.029023 
L 471.246985 279.506964 
L 476.079365 278.836525 
L 480.884242 278.018897 
L 485.653072 277.055534 
L 490.377376 275.948149 
L 495.048756 274.698711 
L 499.658905 273.309442 
L 504.199626 271.782811 
L 508.662848 270.121533 
L 508.662848 270.121533 
" style="fill:none;stroke:#d62728;stroke-dasharray:5.55,2.4;stroke-dashoffset:0;stroke-width:1.5;"/>
   </g>
   <g id="line2d_32">
    <defs>
     <path d="M 0 3 
C 0.795609 3 1.55874 2.683901 2.12132 2.12132 
C 2.683901 1.55874 3 0.795609 3 0 
C 3 -0.795609 2.683901 -1.55874 2.12132 -2.12132 
C 1.55874 -2.683901 0.795609 -3 0 -3 
C -0.795609 -3 -1.55874 -2.683901 -2.12132 -2.12132 
C -2.683901 -1.55874 -3 -0.795609 -3 0 
C -3 0.795609 -2.683901 1.55874 -2.12132 2.12132 
C -1.55874 2.683901 -0.795609 3 0 3 
z
" id="me6002e9e30"/>
    </defs>
    <g clip-path="url(#pa580489b71)">
     <use style="fill:#d62728;" x="508.662848" xlink:href="#me6002e9e30" y="270.121533"/>
    </g>
   </g>
   <g id="line2d_33">
    <path clip-path="url(#pa580489b71)" d="M 631.865632 355.515995 
L 637.272276 352.862071 
L 642.539818 349.991639 
L 647.658893 346.909802 
L 652.620398 343.622039 
L 657.415514 340.134198 
L 662.035713 336.452477 
L 666.472781 332.583424 
L 670.71883 328.533918 
L 674.76631 324.311158 
L 678.608025 319.922653 
L 682.237145 315.376205 
L 685.647216 310.679897 
L 688.832177 305.842079 
L 691.786364 300.871353 
L 694.504525 295.776556 
L 696.981827 290.566747 
L 699.213865 285.251189 
L 701.196671 279.839333 
L 702.92672 274.3408 
L 704.400936 268.765367 
L 705.616698 263.122947 
L 706.571843 257.423571 
L 707.264675 251.677374 
L 707.69396 245.894571 
L 707.858936 240.085444 
L 707.759309 234.260322 
L 707.395257 228.429561 
L 706.767427 222.603529 
L 705.876935 216.792584 
L 704.725364 211.007057 
L 703.314763 205.257235 
L 701.647637 199.55334 
L 699.726953 193.905516 
L 697.556125 188.323801 
L 695.139012 182.818122 
L 692.479912 177.398267 
L 689.583552 172.073872 
L 686.455084 166.854403 
L 683.100067 161.749141 
L 679.524469 156.767163 
L 675.734646 151.917326 
L 671.737335 147.208254 
L 667.539646 142.648318 
L 663.14904 138.245627 
L 658.573323 134.008008 
L 653.820633 129.942995 
L 648.899417 126.057816 
L 643.818428 122.359379 
L 638.586697 118.854259 
L 633.213527 115.548688 
L 627.708471 112.448544 
L 622.081318 109.559338 
L 616.342071 106.886207 
L 610.500936 104.433904 
L 604.568296 102.20679 
L 598.554702 100.208823 
L 592.470843 98.443556 
L 586.327538 96.914128 
L 580.135708 95.623258 
L 573.906364 94.573241 
L 567.650579 93.765944 
L 561.379477 93.202802 
L 555.104208 92.884817 
L 548.835929 92.812554 
L 542.585784 92.986142 
L 536.364886 93.405271 
L 530.184296 94.069197 
L 524.055002 94.976739 
L 517.987902 96.126283 
L 511.993783 97.515786 
L 506.083303 99.142778 
L 500.26697 101.004365 
L 494.555126 103.097238 
L 488.957925 105.417675 
L 483.48532 107.961552 
L 478.14704 110.724344 
L 472.952577 113.70114 
L 467.911166 116.886648 
L 463.031772 120.275203 
L 458.323068 123.860781 
L 453.793427 127.637007 
L 449.450903 131.597167 
L 445.303217 135.73422 
L 441.357742 140.040809 
L 437.621495 144.509279 
L 434.101117 149.131685 
L 430.802867 153.899808 
L 427.732611 158.80517 
L 424.895807 163.83905 
L 422.297498 168.992498 
L 419.942304 174.256352 
L 417.834413 179.621252 
L 415.977573 185.077659 
L 414.375084 190.615873 
L 413.029797 196.226047 
L 411.944102 201.898205 
L 411.11993 207.622264 
L 410.558747 213.388046 
L 410.26155 219.185299 
L 410.228868 225.003717 
L 410.460759 230.832954 
L 410.956811 236.662646 
L 411.71614 242.482428 
L 412.737399 248.281954 
L 414.01877 254.05091 
L 415.557976 259.779042 
L 417.352279 265.456163 
L 419.39849 271.072181 
L 421.692971 276.61711 
L 424.231642 282.081092 
L 427.009989 287.454412 
L 430.023073 292.727516 
L 433.265536 297.891028 
L 436.731614 302.93577 
L 440.415143 307.85277 
L 444.309576 312.633287 
L 448.407987 317.268821 
L 452.703089 321.751131 
L 457.187247 326.072247 
L 461.852487 330.224486 
L 466.690516 334.200465 
L 471.69273 337.993116 
L 476.850237 341.595696 
L 482.153866 345.001798 
L 487.594188 348.205368 
L 493.16153 351.200709 
L 498.845993 353.982496 
L 504.637472 356.545782 
L 510.525668 358.886011 
L 516.500113 360.999021 
L 522.550184 362.881057 
L 528.665125 364.52877 
L 534.834064 365.939233 
L 541.046032 367.109936 
L 547.289984 368.0388 
L 553.55482 368.724171 
L 559.8294 369.164833 
L 566.102569 369.36 
L 572.363172 369.309327 
L 578.60008 369.012902 
L 584.802203 368.471255 
L 590.958513 367.685346 
L 597.058066 366.656574 
L 603.090016 365.386768 
L 609.043638 363.878185 
L 614.908348 362.133508 
L 620.673718 360.155839 
L 626.329498 357.948693 
L 631.865632 355.515995 
L 631.865632 355.515995 
" style="fill:none;stroke:#9467bd;stroke-dasharray:5.55,2.4;stroke-dashoffset:0;stroke-width:1.5;"/>
   </g>
   <g id="line2d_34">
    <defs>
     <path d="M 0 3 
C 0.795609 3 1.55874 2.683901 2.12132 2.12132 
C 2.683901 1.55874 3 0.795609 3 0 
C 3 -0.795609 2.683901 -1.55874 2.12132 -2.12132 
C 1.55874 -2.683901 0.795609 -3 0 -3 
C -0.795609 -3 -1.55874 -2.683901 -2.12132 -2.12132 
C -2.683901 -1.55874 -3 -0.795609 -3 0 
C -3 0.795609 -2.683901 1.55874 -2.12132 2.12132 
C -1.55874 2.683901 -0.795609 3 0 3 
z
" id="m3c4ba5ee5e"/>
    </defs>
    <g clip-path="url(#pa580489b71)">
     <use style="fill:#9467bd;" x="631.865632" xlink:href="#m3c4ba5ee5e" y="355.515995"/>
    </g>
   </g>
   <g id="line2d_35">
    <path clip-path="url(#pa580489b71)" d="M 464.887588 178.387508 
L 466.101717 182.392368 
L 467.632017 186.236004 
L 469.467609 189.891093 
L 471.595445 193.331652 
L 474.000397 196.533222 
L 476.665371 199.473045 
L 479.571421 202.130223 
L 482.697889 204.485867 
L 486.022551 206.52323 
L 489.521773 208.22783 
L 493.170678 209.58755 
L 496.943329 210.592724 
L 500.812907 211.236205 
L 504.751904 211.513421 
L 508.732319 211.4224 
L 512.725857 210.963789 
L 516.704129 210.140848 
L 520.638853 208.959428 
L 524.502061 207.427927 
L 528.266289 205.557232 
L 531.904778 203.36064 
L 535.391664 200.853767 
L 538.702159 198.054434 
L 541.812731 194.98254 
L 544.701267 191.659922 
L 547.347233 188.1102 
L 549.731819 184.358607 
L 551.838076 180.431813 
L 553.65103 176.357732 
L 555.157792 172.165324 
L 556.347653 167.884394 
L 557.212154 163.545372 
L 557.745149 159.179104 
L 557.942849 154.816627 
L 557.803849 150.488954 
L 557.329138 146.226848 
L 556.522089 142.060608 
L 555.38844 138.01985 
L 553.936249 134.133298 
L 552.17584 130.428581 
L 550.119727 126.932034 
L 547.782526 123.668514 
L 545.180852 120.661219 
L 542.333199 117.931528 
L 539.25981 115.498845 
L 535.982533 113.380464 
L 532.524665 111.591443 
L 528.910787 110.1445 
L 525.166589 109.04992 
L 521.318688 108.315486 
L 517.394436 107.946417 
L 513.421731 107.945337 
L 509.428812 108.312254 
L 505.444065 109.04456 
L 501.495816 110.137049 
L 497.612131 111.581955 
L 493.820619 113.369006 
L 490.148232 115.485498 
L 486.621077 117.916387 
L 483.264226 120.644392 
L 480.101542 123.65012 
L 477.155508 126.912204 
L 474.447066 130.407456 
L 471.995471 134.111029 
L 469.818149 137.996594 
L 467.930578 142.036531 
L 466.346177 146.202122 
L 465.076208 150.463753 
L 464.1297 154.791132 
L 463.513381 159.153494 
L 463.231632 163.519831 
L 463.286456 167.859103 
L 463.677463 172.140463 
L 464.401874 176.333476 
L 464.887588 178.387508 
L 464.887588 178.387508 
" style="fill:none;stroke:#8c564b;stroke-dasharray:5.55,2.4;stroke-dashoffset:0;stroke-width:1.5;"/>
   </g>
   <g id="line2d_36">
    <defs>
     <path d="M 0 3 
C 0.795609 3 1.55874 2.683901 2.12132 2.12132 
C 2.683901 1.55874 3 0.795609 3 0 
C 3 -0.795609 2.683901 -1.55874 2.12132 -2.12132 
C 1.55874 -2.683901 0.795609 -3 0 -3 
C -0.795609 -3 -1.55874 -2.683901 -2.12132 -2.12132 
C -2.683901 -1.55874 -3 -0.795609 -3 0 
C -3 0.795609 -2.683901 1.55874 -2.12132 2.12132 
C -1.55874 2.683901 -0.795609 3 0 3 
z
" id="mec0853c67c"/>
    </defs>
    <g clip-path="url(#pa580489b71)">
     <use style="fill:#8c564b;" x="464.887588" xlink:href="#mec0853c67c" y="178.387508"/>
    </g>
   </g>
   <g id="patch_4">
    <path d="M 306.215171 384.48 
L 306.215171 51.84 
" style="fill:none;stroke:#cccccc;stroke-linecap:square;stroke-linejoin:miter;"/>
   </g>
   <g id="patch_5">
    <path d="M 726.984829 384.48 
L 726.984829 51.84 
" style="fill:none;stroke:#cccccc;stroke-linecap:square;stroke-linejoin:miter;"/>
   </g>
   <g id="patch_6">
    <path d="M 306.215171 384.48 
L 726.984829 384.48 
" style="fill:none;stroke:#cccccc;stroke-linecap:square;stroke-linejoin:miter;"/>
   </g>
   <g id="patch_7">
    <path d="M 306.215171 51.84 
L 726.984829 51.84 
" style="fill:none;stroke:#cccccc;stroke-linecap:square;stroke-linejoin:miter;"/>
   </g>
   <g id="legend_1">
    <g id="text_17">
     <!-- Names and epochs -->
     <g style="fill:#262626;" transform="translate(798.824875 63.097275)scale(0.1 -0.1)">
      <defs>
       <path d="M 3381 0 
L 1025 3750 
Q 1031 3597 1041 3447 
Q 1047 3319 1051 3176 
Q 1056 3034 1056 2925 
L 1056 0 
L 525 0 
L 525 4403 
L 1219 4403 
L 3600 628 
Q 3591 781 3581 934 
Q 3575 1066 3569 1220 
Q 3563 1375 3563 1516 
L 3563 4403 
L 4100 4403 
L 4100 0 
L 3381 0 
z
" id="LiberationSans-4e" transform="scale(0.015625)"/>
       <path d="M 1294 -63 
Q 784 -63 528 206 
Q 272 475 272 944 
Q 272 1278 398 1492 
Q 525 1706 729 1828 
Q 934 1950 1196 1997 
Q 1459 2044 1731 2050 
L 2491 2063 
L 2491 2247 
Q 2491 2456 2447 2603 
Q 2403 2750 2312 2840 
Q 2222 2931 2086 2973 
Q 1950 3016 1766 3016 
Q 1603 3016 1472 2992 
Q 1341 2969 1244 2908 
Q 1147 2847 1087 2742 
Q 1028 2638 1009 2478 
L 422 2531 
Q 453 2731 540 2898 
Q 628 3066 789 3187 
Q 950 3309 1192 3376 
Q 1434 3444 1778 3444 
Q 2416 3444 2737 3151 
Q 3059 2859 3059 2306 
L 3059 850 
Q 3059 600 3125 473 
Q 3191 347 3375 347 
Q 3422 347 3469 353 
Q 3516 359 3559 369 
L 3559 19 
Q 3453 -6 3348 -18 
Q 3244 -31 3125 -31 
Q 2966 -31 2852 11 
Q 2738 53 2666 139 
Q 2594 225 2556 351 
Q 2519 478 2509 647 
L 2491 647 
Q 2400 484 2292 353 
Q 2184 222 2040 130 
Q 1897 38 1714 -12 
Q 1531 -63 1294 -63 
z
M 1422 359 
Q 1691 359 1892 457 
Q 2094 556 2226 709 
Q 2359 863 2425 1044 
Q 2491 1225 2491 1391 
L 2491 1669 
L 1875 1656 
Q 1669 1653 1483 1626 
Q 1297 1600 1156 1522 
Q 1016 1444 933 1303 
Q 850 1163 850 934 
Q 850 659 998 509 
Q 1147 359 1422 359 
z
" id="LiberationSans-61" transform="scale(0.015625)"/>
       <path d="M 2969 934 
Q 2969 697 2876 511 
Q 2784 325 2609 198 
Q 2434 72 2179 4 
Q 1925 -63 1597 -63 
Q 1303 -63 1067 -17 
Q 831 28 653 128 
Q 475 228 354 392 
Q 234 556 178 794 
L 675 891 
Q 747 619 972 492 
Q 1197 366 1597 366 
Q 1778 366 1929 391 
Q 2081 416 2190 477 
Q 2300 538 2361 639 
Q 2422 741 2422 891 
Q 2422 1044 2350 1142 
Q 2278 1241 2150 1306 
Q 2022 1372 1839 1420 
Q 1656 1469 1438 1528 
Q 1234 1581 1034 1647 
Q 834 1713 673 1820 
Q 513 1928 413 2087 
Q 313 2247 313 2488 
Q 313 2950 642 3192 
Q 972 3434 1603 3434 
Q 2163 3434 2492 3237 
Q 2822 3041 2909 2606 
L 2403 2544 
Q 2375 2675 2300 2764 
Q 2225 2853 2119 2908 
Q 2013 2963 1880 2986 
Q 1747 3009 1603 3009 
Q 1222 3009 1040 2893 
Q 859 2778 859 2544 
Q 859 2406 926 2317 
Q 994 2228 1114 2167 
Q 1234 2106 1403 2061 
Q 1572 2016 1775 1966 
Q 1909 1931 2050 1892 
Q 2191 1853 2323 1798 
Q 2456 1744 2573 1670 
Q 2691 1597 2778 1494 
Q 2866 1391 2917 1253 
Q 2969 1116 2969 934 
z
" id="LiberationSans-73" transform="scale(0.015625)"/>
       <path d="M 2578 0 
L 2578 2144 
Q 2578 2391 2542 2556 
Q 2506 2722 2425 2823 
Q 2344 2925 2211 2967 
Q 2078 3009 1881 3009 
Q 1681 3009 1520 2939 
Q 1359 2869 1245 2736 
Q 1131 2603 1068 2408 
Q 1006 2213 1006 1959 
L 1006 0 
L 444 0 
L 444 2659 
Q 444 2766 442 2883 
Q 441 3000 437 3104 
Q 434 3209 431 3284 
Q 428 3359 425 3381 
L 956 3381 
Q 959 3366 962 3297 
Q 966 3228 970 3139 
Q 975 3050 978 2958 
Q 981 2866 981 2803 
L 991 2803 
Q 1072 2950 1169 3069 
Q 1266 3188 1394 3270 
Q 1522 3353 1687 3398 
Q 1853 3444 2072 3444 
Q 2353 3444 2556 3375 
Q 2759 3306 2890 3162 
Q 3022 3019 3083 2792 
Q 3144 2566 3144 2253 
L 3144 0 
L 2578 0 
z
" id="LiberationSans-6e" transform="scale(0.015625)"/>
       <path d="M 2566 544 
Q 2409 219 2151 78 
Q 1894 -63 1513 -63 
Q 872 -63 570 368 
Q 269 800 269 1675 
Q 269 3444 1513 3444 
Q 1897 3444 2153 3303 
Q 2409 3163 2566 2856 
L 2572 2856 
Q 2572 2888 2570 2955 
Q 2569 3022 2567 3095 
Q 2566 3169 2566 3234 
Q 2566 3300 2566 3328 
L 2566 4638 
L 3128 4638 
L 3128 697 
Q 3128 575 3129 462 
Q 3131 350 3134 256 
Q 3138 163 3141 95 
Q 3144 28 3147 0 
L 2609 0 
Q 2603 31 2598 89 
Q 2594 147 2589 222 
Q 2584 297 2581 380 
Q 2578 463 2578 544 
L 2566 544 
z
M 859 1694 
Q 859 1344 903 1094 
Q 947 844 1044 683 
Q 1141 522 1291 447 
Q 1441 372 1656 372 
Q 1878 372 2048 444 
Q 2219 516 2333 677 
Q 2447 838 2506 1097 
Q 2566 1356 2566 1731 
Q 2566 2091 2506 2339 
Q 2447 2588 2331 2741 
Q 2216 2894 2048 2961 
Q 1881 3028 1663 3028 
Q 1456 3028 1306 2956 
Q 1156 2884 1056 2725 
Q 956 2566 907 2311 
Q 859 2056 859 1694 
z
" id="LiberationSans-64" transform="scale(0.015625)"/>
       <path d="M 3291 1706 
Q 3291 1322 3228 997 
Q 3166 672 3020 437 
Q 2875 203 2636 70 
Q 2397 -63 2047 -63 
Q 1684 -63 1412 75 
Q 1141 213 997 525 
L 981 525 
Q 984 519 986 469 
Q 988 419 989 344 
Q 991 269 992 176 
Q 994 84 994 -6 
L 994 -1328 
L 431 -1328 
L 431 2691 
Q 431 2813 429 2925 
Q 428 3038 425 3130 
Q 422 3222 419 3287 
Q 416 3353 413 3381 
L 956 3381 
Q 959 3372 964 3315 
Q 969 3259 973 3179 
Q 978 3100 983 3009 
Q 988 2919 988 2838 
L 1000 2838 
Q 1078 3000 1178 3114 
Q 1278 3228 1406 3301 
Q 1534 3375 1692 3408 
Q 1850 3441 2047 3441 
Q 2397 3441 2636 3316 
Q 2875 3191 3020 2964 
Q 3166 2738 3228 2417 
Q 3291 2097 3291 1706 
z
M 2700 1694 
Q 2700 2006 2662 2250 
Q 2625 2494 2533 2662 
Q 2441 2831 2287 2918 
Q 2134 3006 1903 3006 
Q 1716 3006 1550 2953 
Q 1384 2900 1261 2750 
Q 1138 2600 1066 2336 
Q 994 2072 994 1650 
Q 994 1291 1053 1042 
Q 1113 794 1227 641 
Q 1341 488 1509 420 
Q 1678 353 1897 353 
Q 2131 353 2286 443 
Q 2441 534 2533 706 
Q 2625 878 2662 1126 
Q 2700 1375 2700 1694 
z
" id="LiberationSans-70" transform="scale(0.015625)"/>
       <path d="M 3291 1694 
Q 3291 806 2900 371 
Q 2509 -63 1766 -63 
Q 1413 -63 1134 43 
Q 856 150 664 369 
Q 472 588 370 917 
Q 269 1247 269 1694 
Q 269 3444 1784 3444 
Q 2178 3444 2464 3334 
Q 2750 3225 2933 3006 
Q 3116 2788 3203 2459 
Q 3291 2131 3291 1694 
z
M 2700 1694 
Q 2700 2088 2639 2344 
Q 2578 2600 2461 2753 
Q 2344 2906 2175 2967 
Q 2006 3028 1794 3028 
Q 1578 3028 1404 2964 
Q 1231 2900 1109 2745 
Q 988 2591 923 2334 
Q 859 2078 859 1694 
Q 859 1300 928 1042 
Q 997 784 1117 631 
Q 1238 478 1402 415 
Q 1566 353 1759 353 
Q 1975 353 2150 414 
Q 2325 475 2447 628 
Q 2569 781 2634 1040 
Q 2700 1300 2700 1694 
z
" id="LiberationSans-6f" transform="scale(0.015625)"/>
       <path d="M 859 1706 
Q 859 1416 901 1172 
Q 944 928 1044 751 
Q 1144 575 1308 478 
Q 1472 381 1713 381 
Q 2013 381 2214 543 
Q 2416 706 2463 1044 
L 3031 1006 
Q 3003 797 2909 603 
Q 2816 409 2655 262 
Q 2494 116 2262 26 
Q 2031 -63 1728 -63 
Q 1331 -63 1053 71 
Q 775 206 601 442 
Q 428 678 350 998 
Q 272 1319 272 1694 
Q 272 2034 328 2295 
Q 384 2556 486 2751 
Q 588 2947 725 3080 
Q 863 3213 1023 3292 
Q 1184 3372 1362 3408 
Q 1541 3444 1722 3444 
Q 2006 3444 2228 3366 
Q 2450 3288 2611 3152 
Q 2772 3016 2872 2831 
Q 2972 2647 3013 2434 
L 2434 2391 
Q 2391 2672 2212 2837 
Q 2034 3003 1706 3003 
Q 1466 3003 1305 2923 
Q 1144 2844 1044 2683 
Q 944 2522 901 2278 
Q 859 2034 859 1706 
z
" id="LiberationSans-63" transform="scale(0.015625)"/>
       <path d="M 991 2803 
Q 1084 2975 1193 3095 
Q 1303 3216 1434 3294 
Q 1566 3372 1722 3408 
Q 1878 3444 2072 3444 
Q 2397 3444 2605 3356 
Q 2813 3269 2933 3111 
Q 3053 2953 3098 2734 
Q 3144 2516 3144 2253 
L 3144 0 
L 2578 0 
L 2578 2144 
Q 2578 2359 2551 2521 
Q 2525 2684 2450 2792 
Q 2375 2900 2237 2954 
Q 2100 3009 1881 3009 
Q 1681 3009 1520 2937 
Q 1359 2866 1245 2734 
Q 1131 2603 1068 2415 
Q 1006 2228 1006 1994 
L 1006 0 
L 444 0 
L 444 4638 
L 1006 4638 
L 1006 3431 
Q 1006 3328 1003 3225 
Q 1000 3122 995 3034 
Q 991 2947 987 2886 
Q 984 2825 981 2803 
L 991 2803 
z
" id="LiberationSans-68" transform="scale(0.015625)"/>
      </defs>
      <use xlink:href="#LiberationSans-4e"/>
      <use x="72.216797" xlink:href="#LiberationSans-61"/>
      <use x="127.832031" xlink:href="#LiberationSans-6d"/>
      <use x="211.132812" xlink:href="#LiberationSans-65"/>
      <use x="266.748047" xlink:href="#LiberationSans-73"/>
      <use x="316.748047" xlink:href="#LiberationSans-20"/>
      <use x="344.53125" xlink:href="#LiberationSans-61"/>
      <use x="400.146484" xlink:href="#LiberationSans-6e"/>
      <use x="455.761719" xlink:href="#LiberationSans-64"/>
      <use x="511.376953" xlink:href="#LiberationSans-20"/>
      <use x="539.160156" xlink:href="#LiberationSans-65"/>
      <use x="594.775391" xlink:href="#LiberationSans-70"/>
      <use x="650.390625" xlink:href="#LiberationSans-6f"/>
      <use x="706.005859" xlink:href="#LiberationSans-63"/>
      <use x="756.005859" xlink:href="#LiberationSans-68"/>
      <use x="811.621094" xlink:href="#LiberationSans-73"/>
     </g>
    </g>
    <g id="line2d_37"/>
    <g id="line2d_38">
     <g>
      <use style="fill:#1f77b4;" x="767.023312" xlink:href="#m1a2c5d436e" y="73.91915"/>
     </g>
    </g>
    <g id="text_18">
     <!-- 2021-07-01 00:01 (Ivar 1627) -->
     <g style="fill:#262626;" transform="translate(785.023312 77.41915)scale(0.1 -0.1)">
      <defs>
       <path d="M 284 1450 
L 284 1950 
L 1847 1950 
L 1847 1450 
L 284 1450 
z
" id="LiberationSans-2d" transform="scale(0.015625)"/>
       <path d="M 3238 3947 
Q 2906 3441 2628 2973 
Q 2350 2506 2150 2032 
Q 1950 1559 1839 1061 
Q 1728 563 1728 0 
L 1141 0 
Q 1141 528 1266 1036 
Q 1391 1544 1603 2033 
Q 1816 2522 2097 2994 
Q 2378 3466 2694 3925 
L 328 3925 
L 328 4403 
L 3238 4403 
L 3238 3947 
z
" id="LiberationSans-37" transform="scale(0.015625)"/>
       <path d="M 584 2734 
L 584 3381 
L 1194 3381 
L 1194 2734 
L 584 2734 
z
M 584 0 
L 584 647 
L 1194 647 
L 1194 0 
L 584 0 
z
" id="LiberationSans-3a" transform="scale(0.015625)"/>
       <path d="M 591 0 
L 591 4403 
L 1188 4403 
L 1188 0 
L 591 0 
z
" id="LiberationSans-49" transform="scale(0.015625)"/>
       <path d="M 1916 0 
L 1250 0 
L 22 3381 
L 622 3381 
L 1366 1181 
Q 1388 1113 1417 1014 
Q 1447 916 1478 809 
Q 1509 703 1536 604 
Q 1563 506 1581 441 
Q 1600 506 1629 604 
Q 1659 703 1690 806 
Q 1722 909 1755 1007 
Q 1788 1106 1813 1175 
L 2581 3381 
L 3178 3381 
L 1916 0 
z
" id="LiberationSans-76" transform="scale(0.015625)"/>
       <path d="M 444 0 
L 444 2594 
Q 444 2700 442 2811 
Q 441 2922 437 3025 
Q 434 3128 431 3218 
Q 428 3309 425 3381 
L 956 3381 
Q 959 3309 964 3217 
Q 969 3125 973 3028 
Q 978 2931 979 2842 
Q 981 2753 981 2691 
L 994 2691 
Q 1053 2884 1120 3026 
Q 1188 3169 1278 3261 
Q 1369 3353 1494 3398 
Q 1619 3444 1797 3444 
Q 1866 3444 1928 3433 
Q 1991 3422 2025 3413 
L 2025 2897 
Q 1969 2913 1894 2920 
Q 1819 2928 1725 2928 
Q 1531 2928 1395 2840 
Q 1259 2753 1173 2598 
Q 1088 2444 1047 2230 
Q 1006 2016 1006 1763 
L 1006 0 
L 444 0 
z
" id="LiberationSans-72" transform="scale(0.015625)"/>
       <path d="M 3278 1441 
Q 3278 1109 3186 832 
Q 3094 556 2914 357 
Q 2734 159 2468 48 
Q 2203 -63 1856 -63 
Q 1472 -63 1184 84 
Q 897 231 706 507 
Q 516 784 420 1186 
Q 325 1588 325 2100 
Q 325 2688 433 3131 
Q 541 3575 744 3872 
Q 947 4169 1239 4319 
Q 1531 4469 1900 4469 
Q 2125 4469 2322 4422 
Q 2519 4375 2680 4270 
Q 2841 4166 2962 3994 
Q 3084 3822 3156 3572 
L 2619 3475 
Q 2531 3759 2339 3886 
Q 2147 4013 1894 4013 
Q 1663 4013 1475 3903 
Q 1288 3794 1156 3576 
Q 1025 3359 954 3031 
Q 884 2703 884 2266 
Q 1038 2550 1316 2698 
Q 1594 2847 1953 2847 
Q 2253 2847 2497 2750 
Q 2741 2653 2914 2470 
Q 3088 2288 3183 2027 
Q 3278 1766 3278 1441 
z
M 2706 1416 
Q 2706 1644 2650 1828 
Q 2594 2013 2481 2142 
Q 2369 2272 2203 2342 
Q 2038 2413 1819 2413 
Q 1666 2413 1509 2367 
Q 1353 2322 1226 2220 
Q 1100 2119 1020 1953 
Q 941 1788 941 1550 
Q 941 1306 1003 1095 
Q 1066 884 1183 728 
Q 1300 572 1465 481 
Q 1631 391 1838 391 
Q 2041 391 2202 461 
Q 2363 531 2475 664 
Q 2588 797 2647 987 
Q 2706 1178 2706 1416 
z
" id="LiberationSans-36" transform="scale(0.015625)"/>
      </defs>
      <use xlink:href="#LiberationSans-32"/>
      <use x="55.615234" xlink:href="#LiberationSans-30"/>
      <use x="111.230469" xlink:href="#LiberationSans-32"/>
      <use x="166.845703" xlink:href="#LiberationSans-31"/>
      <use x="222.460938" xlink:href="#LiberationSans-2d"/>
      <use x="255.761719" xlink:href="#LiberationSans-30"/>
      <use x="311.376953" xlink:href="#LiberationSans-37"/>
      <use x="366.992188" xlink:href="#LiberationSans-2d"/>
      <use x="400.292969" xlink:href="#LiberationSans-30"/>
      <use x="455.908203" xlink:href="#LiberationSans-31"/>
      <use x="511.523438" xlink:href="#LiberationSans-20"/>
      <use x="539.306641" xlink:href="#LiberationSans-30"/>
      <use x="594.921875" xlink:href="#LiberationSans-30"/>
      <use x="650.537109" xlink:href="#LiberationSans-3a"/>
      <use x="678.320312" xlink:href="#LiberationSans-30"/>
      <use x="733.935547" xlink:href="#LiberationSans-31"/>
      <use x="789.550781" xlink:href="#LiberationSans-20"/>
      <use x="817.333984" xlink:href="#LiberationSans-28"/>
      <use x="850.634766" xlink:href="#LiberationSans-49"/>
      <use x="878.417969" xlink:href="#LiberationSans-76"/>
      <use x="928.417969" xlink:href="#LiberationSans-61"/>
      <use x="984.033203" xlink:href="#LiberationSans-72"/>
      <use x="1017.333984" xlink:href="#LiberationSans-20"/>
      <use x="1045.117188" xlink:href="#LiberationSans-31"/>
      <use x="1100.732422" xlink:href="#LiberationSans-36"/>
      <use x="1156.347656" xlink:href="#LiberationSans-32"/>
      <use x="1211.962891" xlink:href="#LiberationSans-37"/>
      <use x="1267.578125" xlink:href="#LiberationSans-29"/>
     </g>
    </g>
    <g id="line2d_39"/>
    <g id="line2d_40">
     <g>
      <use style="fill:#ff7f0e;" x="767.023312" xlink:href="#mdec7a04d8b" y="88.241025"/>
     </g>
    </g>
    <g id="text_19">
     <!-- 2021-07-01 00:01 (2001UY4) -->
     <g style="fill:#262626;" transform="translate(785.023312 91.741025)scale(0.1 -0.1)">
      <defs>
       <path d="M 2284 -63 
Q 1922 -63 1597 34 
Q 1272 131 1026 336 
Q 781 541 637 855 
Q 494 1169 494 1600 
L 494 4403 
L 1091 4403 
L 1091 1650 
Q 1091 1316 1180 1083 
Q 1269 850 1428 703 
Q 1588 556 1805 489 
Q 2022 422 2281 422 
Q 2538 422 2766 490 
Q 2994 559 3166 709 
Q 3338 859 3436 1101 
Q 3534 1344 3534 1691 
L 3534 4403 
L 4128 4403 
L 4128 1656 
Q 4128 1216 3983 892 
Q 3838 569 3588 356 
Q 3338 144 3002 40 
Q 2666 -63 2284 -63 
z
" id="LiberationSans-55" transform="scale(0.015625)"/>
       <path d="M 2428 1825 
L 2428 0 
L 1834 0 
L 1834 1825 
L 141 4403 
L 797 4403 
L 2138 2306 
L 3472 4403 
L 4128 4403 
L 2428 1825 
z
" id="LiberationSans-59" transform="scale(0.015625)"/>
      </defs>
      <use xlink:href="#LiberationSans-32"/>
      <use x="55.615234" xlink:href="#LiberationSans-30"/>
      <use x="111.230469" xlink:href="#LiberationSans-32"/>
      <use x="166.845703" xlink:href="#LiberationSans-31"/>
      <use x="222.460938" xlink:href="#LiberationSans-2d"/>
      <use x="255.761719" xlink:href="#LiberationSans-30"/>
      <use x="311.376953" xlink:href="#LiberationSans-37"/>
      <use x="366.992188" xlink:href="#LiberationSans-2d"/>
      <use x="400.292969" xlink:href="#LiberationSans-30"/>
      <use x="455.908203" xlink:href="#LiberationSans-31"/>
      <use x="511.523438" xlink:href="#LiberationSans-20"/>
      <use x="539.306641" xlink:href="#LiberationSans-30"/>
      <use x="594.921875" xlink:href="#LiberationSans-30"/>
      <use x="650.537109" xlink:href="#LiberationSans-3a"/>
      <use x="678.320312" xlink:href="#LiberationSans-30"/>
      <use x="733.935547" xlink:href="#LiberationSans-31"/>
      <use x="789.550781" xlink:href="#LiberationSans-20"/>
      <use x="817.333984" xlink:href="#LiberationSans-28"/>
      <use x="850.634766" xlink:href="#LiberationSans-32"/>
      <use x="906.25" xlink:href="#LiberationSans-30"/>
      <use x="961.865234" xlink:href="#LiberationSans-30"/>
      <use x="1017.480469" xlink:href="#LiberationSans-31"/>
      <use x="1073.095703" xlink:href="#LiberationSans-55"/>
      <use x="1145.3125" xlink:href="#LiberationSans-59"/>
      <use x="1212.011719" xlink:href="#LiberationSans-34"/>
      <use x="1267.626953" xlink:href="#LiberationSans-29"/>
     </g>
    </g>
    <g id="line2d_41"/>
    <g id="line2d_42">
     <g>
      <use style="fill:#2ca02c;" x="767.023312" xlink:href="#me618dafb6d" y="102.5629"/>
     </g>
    </g>
    <g id="text_20">
     <!-- 2021-07-01 00:01 (2001SG276) -->
     <g style="fill:#262626;" transform="translate(785.023312 106.0629)scale(0.1 -0.1)">
      <defs>
       <path d="M 3975 1216 
Q 3975 938 3867 703 
Q 3759 469 3534 298 
Q 3309 128 2967 32 
Q 2625 -63 2156 -63 
Q 1334 -63 875 225 
Q 416 513 291 1056 
L 869 1172 
Q 913 1000 1003 859 
Q 1094 719 1248 617 
Q 1403 516 1631 459 
Q 1859 403 2178 403 
Q 2444 403 2666 448 
Q 2888 494 3047 587 
Q 3206 681 3295 829 
Q 3384 978 3384 1184 
Q 3384 1400 3286 1534 
Q 3188 1669 3009 1756 
Q 2831 1844 2584 1903 
Q 2338 1963 2038 2031 
Q 1853 2072 1667 2120 
Q 1481 2169 1311 2236 
Q 1141 2303 991 2393 
Q 841 2484 731 2611 
Q 622 2738 559 2905 
Q 497 3072 497 3291 
Q 497 3603 623 3826 
Q 750 4050 975 4194 
Q 1200 4338 1506 4403 
Q 1813 4469 2169 4469 
Q 2578 4469 2868 4405 
Q 3159 4341 3359 4212 
Q 3559 4084 3679 3895 
Q 3800 3706 3872 3456 
L 3284 3353 
Q 3241 3513 3158 3638 
Q 3075 3763 2940 3847 
Q 2806 3931 2614 3975 
Q 2422 4019 2163 4019 
Q 1856 4019 1648 3964 
Q 1441 3909 1314 3815 
Q 1188 3722 1133 3595 
Q 1078 3469 1078 3322 
Q 1078 3125 1176 2998 
Q 1275 2872 1444 2787 
Q 1613 2703 1834 2647 
Q 2056 2591 2306 2534 
Q 2509 2488 2711 2439 
Q 2913 2391 3097 2323 
Q 3281 2256 3442 2165 
Q 3603 2075 3722 1944 
Q 3841 1813 3908 1634 
Q 3975 1456 3975 1216 
z
" id="LiberationSans-53" transform="scale(0.015625)"/>
       <path d="M 322 2222 
Q 322 2738 461 3153 
Q 600 3569 876 3861 
Q 1153 4153 1562 4311 
Q 1972 4469 2513 4469 
Q 2919 4469 3225 4397 
Q 3531 4325 3756 4190 
Q 3981 4056 4137 3864 
Q 4294 3672 4403 3431 
L 3834 3263 
Q 3753 3425 3639 3558 
Q 3525 3691 3362 3784 
Q 3200 3878 2986 3929 
Q 2772 3981 2497 3981 
Q 2097 3981 1801 3856 
Q 1506 3731 1312 3500 
Q 1119 3269 1023 2944 
Q 928 2619 928 2222 
Q 928 1825 1031 1495 
Q 1134 1166 1337 927 
Q 1541 688 1842 555 
Q 2144 422 2541 422 
Q 2800 422 3019 465 
Q 3238 509 3414 579 
Q 3591 650 3725 736 
Q 3859 822 3950 909 
L 3950 1703 
L 2634 1703 
L 2634 2203 
L 4500 2203 
L 4500 684 
Q 4353 534 4154 398 
Q 3956 263 3709 159 
Q 3463 56 3169 -3 
Q 2875 -63 2541 -63 
Q 1984 -63 1568 107 
Q 1153 278 876 583 
Q 600 888 461 1306 
Q 322 1725 322 2222 
z
" id="LiberationSans-47" transform="scale(0.015625)"/>
      </defs>
      <use xlink:href="#LiberationSans-32"/>
      <use x="55.615234" xlink:href="#LiberationSans-30"/>
      <use x="111.230469" xlink:href="#LiberationSans-32"/>
      <use x="166.845703" xlink:href="#LiberationSans-31"/>
      <use x="222.460938" xlink:href="#LiberationSans-2d"/>
      <use x="255.761719" xlink:href="#LiberationSans-30"/>
      <use x="311.376953" xlink:href="#LiberationSans-37"/>
      <use x="366.992188" xlink:href="#LiberationSans-2d"/>
      <use x="400.292969" xlink:href="#LiberationSans-30"/>
      <use x="455.908203" xlink:href="#LiberationSans-31"/>
      <use x="511.523438" xlink:href="#LiberationSans-20"/>
      <use x="539.306641" xlink:href="#LiberationSans-30"/>
      <use x="594.921875" xlink:href="#LiberationSans-30"/>
      <use x="650.537109" xlink:href="#LiberationSans-3a"/>
      <use x="678.320312" xlink:href="#LiberationSans-30"/>
      <use x="733.935547" xlink:href="#LiberationSans-31"/>
      <use x="789.550781" xlink:href="#LiberationSans-20"/>
      <use x="817.333984" xlink:href="#LiberationSans-28"/>
      <use x="850.634766" xlink:href="#LiberationSans-32"/>
      <use x="906.25" xlink:href="#LiberationSans-30"/>
      <use x="961.865234" xlink:href="#LiberationSans-30"/>
      <use x="1017.480469" xlink:href="#LiberationSans-31"/>
      <use x="1073.095703" xlink:href="#LiberationSans-53"/>
      <use x="1139.794922" xlink:href="#LiberationSans-47"/>
      <use x="1217.578125" xlink:href="#LiberationSans-32"/>
      <use x="1273.193359" xlink:href="#LiberationSans-37"/>
      <use x="1328.808594" xlink:href="#LiberationSans-36"/>
      <use x="1384.423828" xlink:href="#LiberationSans-29"/>
     </g>
    </g>
    <g id="line2d_43"/>
    <g id="line2d_44">
     <g>
      <use style="fill:#d62728;" x="767.023312" xlink:href="#me6002e9e30" y="116.884775"/>
     </g>
    </g>
    <g id="text_21">
     <!-- 2021-07-01 00:01 (2003RP8) -->
     <g style="fill:#262626;" transform="translate(785.023312 120.384775)scale(0.1 -0.1)">
      <defs>
       <path d="M 3638 0 
L 2494 1828 
L 1122 1828 
L 1122 0 
L 525 0 
L 525 4403 
L 2597 4403 
Q 2972 4403 3261 4317 
Q 3550 4231 3747 4068 
Q 3944 3906 4047 3672 
Q 4150 3438 4150 3144 
Q 4150 2934 4089 2731 
Q 4028 2528 3897 2359 
Q 3766 2191 3562 2069 
Q 3359 1947 3075 1897 
L 4325 0 
L 3638 0 
z
M 3550 3138 
Q 3550 3338 3481 3484 
Q 3413 3631 3281 3729 
Q 3150 3828 2962 3876 
Q 2775 3925 2538 3925 
L 1122 3925 
L 1122 2300 
L 2563 2300 
Q 2819 2300 3006 2364 
Q 3194 2428 3314 2540 
Q 3434 2653 3492 2806 
Q 3550 2959 3550 3138 
z
" id="LiberationSans-52" transform="scale(0.015625)"/>
       <path d="M 3931 3078 
Q 3931 2791 3836 2542 
Q 3741 2294 3552 2111 
Q 3363 1928 3078 1822 
Q 2794 1716 2416 1716 
L 1122 1716 
L 1122 0 
L 525 0 
L 525 4403 
L 2378 4403 
Q 2769 4403 3059 4308 
Q 3350 4213 3544 4039 
Q 3738 3866 3834 3620 
Q 3931 3375 3931 3078 
z
M 3331 3072 
Q 3331 3491 3075 3708 
Q 2819 3925 2306 3925 
L 1122 3925 
L 1122 2188 
L 2331 2188 
Q 2847 2188 3089 2416 
Q 3331 2644 3331 3072 
z
" id="LiberationSans-50" transform="scale(0.015625)"/>
      </defs>
      <use xlink:href="#LiberationSans-32"/>
      <use x="55.615234" xlink:href="#LiberationSans-30"/>
      <use x="111.230469" xlink:href="#LiberationSans-32"/>
      <use x="166.845703" xlink:href="#LiberationSans-31"/>
      <use x="222.460938" xlink:href="#LiberationSans-2d"/>
      <use x="255.761719" xlink:href="#LiberationSans-30"/>
      <use x="311.376953" xlink:href="#LiberationSans-37"/>
      <use x="366.992188" xlink:href="#LiberationSans-2d"/>
      <use x="400.292969" xlink:href="#LiberationSans-30"/>
      <use x="455.908203" xlink:href="#LiberationSans-31"/>
      <use x="511.523438" xlink:href="#LiberationSans-20"/>
      <use x="539.306641" xlink:href="#LiberationSans-30"/>
      <use x="594.921875" xlink:href="#LiberationSans-30"/>
      <use x="650.537109" xlink:href="#LiberationSans-3a"/>
      <use x="678.320312" xlink:href="#LiberationSans-30"/>
      <use x="733.935547" xlink:href="#LiberationSans-31"/>
      <use x="789.550781" xlink:href="#LiberationSans-20"/>
      <use x="817.333984" xlink:href="#LiberationSans-28"/>
      <use x="850.634766" xlink:href="#LiberationSans-32"/>
      <use x="906.25" xlink:href="#LiberationSans-30"/>
      <use x="961.865234" xlink:href="#LiberationSans-30"/>
      <use x="1017.480469" xlink:href="#LiberationSans-33"/>
      <use x="1073.095703" xlink:href="#LiberationSans-52"/>
      <use x="1145.3125" xlink:href="#LiberationSans-50"/>
      <use x="1212.011719" xlink:href="#LiberationSans-38"/>
      <use x="1267.626953" xlink:href="#LiberationSans-29"/>
     </g>
    </g>
    <g id="line2d_45"/>
    <g id="line2d_46">
     <g>
      <use style="fill:#9467bd;" x="767.023312" xlink:href="#m3c4ba5ee5e" y="131.20665"/>
     </g>
    </g>
    <g id="text_22">
     <!-- 2021-07-01 00:01 (2000QL7) -->
     <g style="fill:#262626;" transform="translate(785.023312 134.70665)scale(0.1 -0.1)">
      <defs>
       <path d="M 4672 2222 
Q 4672 1756 4551 1370 
Q 4431 984 4204 693 
Q 3978 403 3648 220 
Q 3319 38 2900 -19 
Q 2966 -219 3048 -359 
Q 3131 -500 3237 -589 
Q 3344 -678 3473 -720 
Q 3603 -763 3763 -763 
Q 3850 -763 3950 -750 
Q 4050 -738 4122 -722 
L 4122 -1141 
Q 4003 -1169 3861 -1189 
Q 3719 -1209 3566 -1209 
Q 3297 -1209 3097 -1129 
Q 2897 -1050 2745 -901 
Q 2594 -753 2484 -537 
Q 2375 -322 2291 -50 
Q 1797 -25 1423 154 
Q 1050 334 801 636 
Q 553 938 428 1342 
Q 303 1747 303 2222 
Q 303 2738 447 3153 
Q 591 3569 869 3861 
Q 1147 4153 1555 4311 
Q 1963 4469 2491 4469 
Q 3016 4469 3423 4309 
Q 3831 4150 4107 3856 
Q 4384 3563 4528 3147 
Q 4672 2731 4672 2222 
z
M 4063 2222 
Q 4063 2619 3961 2944 
Q 3859 3269 3661 3500 
Q 3463 3731 3169 3856 
Q 2875 3981 2491 3981 
Q 2097 3981 1800 3856 
Q 1503 3731 1304 3500 
Q 1106 3269 1007 2944 
Q 909 2619 909 2222 
Q 909 1825 1011 1495 
Q 1113 1166 1311 927 
Q 1509 688 1804 555 
Q 2100 422 2484 422 
Q 2897 422 3195 556 
Q 3494 691 3686 930 
Q 3878 1169 3970 1500 
Q 4063 1831 4063 2222 
z
" id="LiberationSans-51" transform="scale(0.015625)"/>
       <path d="M 525 0 
L 525 4403 
L 1122 4403 
L 1122 488 
L 3347 488 
L 3347 0 
L 525 0 
z
" id="LiberationSans-4c" transform="scale(0.015625)"/>
      </defs>
      <use xlink:href="#LiberationSans-32"/>
      <use x="55.615234" xlink:href="#LiberationSans-30"/>
      <use x="111.230469" xlink:href="#LiberationSans-32"/>
      <use x="166.845703" xlink:href="#LiberationSans-31"/>
      <use x="222.460938" xlink:href="#LiberationSans-2d"/>
      <use x="255.761719" xlink:href="#LiberationSans-30"/>
      <use x="311.376953" xlink:href="#LiberationSans-37"/>
      <use x="366.992188" xlink:href="#LiberationSans-2d"/>
      <use x="400.292969" xlink:href="#LiberationSans-30"/>
      <use x="455.908203" xlink:href="#LiberationSans-31"/>
      <use x="511.523438" xlink:href="#LiberationSans-20"/>
      <use x="539.306641" xlink:href="#LiberationSans-30"/>
      <use x="594.921875" xlink:href="#LiberationSans-30"/>
      <use x="650.537109" xlink:href="#LiberationSans-3a"/>
      <use x="678.320312" xlink:href="#LiberationSans-30"/>
      <use x="733.935547" xlink:href="#LiberationSans-31"/>
      <use x="789.550781" xlink:href="#LiberationSans-20"/>
      <use x="817.333984" xlink:href="#LiberationSans-28"/>
      <use x="850.634766" xlink:href="#LiberationSans-32"/>
      <use x="906.25" xlink:href="#LiberationSans-30"/>
      <use x="961.865234" xlink:href="#LiberationSans-30"/>
      <use x="1017.480469" xlink:href="#LiberationSans-30"/>
      <use x="1073.095703" xlink:href="#LiberationSans-51"/>
      <use x="1150.878906" xlink:href="#LiberationSans-4c"/>
      <use x="1206.494141" xlink:href="#LiberationSans-37"/>
      <use x="1262.109375" xlink:href="#LiberationSans-29"/>
     </g>
    </g>
    <g id="line2d_47"/>
    <g id="line2d_48">
     <g>
      <use style="fill:#8c564b;" x="767.023312" xlink:href="#mec0853c67c" y="145.528525"/>
     </g>
    </g>
    <g id="text_23">
     <!-- 2021-07-01 00:01 (1998TU3) -->
     <g style="fill:#262626;" transform="translate(785.023312 149.028525)scale(0.1 -0.1)">
      <defs>
       <path d="M 3256 2291 
Q 3256 1703 3145 1261 
Q 3034 819 2828 525 
Q 2622 231 2326 84 
Q 2031 -63 1663 -63 
Q 1409 -63 1206 -11 
Q 1003 41 843 150 
Q 684 259 571 434 
Q 459 609 391 856 
L 928 941 
Q 1016 656 1202 523 
Q 1388 391 1672 391 
Q 1900 391 2089 498 
Q 2278 606 2411 822 
Q 2544 1038 2619 1363 
Q 2694 1688 2700 2125 
Q 2634 1978 2520 1862 
Q 2406 1747 2261 1667 
Q 2116 1588 1947 1545 
Q 1778 1503 1606 1503 
Q 1306 1503 1064 1611 
Q 822 1719 653 1912 
Q 484 2106 392 2379 
Q 300 2653 300 2988 
Q 300 3328 398 3603 
Q 497 3878 684 4070 
Q 872 4263 1145 4366 
Q 1419 4469 1766 4469 
Q 2500 4469 2878 3925 
Q 3256 3381 3256 2291 
z
M 2644 2834 
Q 2644 3078 2586 3293 
Q 2528 3509 2414 3668 
Q 2300 3828 2133 3920 
Q 1966 4013 1747 4013 
Q 1544 4013 1381 3941 
Q 1219 3869 1106 3736 
Q 994 3603 933 3412 
Q 872 3222 872 2988 
Q 872 2766 926 2575 
Q 981 2384 1090 2245 
Q 1200 2106 1362 2026 
Q 1525 1947 1741 1947 
Q 1897 1947 2058 2000 
Q 2219 2053 2348 2162 
Q 2478 2272 2561 2439 
Q 2644 2606 2644 2834 
z
" id="LiberationSans-39" transform="scale(0.015625)"/>
       <path d="M 2250 3916 
L 2250 0 
L 1656 0 
L 1656 3916 
L 144 3916 
L 144 4403 
L 3763 4403 
L 3763 3916 
L 2250 3916 
z
" id="LiberationSans-54" transform="scale(0.015625)"/>
      </defs>
      <use xlink:href="#LiberationSans-32"/>
      <use x="55.615234" xlink:href="#LiberationSans-30"/>
      <use x="111.230469" xlink:href="#LiberationSans-32"/>
      <use x="166.845703" xlink:href="#LiberationSans-31"/>
      <use x="222.460938" xlink:href="#LiberationSans-2d"/>
      <use x="255.761719" xlink:href="#LiberationSans-30"/>
      <use x="311.376953" xlink:href="#LiberationSans-37"/>
      <use x="366.992188" xlink:href="#LiberationSans-2d"/>
      <use x="400.292969" xlink:href="#LiberationSans-30"/>
      <use x="455.908203" xlink:href="#LiberationSans-31"/>
      <use x="511.523438" xlink:href="#LiberationSans-20"/>
      <use x="539.306641" xlink:href="#LiberationSans-30"/>
      <use x="594.921875" xlink:href="#LiberationSans-30"/>
      <use x="650.537109" xlink:href="#LiberationSans-3a"/>
      <use x="678.320312" xlink:href="#LiberationSans-30"/>
      <use x="733.935547" xlink:href="#LiberationSans-31"/>
      <use x="789.550781" xlink:href="#LiberationSans-20"/>
      <use x="817.333984" xlink:href="#LiberationSans-28"/>
      <use x="850.634766" xlink:href="#LiberationSans-31"/>
      <use x="906.25" xlink:href="#LiberationSans-39"/>
      <use x="961.865234" xlink:href="#LiberationSans-39"/>
      <use x="1017.480469" xlink:href="#LiberationSans-38"/>
      <use x="1073.095703" xlink:href="#LiberationSans-54"/>
      <use x="1134.179688" xlink:href="#LiberationSans-55"/>
      <use x="1206.396484" xlink:href="#LiberationSans-33"/>
      <use x="1262.011719" xlink:href="#LiberationSans-29"/>
     </g>
    </g>
   </g>
  </g>
 </g>
 <defs>
  <clipPath id="pa580489b71">
   <rect height="332.64" width="420.769659" x="306.215171" y="51.84"/>
  </clipPath>
 </defs>
</svg>
