<?xml version="1.0" encoding="utf-8" standalone="no"?>
<!DOCTYPE svg PUBLIC "-//W3C//DTD SVG 1.1//EN"
  "http://www.w3.org/Graphics/SVG/1.1/DTD/svg11.dtd">
<svg height="432pt" version="1.1" viewBox="0 0 1008 432" width="1008pt" xmlns="http://www.w3.org/2000/svg" xmlns:xlink="http://www.w3.org/1999/xlink">
 <metadata>
  <rdf:RDF xmlns:cc="http://creativecommons.org/ns#" xmlns:dc="http://purl.org/dc/elements/1.1/" xmlns:rdf="http://www.w3.org/1999/02/22-rdf-syntax-ns#">
   <cc:Work>
    <dc:type rdf:resource="http://purl.org/dc/dcmitype/StillImage"/>
    <dc:date>2021-08-02T19:36:38.996959</dc:date>
    <dc:format>image/svg+xml</dc:format>
    <dc:creator>
     <cc:Agent>
      <dc:title>Matplotlib v3.4.2, https://matplotlib.org/</dc:title>
     </cc:Agent>
    </dc:creator>
   </cc:Work>
  </rdf:RDF>
 </metadata>
 <defs>
  <style type="text/css">*{stroke-linecap:butt;stroke-linejoin:round;}</style>
 </defs>
 <g id="figure_1">
  <g id="patch_1">
   <path d="M 0 432 
L 1008 432 
L 1008 0 
L 0 0 
z
" style="fill:#ffffff;"/>
  </g>
  <g id="axes_1">
   <g id="patch_2">
    <path d="M 350.338911 384.48 
L 682.861089 384.48 
L 682.861089 51.84 
L 350.338911 51.84 
z
" style="fill:#ffffff;"/>
   </g>
   <g id="matplotlib.axis_1">
    <g id="xtick_1">
     <g id="line2d_1">
      <path clip-path="url(#p2ad183b164)" d="M 374.611827 384.48 
L 374.611827 51.84 
" style="fill:none;stroke:#cccccc;stroke-linecap:round;stroke-width:0.8;"/>
     </g>
     <g id="line2d_2"/>
     <g id="text_1">
      <!-- −2 -->
      <g style="fill:#262626;" transform="translate(368.911046 395.226875)scale(0.1 -0.1)">
       <defs>
        <path d="M 316 1900 
L 316 2356 
L 3425 2356 
L 3425 1900 
L 316 1900 
z
" id="LiberationSans-2212" transform="scale(0.015625)"/>
        <path d="M 322 0 
L 322 397 
Q 481 763 711 1042 
Q 941 1322 1194 1548 
Q 1447 1775 1695 1969 
Q 1944 2163 2144 2356 
Q 2344 2550 2467 2762 
Q 2591 2975 2591 3244 
Q 2591 3431 2534 3573 
Q 2478 3716 2372 3812 
Q 2266 3909 2117 3957 
Q 1969 4006 1788 4006 
Q 1619 4006 1470 3959 
Q 1322 3913 1206 3819 
Q 1091 3725 1017 3586 
Q 944 3447 922 3263 
L 347 3316 
Q 375 3553 478 3762 
Q 581 3972 762 4130 
Q 944 4288 1198 4378 
Q 1453 4469 1788 4469 
Q 2116 4469 2372 4391 
Q 2628 4313 2804 4159 
Q 2981 4006 3075 3781 
Q 3169 3556 3169 3263 
Q 3169 3041 3089 2841 
Q 3009 2641 2876 2459 
Q 2744 2278 2569 2109 
Q 2394 1941 2203 1780 
Q 2013 1619 1819 1461 
Q 1625 1303 1454 1143 
Q 1284 984 1150 820 
Q 1016 656 941 478 
L 3238 478 
L 3238 0 
L 322 0 
z
" id="LiberationSans-32" transform="scale(0.015625)"/>
       </defs>
       <use xlink:href="#LiberationSans-2212"/>
       <use x="58.398438" xlink:href="#LiberationSans-32"/>
      </g>
     </g>
    </g>
    <g id="xtick_2">
     <g id="line2d_3">
      <path clip-path="url(#p2ad183b164)" d="M 439.382012 384.48 
L 439.382012 51.84 
" style="fill:none;stroke:#cccccc;stroke-linecap:round;stroke-width:0.8;"/>
     </g>
     <g id="line2d_4"/>
     <g id="text_2">
      <!-- −1 -->
      <g style="fill:#262626;" transform="translate(433.68123 395.226875)scale(0.1 -0.1)">
       <defs>
        <path d="M 488 0 
L 488 478 
L 1609 478 
L 1609 3866 
L 616 3156 
L 616 3688 
L 1656 4403 
L 2175 4403 
L 2175 478 
L 3247 478 
L 3247 0 
L 488 0 
z
" id="LiberationSans-31" transform="scale(0.015625)"/>
       </defs>
       <use xlink:href="#LiberationSans-2212"/>
       <use x="58.398438" xlink:href="#LiberationSans-31"/>
      </g>
     </g>
    </g>
    <g id="xtick_3">
     <g id="line2d_5">
      <path clip-path="url(#p2ad183b164)" d="M 504.152196 384.48 
L 504.152196 51.84 
" style="fill:none;stroke:#cccccc;stroke-linecap:round;stroke-width:0.8;"/>
     </g>
     <g id="line2d_6"/>
     <g id="text_3">
      <!-- 0 -->
      <g style="fill:#262626;" transform="translate(501.371727 395.226875)scale(0.1 -0.1)">
       <defs>
        <path d="M 3309 2203 
Q 3309 1569 3189 1136 
Q 3069 703 2861 436 
Q 2653 169 2372 53 
Q 2091 -63 1772 -63 
Q 1450 -63 1172 53 
Q 894 169 689 434 
Q 484 700 367 1133 
Q 250 1566 250 2203 
Q 250 2869 367 3305 
Q 484 3741 690 4000 
Q 897 4259 1178 4364 
Q 1459 4469 1791 4469 
Q 2106 4469 2382 4364 
Q 2659 4259 2865 4000 
Q 3072 3741 3190 3305 
Q 3309 2869 3309 2203 
z
M 2738 2203 
Q 2738 2728 2675 3076 
Q 2613 3425 2491 3633 
Q 2369 3841 2192 3927 
Q 2016 4013 1791 4013 
Q 1553 4013 1372 3925 
Q 1191 3838 1067 3630 
Q 944 3422 881 3073 
Q 819 2725 819 2203 
Q 819 1697 883 1350 
Q 947 1003 1070 792 
Q 1194 581 1372 489 
Q 1550 397 1778 397 
Q 2000 397 2178 489 
Q 2356 581 2479 792 
Q 2603 1003 2670 1350 
Q 2738 1697 2738 2203 
z
" id="LiberationSans-30" transform="scale(0.015625)"/>
       </defs>
       <use xlink:href="#LiberationSans-30"/>
      </g>
     </g>
    </g>
    <g id="xtick_4">
     <g id="line2d_7">
      <path clip-path="url(#p2ad183b164)" d="M 568.92238 384.48 
L 568.92238 51.84 
" style="fill:none;stroke:#cccccc;stroke-linecap:round;stroke-width:0.8;"/>
     </g>
     <g id="line2d_8"/>
     <g id="text_4">
      <!-- 1 -->
      <g style="fill:#262626;" transform="translate(566.141911 395.226875)scale(0.1 -0.1)">
       <use xlink:href="#LiberationSans-31"/>
      </g>
     </g>
    </g>
    <g id="xtick_5">
     <g id="line2d_9">
      <path clip-path="url(#p2ad183b164)" d="M 633.692564 384.48 
L 633.692564 51.84 
" style="fill:none;stroke:#cccccc;stroke-linecap:round;stroke-width:0.8;"/>
     </g>
     <g id="line2d_10"/>
     <g id="text_5">
      <!-- 2 -->
      <g style="fill:#262626;" transform="translate(630.912096 395.226875)scale(0.1 -0.1)">
       <use xlink:href="#LiberationSans-32"/>
      </g>
     </g>
    </g>
    <g id="text_6">
     <!-- $x$ (km) -->
     <g style="fill:#262626;" transform="translate(502.25 408.601875)scale(0.1 -0.1)">
      <defs>
       <path d="M 3841 3500 
L 2234 1784 
L 3219 0 
L 2559 0 
L 1819 1388 
L 531 0 
L -166 0 
L 1556 1844 
L 641 3500 
L 1300 3500 
L 1972 2234 
L 3144 3500 
L 3841 3500 
z
" id="DejaVuSans-Oblique-78" transform="scale(0.015625)"/>
       <path id="LiberationSans-20" transform="scale(0.015625)"/>
       <path d="M 397 1663 
Q 397 2097 462 2494 
Q 528 2891 668 3256 
Q 809 3622 1028 3965 
Q 1247 4309 1550 4638 
L 2094 4638 
Q 1800 4309 1586 3964 
Q 1372 3619 1234 3251 
Q 1097 2884 1030 2487 
Q 963 2091 963 1656 
Q 963 1222 1030 825 
Q 1097 428 1234 59 
Q 1372 -309 1586 -653 
Q 1800 -997 2094 -1325 
L 1550 -1325 
Q 1247 -997 1028 -653 
Q 809 -309 668 56 
Q 528 422 462 817 
Q 397 1213 397 1650 
L 397 1663 
z
" id="LiberationSans-28" transform="scale(0.015625)"/>
       <path d="M 2550 0 
L 1406 1544 
L 994 1203 
L 994 0 
L 431 0 
L 431 4638 
L 994 4638 
L 994 1741 
L 2478 3381 
L 3138 3381 
L 1766 1928 
L 3209 0 
L 2550 0 
z
" id="LiberationSans-6b" transform="scale(0.015625)"/>
       <path d="M 2400 0 
L 2400 2144 
Q 2400 2391 2369 2556 
Q 2338 2722 2264 2823 
Q 2191 2925 2072 2967 
Q 1953 3009 1781 3009 
Q 1603 3009 1459 2939 
Q 1316 2869 1214 2736 
Q 1113 2603 1058 2408 
Q 1003 2213 1003 1959 
L 1003 0 
L 444 0 
L 444 2659 
Q 444 2766 442 2883 
Q 441 3000 437 3104 
Q 434 3209 431 3284 
Q 428 3359 425 3381 
L 956 3381 
Q 959 3366 962 3297 
Q 966 3228 970 3139 
Q 975 3050 978 2958 
Q 981 2866 981 2803 
L 991 2803 
Q 1066 2950 1153 3069 
Q 1241 3188 1358 3270 
Q 1475 3353 1626 3398 
Q 1778 3444 1978 3444 
Q 2363 3444 2586 3291 
Q 2809 3138 2897 2803 
L 2906 2803 
Q 2981 2950 3075 3069 
Q 3169 3188 3294 3270 
Q 3419 3353 3575 3398 
Q 3731 3444 3931 3444 
Q 4188 3444 4373 3375 
Q 4559 3306 4678 3162 
Q 4797 3019 4853 2792 
Q 4909 2566 4909 2253 
L 4909 0 
L 4353 0 
L 4353 2144 
Q 4353 2391 4322 2556 
Q 4291 2722 4217 2823 
Q 4144 2925 4025 2967 
Q 3906 3009 3734 3009 
Q 3556 3009 3412 2942 
Q 3269 2875 3167 2744 
Q 3066 2613 3011 2416 
Q 2956 2219 2956 1959 
L 2956 0 
L 2400 0 
z
" id="LiberationSans-6d" transform="scale(0.015625)"/>
       <path d="M 1734 1650 
Q 1734 1213 1668 817 
Q 1603 422 1462 56 
Q 1322 -309 1103 -653 
Q 884 -997 581 -1325 
L 38 -1325 
Q 331 -997 545 -653 
Q 759 -309 896 59 
Q 1034 428 1101 825 
Q 1169 1222 1169 1656 
Q 1169 2091 1101 2487 
Q 1034 2884 896 3251 
Q 759 3619 545 3964 
Q 331 4309 38 4638 
L 581 4638 
Q 884 4309 1103 3965 
Q 1322 3622 1462 3256 
Q 1603 2891 1668 2494 
Q 1734 2097 1734 1663 
L 1734 1650 
z
" id="LiberationSans-29" transform="scale(0.015625)"/>
      </defs>
      <use transform="translate(0 0.53125)" xlink:href="#DejaVuSans-Oblique-78"/>
      <use transform="translate(59.179688 0.53125)" xlink:href="#LiberationSans-20"/>
      <use transform="translate(86.962891 0.53125)" xlink:href="#LiberationSans-28"/>
      <use transform="translate(120.263672 0.53125)" xlink:href="#LiberationSans-6b"/>
      <use transform="translate(170.263672 0.53125)" xlink:href="#LiberationSans-6d"/>
      <use transform="translate(253.564453 0.53125)" xlink:href="#LiberationSans-29"/>
     </g>
    </g>
    <g id="text_7">
     <!-- 1e8 -->
     <g style="fill:#262626;" transform="translate(666.178277 407.54875)scale(0.1 -0.1)">
      <defs>
       <path d="M 863 1572 
Q 863 1306 917 1082 
Q 972 859 1086 698 
Q 1200 538 1378 448 
Q 1556 359 1806 359 
Q 2172 359 2392 506 
Q 2613 653 2691 878 
L 3184 738 
Q 3131 597 3036 455 
Q 2941 313 2781 198 
Q 2622 84 2383 10 
Q 2144 -63 1806 -63 
Q 1056 -63 664 384 
Q 272 831 272 1713 
Q 272 2188 390 2517 
Q 509 2847 715 3053 
Q 922 3259 1197 3351 
Q 1472 3444 1784 3444 
Q 2209 3444 2495 3306 
Q 2781 3169 2954 2926 
Q 3128 2684 3201 2356 
Q 3275 2028 3275 1647 
L 3275 1572 
L 863 1572 
z
M 2694 2003 
Q 2647 2538 2422 2783 
Q 2197 3028 1775 3028 
Q 1634 3028 1479 2983 
Q 1325 2938 1194 2822 
Q 1063 2706 972 2507 
Q 881 2309 869 2003 
L 2694 2003 
z
" id="LiberationSans-65" transform="scale(0.015625)"/>
       <path d="M 3281 1228 
Q 3281 947 3192 711 
Q 3103 475 2920 303 
Q 2738 131 2453 34 
Q 2169 -63 1781 -63 
Q 1394 -63 1111 34 
Q 828 131 642 301 
Q 456 472 367 708 
Q 278 944 278 1222 
Q 278 1463 351 1650 
Q 425 1838 548 1973 
Q 672 2109 830 2192 
Q 988 2275 1156 2303 
L 1156 2316 
Q 972 2359 826 2456 
Q 681 2553 582 2689 
Q 484 2825 432 2990 
Q 381 3156 381 3341 
Q 381 3572 470 3776 
Q 559 3981 734 4136 
Q 909 4291 1168 4380 
Q 1428 4469 1769 4469 
Q 2128 4469 2392 4378 
Q 2656 4288 2829 4133 
Q 3003 3978 3087 3772 
Q 3172 3566 3172 3334 
Q 3172 3153 3120 2987 
Q 3069 2822 2970 2686 
Q 2872 2550 2726 2454 
Q 2581 2359 2391 2322 
L 2391 2309 
Q 2581 2278 2743 2195 
Q 2906 2113 3025 1977 
Q 3144 1841 3212 1653 
Q 3281 1466 3281 1228 
z
M 2588 3303 
Q 2588 3469 2545 3606 
Q 2503 3744 2406 3842 
Q 2309 3941 2153 3995 
Q 1997 4050 1769 4050 
Q 1547 4050 1394 3995 
Q 1241 3941 1142 3842 
Q 1044 3744 1000 3606 
Q 956 3469 956 3303 
Q 956 3172 990 3034 
Q 1025 2897 1115 2784 
Q 1206 2672 1365 2600 
Q 1525 2528 1775 2528 
Q 2041 2528 2202 2600 
Q 2363 2672 2448 2784 
Q 2534 2897 2561 3034 
Q 2588 3172 2588 3303 
z
M 2697 1281 
Q 2697 1441 2653 1589 
Q 2609 1738 2503 1852 
Q 2397 1966 2217 2036 
Q 2038 2106 1769 2106 
Q 1522 2106 1348 2036 
Q 1175 1966 1067 1850 
Q 959 1734 909 1582 
Q 859 1431 859 1269 
Q 859 1066 909 898 
Q 959 731 1068 611 
Q 1178 491 1356 425 
Q 1534 359 1788 359 
Q 2044 359 2219 425 
Q 2394 491 2500 611 
Q 2606 731 2651 901 
Q 2697 1072 2697 1281 
z
" id="LiberationSans-38" transform="scale(0.015625)"/>
      </defs>
      <use xlink:href="#LiberationSans-31"/>
      <use x="55.615234" xlink:href="#LiberationSans-65"/>
      <use x="111.230469" xlink:href="#LiberationSans-38"/>
     </g>
    </g>
   </g>
   <g id="matplotlib.axis_2">
    <g id="ytick_1">
     <g id="line2d_11">
      <path clip-path="url(#p2ad183b164)" d="M 350.338911 354.723771 
L 682.861089 354.723771 
" style="fill:none;stroke:#cccccc;stroke-linecap:round;stroke-width:0.8;"/>
     </g>
     <g id="line2d_12"/>
     <g id="text_8">
      <!-- −2 -->
      <g style="fill:#262626;" transform="translate(335.437348 358.347209)scale(0.1 -0.1)">
       <use xlink:href="#LiberationSans-2212"/>
       <use x="58.398438" xlink:href="#LiberationSans-32"/>
      </g>
     </g>
    </g>
    <g id="ytick_2">
     <g id="line2d_13">
      <path clip-path="url(#p2ad183b164)" d="M 350.338911 289.953587 
L 682.861089 289.953587 
" style="fill:none;stroke:#cccccc;stroke-linecap:round;stroke-width:0.8;"/>
     </g>
     <g id="line2d_14"/>
     <g id="text_9">
      <!-- −1 -->
      <g style="fill:#262626;" transform="translate(335.437348 293.577024)scale(0.1 -0.1)">
       <use xlink:href="#LiberationSans-2212"/>
       <use x="58.398438" xlink:href="#LiberationSans-31"/>
      </g>
     </g>
    </g>
    <g id="ytick_3">
     <g id="line2d_15">
      <path clip-path="url(#p2ad183b164)" d="M 350.338911 225.183403 
L 682.861089 225.183403 
" style="fill:none;stroke:#cccccc;stroke-linecap:round;stroke-width:0.8;"/>
     </g>
     <g id="line2d_16"/>
     <g id="text_10">
      <!-- 0 -->
      <g style="fill:#262626;" transform="translate(341.277973 228.80684)scale(0.1 -0.1)">
       <use xlink:href="#LiberationSans-30"/>
      </g>
     </g>
    </g>
    <g id="ytick_4">
     <g id="line2d_17">
      <path clip-path="url(#p2ad183b164)" d="M 350.338911 160.413218 
L 682.861089 160.413218 
" style="fill:none;stroke:#cccccc;stroke-linecap:round;stroke-width:0.8;"/>
     </g>
     <g id="line2d_18"/>
     <g id="text_11">
      <!-- 1 -->
      <g style="fill:#262626;" transform="translate(341.277973 164.036656)scale(0.1 -0.1)">
       <use xlink:href="#LiberationSans-31"/>
      </g>
     </g>
    </g>
    <g id="ytick_5">
     <g id="line2d_19">
      <path clip-path="url(#p2ad183b164)" d="M 350.338911 95.643034 
L 682.861089 95.643034 
" style="fill:none;stroke:#cccccc;stroke-linecap:round;stroke-width:0.8;"/>
     </g>
     <g id="line2d_20"/>
     <g id="text_12">
      <!-- 2 -->
      <g style="fill:#262626;" transform="translate(341.277973 99.266472)scale(0.1 -0.1)">
       <use xlink:href="#LiberationSans-32"/>
      </g>
     </g>
    </g>
    <g id="text_13">
     <!-- $y$ (km) -->
     <g style="fill:#262626;" transform="translate(329.337348 232.51)rotate(-90)scale(0.1 -0.1)">
      <defs>
       <path d="M 1588 -325 
Q 1188 -997 936 -1164 
Q 684 -1331 294 -1331 
L -159 -1331 
L -63 -850 
L 269 -850 
Q 509 -850 678 -719 
Q 847 -588 1056 -206 
L 1234 128 
L 459 3500 
L 1069 3500 
L 1650 819 
L 3256 3500 
L 3859 3500 
L 1588 -325 
z
" id="DejaVuSans-Oblique-79" transform="scale(0.015625)"/>
      </defs>
      <use transform="translate(0 0.53125)" xlink:href="#DejaVuSans-Oblique-79"/>
      <use transform="translate(59.179688 0.53125)" xlink:href="#LiberationSans-20"/>
      <use transform="translate(86.962891 0.53125)" xlink:href="#LiberationSans-28"/>
      <use transform="translate(120.263672 0.53125)" xlink:href="#LiberationSans-6b"/>
      <use transform="translate(170.263672 0.53125)" xlink:href="#LiberationSans-6d"/>
      <use transform="translate(253.564453 0.53125)" xlink:href="#LiberationSans-29"/>
     </g>
    </g>
    <g id="text_14">
     <!-- 1e8 -->
     <g style="fill:#262626;" transform="translate(350.338911 48.84)scale(0.1 -0.1)">
      <use xlink:href="#LiberationSans-31"/>
      <use x="55.615234" xlink:href="#LiberationSans-65"/>
      <use x="111.230469" xlink:href="#LiberationSans-38"/>
     </g>
    </g>
   </g>
   <g id="patch_3">
    <path clip-path="url(#p2ad183b164)" d="M 504.152196 229.652663 
C 505.337458 229.652663 506.474334 229.181754 507.31244 228.343647 
C 508.150547 227.50554 508.621456 226.368664 508.621456 225.183403 
C 508.621456 223.998141 508.150547 222.861265 507.31244 222.023158 
C 506.474334 221.185052 505.337458 220.714142 504.152196 220.714142 
C 502.966934 220.714142 501.830058 221.185052 500.991951 222.023158 
C 500.153845 222.861265 499.682935 223.998141 499.682935 225.183403 
C 499.682935 226.368664 500.153845 227.50554 500.991951 228.343647 
C 501.830058 229.181754 502.966934 229.652663 504.152196 229.652663 
z
" style="fill:#ffcc00;"/>
   </g>
   <g id="line2d_21">
    <path clip-path="url(#p2ad183b164)" d="M 472.650685 248.656137 
L 474.969017 250.583372 
L 477.472197 252.349523 
L 480.15272 253.934865 
L 483.000989 255.318957 
L 486.004998 256.480799 
L 489.149986 257.399053 
L 492.41808 258.052363 
L 495.787948 258.419785 
L 499.234488 258.481345 
L 502.728587 258.218751 
L 506.237005 257.616235 
L 509.722446 256.661547 
L 513.143864 255.347038 
L 516.457094 253.670779 
L 519.615818 251.637627 
L 522.572907 249.260104 
L 525.282077 246.558943 
L 527.699782 243.563191 
L 529.787158 240.309755 
L 531.51185 236.842356 
L 532.849487 233.209976 
L 533.784656 229.464905 
L 534.311256 225.660612 
L 534.432238 221.849656 
L 534.158796 218.081832 
L 533.50917 214.402707 
L 532.507204 210.852609 
L 531.180853 207.466069 
L 529.560757 204.271673 
L 527.678972 201.292223 
L 525.567924 198.545143 
L 523.259579 196.043006 
L 520.784838 193.794144 
L 518.17312 191.803256 
L 515.452101 190.072003 
L 512.647581 188.59954 
L 509.783442 187.383 
L 506.881679 186.417903 
L 503.962466 185.698506 
L 501.04427 185.218094 
L 498.14396 184.969219 
L 495.276942 184.943888 
L 492.457285 185.133722 
L 489.697845 185.530068 
L 487.010386 186.124099 
L 484.405691 186.906878 
L 481.893664 187.869409 
L 479.483425 189.002676 
L 477.183395 190.297661 
L 475.001373 191.745356 
L 472.944601 193.336771 
L 471.019828 195.062928 
L 469.233364 196.914849 
L 467.591122 198.883548 
L 466.098663 200.960007 
L 464.761227 203.135158 
L 463.583762 205.399853 
L 462.570949 207.744842 
L 461.727216 210.160736 
L 461.056752 212.637974 
L 460.563512 215.16679 
L 460.251219 217.737167 
L 460.123355 220.338803 
L 460.183151 222.961059 
L 460.433565 225.592914 
L 460.877252 228.22292 
L 461.516528 230.83914 
L 462.35332 233.429105 
L 463.389103 235.979753 
L 464.624826 238.477373 
L 466.060815 240.907556 
L 467.696669 243.255138 
L 469.531121 245.50416 
L 471.561882 247.637828 
L 472.64984 248.655923 
L 472.64984 248.655923 
" style="fill:none;stroke:#8c8680;stroke-linecap:round;stroke-width:1.5;"/>
   </g>
   <g id="line2d_22">
    <defs>
     <path d="M 0 3 
C 0.795609 3 1.55874 2.683901 2.12132 2.12132 
C 2.683901 1.55874 3 0.795609 3 0 
C 3 -0.795609 2.683901 -1.55874 2.12132 -2.12132 
C 1.55874 -2.683901 0.795609 -3 0 -3 
C -0.795609 -3 -1.55874 -2.683901 -2.12132 -2.12132 
C -2.683901 -1.55874 -3 -0.795609 -3 0 
C -3 0.795609 -2.683901 1.55874 -2.12132 2.12132 
C -1.55874 2.683901 -0.795609 3 0 3 
z
" id="m80dcd94d72"/>
    </defs>
    <g clip-path="url(#p2ad183b164)">
     <use style="fill:#8c8680;" x="472.650685" xlink:href="#m80dcd94d72" y="248.656137"/>
    </g>
   </g>
   <g id="line2d_23">
    <path clip-path="url(#p2ad183b164)" d="M 541.649587 166.605778 
L 539.117513 165.048946 
L 536.522191 163.600889 
L 533.868345 162.264172 
L 531.160799 161.041156 
L 528.404472 159.933988 
L 525.604368 158.944603 
L 522.765563 158.074714 
L 519.8932 157.325817 
L 516.992474 156.699185 
L 514.068629 156.195863 
L 511.126941 155.816673 
L 508.172712 155.562209 
L 505.211258 155.432837 
L 502.247903 155.428696 
L 499.287964 155.549698 
L 496.336745 155.795528 
L 493.399525 156.165647 
L 490.481549 156.659291 
L 487.588021 157.275478 
L 484.724089 158.013004 
L 481.894843 158.870452 
L 479.105299 159.846189 
L 476.360396 160.938377 
L 473.664983 162.144972 
L 471.023815 163.463728 
L 468.44154 164.892204 
L 465.922693 166.427771 
L 463.471691 168.06761 
L 461.092823 169.808726 
L 458.790241 171.647947 
L 456.567958 173.581937 
L 454.429837 175.607195 
L 452.379588 177.720068 
L 450.420759 179.916753 
L 448.556735 182.193308 
L 446.790727 184.545656 
L 445.125771 186.969595 
L 443.564721 189.460804 
L 442.110247 192.014852 
L 440.76483 194.627204 
L 439.530756 197.293231 
L 438.410117 200.008216 
L 437.404805 202.767365 
L 436.51651 205.565814 
L 435.746718 208.398635 
L 435.096708 211.260848 
L 434.567551 214.147428 
L 434.160111 217.053313 
L 433.87504 219.973413 
L 433.712778 222.902618 
L 433.673555 225.835808 
L 433.757392 228.76786 
L 433.964094 231.693657 
L 434.293261 234.608096 
L 434.74428 237.506096 
L 435.316332 240.382609 
L 436.00839 243.232626 
L 436.819223 246.051183 
L 437.747398 248.833374 
L 438.791282 251.574357 
L 439.949044 254.26936 
L 441.218659 256.91369 
L 442.597913 259.502743 
L 444.084403 262.032007 
L 445.675543 264.497074 
L 447.368569 266.893644 
L 449.160543 269.217532 
L 451.048354 271.464679 
L 453.028732 273.631153 
L 455.098241 275.71316 
L 457.253296 277.707047 
L 459.49016 279.609313 
L 461.804958 281.416607 
L 464.193675 283.125744 
L 466.652168 284.7337 
L 469.176171 286.237624 
L 471.761301 287.634843 
L 474.403068 288.922863 
L 477.096878 290.099375 
L 479.838044 291.162262 
L 482.621791 292.109598 
L 485.443266 292.939655 
L 488.297544 293.650907 
L 491.17964 294.24203 
L 494.08451 294.711908 
L 497.007068 295.059632 
L 499.942186 295.284506 
L 502.884711 295.386045 
L 505.829467 295.363979 
L 508.771266 295.218254 
L 511.704919 294.949031 
L 514.625243 294.556687 
L 517.527068 294.041817 
L 520.405252 293.405231 
L 523.254681 292.647955 
L 526.070288 291.77123 
L 528.847055 290.776508 
L 531.580023 289.665454 
L 534.264305 288.439941 
L 536.895091 287.102048 
L 539.467656 285.654058 
L 541.977373 284.098453 
L 544.419718 282.437912 
L 546.790279 280.675305 
L 549.084767 278.813692 
L 551.29902 276.856312 
L 553.429014 274.806584 
L 555.47087 272.668098 
L 557.420861 270.444609 
L 559.27542 268.140033 
L 561.031146 265.758438 
L 562.684812 263.304037 
L 564.233373 260.781183 
L 565.673967 258.194357 
L 567.003925 255.548167 
L 568.220777 252.847333 
L 569.322255 250.09668 
L 570.306299 247.301133 
L 571.171059 244.465704 
L 571.914904 241.595486 
L 572.53642 238.695638 
L 573.034417 235.771383 
L 573.40793 232.827993 
L 573.656224 229.870779 
L 573.778789 226.905086 
L 573.775351 223.936277 
L 573.645866 220.969725 
L 573.39052 218.010804 
L 573.009736 215.064878 
L 572.504165 212.137289 
L 571.874691 209.233348 
L 571.122428 206.358328 
L 570.248714 203.517447 
L 569.255117 200.715863 
L 568.143423 197.958664 
L 566.915641 195.250855 
L 565.573991 192.597352 
L 564.120907 190.002968 
L 562.559028 187.472409 
L 560.891193 185.010263 
L 559.12044 182.620987 
L 557.249994 180.308906 
L 555.283263 178.078198 
L 553.223834 175.932891 
L 551.075462 173.876853 
L 548.842065 171.913783 
L 546.527714 170.047209 
L 544.13663 168.280477 
L 541.673169 166.616747 
L 541.673169 166.616747 
" style="fill:none;stroke:#e6db67;stroke-linecap:round;stroke-width:1.5;"/>
   </g>
   <g id="line2d_24">
    <defs>
     <path d="M 0 3 
C 0.795609 3 1.55874 2.683901 2.12132 2.12132 
C 2.683901 1.55874 3 0.795609 3 0 
C 3 -0.795609 2.683901 -1.55874 2.12132 -2.12132 
C 1.55874 -2.683901 0.795609 -3 0 -3 
C -0.795609 -3 -1.55874 -2.683901 -2.12132 -2.12132 
C -2.683901 -1.55874 -3 -0.795609 -3 0 
C -3 0.795609 -2.683901 1.55874 -2.12132 2.12132 
C -1.55874 2.683901 -0.795609 3 0 3 
z
" id="m48075a400d"/>
    </defs>
    <g clip-path="url(#p2ad183b164)">
     <use style="fill:#e6db67;" x="541.649587" xlink:href="#m48075a400d" y="166.605778"/>
    </g>
   </g>
   <g id="line2d_25">
    <path clip-path="url(#p2ad183b164)" d="M 406.018383 216.588317 
L 405.744863 220.597167 
L 405.638047 224.614612 
L 405.698479 228.633637 
L 405.926303 232.647078 
L 406.321198 236.647688 
L 406.882332 240.628248 
L 407.608368 244.581719 
L 408.497576 248.501396 
L 409.548041 252.380982 
L 410.757916 256.214478 
L 412.125488 259.995898 
L 413.64901 263.719064 
L 415.326493 267.377602 
L 417.155607 270.965031 
L 419.133638 274.474828 
L 421.25744 277.900481 
L 423.523376 281.235586 
L 425.927314 284.474016 
L 428.464747 287.610086 
L 431.131018 290.63861 
L 433.921531 293.554804 
L 436.831844 296.354052 
L 439.857562 299.031696 
L 442.994142 301.58298 
L 446.236763 304.003117 
L 449.58027 306.287374 
L 453.019152 308.431128 
L 456.547483 310.429935 
L 460.158887 312.27969 
L 463.846648 313.976824 
L 467.603961 315.518386 
L 471.424167 316.90192 
L 475.300827 318.125241 
L 479.227641 319.186243 
L 483.198294 320.082824 
L 487.206308 320.812917 
L 491.24498 321.374577 
L 495.307358 321.766048 
L 499.386205 321.985814 
L 503.473957 322.032718 
L 507.56277 321.906171 
L 511.644777 321.606295 
L 515.712393 321.133809 
L 519.758398 320.489758 
L 523.775849 319.67532 
L 527.75793 318.691728 
L 531.697826 317.54029 
L 535.588651 316.222452 
L 539.423413 314.739867 
L 543.194999 313.094454 
L 546.896144 311.288474 
L 550.519435 309.324693 
L 554.057497 307.206578 
L 557.503349 304.938266 
L 560.85058 302.524249 
L 564.09324 299.969111 
L 567.225663 297.277455 
L 570.242349 294.453919 
L 573.13789 291.503227 
L 575.906933 288.430248 
L 578.544156 285.240053 
L 581.044261 281.937984 
L 583.401966 278.52976 
L 585.612115 275.021654 
L 587.669982 271.420556 
L 589.571557 267.733721 
L 591.313499 263.968399 
L 592.892902 260.131712 
L 594.307141 256.23068 
L 595.553805 252.272276 
L 596.630651 248.263475 
L 597.535574 244.211302 
L 598.266591 240.122908 
L 598.821851 236.005652 
L 599.199705 231.867231 
L 599.398917 227.715767 
L 599.418966 223.559672 
L 599.260115 219.407273 
L 598.923182 215.266572 
L 598.409311 211.145253 
L 597.719874 207.050769 
L 596.856437 202.990388 
L 595.820718 198.971239 
L 594.614551 195.000382 
L 593.239892 191.08491 
L 591.698898 187.232049 
L 589.994081 183.44923 
L 588.128546 179.744015 
L 586.106128 176.123809 
L 583.931243 172.595561 
L 581.608612 169.165696 
L 579.143111 165.840215 
L 576.539716 162.62477 
L 573.803475 159.524718 
L 570.939456 156.545174 
L 567.952734 153.691132 
L 564.848458 150.967587 
L 561.632023 148.379596 
L 558.309263 145.932208 
L 554.886571 143.630242 
L 551.370815 141.478022 
L 547.769105 139.479246 
L 544.088582 137.637058 
L 540.336336 135.95415 
L 536.519385 134.432838 
L 532.644628 133.075113 
L 528.718807 131.882747 
L 524.748551 130.857451 
L 520.740564 130.000971 
L 516.701836 129.315012 
L 512.639745 128.801021 
L 508.561987 128.459958 
L 504.476379 128.292174 
L 500.390657 128.297438 
L 496.312363 128.475038 
L 492.248807 128.823884 
L 488.207046 129.34257 
L 484.193844 130.029457 
L 480.215674 130.882827 
L 476.27888 131.901044 
L 472.389951 133.082514 
L 468.555652 134.425436 
L 464.782934 135.92757 
L 461.078753 137.586133 
L 457.449883 139.397816 
L 453.902803 141.358873 
L 450.44364 143.465231 
L 447.078162 145.712565 
L 443.81175 148.096377 
L 440.649385 150.612118 
L 437.595753 153.255366 
L 434.655526 156.021882 
L 431.833585 158.907369 
L 429.134955 161.907175 
L 426.564585 165.016173 
L 424.127168 168.228804 
L 421.827034 171.53916 
L 419.668101 174.941086 
L 417.653852 178.428264 
L 415.787334 181.994299 
L 414.071149 185.632815 
L 412.507515 189.33761 
L 411.098491 193.102772 
L 409.846271 196.922534 
L 408.753217 200.790919 
L 407.821613 204.70155 
L 407.053443 208.647696 
L 406.450294 212.622383 
L 406.013312 216.618482 
L 406.013312 216.618482 
" style="fill:none;stroke:#2a7bd1;stroke-linecap:round;stroke-width:1.5;"/>
   </g>
   <g id="line2d_26">
    <defs>
     <path d="M 0 3 
C 0.795609 3 1.55874 2.683901 2.12132 2.12132 
C 2.683901 1.55874 3 0.795609 3 0 
C 3 -0.795609 2.683901 -1.55874 2.12132 -2.12132 
C 1.55874 -2.683901 0.795609 -3 0 -3 
C -0.795609 -3 -1.55874 -2.683901 -2.12132 -2.12132 
C -2.683901 -1.55874 -3 -0.795609 -3 0 
C -3 0.795609 -2.683901 1.55874 -2.12132 2.12132 
C -1.55874 2.683901 -0.795609 3 0 3 
z
" id="maa9e1fd060"/>
    </defs>
    <g clip-path="url(#p2ad183b164)">
     <use style="fill:#2a7bd1;" x="406.018383" xlink:href="#maa9e1fd060" y="216.588317"/>
    </g>
   </g>
   <g id="line2d_27">
    <path clip-path="url(#p2ad183b164)" d="M 614.480646 107.555413 
L 610.307321 103.716908 
L 605.989548 100.043692 
L 601.533261 96.540689 
L 596.944529 93.21266 
L 592.22955 90.06419 
L 587.394653 87.099697 
L 582.446298 84.323426 
L 577.391072 81.739445 
L 572.235693 79.351646 
L 566.987004 77.163741 
L 561.651974 75.179259 
L 556.2377 73.401544 
L 550.751406 71.83375 
L 545.200438 70.478837 
L 539.592269 69.339566 
L 533.934497 68.418498 
L 528.234842 67.717982 
L 522.501147 67.240154 
L 516.741378 66.986931 
L 510.96362 66.96 
L 505.176078 67.160815 
L 499.387072 67.590587 
L 493.605039 68.250278 
L 487.838525 69.140588 
L 482.096188 70.261954 
L 476.386789 71.614531 
L 470.719191 73.198189 
L 465.102353 75.012497 
L 459.545323 77.056718 
L 454.057233 79.329791 
L 448.647292 81.830326 
L 443.324775 84.556588 
L 438.099016 87.506486 
L 432.979398 90.67756 
L 427.975337 94.066971 
L 423.096276 97.671484 
L 418.351665 101.487461 
L 413.750948 105.510843 
L 409.303546 109.737141 
L 405.018836 114.161424 
L 400.906136 118.778308 
L 396.974675 123.581943 
L 393.233578 128.566005 
L 389.691836 133.723688 
L 386.35828 139.047694 
L 383.241554 144.530228 
L 380.350084 150.162993 
L 377.692044 155.937183 
L 375.275324 161.843491 
L 373.107497 167.872101 
L 371.195779 174.012695 
L 369.546994 180.254464 
L 368.167537 186.586108 
L 367.063329 192.99586 
L 366.239785 199.47149 
L 365.701769 206.000337 
L 365.453555 212.56932 
L 365.498791 219.164976 
L 365.840455 225.773484 
L 366.480827 232.380705 
L 367.421442 238.972216 
L 368.66307 245.533359 
L 370.205677 252.049287 
L 372.048402 258.505011 
L 374.189534 264.885459 
L 376.626494 271.175531 
L 379.35582 277.360157 
L 382.373157 283.424366 
L 385.673256 289.353345 
L 389.249972 295.132506 
L 393.096279 300.747552 
L 397.204277 306.184546 
L 401.565217 311.429972 
L 406.169526 316.470804 
L 411.006841 321.294564 
L 416.066046 325.889384 
L 421.335315 330.244058 
L 426.802167 334.3481 
L 432.453511 338.191785 
L 438.27571 341.766195 
L 444.254643 345.063253 
L 450.375764 348.075756 
L 456.624175 350.797398 
L 462.984688 353.222785 
L 469.441901 355.347454 
L 475.980258 357.167869 
L 482.584124 358.681427 
L 489.237846 359.88645 
L 495.925824 360.782168 
L 502.632567 361.368708 
L 509.342758 361.647065 
L 516.041304 361.619079 
L 522.713394 361.287401 
L 529.344543 360.655458 
L 535.920637 359.727418 
L 542.427974 358.508149 
L 548.853295 357.003173 
L 555.183819 355.21863 
L 561.407269 353.161226 
L 567.511888 350.838194 
L 573.486465 348.257247 
L 579.320342 345.426536 
L 585.003431 342.354601 
L 590.526213 339.050335 
L 595.879747 335.522936 
L 601.055667 331.781872 
L 606.046183 327.836841 
L 610.844073 323.697734 
L 615.442675 319.3746 
L 619.835885 314.877615 
L 624.018138 310.217052 
L 627.984403 305.403249 
L 631.730165 300.446585 
L 635.251416 295.357455 
L 638.544635 290.146247 
L 641.606776 284.823321 
L 644.435253 279.39899 
L 647.027922 273.883506 
L 649.383063 268.287039 
L 651.49937 262.619666 
L 653.375931 256.891362 
L 655.012213 251.111982 
L 656.408046 245.291256 
L 657.563609 239.438779 
L 658.479416 233.564004 
L 659.1563 227.676236 
L 659.595399 221.784624 
L 659.798146 215.898161 
L 659.766251 210.025676 
L 659.501694 204.175836 
L 659.006714 198.357137 
L 658.283791 192.577907 
L 657.335644 186.846303 
L 656.165217 181.170312 
L 654.775669 175.557745 
L 653.170369 170.016244 
L 651.352886 164.553277 
L 649.326979 159.176139 
L 647.096594 153.891955 
L 644.665856 148.707678 
L 642.039064 143.630089 
L 639.220685 138.6658 
L 636.215347 133.821253 
L 633.027838 129.102719 
L 629.663098 124.516303 
L 626.126218 120.06794 
L 622.422436 115.7634 
L 618.557133 111.608281 
L 614.535832 107.608019 
L 614.535832 107.608019 
" style="fill:none;stroke:#cc653f;stroke-linecap:round;stroke-width:1.5;"/>
   </g>
   <g id="line2d_28">
    <defs>
     <path d="M 0 3 
C 0.795609 3 1.55874 2.683901 2.12132 2.12132 
C 2.683901 1.55874 3 0.795609 3 0 
C 3 -0.795609 2.683901 -1.55874 2.12132 -2.12132 
C 1.55874 -2.683901 0.795609 -3 0 -3 
C -0.795609 -3 -1.55874 -2.683901 -2.12132 -2.12132 
C -2.683901 -1.55874 -3 -0.795609 -3 0 
C -3 0.795609 -2.683901 1.55874 -2.12132 2.12132 
C -1.55874 2.683901 -0.795609 3 0 3 
z
" id="m9b3b3121bb"/>
    </defs>
    <g clip-path="url(#p2ad183b164)">
     <use style="fill:#cc653f;" x="614.480646" xlink:href="#m9b3b3121bb" y="107.555413"/>
    </g>
   </g>
   <g id="line2d_29">
    <path clip-path="url(#p2ad183b164)" d="M 435.840599 316.81278 
L 440.36989 321.408969 
L 445.047071 325.783241 
L 449.856994 329.933032 
L 454.784863 333.857009 
L 459.816345 337.554961 
L 464.93765 341.027685 
L 470.135604 344.276878 
L 475.397688 347.305017 
L 480.712077 350.115255 
L 486.06765 352.711319 
L 491.453997 355.097413 
L 496.861413 357.278129 
L 502.280881 359.258369 
L 507.704054 361.043277 
L 513.123227 362.638169 
L 518.53131 364.048482 
L 523.921794 365.279727 
L 529.288722 366.337444 
L 534.626651 367.227168 
L 539.930623 367.954402 
L 545.196129 368.524586 
L 550.419079 368.943085 
L 555.595768 369.215165 
L 560.722854 369.345984 
L 565.797322 369.34058 
L 570.816463 369.203864 
L 575.777847 368.940615 
L 580.679302 368.555476 
L 585.51889 368.05295 
L 590.294889 367.437402 
L 595.005775 366.713056 
L 599.650204 365.884001 
L 604.226995 364.954185 
L 608.735118 363.927427 
L 613.173681 362.807412 
L 617.541913 361.597696 
L 621.83916 360.301714 
L 626.064869 358.922776 
L 630.21858 357.464079 
L 634.29992 355.928705 
L 638.30859 354.319625 
L 642.244364 352.639707 
L 646.107078 350.891717 
L 649.896624 349.078323 
L 653.612947 347.202099 
L 657.256039 345.26553 
L 660.825933 343.271014 
L 664.3227 341.220865 
L 667.746445 339.11732 
" style="fill:none;stroke:#000000;stroke-linecap:round;stroke-width:1.5;"/>
   </g>
   <g id="line2d_30">
    <defs>
     <path d="M 0 3 
C 0.795609 3 1.55874 2.683901 2.12132 2.12132 
C 2.683901 1.55874 3 0.795609 3 0 
C 3 -0.795609 2.683901 -1.55874 2.12132 -2.12132 
C 1.55874 -2.683901 0.795609 -3 0 -3 
C -0.795609 -3 -1.55874 -2.683901 -2.12132 -2.12132 
C -2.683901 -1.55874 -3 -0.795609 -3 0 
C -3 0.795609 -2.683901 1.55874 -2.12132 2.12132 
C -1.55874 2.683901 -0.795609 3 0 3 
z
" id="mb91093eaf8"/>
    </defs>
    <g clip-path="url(#p2ad183b164)">
     <use x="563.266841" xlink:href="#mb91093eaf8" y="369.36"/>
    </g>
   </g>
   <g id="patch_4">
    <path d="M 350.338911 384.48 
L 350.338911 51.84 
" style="fill:none;stroke:#cccccc;stroke-linecap:square;stroke-linejoin:miter;"/>
   </g>
   <g id="patch_5">
    <path d="M 682.861089 384.48 
L 682.861089 51.84 
" style="fill:none;stroke:#cccccc;stroke-linecap:square;stroke-linejoin:miter;"/>
   </g>
   <g id="patch_6">
    <path d="M 350.338911 384.48 
L 682.861089 384.48 
" style="fill:none;stroke:#cccccc;stroke-linecap:square;stroke-linejoin:miter;"/>
   </g>
   <g id="patch_7">
    <path d="M 350.338911 51.84 
L 682.861089 51.84 
" style="fill:none;stroke:#cccccc;stroke-linecap:square;stroke-linejoin:miter;"/>
   </g>
   <g id="legend_1">
    <g id="text_15">
     <!-- Names and epochs -->
     <g style="fill:#262626;" transform="translate(748.202042 63.097275)scale(0.1 -0.1)">
      <defs>
       <path d="M 3381 0 
L 1025 3750 
Q 1031 3597 1041 3447 
Q 1047 3319 1051 3176 
Q 1056 3034 1056 2925 
L 1056 0 
L 525 0 
L 525 4403 
L 1219 4403 
L 3600 628 
Q 3591 781 3581 934 
Q 3575 1066 3569 1220 
Q 3563 1375 3563 1516 
L 3563 4403 
L 4100 4403 
L 4100 0 
L 3381 0 
z
" id="LiberationSans-4e" transform="scale(0.015625)"/>
       <path d="M 1294 -63 
Q 784 -63 528 206 
Q 272 475 272 944 
Q 272 1278 398 1492 
Q 525 1706 729 1828 
Q 934 1950 1196 1997 
Q 1459 2044 1731 2050 
L 2491 2063 
L 2491 2247 
Q 2491 2456 2447 2603 
Q 2403 2750 2312 2840 
Q 2222 2931 2086 2973 
Q 1950 3016 1766 3016 
Q 1603 3016 1472 2992 
Q 1341 2969 1244 2908 
Q 1147 2847 1087 2742 
Q 1028 2638 1009 2478 
L 422 2531 
Q 453 2731 540 2898 
Q 628 3066 789 3187 
Q 950 3309 1192 3376 
Q 1434 3444 1778 3444 
Q 2416 3444 2737 3151 
Q 3059 2859 3059 2306 
L 3059 850 
Q 3059 600 3125 473 
Q 3191 347 3375 347 
Q 3422 347 3469 353 
Q 3516 359 3559 369 
L 3559 19 
Q 3453 -6 3348 -18 
Q 3244 -31 3125 -31 
Q 2966 -31 2852 11 
Q 2738 53 2666 139 
Q 2594 225 2556 351 
Q 2519 478 2509 647 
L 2491 647 
Q 2400 484 2292 353 
Q 2184 222 2040 130 
Q 1897 38 1714 -12 
Q 1531 -63 1294 -63 
z
M 1422 359 
Q 1691 359 1892 457 
Q 2094 556 2226 709 
Q 2359 863 2425 1044 
Q 2491 1225 2491 1391 
L 2491 1669 
L 1875 1656 
Q 1669 1653 1483 1626 
Q 1297 1600 1156 1522 
Q 1016 1444 933 1303 
Q 850 1163 850 934 
Q 850 659 998 509 
Q 1147 359 1422 359 
z
" id="LiberationSans-61" transform="scale(0.015625)"/>
       <path d="M 2969 934 
Q 2969 697 2876 511 
Q 2784 325 2609 198 
Q 2434 72 2179 4 
Q 1925 -63 1597 -63 
Q 1303 -63 1067 -17 
Q 831 28 653 128 
Q 475 228 354 392 
Q 234 556 178 794 
L 675 891 
Q 747 619 972 492 
Q 1197 366 1597 366 
Q 1778 366 1929 391 
Q 2081 416 2190 477 
Q 2300 538 2361 639 
Q 2422 741 2422 891 
Q 2422 1044 2350 1142 
Q 2278 1241 2150 1306 
Q 2022 1372 1839 1420 
Q 1656 1469 1438 1528 
Q 1234 1581 1034 1647 
Q 834 1713 673 1820 
Q 513 1928 413 2087 
Q 313 2247 313 2488 
Q 313 2950 642 3192 
Q 972 3434 1603 3434 
Q 2163 3434 2492 3237 
Q 2822 3041 2909 2606 
L 2403 2544 
Q 2375 2675 2300 2764 
Q 2225 2853 2119 2908 
Q 2013 2963 1880 2986 
Q 1747 3009 1603 3009 
Q 1222 3009 1040 2893 
Q 859 2778 859 2544 
Q 859 2406 926 2317 
Q 994 2228 1114 2167 
Q 1234 2106 1403 2061 
Q 1572 2016 1775 1966 
Q 1909 1931 2050 1892 
Q 2191 1853 2323 1798 
Q 2456 1744 2573 1670 
Q 2691 1597 2778 1494 
Q 2866 1391 2917 1253 
Q 2969 1116 2969 934 
z
" id="LiberationSans-73" transform="scale(0.015625)"/>
       <path d="M 2578 0 
L 2578 2144 
Q 2578 2391 2542 2556 
Q 2506 2722 2425 2823 
Q 2344 2925 2211 2967 
Q 2078 3009 1881 3009 
Q 1681 3009 1520 2939 
Q 1359 2869 1245 2736 
Q 1131 2603 1068 2408 
Q 1006 2213 1006 1959 
L 1006 0 
L 444 0 
L 444 2659 
Q 444 2766 442 2883 
Q 441 3000 437 3104 
Q 434 3209 431 3284 
Q 428 3359 425 3381 
L 956 3381 
Q 959 3366 962 3297 
Q 966 3228 970 3139 
Q 975 3050 978 2958 
Q 981 2866 981 2803 
L 991 2803 
Q 1072 2950 1169 3069 
Q 1266 3188 1394 3270 
Q 1522 3353 1687 3398 
Q 1853 3444 2072 3444 
Q 2353 3444 2556 3375 
Q 2759 3306 2890 3162 
Q 3022 3019 3083 2792 
Q 3144 2566 3144 2253 
L 3144 0 
L 2578 0 
z
" id="LiberationSans-6e" transform="scale(0.015625)"/>
       <path d="M 2566 544 
Q 2409 219 2151 78 
Q 1894 -63 1513 -63 
Q 872 -63 570 368 
Q 269 800 269 1675 
Q 269 3444 1513 3444 
Q 1897 3444 2153 3303 
Q 2409 3163 2566 2856 
L 2572 2856 
Q 2572 2888 2570 2955 
Q 2569 3022 2567 3095 
Q 2566 3169 2566 3234 
Q 2566 3300 2566 3328 
L 2566 4638 
L 3128 4638 
L 3128 697 
Q 3128 575 3129 462 
Q 3131 350 3134 256 
Q 3138 163 3141 95 
Q 3144 28 3147 0 
L 2609 0 
Q 2603 31 2598 89 
Q 2594 147 2589 222 
Q 2584 297 2581 380 
Q 2578 463 2578 544 
L 2566 544 
z
M 859 1694 
Q 859 1344 903 1094 
Q 947 844 1044 683 
Q 1141 522 1291 447 
Q 1441 372 1656 372 
Q 1878 372 2048 444 
Q 2219 516 2333 677 
Q 2447 838 2506 1097 
Q 2566 1356 2566 1731 
Q 2566 2091 2506 2339 
Q 2447 2588 2331 2741 
Q 2216 2894 2048 2961 
Q 1881 3028 1663 3028 
Q 1456 3028 1306 2956 
Q 1156 2884 1056 2725 
Q 956 2566 907 2311 
Q 859 2056 859 1694 
z
" id="LiberationSans-64" transform="scale(0.015625)"/>
       <path d="M 3291 1706 
Q 3291 1322 3228 997 
Q 3166 672 3020 437 
Q 2875 203 2636 70 
Q 2397 -63 2047 -63 
Q 1684 -63 1412 75 
Q 1141 213 997 525 
L 981 525 
Q 984 519 986 469 
Q 988 419 989 344 
Q 991 269 992 176 
Q 994 84 994 -6 
L 994 -1328 
L 431 -1328 
L 431 2691 
Q 431 2813 429 2925 
Q 428 3038 425 3130 
Q 422 3222 419 3287 
Q 416 3353 413 3381 
L 956 3381 
Q 959 3372 964 3315 
Q 969 3259 973 3179 
Q 978 3100 983 3009 
Q 988 2919 988 2838 
L 1000 2838 
Q 1078 3000 1178 3114 
Q 1278 3228 1406 3301 
Q 1534 3375 1692 3408 
Q 1850 3441 2047 3441 
Q 2397 3441 2636 3316 
Q 2875 3191 3020 2964 
Q 3166 2738 3228 2417 
Q 3291 2097 3291 1706 
z
M 2700 1694 
Q 2700 2006 2662 2250 
Q 2625 2494 2533 2662 
Q 2441 2831 2287 2918 
Q 2134 3006 1903 3006 
Q 1716 3006 1550 2953 
Q 1384 2900 1261 2750 
Q 1138 2600 1066 2336 
Q 994 2072 994 1650 
Q 994 1291 1053 1042 
Q 1113 794 1227 641 
Q 1341 488 1509 420 
Q 1678 353 1897 353 
Q 2131 353 2286 443 
Q 2441 534 2533 706 
Q 2625 878 2662 1126 
Q 2700 1375 2700 1694 
z
" id="LiberationSans-70" transform="scale(0.015625)"/>
       <path d="M 3291 1694 
Q 3291 806 2900 371 
Q 2509 -63 1766 -63 
Q 1413 -63 1134 43 
Q 856 150 664 369 
Q 472 588 370 917 
Q 269 1247 269 1694 
Q 269 3444 1784 3444 
Q 2178 3444 2464 3334 
Q 2750 3225 2933 3006 
Q 3116 2788 3203 2459 
Q 3291 2131 3291 1694 
z
M 2700 1694 
Q 2700 2088 2639 2344 
Q 2578 2600 2461 2753 
Q 2344 2906 2175 2967 
Q 2006 3028 1794 3028 
Q 1578 3028 1404 2964 
Q 1231 2900 1109 2745 
Q 988 2591 923 2334 
Q 859 2078 859 1694 
Q 859 1300 928 1042 
Q 997 784 1117 631 
Q 1238 478 1402 415 
Q 1566 353 1759 353 
Q 1975 353 2150 414 
Q 2325 475 2447 628 
Q 2569 781 2634 1040 
Q 2700 1300 2700 1694 
z
" id="LiberationSans-6f" transform="scale(0.015625)"/>
       <path d="M 859 1706 
Q 859 1416 901 1172 
Q 944 928 1044 751 
Q 1144 575 1308 478 
Q 1472 381 1713 381 
Q 2013 381 2214 543 
Q 2416 706 2463 1044 
L 3031 1006 
Q 3003 797 2909 603 
Q 2816 409 2655 262 
Q 2494 116 2262 26 
Q 2031 -63 1728 -63 
Q 1331 -63 1053 71 
Q 775 206 601 442 
Q 428 678 350 998 
Q 272 1319 272 1694 
Q 272 2034 328 2295 
Q 384 2556 486 2751 
Q 588 2947 725 3080 
Q 863 3213 1023 3292 
Q 1184 3372 1362 3408 
Q 1541 3444 1722 3444 
Q 2006 3444 2228 3366 
Q 2450 3288 2611 3152 
Q 2772 3016 2872 2831 
Q 2972 2647 3013 2434 
L 2434 2391 
Q 2391 2672 2212 2837 
Q 2034 3003 1706 3003 
Q 1466 3003 1305 2923 
Q 1144 2844 1044 2683 
Q 944 2522 901 2278 
Q 859 2034 859 1706 
z
" id="LiberationSans-63" transform="scale(0.015625)"/>
       <path d="M 991 2803 
Q 1084 2975 1193 3095 
Q 1303 3216 1434 3294 
Q 1566 3372 1722 3408 
Q 1878 3444 2072 3444 
Q 2397 3444 2605 3356 
Q 2813 3269 2933 3111 
Q 3053 2953 3098 2734 
Q 3144 2516 3144 2253 
L 3144 0 
L 2578 0 
L 2578 2144 
Q 2578 2359 2551 2521 
Q 2525 2684 2450 2792 
Q 2375 2900 2237 2954 
Q 2100 3009 1881 3009 
Q 1681 3009 1520 2937 
Q 1359 2866 1245 2734 
Q 1131 2603 1068 2415 
Q 1006 2228 1006 1994 
L 1006 0 
L 444 0 
L 444 4638 
L 1006 4638 
L 1006 3431 
Q 1006 3328 1003 3225 
Q 1000 3122 995 3034 
Q 991 2947 987 2886 
Q 984 2825 981 2803 
L 991 2803 
z
" id="LiberationSans-68" transform="scale(0.015625)"/>
      </defs>
      <use xlink:href="#LiberationSans-4e"/>
      <use x="72.216797" xlink:href="#LiberationSans-61"/>
      <use x="127.832031" xlink:href="#LiberationSans-6d"/>
      <use x="211.132812" xlink:href="#LiberationSans-65"/>
      <use x="266.748047" xlink:href="#LiberationSans-73"/>
      <use x="316.748047" xlink:href="#LiberationSans-20"/>
      <use x="344.53125" xlink:href="#LiberationSans-61"/>
      <use x="400.146484" xlink:href="#LiberationSans-6e"/>
      <use x="455.761719" xlink:href="#LiberationSans-64"/>
      <use x="511.376953" xlink:href="#LiberationSans-20"/>
      <use x="539.160156" xlink:href="#LiberationSans-65"/>
      <use x="594.775391" xlink:href="#LiberationSans-70"/>
      <use x="650.390625" xlink:href="#LiberationSans-6f"/>
      <use x="706.005859" xlink:href="#LiberationSans-63"/>
      <use x="756.005859" xlink:href="#LiberationSans-68"/>
      <use x="811.621094" xlink:href="#LiberationSans-73"/>
     </g>
    </g>
    <g id="line2d_31"/>
    <g id="line2d_32">
     <g>
      <use style="fill:#8c8680;" x="718.487198" xlink:href="#m80dcd94d72" y="73.91915"/>
     </g>
    </g>
    <g id="text_16">
     <!-- 2021-07-01 00:01 (Mercury (☿)) -->
     <g style="fill:#262626;" transform="translate(736.487198 77.41915)scale(0.1 -0.1)">
      <defs>
       <path d="M 284 1450 
L 284 1950 
L 1847 1950 
L 1847 1450 
L 284 1450 
z
" id="LiberationSans-2d" transform="scale(0.015625)"/>
       <path d="M 3238 3947 
Q 2906 3441 2628 2973 
Q 2350 2506 2150 2032 
Q 1950 1559 1839 1061 
Q 1728 563 1728 0 
L 1141 0 
Q 1141 528 1266 1036 
Q 1391 1544 1603 2033 
Q 1816 2522 2097 2994 
Q 2378 3466 2694 3925 
L 328 3925 
L 328 4403 
L 3238 4403 
L 3238 3947 
z
" id="LiberationSans-37" transform="scale(0.015625)"/>
       <path d="M 584 2734 
L 584 3381 
L 1194 3381 
L 1194 2734 
L 584 2734 
z
M 584 0 
L 584 647 
L 1194 647 
L 1194 0 
L 584 0 
z
" id="LiberationSans-3a" transform="scale(0.015625)"/>
       <path d="M 4269 0 
L 4269 2938 
Q 4269 3097 4272 3262 
Q 4275 3428 4281 3566 
Q 4288 3725 4297 3875 
Q 4253 3716 4206 3559 
Q 4166 3425 4117 3273 
Q 4069 3122 4022 3000 
L 2884 0 
L 2466 0 
L 1313 3000 
Q 1294 3047 1273 3109 
Q 1253 3172 1229 3242 
Q 1206 3313 1182 3386 
Q 1159 3459 1138 3531 
Q 1084 3697 1034 3875 
Q 1038 3700 1044 3528 
Q 1050 3381 1053 3220 
Q 1056 3059 1056 2938 
L 1056 0 
L 525 0 
L 525 4403 
L 1309 4403 
L 2481 1350 
Q 2503 1288 2534 1189 
Q 2566 1091 2594 987 
Q 2622 884 2645 792 
Q 2669 700 2678 650 
Q 2688 700 2713 794 
Q 2738 888 2770 991 
Q 2803 1094 2834 1191 
Q 2866 1288 2891 1350 
L 4041 4403 
L 4806 4403 
L 4806 0 
L 4269 0 
z
" id="LiberationSans-4d" transform="scale(0.015625)"/>
       <path d="M 444 0 
L 444 2594 
Q 444 2700 442 2811 
Q 441 2922 437 3025 
Q 434 3128 431 3218 
Q 428 3309 425 3381 
L 956 3381 
Q 959 3309 964 3217 
Q 969 3125 973 3028 
Q 978 2931 979 2842 
Q 981 2753 981 2691 
L 994 2691 
Q 1053 2884 1120 3026 
Q 1188 3169 1278 3261 
Q 1369 3353 1494 3398 
Q 1619 3444 1797 3444 
Q 1866 3444 1928 3433 
Q 1991 3422 2025 3413 
L 2025 2897 
Q 1969 2913 1894 2920 
Q 1819 2928 1725 2928 
Q 1531 2928 1395 2840 
Q 1259 2753 1173 2598 
Q 1088 2444 1047 2230 
Q 1006 2016 1006 1763 
L 1006 0 
L 444 0 
z
" id="LiberationSans-72" transform="scale(0.015625)"/>
       <path d="M 981 3381 
L 981 1238 
Q 981 991 1017 825 
Q 1053 659 1134 557 
Q 1216 456 1348 414 
Q 1481 372 1678 372 
Q 1878 372 2039 442 
Q 2200 513 2314 645 
Q 2428 778 2490 973 
Q 2553 1169 2553 1422 
L 2553 3381 
L 3116 3381 
L 3116 722 
Q 3116 616 3117 498 
Q 3119 381 3122 276 
Q 3125 172 3128 97 
Q 3131 22 3134 0 
L 2603 0 
Q 2600 16 2597 84 
Q 2594 153 2589 242 
Q 2584 331 2581 423 
Q 2578 516 2578 578 
L 2569 578 
Q 2488 431 2391 312 
Q 2294 194 2166 111 
Q 2038 28 1872 -17 
Q 1706 -63 1488 -63 
Q 1206 -63 1003 6 
Q 800 75 669 219 
Q 538 363 477 588 
Q 416 813 416 1128 
L 416 3381 
L 981 3381 
z
" id="LiberationSans-75" transform="scale(0.015625)"/>
       <path d="M 1888 0 
Q 1769 -306 1645 -551 
Q 1522 -797 1369 -970 
Q 1216 -1144 1028 -1236 
Q 841 -1328 597 -1328 
Q 491 -1328 400 -1322 
Q 309 -1316 209 -1294 
L 209 -872 
Q 269 -881 344 -886 
Q 419 -891 472 -891 
Q 719 -891 931 -706 
Q 1144 -522 1303 -119 
L 1356 16 
L 16 3381 
L 616 3381 
L 1328 1513 
Q 1359 1428 1407 1287 
Q 1456 1147 1504 1006 
Q 1553 866 1590 753 
Q 1628 641 1634 613 
Q 1644 647 1680 748 
Q 1716 850 1761 975 
Q 1806 1100 1853 1228 
Q 1900 1356 1931 1450 
L 2594 3381 
L 3188 3381 
L 1888 0 
z
" id="LiberationSans-79" transform="scale(0.015625)"/>
       <path d="M 213 0 
L 213 4266 
L 1913 4266 
L 1913 0 
L 213 0 
z
M 425 213 
L 1700 213 
L 1700 4053 
L 425 4053 
L 425 213 
z
" id="LiberationSans-263f" transform="scale(0.015625)"/>
      </defs>
      <use xlink:href="#LiberationSans-32"/>
      <use x="55.615234" xlink:href="#LiberationSans-30"/>
      <use x="111.230469" xlink:href="#LiberationSans-32"/>
      <use x="166.845703" xlink:href="#LiberationSans-31"/>
      <use x="222.460938" xlink:href="#LiberationSans-2d"/>
      <use x="255.761719" xlink:href="#LiberationSans-30"/>
      <use x="311.376953" xlink:href="#LiberationSans-37"/>
      <use x="366.992188" xlink:href="#LiberationSans-2d"/>
      <use x="400.292969" xlink:href="#LiberationSans-30"/>
      <use x="455.908203" xlink:href="#LiberationSans-31"/>
      <use x="511.523438" xlink:href="#LiberationSans-20"/>
      <use x="539.306641" xlink:href="#LiberationSans-30"/>
      <use x="594.921875" xlink:href="#LiberationSans-30"/>
      <use x="650.537109" xlink:href="#LiberationSans-3a"/>
      <use x="678.320312" xlink:href="#LiberationSans-30"/>
      <use x="733.935547" xlink:href="#LiberationSans-31"/>
      <use x="789.550781" xlink:href="#LiberationSans-20"/>
      <use x="817.333984" xlink:href="#LiberationSans-28"/>
      <use x="850.634766" xlink:href="#LiberationSans-4d"/>
      <use x="933.935547" xlink:href="#LiberationSans-65"/>
      <use x="989.550781" xlink:href="#LiberationSans-72"/>
      <use x="1022.851562" xlink:href="#LiberationSans-63"/>
      <use x="1072.851562" xlink:href="#LiberationSans-75"/>
      <use x="1128.466797" xlink:href="#LiberationSans-72"/>
      <use x="1161.767578" xlink:href="#LiberationSans-79"/>
      <use x="1211.767578" xlink:href="#LiberationSans-20"/>
      <use x="1239.550781" xlink:href="#LiberationSans-28"/>
      <use x="1272.851562" xlink:href="#LiberationSans-263f"/>
      <use x="1309.375" xlink:href="#LiberationSans-29"/>
      <use x="1342.675781" xlink:href="#LiberationSans-29"/>
     </g>
    </g>
    <g id="line2d_33"/>
    <g id="line2d_34">
     <g>
      <use style="fill:#e6db67;" x="718.487198" xlink:href="#m48075a400d" y="88.241025"/>
     </g>
    </g>
    <g id="text_17">
     <!-- 2021-07-01 00:01 (Venus (♀)) -->
     <g style="fill:#262626;" transform="translate(736.487198 91.741025)scale(0.1 -0.1)">
      <defs>
       <path d="M 2444 0 
L 1825 0 
L 28 4403 
L 656 4403 
L 1875 1303 
Q 1922 1163 1969 1023 
Q 2016 884 2053 775 
Q 2097 647 2138 525 
Q 2175 641 2219 769 
Q 2256 878 2301 1015 
Q 2347 1153 2400 1303 
L 3613 4403 
L 4241 4403 
L 2444 0 
z
" id="LiberationSans-56" transform="scale(0.015625)"/>
       <path d="M 2288 1806 
Q 2116 1831 1975 1903 
Q 1834 1975 1725 2106 
Q 1503 2356 1503 2694 
Q 1503 3075 1763 3334 
Q 1900 3469 2058 3536 
Q 2216 3603 2403 3603 
Q 2772 3603 3031 3334 
Q 3300 3075 3300 2694 
Q 3300 2353 3075 2100 
Q 2850 1844 2519 1806 
L 2519 1288 
L 3319 1288 
L 3319 1069 
L 2519 1069 
L 2519 250 
L 2288 250 
L 2288 1069 
L 1481 1069 
L 1481 1288 
L 2288 1288 
L 2288 1806 
z
M 2397 3341 
Q 2138 3341 1944 3156 
Q 1853 3059 1804 2948 
Q 1756 2838 1756 2700 
Q 1756 2566 1804 2455 
Q 1853 2344 1944 2247 
Q 2138 2053 2397 2053 
Q 2669 2053 2853 2247 
Q 3044 2438 3044 2700 
Q 3044 2838 2997 2948 
Q 2950 3059 2859 3156 
Q 2666 3341 2397 3341 
z
" id="LiberationSans-2640" transform="scale(0.015625)"/>
      </defs>
      <use xlink:href="#LiberationSans-32"/>
      <use x="55.615234" xlink:href="#LiberationSans-30"/>
      <use x="111.230469" xlink:href="#LiberationSans-32"/>
      <use x="166.845703" xlink:href="#LiberationSans-31"/>
      <use x="222.460938" xlink:href="#LiberationSans-2d"/>
      <use x="255.761719" xlink:href="#LiberationSans-30"/>
      <use x="311.376953" xlink:href="#LiberationSans-37"/>
      <use x="366.992188" xlink:href="#LiberationSans-2d"/>
      <use x="400.292969" xlink:href="#LiberationSans-30"/>
      <use x="455.908203" xlink:href="#LiberationSans-31"/>
      <use x="511.523438" xlink:href="#LiberationSans-20"/>
      <use x="539.306641" xlink:href="#LiberationSans-30"/>
      <use x="594.921875" xlink:href="#LiberationSans-30"/>
      <use x="650.537109" xlink:href="#LiberationSans-3a"/>
      <use x="678.320312" xlink:href="#LiberationSans-30"/>
      <use x="733.935547" xlink:href="#LiberationSans-31"/>
      <use x="789.550781" xlink:href="#LiberationSans-20"/>
      <use x="817.333984" xlink:href="#LiberationSans-28"/>
      <use x="850.634766" xlink:href="#LiberationSans-56"/>
      <use x="911.833984" xlink:href="#LiberationSans-65"/>
      <use x="967.449219" xlink:href="#LiberationSans-6e"/>
      <use x="1023.064453" xlink:href="#LiberationSans-75"/>
      <use x="1078.679688" xlink:href="#LiberationSans-73"/>
      <use x="1128.679688" xlink:href="#LiberationSans-20"/>
      <use x="1156.462891" xlink:href="#LiberationSans-28"/>
      <use x="1189.763672" xlink:href="#LiberationSans-2640"/>
      <use x="1264.763672" xlink:href="#LiberationSans-29"/>
      <use x="1298.064453" xlink:href="#LiberationSans-29"/>
     </g>
    </g>
    <g id="line2d_35"/>
    <g id="line2d_36">
     <g>
      <use style="fill:#2a7bd1;" x="718.487198" xlink:href="#maa9e1fd060" y="102.5629"/>
     </g>
    </g>
    <g id="text_18">
     <!-- 2021-07-01 00:01 (Earth (♁)) -->
     <g style="fill:#262626;" transform="translate(736.487198 106.0629)scale(0.1 -0.1)">
      <defs>
       <path d="M 525 0 
L 525 4403 
L 3866 4403 
L 3866 3916 
L 1122 3916 
L 1122 2503 
L 3678 2503 
L 3678 2022 
L 1122 2022 
L 1122 488 
L 3994 488 
L 3994 0 
L 525 0 
z
" id="LiberationSans-45" transform="scale(0.015625)"/>
       <path d="M 1731 25 
Q 1603 -9 1470 -29 
Q 1338 -50 1163 -50 
Q 488 -50 488 716 
L 488 2972 
L 97 2972 
L 97 3381 
L 509 3381 
L 675 4138 
L 1050 4138 
L 1050 3381 
L 1675 3381 
L 1675 2972 
L 1050 2972 
L 1050 838 
Q 1050 594 1129 495 
Q 1209 397 1406 397 
Q 1488 397 1564 409 
Q 1641 422 1731 441 
L 1731 25 
z
" id="LiberationSans-74" transform="scale(0.015625)"/>
       <path d="M 213 0 
L 213 4266 
L 1913 4266 
L 1913 0 
L 213 0 
z
M 425 213 
L 1700 213 
L 1700 4053 
L 425 4053 
L 425 213 
z
" id="LiberationSans-2641" transform="scale(0.015625)"/>
      </defs>
      <use xlink:href="#LiberationSans-32"/>
      <use x="55.615234" xlink:href="#LiberationSans-30"/>
      <use x="111.230469" xlink:href="#LiberationSans-32"/>
      <use x="166.845703" xlink:href="#LiberationSans-31"/>
      <use x="222.460938" xlink:href="#LiberationSans-2d"/>
      <use x="255.761719" xlink:href="#LiberationSans-30"/>
      <use x="311.376953" xlink:href="#LiberationSans-37"/>
      <use x="366.992188" xlink:href="#LiberationSans-2d"/>
      <use x="400.292969" xlink:href="#LiberationSans-30"/>
      <use x="455.908203" xlink:href="#LiberationSans-31"/>
      <use x="511.523438" xlink:href="#LiberationSans-20"/>
      <use x="539.306641" xlink:href="#LiberationSans-30"/>
      <use x="594.921875" xlink:href="#LiberationSans-30"/>
      <use x="650.537109" xlink:href="#LiberationSans-3a"/>
      <use x="678.320312" xlink:href="#LiberationSans-30"/>
      <use x="733.935547" xlink:href="#LiberationSans-31"/>
      <use x="789.550781" xlink:href="#LiberationSans-20"/>
      <use x="817.333984" xlink:href="#LiberationSans-28"/>
      <use x="850.634766" xlink:href="#LiberationSans-45"/>
      <use x="917.333984" xlink:href="#LiberationSans-61"/>
      <use x="972.949219" xlink:href="#LiberationSans-72"/>
      <use x="1006.25" xlink:href="#LiberationSans-74"/>
      <use x="1034.033203" xlink:href="#LiberationSans-68"/>
      <use x="1089.648438" xlink:href="#LiberationSans-20"/>
      <use x="1117.431641" xlink:href="#LiberationSans-28"/>
      <use x="1150.732422" xlink:href="#LiberationSans-2641"/>
      <use x="1187.255859" xlink:href="#LiberationSans-29"/>
      <use x="1220.556641" xlink:href="#LiberationSans-29"/>
     </g>
    </g>
    <g id="line2d_37"/>
    <g id="line2d_38">
     <g>
      <use style="fill:#cc653f;" x="718.487198" xlink:href="#m9b3b3121bb" y="116.884775"/>
     </g>
    </g>
    <g id="text_19">
     <!-- 2021-07-01 00:01 (Mars (♂)) -->
     <g style="fill:#262626;" transform="translate(736.487198 120.384775)scale(0.1 -0.1)">
      <defs>
       <path d="M 3197 3200 
Q 3144 3216 3059 3244 
Q 2975 3272 2859 3316 
Q 2772 3350 2709 3387 
Q 2647 3425 2603 3469 
Q 2588 3478 2583 3493 
Q 2578 3509 2578 3525 
Q 2578 3550 2597 3578 
Q 2606 3584 2615 3587 
Q 2625 3591 2641 3591 
Q 2656 3591 2679 3587 
Q 2703 3584 2744 3578 
Q 2844 3553 2942 3539 
Q 3041 3525 3141 3525 
Q 3284 3525 3384 3536 
Q 3484 3547 3544 3566 
Q 3656 3603 3697 3603 
Q 3747 3603 3747 3559 
Q 3747 3531 3728 3475 
Q 3700 3369 3689 3245 
Q 3678 3122 3678 2981 
Q 3678 2884 3684 2784 
Q 3691 2684 3716 2578 
Q 3722 2544 3725 2519 
Q 3728 2494 3728 2478 
Q 3728 2463 3725 2452 
Q 3722 2441 3716 2431 
Q 3688 2413 3672 2413 
Q 3606 2413 3544 2534 
Q 3475 2666 3426 2794 
Q 3378 2922 3344 3053 
L 2603 2309 
Q 2866 2056 2866 1716 
Q 2866 1325 2597 1056 
Q 2325 781 1956 781 
Q 1588 781 1316 1044 
Q 1053 1306 1053 1672 
Q 1053 2038 1316 2309 
Q 1581 2578 1963 2578 
Q 2184 2578 2444 2444 
L 3197 3200 
z
M 1963 2344 
Q 1681 2344 1488 2150 
Q 1297 1959 1297 1684 
Q 1297 1400 1488 1209 
Q 1688 1019 1963 1019 
Q 2241 1019 2428 1209 
Q 2622 1403 2622 1684 
Q 2622 1956 2428 2150 
Q 2241 2344 1963 2344 
z
" id="LiberationSans-2642" transform="scale(0.015625)"/>
      </defs>
      <use xlink:href="#LiberationSans-32"/>
      <use x="55.615234" xlink:href="#LiberationSans-30"/>
      <use x="111.230469" xlink:href="#LiberationSans-32"/>
      <use x="166.845703" xlink:href="#LiberationSans-31"/>
      <use x="222.460938" xlink:href="#LiberationSans-2d"/>
      <use x="255.761719" xlink:href="#LiberationSans-30"/>
      <use x="311.376953" xlink:href="#LiberationSans-37"/>
      <use x="366.992188" xlink:href="#LiberationSans-2d"/>
      <use x="400.292969" xlink:href="#LiberationSans-30"/>
      <use x="455.908203" xlink:href="#LiberationSans-31"/>
      <use x="511.523438" xlink:href="#LiberationSans-20"/>
      <use x="539.306641" xlink:href="#LiberationSans-30"/>
      <use x="594.921875" xlink:href="#LiberationSans-30"/>
      <use x="650.537109" xlink:href="#LiberationSans-3a"/>
      <use x="678.320312" xlink:href="#LiberationSans-30"/>
      <use x="733.935547" xlink:href="#LiberationSans-31"/>
      <use x="789.550781" xlink:href="#LiberationSans-20"/>
      <use x="817.333984" xlink:href="#LiberationSans-28"/>
      <use x="850.634766" xlink:href="#LiberationSans-4d"/>
      <use x="933.935547" xlink:href="#LiberationSans-61"/>
      <use x="989.550781" xlink:href="#LiberationSans-72"/>
      <use x="1022.851562" xlink:href="#LiberationSans-73"/>
      <use x="1072.851562" xlink:href="#LiberationSans-20"/>
      <use x="1100.634766" xlink:href="#LiberationSans-28"/>
      <use x="1133.935547" xlink:href="#LiberationSans-2642"/>
      <use x="1208.935547" xlink:href="#LiberationSans-29"/>
      <use x="1242.236328" xlink:href="#LiberationSans-29"/>
     </g>
    </g>
    <g id="line2d_39"/>
    <g id="line2d_40">
     <g>
      <use x="718.487198" xlink:href="#mb91093eaf8" y="131.20665"/>
     </g>
    </g>
    <g id="text_20">
     <!-- Ivar -->
     <g style="fill:#262626;" transform="translate(736.487198 134.70665)scale(0.1 -0.1)">
      <defs>
       <path d="M 591 0 
L 591 4403 
L 1188 4403 
L 1188 0 
L 591 0 
z
" id="LiberationSans-49" transform="scale(0.015625)"/>
       <path d="M 1916 0 
L 1250 0 
L 22 3381 
L 622 3381 
L 1366 1181 
Q 1388 1113 1417 1014 
Q 1447 916 1478 809 
Q 1509 703 1536 604 
Q 1563 506 1581 441 
Q 1600 506 1629 604 
Q 1659 703 1690 806 
Q 1722 909 1755 1007 
Q 1788 1106 1813 1175 
L 2581 3381 
L 3178 3381 
L 1916 0 
z
" id="LiberationSans-76" transform="scale(0.015625)"/>
      </defs>
      <use xlink:href="#LiberationSans-49"/>
      <use x="27.783203" xlink:href="#LiberationSans-76"/>
      <use x="77.783203" xlink:href="#LiberationSans-61"/>
      <use x="133.398438" xlink:href="#LiberationSans-72"/>
     </g>
    </g>
   </g>
  </g>
 </g>
 <defs>
  <clipPath id="p2ad183b164">
   <rect height="332.64" width="332.522179" x="350.338911" y="51.84"/>
  </clipPath>
 </defs>
</svg>
