<?xml version="1.0" encoding="utf-8" standalone="no"?>
<!DOCTYPE svg PUBLIC "-//W3C//DTD SVG 1.1//EN"
  "http://www.w3.org/Graphics/SVG/1.1/DTD/svg11.dtd">
<svg height="432pt" version="1.1" viewBox="0 0 720 432" width="720pt" xmlns="http://www.w3.org/2000/svg" xmlns:xlink="http://www.w3.org/1999/xlink">
 <metadata>
  <rdf:RDF xmlns:cc="http://creativecommons.org/ns#" xmlns:dc="http://purl.org/dc/elements/1.1/" xmlns:rdf="http://www.w3.org/1999/02/22-rdf-syntax-ns#">
   <cc:Work>
    <dc:type rdf:resource="http://purl.org/dc/dcmitype/StillImage"/>
    <dc:date>2021-10-24T13:22:45.021311</dc:date>
    <dc:format>image/svg+xml</dc:format>
    <dc:creator>
     <cc:Agent>
      <dc:title>Matplotlib v3.4.2, https://matplotlib.org/</dc:title>
     </cc:Agent>
    </dc:creator>
   </cc:Work>
  </rdf:RDF>
 </metadata>
 <defs>
  <style type="text/css">*{stroke-linecap:butt;stroke-linejoin:round;}</style>
 </defs>
 <g id="figure_1">
  <g id="patch_1">
   <path d="M 0 432 
L 720 432 
L 720 0 
L 0 0 
z
" style="fill:#ffffff;"/>
  </g>
  <g id="axes_1">
   <g id="patch_2">
    <path d="M 90 384.48 
L 648 384.48 
L 648 51.84 
L 90 51.84 
z
" style="fill:#ffffff;"/>
   </g>
   <g id="LineCollection_1">
    <path clip-path="url(#p46fde5401c)" d="M 136.5 134.594784 
L 136.5 223.298784 
" style="fill:none;stroke:#696969;"/>
    <path clip-path="url(#p46fde5401c)" d="M 139.74105 140.540976 
L 139.74105 213.788304 
" style="fill:none;stroke:#696969;"/>
    <path clip-path="url(#p46fde5401c)" d="M 142.39155 136.768032 
L 142.39155 228.832704 
" style="fill:none;stroke:#696969;"/>
    <path clip-path="url(#p46fde5401c)" d="M 142.433865 143.005536 
L 142.433865 194.750208 
" style="fill:none;stroke:#696969;"/>
    <path clip-path="url(#p46fde5401c)" d="M 147.66558 134.896176 
L 147.66558 207.472176 
" style="fill:none;stroke:#696969;"/>
    <path clip-path="url(#p46fde5401c)" d="M 150.990795 142.294896 
L 150.990795 205.462224 
" style="fill:none;stroke:#696969;"/>
    <path clip-path="url(#p46fde5401c)" d="M 151.30095 154.64088 
L 151.30095 251.40888 
" style="fill:none;stroke:#696969;"/>
    <path clip-path="url(#p46fde5401c)" d="M 155.136735 163.202832 
L 155.136735 237.123504 
" style="fill:none;stroke:#696969;"/>
    <path clip-path="url(#p46fde5401c)" d="M 157.40826 147.557664 
L 157.40826 208.037664 
" style="fill:none;stroke:#696969;"/>
    <path clip-path="url(#p46fde5401c)" d="M 163.071495 139.162032 
L 163.071495 238.61736 
" style="fill:none;stroke:#696969;"/>
    <path clip-path="url(#p46fde5401c)" d="M 164.354895 179.016336 
L 164.354895 252.263664 
" style="fill:none;stroke:#696969;"/>
    <path clip-path="url(#p46fde5401c)" d="M 168.63801 211.071744 
L 168.63801 273.567744 
" style="fill:none;stroke:#696969;"/>
    <path clip-path="url(#p46fde5401c)" d="M 171.32013 194.01336 
L 171.32013 296.82936 
" style="fill:none;stroke:#696969;"/>
    <path clip-path="url(#p46fde5401c)" d="M 174.203595 182.041344 
L 174.203595 255.288672 
" style="fill:none;stroke:#696969;"/>
    <path clip-path="url(#p46fde5401c)" d="M 181.35855 188.663904 
L 181.35855 294.840576 
" style="fill:none;stroke:#696969;"/>
    <path clip-path="url(#p46fde5401c)" d="M 181.45806 241.754256 
L 181.45806 298.202256 
" style="fill:none;stroke:#696969;"/>
    <path clip-path="url(#p46fde5401c)" d="M 181.987695 190.846224 
L 181.987695 264.093552 
" style="fill:none;stroke:#696969;"/>
    <path clip-path="url(#p46fde5401c)" d="M 185.799765 211.210848 
L 185.799765 285.802848 
" style="fill:none;stroke:#696969;"/>
    <path clip-path="url(#p46fde5401c)" d="M 189.204495 200.183328 
L 189.204495 305.015328 
" style="fill:none;stroke:#696969;"/>
    <path clip-path="url(#p46fde5401c)" d="M 197.38524 214.508016 
L 197.38524 270.284688 
" style="fill:none;stroke:#696969;"/>
    <path clip-path="url(#p46fde5401c)" d="M 201.26706 235.258704 
L 201.26706 346.138704 
" style="fill:none;stroke:#696969;"/>
    <path clip-path="url(#p46fde5401c)" d="M 215.601615 212.133168 
L 215.601615 320.997168 
" style="fill:none;stroke:#696969;"/>
    <path clip-path="url(#p46fde5401c)" d="M 230.02638 245.656224 
L 230.02638 310.839552 
" style="fill:none;stroke:#696969;"/>
    <path clip-path="url(#p46fde5401c)" d="M 239.43705 209.286576 
L 239.43705 278.501904 
" style="fill:none;stroke:#696969;"/>
    <path clip-path="url(#p46fde5401c)" d="M 248.66823 187.034976 
L 248.66823 248.186304 
" style="fill:none;stroke:#696969;"/>
    <path clip-path="url(#p46fde5401c)" d="M 262.83864 231.761952 
L 262.83864 296.273952 
" style="fill:none;stroke:#696969;"/>
    <path clip-path="url(#p46fde5401c)" d="M 273.10212 232.984656 
L 273.10212 293.464656 
" style="fill:none;stroke:#696969;"/>
    <path clip-path="url(#p46fde5401c)" d="M 314.19045 173.874528 
L 314.19045 235.025856 
" style="fill:none;stroke:#696969;"/>
    <path clip-path="url(#p46fde5401c)" d="M 324.705495 159.69096 
L 324.705495 219.499632 
" style="fill:none;stroke:#696969;"/>
    <path clip-path="url(#p46fde5401c)" d="M 330.4143 159.805872 
L 330.4143 220.285872 
" style="fill:none;stroke:#696969;"/>
    <path clip-path="url(#p46fde5401c)" d="M 340.261605 157.744512 
L 340.261605 216.87984 
" style="fill:none;stroke:#696969;"/>
    <path clip-path="url(#p46fde5401c)" d="M 345.488205 121.757904 
L 345.488205 181.229904 
" style="fill:none;stroke:#696969;"/>
    <path clip-path="url(#p46fde5401c)" d="M 360.45702 148.390272 
L 360.45702 207.862272 
" style="fill:none;stroke:#696969;"/>
    <path clip-path="url(#p46fde5401c)" d="M 378.472515 140.464368 
L 378.472515 198.928368 
" style="fill:none;stroke:#696969;"/>
    <path clip-path="url(#p46fde5401c)" d="M 388.62486 166.275216 
L 388.62486 226.755216 
" style="fill:none;stroke:#696969;"/>
    <path clip-path="url(#p46fde5401c)" d="M 397.63563 162.898416 
L 397.63563 222.707088 
" style="fill:none;stroke:#696969;"/>
    <path clip-path="url(#p46fde5401c)" d="M 408.124635 192.391488 
L 408.124635 253.542816 
" style="fill:none;stroke:#696969;"/>
    <path clip-path="url(#p46fde5401c)" d="M 412.412865 199.95048 
L 412.412865 261.101808 
" style="fill:none;stroke:#696969;"/>
    <path clip-path="url(#p46fde5401c)" d="M 423.207375 210.27744 
L 423.207375 272.102112 
" style="fill:none;stroke:#696969;"/>
    <path clip-path="url(#p46fde5401c)" d="M 431.124465 263.054304 
L 431.124465 327.566304 
" style="fill:none;stroke:#696969;"/>
    <path clip-path="url(#p46fde5401c)" d="M 440.78856 274.097952 
L 440.78856 338.609952 
" style="fill:none;stroke:#696969;"/>
    <path clip-path="url(#p46fde5401c)" d="M 451.568655 301.223232 
L 451.568655 368.42256 
" style="fill:none;stroke:#696969;"/>
    <path clip-path="url(#p46fde5401c)" d="M 458.376255 277.09776 
L 458.376255 342.954432 
" style="fill:none;stroke:#696969;"/>
    <path clip-path="url(#p46fde5401c)" d="M 463.84047 278.89704 
L 463.84047 345.42504 
" style="fill:none;stroke:#696969;"/>
    <path clip-path="url(#p46fde5401c)" d="M 513.509445 127.271664 
L 513.509445 210.598992 
" style="fill:none;stroke:#696969;"/>
    <path clip-path="url(#p46fde5401c)" d="M 522.852225 108.386784 
L 522.852225 183.650112 
" style="fill:none;stroke:#696969;"/>
    <path clip-path="url(#p46fde5401c)" d="M 526.97352 122.32944 
L 526.97352 195.576768 
" style="fill:none;stroke:#696969;"/>
    <path clip-path="url(#p46fde5401c)" d="M 531.7314 128.04984 
L 531.7314 200.62584 
" style="fill:none;stroke:#696969;"/>
    <path clip-path="url(#p46fde5401c)" d="M 533.962935 118.658304 
L 533.962935 193.250304 
" style="fill:none;stroke:#696969;"/>
    <path clip-path="url(#p46fde5401c)" d="M 545.19594 123.207408 
L 545.19594 171.591408 
" style="fill:none;stroke:#696969;"/>
    <path clip-path="url(#p46fde5401c)" d="M 554.210895 95.208192 
L 554.210895 166.43952 
" style="fill:none;stroke:#696969;"/>
    <path clip-path="url(#p46fde5401c)" d="M 559.737885 165.9204 
L 559.737885 210.2724 
" style="fill:none;stroke:#696969;"/>
    <path clip-path="url(#p46fde5401c)" d="M 560.658585 80.878464 
L 560.658585 150.767136 
" style="fill:none;stroke:#696969;"/>
    <path clip-path="url(#p46fde5401c)" d="M 569.272245 115.196832 
L 569.272245 186.42816 
" style="fill:none;stroke:#696969;"/>
    <path clip-path="url(#p46fde5401c)" d="M 570.352905 148.994064 
L 570.352905 194.690736 
" style="fill:none;stroke:#696969;"/>
    <path clip-path="url(#p46fde5401c)" d="M 575.227965 96.178896 
L 575.227965 166.067568 
" style="fill:none;stroke:#696969;"/>
    <path clip-path="url(#p46fde5401c)" d="M 579.080955 164.068704 
L 579.080955 212.452704 
" style="fill:none;stroke:#696969;"/>
    <path clip-path="url(#p46fde5401c)" d="M 584.068545 98.232192 
L 584.068545 168.120864 
" style="fill:none;stroke:#696969;"/>
    <path clip-path="url(#p46fde5401c)" d="M 594.596145 104.59872 
L 594.596145 173.814048 
" style="fill:none;stroke:#696969;"/>
   </g>
   <g id="line2d_1">
    <defs>
     <path d="M 2 0 
L -2 -0 
" id="md6f5681b95" style="stroke:#696969;"/>
    </defs>
    <g clip-path="url(#p46fde5401c)">
     <use style="fill:#696969;stroke:#696969;" x="136.5" xlink:href="#md6f5681b95" y="134.594784"/>
     <use style="fill:#696969;stroke:#696969;" x="139.74105" xlink:href="#md6f5681b95" y="140.540976"/>
     <use style="fill:#696969;stroke:#696969;" x="142.39155" xlink:href="#md6f5681b95" y="136.768032"/>
     <use style="fill:#696969;stroke:#696969;" x="142.433865" xlink:href="#md6f5681b95" y="143.005536"/>
     <use style="fill:#696969;stroke:#696969;" x="147.66558" xlink:href="#md6f5681b95" y="134.896176"/>
     <use style="fill:#696969;stroke:#696969;" x="150.990795" xlink:href="#md6f5681b95" y="142.294896"/>
     <use style="fill:#696969;stroke:#696969;" x="151.30095" xlink:href="#md6f5681b95" y="154.64088"/>
     <use style="fill:#696969;stroke:#696969;" x="155.136735" xlink:href="#md6f5681b95" y="163.202832"/>
     <use style="fill:#696969;stroke:#696969;" x="157.40826" xlink:href="#md6f5681b95" y="147.557664"/>
     <use style="fill:#696969;stroke:#696969;" x="163.071495" xlink:href="#md6f5681b95" y="139.162032"/>
     <use style="fill:#696969;stroke:#696969;" x="164.354895" xlink:href="#md6f5681b95" y="179.016336"/>
     <use style="fill:#696969;stroke:#696969;" x="168.63801" xlink:href="#md6f5681b95" y="211.071744"/>
     <use style="fill:#696969;stroke:#696969;" x="171.32013" xlink:href="#md6f5681b95" y="194.01336"/>
     <use style="fill:#696969;stroke:#696969;" x="174.203595" xlink:href="#md6f5681b95" y="182.041344"/>
     <use style="fill:#696969;stroke:#696969;" x="181.35855" xlink:href="#md6f5681b95" y="188.663904"/>
     <use style="fill:#696969;stroke:#696969;" x="181.45806" xlink:href="#md6f5681b95" y="241.754256"/>
     <use style="fill:#696969;stroke:#696969;" x="181.987695" xlink:href="#md6f5681b95" y="190.846224"/>
     <use style="fill:#696969;stroke:#696969;" x="185.799765" xlink:href="#md6f5681b95" y="211.210848"/>
     <use style="fill:#696969;stroke:#696969;" x="189.204495" xlink:href="#md6f5681b95" y="200.183328"/>
     <use style="fill:#696969;stroke:#696969;" x="197.38524" xlink:href="#md6f5681b95" y="214.508016"/>
     <use style="fill:#696969;stroke:#696969;" x="201.26706" xlink:href="#md6f5681b95" y="235.258704"/>
     <use style="fill:#696969;stroke:#696969;" x="215.601615" xlink:href="#md6f5681b95" y="212.133168"/>
     <use style="fill:#696969;stroke:#696969;" x="230.02638" xlink:href="#md6f5681b95" y="245.656224"/>
     <use style="fill:#696969;stroke:#696969;" x="239.43705" xlink:href="#md6f5681b95" y="209.286576"/>
     <use style="fill:#696969;stroke:#696969;" x="248.66823" xlink:href="#md6f5681b95" y="187.034976"/>
     <use style="fill:#696969;stroke:#696969;" x="262.83864" xlink:href="#md6f5681b95" y="231.761952"/>
     <use style="fill:#696969;stroke:#696969;" x="273.10212" xlink:href="#md6f5681b95" y="232.984656"/>
     <use style="fill:#696969;stroke:#696969;" x="314.19045" xlink:href="#md6f5681b95" y="173.874528"/>
     <use style="fill:#696969;stroke:#696969;" x="324.705495" xlink:href="#md6f5681b95" y="159.69096"/>
     <use style="fill:#696969;stroke:#696969;" x="330.4143" xlink:href="#md6f5681b95" y="159.805872"/>
     <use style="fill:#696969;stroke:#696969;" x="340.261605" xlink:href="#md6f5681b95" y="157.744512"/>
     <use style="fill:#696969;stroke:#696969;" x="345.488205" xlink:href="#md6f5681b95" y="121.757904"/>
     <use style="fill:#696969;stroke:#696969;" x="360.45702" xlink:href="#md6f5681b95" y="148.390272"/>
     <use style="fill:#696969;stroke:#696969;" x="378.472515" xlink:href="#md6f5681b95" y="140.464368"/>
     <use style="fill:#696969;stroke:#696969;" x="388.62486" xlink:href="#md6f5681b95" y="166.275216"/>
     <use style="fill:#696969;stroke:#696969;" x="397.63563" xlink:href="#md6f5681b95" y="162.898416"/>
     <use style="fill:#696969;stroke:#696969;" x="408.124635" xlink:href="#md6f5681b95" y="192.391488"/>
     <use style="fill:#696969;stroke:#696969;" x="412.412865" xlink:href="#md6f5681b95" y="199.95048"/>
     <use style="fill:#696969;stroke:#696969;" x="423.207375" xlink:href="#md6f5681b95" y="210.27744"/>
     <use style="fill:#696969;stroke:#696969;" x="431.124465" xlink:href="#md6f5681b95" y="263.054304"/>
     <use style="fill:#696969;stroke:#696969;" x="440.78856" xlink:href="#md6f5681b95" y="274.097952"/>
     <use style="fill:#696969;stroke:#696969;" x="451.568655" xlink:href="#md6f5681b95" y="301.223232"/>
     <use style="fill:#696969;stroke:#696969;" x="458.376255" xlink:href="#md6f5681b95" y="277.09776"/>
     <use style="fill:#696969;stroke:#696969;" x="463.84047" xlink:href="#md6f5681b95" y="278.89704"/>
     <use style="fill:#696969;stroke:#696969;" x="513.509445" xlink:href="#md6f5681b95" y="127.271664"/>
     <use style="fill:#696969;stroke:#696969;" x="522.852225" xlink:href="#md6f5681b95" y="108.386784"/>
     <use style="fill:#696969;stroke:#696969;" x="526.97352" xlink:href="#md6f5681b95" y="122.32944"/>
     <use style="fill:#696969;stroke:#696969;" x="531.7314" xlink:href="#md6f5681b95" y="128.04984"/>
     <use style="fill:#696969;stroke:#696969;" x="533.962935" xlink:href="#md6f5681b95" y="118.658304"/>
     <use style="fill:#696969;stroke:#696969;" x="545.19594" xlink:href="#md6f5681b95" y="123.207408"/>
     <use style="fill:#696969;stroke:#696969;" x="554.210895" xlink:href="#md6f5681b95" y="95.208192"/>
     <use style="fill:#696969;stroke:#696969;" x="559.737885" xlink:href="#md6f5681b95" y="165.9204"/>
     <use style="fill:#696969;stroke:#696969;" x="560.658585" xlink:href="#md6f5681b95" y="80.878464"/>
     <use style="fill:#696969;stroke:#696969;" x="569.272245" xlink:href="#md6f5681b95" y="115.196832"/>
     <use style="fill:#696969;stroke:#696969;" x="570.352905" xlink:href="#md6f5681b95" y="148.994064"/>
     <use style="fill:#696969;stroke:#696969;" x="575.227965" xlink:href="#md6f5681b95" y="96.178896"/>
     <use style="fill:#696969;stroke:#696969;" x="579.080955" xlink:href="#md6f5681b95" y="164.068704"/>
     <use style="fill:#696969;stroke:#696969;" x="584.068545" xlink:href="#md6f5681b95" y="98.232192"/>
     <use style="fill:#696969;stroke:#696969;" x="594.596145" xlink:href="#md6f5681b95" y="104.59872"/>
    </g>
   </g>
   <g id="line2d_2">
    <g clip-path="url(#p46fde5401c)">
     <use style="fill:#696969;stroke:#696969;" x="136.5" xlink:href="#md6f5681b95" y="223.298784"/>
     <use style="fill:#696969;stroke:#696969;" x="139.74105" xlink:href="#md6f5681b95" y="213.788304"/>
     <use style="fill:#696969;stroke:#696969;" x="142.39155" xlink:href="#md6f5681b95" y="228.832704"/>
     <use style="fill:#696969;stroke:#696969;" x="142.433865" xlink:href="#md6f5681b95" y="194.750208"/>
     <use style="fill:#696969;stroke:#696969;" x="147.66558" xlink:href="#md6f5681b95" y="207.472176"/>
     <use style="fill:#696969;stroke:#696969;" x="150.990795" xlink:href="#md6f5681b95" y="205.462224"/>
     <use style="fill:#696969;stroke:#696969;" x="151.30095" xlink:href="#md6f5681b95" y="251.40888"/>
     <use style="fill:#696969;stroke:#696969;" x="155.136735" xlink:href="#md6f5681b95" y="237.123504"/>
     <use style="fill:#696969;stroke:#696969;" x="157.40826" xlink:href="#md6f5681b95" y="208.037664"/>
     <use style="fill:#696969;stroke:#696969;" x="163.071495" xlink:href="#md6f5681b95" y="238.61736"/>
     <use style="fill:#696969;stroke:#696969;" x="164.354895" xlink:href="#md6f5681b95" y="252.263664"/>
     <use style="fill:#696969;stroke:#696969;" x="168.63801" xlink:href="#md6f5681b95" y="273.567744"/>
     <use style="fill:#696969;stroke:#696969;" x="171.32013" xlink:href="#md6f5681b95" y="296.82936"/>
     <use style="fill:#696969;stroke:#696969;" x="174.203595" xlink:href="#md6f5681b95" y="255.288672"/>
     <use style="fill:#696969;stroke:#696969;" x="181.35855" xlink:href="#md6f5681b95" y="294.840576"/>
     <use style="fill:#696969;stroke:#696969;" x="181.45806" xlink:href="#md6f5681b95" y="298.202256"/>
     <use style="fill:#696969;stroke:#696969;" x="181.987695" xlink:href="#md6f5681b95" y="264.093552"/>
     <use style="fill:#696969;stroke:#696969;" x="185.799765" xlink:href="#md6f5681b95" y="285.802848"/>
     <use style="fill:#696969;stroke:#696969;" x="189.204495" xlink:href="#md6f5681b95" y="305.015328"/>
     <use style="fill:#696969;stroke:#696969;" x="197.38524" xlink:href="#md6f5681b95" y="270.284688"/>
     <use style="fill:#696969;stroke:#696969;" x="201.26706" xlink:href="#md6f5681b95" y="346.138704"/>
     <use style="fill:#696969;stroke:#696969;" x="215.601615" xlink:href="#md6f5681b95" y="320.997168"/>
     <use style="fill:#696969;stroke:#696969;" x="230.02638" xlink:href="#md6f5681b95" y="310.839552"/>
     <use style="fill:#696969;stroke:#696969;" x="239.43705" xlink:href="#md6f5681b95" y="278.501904"/>
     <use style="fill:#696969;stroke:#696969;" x="248.66823" xlink:href="#md6f5681b95" y="248.186304"/>
     <use style="fill:#696969;stroke:#696969;" x="262.83864" xlink:href="#md6f5681b95" y="296.273952"/>
     <use style="fill:#696969;stroke:#696969;" x="273.10212" xlink:href="#md6f5681b95" y="293.464656"/>
     <use style="fill:#696969;stroke:#696969;" x="314.19045" xlink:href="#md6f5681b95" y="235.025856"/>
     <use style="fill:#696969;stroke:#696969;" x="324.705495" xlink:href="#md6f5681b95" y="219.499632"/>
     <use style="fill:#696969;stroke:#696969;" x="330.4143" xlink:href="#md6f5681b95" y="220.285872"/>
     <use style="fill:#696969;stroke:#696969;" x="340.261605" xlink:href="#md6f5681b95" y="216.87984"/>
     <use style="fill:#696969;stroke:#696969;" x="345.488205" xlink:href="#md6f5681b95" y="181.229904"/>
     <use style="fill:#696969;stroke:#696969;" x="360.45702" xlink:href="#md6f5681b95" y="207.862272"/>
     <use style="fill:#696969;stroke:#696969;" x="378.472515" xlink:href="#md6f5681b95" y="198.928368"/>
     <use style="fill:#696969;stroke:#696969;" x="388.62486" xlink:href="#md6f5681b95" y="226.755216"/>
     <use style="fill:#696969;stroke:#696969;" x="397.63563" xlink:href="#md6f5681b95" y="222.707088"/>
     <use style="fill:#696969;stroke:#696969;" x="408.124635" xlink:href="#md6f5681b95" y="253.542816"/>
     <use style="fill:#696969;stroke:#696969;" x="412.412865" xlink:href="#md6f5681b95" y="261.101808"/>
     <use style="fill:#696969;stroke:#696969;" x="423.207375" xlink:href="#md6f5681b95" y="272.102112"/>
     <use style="fill:#696969;stroke:#696969;" x="431.124465" xlink:href="#md6f5681b95" y="327.566304"/>
     <use style="fill:#696969;stroke:#696969;" x="440.78856" xlink:href="#md6f5681b95" y="338.609952"/>
     <use style="fill:#696969;stroke:#696969;" x="451.568655" xlink:href="#md6f5681b95" y="368.42256"/>
     <use style="fill:#696969;stroke:#696969;" x="458.376255" xlink:href="#md6f5681b95" y="342.954432"/>
     <use style="fill:#696969;stroke:#696969;" x="463.84047" xlink:href="#md6f5681b95" y="345.42504"/>
     <use style="fill:#696969;stroke:#696969;" x="513.509445" xlink:href="#md6f5681b95" y="210.598992"/>
     <use style="fill:#696969;stroke:#696969;" x="522.852225" xlink:href="#md6f5681b95" y="183.650112"/>
     <use style="fill:#696969;stroke:#696969;" x="526.97352" xlink:href="#md6f5681b95" y="195.576768"/>
     <use style="fill:#696969;stroke:#696969;" x="531.7314" xlink:href="#md6f5681b95" y="200.62584"/>
     <use style="fill:#696969;stroke:#696969;" x="533.962935" xlink:href="#md6f5681b95" y="193.250304"/>
     <use style="fill:#696969;stroke:#696969;" x="545.19594" xlink:href="#md6f5681b95" y="171.591408"/>
     <use style="fill:#696969;stroke:#696969;" x="554.210895" xlink:href="#md6f5681b95" y="166.43952"/>
     <use style="fill:#696969;stroke:#696969;" x="559.737885" xlink:href="#md6f5681b95" y="210.2724"/>
     <use style="fill:#696969;stroke:#696969;" x="560.658585" xlink:href="#md6f5681b95" y="150.767136"/>
     <use style="fill:#696969;stroke:#696969;" x="569.272245" xlink:href="#md6f5681b95" y="186.42816"/>
     <use style="fill:#696969;stroke:#696969;" x="570.352905" xlink:href="#md6f5681b95" y="194.690736"/>
     <use style="fill:#696969;stroke:#696969;" x="575.227965" xlink:href="#md6f5681b95" y="166.067568"/>
     <use style="fill:#696969;stroke:#696969;" x="579.080955" xlink:href="#md6f5681b95" y="212.452704"/>
     <use style="fill:#696969;stroke:#696969;" x="584.068545" xlink:href="#md6f5681b95" y="168.120864"/>
     <use style="fill:#696969;stroke:#696969;" x="594.596145" xlink:href="#md6f5681b95" y="173.814048"/>
    </g>
   </g>
   <g id="line2d_3">
    <defs>
     <path d="M 0 3 
C 0.795609 3 1.55874 2.683901 2.12132 2.12132 
C 2.683901 1.55874 3 0.795609 3 0 
C 3 -0.795609 2.683901 -1.55874 2.12132 -2.12132 
C 1.55874 -2.683901 0.795609 -3 0 -3 
C -0.795609 -3 -1.55874 -2.683901 -2.12132 -2.12132 
C -2.683901 -1.55874 -3 -0.795609 -3 0 
C -3 0.795609 -2.683901 1.55874 -2.12132 2.12132 
C -1.55874 2.683901 -0.795609 3 0 3 
z
" id="m0695130969" style="stroke:#1f77b4;"/>
    </defs>
    <g clip-path="url(#p46fde5401c)">
     <use style="fill:#1f77b4;stroke:#1f77b4;" x="136.5" xlink:href="#m0695130969" y="178.946784"/>
     <use style="fill:#1f77b4;stroke:#1f77b4;" x="139.74105" xlink:href="#m0695130969" y="177.16464"/>
     <use style="fill:#1f77b4;stroke:#1f77b4;" x="142.39155" xlink:href="#m0695130969" y="182.800368"/>
     <use style="fill:#1f77b4;stroke:#1f77b4;" x="142.433865" xlink:href="#m0695130969" y="168.877872"/>
     <use style="fill:#1f77b4;stroke:#1f77b4;" x="147.66558" xlink:href="#m0695130969" y="171.184176"/>
     <use style="fill:#1f77b4;stroke:#1f77b4;" x="150.990795" xlink:href="#m0695130969" y="173.87856"/>
     <use style="fill:#1f77b4;stroke:#1f77b4;" x="151.30095" xlink:href="#m0695130969" y="203.02488"/>
     <use style="fill:#1f77b4;stroke:#1f77b4;" x="155.136735" xlink:href="#m0695130969" y="200.163168"/>
     <use style="fill:#1f77b4;stroke:#1f77b4;" x="157.40826" xlink:href="#m0695130969" y="177.797664"/>
     <use style="fill:#1f77b4;stroke:#1f77b4;" x="163.071495" xlink:href="#m0695130969" y="188.889696"/>
     <use style="fill:#1f77b4;stroke:#1f77b4;" x="164.354895" xlink:href="#m0695130969" y="215.64"/>
     <use style="fill:#1f77b4;stroke:#1f77b4;" x="168.63801" xlink:href="#m0695130969" y="242.319744"/>
     <use style="fill:#1f77b4;stroke:#1f77b4;" x="171.32013" xlink:href="#m0695130969" y="245.42136"/>
     <use style="fill:#1f77b4;stroke:#1f77b4;" x="174.203595" xlink:href="#m0695130969" y="218.665008"/>
     <use style="fill:#1f77b4;stroke:#1f77b4;" x="181.35855" xlink:href="#m0695130969" y="241.75224"/>
     <use style="fill:#1f77b4;stroke:#1f77b4;" x="181.45806" xlink:href="#m0695130969" y="269.978256"/>
     <use style="fill:#1f77b4;stroke:#1f77b4;" x="181.987695" xlink:href="#m0695130969" y="227.469888"/>
     <use style="fill:#1f77b4;stroke:#1f77b4;" x="185.799765" xlink:href="#m0695130969" y="248.506848"/>
     <use style="fill:#1f77b4;stroke:#1f77b4;" x="189.204495" xlink:href="#m0695130969" y="252.599328"/>
     <use style="fill:#1f77b4;stroke:#1f77b4;" x="197.38524" xlink:href="#m0695130969" y="242.396352"/>
     <use style="fill:#1f77b4;stroke:#1f77b4;" x="201.26706" xlink:href="#m0695130969" y="290.698704"/>
     <use style="fill:#1f77b4;stroke:#1f77b4;" x="215.601615" xlink:href="#m0695130969" y="266.565168"/>
     <use style="fill:#1f77b4;stroke:#1f77b4;" x="230.02638" xlink:href="#m0695130969" y="278.247888"/>
     <use style="fill:#1f77b4;stroke:#1f77b4;" x="239.43705" xlink:href="#m0695130969" y="243.89424"/>
     <use style="fill:#1f77b4;stroke:#1f77b4;" x="248.66823" xlink:href="#m0695130969" y="217.61064"/>
     <use style="fill:#1f77b4;stroke:#1f77b4;" x="262.83864" xlink:href="#m0695130969" y="264.017952"/>
     <use style="fill:#1f77b4;stroke:#1f77b4;" x="273.10212" xlink:href="#m0695130969" y="263.224656"/>
     <use style="fill:#1f77b4;stroke:#1f77b4;" x="314.19045" xlink:href="#m0695130969" y="204.450192"/>
     <use style="fill:#1f77b4;stroke:#1f77b4;" x="324.705495" xlink:href="#m0695130969" y="189.595296"/>
     <use style="fill:#1f77b4;stroke:#1f77b4;" x="330.4143" xlink:href="#m0695130969" y="190.045872"/>
     <use style="fill:#1f77b4;stroke:#1f77b4;" x="340.261605" xlink:href="#m0695130969" y="187.312176"/>
     <use style="fill:#1f77b4;stroke:#1f77b4;" x="345.488205" xlink:href="#m0695130969" y="151.493904"/>
     <use style="fill:#1f77b4;stroke:#1f77b4;" x="360.45702" xlink:href="#m0695130969" y="178.126272"/>
     <use style="fill:#1f77b4;stroke:#1f77b4;" x="378.472515" xlink:href="#m0695130969" y="169.696368"/>
     <use style="fill:#1f77b4;stroke:#1f77b4;" x="388.62486" xlink:href="#m0695130969" y="196.515216"/>
     <use style="fill:#1f77b4;stroke:#1f77b4;" x="397.63563" xlink:href="#m0695130969" y="192.802752"/>
     <use style="fill:#1f77b4;stroke:#1f77b4;" x="408.124635" xlink:href="#m0695130969" y="222.967152"/>
     <use style="fill:#1f77b4;stroke:#1f77b4;" x="412.412865" xlink:href="#m0695130969" y="230.526144"/>
     <use style="fill:#1f77b4;stroke:#1f77b4;" x="423.207375" xlink:href="#m0695130969" y="241.189776"/>
     <use style="fill:#1f77b4;stroke:#1f77b4;" x="431.124465" xlink:href="#m0695130969" y="295.310304"/>
     <use style="fill:#1f77b4;stroke:#1f77b4;" x="440.78856" xlink:href="#m0695130969" y="306.353952"/>
     <use style="fill:#1f77b4;stroke:#1f77b4;" x="451.568655" xlink:href="#m0695130969" y="334.822896"/>
     <use style="fill:#1f77b4;stroke:#1f77b4;" x="458.376255" xlink:href="#m0695130969" y="310.026096"/>
     <use style="fill:#1f77b4;stroke:#1f77b4;" x="463.84047" xlink:href="#m0695130969" y="312.16104"/>
     <use style="fill:#1f77b4;stroke:#1f77b4;" x="513.509445" xlink:href="#m0695130969" y="168.935328"/>
     <use style="fill:#1f77b4;stroke:#1f77b4;" x="522.852225" xlink:href="#m0695130969" y="146.018448"/>
     <use style="fill:#1f77b4;stroke:#1f77b4;" x="526.97352" xlink:href="#m0695130969" y="158.953104"/>
     <use style="fill:#1f77b4;stroke:#1f77b4;" x="531.7314" xlink:href="#m0695130969" y="164.33784"/>
     <use style="fill:#1f77b4;stroke:#1f77b4;" x="533.962935" xlink:href="#m0695130969" y="155.954304"/>
     <use style="fill:#1f77b4;stroke:#1f77b4;" x="545.19594" xlink:href="#m0695130969" y="147.399408"/>
     <use style="fill:#1f77b4;stroke:#1f77b4;" x="554.210895" xlink:href="#m0695130969" y="130.823856"/>
     <use style="fill:#1f77b4;stroke:#1f77b4;" x="559.737885" xlink:href="#m0695130969" y="188.0964"/>
     <use style="fill:#1f77b4;stroke:#1f77b4;" x="560.658585" xlink:href="#m0695130969" y="115.8228"/>
     <use style="fill:#1f77b4;stroke:#1f77b4;" x="569.272245" xlink:href="#m0695130969" y="150.812496"/>
     <use style="fill:#1f77b4;stroke:#1f77b4;" x="570.352905" xlink:href="#m0695130969" y="171.8424"/>
     <use style="fill:#1f77b4;stroke:#1f77b4;" x="575.227965" xlink:href="#m0695130969" y="131.123232"/>
     <use style="fill:#1f77b4;stroke:#1f77b4;" x="579.080955" xlink:href="#m0695130969" y="188.260704"/>
     <use style="fill:#1f77b4;stroke:#1f77b4;" x="584.068545" xlink:href="#m0695130969" y="133.176528"/>
     <use style="fill:#1f77b4;stroke:#1f77b4;" x="594.596145" xlink:href="#m0695130969" y="139.206384"/>
    </g>
   </g>
   <g id="matplotlib.axis_1">
    <g id="xtick_1">
     <g id="line2d_4">
      <path clip-path="url(#p46fde5401c)" d="M 136.5 384.48 
L 136.5 51.84 
" style="fill:none;stroke:#808080;stroke-linecap:square;stroke-width:0.4;"/>
     </g>
     <g id="line2d_5">
      <defs>
       <path d="M 0 0 
L 0 -3.5 
" id="m1e7ad82632" style="stroke:#000000;stroke-width:0.8;"/>
      </defs>
      <g>
       <use style="stroke:#000000;stroke-width:0.8;" x="136.5" xlink:href="#m1e7ad82632" y="384.48"/>
      </g>
     </g>
     <g id="line2d_6">
      <defs>
       <path d="M 0 0 
L 0 3.5 
" id="mee874c6503" style="stroke:#000000;stroke-width:0.8;"/>
      </defs>
      <g>
       <use style="stroke:#000000;stroke-width:0.8;" x="136.5" xlink:href="#mee874c6503" y="51.84"/>
      </g>
     </g>
     <g id="text_1">
      <!-- $\mathdefault{0.0}$ -->
      <g transform="translate(127.151474 398.357725)scale(0.15 -0.15)">
       <defs>
        <path d="M 2688 2025 
C 2688 2416 2682 3080 2413 3591 
C 2176 4039 1798 4198 1466 4198 
C 1158 4198 768 4058 525 3597 
C 269 3118 243 2524 243 2025 
C 243 1661 250 1106 448 619 
C 723 -39 1216 -128 1466 -128 
C 1760 -128 2208 -7 2470 600 
C 2662 1042 2688 1559 2688 2025 
z
M 1466 -26 
C 1056 -26 813 325 723 812 
C 653 1188 653 1738 653 2096 
C 653 2588 653 2997 736 3387 
C 858 3929 1216 4096 1466 4096 
C 1728 4096 2067 3923 2189 3400 
C 2272 3036 2278 2607 2278 2096 
C 2278 1680 2278 1169 2202 792 
C 2067 95 1690 -26 1466 -26 
z
" id="CMR17-30" transform="scale(0.015625)"/>
        <path d="M 1178 307 
C 1178 492 1024 619 870 619 
C 685 619 557 466 557 313 
C 557 128 710 0 864 0 
C 1050 0 1178 153 1178 307 
z
" id="CMMI12-3a" transform="scale(0.015625)"/>
       </defs>
       <use transform="scale(0.996264)" xlink:href="#CMR17-30"/>
       <use transform="translate(45.690477 0)scale(0.996264)" xlink:href="#CMMI12-3a"/>
       <use transform="translate(72.787654 0)scale(0.996264)" xlink:href="#CMR17-30"/>
      </g>
     </g>
    </g>
    <g id="xtick_2">
     <g id="line2d_7">
      <path clip-path="url(#p46fde5401c)" d="M 229.5 384.48 
L 229.5 51.84 
" style="fill:none;stroke:#808080;stroke-linecap:square;stroke-width:0.4;"/>
     </g>
     <g id="line2d_8">
      <g>
       <use style="stroke:#000000;stroke-width:0.8;" x="229.5" xlink:href="#m1e7ad82632" y="384.48"/>
      </g>
     </g>
     <g id="line2d_9">
      <g>
       <use style="stroke:#000000;stroke-width:0.8;" x="229.5" xlink:href="#mee874c6503" y="51.84"/>
      </g>
     </g>
     <g id="text_2">
      <!-- $\mathdefault{0.2}$ -->
      <g transform="translate(220.151474 398.357725)scale(0.15 -0.15)">
       <defs>
        <path d="M 2669 989 
L 2554 989 
C 2490 536 2438 459 2413 420 
C 2381 369 1920 369 1830 369 
L 602 369 
C 832 619 1280 1072 1824 1597 
C 2214 1967 2669 2402 2669 3035 
C 2669 3790 2067 4224 1395 4224 
C 691 4224 262 3604 262 3030 
C 262 2780 448 2748 525 2748 
C 589 2748 781 2787 781 3010 
C 781 3207 614 3264 525 3264 
C 486 3264 448 3258 422 3245 
C 544 3790 915 4058 1306 4058 
C 1862 4058 2227 3617 2227 3035 
C 2227 2479 1901 2000 1536 1584 
L 262 146 
L 262 0 
L 2515 0 
L 2669 989 
z
" id="CMR17-32" transform="scale(0.015625)"/>
       </defs>
       <use transform="scale(0.996264)" xlink:href="#CMR17-30"/>
       <use transform="translate(45.690477 0)scale(0.996264)" xlink:href="#CMMI12-3a"/>
       <use transform="translate(72.787654 0)scale(0.996264)" xlink:href="#CMR17-32"/>
      </g>
     </g>
    </g>
    <g id="xtick_3">
     <g id="line2d_10">
      <path clip-path="url(#p46fde5401c)" d="M 322.5 384.48 
L 322.5 51.84 
" style="fill:none;stroke:#808080;stroke-linecap:square;stroke-width:0.4;"/>
     </g>
     <g id="line2d_11">
      <g>
       <use style="stroke:#000000;stroke-width:0.8;" x="322.5" xlink:href="#m1e7ad82632" y="384.48"/>
      </g>
     </g>
     <g id="line2d_12">
      <g>
       <use style="stroke:#000000;stroke-width:0.8;" x="322.5" xlink:href="#mee874c6503" y="51.84"/>
      </g>
     </g>
     <g id="text_3">
      <!-- $\mathdefault{0.4}$ -->
      <g transform="translate(313.151474 398.357725)scale(0.15 -0.15)">
       <defs>
        <path d="M 2150 4122 
C 2150 4256 2144 4256 2029 4256 
L 128 1254 
L 128 1088 
L 1779 1088 
L 1779 457 
C 1779 224 1766 160 1318 160 
L 1197 160 
L 1197 0 
C 1402 0 1747 0 1965 0 
C 2182 0 2528 0 2733 0 
L 2733 160 
L 2611 160 
C 2163 160 2150 224 2150 457 
L 2150 1088 
L 2803 1088 
L 2803 1254 
L 2150 1254 
L 2150 4122 
z
M 1798 3703 
L 1798 1254 
L 256 1254 
L 1798 3703 
z
" id="CMR17-34" transform="scale(0.015625)"/>
       </defs>
       <use transform="scale(0.996264)" xlink:href="#CMR17-30"/>
       <use transform="translate(45.690477 0)scale(0.996264)" xlink:href="#CMMI12-3a"/>
       <use transform="translate(72.787654 0)scale(0.996264)" xlink:href="#CMR17-34"/>
      </g>
     </g>
    </g>
    <g id="xtick_4">
     <g id="line2d_13">
      <path clip-path="url(#p46fde5401c)" d="M 415.5 384.48 
L 415.5 51.84 
" style="fill:none;stroke:#808080;stroke-linecap:square;stroke-width:0.4;"/>
     </g>
     <g id="line2d_14">
      <g>
       <use style="stroke:#000000;stroke-width:0.8;" x="415.5" xlink:href="#m1e7ad82632" y="384.48"/>
      </g>
     </g>
     <g id="line2d_15">
      <g>
       <use style="stroke:#000000;stroke-width:0.8;" x="415.5" xlink:href="#mee874c6503" y="51.84"/>
      </g>
     </g>
     <g id="text_4">
      <!-- $\mathdefault{0.6}$ -->
      <g transform="translate(406.151474 398.357725)scale(0.15 -0.15)">
       <defs>
        <path d="M 678 2176 
C 678 3690 1395 4032 1811 4032 
C 1946 4032 2272 4009 2400 3776 
C 2298 3776 2106 3776 2106 3553 
C 2106 3381 2246 3323 2336 3323 
C 2394 3323 2566 3348 2566 3560 
C 2566 3954 2246 4179 1805 4179 
C 1043 4179 243 3390 243 1984 
C 243 253 966 -128 1478 -128 
C 2099 -128 2688 427 2688 1283 
C 2688 2081 2170 2662 1517 2662 
C 1126 2662 838 2407 678 1960 
L 678 2176 
z
M 1478 25 
C 691 25 691 1200 691 1436 
C 691 1896 909 2560 1504 2560 
C 1613 2560 1926 2560 2138 2120 
C 2253 1870 2253 1609 2253 1289 
C 2253 944 2253 690 2118 434 
C 1978 171 1773 25 1478 25 
z
" id="CMR17-36" transform="scale(0.015625)"/>
       </defs>
       <use transform="scale(0.996264)" xlink:href="#CMR17-30"/>
       <use transform="translate(45.690477 0)scale(0.996264)" xlink:href="#CMMI12-3a"/>
       <use transform="translate(72.787654 0)scale(0.996264)" xlink:href="#CMR17-36"/>
      </g>
     </g>
    </g>
    <g id="xtick_5">
     <g id="line2d_16">
      <path clip-path="url(#p46fde5401c)" d="M 508.5 384.48 
L 508.5 51.84 
" style="fill:none;stroke:#808080;stroke-linecap:square;stroke-width:0.4;"/>
     </g>
     <g id="line2d_17">
      <g>
       <use style="stroke:#000000;stroke-width:0.8;" x="508.5" xlink:href="#m1e7ad82632" y="384.48"/>
      </g>
     </g>
     <g id="line2d_18">
      <g>
       <use style="stroke:#000000;stroke-width:0.8;" x="508.5" xlink:href="#mee874c6503" y="51.84"/>
      </g>
     </g>
     <g id="text_5">
      <!-- $\mathdefault{0.8}$ -->
      <g transform="translate(499.151474 398.357725)scale(0.15 -0.15)">
       <defs>
        <path d="M 1741 2264 
C 2144 2467 2554 2773 2554 3263 
C 2554 3841 1990 4179 1472 4179 
C 890 4179 378 3759 378 3180 
C 378 3021 416 2747 666 2505 
C 730 2442 998 2251 1171 2130 
C 883 1983 211 1634 211 934 
C 211 279 838 -128 1459 -128 
C 2144 -128 2720 362 2720 1010 
C 2720 1590 2330 1857 2074 2029 
L 1741 2264 
z
M 902 2822 
C 851 2854 595 3051 595 3351 
C 595 3739 998 4032 1459 4032 
C 1965 4032 2336 3676 2336 3262 
C 2336 2669 1670 2331 1638 2331 
C 1632 2331 1626 2331 1574 2370 
L 902 2822 
z
M 2080 1519 
C 2176 1449 2483 1240 2483 851 
C 2483 381 2010 25 1472 25 
C 890 25 448 438 448 940 
C 448 1443 838 1862 1280 2060 
L 2080 1519 
z
" id="CMR17-38" transform="scale(0.015625)"/>
       </defs>
       <use transform="scale(0.996264)" xlink:href="#CMR17-30"/>
       <use transform="translate(45.690477 0)scale(0.996264)" xlink:href="#CMMI12-3a"/>
       <use transform="translate(72.787654 0)scale(0.996264)" xlink:href="#CMR17-38"/>
      </g>
     </g>
    </g>
    <g id="xtick_6">
     <g id="line2d_19">
      <path clip-path="url(#p46fde5401c)" d="M 601.5 384.48 
L 601.5 51.84 
" style="fill:none;stroke:#808080;stroke-linecap:square;stroke-width:0.4;"/>
     </g>
     <g id="line2d_20">
      <g>
       <use style="stroke:#000000;stroke-width:0.8;" x="601.5" xlink:href="#m1e7ad82632" y="384.48"/>
      </g>
     </g>
     <g id="line2d_21">
      <g>
       <use style="stroke:#000000;stroke-width:0.8;" x="601.5" xlink:href="#mee874c6503" y="51.84"/>
      </g>
     </g>
     <g id="text_6">
      <!-- $\mathdefault{1.0}$ -->
      <g transform="translate(592.151474 398.357725)scale(0.15 -0.15)">
       <defs>
        <path d="M 1702 4058 
C 1702 4192 1696 4192 1606 4192 
C 1357 3916 979 3827 621 3827 
C 602 3827 570 3827 563 3808 
C 557 3795 557 3782 557 3648 
C 755 3648 1088 3686 1344 3839 
L 1344 461 
C 1344 236 1331 160 781 160 
L 589 160 
L 589 0 
C 896 0 1216 0 1523 0 
C 1830 0 2150 0 2458 0 
L 2458 160 
L 2266 160 
C 1715 160 1702 230 1702 458 
L 1702 4058 
z
" id="CMR17-31" transform="scale(0.015625)"/>
       </defs>
       <use transform="scale(0.996264)" xlink:href="#CMR17-31"/>
       <use transform="translate(45.690477 0)scale(0.996264)" xlink:href="#CMMI12-3a"/>
       <use transform="translate(72.787654 0)scale(0.996264)" xlink:href="#CMR17-30"/>
      </g>
     </g>
    </g>
    <g id="xtick_7">
     <g id="line2d_22">
      <defs>
       <path d="M 0 0 
L 0 -2 
" id="mc2d0bbb39e" style="stroke:#000000;stroke-width:0.6;"/>
      </defs>
      <g>
       <use style="stroke:#000000;stroke-width:0.6;" x="113.25" xlink:href="#mc2d0bbb39e" y="384.48"/>
      </g>
     </g>
     <g id="line2d_23">
      <defs>
       <path d="M 0 0 
L 0 2 
" id="m2ae2fd59c3" style="stroke:#000000;stroke-width:0.6;"/>
      </defs>
      <g>
       <use style="stroke:#000000;stroke-width:0.6;" x="113.25" xlink:href="#m2ae2fd59c3" y="51.84"/>
      </g>
     </g>
    </g>
    <g id="xtick_8">
     <g id="line2d_24">
      <g>
       <use style="stroke:#000000;stroke-width:0.6;" x="159.75" xlink:href="#mc2d0bbb39e" y="384.48"/>
      </g>
     </g>
     <g id="line2d_25">
      <g>
       <use style="stroke:#000000;stroke-width:0.6;" x="159.75" xlink:href="#m2ae2fd59c3" y="51.84"/>
      </g>
     </g>
    </g>
    <g id="xtick_9">
     <g id="line2d_26">
      <g>
       <use style="stroke:#000000;stroke-width:0.6;" x="183" xlink:href="#mc2d0bbb39e" y="384.48"/>
      </g>
     </g>
     <g id="line2d_27">
      <g>
       <use style="stroke:#000000;stroke-width:0.6;" x="183" xlink:href="#m2ae2fd59c3" y="51.84"/>
      </g>
     </g>
    </g>
    <g id="xtick_10">
     <g id="line2d_28">
      <g>
       <use style="stroke:#000000;stroke-width:0.6;" x="206.25" xlink:href="#mc2d0bbb39e" y="384.48"/>
      </g>
     </g>
     <g id="line2d_29">
      <g>
       <use style="stroke:#000000;stroke-width:0.6;" x="206.25" xlink:href="#m2ae2fd59c3" y="51.84"/>
      </g>
     </g>
    </g>
    <g id="xtick_11">
     <g id="line2d_30">
      <g>
       <use style="stroke:#000000;stroke-width:0.6;" x="252.75" xlink:href="#mc2d0bbb39e" y="384.48"/>
      </g>
     </g>
     <g id="line2d_31">
      <g>
       <use style="stroke:#000000;stroke-width:0.6;" x="252.75" xlink:href="#m2ae2fd59c3" y="51.84"/>
      </g>
     </g>
    </g>
    <g id="xtick_12">
     <g id="line2d_32">
      <g>
       <use style="stroke:#000000;stroke-width:0.6;" x="276" xlink:href="#mc2d0bbb39e" y="384.48"/>
      </g>
     </g>
     <g id="line2d_33">
      <g>
       <use style="stroke:#000000;stroke-width:0.6;" x="276" xlink:href="#m2ae2fd59c3" y="51.84"/>
      </g>
     </g>
    </g>
    <g id="xtick_13">
     <g id="line2d_34">
      <g>
       <use style="stroke:#000000;stroke-width:0.6;" x="299.25" xlink:href="#mc2d0bbb39e" y="384.48"/>
      </g>
     </g>
     <g id="line2d_35">
      <g>
       <use style="stroke:#000000;stroke-width:0.6;" x="299.25" xlink:href="#m2ae2fd59c3" y="51.84"/>
      </g>
     </g>
    </g>
    <g id="xtick_14">
     <g id="line2d_36">
      <g>
       <use style="stroke:#000000;stroke-width:0.6;" x="345.75" xlink:href="#mc2d0bbb39e" y="384.48"/>
      </g>
     </g>
     <g id="line2d_37">
      <g>
       <use style="stroke:#000000;stroke-width:0.6;" x="345.75" xlink:href="#m2ae2fd59c3" y="51.84"/>
      </g>
     </g>
    </g>
    <g id="xtick_15">
     <g id="line2d_38">
      <g>
       <use style="stroke:#000000;stroke-width:0.6;" x="369" xlink:href="#mc2d0bbb39e" y="384.48"/>
      </g>
     </g>
     <g id="line2d_39">
      <g>
       <use style="stroke:#000000;stroke-width:0.6;" x="369" xlink:href="#m2ae2fd59c3" y="51.84"/>
      </g>
     </g>
    </g>
    <g id="xtick_16">
     <g id="line2d_40">
      <g>
       <use style="stroke:#000000;stroke-width:0.6;" x="392.25" xlink:href="#mc2d0bbb39e" y="384.48"/>
      </g>
     </g>
     <g id="line2d_41">
      <g>
       <use style="stroke:#000000;stroke-width:0.6;" x="392.25" xlink:href="#m2ae2fd59c3" y="51.84"/>
      </g>
     </g>
    </g>
    <g id="xtick_17">
     <g id="line2d_42">
      <g>
       <use style="stroke:#000000;stroke-width:0.6;" x="438.75" xlink:href="#mc2d0bbb39e" y="384.48"/>
      </g>
     </g>
     <g id="line2d_43">
      <g>
       <use style="stroke:#000000;stroke-width:0.6;" x="438.75" xlink:href="#m2ae2fd59c3" y="51.84"/>
      </g>
     </g>
    </g>
    <g id="xtick_18">
     <g id="line2d_44">
      <g>
       <use style="stroke:#000000;stroke-width:0.6;" x="462" xlink:href="#mc2d0bbb39e" y="384.48"/>
      </g>
     </g>
     <g id="line2d_45">
      <g>
       <use style="stroke:#000000;stroke-width:0.6;" x="462" xlink:href="#m2ae2fd59c3" y="51.84"/>
      </g>
     </g>
    </g>
    <g id="xtick_19">
     <g id="line2d_46">
      <g>
       <use style="stroke:#000000;stroke-width:0.6;" x="485.25" xlink:href="#mc2d0bbb39e" y="384.48"/>
      </g>
     </g>
     <g id="line2d_47">
      <g>
       <use style="stroke:#000000;stroke-width:0.6;" x="485.25" xlink:href="#m2ae2fd59c3" y="51.84"/>
      </g>
     </g>
    </g>
    <g id="xtick_20">
     <g id="line2d_48">
      <g>
       <use style="stroke:#000000;stroke-width:0.6;" x="531.75" xlink:href="#mc2d0bbb39e" y="384.48"/>
      </g>
     </g>
     <g id="line2d_49">
      <g>
       <use style="stroke:#000000;stroke-width:0.6;" x="531.75" xlink:href="#m2ae2fd59c3" y="51.84"/>
      </g>
     </g>
    </g>
    <g id="xtick_21">
     <g id="line2d_50">
      <g>
       <use style="stroke:#000000;stroke-width:0.6;" x="555" xlink:href="#mc2d0bbb39e" y="384.48"/>
      </g>
     </g>
     <g id="line2d_51">
      <g>
       <use style="stroke:#000000;stroke-width:0.6;" x="555" xlink:href="#m2ae2fd59c3" y="51.84"/>
      </g>
     </g>
    </g>
    <g id="xtick_22">
     <g id="line2d_52">
      <g>
       <use style="stroke:#000000;stroke-width:0.6;" x="578.25" xlink:href="#mc2d0bbb39e" y="384.48"/>
      </g>
     </g>
     <g id="line2d_53">
      <g>
       <use style="stroke:#000000;stroke-width:0.6;" x="578.25" xlink:href="#m2ae2fd59c3" y="51.84"/>
      </g>
     </g>
    </g>
    <g id="xtick_23">
     <g id="line2d_54">
      <g>
       <use style="stroke:#000000;stroke-width:0.6;" x="624.75" xlink:href="#mc2d0bbb39e" y="384.48"/>
      </g>
     </g>
     <g id="line2d_55">
      <g>
       <use style="stroke:#000000;stroke-width:0.6;" x="624.75" xlink:href="#m2ae2fd59c3" y="51.84"/>
      </g>
     </g>
    </g>
    <g id="text_7">
     <!-- Phase [Period = 6.7970 H] -->
     <g transform="translate(284.014884 416.47144)scale(0.15 -0.15)">
      <defs>
       <path d="M 1267 2042 
L 2291 2042 
C 3117 2042 3718 2578 3718 3184 
C 3718 3791 3130 4352 2291 4352 
L 333 4352 
L 333 4186 
C 774 4186 845 4186 845 3899 
L 845 446 
C 845 160 774 160 333 160 
L 333 0 
C 518 0 858 0 1056 0 
C 1254 0 1594 0 1779 0 
L 1779 160 
C 1338 160 1267 160 1267 446 
L 1267 2042 
z
M 1254 2176 
L 1254 3938 
C 1254 4155 1267 4186 1523 4186 
L 2170 4186 
C 2995 4186 3232 3714 3232 3184 
C 3232 2604 2950 2176 2170 2176 
L 1254 2176 
z
" id="CMR17-50" transform="scale(0.015625)"/>
       <path d="M 2656 1933 
C 2656 2259 2592 2790 1837 2790 
C 1312 2790 1056 2368 979 2157 
L 973 2157 
L 973 4396 
L 211 4326 
L 211 4160 
C 589 4160 646 4122 646 3817 
L 646 426 
C 646 184 621 153 211 153 
L 211 -13 
C 365 0 646 0 813 0 
C 979 0 1267 0 1421 -13 
L 1421 153 
C 1011 153 986 178 986 428 
L 986 1658 
C 986 2247 1344 2688 1792 2688 
C 2266 2688 2317 2266 2317 1958 
L 2317 428 
C 2317 184 2291 153 1882 153 
L 1882 -13 
C 2035 0 2317 0 2483 0 
C 2650 0 2938 0 3091 -13 
L 3091 153 
C 2682 153 2656 178 2656 428 
L 2656 1933 
z
" id="CMR17-68" transform="scale(0.015625)"/>
       <path d="M 2304 1653 
C 2304 2072 2304 2294 2035 2543 
C 1798 2752 1523 2816 1306 2816 
C 800 2816 435 2407 435 1971 
C 435 1728 627 1728 666 1728 
C 749 1728 896 1778 896 1954 
C 896 2112 774 2181 666 2181 
C 640 2181 608 2174 589 2168 
C 723 2592 1069 2714 1293 2714 
C 1613 2714 1965 2429 1965 1885 
L 1965 1600 
C 1587 1600 1133 1549 774 1357 
C 371 1133 256 813 256 570 
C 256 77 832 -64 1171 -64 
C 1523 -64 1850 139 1990 511 
C 2003 233 2182 -18 2464 -18 
C 2598 -18 2938 70 2938 567 
L 2938 920 
L 2822 920 
L 2822 562 
C 2822 178 2650 128 2566 128 
C 2304 128 2304 458 2304 738 
L 2304 1653 
z
M 1965 870 
C 1965 317 1568 38 1216 38 
C 896 38 646 275 646 570 
C 646 761 730 1100 1101 1305 
C 1408 1478 1760 1504 1965 1504 
L 1965 870 
z
" id="CMR17-61" transform="scale(0.015625)"/>
       <path d="M 1978 2697 
C 1978 2813 1971 2819 1933 2819 
C 1907 2819 1901 2813 1824 2717 
C 1805 2691 1747 2626 1728 2601 
C 1523 2819 1235 2819 1126 2819 
C 416 2819 160 2447 160 2076 
C 160 1498 813 1365 998 1325 
C 1402 1243 1542 1217 1677 1101 
C 1760 1025 1901 884 1901 654 
C 1901 384 1747 38 1158 38 
C 602 38 403 460 288 1021 
C 269 1110 269 1117 218 1117 
C 166 1117 160 1110 160 983 
L 160 63 
C 160 -51 166 -58 205 -58 
C 237 -58 243 -51 275 0 
C 314 57 410 211 448 276 
C 576 103 800 -64 1158 -64 
C 1792 -64 2131 283 2131 784 
C 2131 1112 1958 1285 1875 1362 
C 1683 1561 1459 1606 1190 1657 
C 838 1735 390 1825 390 2217 
C 390 2383 480 2737 1126 2737 
C 1811 2737 1850 2094 1862 1888 
C 1869 1856 1901 1849 1920 1849 
C 1978 1849 1978 1869 1978 1978 
L 1978 2697 
z
" id="CMR17-73" transform="scale(0.015625)"/>
       <path d="M 2438 1472 
C 2464 1498 2464 1511 2464 1576 
C 2464 2238 2118 2816 1389 2816 
C 710 2816 173 2169 173 1383 
C 173 551 781 -64 1459 -64 
C 2176 -64 2458 607 2458 740 
C 2458 784 2419 784 2406 784 
C 2362 784 2355 771 2330 696 
C 2189 265 1837 51 1504 51 
C 1229 51 954 203 781 480 
C 582 803 582 1176 582 1472 
L 2438 1472 
z
M 589 1568 
C 634 2505 1126 2714 1382 2714 
C 1818 2714 2112 2297 2118 1568 
L 589 1568 
z
" id="CMR17-65" transform="scale(0.015625)"/>
       <path d="M 1504 -1600 
L 1504 -1377 
L 902 -1377 
L 902 4544 
L 1504 4544 
L 1504 4767 
L 678 4767 
L 678 -1600 
L 1504 -1600 
z
" id="CMR17-5b" transform="scale(0.015625)"/>
       <path d="M 960 1497 
C 960 2112 1222 2688 1702 2688 
C 1747 2688 1792 2682 1837 2662 
C 1837 2662 1696 2617 1696 2452 
C 1696 2298 1818 2234 1914 2234 
C 1990 2234 2131 2279 2131 2458 
C 2131 2663 1926 2790 1709 2790 
C 1222 2790 1011 2317 947 2093 
L 941 2093 
L 941 2790 
L 198 2720 
L 198 2554 
C 576 2554 634 2515 634 2208 
L 634 428 
C 634 184 608 153 198 153 
L 198 -13 
C 352 0 646 0 813 0 
C 998 0 1325 0 1498 -13 
L 1498 153 
C 1037 153 960 153 960 440 
L 960 1497 
z
" id="CMR17-72" transform="scale(0.015625)"/>
       <path d="M 992 3909 
C 992 4049 877 4170 730 4170 
C 589 4170 467 4056 467 3909 
C 467 3769 582 3648 730 3648 
C 870 3648 992 3763 992 3909 
z
M 243 2706 
L 243 2541 
C 602 2541 653 2502 653 2197 
L 653 427 
C 653 184 627 153 218 153 
L 218 -13 
C 371 0 646 0 806 0 
C 960 0 1222 0 1370 -13 
L 1370 153 
C 992 153 979 191 979 420 
L 979 2776 
L 243 2706 
z
" id="CMR17-69" transform="scale(0.015625)"/>
       <path d="M 2758 1356 
C 2758 2176 2163 2816 1466 2816 
C 768 2816 173 2176 173 1356 
C 173 551 768 -64 1466 -64 
C 2163 -64 2758 551 2758 1356 
z
M 1466 51 
C 1165 51 909 230 762 480 
C 602 767 582 1126 582 1408 
C 582 1677 595 2010 762 2298 
C 890 2509 1139 2714 1466 2714 
C 1754 2714 1997 2554 2150 2330 
C 2349 2029 2349 1607 2349 1408 
C 2349 1158 2336 775 2163 467 
C 1984 173 1709 51 1466 51 
z
" id="CMR17-6f" transform="scale(0.015625)"/>
       <path d="M 1869 4326 
L 1869 4160 
C 2246 4160 2304 4122 2304 3820 
L 2304 2345 
C 2278 2377 2016 2790 1498 2790 
C 845 2790 211 2208 211 1364 
C 211 525 806 -64 1434 -64 
C 1978 -64 2259 337 2291 380 
L 2291 -63 
L 3066 -63 
L 3066 128 
C 2688 128 2630 166 2630 473 
L 2630 4396 
L 1869 4326 
z
M 2291 755 
C 2291 563 2176 390 2029 262 
C 1811 70 1594 38 1472 38 
C 1286 38 621 134 621 1356 
C 621 2612 1363 2688 1530 2688 
C 1824 2688 2061 2522 2208 2291 
C 2291 2157 2291 2138 2291 2023 
L 2291 755 
z
" id="CMR17-64" transform="scale(0.015625)"/>
       <path d="M 4115 2017 
C 4211 2017 4307 2017 4307 2125 
C 4307 2240 4198 2240 4090 2240 
L 512 2240 
C 403 2240 294 2240 294 2125 
C 294 2017 390 2017 486 2017 
L 4115 2017 
z
M 4090 896 
C 4198 896 4307 896 4307 1011 
C 4307 1119 4211 1119 4115 1119 
L 486 1119 
C 390 1119 294 1119 294 1011 
C 294 896 403 896 512 896 
L 4090 896 
z
" id="CMR17-3d" transform="scale(0.015625)"/>
       <path d="M 1062 261 
C 1062 420 934 522 800 522 
C 672 522 538 420 538 261 
C 538 102 666 0 800 0 
C 928 0 1062 102 1062 261 
z
" id="CMR17-2e" transform="scale(0.015625)"/>
       <path d="M 2886 3941 
L 2886 4081 
L 1382 4081 
C 634 4081 621 4165 595 4288 
L 480 4288 
L 294 3094 
L 410 3094 
C 429 3215 474 3540 550 3661 
C 589 3712 1062 3712 1171 3712 
L 2579 3712 
L 1869 2661 
C 1395 1954 1069 999 1069 165 
C 1069 89 1069 -128 1299 -128 
C 1530 -128 1530 89 1530 171 
L 1530 465 
C 1530 1508 1709 2196 2003 2636 
L 2886 3941 
z
" id="CMR17-37" transform="scale(0.015625)"/>
       <path d="M 2253 1864 
C 2253 464 1670 31 1190 31 
C 1043 31 685 31 538 294 
C 704 268 826 357 826 518 
C 826 692 685 749 595 749 
C 538 749 365 723 365 506 
C 365 71 742 -128 1203 -128 
C 1939 -128 2688 674 2688 2073 
C 2688 3817 1971 4179 1485 4179 
C 851 4179 243 3628 243 2778 
C 243 1991 762 1408 1414 1408 
C 1952 1408 2189 1903 2253 2112 
L 2253 1864 
z
M 1427 1510 
C 1254 1510 1011 1542 813 1922 
C 678 2169 678 2461 678 2771 
C 678 3146 678 3405 858 3684 
C 947 3817 1114 4032 1485 4032 
C 2240 4032 2240 2885 2240 2632 
C 2240 2182 2035 1510 1427 1510 
z
" id="CMR17-39" transform="scale(0.015625)"/>
       <path d="M 3590 3905 
C 3590 4192 3661 4192 4102 4192 
L 4102 4352 
C 3917 4352 3578 4352 3379 4352 
C 3181 4352 2842 4352 2656 4352 
L 2656 4192 
C 3098 4192 3168 4192 3168 3904 
L 3168 2341 
L 1261 2341 
L 1261 3904 
C 1261 4192 1331 4192 1773 4192 
L 1773 4352 
C 1587 4352 1248 4352 1050 4352 
C 851 4352 512 4352 326 4352 
L 326 4192 
C 768 4192 838 4192 838 3905 
L 838 447 
C 838 160 768 160 326 160 
L 326 0 
C 512 0 851 0 1050 0 
C 1248 0 1587 0 1773 0 
L 1773 160 
C 1331 160 1261 160 1261 446 
L 1261 2176 
L 3168 2176 
L 3168 446 
C 3168 160 3098 160 2656 160 
L 2656 0 
C 2842 0 3181 0 3379 0 
C 3578 0 3917 0 4102 0 
L 4102 160 
C 3661 160 3590 160 3590 447 
L 3590 3905 
z
" id="CMR17-48" transform="scale(0.015625)"/>
       <path d="M 915 4767 
L 90 4767 
L 90 4544 
L 691 4544 
L 691 -1377 
L 90 -1377 
L 90 -1600 
L 915 -1600 
L 915 4767 
z
" id="CMR17-5d" transform="scale(0.015625)"/>
      </defs>
      <use transform="scale(0.996264)" xlink:href="#CMR17-50"/>
      <use transform="translate(62.586301 0)scale(0.996264)" xlink:href="#CMR17-68"/>
      <use transform="translate(113.48167 0)scale(0.996264)" xlink:href="#CMR17-61"/>
      <use transform="translate(159.172147 0)scale(0.996264)" xlink:href="#CMR17-73"/>
      <use transform="translate(194.973485 0)scale(0.996264)" xlink:href="#CMR17-65"/>
      <use transform="translate(265.535112 0)scale(0.996264)" xlink:href="#CMR17-5b"/>
      <use transform="translate(290.40617 0)scale(0.996264)" xlink:href="#CMR17-50"/>
      <use transform="translate(350.390017 0)scale(0.996264)" xlink:href="#CMR17-65"/>
      <use transform="translate(390.875677 0)scale(0.996264)" xlink:href="#CMR17-72"/>
      <use transform="translate(426.156445 0)scale(0.996264)" xlink:href="#CMR17-69"/>
      <use transform="translate(451.027504 0)scale(0.996264)" xlink:href="#CMR17-6f"/>
      <use transform="translate(499.32042 0)scale(0.996264)" xlink:href="#CMR17-64"/>
      <use transform="translate(580.291756 0)scale(0.996264)" xlink:href="#CMR17-3d"/>
      <use transform="translate(682.08251 0)scale(0.996264)" xlink:href="#CMR17-36"/>
      <use transform="translate(727.772988 0)scale(0.996264)" xlink:href="#CMR17-2e"/>
      <use transform="translate(752.644046 0)scale(0.996264)" xlink:href="#CMR17-37"/>
      <use transform="translate(798.334523 0)scale(0.996264)" xlink:href="#CMR17-39"/>
      <use transform="translate(844.025 0)scale(0.996264)" xlink:href="#CMR17-37"/>
      <use transform="translate(889.715477 0)scale(0.996264)" xlink:href="#CMR17-30"/>
      <use transform="translate(965.481921 0)scale(0.996264)" xlink:href="#CMR17-48"/>
      <use transform="translate(1034.554351 0)scale(0.996264)" xlink:href="#CMR17-5d"/>
     </g>
    </g>
   </g>
   <g id="matplotlib.axis_2">
    <g id="ytick_1">
     <g id="line2d_56">
      <path clip-path="url(#p46fde5401c)" d="M 90 92.16 
L 648 92.16 
" style="fill:none;stroke:#808080;stroke-linecap:square;stroke-width:0.4;"/>
     </g>
     <g id="line2d_57">
      <defs>
       <path d="M 0 0 
L 3.5 0 
" id="mbde4bb3791" style="stroke:#000000;stroke-width:0.8;"/>
      </defs>
      <g>
       <use style="stroke:#000000;stroke-width:0.8;" x="90" xlink:href="#mbde4bb3791" y="92.16"/>
      </g>
     </g>
     <g id="line2d_58">
      <defs>
       <path d="M 0 0 
L -3.5 0 
" id="mca208f31dd" style="stroke:#000000;stroke-width:0.8;"/>
      </defs>
      <g>
       <use style="stroke:#000000;stroke-width:0.8;" x="648" xlink:href="#mca208f31dd" y="92.16"/>
      </g>
     </g>
     <g id="text_8">
      <!-- $\mathdefault{18.05}$ -->
      <g transform="translate(53.170472 97.348862)scale(0.15 -0.15)">
       <defs>
        <path d="M 730 3692 
C 794 3666 1056 3584 1325 3584 
C 1920 3584 2246 3911 2432 4100 
C 2432 4157 2432 4192 2394 4192 
C 2387 4192 2374 4192 2323 4163 
C 2099 4058 1837 3973 1517 3973 
C 1325 3973 1037 3999 723 4139 
C 653 4171 640 4171 634 4171 
C 602 4171 595 4164 595 4037 
L 595 2203 
C 595 2089 595 2057 659 2057 
C 691 2057 704 2070 736 2114 
C 941 2401 1222 2522 1542 2522 
C 1766 2522 2246 2382 2246 1289 
C 2246 1085 2246 715 2054 421 
C 1894 159 1645 25 1370 25 
C 947 25 518 320 403 814 
C 429 807 480 795 506 795 
C 589 795 749 840 749 1038 
C 749 1210 627 1280 506 1280 
C 358 1280 262 1190 262 1011 
C 262 454 704 -128 1382 -128 
C 2042 -128 2669 440 2669 1264 
C 2669 2030 2170 2624 1549 2624 
C 1222 2624 947 2503 730 2274 
L 730 3692 
z
" id="CMR17-35" transform="scale(0.015625)"/>
       </defs>
       <use transform="scale(0.996264)" xlink:href="#CMR17-31"/>
       <use transform="translate(45.690477 0)scale(0.996264)" xlink:href="#CMR17-38"/>
       <use transform="translate(91.380954 0)scale(0.996264)" xlink:href="#CMMI12-3a"/>
       <use transform="translate(118.478131 0)scale(0.996264)" xlink:href="#CMR17-30"/>
       <use transform="translate(164.168608 0)scale(0.996264)" xlink:href="#CMR17-35"/>
      </g>
     </g>
    </g>
    <g id="ytick_2">
     <g id="line2d_59">
      <path clip-path="url(#p46fde5401c)" d="M 90 142.56 
L 648 142.56 
" style="fill:none;stroke:#808080;stroke-linecap:square;stroke-width:0.4;"/>
     </g>
     <g id="line2d_60">
      <g>
       <use style="stroke:#000000;stroke-width:0.8;" x="90" xlink:href="#mbde4bb3791" y="142.56"/>
      </g>
     </g>
     <g id="line2d_61">
      <g>
       <use style="stroke:#000000;stroke-width:0.8;" x="648" xlink:href="#mca208f31dd" y="142.56"/>
      </g>
     </g>
     <g id="text_9">
      <!-- $\mathdefault{18.10}$ -->
      <g transform="translate(53.170472 147.748862)scale(0.15 -0.15)">
       <use transform="scale(0.996264)" xlink:href="#CMR17-31"/>
       <use transform="translate(45.690477 0)scale(0.996264)" xlink:href="#CMR17-38"/>
       <use transform="translate(91.380954 0)scale(0.996264)" xlink:href="#CMMI12-3a"/>
       <use transform="translate(118.478131 0)scale(0.996264)" xlink:href="#CMR17-31"/>
       <use transform="translate(164.168608 0)scale(0.996264)" xlink:href="#CMR17-30"/>
      </g>
     </g>
    </g>
    <g id="ytick_3">
     <g id="line2d_62">
      <path clip-path="url(#p46fde5401c)" d="M 90 192.96 
L 648 192.96 
" style="fill:none;stroke:#808080;stroke-linecap:square;stroke-width:0.4;"/>
     </g>
     <g id="line2d_63">
      <g>
       <use style="stroke:#000000;stroke-width:0.8;" x="90" xlink:href="#mbde4bb3791" y="192.96"/>
      </g>
     </g>
     <g id="line2d_64">
      <g>
       <use style="stroke:#000000;stroke-width:0.8;" x="648" xlink:href="#mca208f31dd" y="192.96"/>
      </g>
     </g>
     <g id="text_10">
      <!-- $\mathdefault{18.15}$ -->
      <g transform="translate(53.170472 198.148862)scale(0.15 -0.15)">
       <use transform="scale(0.996264)" xlink:href="#CMR17-31"/>
       <use transform="translate(45.690477 0)scale(0.996264)" xlink:href="#CMR17-38"/>
       <use transform="translate(91.380954 0)scale(0.996264)" xlink:href="#CMMI12-3a"/>
       <use transform="translate(118.478131 0)scale(0.996264)" xlink:href="#CMR17-31"/>
       <use transform="translate(164.168608 0)scale(0.996264)" xlink:href="#CMR17-35"/>
      </g>
     </g>
    </g>
    <g id="ytick_4">
     <g id="line2d_65">
      <path clip-path="url(#p46fde5401c)" d="M 90 243.36 
L 648 243.36 
" style="fill:none;stroke:#808080;stroke-linecap:square;stroke-width:0.4;"/>
     </g>
     <g id="line2d_66">
      <g>
       <use style="stroke:#000000;stroke-width:0.8;" x="90" xlink:href="#mbde4bb3791" y="243.36"/>
      </g>
     </g>
     <g id="line2d_67">
      <g>
       <use style="stroke:#000000;stroke-width:0.8;" x="648" xlink:href="#mca208f31dd" y="243.36"/>
      </g>
     </g>
     <g id="text_11">
      <!-- $\mathdefault{18.20}$ -->
      <g transform="translate(53.170472 248.548862)scale(0.15 -0.15)">
       <use transform="scale(0.996264)" xlink:href="#CMR17-31"/>
       <use transform="translate(45.690477 0)scale(0.996264)" xlink:href="#CMR17-38"/>
       <use transform="translate(91.380954 0)scale(0.996264)" xlink:href="#CMMI12-3a"/>
       <use transform="translate(118.478131 0)scale(0.996264)" xlink:href="#CMR17-32"/>
       <use transform="translate(164.168608 0)scale(0.996264)" xlink:href="#CMR17-30"/>
      </g>
     </g>
    </g>
    <g id="ytick_5">
     <g id="line2d_68">
      <path clip-path="url(#p46fde5401c)" d="M 90 293.76 
L 648 293.76 
" style="fill:none;stroke:#808080;stroke-linecap:square;stroke-width:0.4;"/>
     </g>
     <g id="line2d_69">
      <g>
       <use style="stroke:#000000;stroke-width:0.8;" x="90" xlink:href="#mbde4bb3791" y="293.76"/>
      </g>
     </g>
     <g id="line2d_70">
      <g>
       <use style="stroke:#000000;stroke-width:0.8;" x="648" xlink:href="#mca208f31dd" y="293.76"/>
      </g>
     </g>
     <g id="text_12">
      <!-- $\mathdefault{18.25}$ -->
      <g transform="translate(53.170472 298.948862)scale(0.15 -0.15)">
       <use transform="scale(0.996264)" xlink:href="#CMR17-31"/>
       <use transform="translate(45.690477 0)scale(0.996264)" xlink:href="#CMR17-38"/>
       <use transform="translate(91.380954 0)scale(0.996264)" xlink:href="#CMMI12-3a"/>
       <use transform="translate(118.478131 0)scale(0.996264)" xlink:href="#CMR17-32"/>
       <use transform="translate(164.168608 0)scale(0.996264)" xlink:href="#CMR17-35"/>
      </g>
     </g>
    </g>
    <g id="ytick_6">
     <g id="line2d_71">
      <path clip-path="url(#p46fde5401c)" d="M 90 344.16 
L 648 344.16 
" style="fill:none;stroke:#808080;stroke-linecap:square;stroke-width:0.4;"/>
     </g>
     <g id="line2d_72">
      <g>
       <use style="stroke:#000000;stroke-width:0.8;" x="90" xlink:href="#mbde4bb3791" y="344.16"/>
      </g>
     </g>
     <g id="line2d_73">
      <g>
       <use style="stroke:#000000;stroke-width:0.8;" x="648" xlink:href="#mca208f31dd" y="344.16"/>
      </g>
     </g>
     <g id="text_13">
      <!-- $\mathdefault{18.30}$ -->
      <g transform="translate(53.170472 349.348862)scale(0.15 -0.15)">
       <defs>
        <path d="M 1414 2157 
C 1984 2157 2234 1662 2234 1090 
C 2234 320 1824 25 1453 25 
C 1114 25 563 194 390 693 
C 422 680 454 680 486 680 
C 640 680 755 782 755 948 
C 755 1133 614 1216 486 1216 
C 378 1216 211 1165 211 926 
C 211 335 787 -128 1466 -128 
C 2176 -128 2720 430 2720 1085 
C 2720 1707 2208 2157 1600 2227 
C 2086 2328 2554 2756 2554 3329 
C 2554 3820 2048 4179 1472 4179 
C 890 4179 378 3829 378 3329 
C 378 3110 544 3072 627 3072 
C 762 3072 877 3155 877 3321 
C 877 3486 762 3569 627 3569 
C 602 3569 570 3569 544 3557 
C 730 3959 1235 4032 1459 4032 
C 1683 4032 2106 3925 2106 3320 
C 2106 3143 2080 2828 1862 2550 
C 1670 2304 1453 2304 1242 2284 
C 1210 2284 1062 2269 1037 2269 
C 992 2263 966 2257 966 2208 
C 966 2163 973 2157 1101 2157 
L 1414 2157 
z
" id="CMR17-33" transform="scale(0.015625)"/>
       </defs>
       <use transform="scale(0.996264)" xlink:href="#CMR17-31"/>
       <use transform="translate(45.690477 0)scale(0.996264)" xlink:href="#CMR17-38"/>
       <use transform="translate(91.380954 0)scale(0.996264)" xlink:href="#CMMI12-3a"/>
       <use transform="translate(118.478131 0)scale(0.996264)" xlink:href="#CMR17-33"/>
       <use transform="translate(164.168608 0)scale(0.996264)" xlink:href="#CMR17-30"/>
      </g>
     </g>
    </g>
    <g id="ytick_7">
     <g id="line2d_74">
      <defs>
       <path d="M 0 0 
L 2 0 
" id="ma3155fecb4" style="stroke:#000000;stroke-width:0.6;"/>
      </defs>
      <g>
       <use style="stroke:#000000;stroke-width:0.6;" x="90" xlink:href="#ma3155fecb4" y="61.92"/>
      </g>
     </g>
     <g id="line2d_75">
      <defs>
       <path d="M 0 0 
L -2 0 
" id="ma954b6cf2f" style="stroke:#000000;stroke-width:0.6;"/>
      </defs>
      <g>
       <use style="stroke:#000000;stroke-width:0.6;" x="648" xlink:href="#ma954b6cf2f" y="61.92"/>
      </g>
     </g>
    </g>
    <g id="ytick_8">
     <g id="line2d_76">
      <g>
       <use style="stroke:#000000;stroke-width:0.6;" x="90" xlink:href="#ma3155fecb4" y="72"/>
      </g>
     </g>
     <g id="line2d_77">
      <g>
       <use style="stroke:#000000;stroke-width:0.6;" x="648" xlink:href="#ma954b6cf2f" y="72"/>
      </g>
     </g>
    </g>
    <g id="ytick_9">
     <g id="line2d_78">
      <g>
       <use style="stroke:#000000;stroke-width:0.6;" x="90" xlink:href="#ma3155fecb4" y="82.08"/>
      </g>
     </g>
     <g id="line2d_79">
      <g>
       <use style="stroke:#000000;stroke-width:0.6;" x="648" xlink:href="#ma954b6cf2f" y="82.08"/>
      </g>
     </g>
    </g>
    <g id="ytick_10">
     <g id="line2d_80">
      <g>
       <use style="stroke:#000000;stroke-width:0.6;" x="90" xlink:href="#ma3155fecb4" y="102.24"/>
      </g>
     </g>
     <g id="line2d_81">
      <g>
       <use style="stroke:#000000;stroke-width:0.6;" x="648" xlink:href="#ma954b6cf2f" y="102.24"/>
      </g>
     </g>
    </g>
    <g id="ytick_11">
     <g id="line2d_82">
      <g>
       <use style="stroke:#000000;stroke-width:0.6;" x="90" xlink:href="#ma3155fecb4" y="112.32"/>
      </g>
     </g>
     <g id="line2d_83">
      <g>
       <use style="stroke:#000000;stroke-width:0.6;" x="648" xlink:href="#ma954b6cf2f" y="112.32"/>
      </g>
     </g>
    </g>
    <g id="ytick_12">
     <g id="line2d_84">
      <g>
       <use style="stroke:#000000;stroke-width:0.6;" x="90" xlink:href="#ma3155fecb4" y="122.4"/>
      </g>
     </g>
     <g id="line2d_85">
      <g>
       <use style="stroke:#000000;stroke-width:0.6;" x="648" xlink:href="#ma954b6cf2f" y="122.4"/>
      </g>
     </g>
    </g>
    <g id="ytick_13">
     <g id="line2d_86">
      <g>
       <use style="stroke:#000000;stroke-width:0.6;" x="90" xlink:href="#ma3155fecb4" y="132.48"/>
      </g>
     </g>
     <g id="line2d_87">
      <g>
       <use style="stroke:#000000;stroke-width:0.6;" x="648" xlink:href="#ma954b6cf2f" y="132.48"/>
      </g>
     </g>
    </g>
    <g id="ytick_14">
     <g id="line2d_88">
      <g>
       <use style="stroke:#000000;stroke-width:0.6;" x="90" xlink:href="#ma3155fecb4" y="152.64"/>
      </g>
     </g>
     <g id="line2d_89">
      <g>
       <use style="stroke:#000000;stroke-width:0.6;" x="648" xlink:href="#ma954b6cf2f" y="152.64"/>
      </g>
     </g>
    </g>
    <g id="ytick_15">
     <g id="line2d_90">
      <g>
       <use style="stroke:#000000;stroke-width:0.6;" x="90" xlink:href="#ma3155fecb4" y="162.72"/>
      </g>
     </g>
     <g id="line2d_91">
      <g>
       <use style="stroke:#000000;stroke-width:0.6;" x="648" xlink:href="#ma954b6cf2f" y="162.72"/>
      </g>
     </g>
    </g>
    <g id="ytick_16">
     <g id="line2d_92">
      <g>
       <use style="stroke:#000000;stroke-width:0.6;" x="90" xlink:href="#ma3155fecb4" y="172.8"/>
      </g>
     </g>
     <g id="line2d_93">
      <g>
       <use style="stroke:#000000;stroke-width:0.6;" x="648" xlink:href="#ma954b6cf2f" y="172.8"/>
      </g>
     </g>
    </g>
    <g id="ytick_17">
     <g id="line2d_94">
      <g>
       <use style="stroke:#000000;stroke-width:0.6;" x="90" xlink:href="#ma3155fecb4" y="182.88"/>
      </g>
     </g>
     <g id="line2d_95">
      <g>
       <use style="stroke:#000000;stroke-width:0.6;" x="648" xlink:href="#ma954b6cf2f" y="182.88"/>
      </g>
     </g>
    </g>
    <g id="ytick_18">
     <g id="line2d_96">
      <g>
       <use style="stroke:#000000;stroke-width:0.6;" x="90" xlink:href="#ma3155fecb4" y="203.04"/>
      </g>
     </g>
     <g id="line2d_97">
      <g>
       <use style="stroke:#000000;stroke-width:0.6;" x="648" xlink:href="#ma954b6cf2f" y="203.04"/>
      </g>
     </g>
    </g>
    <g id="ytick_19">
     <g id="line2d_98">
      <g>
       <use style="stroke:#000000;stroke-width:0.6;" x="90" xlink:href="#ma3155fecb4" y="213.12"/>
      </g>
     </g>
     <g id="line2d_99">
      <g>
       <use style="stroke:#000000;stroke-width:0.6;" x="648" xlink:href="#ma954b6cf2f" y="213.12"/>
      </g>
     </g>
    </g>
    <g id="ytick_20">
     <g id="line2d_100">
      <g>
       <use style="stroke:#000000;stroke-width:0.6;" x="90" xlink:href="#ma3155fecb4" y="223.2"/>
      </g>
     </g>
     <g id="line2d_101">
      <g>
       <use style="stroke:#000000;stroke-width:0.6;" x="648" xlink:href="#ma954b6cf2f" y="223.2"/>
      </g>
     </g>
    </g>
    <g id="ytick_21">
     <g id="line2d_102">
      <g>
       <use style="stroke:#000000;stroke-width:0.6;" x="90" xlink:href="#ma3155fecb4" y="233.28"/>
      </g>
     </g>
     <g id="line2d_103">
      <g>
       <use style="stroke:#000000;stroke-width:0.6;" x="648" xlink:href="#ma954b6cf2f" y="233.28"/>
      </g>
     </g>
    </g>
    <g id="ytick_22">
     <g id="line2d_104">
      <g>
       <use style="stroke:#000000;stroke-width:0.6;" x="90" xlink:href="#ma3155fecb4" y="253.44"/>
      </g>
     </g>
     <g id="line2d_105">
      <g>
       <use style="stroke:#000000;stroke-width:0.6;" x="648" xlink:href="#ma954b6cf2f" y="253.44"/>
      </g>
     </g>
    </g>
    <g id="ytick_23">
     <g id="line2d_106">
      <g>
       <use style="stroke:#000000;stroke-width:0.6;" x="90" xlink:href="#ma3155fecb4" y="263.52"/>
      </g>
     </g>
     <g id="line2d_107">
      <g>
       <use style="stroke:#000000;stroke-width:0.6;" x="648" xlink:href="#ma954b6cf2f" y="263.52"/>
      </g>
     </g>
    </g>
    <g id="ytick_24">
     <g id="line2d_108">
      <g>
       <use style="stroke:#000000;stroke-width:0.6;" x="90" xlink:href="#ma3155fecb4" y="273.6"/>
      </g>
     </g>
     <g id="line2d_109">
      <g>
       <use style="stroke:#000000;stroke-width:0.6;" x="648" xlink:href="#ma954b6cf2f" y="273.6"/>
      </g>
     </g>
    </g>
    <g id="ytick_25">
     <g id="line2d_110">
      <g>
       <use style="stroke:#000000;stroke-width:0.6;" x="90" xlink:href="#ma3155fecb4" y="283.68"/>
      </g>
     </g>
     <g id="line2d_111">
      <g>
       <use style="stroke:#000000;stroke-width:0.6;" x="648" xlink:href="#ma954b6cf2f" y="283.68"/>
      </g>
     </g>
    </g>
    <g id="ytick_26">
     <g id="line2d_112">
      <g>
       <use style="stroke:#000000;stroke-width:0.6;" x="90" xlink:href="#ma3155fecb4" y="303.84"/>
      </g>
     </g>
     <g id="line2d_113">
      <g>
       <use style="stroke:#000000;stroke-width:0.6;" x="648" xlink:href="#ma954b6cf2f" y="303.84"/>
      </g>
     </g>
    </g>
    <g id="ytick_27">
     <g id="line2d_114">
      <g>
       <use style="stroke:#000000;stroke-width:0.6;" x="90" xlink:href="#ma3155fecb4" y="313.92"/>
      </g>
     </g>
     <g id="line2d_115">
      <g>
       <use style="stroke:#000000;stroke-width:0.6;" x="648" xlink:href="#ma954b6cf2f" y="313.92"/>
      </g>
     </g>
    </g>
    <g id="ytick_28">
     <g id="line2d_116">
      <g>
       <use style="stroke:#000000;stroke-width:0.6;" x="90" xlink:href="#ma3155fecb4" y="324"/>
      </g>
     </g>
     <g id="line2d_117">
      <g>
       <use style="stroke:#000000;stroke-width:0.6;" x="648" xlink:href="#ma954b6cf2f" y="324"/>
      </g>
     </g>
    </g>
    <g id="ytick_29">
     <g id="line2d_118">
      <g>
       <use style="stroke:#000000;stroke-width:0.6;" x="90" xlink:href="#ma3155fecb4" y="334.08"/>
      </g>
     </g>
     <g id="line2d_119">
      <g>
       <use style="stroke:#000000;stroke-width:0.6;" x="648" xlink:href="#ma954b6cf2f" y="334.08"/>
      </g>
     </g>
    </g>
    <g id="ytick_30">
     <g id="line2d_120">
      <g>
       <use style="stroke:#000000;stroke-width:0.6;" x="90" xlink:href="#ma3155fecb4" y="354.24"/>
      </g>
     </g>
     <g id="line2d_121">
      <g>
       <use style="stroke:#000000;stroke-width:0.6;" x="648" xlink:href="#ma954b6cf2f" y="354.24"/>
      </g>
     </g>
    </g>
    <g id="ytick_31">
     <g id="line2d_122">
      <g>
       <use style="stroke:#000000;stroke-width:0.6;" x="90" xlink:href="#ma3155fecb4" y="364.32"/>
      </g>
     </g>
     <g id="line2d_123">
      <g>
       <use style="stroke:#000000;stroke-width:0.6;" x="648" xlink:href="#ma954b6cf2f" y="364.32"/>
      </g>
     </g>
    </g>
    <g id="ytick_32">
     <g id="line2d_124">
      <g>
       <use style="stroke:#000000;stroke-width:0.6;" x="90" xlink:href="#ma3155fecb4" y="374.4"/>
      </g>
     </g>
     <g id="line2d_125">
      <g>
       <use style="stroke:#000000;stroke-width:0.6;" x="648" xlink:href="#ma954b6cf2f" y="374.4"/>
      </g>
     </g>
    </g>
    <g id="text_14">
     <!-- $H_{g}$ [Mag] -->
     <g transform="translate(44.894864 247.67683)rotate(-90)scale(0.15 -0.15)">
      <defs>
       <path d="M 4787 3887 
C 4845 4103 4858 4167 5312 4167 
C 5427 4167 5491 4167 5491 4282 
C 5491 4352 5434 4352 5395 4352 
C 5280 4352 5146 4352 5024 4352 
L 4269 4352 
C 4147 4352 4013 4352 3891 4352 
C 3846 4352 3770 4352 3770 4231 
C 3770 4167 3814 4167 3936 4167 
C 4320 4167 4320 4116 4320 4046 
C 4320 4034 4320 3995 4294 3900 
L 3904 2361 
L 1971 2361 
L 2355 3887 
C 2413 4103 2426 4167 2880 4167 
C 2995 4167 3059 4167 3059 4282 
C 3059 4352 3002 4352 2963 4352 
C 2848 4352 2714 4352 2592 4352 
L 1837 4352 
C 1715 4352 1581 4352 1459 4352 
C 1414 4352 1338 4352 1338 4231 
C 1338 4167 1382 4167 1504 4167 
C 1888 4167 1888 4116 1888 4046 
C 1888 4034 1888 3995 1862 3899 
L 998 472 
C 941 249 928 185 486 185 
C 339 185 294 185 294 64 
C 294 0 365 0 384 0 
C 499 0 634 0 755 0 
L 1510 0 
C 1632 0 1766 0 1888 0 
C 1939 0 2010 0 2010 121 
C 2010 185 1952 185 1856 185 
C 1466 185 1466 236 1466 300 
C 1466 307 1466 351 1478 402 
L 1920 2176 
L 3859 2176 
C 3750 1753 3424 416 3411 376 
C 3341 185 3238 185 2861 185 
C 2784 185 2726 185 2726 64 
C 2726 0 2797 0 2816 0 
C 2931 0 3066 0 3187 0 
L 3942 0 
C 4064 0 4198 0 4320 0 
C 4371 0 4442 0 4442 121 
C 4442 185 4384 185 4288 185 
C 3898 185 3898 236 3898 300 
C 3898 307 3898 351 3910 402 
L 4787 3887 
z
" id="CMMI12-48" transform="scale(0.015625)"/>
       <path d="M 2163 811 
C 2138 709 2125 683 2042 588 
C 1779 249 1510 128 1312 128 
C 1101 128 902 294 902 734 
C 902 1073 1094 1788 1235 2076 
C 1421 2433 1709 2689 1978 2689 
C 2400 2689 2483 2165 2483 2127 
L 2464 2037 
L 2163 811 
z
M 2560 2395 
C 2477 2580 2298 2816 1978 2816 
C 1280 2816 486 1941 486 990 
C 486 326 890 0 1299 0 
C 1638 0 1939 268 2054 396 
L 1914 -171 
C 1824 -516 1786 -674 1555 -894 
C 1293 -1152 1050 -1152 909 -1152 
C 717 -1152 557 -1139 397 -1089 
C 602 -1033 653 -858 653 -789 
C 653 -689 576 -588 435 -588 
C 282 -588 115 -714 115 -922 
C 115 -1180 378 -1280 922 -1280 
C 1747 -1280 2176 -753 2259 -410 
L 2970 2435 
C 2989 2511 2989 2524 2989 2536 
C 2989 2625 2918 2695 2822 2695 
C 2669 2695 2579 2567 2560 2395 
z
" id="CMMI12-67" transform="scale(0.015625)"/>
       <path d="M 1338 4224 
C 1299 4320 1293 4320 1158 4320 
L 339 4320 
L 339 4160 
C 781 4160 851 4160 851 3875 
L 851 610 
C 851 451 851 153 339 153 
L 339 -13 
C 486 0 755 0 915 0 
C 1075 0 1344 0 1491 -13 
L 1491 153 
C 979 153 979 451 979 610 
L 979 4135 
L 986 4135 
L 2490 89 
C 2515 25 2528 -13 2579 -13 
C 2630 -13 2643 25 2669 89 
L 4186 4166 
L 4192 4166 
L 4192 438 
C 4192 153 4122 153 3680 153 
L 3680 -13 
C 3853 0 4198 0 4384 0 
C 4570 0 4922 0 5094 -13 
L 5094 153 
C 4653 153 4582 153 4582 438 
L 4582 3875 
C 4582 4160 4653 4160 5094 4160 
L 5094 4320 
L 4282 4320 
C 4147 4320 4141 4314 4102 4218 
L 2720 502 
L 1338 4224 
z
" id="CMR17-4d" transform="scale(0.015625)"/>
       <path d="M 710 1164 
C 832 1068 1043 960 1299 960 
C 1805 960 2240 1357 2240 1888 
C 2240 2054 2189 2310 1997 2509 
C 2176 2692 2438 2752 2586 2752 
C 2611 2752 2650 2752 2682 2734 
C 2656 2728 2598 2703 2598 2605 
C 2598 2527 2656 2471 2739 2471 
C 2835 2471 2886 2533 2886 2614 
C 2886 2731 2790 2854 2586 2854 
C 2330 2854 2106 2738 1926 2580 
C 1734 2753 1504 2816 1299 2816 
C 794 2816 358 2419 358 1888 
C 358 1522 570 1292 634 1228 
C 442 1004 442 743 442 711 
C 442 545 506 302 723 168 
C 390 85 128 -169 128 -486 
C 128 -943 736 -1280 1466 -1280 
C 2170 -1280 2803 -956 2803 -479 
C 2803 384 1856 384 1363 384 
C 1216 384 954 384 922 391 
C 723 423 589 602 589 826 
C 589 883 589 1024 710 1164 
z
M 1299 1068 
C 736 1068 736 1760 736 1889 
C 736 2016 736 2708 1299 2708 
C 1862 2708 1862 2016 1862 1889 
C 1862 1760 1862 1068 1299 1068 
z
M 1466 -1171 
C 826 -1171 384 -835 384 -486 
C 384 -289 493 -105 634 -4 
C 794 104 858 104 1293 104 
C 1818 104 2547 104 2547 -486 
C 2547 -835 2106 -1171 1466 -1171 
z
" id="CMR17-67" transform="scale(0.015625)"/>
      </defs>
      <use transform="scale(0.996264)" xlink:href="#CMMI12-48"/>
      <use transform="translate(80.824837 -14.943915)scale(0.697382)" xlink:href="#CMMI12-67"/>
      <use transform="translate(146.598616 0)scale(0.996264)" xlink:href="#CMR17-5b"/>
      <use transform="translate(171.469675 0)scale(0.996264)" xlink:href="#CMR17-4d"/>
      <use transform="translate(256.156615 0)scale(0.996264)" xlink:href="#CMR17-61"/>
      <use transform="translate(301.847093 0)scale(0.996264)" xlink:href="#CMR17-67"/>
      <use transform="translate(347.53757 0)scale(0.996264)" xlink:href="#CMR17-5d"/>
     </g>
    </g>
   </g>
   <g id="line2d_126">
    <path clip-path="url(#p46fde5401c)" d="M 136.5 166.744944 
L 140.172113 170.825199 
L 142.926198 174.238278 
L 146.598312 179.227971 
L 149.352397 183.310961 
L 153.02451 189.208197 
L 156.696624 195.599746 
L 160.368737 202.435354 
L 164.958879 211.494563 
L 171.385077 224.766903 
L 178.729304 239.858756 
L 182.401417 246.950169 
L 185.155502 251.908842 
L 187.909587 256.469845 
L 190.663672 260.549719 
L 192.499729 262.969282 
L 194.335786 265.131244 
L 196.171843 267.021026 
L 198.007899 268.624056 
L 199.843956 269.926256 
L 201.680013 270.914352 
L 203.516069 271.583203 
L 205.352126 271.944457 
L 207.188183 272.011859 
L 209.024239 271.799156 
L 210.860296 271.320093 
L 212.696353 270.588415 
L 214.532409 269.617869 
L 216.368466 268.422463 
L 219.122551 266.262301 
L 221.876636 263.767082 
L 226.466778 259.18984 
L 231.974948 253.689917 
L 234.729033 251.201354 
L 237.483118 249.020488 
L 239.319175 247.785964 
L 241.155232 246.757853 
L 242.991288 245.947612 
L 244.827345 245.362277 
L 246.663402 245.008885 
L 248.499458 244.89447 
L 250.335515 245.023072 
L 252.171572 245.382919 
L 254.007628 245.957042 
L 255.843685 246.728469 
L 257.679742 247.68023 
L 260.433827 249.408869 
L 263.187912 251.44772 
L 270.532139 257.213721 
L 272.368195 258.319585 
L 274.204252 259.137666 
L 276.040309 259.639945 
L 277.876365 259.834687 
L 279.712422 259.731088 
L 281.548479 259.338345 
L 283.384535 258.665653 
L 285.220592 257.722211 
L 287.056649 256.517213 
L 288.892706 255.059856 
L 290.728762 253.359337 
L 292.564819 251.424852 
L 295.318904 248.104556 
L 298.072989 244.309566 
L 300.827074 240.070921 
L 303.581159 235.419659 
L 306.335244 230.386817 
L 310.007358 223.136438 
L 313.679471 215.336446 
L 323.777783 193.116295 
L 326.531868 187.87985 
L 329.285953 183.293998 
L 331.122009 180.599866 
L 332.958066 178.197082 
L 334.794123 176.086816 
L 336.63018 174.270268 
L 338.466236 172.748635 
L 340.302293 171.523115 
L 342.13835 170.591256 
L 343.974406 169.936941 
L 345.810463 169.540853 
L 347.64652 169.381579 
L 349.482576 169.432707 
L 351.318633 169.667094 
L 354.072718 170.302907 
L 356.826803 171.198367 
L 360.498917 172.637873 
L 366.925115 175.412453 
L 374.269342 178.837723 
L 381.613569 182.492249 
L 384.367654 184.034264 
L 387.121739 185.811897 
L 389.875824 187.924227 
L 391.71188 189.564136 
L 393.547937 191.418255 
L 395.383994 193.511118 
L 397.22005 195.867254 
L 399.056107 198.509637 
L 400.892164 201.448692 
L 402.728221 204.688788 
L 405.482306 210.122862 
L 408.236391 216.258647 
L 410.990476 223.096829 
L 413.744561 230.587349 
L 417.416674 241.418411 
L 422.006816 255.873303 
L 431.187099 285.233706 
L 433.941184 293.355339 
L 436.695269 300.819618 
L 438.531326 305.33868 
L 440.367383 309.427695 
L 442.203439 313.033716 
L 444.039496 316.121767 
L 445.875553 318.665612 
L 447.71161 320.639074 
L 448.629638 321.40373 
L 449.547666 322.015974 
L 450.465695 322.472533 
L 451.383723 322.770136 
L 452.301751 322.905785 
L 453.21978 322.878529 
L 454.137808 322.688339 
L 455.055836 322.335189 
L 455.973865 321.819053 
L 456.891893 321.139904 
L 457.809921 320.297718 
L 459.645978 318.128192 
L 461.482035 315.35753 
L 463.318091 312.058861 
L 465.154148 308.303288 
L 466.990205 304.138594 
L 469.74429 297.20006 
L 472.498375 289.535043 
L 475.25246 281.259764 
L 478.924573 269.477642 
L 483.514715 253.93458 
L 495.449084 212.97577 
L 499.121197 201.287405 
L 501.875282 193.104819 
L 504.629367 185.551672 
L 507.383452 178.744185 
L 509.219509 174.677511 
L 511.055565 171.028332 
L 512.891622 167.831083 
L 514.727679 165.115053 
L 516.563736 162.848972 
L 518.399792 160.96217 
L 520.235849 159.383307 
L 522.071906 158.041044 
L 524.825991 156.332889 
L 527.580076 154.963096 
L 530.334161 153.935176 
L 533.088246 153.164875 
L 536.760359 152.408578 
L 541.350501 151.756746 
L 548.694728 151.015636 
L 557.875011 150.286118 
L 563.383181 150.07237 
L 567.055295 150.119254 
L 570.727408 150.380878 
L 574.399521 150.910886 
L 577.153606 151.513424 
L 579.907691 152.311299 
L 582.661776 153.319244 
L 585.415862 154.549603 
L 588.169947 156.014492 
L 590.924032 157.726028 
L 593.678117 159.696325 
L 594.596145 160.412688 
L 594.596145 160.412688 
" style="fill:none;stroke:#d62728;stroke-linecap:square;stroke-width:3;"/>
   </g>
   <g id="patch_3">
    <path d="M 90 384.48 
L 90 51.84 
" style="fill:none;stroke:#000000;stroke-linecap:square;stroke-linejoin:miter;stroke-width:0.8;"/>
   </g>
   <g id="patch_4">
    <path d="M 648 384.48 
L 648 51.84 
" style="fill:none;stroke:#000000;stroke-linecap:square;stroke-linejoin:miter;stroke-width:0.8;"/>
   </g>
   <g id="patch_5">
    <path d="M 90 384.48 
L 648 384.48 
" style="fill:none;stroke:#000000;stroke-linecap:square;stroke-linejoin:miter;stroke-width:0.8;"/>
   </g>
   <g id="patch_6">
    <path d="M 90 51.84 
L 648 51.84 
" style="fill:none;stroke:#000000;stroke-linecap:square;stroke-linejoin:miter;stroke-width:0.8;"/>
   </g>
   <g id="text_15">
    <!-- 2001 UY4 Light Curve -->
    <g transform="translate(273.74364 45.84)scale(0.21 -0.21)">
     <defs>
      <path d="M 3456 1433 
C 3456 579 2899 38 2291 38 
C 1965 38 1670 210 1491 477 
C 1286 783 1261 1178 1261 1401 
L 1261 3874 
C 1261 4160 1331 4160 1773 4160 
L 1773 4320 
C 1587 4320 1248 4320 1050 4320 
C 851 4320 512 4320 326 4320 
L 326 4160 
C 768 4160 838 4160 838 3874 
L 838 1433 
C 838 516 1536 -128 2278 -128 
C 3110 -128 3590 719 3590 1344 
L 3590 3766 
C 3590 4122 3917 4160 4102 4160 
L 4102 4326 
C 3955 4320 3686 4320 3526 4320 
C 3366 4320 3091 4320 2944 4326 
L 2944 4160 
C 3456 4160 3456 3861 3456 3702 
L 3456 1433 
z
" id="CMR17-55" transform="scale(0.015625)"/>
      <path d="M 3706 3766 
C 3955 4160 4301 4160 4416 4160 
L 4416 4332 
C 4269 4319 4102 4319 3942 4319 
C 3782 4319 3526 4319 3373 4332 
L 3373 4160 
C 3533 4160 3616 4077 3616 3957 
C 3616 3881 3584 3830 3533 3747 
L 2381 1912 
L 1120 3912 
C 1075 3988 1069 3994 1069 4039 
C 1069 4160 1293 4160 1382 4160 
L 1382 4319 
C 1178 4319 864 4319 653 4319 
C 486 4319 166 4319 13 4332 
L 13 4160 
C 378 4160 480 4141 595 3958 
L 2010 1728 
L 2010 445 
C 2010 160 1939 160 1498 160 
L 1498 0 
C 1683 0 2016 0 2214 0 
C 2413 0 2752 0 2938 0 
L 2938 160 
C 2477 160 2419 160 2419 471 
L 2419 1728 
L 3706 3766 
z
" id="CMR17-59" transform="scale(0.015625)"/>
      <path d="M 3469 1615 
L 3354 1615 
C 3302 983 3219 166 2125 166 
L 1530 166 
C 1274 166 1261 197 1261 414 
L 1261 3898 
C 1261 4129 1274 4192 1760 4192 
L 1901 4192 
L 1901 4352 
C 1638 4352 1331 4352 1069 4352 
C 870 4352 512 4352 326 4352 
L 326 4192 
C 768 4192 838 4192 838 3905 
L 838 452 
C 838 166 768 166 326 166 
L 326 0 
L 3315 0 
L 3469 1615 
z
" id="CMR17-4c" transform="scale(0.015625)"/>
      <path d="M 966 2560 
L 1862 2560 
L 1862 2725 
L 966 2725 
L 966 3904 
L 851 3904 
C 838 3245 614 2668 70 2668 
L 70 2560 
L 627 2560 
L 627 771 
C 627 650 627 -64 1370 -64 
C 1747 -64 1965 306 1965 777 
L 1965 1140 
L 1850 1140 
L 1850 783 
C 1850 344 1677 51 1408 51 
C 1222 51 966 178 966 758 
L 966 2560 
z
" id="CMR17-74" transform="scale(0.015625)"/>
      <path d="M 3974 4289 
C 3974 4403 3968 4410 3930 4410 
C 3904 4410 3898 4403 3853 4327 
L 3571 3792 
C 3258 4187 2874 4416 2381 4416 
C 1286 4416 294 3456 294 2148 
C 294 826 1286 -128 2387 -128 
C 3366 -128 3974 730 3974 1461 
C 3974 1524 3974 1550 3917 1550 
C 3866 1550 3866 1531 3859 1474 
C 3808 585 3168 38 2477 38 
C 1824 38 781 495 781 2147 
C 781 3805 1843 4250 2464 4250 
C 3187 4250 3712 3628 3834 2745 
C 3846 2668 3846 2655 3904 2655 
C 3974 2655 3974 2668 3974 2783 
L 3974 4289 
z
" id="CMR17-43" transform="scale(0.015625)"/>
      <path d="M 1882 2693 
L 1882 2528 
C 2259 2528 2317 2489 2317 2186 
L 2317 1032 
C 2317 500 2029 38 1555 38 
C 1030 38 986 348 986 678 
L 986 2763 
L 211 2693 
L 211 2528 
C 467 2528 640 2528 646 2274 
L 646 1058 
C 646 633 646 361 813 183 
C 896 101 1056 -64 1517 -64 
C 2061 -64 2272 377 2323 506 
L 2330 506 
L 2330 -63 
L 3091 -63 
L 3091 128 
C 2714 128 2656 166 2656 473 
L 2656 2763 
L 1882 2693 
z
" id="CMR17-75" transform="scale(0.015625)"/>
      <path d="M 2502 2163 
C 2560 2304 2662 2560 3034 2560 
L 3034 2726 
C 2912 2726 2752 2726 2630 2726 
C 2496 2726 2285 2726 2157 2732 
L 2157 2566 
C 2317 2553 2406 2477 2406 2311 
C 2406 2253 2406 2240 2368 2151 
L 1664 377 
L 902 2286 
C 864 2369 864 2381 864 2407 
C 864 2560 1075 2560 1171 2560 
L 1171 2732 
C 1018 2726 736 2726 576 2726 
C 403 2726 205 2726 64 2732 
L 64 2560 
C 307 2560 442 2560 518 2362 
L 1446 44 
C 1485 -51 1491 -64 1549 -64 
C 1606 -64 1613 -51 1651 44 
L 2502 2163 
z
" id="CMR17-76" transform="scale(0.015625)"/>
     </defs>
     <use transform="scale(0.996264)" xlink:href="#CMR17-32"/>
     <use transform="translate(45.690477 0)scale(0.996264)" xlink:href="#CMR17-30"/>
     <use transform="translate(91.380954 0)scale(0.996264)" xlink:href="#CMR17-30"/>
     <use transform="translate(137.071431 0)scale(0.996264)" xlink:href="#CMR17-31"/>
     <use transform="translate(212.837875 0)scale(0.996264)" xlink:href="#CMR17-55"/>
     <use transform="translate(281.910305 0)scale(0.996264)" xlink:href="#CMR17-59"/>
     <use transform="translate(350.982734 0)scale(0.996264)" xlink:href="#CMR17-34"/>
     <use transform="translate(426.749178 0)scale(0.996264)" xlink:href="#CMR17-4c"/>
     <use transform="translate(484.130586 0)scale(0.996264)" xlink:href="#CMR17-69"/>
     <use transform="translate(509.001644 0)scale(0.996264)" xlink:href="#CMR17-67"/>
     <use transform="translate(554.692121 0)scale(0.996264)" xlink:href="#CMR17-68"/>
     <use transform="translate(602.985037 0)scale(0.996264)" xlink:href="#CMR17-74"/>
     <use transform="translate(668.341771 0)scale(0.996264)" xlink:href="#CMR17-43"/>
     <use transform="translate(734.851652 0)scale(0.996264)" xlink:href="#CMR17-75"/>
     <use transform="translate(785.747022 0)scale(0.996264)" xlink:href="#CMR17-72"/>
     <use transform="translate(821.027789 0)scale(0.996264)" xlink:href="#CMR17-76"/>
     <use transform="translate(866.718251 0)scale(0.996264)" xlink:href="#CMR17-65"/>
    </g>
   </g>
   <g id="legend_1">
    <g id="patch_7">
     <path d="M 100.5 107.189705 
L 267.428612 107.189705 
Q 270.428612 107.189705 270.428612 104.189705 
L 270.428612 62.34 
Q 270.428612 59.34 267.428612 59.34 
L 100.5 59.34 
Q 97.5 59.34 97.5 62.34 
L 97.5 104.189705 
Q 97.5 107.189705 100.5 107.189705 
z
" style="fill:#ffffff;opacity:0.8;stroke:#cccccc;stroke-linejoin:miter;"/>
    </g>
    <g id="line2d_127">
     <path d="M 103.5 71.29797 
L 148.5 71.29797 
" style="fill:none;stroke:#d62728;stroke-linecap:square;stroke-width:3;"/>
    </g>
    <g id="line2d_128"/>
    <g id="text_16">
     <!-- Fit (6th order) -->
     <g transform="translate(160.5 76.54797)scale(0.15 -0.15)">
      <defs>
       <path d="M 3482 4325 
L 326 4325 
L 326 4160 
C 768 4160 838 4160 838 3874 
L 838 446 
C 838 160 768 160 326 160 
L 326 0 
C 512 0 870 0 1069 0 
C 1331 0 1638 0 1901 0 
L 1901 160 
L 1760 160 
C 1274 160 1261 223 1261 452 
L 1261 2075 
L 1837 2075 
C 2432 2075 2490 1865 2490 1332 
L 2605 1332 
L 2605 2987 
L 2490 2987 
C 2490 2450 2432 2240 1837 2240 
L 1261 2240 
L 1261 3911 
C 1261 4128 1274 4160 1530 4160 
L 2355 4160 
C 3322 4160 3430 3765 3520 2916 
L 3635 2916 
L 3482 4325 
z
" id="CMR17-46" transform="scale(0.015625)"/>
       <path d="M 1958 -1561 
C 1958 -1555 1958 -1542 1939 -1523 
C 1645 -1224 858 -407 858 1581 
C 858 3569 1632 4379 1946 4697 
C 1946 4704 1958 4717 1958 4736 
C 1958 4755 1939 4768 1914 4768 
C 1843 4768 1299 4296 986 3594 
C 666 2887 576 2199 576 1588 
C 576 1128 621 351 1005 -471 
C 1312 -1135 1837 -1600 1914 -1600 
C 1946 -1600 1958 -1587 1958 -1561 
z
" id="CMR17-28" transform="scale(0.015625)"/>
       <path d="M 1683 1581 
C 1683 2040 1638 2817 1254 3639 
C 947 4303 422 4768 346 4768 
C 326 4768 301 4761 301 4729 
C 301 4717 307 4710 314 4697 
C 621 4378 1402 3568 1402 1584 
C 1402 -407 627 -1217 314 -1537 
C 307 -1549 301 -1556 301 -1568 
C 301 -1600 326 -1600 346 -1600 
C 416 -1600 960 -1128 1274 -426 
C 1594 281 1683 969 1683 1581 
z
" id="CMR17-29" transform="scale(0.015625)"/>
      </defs>
      <use transform="scale(0.996264)" xlink:href="#CMR17-46"/>
      <use transform="translate(59.983847 0)scale(0.996264)" xlink:href="#CMR17-69"/>
      <use transform="translate(84.854905 0)scale(0.996264)" xlink:href="#CMR17-74"/>
      <use transform="translate(150.211639 0)scale(0.996264)" xlink:href="#CMR17-28"/>
      <use transform="translate(185.492407 0)scale(0.996264)" xlink:href="#CMR17-36"/>
      <use transform="translate(231.182884 0)scale(0.996264)" xlink:href="#CMR17-74"/>
      <use transform="translate(266.463652 0)scale(0.996264)" xlink:href="#CMR17-68"/>
      <use transform="translate(347.434988 0)scale(0.996264)" xlink:href="#CMR17-6f"/>
      <use transform="translate(393.125465 0)scale(0.996264)" xlink:href="#CMR17-72"/>
      <use transform="translate(428.406233 0)scale(0.996264)" xlink:href="#CMR17-64"/>
      <use transform="translate(479.301603 0)scale(0.996264)" xlink:href="#CMR17-65"/>
      <use transform="translate(519.787263 0)scale(0.996264)" xlink:href="#CMR17-72"/>
      <use transform="translate(555.068031 0)scale(0.996264)" xlink:href="#CMR17-29"/>
     </g>
    </g>
    <g id="LineCollection_2">
     <path d="M 126 100.53396 
L 126 85.53396 
" style="fill:none;stroke:#696969;"/>
    </g>
    <g id="line2d_129">
     <g>
      <use style="fill:#696969;stroke:#696969;" x="126" xlink:href="#md6f5681b95" y="100.53396"/>
     </g>
    </g>
    <g id="line2d_130">
     <g>
      <use style="fill:#696969;stroke:#696969;" x="126" xlink:href="#md6f5681b95" y="85.53396"/>
     </g>
    </g>
    <g id="line2d_131"/>
    <g id="line2d_132">
     <g>
      <use style="fill:#1f77b4;stroke:#1f77b4;" x="126" xlink:href="#m0695130969" y="93.03396"/>
     </g>
    </g>
    <g id="text_17">
     <!-- Data of 4 nights -->
     <g transform="translate(160.5 98.28396)scale(0.15 -0.15)">
      <defs>
       <path d="M 333 4352 
L 333 4186 
C 774 4186 845 4186 845 3900 
L 845 452 
C 845 166 774 166 333 166 
L 333 0 
L 2368 0 
C 3398 0 4224 943 4224 2141 
C 4224 3346 3411 4352 2368 4352 
L 333 4352 
z
M 1523 166 
C 1267 166 1254 197 1254 414 
L 1254 3938 
C 1254 4155 1267 4186 1523 4186 
L 2240 4186 
C 2771 4186 3750 3874 3750 2141 
C 3750 1242 3488 879 3366 707 
C 3213 510 2848 166 2240 166 
L 1523 166 
z
" id="CMR17-44" transform="scale(0.015625)"/>
       <path d="M 979 2560 
L 1709 2560 
L 1709 2725 
L 966 2725 
L 966 3494 
C 966 4022 1235 4352 1510 4352 
C 1594 4352 1690 4327 1754 4282 
C 1702 4269 1568 4225 1568 4067 
C 1568 3901 1696 3850 1786 3850 
C 1875 3850 2003 3901 2003 4067 
C 2003 4308 1773 4454 1517 4454 
C 1152 4454 653 4156 653 3481 
L 653 2725 
L 141 2725 
L 141 2560 
L 653 2560 
L 653 427 
C 653 184 627 153 218 153 
L 218 -13 
C 371 0 666 0 832 0 
C 1018 0 1344 0 1517 -13 
L 1517 153 
C 1056 153 979 153 979 439 
L 979 2560 
z
" id="CMR17-66" transform="scale(0.015625)"/>
       <path d="M 2656 1933 
C 2656 2259 2592 2790 1837 2790 
C 1331 2790 1069 2400 973 2144 
L 966 2144 
L 966 2790 
L 211 2720 
L 211 2554 
C 589 2554 646 2515 646 2208 
L 646 428 
C 646 184 621 153 211 153 
L 211 -13 
C 365 0 646 0 813 0 
C 979 0 1267 0 1421 -13 
L 1421 153 
C 1011 153 986 178 986 428 
L 986 1658 
C 986 2247 1344 2688 1792 2688 
C 2266 2688 2317 2266 2317 1958 
L 2317 428 
C 2317 184 2291 153 1882 153 
L 1882 -13 
C 2035 0 2317 0 2483 0 
C 2650 0 2938 0 3091 -13 
L 3091 153 
C 2682 153 2656 178 2656 428 
L 2656 1933 
z
" id="CMR17-6e" transform="scale(0.015625)"/>
      </defs>
      <use transform="scale(0.996264)" xlink:href="#CMR17-44"/>
      <use transform="translate(70.393556 0)scale(0.996264)" xlink:href="#CMR17-61"/>
      <use transform="translate(116.084033 0)scale(0.996264)" xlink:href="#CMR17-74"/>
      <use transform="translate(151.364801 0)scale(0.996264)" xlink:href="#CMR17-61"/>
      <use transform="translate(227.131244 0)scale(0.996264)" xlink:href="#CMR17-6f"/>
      <use transform="translate(272.821721 0)scale(0.996264)" xlink:href="#CMR17-66"/>
      <use transform="translate(330.3712 0)scale(0.996264)" xlink:href="#CMR17-34"/>
      <use transform="translate(406.137644 0)scale(0.996264)" xlink:href="#CMR17-6e"/>
      <use transform="translate(457.033013 0)scale(0.996264)" xlink:href="#CMR17-69"/>
      <use transform="translate(481.904072 0)scale(0.996264)" xlink:href="#CMR17-67"/>
      <use transform="translate(527.594549 0)scale(0.996264)" xlink:href="#CMR17-68"/>
      <use transform="translate(575.887465 0)scale(0.996264)" xlink:href="#CMR17-74"/>
      <use transform="translate(611.168233 0)scale(0.996264)" xlink:href="#CMR17-73"/>
     </g>
    </g>
   </g>
  </g>
 </g>
 <defs>
  <clipPath id="p46fde5401c">
   <rect height="332.64" width="558" x="90" y="51.84"/>
  </clipPath>
 </defs>
</svg>
