<?xml version="1.0" encoding="utf-8" standalone="no"?>
<!DOCTYPE svg PUBLIC "-//W3C//DTD SVG 1.1//EN"
  "http://www.w3.org/Graphics/SVG/1.1/DTD/svg11.dtd">
<svg height="432pt" version="1.1" viewBox="0 0 720 432" width="720pt" xmlns="http://www.w3.org/2000/svg" xmlns:xlink="http://www.w3.org/1999/xlink">
 <metadata>
  <rdf:RDF xmlns:cc="http://creativecommons.org/ns#" xmlns:dc="http://purl.org/dc/elements/1.1/" xmlns:rdf="http://www.w3.org/1999/02/22-rdf-syntax-ns#">
   <cc:Work>
    <dc:type rdf:resource="http://purl.org/dc/dcmitype/StillImage"/>
    <dc:date>2021-10-24T13:24:51.498960</dc:date>
    <dc:format>image/svg+xml</dc:format>
    <dc:creator>
     <cc:Agent>
      <dc:title>Matplotlib v3.4.2, https://matplotlib.org/</dc:title>
     </cc:Agent>
    </dc:creator>
   </cc:Work>
  </rdf:RDF>
 </metadata>
 <defs>
  <style type="text/css">*{stroke-linecap:butt;stroke-linejoin:round;}</style>
 </defs>
 <g id="figure_1">
  <g id="patch_1">
   <path d="M 0 432 
L 720 432 
L 720 0 
L 0 0 
z
" style="fill:#ffffff;"/>
  </g>
  <g id="axes_1">
   <g id="patch_2">
    <path d="M 90 384.48 
L 648 384.48 
L 648 51.84 
L 90 51.84 
z
" style="fill:#ffffff;"/>
   </g>
   <g id="matplotlib.axis_1">
    <g id="xtick_1">
     <g id="line2d_1">
      <path clip-path="url(#pf11bf7214f)" d="M 90 384.48 
L 90 51.84 
" style="fill:none;stroke:#808080;stroke-linecap:square;stroke-width:0.4;"/>
     </g>
     <g id="line2d_2">
      <defs>
       <path d="M 0 0 
L 0 -3.5 
" id="mf3bb1d0776" style="stroke:#000000;stroke-width:0.8;"/>
      </defs>
      <g>
       <use style="stroke:#000000;stroke-width:0.8;" x="90" xlink:href="#mf3bb1d0776" y="384.48"/>
      </g>
     </g>
     <g id="line2d_3">
      <defs>
       <path d="M 0 0 
L 0 3.5 
" id="m9a9ceaac7f" style="stroke:#000000;stroke-width:0.8;"/>
      </defs>
      <g>
       <use style="stroke:#000000;stroke-width:0.8;" x="90" xlink:href="#m9a9ceaac7f" y="51.84"/>
      </g>
     </g>
     <g id="text_1">
      <!-- $\mathdefault{0}$ -->
      <g transform="translate(86.341881 398.357725)scale(0.15 -0.15)">
       <defs>
        <path d="M 2688 2025 
C 2688 2416 2682 3080 2413 3591 
C 2176 4039 1798 4198 1466 4198 
C 1158 4198 768 4058 525 3597 
C 269 3118 243 2524 243 2025 
C 243 1661 250 1106 448 619 
C 723 -39 1216 -128 1466 -128 
C 1760 -128 2208 -7 2470 600 
C 2662 1042 2688 1559 2688 2025 
z
M 1466 -26 
C 1056 -26 813 325 723 812 
C 653 1188 653 1738 653 2096 
C 653 2588 653 2997 736 3387 
C 858 3929 1216 4096 1466 4096 
C 1728 4096 2067 3923 2189 3400 
C 2272 3036 2278 2607 2278 2096 
C 2278 1680 2278 1169 2202 792 
C 2067 95 1690 -26 1466 -26 
z
" id="CMR17-30" transform="scale(0.015625)"/>
       </defs>
       <use transform="scale(0.996264)" xlink:href="#CMR17-30"/>
      </g>
     </g>
    </g>
    <g id="xtick_2">
     <g id="line2d_4">
      <path clip-path="url(#pf11bf7214f)" d="M 175.846154 384.48 
L 175.846154 51.84 
" style="fill:none;stroke:#808080;stroke-linecap:square;stroke-width:0.4;"/>
     </g>
     <g id="line2d_5">
      <g>
       <use style="stroke:#000000;stroke-width:0.8;" x="175.846154" xlink:href="#mf3bb1d0776" y="384.48"/>
      </g>
     </g>
     <g id="line2d_6">
      <g>
       <use style="stroke:#000000;stroke-width:0.8;" x="175.846154" xlink:href="#m9a9ceaac7f" y="51.84"/>
      </g>
     </g>
     <g id="text_2">
      <!-- $\mathdefault{2}$ -->
      <g transform="translate(172.188035 398.357725)scale(0.15 -0.15)">
       <defs>
        <path d="M 2669 989 
L 2554 989 
C 2490 536 2438 459 2413 420 
C 2381 369 1920 369 1830 369 
L 602 369 
C 832 619 1280 1072 1824 1597 
C 2214 1967 2669 2402 2669 3035 
C 2669 3790 2067 4224 1395 4224 
C 691 4224 262 3604 262 3030 
C 262 2780 448 2748 525 2748 
C 589 2748 781 2787 781 3010 
C 781 3207 614 3264 525 3264 
C 486 3264 448 3258 422 3245 
C 544 3790 915 4058 1306 4058 
C 1862 4058 2227 3617 2227 3035 
C 2227 2479 1901 2000 1536 1584 
L 262 146 
L 262 0 
L 2515 0 
L 2669 989 
z
" id="CMR17-32" transform="scale(0.015625)"/>
       </defs>
       <use transform="scale(0.996264)" xlink:href="#CMR17-32"/>
      </g>
     </g>
    </g>
    <g id="xtick_3">
     <g id="line2d_7">
      <path clip-path="url(#pf11bf7214f)" d="M 261.692308 384.48 
L 261.692308 51.84 
" style="fill:none;stroke:#808080;stroke-linecap:square;stroke-width:0.4;"/>
     </g>
     <g id="line2d_8">
      <g>
       <use style="stroke:#000000;stroke-width:0.8;" x="261.692308" xlink:href="#mf3bb1d0776" y="384.48"/>
      </g>
     </g>
     <g id="line2d_9">
      <g>
       <use style="stroke:#000000;stroke-width:0.8;" x="261.692308" xlink:href="#m9a9ceaac7f" y="51.84"/>
      </g>
     </g>
     <g id="text_3">
      <!-- $\mathdefault{4}$ -->
      <g transform="translate(258.034189 398.357725)scale(0.15 -0.15)">
       <defs>
        <path d="M 2150 4122 
C 2150 4256 2144 4256 2029 4256 
L 128 1254 
L 128 1088 
L 1779 1088 
L 1779 457 
C 1779 224 1766 160 1318 160 
L 1197 160 
L 1197 0 
C 1402 0 1747 0 1965 0 
C 2182 0 2528 0 2733 0 
L 2733 160 
L 2611 160 
C 2163 160 2150 224 2150 457 
L 2150 1088 
L 2803 1088 
L 2803 1254 
L 2150 1254 
L 2150 4122 
z
M 1798 3703 
L 1798 1254 
L 256 1254 
L 1798 3703 
z
" id="CMR17-34" transform="scale(0.015625)"/>
       </defs>
       <use transform="scale(0.996264)" xlink:href="#CMR17-34"/>
      </g>
     </g>
    </g>
    <g id="xtick_4">
     <g id="line2d_10">
      <path clip-path="url(#pf11bf7214f)" d="M 347.538462 384.48 
L 347.538462 51.84 
" style="fill:none;stroke:#808080;stroke-linecap:square;stroke-width:0.4;"/>
     </g>
     <g id="line2d_11">
      <g>
       <use style="stroke:#000000;stroke-width:0.8;" x="347.538462" xlink:href="#mf3bb1d0776" y="384.48"/>
      </g>
     </g>
     <g id="line2d_12">
      <g>
       <use style="stroke:#000000;stroke-width:0.8;" x="347.538462" xlink:href="#m9a9ceaac7f" y="51.84"/>
      </g>
     </g>
     <g id="text_4">
      <!-- $\mathdefault{6}$ -->
      <g transform="translate(343.880343 398.357725)scale(0.15 -0.15)">
       <defs>
        <path d="M 678 2176 
C 678 3690 1395 4032 1811 4032 
C 1946 4032 2272 4009 2400 3776 
C 2298 3776 2106 3776 2106 3553 
C 2106 3381 2246 3323 2336 3323 
C 2394 3323 2566 3348 2566 3560 
C 2566 3954 2246 4179 1805 4179 
C 1043 4179 243 3390 243 1984 
C 243 253 966 -128 1478 -128 
C 2099 -128 2688 427 2688 1283 
C 2688 2081 2170 2662 1517 2662 
C 1126 2662 838 2407 678 1960 
L 678 2176 
z
M 1478 25 
C 691 25 691 1200 691 1436 
C 691 1896 909 2560 1504 2560 
C 1613 2560 1926 2560 2138 2120 
C 2253 1870 2253 1609 2253 1289 
C 2253 944 2253 690 2118 434 
C 1978 171 1773 25 1478 25 
z
" id="CMR17-36" transform="scale(0.015625)"/>
       </defs>
       <use transform="scale(0.996264)" xlink:href="#CMR17-36"/>
      </g>
     </g>
    </g>
    <g id="xtick_5">
     <g id="line2d_13">
      <path clip-path="url(#pf11bf7214f)" d="M 433.384615 384.48 
L 433.384615 51.84 
" style="fill:none;stroke:#808080;stroke-linecap:square;stroke-width:0.4;"/>
     </g>
     <g id="line2d_14">
      <g>
       <use style="stroke:#000000;stroke-width:0.8;" x="433.384615" xlink:href="#mf3bb1d0776" y="384.48"/>
      </g>
     </g>
     <g id="line2d_15">
      <g>
       <use style="stroke:#000000;stroke-width:0.8;" x="433.384615" xlink:href="#m9a9ceaac7f" y="51.84"/>
      </g>
     </g>
     <g id="text_5">
      <!-- $\mathdefault{8}$ -->
      <g transform="translate(429.726496 398.357725)scale(0.15 -0.15)">
       <defs>
        <path d="M 1741 2264 
C 2144 2467 2554 2773 2554 3263 
C 2554 3841 1990 4179 1472 4179 
C 890 4179 378 3759 378 3180 
C 378 3021 416 2747 666 2505 
C 730 2442 998 2251 1171 2130 
C 883 1983 211 1634 211 934 
C 211 279 838 -128 1459 -128 
C 2144 -128 2720 362 2720 1010 
C 2720 1590 2330 1857 2074 2029 
L 1741 2264 
z
M 902 2822 
C 851 2854 595 3051 595 3351 
C 595 3739 998 4032 1459 4032 
C 1965 4032 2336 3676 2336 3262 
C 2336 2669 1670 2331 1638 2331 
C 1632 2331 1626 2331 1574 2370 
L 902 2822 
z
M 2080 1519 
C 2176 1449 2483 1240 2483 851 
C 2483 381 2010 25 1472 25 
C 890 25 448 438 448 940 
C 448 1443 838 1862 1280 2060 
L 2080 1519 
z
" id="CMR17-38" transform="scale(0.015625)"/>
       </defs>
       <use transform="scale(0.996264)" xlink:href="#CMR17-38"/>
      </g>
     </g>
    </g>
    <g id="xtick_6">
     <g id="line2d_16">
      <path clip-path="url(#pf11bf7214f)" d="M 519.230769 384.48 
L 519.230769 51.84 
" style="fill:none;stroke:#808080;stroke-linecap:square;stroke-width:0.4;"/>
     </g>
     <g id="line2d_17">
      <g>
       <use style="stroke:#000000;stroke-width:0.8;" x="519.230769" xlink:href="#mf3bb1d0776" y="384.48"/>
      </g>
     </g>
     <g id="line2d_18">
      <g>
       <use style="stroke:#000000;stroke-width:0.8;" x="519.230769" xlink:href="#m9a9ceaac7f" y="51.84"/>
      </g>
     </g>
     <g id="text_6">
      <!-- $\mathdefault{10}$ -->
      <g transform="translate(511.914531 398.357725)scale(0.15 -0.15)">
       <defs>
        <path d="M 1702 4058 
C 1702 4192 1696 4192 1606 4192 
C 1357 3916 979 3827 621 3827 
C 602 3827 570 3827 563 3808 
C 557 3795 557 3782 557 3648 
C 755 3648 1088 3686 1344 3839 
L 1344 461 
C 1344 236 1331 160 781 160 
L 589 160 
L 589 0 
C 896 0 1216 0 1523 0 
C 1830 0 2150 0 2458 0 
L 2458 160 
L 2266 160 
C 1715 160 1702 230 1702 458 
L 1702 4058 
z
" id="CMR17-31" transform="scale(0.015625)"/>
       </defs>
       <use transform="scale(0.996264)" xlink:href="#CMR17-31"/>
       <use transform="translate(45.690477 0)scale(0.996264)" xlink:href="#CMR17-30"/>
      </g>
     </g>
    </g>
    <g id="xtick_7">
     <g id="line2d_19">
      <path clip-path="url(#pf11bf7214f)" d="M 605.076923 384.48 
L 605.076923 51.84 
" style="fill:none;stroke:#808080;stroke-linecap:square;stroke-width:0.4;"/>
     </g>
     <g id="line2d_20">
      <g>
       <use style="stroke:#000000;stroke-width:0.8;" x="605.076923" xlink:href="#mf3bb1d0776" y="384.48"/>
      </g>
     </g>
     <g id="line2d_21">
      <g>
       <use style="stroke:#000000;stroke-width:0.8;" x="605.076923" xlink:href="#m9a9ceaac7f" y="51.84"/>
      </g>
     </g>
     <g id="text_7">
      <!-- $\mathdefault{12}$ -->
      <g transform="translate(597.760685 398.357725)scale(0.15 -0.15)">
       <use transform="scale(0.996264)" xlink:href="#CMR17-31"/>
       <use transform="translate(45.690477 0)scale(0.996264)" xlink:href="#CMR17-32"/>
      </g>
     </g>
    </g>
    <g id="xtick_8">
     <g id="line2d_22">
      <path clip-path="url(#pf11bf7214f)" d="M 111.461538 384.48 
L 111.461538 51.84 
" style="fill:none;stroke:#808080;stroke-dasharray:0.74,0.32;stroke-dashoffset:0;stroke-width:0.2;"/>
     </g>
     <g id="line2d_23">
      <defs>
       <path d="M 0 0 
L 0 -2 
" id="m25436a884b" style="stroke:#000000;stroke-width:0.6;"/>
      </defs>
      <g>
       <use style="stroke:#000000;stroke-width:0.6;" x="111.461538" xlink:href="#m25436a884b" y="384.48"/>
      </g>
     </g>
     <g id="line2d_24">
      <defs>
       <path d="M 0 0 
L 0 2 
" id="mafda6af5c0" style="stroke:#000000;stroke-width:0.6;"/>
      </defs>
      <g>
       <use style="stroke:#000000;stroke-width:0.6;" x="111.461538" xlink:href="#mafda6af5c0" y="51.84"/>
      </g>
     </g>
    </g>
    <g id="xtick_9">
     <g id="line2d_25">
      <path clip-path="url(#pf11bf7214f)" d="M 132.923077 384.48 
L 132.923077 51.84 
" style="fill:none;stroke:#808080;stroke-dasharray:0.74,0.32;stroke-dashoffset:0;stroke-width:0.2;"/>
     </g>
     <g id="line2d_26">
      <g>
       <use style="stroke:#000000;stroke-width:0.6;" x="132.923077" xlink:href="#m25436a884b" y="384.48"/>
      </g>
     </g>
     <g id="line2d_27">
      <g>
       <use style="stroke:#000000;stroke-width:0.6;" x="132.923077" xlink:href="#mafda6af5c0" y="51.84"/>
      </g>
     </g>
    </g>
    <g id="xtick_10">
     <g id="line2d_28">
      <path clip-path="url(#pf11bf7214f)" d="M 154.384615 384.48 
L 154.384615 51.84 
" style="fill:none;stroke:#808080;stroke-dasharray:0.74,0.32;stroke-dashoffset:0;stroke-width:0.2;"/>
     </g>
     <g id="line2d_29">
      <g>
       <use style="stroke:#000000;stroke-width:0.6;" x="154.384615" xlink:href="#m25436a884b" y="384.48"/>
      </g>
     </g>
     <g id="line2d_30">
      <g>
       <use style="stroke:#000000;stroke-width:0.6;" x="154.384615" xlink:href="#mafda6af5c0" y="51.84"/>
      </g>
     </g>
    </g>
    <g id="xtick_11">
     <g id="line2d_31">
      <path clip-path="url(#pf11bf7214f)" d="M 197.307692 384.48 
L 197.307692 51.84 
" style="fill:none;stroke:#808080;stroke-dasharray:0.74,0.32;stroke-dashoffset:0;stroke-width:0.2;"/>
     </g>
     <g id="line2d_32">
      <g>
       <use style="stroke:#000000;stroke-width:0.6;" x="197.307692" xlink:href="#m25436a884b" y="384.48"/>
      </g>
     </g>
     <g id="line2d_33">
      <g>
       <use style="stroke:#000000;stroke-width:0.6;" x="197.307692" xlink:href="#mafda6af5c0" y="51.84"/>
      </g>
     </g>
    </g>
    <g id="xtick_12">
     <g id="line2d_34">
      <path clip-path="url(#pf11bf7214f)" d="M 218.769231 384.48 
L 218.769231 51.84 
" style="fill:none;stroke:#808080;stroke-dasharray:0.74,0.32;stroke-dashoffset:0;stroke-width:0.2;"/>
     </g>
     <g id="line2d_35">
      <g>
       <use style="stroke:#000000;stroke-width:0.6;" x="218.769231" xlink:href="#m25436a884b" y="384.48"/>
      </g>
     </g>
     <g id="line2d_36">
      <g>
       <use style="stroke:#000000;stroke-width:0.6;" x="218.769231" xlink:href="#mafda6af5c0" y="51.84"/>
      </g>
     </g>
    </g>
    <g id="xtick_13">
     <g id="line2d_37">
      <path clip-path="url(#pf11bf7214f)" d="M 240.230769 384.48 
L 240.230769 51.84 
" style="fill:none;stroke:#808080;stroke-dasharray:0.74,0.32;stroke-dashoffset:0;stroke-width:0.2;"/>
     </g>
     <g id="line2d_38">
      <g>
       <use style="stroke:#000000;stroke-width:0.6;" x="240.230769" xlink:href="#m25436a884b" y="384.48"/>
      </g>
     </g>
     <g id="line2d_39">
      <g>
       <use style="stroke:#000000;stroke-width:0.6;" x="240.230769" xlink:href="#mafda6af5c0" y="51.84"/>
      </g>
     </g>
    </g>
    <g id="xtick_14">
     <g id="line2d_40">
      <path clip-path="url(#pf11bf7214f)" d="M 283.153846 384.48 
L 283.153846 51.84 
" style="fill:none;stroke:#808080;stroke-dasharray:0.74,0.32;stroke-dashoffset:0;stroke-width:0.2;"/>
     </g>
     <g id="line2d_41">
      <g>
       <use style="stroke:#000000;stroke-width:0.6;" x="283.153846" xlink:href="#m25436a884b" y="384.48"/>
      </g>
     </g>
     <g id="line2d_42">
      <g>
       <use style="stroke:#000000;stroke-width:0.6;" x="283.153846" xlink:href="#mafda6af5c0" y="51.84"/>
      </g>
     </g>
    </g>
    <g id="xtick_15">
     <g id="line2d_43">
      <path clip-path="url(#pf11bf7214f)" d="M 304.615385 384.48 
L 304.615385 51.84 
" style="fill:none;stroke:#808080;stroke-dasharray:0.74,0.32;stroke-dashoffset:0;stroke-width:0.2;"/>
     </g>
     <g id="line2d_44">
      <g>
       <use style="stroke:#000000;stroke-width:0.6;" x="304.615385" xlink:href="#m25436a884b" y="384.48"/>
      </g>
     </g>
     <g id="line2d_45">
      <g>
       <use style="stroke:#000000;stroke-width:0.6;" x="304.615385" xlink:href="#mafda6af5c0" y="51.84"/>
      </g>
     </g>
    </g>
    <g id="xtick_16">
     <g id="line2d_46">
      <path clip-path="url(#pf11bf7214f)" d="M 326.076923 384.48 
L 326.076923 51.84 
" style="fill:none;stroke:#808080;stroke-dasharray:0.74,0.32;stroke-dashoffset:0;stroke-width:0.2;"/>
     </g>
     <g id="line2d_47">
      <g>
       <use style="stroke:#000000;stroke-width:0.6;" x="326.076923" xlink:href="#m25436a884b" y="384.48"/>
      </g>
     </g>
     <g id="line2d_48">
      <g>
       <use style="stroke:#000000;stroke-width:0.6;" x="326.076923" xlink:href="#mafda6af5c0" y="51.84"/>
      </g>
     </g>
    </g>
    <g id="xtick_17">
     <g id="line2d_49">
      <path clip-path="url(#pf11bf7214f)" d="M 369 384.48 
L 369 51.84 
" style="fill:none;stroke:#808080;stroke-dasharray:0.74,0.32;stroke-dashoffset:0;stroke-width:0.2;"/>
     </g>
     <g id="line2d_50">
      <g>
       <use style="stroke:#000000;stroke-width:0.6;" x="369" xlink:href="#m25436a884b" y="384.48"/>
      </g>
     </g>
     <g id="line2d_51">
      <g>
       <use style="stroke:#000000;stroke-width:0.6;" x="369" xlink:href="#mafda6af5c0" y="51.84"/>
      </g>
     </g>
    </g>
    <g id="xtick_18">
     <g id="line2d_52">
      <path clip-path="url(#pf11bf7214f)" d="M 390.461538 384.48 
L 390.461538 51.84 
" style="fill:none;stroke:#808080;stroke-dasharray:0.74,0.32;stroke-dashoffset:0;stroke-width:0.2;"/>
     </g>
     <g id="line2d_53">
      <g>
       <use style="stroke:#000000;stroke-width:0.6;" x="390.461538" xlink:href="#m25436a884b" y="384.48"/>
      </g>
     </g>
     <g id="line2d_54">
      <g>
       <use style="stroke:#000000;stroke-width:0.6;" x="390.461538" xlink:href="#mafda6af5c0" y="51.84"/>
      </g>
     </g>
    </g>
    <g id="xtick_19">
     <g id="line2d_55">
      <path clip-path="url(#pf11bf7214f)" d="M 411.923077 384.48 
L 411.923077 51.84 
" style="fill:none;stroke:#808080;stroke-dasharray:0.74,0.32;stroke-dashoffset:0;stroke-width:0.2;"/>
     </g>
     <g id="line2d_56">
      <g>
       <use style="stroke:#000000;stroke-width:0.6;" x="411.923077" xlink:href="#m25436a884b" y="384.48"/>
      </g>
     </g>
     <g id="line2d_57">
      <g>
       <use style="stroke:#000000;stroke-width:0.6;" x="411.923077" xlink:href="#mafda6af5c0" y="51.84"/>
      </g>
     </g>
    </g>
    <g id="xtick_20">
     <g id="line2d_58">
      <path clip-path="url(#pf11bf7214f)" d="M 454.846154 384.48 
L 454.846154 51.84 
" style="fill:none;stroke:#808080;stroke-dasharray:0.74,0.32;stroke-dashoffset:0;stroke-width:0.2;"/>
     </g>
     <g id="line2d_59">
      <g>
       <use style="stroke:#000000;stroke-width:0.6;" x="454.846154" xlink:href="#m25436a884b" y="384.48"/>
      </g>
     </g>
     <g id="line2d_60">
      <g>
       <use style="stroke:#000000;stroke-width:0.6;" x="454.846154" xlink:href="#mafda6af5c0" y="51.84"/>
      </g>
     </g>
    </g>
    <g id="xtick_21">
     <g id="line2d_61">
      <path clip-path="url(#pf11bf7214f)" d="M 476.307692 384.48 
L 476.307692 51.84 
" style="fill:none;stroke:#808080;stroke-dasharray:0.74,0.32;stroke-dashoffset:0;stroke-width:0.2;"/>
     </g>
     <g id="line2d_62">
      <g>
       <use style="stroke:#000000;stroke-width:0.6;" x="476.307692" xlink:href="#m25436a884b" y="384.48"/>
      </g>
     </g>
     <g id="line2d_63">
      <g>
       <use style="stroke:#000000;stroke-width:0.6;" x="476.307692" xlink:href="#mafda6af5c0" y="51.84"/>
      </g>
     </g>
    </g>
    <g id="xtick_22">
     <g id="line2d_64">
      <path clip-path="url(#pf11bf7214f)" d="M 497.769231 384.48 
L 497.769231 51.84 
" style="fill:none;stroke:#808080;stroke-dasharray:0.74,0.32;stroke-dashoffset:0;stroke-width:0.2;"/>
     </g>
     <g id="line2d_65">
      <g>
       <use style="stroke:#000000;stroke-width:0.6;" x="497.769231" xlink:href="#m25436a884b" y="384.48"/>
      </g>
     </g>
     <g id="line2d_66">
      <g>
       <use style="stroke:#000000;stroke-width:0.6;" x="497.769231" xlink:href="#mafda6af5c0" y="51.84"/>
      </g>
     </g>
    </g>
    <g id="xtick_23">
     <g id="line2d_67">
      <path clip-path="url(#pf11bf7214f)" d="M 540.692308 384.48 
L 540.692308 51.84 
" style="fill:none;stroke:#808080;stroke-dasharray:0.74,0.32;stroke-dashoffset:0;stroke-width:0.2;"/>
     </g>
     <g id="line2d_68">
      <g>
       <use style="stroke:#000000;stroke-width:0.6;" x="540.692308" xlink:href="#m25436a884b" y="384.48"/>
      </g>
     </g>
     <g id="line2d_69">
      <g>
       <use style="stroke:#000000;stroke-width:0.6;" x="540.692308" xlink:href="#mafda6af5c0" y="51.84"/>
      </g>
     </g>
    </g>
    <g id="xtick_24">
     <g id="line2d_70">
      <path clip-path="url(#pf11bf7214f)" d="M 562.153846 384.48 
L 562.153846 51.84 
" style="fill:none;stroke:#808080;stroke-dasharray:0.74,0.32;stroke-dashoffset:0;stroke-width:0.2;"/>
     </g>
     <g id="line2d_71">
      <g>
       <use style="stroke:#000000;stroke-width:0.6;" x="562.153846" xlink:href="#m25436a884b" y="384.48"/>
      </g>
     </g>
     <g id="line2d_72">
      <g>
       <use style="stroke:#000000;stroke-width:0.6;" x="562.153846" xlink:href="#mafda6af5c0" y="51.84"/>
      </g>
     </g>
    </g>
    <g id="xtick_25">
     <g id="line2d_73">
      <path clip-path="url(#pf11bf7214f)" d="M 583.615385 384.48 
L 583.615385 51.84 
" style="fill:none;stroke:#808080;stroke-dasharray:0.74,0.32;stroke-dashoffset:0;stroke-width:0.2;"/>
     </g>
     <g id="line2d_74">
      <g>
       <use style="stroke:#000000;stroke-width:0.6;" x="583.615385" xlink:href="#m25436a884b" y="384.48"/>
      </g>
     </g>
     <g id="line2d_75">
      <g>
       <use style="stroke:#000000;stroke-width:0.6;" x="583.615385" xlink:href="#mafda6af5c0" y="51.84"/>
      </g>
     </g>
    </g>
    <g id="xtick_26">
     <g id="line2d_76">
      <path clip-path="url(#pf11bf7214f)" d="M 626.538462 384.48 
L 626.538462 51.84 
" style="fill:none;stroke:#808080;stroke-dasharray:0.74,0.32;stroke-dashoffset:0;stroke-width:0.2;"/>
     </g>
     <g id="line2d_77">
      <g>
       <use style="stroke:#000000;stroke-width:0.6;" x="626.538462" xlink:href="#m25436a884b" y="384.48"/>
      </g>
     </g>
     <g id="line2d_78">
      <g>
       <use style="stroke:#000000;stroke-width:0.6;" x="626.538462" xlink:href="#mafda6af5c0" y="51.84"/>
      </g>
     </g>
    </g>
    <g id="xtick_27">
     <g id="line2d_79">
      <path clip-path="url(#pf11bf7214f)" d="M 648 384.48 
L 648 51.84 
" style="fill:none;stroke:#808080;stroke-dasharray:0.74,0.32;stroke-dashoffset:0;stroke-width:0.2;"/>
     </g>
     <g id="line2d_80">
      <g>
       <use style="stroke:#000000;stroke-width:0.6;" x="648" xlink:href="#m25436a884b" y="384.48"/>
      </g>
     </g>
     <g id="line2d_81">
      <g>
       <use style="stroke:#000000;stroke-width:0.6;" x="648" xlink:href="#mafda6af5c0" y="51.84"/>
      </g>
     </g>
    </g>
    <g id="text_8">
     <!-- Hours -->
     <g transform="translate(350.061665 415.641194)scale(0.15 -0.15)">
      <defs>
       <path d="M 3590 3905 
C 3590 4192 3661 4192 4102 4192 
L 4102 4352 
C 3917 4352 3578 4352 3379 4352 
C 3181 4352 2842 4352 2656 4352 
L 2656 4192 
C 3098 4192 3168 4192 3168 3904 
L 3168 2341 
L 1261 2341 
L 1261 3904 
C 1261 4192 1331 4192 1773 4192 
L 1773 4352 
C 1587 4352 1248 4352 1050 4352 
C 851 4352 512 4352 326 4352 
L 326 4192 
C 768 4192 838 4192 838 3905 
L 838 447 
C 838 160 768 160 326 160 
L 326 0 
C 512 0 851 0 1050 0 
C 1248 0 1587 0 1773 0 
L 1773 160 
C 1331 160 1261 160 1261 446 
L 1261 2176 
L 3168 2176 
L 3168 446 
C 3168 160 3098 160 2656 160 
L 2656 0 
C 2842 0 3181 0 3379 0 
C 3578 0 3917 0 4102 0 
L 4102 160 
C 3661 160 3590 160 3590 447 
L 3590 3905 
z
" id="CMR17-48" transform="scale(0.015625)"/>
       <path d="M 2758 1356 
C 2758 2176 2163 2816 1466 2816 
C 768 2816 173 2176 173 1356 
C 173 551 768 -64 1466 -64 
C 2163 -64 2758 551 2758 1356 
z
M 1466 51 
C 1165 51 909 230 762 480 
C 602 767 582 1126 582 1408 
C 582 1677 595 2010 762 2298 
C 890 2509 1139 2714 1466 2714 
C 1754 2714 1997 2554 2150 2330 
C 2349 2029 2349 1607 2349 1408 
C 2349 1158 2336 775 2163 467 
C 1984 173 1709 51 1466 51 
z
" id="CMR17-6f" transform="scale(0.015625)"/>
       <path d="M 1882 2693 
L 1882 2528 
C 2259 2528 2317 2489 2317 2186 
L 2317 1032 
C 2317 500 2029 38 1555 38 
C 1030 38 986 348 986 678 
L 986 2763 
L 211 2693 
L 211 2528 
C 467 2528 640 2528 646 2274 
L 646 1058 
C 646 633 646 361 813 183 
C 896 101 1056 -64 1517 -64 
C 2061 -64 2272 377 2323 506 
L 2330 506 
L 2330 -63 
L 3091 -63 
L 3091 128 
C 2714 128 2656 166 2656 473 
L 2656 2763 
L 1882 2693 
z
" id="CMR17-75" transform="scale(0.015625)"/>
       <path d="M 960 1497 
C 960 2112 1222 2688 1702 2688 
C 1747 2688 1792 2682 1837 2662 
C 1837 2662 1696 2617 1696 2452 
C 1696 2298 1818 2234 1914 2234 
C 1990 2234 2131 2279 2131 2458 
C 2131 2663 1926 2790 1709 2790 
C 1222 2790 1011 2317 947 2093 
L 941 2093 
L 941 2790 
L 198 2720 
L 198 2554 
C 576 2554 634 2515 634 2208 
L 634 428 
C 634 184 608 153 198 153 
L 198 -13 
C 352 0 646 0 813 0 
C 998 0 1325 0 1498 -13 
L 1498 153 
C 1037 153 960 153 960 440 
L 960 1497 
z
" id="CMR17-72" transform="scale(0.015625)"/>
       <path d="M 1978 2697 
C 1978 2813 1971 2819 1933 2819 
C 1907 2819 1901 2813 1824 2717 
C 1805 2691 1747 2626 1728 2601 
C 1523 2819 1235 2819 1126 2819 
C 416 2819 160 2447 160 2076 
C 160 1498 813 1365 998 1325 
C 1402 1243 1542 1217 1677 1101 
C 1760 1025 1901 884 1901 654 
C 1901 384 1747 38 1158 38 
C 602 38 403 460 288 1021 
C 269 1110 269 1117 218 1117 
C 166 1117 160 1110 160 983 
L 160 63 
C 160 -51 166 -58 205 -58 
C 237 -58 243 -51 275 0 
C 314 57 410 211 448 276 
C 576 103 800 -64 1158 -64 
C 1792 -64 2131 283 2131 784 
C 2131 1112 1958 1285 1875 1362 
C 1683 1561 1459 1606 1190 1657 
C 838 1735 390 1825 390 2217 
C 390 2383 480 2737 1126 2737 
C 1811 2737 1850 2094 1862 1888 
C 1869 1856 1901 1849 1920 1849 
C 1978 1849 1978 1869 1978 1978 
L 1978 2697 
z
" id="CMR17-73" transform="scale(0.015625)"/>
      </defs>
      <use transform="scale(0.996264)" xlink:href="#CMR17-48"/>
      <use transform="translate(69.07243 0)scale(0.996264)" xlink:href="#CMR17-6f"/>
      <use transform="translate(114.762907 0)scale(0.996264)" xlink:href="#CMR17-75"/>
      <use transform="translate(165.658277 0)scale(0.996264)" xlink:href="#CMR17-72"/>
      <use transform="translate(200.939045 0)scale(0.996264)" xlink:href="#CMR17-73"/>
     </g>
    </g>
   </g>
   <g id="matplotlib.axis_2">
    <g id="ytick_1">
     <g id="line2d_82">
      <path clip-path="url(#pf11bf7214f)" d="M 90 350.46 
L 648 350.46 
" style="fill:none;stroke:#808080;stroke-linecap:square;stroke-width:0.4;"/>
     </g>
     <g id="line2d_83">
      <defs>
       <path d="M 0 0 
L 3.5 0 
" id="m9938211538" style="stroke:#000000;stroke-width:0.8;"/>
      </defs>
      <g>
       <use style="stroke:#000000;stroke-width:0.8;" x="90" xlink:href="#m9938211538" y="350.46"/>
      </g>
     </g>
     <g id="line2d_84">
      <defs>
       <path d="M 0 0 
L -3.5 0 
" id="m38d9cfd0b8" style="stroke:#000000;stroke-width:0.8;"/>
      </defs>
      <g>
       <use style="stroke:#000000;stroke-width:0.8;" x="648" xlink:href="#m38d9cfd0b8" y="350.46"/>
      </g>
     </g>
     <g id="text_9">
      <!-- $\mathdefault{2}$ -->
      <g transform="translate(79.183762 355.648862)scale(0.15 -0.15)">
       <use transform="scale(0.996264)" xlink:href="#CMR17-32"/>
      </g>
     </g>
    </g>
    <g id="ytick_2">
     <g id="line2d_85">
      <path clip-path="url(#pf11bf7214f)" d="M 90 312.66 
L 648 312.66 
" style="fill:none;stroke:#808080;stroke-linecap:square;stroke-width:0.4;"/>
     </g>
     <g id="line2d_86">
      <g>
       <use style="stroke:#000000;stroke-width:0.8;" x="90" xlink:href="#m9938211538" y="312.66"/>
      </g>
     </g>
     <g id="line2d_87">
      <g>
       <use style="stroke:#000000;stroke-width:0.8;" x="648" xlink:href="#m38d9cfd0b8" y="312.66"/>
      </g>
     </g>
     <g id="text_10">
      <!-- $\mathdefault{4}$ -->
      <g transform="translate(79.183762 317.848862)scale(0.15 -0.15)">
       <use transform="scale(0.996264)" xlink:href="#CMR17-34"/>
      </g>
     </g>
    </g>
    <g id="ytick_3">
     <g id="line2d_88">
      <path clip-path="url(#pf11bf7214f)" d="M 90 274.86 
L 648 274.86 
" style="fill:none;stroke:#808080;stroke-linecap:square;stroke-width:0.4;"/>
     </g>
     <g id="line2d_89">
      <g>
       <use style="stroke:#000000;stroke-width:0.8;" x="90" xlink:href="#m9938211538" y="274.86"/>
      </g>
     </g>
     <g id="line2d_90">
      <g>
       <use style="stroke:#000000;stroke-width:0.8;" x="648" xlink:href="#m38d9cfd0b8" y="274.86"/>
      </g>
     </g>
     <g id="text_11">
      <!-- $\mathdefault{6}$ -->
      <g transform="translate(79.183762 280.048862)scale(0.15 -0.15)">
       <use transform="scale(0.996264)" xlink:href="#CMR17-36"/>
      </g>
     </g>
    </g>
    <g id="ytick_4">
     <g id="line2d_91">
      <path clip-path="url(#pf11bf7214f)" d="M 90 237.06 
L 648 237.06 
" style="fill:none;stroke:#808080;stroke-linecap:square;stroke-width:0.4;"/>
     </g>
     <g id="line2d_92">
      <g>
       <use style="stroke:#000000;stroke-width:0.8;" x="90" xlink:href="#m9938211538" y="237.06"/>
      </g>
     </g>
     <g id="line2d_93">
      <g>
       <use style="stroke:#000000;stroke-width:0.8;" x="648" xlink:href="#m38d9cfd0b8" y="237.06"/>
      </g>
     </g>
     <g id="text_12">
      <!-- $\mathdefault{8}$ -->
      <g transform="translate(79.183762 242.248862)scale(0.15 -0.15)">
       <use transform="scale(0.996264)" xlink:href="#CMR17-38"/>
      </g>
     </g>
    </g>
    <g id="ytick_5">
     <g id="line2d_94">
      <path clip-path="url(#pf11bf7214f)" d="M 90 199.26 
L 648 199.26 
" style="fill:none;stroke:#808080;stroke-linecap:square;stroke-width:0.4;"/>
     </g>
     <g id="line2d_95">
      <g>
       <use style="stroke:#000000;stroke-width:0.8;" x="90" xlink:href="#m9938211538" y="199.26"/>
      </g>
     </g>
     <g id="line2d_96">
      <g>
       <use style="stroke:#000000;stroke-width:0.8;" x="648" xlink:href="#m38d9cfd0b8" y="199.26"/>
      </g>
     </g>
     <g id="text_13">
      <!-- $\mathdefault{10}$ -->
      <g transform="translate(71.867524 204.448862)scale(0.15 -0.15)">
       <use transform="scale(0.996264)" xlink:href="#CMR17-31"/>
       <use transform="translate(45.690477 0)scale(0.996264)" xlink:href="#CMR17-30"/>
      </g>
     </g>
    </g>
    <g id="ytick_6">
     <g id="line2d_97">
      <path clip-path="url(#pf11bf7214f)" d="M 90 161.46 
L 648 161.46 
" style="fill:none;stroke:#808080;stroke-linecap:square;stroke-width:0.4;"/>
     </g>
     <g id="line2d_98">
      <g>
       <use style="stroke:#000000;stroke-width:0.8;" x="90" xlink:href="#m9938211538" y="161.46"/>
      </g>
     </g>
     <g id="line2d_99">
      <g>
       <use style="stroke:#000000;stroke-width:0.8;" x="648" xlink:href="#m38d9cfd0b8" y="161.46"/>
      </g>
     </g>
     <g id="text_14">
      <!-- $\mathdefault{12}$ -->
      <g transform="translate(71.867524 166.648862)scale(0.15 -0.15)">
       <use transform="scale(0.996264)" xlink:href="#CMR17-31"/>
       <use transform="translate(45.690477 0)scale(0.996264)" xlink:href="#CMR17-32"/>
      </g>
     </g>
    </g>
    <g id="ytick_7">
     <g id="line2d_100">
      <path clip-path="url(#pf11bf7214f)" d="M 90 123.66 
L 648 123.66 
" style="fill:none;stroke:#808080;stroke-linecap:square;stroke-width:0.4;"/>
     </g>
     <g id="line2d_101">
      <g>
       <use style="stroke:#000000;stroke-width:0.8;" x="90" xlink:href="#m9938211538" y="123.66"/>
      </g>
     </g>
     <g id="line2d_102">
      <g>
       <use style="stroke:#000000;stroke-width:0.8;" x="648" xlink:href="#m38d9cfd0b8" y="123.66"/>
      </g>
     </g>
     <g id="text_15">
      <!-- $\mathdefault{14}$ -->
      <g transform="translate(71.867524 128.848862)scale(0.15 -0.15)">
       <use transform="scale(0.996264)" xlink:href="#CMR17-31"/>
       <use transform="translate(45.690477 0)scale(0.996264)" xlink:href="#CMR17-34"/>
      </g>
     </g>
    </g>
    <g id="ytick_8">
     <g id="line2d_103">
      <path clip-path="url(#pf11bf7214f)" d="M 90 85.86 
L 648 85.86 
" style="fill:none;stroke:#808080;stroke-linecap:square;stroke-width:0.4;"/>
     </g>
     <g id="line2d_104">
      <g>
       <use style="stroke:#000000;stroke-width:0.8;" x="90" xlink:href="#m9938211538" y="85.86"/>
      </g>
     </g>
     <g id="line2d_105">
      <g>
       <use style="stroke:#000000;stroke-width:0.8;" x="648" xlink:href="#m38d9cfd0b8" y="85.86"/>
      </g>
     </g>
     <g id="text_16">
      <!-- $\mathdefault{16}$ -->
      <g transform="translate(71.867524 91.048862)scale(0.15 -0.15)">
       <use transform="scale(0.996264)" xlink:href="#CMR17-31"/>
       <use transform="translate(45.690477 0)scale(0.996264)" xlink:href="#CMR17-36"/>
      </g>
     </g>
    </g>
    <g id="ytick_9">
     <g id="line2d_106">
      <path clip-path="url(#pf11bf7214f)" d="M 90 378.81 
L 648 378.81 
" style="fill:none;stroke:#808080;stroke-dasharray:0.74,0.32;stroke-dashoffset:0;stroke-width:0.2;"/>
     </g>
     <g id="line2d_107">
      <defs>
       <path d="M 0 0 
L 2 0 
" id="m333f1836fe" style="stroke:#000000;stroke-width:0.6;"/>
      </defs>
      <g>
       <use style="stroke:#000000;stroke-width:0.6;" x="90" xlink:href="#m333f1836fe" y="378.81"/>
      </g>
     </g>
     <g id="line2d_108">
      <defs>
       <path d="M 0 0 
L -2 0 
" id="m2e5f4011a8" style="stroke:#000000;stroke-width:0.6;"/>
      </defs>
      <g>
       <use style="stroke:#000000;stroke-width:0.6;" x="648" xlink:href="#m2e5f4011a8" y="378.81"/>
      </g>
     </g>
    </g>
    <g id="ytick_10">
     <g id="line2d_109">
      <path clip-path="url(#pf11bf7214f)" d="M 90 369.36 
L 648 369.36 
" style="fill:none;stroke:#808080;stroke-dasharray:0.74,0.32;stroke-dashoffset:0;stroke-width:0.2;"/>
     </g>
     <g id="line2d_110">
      <g>
       <use style="stroke:#000000;stroke-width:0.6;" x="90" xlink:href="#m333f1836fe" y="369.36"/>
      </g>
     </g>
     <g id="line2d_111">
      <g>
       <use style="stroke:#000000;stroke-width:0.6;" x="648" xlink:href="#m2e5f4011a8" y="369.36"/>
      </g>
     </g>
    </g>
    <g id="ytick_11">
     <g id="line2d_112">
      <path clip-path="url(#pf11bf7214f)" d="M 90 359.91 
L 648 359.91 
" style="fill:none;stroke:#808080;stroke-dasharray:0.74,0.32;stroke-dashoffset:0;stroke-width:0.2;"/>
     </g>
     <g id="line2d_113">
      <g>
       <use style="stroke:#000000;stroke-width:0.6;" x="90" xlink:href="#m333f1836fe" y="359.91"/>
      </g>
     </g>
     <g id="line2d_114">
      <g>
       <use style="stroke:#000000;stroke-width:0.6;" x="648" xlink:href="#m2e5f4011a8" y="359.91"/>
      </g>
     </g>
    </g>
    <g id="ytick_12">
     <g id="line2d_115">
      <path clip-path="url(#pf11bf7214f)" d="M 90 341.01 
L 648 341.01 
" style="fill:none;stroke:#808080;stroke-dasharray:0.74,0.32;stroke-dashoffset:0;stroke-width:0.2;"/>
     </g>
     <g id="line2d_116">
      <g>
       <use style="stroke:#000000;stroke-width:0.6;" x="90" xlink:href="#m333f1836fe" y="341.01"/>
      </g>
     </g>
     <g id="line2d_117">
      <g>
       <use style="stroke:#000000;stroke-width:0.6;" x="648" xlink:href="#m2e5f4011a8" y="341.01"/>
      </g>
     </g>
    </g>
    <g id="ytick_13">
     <g id="line2d_118">
      <path clip-path="url(#pf11bf7214f)" d="M 90 331.56 
L 648 331.56 
" style="fill:none;stroke:#808080;stroke-dasharray:0.74,0.32;stroke-dashoffset:0;stroke-width:0.2;"/>
     </g>
     <g id="line2d_119">
      <g>
       <use style="stroke:#000000;stroke-width:0.6;" x="90" xlink:href="#m333f1836fe" y="331.56"/>
      </g>
     </g>
     <g id="line2d_120">
      <g>
       <use style="stroke:#000000;stroke-width:0.6;" x="648" xlink:href="#m2e5f4011a8" y="331.56"/>
      </g>
     </g>
    </g>
    <g id="ytick_14">
     <g id="line2d_121">
      <path clip-path="url(#pf11bf7214f)" d="M 90 322.11 
L 648 322.11 
" style="fill:none;stroke:#808080;stroke-dasharray:0.74,0.32;stroke-dashoffset:0;stroke-width:0.2;"/>
     </g>
     <g id="line2d_122">
      <g>
       <use style="stroke:#000000;stroke-width:0.6;" x="90" xlink:href="#m333f1836fe" y="322.11"/>
      </g>
     </g>
     <g id="line2d_123">
      <g>
       <use style="stroke:#000000;stroke-width:0.6;" x="648" xlink:href="#m2e5f4011a8" y="322.11"/>
      </g>
     </g>
    </g>
    <g id="ytick_15">
     <g id="line2d_124">
      <path clip-path="url(#pf11bf7214f)" d="M 90 303.21 
L 648 303.21 
" style="fill:none;stroke:#808080;stroke-dasharray:0.74,0.32;stroke-dashoffset:0;stroke-width:0.2;"/>
     </g>
     <g id="line2d_125">
      <g>
       <use style="stroke:#000000;stroke-width:0.6;" x="90" xlink:href="#m333f1836fe" y="303.21"/>
      </g>
     </g>
     <g id="line2d_126">
      <g>
       <use style="stroke:#000000;stroke-width:0.6;" x="648" xlink:href="#m2e5f4011a8" y="303.21"/>
      </g>
     </g>
    </g>
    <g id="ytick_16">
     <g id="line2d_127">
      <path clip-path="url(#pf11bf7214f)" d="M 90 293.76 
L 648 293.76 
" style="fill:none;stroke:#808080;stroke-dasharray:0.74,0.32;stroke-dashoffset:0;stroke-width:0.2;"/>
     </g>
     <g id="line2d_128">
      <g>
       <use style="stroke:#000000;stroke-width:0.6;" x="90" xlink:href="#m333f1836fe" y="293.76"/>
      </g>
     </g>
     <g id="line2d_129">
      <g>
       <use style="stroke:#000000;stroke-width:0.6;" x="648" xlink:href="#m2e5f4011a8" y="293.76"/>
      </g>
     </g>
    </g>
    <g id="ytick_17">
     <g id="line2d_130">
      <path clip-path="url(#pf11bf7214f)" d="M 90 284.31 
L 648 284.31 
" style="fill:none;stroke:#808080;stroke-dasharray:0.74,0.32;stroke-dashoffset:0;stroke-width:0.2;"/>
     </g>
     <g id="line2d_131">
      <g>
       <use style="stroke:#000000;stroke-width:0.6;" x="90" xlink:href="#m333f1836fe" y="284.31"/>
      </g>
     </g>
     <g id="line2d_132">
      <g>
       <use style="stroke:#000000;stroke-width:0.6;" x="648" xlink:href="#m2e5f4011a8" y="284.31"/>
      </g>
     </g>
    </g>
    <g id="ytick_18">
     <g id="line2d_133">
      <path clip-path="url(#pf11bf7214f)" d="M 90 265.41 
L 648 265.41 
" style="fill:none;stroke:#808080;stroke-dasharray:0.74,0.32;stroke-dashoffset:0;stroke-width:0.2;"/>
     </g>
     <g id="line2d_134">
      <g>
       <use style="stroke:#000000;stroke-width:0.6;" x="90" xlink:href="#m333f1836fe" y="265.41"/>
      </g>
     </g>
     <g id="line2d_135">
      <g>
       <use style="stroke:#000000;stroke-width:0.6;" x="648" xlink:href="#m2e5f4011a8" y="265.41"/>
      </g>
     </g>
    </g>
    <g id="ytick_19">
     <g id="line2d_136">
      <path clip-path="url(#pf11bf7214f)" d="M 90 255.96 
L 648 255.96 
" style="fill:none;stroke:#808080;stroke-dasharray:0.74,0.32;stroke-dashoffset:0;stroke-width:0.2;"/>
     </g>
     <g id="line2d_137">
      <g>
       <use style="stroke:#000000;stroke-width:0.6;" x="90" xlink:href="#m333f1836fe" y="255.96"/>
      </g>
     </g>
     <g id="line2d_138">
      <g>
       <use style="stroke:#000000;stroke-width:0.6;" x="648" xlink:href="#m2e5f4011a8" y="255.96"/>
      </g>
     </g>
    </g>
    <g id="ytick_20">
     <g id="line2d_139">
      <path clip-path="url(#pf11bf7214f)" d="M 90 246.51 
L 648 246.51 
" style="fill:none;stroke:#808080;stroke-dasharray:0.74,0.32;stroke-dashoffset:0;stroke-width:0.2;"/>
     </g>
     <g id="line2d_140">
      <g>
       <use style="stroke:#000000;stroke-width:0.6;" x="90" xlink:href="#m333f1836fe" y="246.51"/>
      </g>
     </g>
     <g id="line2d_141">
      <g>
       <use style="stroke:#000000;stroke-width:0.6;" x="648" xlink:href="#m2e5f4011a8" y="246.51"/>
      </g>
     </g>
    </g>
    <g id="ytick_21">
     <g id="line2d_142">
      <path clip-path="url(#pf11bf7214f)" d="M 90 227.61 
L 648 227.61 
" style="fill:none;stroke:#808080;stroke-dasharray:0.74,0.32;stroke-dashoffset:0;stroke-width:0.2;"/>
     </g>
     <g id="line2d_143">
      <g>
       <use style="stroke:#000000;stroke-width:0.6;" x="90" xlink:href="#m333f1836fe" y="227.61"/>
      </g>
     </g>
     <g id="line2d_144">
      <g>
       <use style="stroke:#000000;stroke-width:0.6;" x="648" xlink:href="#m2e5f4011a8" y="227.61"/>
      </g>
     </g>
    </g>
    <g id="ytick_22">
     <g id="line2d_145">
      <path clip-path="url(#pf11bf7214f)" d="M 90 218.16 
L 648 218.16 
" style="fill:none;stroke:#808080;stroke-dasharray:0.74,0.32;stroke-dashoffset:0;stroke-width:0.2;"/>
     </g>
     <g id="line2d_146">
      <g>
       <use style="stroke:#000000;stroke-width:0.6;" x="90" xlink:href="#m333f1836fe" y="218.16"/>
      </g>
     </g>
     <g id="line2d_147">
      <g>
       <use style="stroke:#000000;stroke-width:0.6;" x="648" xlink:href="#m2e5f4011a8" y="218.16"/>
      </g>
     </g>
    </g>
    <g id="ytick_23">
     <g id="line2d_148">
      <path clip-path="url(#pf11bf7214f)" d="M 90 208.71 
L 648 208.71 
" style="fill:none;stroke:#808080;stroke-dasharray:0.74,0.32;stroke-dashoffset:0;stroke-width:0.2;"/>
     </g>
     <g id="line2d_149">
      <g>
       <use style="stroke:#000000;stroke-width:0.6;" x="90" xlink:href="#m333f1836fe" y="208.71"/>
      </g>
     </g>
     <g id="line2d_150">
      <g>
       <use style="stroke:#000000;stroke-width:0.6;" x="648" xlink:href="#m2e5f4011a8" y="208.71"/>
      </g>
     </g>
    </g>
    <g id="ytick_24">
     <g id="line2d_151">
      <path clip-path="url(#pf11bf7214f)" d="M 90 189.81 
L 648 189.81 
" style="fill:none;stroke:#808080;stroke-dasharray:0.74,0.32;stroke-dashoffset:0;stroke-width:0.2;"/>
     </g>
     <g id="line2d_152">
      <g>
       <use style="stroke:#000000;stroke-width:0.6;" x="90" xlink:href="#m333f1836fe" y="189.81"/>
      </g>
     </g>
     <g id="line2d_153">
      <g>
       <use style="stroke:#000000;stroke-width:0.6;" x="648" xlink:href="#m2e5f4011a8" y="189.81"/>
      </g>
     </g>
    </g>
    <g id="ytick_25">
     <g id="line2d_154">
      <path clip-path="url(#pf11bf7214f)" d="M 90 180.36 
L 648 180.36 
" style="fill:none;stroke:#808080;stroke-dasharray:0.74,0.32;stroke-dashoffset:0;stroke-width:0.2;"/>
     </g>
     <g id="line2d_155">
      <g>
       <use style="stroke:#000000;stroke-width:0.6;" x="90" xlink:href="#m333f1836fe" y="180.36"/>
      </g>
     </g>
     <g id="line2d_156">
      <g>
       <use style="stroke:#000000;stroke-width:0.6;" x="648" xlink:href="#m2e5f4011a8" y="180.36"/>
      </g>
     </g>
    </g>
    <g id="ytick_26">
     <g id="line2d_157">
      <path clip-path="url(#pf11bf7214f)" d="M 90 170.91 
L 648 170.91 
" style="fill:none;stroke:#808080;stroke-dasharray:0.74,0.32;stroke-dashoffset:0;stroke-width:0.2;"/>
     </g>
     <g id="line2d_158">
      <g>
       <use style="stroke:#000000;stroke-width:0.6;" x="90" xlink:href="#m333f1836fe" y="170.91"/>
      </g>
     </g>
     <g id="line2d_159">
      <g>
       <use style="stroke:#000000;stroke-width:0.6;" x="648" xlink:href="#m2e5f4011a8" y="170.91"/>
      </g>
     </g>
    </g>
    <g id="ytick_27">
     <g id="line2d_160">
      <path clip-path="url(#pf11bf7214f)" d="M 90 152.01 
L 648 152.01 
" style="fill:none;stroke:#808080;stroke-dasharray:0.74,0.32;stroke-dashoffset:0;stroke-width:0.2;"/>
     </g>
     <g id="line2d_161">
      <g>
       <use style="stroke:#000000;stroke-width:0.6;" x="90" xlink:href="#m333f1836fe" y="152.01"/>
      </g>
     </g>
     <g id="line2d_162">
      <g>
       <use style="stroke:#000000;stroke-width:0.6;" x="648" xlink:href="#m2e5f4011a8" y="152.01"/>
      </g>
     </g>
    </g>
    <g id="ytick_28">
     <g id="line2d_163">
      <path clip-path="url(#pf11bf7214f)" d="M 90 142.56 
L 648 142.56 
" style="fill:none;stroke:#808080;stroke-dasharray:0.74,0.32;stroke-dashoffset:0;stroke-width:0.2;"/>
     </g>
     <g id="line2d_164">
      <g>
       <use style="stroke:#000000;stroke-width:0.6;" x="90" xlink:href="#m333f1836fe" y="142.56"/>
      </g>
     </g>
     <g id="line2d_165">
      <g>
       <use style="stroke:#000000;stroke-width:0.6;" x="648" xlink:href="#m2e5f4011a8" y="142.56"/>
      </g>
     </g>
    </g>
    <g id="ytick_29">
     <g id="line2d_166">
      <path clip-path="url(#pf11bf7214f)" d="M 90 133.11 
L 648 133.11 
" style="fill:none;stroke:#808080;stroke-dasharray:0.74,0.32;stroke-dashoffset:0;stroke-width:0.2;"/>
     </g>
     <g id="line2d_167">
      <g>
       <use style="stroke:#000000;stroke-width:0.6;" x="90" xlink:href="#m333f1836fe" y="133.11"/>
      </g>
     </g>
     <g id="line2d_168">
      <g>
       <use style="stroke:#000000;stroke-width:0.6;" x="648" xlink:href="#m2e5f4011a8" y="133.11"/>
      </g>
     </g>
    </g>
    <g id="ytick_30">
     <g id="line2d_169">
      <path clip-path="url(#pf11bf7214f)" d="M 90 114.21 
L 648 114.21 
" style="fill:none;stroke:#808080;stroke-dasharray:0.74,0.32;stroke-dashoffset:0;stroke-width:0.2;"/>
     </g>
     <g id="line2d_170">
      <g>
       <use style="stroke:#000000;stroke-width:0.6;" x="90" xlink:href="#m333f1836fe" y="114.21"/>
      </g>
     </g>
     <g id="line2d_171">
      <g>
       <use style="stroke:#000000;stroke-width:0.6;" x="648" xlink:href="#m2e5f4011a8" y="114.21"/>
      </g>
     </g>
    </g>
    <g id="ytick_31">
     <g id="line2d_172">
      <path clip-path="url(#pf11bf7214f)" d="M 90 104.76 
L 648 104.76 
" style="fill:none;stroke:#808080;stroke-dasharray:0.74,0.32;stroke-dashoffset:0;stroke-width:0.2;"/>
     </g>
     <g id="line2d_173">
      <g>
       <use style="stroke:#000000;stroke-width:0.6;" x="90" xlink:href="#m333f1836fe" y="104.76"/>
      </g>
     </g>
     <g id="line2d_174">
      <g>
       <use style="stroke:#000000;stroke-width:0.6;" x="648" xlink:href="#m2e5f4011a8" y="104.76"/>
      </g>
     </g>
    </g>
    <g id="ytick_32">
     <g id="line2d_175">
      <path clip-path="url(#pf11bf7214f)" d="M 90 95.31 
L 648 95.31 
" style="fill:none;stroke:#808080;stroke-dasharray:0.74,0.32;stroke-dashoffset:0;stroke-width:0.2;"/>
     </g>
     <g id="line2d_176">
      <g>
       <use style="stroke:#000000;stroke-width:0.6;" x="90" xlink:href="#m333f1836fe" y="95.31"/>
      </g>
     </g>
     <g id="line2d_177">
      <g>
       <use style="stroke:#000000;stroke-width:0.6;" x="648" xlink:href="#m2e5f4011a8" y="95.31"/>
      </g>
     </g>
    </g>
    <g id="ytick_33">
     <g id="line2d_178">
      <path clip-path="url(#pf11bf7214f)" d="M 90 76.41 
L 648 76.41 
" style="fill:none;stroke:#808080;stroke-dasharray:0.74,0.32;stroke-dashoffset:0;stroke-width:0.2;"/>
     </g>
     <g id="line2d_179">
      <g>
       <use style="stroke:#000000;stroke-width:0.6;" x="90" xlink:href="#m333f1836fe" y="76.41"/>
      </g>
     </g>
     <g id="line2d_180">
      <g>
       <use style="stroke:#000000;stroke-width:0.6;" x="648" xlink:href="#m2e5f4011a8" y="76.41"/>
      </g>
     </g>
    </g>
    <g id="ytick_34">
     <g id="line2d_181">
      <path clip-path="url(#pf11bf7214f)" d="M 90 66.96 
L 648 66.96 
" style="fill:none;stroke:#808080;stroke-dasharray:0.74,0.32;stroke-dashoffset:0;stroke-width:0.2;"/>
     </g>
     <g id="line2d_182">
      <g>
       <use style="stroke:#000000;stroke-width:0.6;" x="90" xlink:href="#m333f1836fe" y="66.96"/>
      </g>
     </g>
     <g id="line2d_183">
      <g>
       <use style="stroke:#000000;stroke-width:0.6;" x="648" xlink:href="#m2e5f4011a8" y="66.96"/>
      </g>
     </g>
    </g>
    <g id="ytick_35">
     <g id="line2d_184">
      <path clip-path="url(#pf11bf7214f)" d="M 90 57.51 
L 648 57.51 
" style="fill:none;stroke:#808080;stroke-dasharray:0.74,0.32;stroke-dashoffset:0;stroke-width:0.2;"/>
     </g>
     <g id="line2d_185">
      <g>
       <use style="stroke:#000000;stroke-width:0.6;" x="90" xlink:href="#m333f1836fe" y="57.51"/>
      </g>
     </g>
     <g id="line2d_186">
      <g>
       <use style="stroke:#000000;stroke-width:0.6;" x="648" xlink:href="#m2e5f4011a8" y="57.51"/>
      </g>
     </g>
    </g>
    <g id="text_17">
     <!-- RMSE (x0.01 Mag) -->
     <g transform="translate(64.131534 280.746719)rotate(-90)scale(0.15 -0.15)">
      <defs>
       <path d="M 2509 2146 
C 3117 2268 3629 2676 3629 3186 
C 3629 3785 2950 4326 2054 4326 
L 333 4326 
L 333 4160 
C 774 4160 845 4160 845 3873 
L 845 415 
C 845 128 774 128 333 128 
L 333 -26 
C 518 -26 851 -26 1050 -26 
C 1248 -26 1581 -26 1766 -26 
L 1766 128 
C 1325 128 1254 128 1254 417 
L 1254 2112 
L 2003 2112 
C 2368 2112 2573 1964 2662 1881 
C 2918 1632 2918 1459 2918 1024 
C 2918 595 2918 377 3110 160 
C 3354 -102 3680 -128 3821 -128 
C 4294 -128 4365 396 4365 503 
C 4365 540 4365 585 4307 585 
C 4256 585 4250 547 4250 522 
C 4218 112 4032 -26 3834 -26 
C 3482 -26 3443 375 3405 764 
C 3386 898 3373 993 3360 1133 
C 3322 1452 3270 1917 2509 2146 
z
M 1984 2214 
L 1254 2214 
L 1254 3913 
C 1254 4129 1267 4160 1523 4160 
L 1990 4160 
C 2522 4160 3142 3977 3142 3190 
C 3142 2372 2464 2214 1984 2214 
z
" id="CMR17-52" transform="scale(0.015625)"/>
       <path d="M 1338 4224 
C 1299 4320 1293 4320 1158 4320 
L 339 4320 
L 339 4160 
C 781 4160 851 4160 851 3875 
L 851 610 
C 851 451 851 153 339 153 
L 339 -13 
C 486 0 755 0 915 0 
C 1075 0 1344 0 1491 -13 
L 1491 153 
C 979 153 979 451 979 610 
L 979 4135 
L 986 4135 
L 2490 89 
C 2515 25 2528 -13 2579 -13 
C 2630 -13 2643 25 2669 89 
L 4186 4166 
L 4192 4166 
L 4192 438 
C 4192 153 4122 153 3680 153 
L 3680 -13 
C 3853 0 4198 0 4384 0 
C 4570 0 4922 0 5094 -13 
L 5094 153 
C 4653 153 4582 153 4582 438 
L 4582 3875 
C 4582 4160 4653 4160 5094 4160 
L 5094 4320 
L 4282 4320 
C 4147 4320 4141 4314 4102 4218 
L 2720 502 
L 1338 4224 
z
" id="CMR17-4d" transform="scale(0.015625)"/>
       <path d="M 2803 4290 
C 2803 4404 2797 4411 2758 4411 
C 2720 4411 2707 4385 2682 4328 
L 2490 3907 
C 2246 4257 1875 4416 1472 4416 
C 819 4416 294 3901 294 3253 
C 294 3056 339 2776 557 2510 
C 794 2218 1018 2167 1530 2033 
C 1722 1982 2042 1899 2106 1874 
C 2470 1722 2662 1341 2662 985 
C 2662 527 2336 38 1779 38 
C 1094 38 454 419 410 1311 
C 403 1413 397 1419 352 1419 
C 301 1419 294 1413 294 1285 
L 294 -1 
C 294 -115 301 -122 339 -122 
C 384 -122 397 -90 486 108 
C 493 127 493 140 614 381 
C 934 -39 1472 -128 1779 -128 
C 2477 -128 2970 451 2970 1124 
C 2970 1454 2848 1708 2778 1823 
C 2509 2230 2221 2306 1914 2382 
C 1869 2402 1856 2402 1498 2490 
C 1152 2579 1005 2624 845 2796 
C 666 2992 602 3196 602 3399 
C 602 3812 934 4263 1478 4263 
C 2157 4263 2579 3786 2675 2993 
C 2694 2878 2701 2872 2746 2872 
C 2803 2872 2803 2891 2803 2999 
L 2803 4290 
z
" id="CMR17-53" transform="scale(0.015625)"/>
       <path d="M 3885 1615 
L 3770 1615 
C 3629 676 3546 166 2419 166 
L 1530 166 
C 1274 166 1261 197 1261 414 
L 1261 2176 
L 1862 2176 
C 2464 2176 2522 1960 2522 1430 
L 2637 1430 
L 2637 3081 
L 2522 3081 
C 2522 2557 2464 2342 1862 2342 
L 1261 2342 
L 1261 3913 
C 1261 4128 1274 4160 1530 4160 
L 2406 4160 
C 3398 4160 3514 3769 3603 2929 
L 3718 2929 
L 3565 4325 
L 326 4325 
L 326 4160 
C 768 4160 838 4160 838 3874 
L 838 451 
C 838 166 768 166 326 166 
L 326 0 
L 3654 0 
L 3885 1615 
z
" id="CMR17-45" transform="scale(0.015625)"/>
       <path d="M 1958 -1561 
C 1958 -1555 1958 -1542 1939 -1523 
C 1645 -1224 858 -407 858 1581 
C 858 3569 1632 4379 1946 4697 
C 1946 4704 1958 4717 1958 4736 
C 1958 4755 1939 4768 1914 4768 
C 1843 4768 1299 4296 986 3594 
C 666 2887 576 2199 576 1588 
C 576 1128 621 351 1005 -471 
C 1312 -1135 1837 -1600 1914 -1600 
C 1946 -1600 1958 -1587 1958 -1561 
z
" id="CMR17-28" transform="scale(0.015625)"/>
       <path d="M 1664 1477 
C 1856 1726 2074 2006 2253 2216 
C 2464 2458 2707 2560 2989 2560 
L 2989 2726 
C 2880 2726 2656 2726 2541 2726 
C 2368 2726 2170 2726 2022 2732 
L 2022 2566 
C 2112 2553 2163 2489 2163 2400 
C 2163 2285 2099 2215 2067 2171 
L 1594 1573 
L 1030 2306 
C 973 2376 973 2388 973 2420 
C 973 2497 1037 2560 1146 2560 
L 1146 2732 
C 992 2726 717 2726 557 2726 
C 384 2726 179 2726 38 2732 
L 38 2560 
C 384 2560 461 2534 614 2343 
L 1350 1395 
C 1363 1382 1395 1344 1395 1325 
C 1395 1299 838 619 768 530 
C 480 185 179 160 6 160 
L 6 0 
C 115 0 339 0 454 0 
C 582 0 864 0 979 -6 
L 979 160 
C 941 166 838 179 838 325 
C 838 440 890 510 947 586 
L 1478 1236 
L 2035 512 
C 2086 442 2163 346 2163 301 
C 2163 211 2086 160 1984 160 
L 1984 -6 
C 2138 0 2413 0 2573 0 
C 2746 0 2950 0 3091 -6 
L 3091 160 
C 2771 160 2675 172 2522 370 
L 1664 1477 
z
" id="CMR17-78" transform="scale(0.015625)"/>
       <path d="M 1062 261 
C 1062 420 934 522 800 522 
C 672 522 538 420 538 261 
C 538 102 666 0 800 0 
C 928 0 1062 102 1062 261 
z
" id="CMR17-2e" transform="scale(0.015625)"/>
       <path d="M 2304 1653 
C 2304 2072 2304 2294 2035 2543 
C 1798 2752 1523 2816 1306 2816 
C 800 2816 435 2407 435 1971 
C 435 1728 627 1728 666 1728 
C 749 1728 896 1778 896 1954 
C 896 2112 774 2181 666 2181 
C 640 2181 608 2174 589 2168 
C 723 2592 1069 2714 1293 2714 
C 1613 2714 1965 2429 1965 1885 
L 1965 1600 
C 1587 1600 1133 1549 774 1357 
C 371 1133 256 813 256 570 
C 256 77 832 -64 1171 -64 
C 1523 -64 1850 139 1990 511 
C 2003 233 2182 -18 2464 -18 
C 2598 -18 2938 70 2938 567 
L 2938 920 
L 2822 920 
L 2822 562 
C 2822 178 2650 128 2566 128 
C 2304 128 2304 458 2304 738 
L 2304 1653 
z
M 1965 870 
C 1965 317 1568 38 1216 38 
C 896 38 646 275 646 570 
C 646 761 730 1100 1101 1305 
C 1408 1478 1760 1504 1965 1504 
L 1965 870 
z
" id="CMR17-61" transform="scale(0.015625)"/>
       <path d="M 710 1164 
C 832 1068 1043 960 1299 960 
C 1805 960 2240 1357 2240 1888 
C 2240 2054 2189 2310 1997 2509 
C 2176 2692 2438 2752 2586 2752 
C 2611 2752 2650 2752 2682 2734 
C 2656 2728 2598 2703 2598 2605 
C 2598 2527 2656 2471 2739 2471 
C 2835 2471 2886 2533 2886 2614 
C 2886 2731 2790 2854 2586 2854 
C 2330 2854 2106 2738 1926 2580 
C 1734 2753 1504 2816 1299 2816 
C 794 2816 358 2419 358 1888 
C 358 1522 570 1292 634 1228 
C 442 1004 442 743 442 711 
C 442 545 506 302 723 168 
C 390 85 128 -169 128 -486 
C 128 -943 736 -1280 1466 -1280 
C 2170 -1280 2803 -956 2803 -479 
C 2803 384 1856 384 1363 384 
C 1216 384 954 384 922 391 
C 723 423 589 602 589 826 
C 589 883 589 1024 710 1164 
z
M 1299 1068 
C 736 1068 736 1760 736 1889 
C 736 2016 736 2708 1299 2708 
C 1862 2708 1862 2016 1862 1889 
C 1862 1760 1862 1068 1299 1068 
z
M 1466 -1171 
C 826 -1171 384 -835 384 -486 
C 384 -289 493 -105 634 -4 
C 794 104 858 104 1293 104 
C 1818 104 2547 104 2547 -486 
C 2547 -835 2106 -1171 1466 -1171 
z
" id="CMR17-67" transform="scale(0.015625)"/>
       <path d="M 1683 1581 
C 1683 2040 1638 2817 1254 3639 
C 947 4303 422 4768 346 4768 
C 326 4768 301 4761 301 4729 
C 301 4717 307 4710 314 4697 
C 621 4378 1402 3568 1402 1584 
C 1402 -407 627 -1217 314 -1537 
C 307 -1549 301 -1556 301 -1568 
C 301 -1600 326 -1600 346 -1600 
C 416 -1600 960 -1128 1274 -426 
C 1594 281 1683 969 1683 1581 
z
" id="CMR17-29" transform="scale(0.015625)"/>
      </defs>
      <use transform="scale(0.996264)" xlink:href="#CMR17-52"/>
      <use transform="translate(67.791102 0)scale(0.996264)" xlink:href="#CMR17-4d"/>
      <use transform="translate(152.478043 0)scale(0.996264)" xlink:href="#CMR17-53"/>
      <use transform="translate(203.373412 0)scale(0.996264)" xlink:href="#CMR17-45"/>
      <use transform="translate(296.035679 0)scale(0.996264)" xlink:href="#CMR17-28"/>
      <use transform="translate(331.316447 0)scale(0.996264)" xlink:href="#CMR17-78"/>
      <use transform="translate(379.609363 0)scale(0.996264)" xlink:href="#CMR17-30"/>
      <use transform="translate(425.29984 0)scale(0.996264)" xlink:href="#CMR17-2e"/>
      <use transform="translate(450.170898 0)scale(0.996264)" xlink:href="#CMR17-30"/>
      <use transform="translate(495.861376 0)scale(0.996264)" xlink:href="#CMR17-31"/>
      <use transform="translate(571.627819 0)scale(0.996264)" xlink:href="#CMR17-4d"/>
      <use transform="translate(656.31476 0)scale(0.996264)" xlink:href="#CMR17-61"/>
      <use transform="translate(702.005237 0)scale(0.996264)" xlink:href="#CMR17-67"/>
      <use transform="translate(747.695714 0)scale(0.996264)" xlink:href="#CMR17-29"/>
     </g>
    </g>
   </g>
   <g id="line2d_187">
    <path clip-path="url(#pf11bf7214f)" d="M 132.92342 74.113688 
L 132.982139 71.376476 
L 133.276763 92.544061 
L 133.45395 76.089966 
L 133.513698 81.058171 
L 133.689855 67.953611 
L 133.808322 79.74791 
L 133.985509 86.298348 
L 134.221414 70.035862 
L 134.280133 78.035324 
L 134.339882 70.677025 
L 134.398601 72.687796 
L 134.457319 78.762351 
L 134.517068 78.480608 
L 134.575787 78.209034 
L 134.634506 70.42127 
L 134.693225 76.186224 
L 134.752974 71.356801 
L 134.811692 72.293504 
L 135.106316 86.674061 
L 135.166065 82.403984 
L 135.224784 86.444634 
L 135.40197 74.111061 
L 135.460689 74.839637 
L 135.519408 72.928393 
L 135.579157 76.114782 
L 135.637876 70.4723 
L 135.696594 74.781954 
L 135.756343 74.939278 
L 135.815062 79.141333 
L 135.873781 76.021095 
L 136.050967 78.073238 
L 136.228154 66.649851 
L 136.286873 67.273759 
L 136.346622 67.219459 
L 136.40534 70.16801 
L 136.464059 82.892171 
L 136.522778 72.739261 
L 136.582527 78.850651 
L 136.641246 74.653321 
L 136.699964 68.625298 
L 136.759713 70.722007 
L 136.818432 71.735973 
L 136.877151 70.06939 
L 136.93587 80.287864 
L 136.995618 75.227219 
L 137.172805 86.379826 
L 137.231524 74.477777 
L 137.290242 84.16811 
L 137.349991 82.09941 
L 137.40871 72.795451 
L 137.467429 76.658403 
L 137.526148 76.16825 
L 137.585897 69.649772 
L 137.703334 83.909614 
L 137.763083 72.990725 
L 137.821802 75.877625 
L 137.880521 79.182989 
L 137.939239 72.742304 
L 137.998988 74.415426 
L 138.057707 81.953975 
L 138.116426 78.361746 
L 138.176175 73.674527 
L 138.234894 79.652767 
L 138.293612 75.084127 
L 138.353361 66.368506 
L 138.41208 68.94588 
L 138.470799 69.685267 
L 138.529518 69.456066 
L 138.647985 79.1852 
L 138.706704 70.01509 
L 138.766453 71.219947 
L 138.825172 71.778631 
L 138.88389 70.219815 
L 138.942609 65.479468 
L 139.119796 76.266889 
L 139.238263 78.243905 
L 139.296982 77.464563 
L 139.474169 74.315483 
L 139.532887 75.680328 
L 139.828542 67.568315 
L 140.005728 75.522928 
L 140.064447 70.65701 
L 140.123166 72.827562 
L 140.241633 77.902212 
L 140.41882 72.473092 
L 140.477538 78.118825 
L 140.536257 74.962336 
L 140.713444 68.430496 
L 140.772162 67.9019 
L 140.89063 72.302066 
L 140.949349 71.32144 
L 141.126535 75.778097 
L 141.245003 68.977046 
L 141.303722 69.47971 
L 141.362441 69.999914 
L 141.42219 69.397533 
L 141.658095 80.439178 
L 141.716814 77.49709 
L 141.835281 91.571599 
L 141.894 88.789198 
L 142.129905 72.55714 
L 142.188624 74.6547 
L 142.248373 74.665171 
L 142.307092 67.530572 
L 142.36581 74.186831 
L 142.425559 70.970656 
L 142.542997 76.170953 
L 142.601716 72.197379 
L 142.778902 80.527989 
L 142.89737 67.813543 
L 143.015838 71.013256 
L 143.074556 70.767688 
L 143.133275 72.444383 
L 143.191994 72.358917 
L 143.251743 72.599514 
L 143.36918 65.652838 
L 143.664834 78.841466 
L 143.723553 78.588584 
L 143.782272 75.526028 
L 143.842021 75.567589 
L 143.959458 82.055562 
L 144.077926 71.636616 
L 144.136645 74.222117 
L 144.195364 80.12453 
L 144.255113 78.525553 
L 144.313831 71.935519 
L 144.37255 77.430543 
L 144.668204 85.078598 
L 144.726923 87.160906 
L 144.845391 80.432563 
L 144.90411 85.861172 
L 144.962828 84.222031 
L 145.140015 76.520433 
L 145.198734 76.276245 
L 145.258482 71.565609 
L 145.317201 73.803274 
L 145.37592 82.620956 
L 145.434639 75.81739 
L 145.494388 69.608759 
L 145.611825 76.623438 
L 145.671574 75.403764 
L 145.730293 86.940967 
L 145.789012 83.649248 
L 145.848761 72.0709 
L 145.907479 79.931675 
L 145.966198 81.110902 
L 146.084666 67.688085 
L 146.320571 76.062712 
L 146.37929 76.158592 
L 146.792382 90.944383 
L 146.969568 79.003817 
L 147.028287 77.94674 
L 147.205473 68.799367 
L 147.441378 74.85538 
L 147.618565 90.110875 
L 147.795751 99.334207 
L 148.091406 78.453922 
L 148.268592 71.879197 
L 148.38603 70.501917 
L 148.504497 75.814669 
L 148.563216 74.094637 
L 148.621935 73.682957 
L 148.917589 93.233514 
L 149.035026 76.483521 
L 149.094775 77.96118 
L 149.153494 81.359381 
L 149.270932 70.715373 
L 149.389399 81.120447 
L 149.507867 74.411571 
L 149.625305 84.04027 
L 149.743772 76.90072 
L 149.920959 90.317735 
L 150.038396 95.161162 
L 150.33405 79.938479 
L 150.451488 67.494813 
L 150.511237 69.737393 
L 150.569956 68.919571 
L 150.628674 67.69504 
L 151.041766 103.990638 
L 151.160234 102.397727 
L 151.277671 93.766172 
L 151.33742 95.995465 
L 151.396139 95.246307 
L 151.690763 71.184093 
L 151.809231 68.159961 
L 151.927698 69.582715 
L 152.045136 76.406541 
L 152.103855 74.678892 
L 152.163604 74.207092 
L 152.399509 80.626193 
L 152.576695 76.732075 
L 152.694133 78.329163 
L 152.812601 90.860108 
L 153.048506 76.195409 
L 153.107225 79.984141 
L 153.166974 79.611565 
L 153.284411 74.86347 
L 153.34416 75.439466 
L 153.580065 82.121315 
L 153.638784 81.857169 
L 153.697503 81.83704 
L 153.81597 82.785707 
L 154.287781 67.719723 
L 154.642154 81.315438 
L 154.81934 96.531979 
L 154.878059 93.530244 
L 154.936778 91.312272 
L 155.055246 98.251558 
L 155.232432 85.987556 
L 155.291151 87.924504 
L 155.409618 82.52725 
L 155.468337 84.50659 
L 155.527056 83.538381 
L 155.645524 75.782274 
L 155.763991 79.419088 
L 155.881429 67.996911 
L 155.999897 75.207884 
L 156.058615 73.972939 
L 156.117334 70.490236 
L 156.177083 72.487192 
L 156.235802 73.43291 
L 156.294521 71.124142 
L 156.353239 73.074604 
L 156.471707 84.278335 
L 156.530426 82.335868 
L 156.590175 80.650631 
L 156.648894 81.995404 
L 156.707612 81.975918 
L 156.766331 80.533848 
L 156.884799 88.972074 
L 156.943518 87.366784 
L 157.061985 76.540977 
L 157.120704 81.325871 
L 157.180453 79.009071 
L 157.29789 66.652629 
L 157.416358 82.854654 
L 157.475077 79.029672 
L 157.593545 71.462339 
L 157.710982 79.29535 
L 157.769701 77.600322 
L 157.946887 73.163263 
L 158.006636 73.442473 
L 158.124074 74.909302 
L 158.242542 70.129549 
L 158.359979 76.567248 
L 158.537166 68.955991 
L 158.596914 69.752248 
L 158.655633 70.793789 
L 158.773071 68.867123 
L 158.83282 69.773926 
L 159.186162 81.916175 
L 159.245911 82.732598 
L 159.423098 73.034895 
L 159.540535 74.298511 
L 159.659003 74.724479 
L 159.717722 74.349598 
L 159.894908 79.848817 
L 159.953627 78.136194 
L 160.072095 68.720913 
L 160.130814 69.690294 
L 160.249281 75.91189 
L 160.366719 73.04563 
L 160.426468 73.900987 
L 160.602624 65.72171 
L 160.721092 76.65277 
L 160.77981 76.28577 
L 160.898278 68.314053 
L 161.015716 72.5458 
L 161.134183 69.133613 
L 161.252651 82.84751 
L 161.31137 81.202945 
L 161.370089 77.898999 
L 161.429838 79.277508 
L 161.488556 84.292226 
L 161.547275 84.212355 
L 161.665743 69.612823 
L 161.724462 69.963002 
L 161.78318 73.57929 
L 161.842929 73.085282 
L 161.901648 71.399383 
L 162.078834 83.912544 
L 162.137553 82.220805 
L 162.256021 75.962183 
L 162.373458 81.482325 
L 162.550645 76.296865 
L 162.669113 78.10807 
L 162.727831 77.57201 
L 162.78655 76.990211 
L 163.140923 80.370004 
L 163.199642 80.181155 
L 163.554015 67.502959 
L 163.672482 68.641533 
L 163.849669 71.635728 
L 163.908388 70.51165 
L 163.967106 69.821328 
L 164.025825 69.894471 
L 164.203012 75.137746 
L 164.262761 74.227466 
L 164.675852 65.35161 
L 164.852009 70.953702 
L 164.970476 69.286382 
L 165.147663 76.08647 
L 165.206382 75.515463 
L 165.324849 79.923056 
L 165.442287 74.694617 
L 165.502036 74.721342 
L 165.679222 83.258396 
L 165.737941 82.064974 
L 165.79666 82.193948 
L 165.915127 84.232956 
L 166.151033 77.782518 
L 166.209751 79.459137 
L 166.386938 85.311125 
L 166.505406 78.578756 
L 166.681562 73.349428 
L 166.741311 73.08687 
L 167.035935 82.345035 
L 167.095684 81.894856 
L 167.154402 81.470853 
L 167.331589 91.373829 
L 167.862118 123.162117 
L 167.921867 123.125432 
L 168.157772 116.753883 
L 168.806769 83.551932 
L 169.101393 68.634105 
L 169.161142 68.15654 
L 169.397047 70.811196 
L 169.574234 78.188528 
L 169.810139 97.928671 
L 169.868858 97.632942 
L 170.459136 73.786434 
L 170.517855 74.010834 
L 170.577604 73.600931 
L 170.695041 69.958126 
L 170.75479 70.541701 
L 170.931977 79.354507 
L 171.108133 70.153892 
L 171.167882 72.683147 
L 171.403787 88.316792 
L 171.994065 100.515192 
L 172.701781 81.416893 
L 172.997435 76.970555 
L 173.292059 89.578386 
L 173.469246 106.296759 
L 174.118242 176.008634 
L 174.295429 181.771906 
L 174.413897 177.977315 
L 174.708521 151.121511 
L 175.357518 81.683346 
L 175.594453 68.31152 
L 175.71189 66.140817 
L 175.770609 66.33664 
L 175.889077 70.518379 
L 176.538074 109.326051 
L 176.596793 109.234291 
L 177.010914 98.941881 
L 177.482725 70.58553 
L 177.541444 70.288025 
L 177.954535 86.262003 
L 178.013254 85.582302 
L 178.190441 79.174975 
L 178.25019 80.29962 
L 178.957905 109.254477 
L 179.016624 109.188799 
L 179.135092 106.838943 
L 179.429716 94.02601 
L 179.72537 77.069837 
L 179.902556 75.221549 
L 179.961275 74.170123 
L 180.019994 74.677966 
L 180.374367 84.567599 
L 180.492834 87.300067 
L 180.670021 98.197051 
L 181.083113 148.025313 
L 181.673391 214.691245 
L 181.73211 213.932958 
L 181.909296 204.049525 
L 182.20392 170.411947 
L 182.794198 100.294799 
L 183.443195 66.192452 
L 183.502944 65.565426 
L 183.561663 65.988351 
L 183.738849 71.900781 
L 184.506314 106.234597 
L 184.565033 106.091392 
L 184.742219 104.030517 
L 184.919406 96.656871 
L 185.21403 86.952722 
L 185.272748 86.44074 
L 185.391216 88.360508 
L 185.449935 89.402616 
L 185.509684 89.063285 
L 185.68584 83.082664 
L 185.922775 72.111025 
L 185.981494 72.684583 
L 186.217399 81.109164 
L 186.276118 80.913246 
L 186.513054 75.160219 
L 186.630491 76.105105 
L 186.807678 80.226553 
L 187.397956 100.18826 
L 187.515393 98.314174 
L 187.988234 84.895174 
L 188.105671 85.986762 
L 188.224139 87.14966 
L 188.342607 85.036697 
L 188.755698 75.79248 
L 188.873136 74.445742 
L 188.991604 75.49885 
L 189.286228 82.784611 
L 189.522133 93.741583 
L 190.525503 161.686857 
L 190.585252 161.707666 
L 190.702689 159.809463 
L 190.938594 150.427125 
L 192.473524 72.447086 
L 192.709429 70.104922 
L 192.768148 70.14569 
L 193.005083 71.372734 
L 193.181239 75.214197 
L 193.476894 88.370166 
L 193.771518 100.597747 
L 193.948704 92.33824 
L 194.12589 87.06359 
L 194.184609 87.193036 
L 194.361796 88.164345 
L 194.480263 86.915225 
L 194.716169 83.834714 
L 194.893355 82.497142 
L 195.12926 80.06526 
L 195.247728 80.855526 
L 195.424914 82.459153 
L 195.483633 82.179338 
L 195.601071 78.781515 
L 195.896725 67.803658 
L 196.073911 68.637262 
L 196.191349 69.00326 
L 196.251098 68.92715 
L 196.309817 68.784152 
L 196.368535 68.837394 
L 196.487003 70.334992 
L 196.66419 72.894014 
L 196.841376 71.789366 
L 196.900095 72.060713 
L 197.077281 77.096278 
L 197.430624 87.837242 
L 197.784997 83.20094 
L 198.375275 73.427089 
L 198.433994 73.585754 
L 198.61118 75.02892 
L 198.965553 79.642675 
L 199.260177 80.632487 
L 199.733018 82.680831 
L 199.910204 83.044259 
L 200.027642 82.607631 
L 200.382015 80.520466 
L 200.500482 81.083233 
L 200.736388 84.898368 
L 201.149479 96.17133 
L 201.385385 101.652916 
L 201.444103 101.805873 
L 201.562571 100.46008 
L 202.388754 84.616342 
L 202.447473 84.709803 
L 202.62466 86.752836 
L 202.801846 88.274702 
L 202.979033 87.992109 
L 203.09647 89.034425 
L 203.569311 96.661066 
L 203.62803 96.1763 
L 203.863935 88.240493 
L 204.395494 75.130735 
L 204.512932 76.073107 
L 204.985772 82.586463 
L 205.162959 91.732438 
L 205.457583 105.155048 
L 205.57605 103.680791 
L 206.638139 76.350484 
L 206.756607 76.454113 
L 206.874044 75.181935 
L 207.10995 71.845612 
L 207.228417 73.126881 
L 207.464322 81.037986 
L 207.700228 86.650681 
L 207.818695 85.409537 
L 208.231787 79.84275 
L 208.467692 76.909414 
L 208.644879 74.866853 
L 208.703598 74.938181 
L 208.822065 76.679419 
L 209.825435 101.258302 
L 209.884154 101.408576 
L 210.002622 100.235907 
L 210.238527 93.967306 
L 210.946242 72.153058 
L 211.06471 71.617829 
L 211.182148 72.119851 
L 211.359334 74.592122 
L 211.595239 81.523414 
L 212.185518 101.693834 
L 212.245266 101.558529 
L 212.422453 98.75135 
L 213.011701 83.153388 
L 213.54326 68.887573 
L 213.661728 67.726017 
L 213.720447 67.773702 
L 213.838914 69.34295 
L 214.723817 89.567764 
L 214.782535 89.741077 
L 214.842284 89.543912 
L 215.018441 86.832046 
L 215.668468 74.034591 
L 215.785905 73.494769 
L 215.904373 74.123856 
L 216.257716 79.421035 
L 216.671838 84.243351 
L 217.320834 89.505356 
L 217.438272 89.137317 
L 217.675207 86.985986 
L 217.969831 82.988069 
L 218.382923 76.367399 
L 218.501391 76.048348 
L 218.618828 76.775658 
L 218.796015 80.212 
L 219.150388 93.085413 
L 219.799385 122.867731 
L 219.858103 122.788275 
L 219.976571 120.071344 
L 220.330944 101.511506 
L 220.625568 91.317129 
L 221.097378 84.63632 
L 221.570219 75.3571 
L 221.628938 75.178967 
L 221.687657 75.232171 
L 221.923562 76.565188 
L 222.337684 78.447571 
L 222.573589 79.859836 
L 223.045399 84.606779 
L 223.576959 91.403257 
L 224.048769 94.894937 
L 224.167237 94.507506 
L 224.403142 93.589231 
L 224.52058 94.23597 
L 224.756485 97.787847 
L 225.406512 109.176325 
L 225.465231 109.013615 
L 225.642417 106.53815 
L 226.468601 90.204751 
L 226.881692 87.596778 
L 227.176316 86.486837 
L 227.294784 86.861057 
L 227.826343 90.59823 
L 227.885062 90.477119 
L 228.062249 89.042854 
L 228.298154 84.772683 
L 228.888432 72.092692 
L 228.947151 72.213595 
L 229.124337 73.98598 
L 229.596148 79.331732 
L 229.714615 79.436835 
L 229.833083 78.968758 
L 230.246175 75.790968 
L 230.304894 75.876604 
L 230.48208 77.520224 
L 231.425701 90.987381 
L 231.48545 90.942304 
L 231.662636 89.521176 
L 232.370352 81.614587 
L 232.48882 81.82347 
L 232.842162 83.014964 
L 232.96063 82.552802 
L 233.550908 78.18316 
L 233.609627 78.199811 
L 233.964 78.668739 
L 234.199905 78.87919 
L 234.318373 78.658873 
L 234.554278 77.229013 
L 234.731465 76.557741 
L 234.848902 77.219525 
L 235.498929 82.97896 
L 236.029458 86.181621 
L 236.147926 86.281772 
L 236.206645 86.238302 
L 236.383831 85.79884 
L 236.738204 84.492906 
L 236.796923 84.511258 
L 236.915391 85.127625 
L 237.151296 88.599649 
L 237.564388 94.085601 
L 237.859012 95.557779 
L 238.094917 95.87133 
L 238.213385 95.596524 
L 238.390571 94.37307 
L 238.685195 90.137429 
L 239.511378 77.145286 
L 239.807033 75.769025 
L 239.984219 75.544229 
L 240.161406 75.695126 
L 240.45603 76.096033 
L 240.574497 76.027407 
L 240.987589 75.403594 
L 241.046308 75.465038 
L 241.223494 76.180762 
L 242.049678 81.637249 
L 242.40405 82.743447 
L 242.875861 85.268676 
L 243.171515 87.454574 
L 243.466139 91.852396 
L 243.760763 99.44566 
L 244.173855 117.323491 
L 244.764133 140.848208 
L 245.708784 168.044647 
L 245.944689 169.730961 
L 246.063157 169.266437 
L 246.240343 167.024368 
L 246.534967 159.361231 
L 247.243713 131.121739 
L 248.364521 86.876045 
L 248.600426 84.884552 
L 248.660175 84.8717 
L 248.777612 85.283644 
L 249.36789 88.801993 
L 249.426609 88.737412 
L 249.603796 88.090748 
L 250.252793 84.42377 
L 250.312542 84.467996 
L 250.489728 85.097555 
L 250.725633 85.763062 
L 250.843071 85.510936 
L 251.197444 84.430253 
L 251.315911 84.815454 
L 251.610535 87.214261 
L 252.023627 91.809758 
L 252.909559 108.196247 
L 253.912929 135.104063 
L 254.030367 135.419939 
L 254.148834 134.670989 
L 254.38474 130.429999 
L 255.565296 102.776464 
L 256.214293 96.129334 
L 256.273012 96.162995 
L 256.391479 97.140049 
L 256.568666 101.247397 
L 256.86329 114.780818 
L 257.925378 170.501533 
L 258.279751 179.41706 
L 258.515657 181.156484 
L 258.575406 181.121727 
L 258.692843 180.603281 
L 258.928748 178.026077 
L 259.224402 171.540617 
L 259.578775 157.564313 
L 260.995237 92.663962 
L 261.34858 84.249928 
L 261.467047 83.49956 
L 261.525766 83.601185 
L 261.644234 84.756731 
L 261.880139 90.433063 
L 262.35195 109.724406 
L 262.942228 132.398566 
L 263.178133 135.888716 
L 263.237882 136.058173 
L 263.296601 135.943375 
L 263.415068 134.884048 
L 263.650974 129.80318 
L 264.241252 108.773358 
L 264.890249 88.614032 
L 265.244622 83.014321 
L 265.420778 82.178734 
L 265.480527 82.181096 
L 265.597964 82.561081 
L 265.83387 84.535204 
L 266.188242 89.65684 
L 267.368799 108.853494 
L 267.545985 109.211819 
L 267.664453 108.998023 
L 267.959077 107.483849 
L 268.962447 101.926984 
L 269.080914 101.937871 
L 269.198352 102.383571 
L 269.434257 104.693491 
L 270.437627 117.854544 
L 270.850719 119.55286 
L 271.027905 121.525661 
L 271.26381 126.888139 
L 271.559465 139.521409 
L 271.913838 165.026468 
L 272.385648 216.860549 
L 273.330299 330.854463 
L 273.447737 332.620763 
L 273.566204 328.475161 
L 273.860828 301.856458 
L 275.27729 152.773239 
L 275.867568 119.849117 
L 276.339378 103.504719 
L 276.693751 97.029371 
L 276.989406 94.775943 
L 277.106843 94.540732 
L 277.166592 94.579175 
L 277.28403 94.999057 
L 277.519935 97.202759 
L 278.405867 107.693469 
L 278.700491 108.758465 
L 278.877678 108.878858 
L 278.996145 108.680162 
L 279.172302 107.836825 
L 279.409237 105.550133 
L 280.175671 96.575298 
L 280.23542 96.549745 
L 280.352858 96.900246 
L 280.884417 100.129897 
L 280.943136 100.059022 
L 281.120322 99.070023 
L 281.887787 93.142983 
L 282.24216 91.97999 
L 282.418316 91.920814 
L 282.595503 92.250071 
L 282.832438 93.203311 
L 283.068343 95.228749 
L 283.362967 100.700941 
L 283.834778 115.318787 
L 284.543524 136.389415 
L 284.838148 139.78858 
L 284.897897 139.876162 
L 285.015334 139.46161 
L 285.192521 137.547342 
L 285.664331 128.61403 
L 286.19589 120.302453 
L 287.022074 110.932834 
L 287.908006 95.361975 
L 288.025444 94.952677 
L 288.084162 94.986243 
L 288.20263 95.541223 
L 288.438535 98.532053 
L 288.792908 106.777877 
L 289.560373 131.916049 
L 290.386556 157.270267 
L 290.740929 163.042837 
L 290.976834 164.573057 
L 291.094272 164.627659 
L 291.21274 164.206945 
L 291.448645 161.940892 
L 291.803018 155.219522 
L 294.517473 91.087173 
L 294.990314 87.412881 
L 295.403406 85.460303 
L 295.580592 85.289144 
L 295.69803 85.598481 
L 295.875216 86.843083 
L 296.16984 91.04701 
L 296.701399 102.979847 
L 297.291678 114.504405 
L 297.586302 116.577433 
L 297.704769 116.556114 
L 297.881956 115.683463 
L 298.17658 112.500457 
L 299.062512 101.895346 
L 299.828946 95.361484 
L 300.714879 87.317001 
L 302.190059 77.166151 
L 302.66187 74.135971 
L 302.957524 73.291878 
L 303.193429 73.125161 
L 303.370615 73.23497 
L 303.606521 73.684072 
L 303.960894 75.010644 
L 304.492453 78.040616 
L 304.964263 82.132655 
L 306.14482 93.704407 
L 306.380725 94.095278 
L 306.557911 93.896204 
L 307.265627 92.488873 
L 307.442814 92.716164 
L 307.738468 93.684619 
L 308.268997 96.375393 
L 308.741838 99.887769 
L 309.449553 105.500842 
L 309.685458 106.066292 
L 309.803926 105.989539 
L 309.981113 105.489634 
L 310.63011 103.042519 
L 310.747547 103.129327 
L 310.924734 103.798406 
L 311.220388 106.314355 
L 311.692198 112.884978 
L 312.459663 123.541327 
L 312.754287 125.501314 
L 312.931473 125.833405 
L 313.049941 125.696229 
L 313.227127 124.971925 
L 313.521751 122.514169 
L 314.053311 115.437593 
L 314.58384 109.06009 
L 314.879494 107.578916 
L 315.056681 107.447429 
L 315.233867 107.74654 
L 315.58721 109.061942 
L 316.177488 111.137767 
L 316.413393 111.312233 
L 316.59058 111.083486 
L 316.826485 110.298248 
L 317.180858 108.254931 
L 317.829855 102.932899 
L 318.833225 94.929789 
L 319.07016 94.475319 
L 319.187598 94.629808 
L 319.423503 95.659801 
L 319.896343 99.318104 
L 321.430242 112.611835 
L 321.903083 116.469778 
L 322.316175 118.029274 
L 322.669518 119.516364 
L 323.082609 122.579014 
L 323.614169 126.114278 
L 323.909823 126.784435 
L 324.204447 126.891824 
L 324.794725 126.877385 
L 324.971911 126.583225 
L 325.207817 125.611652 
L 325.502441 123.179316 
L 325.856814 118.309486 
L 326.388373 107.330627 
L 327.273275 87.910877 
L 327.568929 85.473457 
L 327.627648 85.416171 
L 327.745086 85.774723 
L 327.922272 87.523332 
L 328.217926 93.505844 
L 328.748455 110.654589 
L 329.398482 129.812914 
L 329.693106 133.537178 
L 329.811574 133.858383 
L 329.929012 133.509281 
L 330.106198 131.794862 
L 330.401852 126.210517 
L 330.9911 109.102691 
L 331.641127 92.132135 
L 331.99447 87.520081 
L 332.231406 86.446939 
L 332.348843 86.445465 
L 332.52603 87.057088 
L 332.761935 88.965194 
L 333.116308 94.079553 
L 333.647867 105.824637 
L 334.591488 127.05977 
L 335.00458 131.763054 
L 335.240485 132.560331 
L 335.358953 132.398245 
L 335.536139 131.43323 
L 335.830763 127.927714 
L 336.243855 119.642824 
L 337.720065 87.197137 
L 338.191876 82.119652 
L 338.427781 81.168944 
L 338.546249 81.236191 
L 338.723435 82.116401 
L 338.95934 84.789353 
L 339.372432 92.875982 
L 340.317083 117.87643 
L 341.43789 153.659913 
L 342.322793 178.85488 
L 342.736914 186.029887 
L 342.97282 187.418375 
L 343.031538 187.388437 
L 343.150006 186.856138 
L 343.385911 183.933688 
L 343.739254 175.52092 
L 344.389281 153.038009 
L 345.805743 103.615416 
L 346.396021 89.141229 
L 346.690645 85.631442 
L 346.867831 85.158791 
L 346.986299 85.576783 
L 347.162455 87.307797 
L 347.45811 92.956062 
L 347.92992 107.565554 
L 349.287663 153.652467 
L 349.582287 157.437097 
L 349.700754 157.832391 
L 349.759473 157.782325 
L 349.877941 157.190906 
L 350.113846 154.134965 
L 350.468219 145.610914 
L 351.235684 119.322261 
L 352.002118 96.376867 
L 352.533678 86.661284 
L 352.946769 82.692209 
L 353.241393 81.683081 
L 353.359861 81.710297 
L 353.537047 82.23069 
L 353.772953 83.855787 
L 354.127326 88.348279 
L 354.599136 97.914722 
L 356.311252 137.828272 
L 356.605876 139.809955 
L 356.783062 139.987918 
L 356.960249 139.489657 
L 357.254873 137.431561 
L 357.727713 132.105276 
L 358.907239 118.157095 
L 359.320331 115.748932 
L 359.734453 114.659725 
L 360.913979 112.522835 
L 361.032447 112.659312 
L 361.209633 113.25073 
L 361.445538 114.976943 
L 361.740162 119.050989 
L 362.094535 127.282223 
L 362.567376 144.304186 
L 363.275092 180.233786 
L 364.219743 227.114858 
L 364.632834 238.178389 
L 364.86874 240.526808 
L 364.927458 240.636069 
L 364.986177 240.554893 
L 365.104645 239.830759 
L 365.34055 236.259698 
L 365.694923 226.448671 
L 366.34392 200.252288 
L 368.114754 125.3957 
L 368.82247 105.619288 
L 369.531216 91.490839 
L 370.003026 85.58835 
L 370.298681 84.009199 
L 370.416118 83.932956 
L 370.534586 84.200996 
L 370.711772 85.27117 
L 371.006396 88.835408 
L 371.419488 97.136269 
L 372.30542 121.003265 
L 372.895698 133.845134 
L 373.249041 137.954599 
L 373.484946 138.871344 
L 373.603414 138.776617 
L 373.780601 137.970475 
L 374.075225 135.015214 
L 374.488316 128.218982 
L 376.081964 99.202398 
L 376.436337 96.811907 
L 376.672242 96.314346 
L 376.79071 96.367568 
L 376.967897 96.791269 
L 377.262521 98.304251 
L 377.734331 102.319386 
L 379.092074 115.034588 
L 379.446447 116.367284 
L 379.682352 116.581251 
L 379.859538 116.410697 
L 380.154162 115.61015 
L 380.80419 112.814934 
L 381.334719 110.999948 
L 381.74781 110.294506 
L 382.160902 110.053172 
L 382.692462 110.052208 
L 383.400177 110.273527 
L 383.990455 110.468461 
L 384.227391 110.299911 
L 384.463296 109.813917 
L 384.75792 108.632704 
L 385.171012 105.93008 
L 386.351568 97.611094 
L 386.587473 97.171915 
L 386.705941 97.217237 
L 386.883127 97.643035 
L 387.119033 98.905593 
L 387.473406 102.293323 
L 387.945216 109.394261 
L 388.594213 123.048906 
L 390.542234 167.31917 
L 391.014044 172.623228 
L 391.309698 174.160063 
L 391.485855 174.401473 
L 391.604322 174.28297 
L 391.781509 173.703193 
L 392.076133 171.766945 
L 392.548974 166.819775 
L 393.611062 155.155829 
L 394.082873 152.313969 
L 395.086242 147.439602 
L 395.499334 143.710556 
L 396.089612 136.263408 
L 397.270169 121.076275 
L 397.68326 118.392211 
L 397.860447 118.03364 
L 397.978914 118.10546 
L 398.155071 118.716081 
L 398.392006 120.517195 
L 398.745349 125.348318 
L 399.21819 135.332905 
L 399.984624 157.185576 
L 401.283648 193.624114 
L 401.69674 199.957108 
L 401.991364 201.739926 
L 402.109831 201.756633 
L 402.228299 201.371073 
L 402.464204 199.418628 
L 402.817547 193.763974 
L 403.290388 182.146938 
L 404.352476 148.314256 
L 405.237378 123.271586 
L 405.946124 109.255497 
L 406.536402 101.408104 
L 407.066932 96.921735 
L 407.539772 94.597092 
L 408.070302 93.111231 
L 409.13342 90.549827 
L 410.608601 86.484513 
L 410.962974 86.051551 
L 411.198879 86.003073 
L 411.434784 86.196231 
L 411.729408 86.845351 
L 412.083781 88.3225 
L 412.496873 91.097039 
L 413.028432 96.204424 
L 415.152609 118.594857 
L 416.09726 124.327586 
L 416.923444 129.833269 
L 418.045281 137.545546 
L 418.398624 138.792417 
L 418.635559 139.107556 
L 418.812746 139.063821 
L 419.048651 138.645923 
L 419.401994 137.334887 
L 419.933553 134.272822 
L 421.055391 127.597531 
L 421.408734 126.5809 
L 421.644639 126.383925 
L 421.821825 126.509099 
L 422.058761 127.049772 
L 422.353385 128.333384 
L 422.766476 131.30728 
L 423.238287 136.658173 
L 423.711127 144.711784 
L 424.301406 159.12842 
L 425.776586 197.897234 
L 426.130959 202.153136 
L 426.366864 203.346463 
L 426.484302 203.460997 
L 426.602769 203.268388 
L 426.779956 202.435975 
L 427.07458 199.746807 
L 427.487671 193.762746 
L 428.137698 180.929816 
L 432.150148 94.434344 
L 432.504521 91.074019 
L 432.681707 90.636862 
L 432.800175 90.866648 
L 432.976331 91.975983 
L 433.271985 95.559178 
L 433.862263 106.52766 
L 435.927722 148.153342 
L 436.282095 151.264168 
L 436.518 152.067248 
L 436.636468 152.075772 
L 436.812624 151.603707 
L 437.049559 150.106997 
L 437.402902 146.195207 
L 437.934462 137.443543 
L 440.295574 93.990137 
L 440.767385 90.057369 
L 441.062009 89.0706 
L 441.180476 89.026298 
L 441.298944 89.191408 
L 441.534849 90.166025 
L 441.829473 92.602575 
L 442.242565 98.158324 
L 442.891562 110.550185 
L 443.954681 130.650014 
L 444.426491 135.962199 
L 444.780864 138.058908 
L 445.075488 138.687787 
L 445.252674 138.646377 
L 445.48858 138.184518 
L 445.842953 136.819938 
L 446.551698 132.851391 
L 447.318133 128.888477 
L 447.731225 127.656178 
L 448.026879 127.304544 
L 448.262784 127.347825 
L 448.498689 127.657879 
L 448.853062 128.529207 
L 450.269524 132.548953 
L 450.564148 132.707543 
L 450.859802 132.591422 
L 451.45008 132.221983 
L 451.627266 132.337576 
L 451.863172 132.883521 
L 452.099077 134.065584 
L 452.393701 136.743733 
L 452.748074 142.166483 
L 453.220914 153.777282 
L 453.751444 173.040068 
L 454.518908 210.761992 
L 456.466929 314.565441 
L 456.761553 319.615729 
L 456.820272 319.822741 
L 456.880021 319.752849 
L 456.997458 318.798021 
L 457.233364 313.908439 
L 457.587737 300.934062 
L 458.355201 262.10732 
L 460.126036 171.157401 
L 461.010938 136.515912 
L 461.719684 116.438461 
L 462.308932 104.985874 
L 462.840491 98.451426 
L 463.253583 95.54642 
L 463.607956 94.364149 
L 463.843861 94.156627 
L 464.021047 94.268704 
L 464.256953 94.733531 
L 464.611326 96.005255 
L 465.141855 98.897371 
L 466.027787 105.149075 
L 467.031157 111.821796 
L 467.621435 114.424609 
L 468.093246 115.633491 
L 468.447618 116.066339 
L 468.742242 116.147949 
L 469.037897 115.998961 
L 469.391239 115.542601 
L 469.86408 114.512608 
L 470.513077 112.431472 
L 471.33926 108.934141 
L 472.578535 102.556487 
L 473.700373 97.138632 
L 474.053716 96.236894 
L 474.290651 96.098206 
L 474.467838 96.313439 
L 474.703743 97.11667 
L 474.998367 99.102852 
L 475.35274 103.159567 
L 475.82455 111.675982 
L 476.414828 127.074077 
L 477.418198 160.930611 
L 478.540036 197.291414 
L 479.070565 208.779174 
L 479.483657 213.510997 
L 479.719562 214.347057 
L 479.83803 214.245697 
L 480.015216 213.455941 
L 480.30984 210.521981 
L 480.722932 203.423216 
L 481.31321 188.770594 
L 482.376329 156.113303 
L 483.674322 118.151519 
L 484.383068 102.8542 
L 484.913598 95.232189 
L 485.326689 91.93962 
L 485.622343 91.076702 
L 485.739781 91.082788 
L 485.916967 91.466401 
L 486.152873 92.667062 
L 486.507246 95.892309 
L 486.979056 102.638456 
L 487.569334 114.344606 
L 488.513985 137.756263 
L 489.989166 173.853391 
L 490.75663 187.391272 
L 491.346908 194.301547 
L 491.818719 197.544201 
L 492.173092 198.676406 
L 492.408997 198.84197 
L 492.586183 198.672531 
L 492.822089 198.07618 
L 493.176462 196.446735 
L 493.648272 193.062161 
L 494.23855 187.219906 
L 495.064734 176.80113 
L 496.599663 154.249045 
L 497.72047 139.350005 
L 498.547684 131.115124 
L 499.373867 125.082905 
L 500.671861 117.484973 
L 502.442695 108.064627 
L 503.150411 105.345598 
L 503.623252 104.291167 
L 503.917876 104.049908 
L 504.153781 104.130271 
L 504.389686 104.480998 
L 504.68534 105.335524 
L 505.098432 107.382451 
L 505.570242 111.046877 
L 506.101802 116.979908 
L 506.750799 126.908589 
L 507.576982 143.438472 
L 509.819627 191.596919 
L 510.351186 197.810483 
L 510.705559 199.989445 
L 510.941465 200.536468 
L 511.058902 200.540569 
L 511.236089 200.217247 
L 511.471994 199.191658 
L 511.826367 196.463254 
L 512.299207 190.872312 
L 513.006923 179.242764 
L 514.187479 155.092741 
L 515.839846 121.699484 
L 516.724748 107.89258 
L 517.433494 99.957075 
L 518.023772 95.666756 
L 518.495583 93.736121 
L 518.849956 93.0956 
L 519.085861 93.011533 
L 519.321766 93.168743 
L 519.61742 93.655513 
L 520.089231 94.947422 
L 520.974133 98.247362 
L 522.273157 102.879639 
L 522.980873 104.635997 
L 523.571151 105.556446 
L 524.043991 105.926017 
L 524.457083 105.99383 
L 524.870175 105.848167 
L 525.400704 105.409782 
L 526.345355 104.27323 
L 527.171538 103.427153 
L 527.643349 103.232559 
L 527.997722 103.305399 
L 528.352095 103.616512 
L 528.765186 104.34352 
L 529.236997 105.747619 
L 529.709838 107.868615 
L 530.299086 111.668404 
L 530.949113 117.424871 
L 531.775296 126.96818 
L 534.135378 156.226628 
L 534.666938 159.601223 
L 535.021311 160.629307 
L 535.198497 160.755975 
L 535.375684 160.623354 
L 535.611589 160.050022 
L 535.964932 158.38015 
L 536.437772 154.805083 
L 537.086769 147.94924 
L 539.860974 115.875071 
L 540.332784 113.184807 
L 540.687157 112.171635 
L 540.923062 112.030849 
L 541.100249 112.225519 
L 541.336154 112.905352 
L 541.690527 114.869534 
L 542.103618 118.660988 
L 542.634148 125.9823 
L 543.224426 137.299884 
L 543.99189 156.457189 
L 546.824814 233.424245 
L 547.296624 239.601256 
L 547.709716 242.405241 
L 547.946651 242.973337 
L 548.123838 242.946745 
L 548.299994 242.563982 
L 548.595648 241.219928 
L 549.00874 238.104886 
L 549.657737 231.131013 
L 550.779574 215.974839 
L 553.022219 185.206092 
L 553.907121 175.943089 
L 554.556118 171.096524 
L 555.087678 168.603595 
L 555.500769 167.63584 
L 555.795393 167.455609 
L 556.032329 167.599533 
L 556.326953 168.10524 
L 556.740044 169.31896 
L 557.507509 172.492762 
L 558.45216 176.20905 
L 558.92397 177.335263 
L 559.278343 177.721276 
L 559.572967 177.719708 
L 559.868622 177.420653 
L 560.221964 176.675502 
L 560.694805 175.051084 
L 561.285083 172.059214 
L 561.992799 167.123404 
L 562.818982 159.560474 
L 563.822352 147.965419 
L 567.009648 108.566573 
L 567.658645 103.967844 
L 568.190204 101.602623 
L 568.603296 100.592663 
L 568.957669 100.247228 
L 569.252293 100.281191 
L 569.546917 100.566562 
L 569.960009 101.312243 
L 570.550287 102.888787 
L 571.494938 106.114147 
L 573.029867 112.219962 
L 574.209393 117.87592 
L 575.272512 124.065764 
L 578.695713 145.237922 
L 579.34471 147.515863 
L 579.816521 148.532646 
L 580.229612 148.960409 
L 580.525266 149.003142 
L 580.81989 148.832967 
L 581.174263 148.360939 
L 581.646074 147.314011 
L 582.295071 145.212596 
L 583.121254 141.749549 
L 585.30518 132.422985 
L 585.83674 131.143077 
L 586.191113 130.720189 
L 586.485737 130.681822 
L 586.721642 130.880386 
L 587.017296 131.440563 
L 587.370639 132.605275 
L 587.784761 134.689095 
L 588.31529 138.569038 
L 588.964287 145.146427 
L 589.731751 155.279889 
L 590.971026 175.193496 
L 592.505956 198.879146 
L 593.154953 205.872789 
L 593.626763 209.121585 
L 593.981136 210.400435 
L 594.217041 210.676432 
L 594.394228 210.578605 
L 594.630133 210.046495 
L 594.925787 208.755436 
L 595.338879 205.8592 
L 595.929157 199.831498 
L 596.75534 188.714518 
L 598.643612 158.930254 
L 601.063444 121.90831 
L 602.775559 98.385843 
L 603.424556 91.87742 
L 603.778929 90.18209 
L 603.955086 90.10579 
L 604.132272 90.55854 
L 604.427926 92.203709 
L 605.018204 96.962673 
L 605.018204 96.962673 
" style="fill:none;stroke:#000000;stroke-linecap:square;stroke-width:2;"/>
   </g>
   <g id="patch_3">
    <path d="M 90 384.48 
L 90 51.84 
" style="fill:none;stroke:#000000;stroke-linecap:square;stroke-linejoin:miter;stroke-width:0.8;"/>
   </g>
   <g id="patch_4">
    <path d="M 648 384.48 
L 648 51.84 
" style="fill:none;stroke:#000000;stroke-linecap:square;stroke-linejoin:miter;stroke-width:0.8;"/>
   </g>
   <g id="patch_5">
    <path d="M 90 384.48 
L 648 384.48 
" style="fill:none;stroke:#000000;stroke-linecap:square;stroke-linejoin:miter;stroke-width:0.8;"/>
   </g>
   <g id="patch_6">
    <path d="M 90 51.84 
L 648 51.84 
" style="fill:none;stroke:#000000;stroke-linecap:square;stroke-linejoin:miter;stroke-width:0.8;"/>
   </g>
   <g id="text_18">
    <!-- Periodogram: 2003 RP8 -->
    <g transform="translate(267.848944 45.84)scale(0.21 -0.21)">
     <defs>
      <path d="M 1267 2042 
L 2291 2042 
C 3117 2042 3718 2578 3718 3184 
C 3718 3791 3130 4352 2291 4352 
L 333 4352 
L 333 4186 
C 774 4186 845 4186 845 3899 
L 845 446 
C 845 160 774 160 333 160 
L 333 0 
C 518 0 858 0 1056 0 
C 1254 0 1594 0 1779 0 
L 1779 160 
C 1338 160 1267 160 1267 446 
L 1267 2042 
z
M 1254 2176 
L 1254 3938 
C 1254 4155 1267 4186 1523 4186 
L 2170 4186 
C 2995 4186 3232 3714 3232 3184 
C 3232 2604 2950 2176 2170 2176 
L 1254 2176 
z
" id="CMR17-50" transform="scale(0.015625)"/>
      <path d="M 2438 1472 
C 2464 1498 2464 1511 2464 1576 
C 2464 2238 2118 2816 1389 2816 
C 710 2816 173 2169 173 1383 
C 173 551 781 -64 1459 -64 
C 2176 -64 2458 607 2458 740 
C 2458 784 2419 784 2406 784 
C 2362 784 2355 771 2330 696 
C 2189 265 1837 51 1504 51 
C 1229 51 954 203 781 480 
C 582 803 582 1176 582 1472 
L 2438 1472 
z
M 589 1568 
C 634 2505 1126 2714 1382 2714 
C 1818 2714 2112 2297 2118 1568 
L 589 1568 
z
" id="CMR17-65" transform="scale(0.015625)"/>
      <path d="M 992 3909 
C 992 4049 877 4170 730 4170 
C 589 4170 467 4056 467 3909 
C 467 3769 582 3648 730 3648 
C 870 3648 992 3763 992 3909 
z
M 243 2706 
L 243 2541 
C 602 2541 653 2502 653 2197 
L 653 427 
C 653 184 627 153 218 153 
L 218 -13 
C 371 0 646 0 806 0 
C 960 0 1222 0 1370 -13 
L 1370 153 
C 992 153 979 191 979 420 
L 979 2776 
L 243 2706 
z
" id="CMR17-69" transform="scale(0.015625)"/>
      <path d="M 1869 4326 
L 1869 4160 
C 2246 4160 2304 4122 2304 3820 
L 2304 2345 
C 2278 2377 2016 2790 1498 2790 
C 845 2790 211 2208 211 1364 
C 211 525 806 -64 1434 -64 
C 1978 -64 2259 337 2291 380 
L 2291 -63 
L 3066 -63 
L 3066 128 
C 2688 128 2630 166 2630 473 
L 2630 4396 
L 1869 4326 
z
M 2291 755 
C 2291 563 2176 390 2029 262 
C 1811 70 1594 38 1472 38 
C 1286 38 621 134 621 1356 
C 621 2612 1363 2688 1530 2688 
C 1824 2688 2061 2522 2208 2291 
C 2291 2157 2291 2138 2291 2023 
L 2291 755 
z
" id="CMR17-64" transform="scale(0.015625)"/>
      <path d="M 4326 1933 
C 4326 2252 4269 2790 3507 2790 
C 3072 2790 2771 2496 2656 2151 
L 2650 2151 
C 2573 2676 2195 2790 1837 2790 
C 1331 2790 1069 2400 973 2144 
L 966 2144 
L 966 2790 
L 211 2720 
L 211 2554 
C 589 2554 646 2515 646 2208 
L 646 428 
C 646 184 621 153 211 153 
L 211 -13 
C 365 0 646 0 813 0 
C 979 0 1267 0 1421 -13 
L 1421 153 
C 1011 153 986 178 986 428 
L 986 1658 
C 986 2247 1344 2688 1792 2688 
C 2266 2688 2317 2266 2317 1958 
L 2317 428 
C 2317 184 2291 153 1882 153 
L 1882 -13 
C 2035 0 2317 0 2483 0 
C 2650 0 2938 0 3091 -13 
L 3091 153 
C 2682 153 2656 178 2656 428 
L 2656 1658 
C 2656 2247 3014 2688 3462 2688 
C 3936 2688 3987 2266 3987 1958 
L 3987 428 
C 3987 184 3962 153 3552 153 
L 3552 -13 
C 3706 0 3987 0 4154 0 
C 4320 0 4608 0 4762 -13 
L 4762 153 
C 4352 153 4326 178 4326 428 
L 4326 1933 
z
" id="CMR17-6d" transform="scale(0.015625)"/>
      <path d="M 1062 2491 
C 1062 2650 934 2752 800 2752 
C 672 2752 538 2650 538 2491 
C 538 2332 666 2230 800 2230 
C 928 2230 1062 2332 1062 2491 
z
M 1062 261 
C 1062 420 934 522 800 522 
C 672 522 538 420 538 261 
C 538 102 666 0 800 0 
C 928 0 1062 102 1062 261 
z
" id="CMR17-3a" transform="scale(0.015625)"/>
      <path d="M 1414 2157 
C 1984 2157 2234 1662 2234 1090 
C 2234 320 1824 25 1453 25 
C 1114 25 563 194 390 693 
C 422 680 454 680 486 680 
C 640 680 755 782 755 948 
C 755 1133 614 1216 486 1216 
C 378 1216 211 1165 211 926 
C 211 335 787 -128 1466 -128 
C 2176 -128 2720 430 2720 1085 
C 2720 1707 2208 2157 1600 2227 
C 2086 2328 2554 2756 2554 3329 
C 2554 3820 2048 4179 1472 4179 
C 890 4179 378 3829 378 3329 
C 378 3110 544 3072 627 3072 
C 762 3072 877 3155 877 3321 
C 877 3486 762 3569 627 3569 
C 602 3569 570 3569 544 3557 
C 730 3959 1235 4032 1459 4032 
C 1683 4032 2106 3925 2106 3320 
C 2106 3143 2080 2828 1862 2550 
C 1670 2304 1453 2304 1242 2284 
C 1210 2284 1062 2269 1037 2269 
C 992 2263 966 2257 966 2208 
C 966 2163 973 2157 1101 2157 
L 1414 2157 
z
" id="CMR17-33" transform="scale(0.015625)"/>
     </defs>
     <use transform="scale(0.996264)" xlink:href="#CMR17-50"/>
     <use transform="translate(59.983847 0)scale(0.996264)" xlink:href="#CMR17-65"/>
     <use transform="translate(100.469507 0)scale(0.996264)" xlink:href="#CMR17-72"/>
     <use transform="translate(135.750275 0)scale(0.996264)" xlink:href="#CMR17-69"/>
     <use transform="translate(160.621333 0)scale(0.996264)" xlink:href="#CMR17-6f"/>
     <use transform="translate(208.914249 0)scale(0.996264)" xlink:href="#CMR17-64"/>
     <use transform="translate(259.809619 0)scale(0.996264)" xlink:href="#CMR17-6f"/>
     <use transform="translate(305.500096 0)scale(0.996264)" xlink:href="#CMR17-67"/>
     <use transform="translate(351.190573 0)scale(0.996264)" xlink:href="#CMR17-72"/>
     <use transform="translate(386.471341 0)scale(0.996264)" xlink:href="#CMR17-61"/>
     <use transform="translate(432.161818 0)scale(0.996264)" xlink:href="#CMR17-6d"/>
     <use transform="translate(509.081408 0)scale(0.996264)" xlink:href="#CMR17-3a"/>
     <use transform="translate(574.438127 0)scale(0.996264)" xlink:href="#CMR17-32"/>
     <use transform="translate(620.128604 0)scale(0.996264)" xlink:href="#CMR17-30"/>
     <use transform="translate(665.819081 0)scale(0.996264)" xlink:href="#CMR17-30"/>
     <use transform="translate(711.509558 0)scale(0.996264)" xlink:href="#CMR17-33"/>
     <use transform="translate(787.276002 0)scale(0.996264)" xlink:href="#CMR17-52"/>
     <use transform="translate(855.067104 0)scale(0.996264)" xlink:href="#CMR17-50"/>
     <use transform="translate(917.653404 0)scale(0.996264)" xlink:href="#CMR17-38"/>
    </g>
   </g>
  </g>
 </g>
 <defs>
  <clipPath id="pf11bf7214f">
   <rect height="332.64" width="558" x="90" y="51.84"/>
  </clipPath>
 </defs>
</svg>
