<?xml version="1.0" encoding="utf-8" standalone="no"?>
<!DOCTYPE svg PUBLIC "-//W3C//DTD SVG 1.1//EN"
  "http://www.w3.org/Graphics/SVG/1.1/DTD/svg11.dtd">
<svg height="504pt" version="1.1" viewBox="0 0 720 504" width="720pt" xmlns="http://www.w3.org/2000/svg" xmlns:xlink="http://www.w3.org/1999/xlink">
 <metadata>
  <rdf:RDF xmlns:cc="http://creativecommons.org/ns#" xmlns:dc="http://purl.org/dc/elements/1.1/" xmlns:rdf="http://www.w3.org/1999/02/22-rdf-syntax-ns#">
   <cc:Work>
    <dc:type rdf:resource="http://purl.org/dc/dcmitype/StillImage"/>
    <dc:date>2021-09-06T13:22:29.623662</dc:date>
    <dc:format>image/svg+xml</dc:format>
    <dc:creator>
     <cc:Agent>
      <dc:title>Matplotlib v3.4.2, https://matplotlib.org/</dc:title>
     </cc:Agent>
    </dc:creator>
   </cc:Work>
  </rdf:RDF>
 </metadata>
 <defs>
  <style type="text/css">*{stroke-linecap:butt;stroke-linejoin:round;}</style>
 </defs>
 <g id="figure_1">
  <g id="patch_1">
   <path d="M 0 504 
L 720 504 
L 720 0 
L 0 0 
z
" style="fill:#ffffff;"/>
  </g>
  <g id="axes_1">
   <g id="patch_2">
    <path d="M 90 448.56 
L 648 448.56 
L 648 60.48 
L 90 60.48 
z
" style="fill:#ffffff;"/>
   </g>
   <g id="matplotlib.axis_1">
    <g id="xtick_1">
     <g id="line2d_1">
      <path clip-path="url(#pf4b15524bd)" d="M 90 448.56 
L 90 60.48 
" style="fill:none;stroke:#808080;stroke-linecap:square;stroke-width:0.4;"/>
     </g>
     <g id="line2d_2">
      <defs>
       <path d="M 0 0 
L 0 -3.5 
" id="m0a4d0314a6" style="stroke:#000000;stroke-width:0.8;"/>
      </defs>
      <g>
       <use style="stroke:#000000;stroke-width:0.8;" x="90" xlink:href="#m0a4d0314a6" y="448.56"/>
      </g>
     </g>
     <g id="line2d_3">
      <defs>
       <path d="M 0 0 
L 0 3.5 
" id="me01eff21e9" style="stroke:#000000;stroke-width:0.8;"/>
      </defs>
      <g>
       <use style="stroke:#000000;stroke-width:0.8;" x="90" xlink:href="#me01eff21e9" y="60.48"/>
      </g>
     </g>
     <g id="text_1">
      <!-- $\mathdefault{3.50}$ -->
      <g transform="translate(76.993355 462.437725)scale(0.15 -0.15)">
       <defs>
        <path d="M 1414 2157 
C 1984 2157 2234 1662 2234 1090 
C 2234 320 1824 25 1453 25 
C 1114 25 563 194 390 693 
C 422 680 454 680 486 680 
C 640 680 755 782 755 948 
C 755 1133 614 1216 486 1216 
C 378 1216 211 1165 211 926 
C 211 335 787 -128 1466 -128 
C 2176 -128 2720 430 2720 1085 
C 2720 1707 2208 2157 1600 2227 
C 2086 2328 2554 2756 2554 3329 
C 2554 3820 2048 4179 1472 4179 
C 890 4179 378 3829 378 3329 
C 378 3110 544 3072 627 3072 
C 762 3072 877 3155 877 3321 
C 877 3486 762 3569 627 3569 
C 602 3569 570 3569 544 3557 
C 730 3959 1235 4032 1459 4032 
C 1683 4032 2106 3925 2106 3320 
C 2106 3143 2080 2828 1862 2550 
C 1670 2304 1453 2304 1242 2284 
C 1210 2284 1062 2269 1037 2269 
C 992 2263 966 2257 966 2208 
C 966 2163 973 2157 1101 2157 
L 1414 2157 
z
" id="CMR17-33" transform="scale(0.015625)"/>
        <path d="M 1178 307 
C 1178 492 1024 619 870 619 
C 685 619 557 466 557 313 
C 557 128 710 0 864 0 
C 1050 0 1178 153 1178 307 
z
" id="CMMI12-3a" transform="scale(0.015625)"/>
        <path d="M 730 3692 
C 794 3666 1056 3584 1325 3584 
C 1920 3584 2246 3911 2432 4100 
C 2432 4157 2432 4192 2394 4192 
C 2387 4192 2374 4192 2323 4163 
C 2099 4058 1837 3973 1517 3973 
C 1325 3973 1037 3999 723 4139 
C 653 4171 640 4171 634 4171 
C 602 4171 595 4164 595 4037 
L 595 2203 
C 595 2089 595 2057 659 2057 
C 691 2057 704 2070 736 2114 
C 941 2401 1222 2522 1542 2522 
C 1766 2522 2246 2382 2246 1289 
C 2246 1085 2246 715 2054 421 
C 1894 159 1645 25 1370 25 
C 947 25 518 320 403 814 
C 429 807 480 795 506 795 
C 589 795 749 840 749 1038 
C 749 1210 627 1280 506 1280 
C 358 1280 262 1190 262 1011 
C 262 454 704 -128 1382 -128 
C 2042 -128 2669 440 2669 1264 
C 2669 2030 2170 2624 1549 2624 
C 1222 2624 947 2503 730 2274 
L 730 3692 
z
" id="CMR17-35" transform="scale(0.015625)"/>
        <path d="M 2688 2025 
C 2688 2416 2682 3080 2413 3591 
C 2176 4039 1798 4198 1466 4198 
C 1158 4198 768 4058 525 3597 
C 269 3118 243 2524 243 2025 
C 243 1661 250 1106 448 619 
C 723 -39 1216 -128 1466 -128 
C 1760 -128 2208 -7 2470 600 
C 2662 1042 2688 1559 2688 2025 
z
M 1466 -26 
C 1056 -26 813 325 723 812 
C 653 1188 653 1738 653 2096 
C 653 2588 653 2997 736 3387 
C 858 3929 1216 4096 1466 4096 
C 1728 4096 2067 3923 2189 3400 
C 2272 3036 2278 2607 2278 2096 
C 2278 1680 2278 1169 2202 792 
C 2067 95 1690 -26 1466 -26 
z
" id="CMR17-30" transform="scale(0.015625)"/>
       </defs>
       <use transform="scale(0.996264)" xlink:href="#CMR17-33"/>
       <use transform="translate(45.690477 0)scale(0.996264)" xlink:href="#CMMI12-3a"/>
       <use transform="translate(72.787654 0)scale(0.996264)" xlink:href="#CMR17-35"/>
       <use transform="translate(118.478131 0)scale(0.996264)" xlink:href="#CMR17-30"/>
      </g>
     </g>
    </g>
    <g id="xtick_2">
     <g id="line2d_4">
      <path clip-path="url(#pf4b15524bd)" d="M 159.75 448.56 
L 159.75 60.48 
" style="fill:none;stroke:#808080;stroke-linecap:square;stroke-width:0.4;"/>
     </g>
     <g id="line2d_5">
      <g>
       <use style="stroke:#000000;stroke-width:0.8;" x="159.75" xlink:href="#m0a4d0314a6" y="448.56"/>
      </g>
     </g>
     <g id="line2d_6">
      <g>
       <use style="stroke:#000000;stroke-width:0.8;" x="159.75" xlink:href="#me01eff21e9" y="60.48"/>
      </g>
     </g>
     <g id="text_2">
      <!-- $\mathdefault{3.75}$ -->
      <g transform="translate(146.743355 462.437725)scale(0.15 -0.15)">
       <defs>
        <path d="M 2886 3941 
L 2886 4081 
L 1382 4081 
C 634 4081 621 4165 595 4288 
L 480 4288 
L 294 3094 
L 410 3094 
C 429 3215 474 3540 550 3661 
C 589 3712 1062 3712 1171 3712 
L 2579 3712 
L 1869 2661 
C 1395 1954 1069 999 1069 165 
C 1069 89 1069 -128 1299 -128 
C 1530 -128 1530 89 1530 171 
L 1530 465 
C 1530 1508 1709 2196 2003 2636 
L 2886 3941 
z
" id="CMR17-37" transform="scale(0.015625)"/>
       </defs>
       <use transform="scale(0.996264)" xlink:href="#CMR17-33"/>
       <use transform="translate(45.690477 0)scale(0.996264)" xlink:href="#CMMI12-3a"/>
       <use transform="translate(72.787654 0)scale(0.996264)" xlink:href="#CMR17-37"/>
       <use transform="translate(118.478131 0)scale(0.996264)" xlink:href="#CMR17-35"/>
      </g>
     </g>
    </g>
    <g id="xtick_3">
     <g id="line2d_7">
      <path clip-path="url(#pf4b15524bd)" d="M 229.5 448.56 
L 229.5 60.48 
" style="fill:none;stroke:#808080;stroke-linecap:square;stroke-width:0.4;"/>
     </g>
     <g id="line2d_8">
      <g>
       <use style="stroke:#000000;stroke-width:0.8;" x="229.5" xlink:href="#m0a4d0314a6" y="448.56"/>
      </g>
     </g>
     <g id="line2d_9">
      <g>
       <use style="stroke:#000000;stroke-width:0.8;" x="229.5" xlink:href="#me01eff21e9" y="60.48"/>
      </g>
     </g>
     <g id="text_3">
      <!-- $\mathdefault{4.00}$ -->
      <g transform="translate(216.493355 462.437725)scale(0.15 -0.15)">
       <defs>
        <path d="M 2150 4122 
C 2150 4256 2144 4256 2029 4256 
L 128 1254 
L 128 1088 
L 1779 1088 
L 1779 457 
C 1779 224 1766 160 1318 160 
L 1197 160 
L 1197 0 
C 1402 0 1747 0 1965 0 
C 2182 0 2528 0 2733 0 
L 2733 160 
L 2611 160 
C 2163 160 2150 224 2150 457 
L 2150 1088 
L 2803 1088 
L 2803 1254 
L 2150 1254 
L 2150 4122 
z
M 1798 3703 
L 1798 1254 
L 256 1254 
L 1798 3703 
z
" id="CMR17-34" transform="scale(0.015625)"/>
       </defs>
       <use transform="scale(0.996264)" xlink:href="#CMR17-34"/>
       <use transform="translate(45.690477 0)scale(0.996264)" xlink:href="#CMMI12-3a"/>
       <use transform="translate(72.787654 0)scale(0.996264)" xlink:href="#CMR17-30"/>
       <use transform="translate(118.478131 0)scale(0.996264)" xlink:href="#CMR17-30"/>
      </g>
     </g>
    </g>
    <g id="xtick_4">
     <g id="line2d_10">
      <path clip-path="url(#pf4b15524bd)" d="M 299.25 448.56 
L 299.25 60.48 
" style="fill:none;stroke:#808080;stroke-linecap:square;stroke-width:0.4;"/>
     </g>
     <g id="line2d_11">
      <g>
       <use style="stroke:#000000;stroke-width:0.8;" x="299.25" xlink:href="#m0a4d0314a6" y="448.56"/>
      </g>
     </g>
     <g id="line2d_12">
      <g>
       <use style="stroke:#000000;stroke-width:0.8;" x="299.25" xlink:href="#me01eff21e9" y="60.48"/>
      </g>
     </g>
     <g id="text_4">
      <!-- $\mathdefault{4.25}$ -->
      <g transform="translate(286.243355 462.437725)scale(0.15 -0.15)">
       <defs>
        <path d="M 2669 989 
L 2554 989 
C 2490 536 2438 459 2413 420 
C 2381 369 1920 369 1830 369 
L 602 369 
C 832 619 1280 1072 1824 1597 
C 2214 1967 2669 2402 2669 3035 
C 2669 3790 2067 4224 1395 4224 
C 691 4224 262 3604 262 3030 
C 262 2780 448 2748 525 2748 
C 589 2748 781 2787 781 3010 
C 781 3207 614 3264 525 3264 
C 486 3264 448 3258 422 3245 
C 544 3790 915 4058 1306 4058 
C 1862 4058 2227 3617 2227 3035 
C 2227 2479 1901 2000 1536 1584 
L 262 146 
L 262 0 
L 2515 0 
L 2669 989 
z
" id="CMR17-32" transform="scale(0.015625)"/>
       </defs>
       <use transform="scale(0.996264)" xlink:href="#CMR17-34"/>
       <use transform="translate(45.690477 0)scale(0.996264)" xlink:href="#CMMI12-3a"/>
       <use transform="translate(72.787654 0)scale(0.996264)" xlink:href="#CMR17-32"/>
       <use transform="translate(118.478131 0)scale(0.996264)" xlink:href="#CMR17-35"/>
      </g>
     </g>
    </g>
    <g id="xtick_5">
     <g id="line2d_13">
      <path clip-path="url(#pf4b15524bd)" d="M 369 448.56 
L 369 60.48 
" style="fill:none;stroke:#808080;stroke-linecap:square;stroke-width:0.4;"/>
     </g>
     <g id="line2d_14">
      <g>
       <use style="stroke:#000000;stroke-width:0.8;" x="369" xlink:href="#m0a4d0314a6" y="448.56"/>
      </g>
     </g>
     <g id="line2d_15">
      <g>
       <use style="stroke:#000000;stroke-width:0.8;" x="369" xlink:href="#me01eff21e9" y="60.48"/>
      </g>
     </g>
     <g id="text_5">
      <!-- $\mathdefault{4.50}$ -->
      <g transform="translate(355.993355 462.437725)scale(0.15 -0.15)">
       <use transform="scale(0.996264)" xlink:href="#CMR17-34"/>
       <use transform="translate(45.690477 0)scale(0.996264)" xlink:href="#CMMI12-3a"/>
       <use transform="translate(72.787654 0)scale(0.996264)" xlink:href="#CMR17-35"/>
       <use transform="translate(118.478131 0)scale(0.996264)" xlink:href="#CMR17-30"/>
      </g>
     </g>
    </g>
    <g id="xtick_6">
     <g id="line2d_16">
      <path clip-path="url(#pf4b15524bd)" d="M 438.75 448.56 
L 438.75 60.48 
" style="fill:none;stroke:#808080;stroke-linecap:square;stroke-width:0.4;"/>
     </g>
     <g id="line2d_17">
      <g>
       <use style="stroke:#000000;stroke-width:0.8;" x="438.75" xlink:href="#m0a4d0314a6" y="448.56"/>
      </g>
     </g>
     <g id="line2d_18">
      <g>
       <use style="stroke:#000000;stroke-width:0.8;" x="438.75" xlink:href="#me01eff21e9" y="60.48"/>
      </g>
     </g>
     <g id="text_6">
      <!-- $\mathdefault{4.75}$ -->
      <g transform="translate(425.743355 462.437725)scale(0.15 -0.15)">
       <use transform="scale(0.996264)" xlink:href="#CMR17-34"/>
       <use transform="translate(45.690477 0)scale(0.996264)" xlink:href="#CMMI12-3a"/>
       <use transform="translate(72.787654 0)scale(0.996264)" xlink:href="#CMR17-37"/>
       <use transform="translate(118.478131 0)scale(0.996264)" xlink:href="#CMR17-35"/>
      </g>
     </g>
    </g>
    <g id="xtick_7">
     <g id="line2d_19">
      <path clip-path="url(#pf4b15524bd)" d="M 508.5 448.56 
L 508.5 60.48 
" style="fill:none;stroke:#808080;stroke-linecap:square;stroke-width:0.4;"/>
     </g>
     <g id="line2d_20">
      <g>
       <use style="stroke:#000000;stroke-width:0.8;" x="508.5" xlink:href="#m0a4d0314a6" y="448.56"/>
      </g>
     </g>
     <g id="line2d_21">
      <g>
       <use style="stroke:#000000;stroke-width:0.8;" x="508.5" xlink:href="#me01eff21e9" y="60.48"/>
      </g>
     </g>
     <g id="text_7">
      <!-- $\mathdefault{5.00}$ -->
      <g transform="translate(495.493355 462.437725)scale(0.15 -0.15)">
       <use transform="scale(0.996264)" xlink:href="#CMR17-35"/>
       <use transform="translate(45.690477 0)scale(0.996264)" xlink:href="#CMMI12-3a"/>
       <use transform="translate(72.787654 0)scale(0.996264)" xlink:href="#CMR17-30"/>
       <use transform="translate(118.478131 0)scale(0.996264)" xlink:href="#CMR17-30"/>
      </g>
     </g>
    </g>
    <g id="xtick_8">
     <g id="line2d_22">
      <path clip-path="url(#pf4b15524bd)" d="M 578.25 448.56 
L 578.25 60.48 
" style="fill:none;stroke:#808080;stroke-linecap:square;stroke-width:0.4;"/>
     </g>
     <g id="line2d_23">
      <g>
       <use style="stroke:#000000;stroke-width:0.8;" x="578.25" xlink:href="#m0a4d0314a6" y="448.56"/>
      </g>
     </g>
     <g id="line2d_24">
      <g>
       <use style="stroke:#000000;stroke-width:0.8;" x="578.25" xlink:href="#me01eff21e9" y="60.48"/>
      </g>
     </g>
     <g id="text_8">
      <!-- $\mathdefault{5.25}$ -->
      <g transform="translate(565.243355 462.437725)scale(0.15 -0.15)">
       <use transform="scale(0.996264)" xlink:href="#CMR17-35"/>
       <use transform="translate(45.690477 0)scale(0.996264)" xlink:href="#CMMI12-3a"/>
       <use transform="translate(72.787654 0)scale(0.996264)" xlink:href="#CMR17-32"/>
       <use transform="translate(118.478131 0)scale(0.996264)" xlink:href="#CMR17-35"/>
      </g>
     </g>
    </g>
    <g id="xtick_9">
     <g id="line2d_25">
      <path clip-path="url(#pf4b15524bd)" d="M 648 448.56 
L 648 60.48 
" style="fill:none;stroke:#808080;stroke-linecap:square;stroke-width:0.4;"/>
     </g>
     <g id="line2d_26">
      <g>
       <use style="stroke:#000000;stroke-width:0.8;" x="648" xlink:href="#m0a4d0314a6" y="448.56"/>
      </g>
     </g>
     <g id="line2d_27">
      <g>
       <use style="stroke:#000000;stroke-width:0.8;" x="648" xlink:href="#me01eff21e9" y="60.48"/>
      </g>
     </g>
     <g id="text_9">
      <!-- $\mathdefault{5.50}$ -->
      <g transform="translate(634.993355 462.437725)scale(0.15 -0.15)">
       <use transform="scale(0.996264)" xlink:href="#CMR17-35"/>
       <use transform="translate(45.690477 0)scale(0.996264)" xlink:href="#CMMI12-3a"/>
       <use transform="translate(72.787654 0)scale(0.996264)" xlink:href="#CMR17-35"/>
       <use transform="translate(118.478131 0)scale(0.996264)" xlink:href="#CMR17-30"/>
      </g>
     </g>
    </g>
    <g id="xtick_10">
     <g id="line2d_28">
      <path clip-path="url(#pf4b15524bd)" d="M 103.95 448.56 
L 103.95 60.48 
" style="fill:none;stroke:#808080;stroke-dasharray:0.74,0.32;stroke-dashoffset:0;stroke-width:0.2;"/>
     </g>
     <g id="line2d_29">
      <defs>
       <path d="M 0 0 
L 0 -2 
" id="m1e049bc071" style="stroke:#000000;stroke-width:0.6;"/>
      </defs>
      <g>
       <use style="stroke:#000000;stroke-width:0.6;" x="103.95" xlink:href="#m1e049bc071" y="448.56"/>
      </g>
     </g>
     <g id="line2d_30">
      <defs>
       <path d="M 0 0 
L 0 2 
" id="mcb6b57efeb" style="stroke:#000000;stroke-width:0.6;"/>
      </defs>
      <g>
       <use style="stroke:#000000;stroke-width:0.6;" x="103.95" xlink:href="#mcb6b57efeb" y="60.48"/>
      </g>
     </g>
    </g>
    <g id="xtick_11">
     <g id="line2d_31">
      <path clip-path="url(#pf4b15524bd)" d="M 117.9 448.56 
L 117.9 60.48 
" style="fill:none;stroke:#808080;stroke-dasharray:0.74,0.32;stroke-dashoffset:0;stroke-width:0.2;"/>
     </g>
     <g id="line2d_32">
      <g>
       <use style="stroke:#000000;stroke-width:0.6;" x="117.9" xlink:href="#m1e049bc071" y="448.56"/>
      </g>
     </g>
     <g id="line2d_33">
      <g>
       <use style="stroke:#000000;stroke-width:0.6;" x="117.9" xlink:href="#mcb6b57efeb" y="60.48"/>
      </g>
     </g>
    </g>
    <g id="xtick_12">
     <g id="line2d_34">
      <path clip-path="url(#pf4b15524bd)" d="M 131.85 448.56 
L 131.85 60.48 
" style="fill:none;stroke:#808080;stroke-dasharray:0.74,0.32;stroke-dashoffset:0;stroke-width:0.2;"/>
     </g>
     <g id="line2d_35">
      <g>
       <use style="stroke:#000000;stroke-width:0.6;" x="131.85" xlink:href="#m1e049bc071" y="448.56"/>
      </g>
     </g>
     <g id="line2d_36">
      <g>
       <use style="stroke:#000000;stroke-width:0.6;" x="131.85" xlink:href="#mcb6b57efeb" y="60.48"/>
      </g>
     </g>
    </g>
    <g id="xtick_13">
     <g id="line2d_37">
      <path clip-path="url(#pf4b15524bd)" d="M 145.8 448.56 
L 145.8 60.48 
" style="fill:none;stroke:#808080;stroke-dasharray:0.74,0.32;stroke-dashoffset:0;stroke-width:0.2;"/>
     </g>
     <g id="line2d_38">
      <g>
       <use style="stroke:#000000;stroke-width:0.6;" x="145.8" xlink:href="#m1e049bc071" y="448.56"/>
      </g>
     </g>
     <g id="line2d_39">
      <g>
       <use style="stroke:#000000;stroke-width:0.6;" x="145.8" xlink:href="#mcb6b57efeb" y="60.48"/>
      </g>
     </g>
    </g>
    <g id="xtick_14">
     <g id="line2d_40">
      <path clip-path="url(#pf4b15524bd)" d="M 173.7 448.56 
L 173.7 60.48 
" style="fill:none;stroke:#808080;stroke-dasharray:0.74,0.32;stroke-dashoffset:0;stroke-width:0.2;"/>
     </g>
     <g id="line2d_41">
      <g>
       <use style="stroke:#000000;stroke-width:0.6;" x="173.7" xlink:href="#m1e049bc071" y="448.56"/>
      </g>
     </g>
     <g id="line2d_42">
      <g>
       <use style="stroke:#000000;stroke-width:0.6;" x="173.7" xlink:href="#mcb6b57efeb" y="60.48"/>
      </g>
     </g>
    </g>
    <g id="xtick_15">
     <g id="line2d_43">
      <path clip-path="url(#pf4b15524bd)" d="M 187.65 448.56 
L 187.65 60.48 
" style="fill:none;stroke:#808080;stroke-dasharray:0.74,0.32;stroke-dashoffset:0;stroke-width:0.2;"/>
     </g>
     <g id="line2d_44">
      <g>
       <use style="stroke:#000000;stroke-width:0.6;" x="187.65" xlink:href="#m1e049bc071" y="448.56"/>
      </g>
     </g>
     <g id="line2d_45">
      <g>
       <use style="stroke:#000000;stroke-width:0.6;" x="187.65" xlink:href="#mcb6b57efeb" y="60.48"/>
      </g>
     </g>
    </g>
    <g id="xtick_16">
     <g id="line2d_46">
      <path clip-path="url(#pf4b15524bd)" d="M 201.6 448.56 
L 201.6 60.48 
" style="fill:none;stroke:#808080;stroke-dasharray:0.74,0.32;stroke-dashoffset:0;stroke-width:0.2;"/>
     </g>
     <g id="line2d_47">
      <g>
       <use style="stroke:#000000;stroke-width:0.6;" x="201.6" xlink:href="#m1e049bc071" y="448.56"/>
      </g>
     </g>
     <g id="line2d_48">
      <g>
       <use style="stroke:#000000;stroke-width:0.6;" x="201.6" xlink:href="#mcb6b57efeb" y="60.48"/>
      </g>
     </g>
    </g>
    <g id="xtick_17">
     <g id="line2d_49">
      <path clip-path="url(#pf4b15524bd)" d="M 215.55 448.56 
L 215.55 60.48 
" style="fill:none;stroke:#808080;stroke-dasharray:0.74,0.32;stroke-dashoffset:0;stroke-width:0.2;"/>
     </g>
     <g id="line2d_50">
      <g>
       <use style="stroke:#000000;stroke-width:0.6;" x="215.55" xlink:href="#m1e049bc071" y="448.56"/>
      </g>
     </g>
     <g id="line2d_51">
      <g>
       <use style="stroke:#000000;stroke-width:0.6;" x="215.55" xlink:href="#mcb6b57efeb" y="60.48"/>
      </g>
     </g>
    </g>
    <g id="xtick_18">
     <g id="line2d_52">
      <path clip-path="url(#pf4b15524bd)" d="M 243.45 448.56 
L 243.45 60.48 
" style="fill:none;stroke:#808080;stroke-dasharray:0.74,0.32;stroke-dashoffset:0;stroke-width:0.2;"/>
     </g>
     <g id="line2d_53">
      <g>
       <use style="stroke:#000000;stroke-width:0.6;" x="243.45" xlink:href="#m1e049bc071" y="448.56"/>
      </g>
     </g>
     <g id="line2d_54">
      <g>
       <use style="stroke:#000000;stroke-width:0.6;" x="243.45" xlink:href="#mcb6b57efeb" y="60.48"/>
      </g>
     </g>
    </g>
    <g id="xtick_19">
     <g id="line2d_55">
      <path clip-path="url(#pf4b15524bd)" d="M 257.4 448.56 
L 257.4 60.48 
" style="fill:none;stroke:#808080;stroke-dasharray:0.74,0.32;stroke-dashoffset:0;stroke-width:0.2;"/>
     </g>
     <g id="line2d_56">
      <g>
       <use style="stroke:#000000;stroke-width:0.6;" x="257.4" xlink:href="#m1e049bc071" y="448.56"/>
      </g>
     </g>
     <g id="line2d_57">
      <g>
       <use style="stroke:#000000;stroke-width:0.6;" x="257.4" xlink:href="#mcb6b57efeb" y="60.48"/>
      </g>
     </g>
    </g>
    <g id="xtick_20">
     <g id="line2d_58">
      <path clip-path="url(#pf4b15524bd)" d="M 271.35 448.56 
L 271.35 60.48 
" style="fill:none;stroke:#808080;stroke-dasharray:0.74,0.32;stroke-dashoffset:0;stroke-width:0.2;"/>
     </g>
     <g id="line2d_59">
      <g>
       <use style="stroke:#000000;stroke-width:0.6;" x="271.35" xlink:href="#m1e049bc071" y="448.56"/>
      </g>
     </g>
     <g id="line2d_60">
      <g>
       <use style="stroke:#000000;stroke-width:0.6;" x="271.35" xlink:href="#mcb6b57efeb" y="60.48"/>
      </g>
     </g>
    </g>
    <g id="xtick_21">
     <g id="line2d_61">
      <path clip-path="url(#pf4b15524bd)" d="M 285.3 448.56 
L 285.3 60.48 
" style="fill:none;stroke:#808080;stroke-dasharray:0.74,0.32;stroke-dashoffset:0;stroke-width:0.2;"/>
     </g>
     <g id="line2d_62">
      <g>
       <use style="stroke:#000000;stroke-width:0.6;" x="285.3" xlink:href="#m1e049bc071" y="448.56"/>
      </g>
     </g>
     <g id="line2d_63">
      <g>
       <use style="stroke:#000000;stroke-width:0.6;" x="285.3" xlink:href="#mcb6b57efeb" y="60.48"/>
      </g>
     </g>
    </g>
    <g id="xtick_22">
     <g id="line2d_64">
      <path clip-path="url(#pf4b15524bd)" d="M 313.2 448.56 
L 313.2 60.48 
" style="fill:none;stroke:#808080;stroke-dasharray:0.74,0.32;stroke-dashoffset:0;stroke-width:0.2;"/>
     </g>
     <g id="line2d_65">
      <g>
       <use style="stroke:#000000;stroke-width:0.6;" x="313.2" xlink:href="#m1e049bc071" y="448.56"/>
      </g>
     </g>
     <g id="line2d_66">
      <g>
       <use style="stroke:#000000;stroke-width:0.6;" x="313.2" xlink:href="#mcb6b57efeb" y="60.48"/>
      </g>
     </g>
    </g>
    <g id="xtick_23">
     <g id="line2d_67">
      <path clip-path="url(#pf4b15524bd)" d="M 327.15 448.56 
L 327.15 60.48 
" style="fill:none;stroke:#808080;stroke-dasharray:0.74,0.32;stroke-dashoffset:0;stroke-width:0.2;"/>
     </g>
     <g id="line2d_68">
      <g>
       <use style="stroke:#000000;stroke-width:0.6;" x="327.15" xlink:href="#m1e049bc071" y="448.56"/>
      </g>
     </g>
     <g id="line2d_69">
      <g>
       <use style="stroke:#000000;stroke-width:0.6;" x="327.15" xlink:href="#mcb6b57efeb" y="60.48"/>
      </g>
     </g>
    </g>
    <g id="xtick_24">
     <g id="line2d_70">
      <path clip-path="url(#pf4b15524bd)" d="M 341.1 448.56 
L 341.1 60.48 
" style="fill:none;stroke:#808080;stroke-dasharray:0.74,0.32;stroke-dashoffset:0;stroke-width:0.2;"/>
     </g>
     <g id="line2d_71">
      <g>
       <use style="stroke:#000000;stroke-width:0.6;" x="341.1" xlink:href="#m1e049bc071" y="448.56"/>
      </g>
     </g>
     <g id="line2d_72">
      <g>
       <use style="stroke:#000000;stroke-width:0.6;" x="341.1" xlink:href="#mcb6b57efeb" y="60.48"/>
      </g>
     </g>
    </g>
    <g id="xtick_25">
     <g id="line2d_73">
      <path clip-path="url(#pf4b15524bd)" d="M 355.05 448.56 
L 355.05 60.48 
" style="fill:none;stroke:#808080;stroke-dasharray:0.74,0.32;stroke-dashoffset:0;stroke-width:0.2;"/>
     </g>
     <g id="line2d_74">
      <g>
       <use style="stroke:#000000;stroke-width:0.6;" x="355.05" xlink:href="#m1e049bc071" y="448.56"/>
      </g>
     </g>
     <g id="line2d_75">
      <g>
       <use style="stroke:#000000;stroke-width:0.6;" x="355.05" xlink:href="#mcb6b57efeb" y="60.48"/>
      </g>
     </g>
    </g>
    <g id="xtick_26">
     <g id="line2d_76">
      <path clip-path="url(#pf4b15524bd)" d="M 382.95 448.56 
L 382.95 60.48 
" style="fill:none;stroke:#808080;stroke-dasharray:0.74,0.32;stroke-dashoffset:0;stroke-width:0.2;"/>
     </g>
     <g id="line2d_77">
      <g>
       <use style="stroke:#000000;stroke-width:0.6;" x="382.95" xlink:href="#m1e049bc071" y="448.56"/>
      </g>
     </g>
     <g id="line2d_78">
      <g>
       <use style="stroke:#000000;stroke-width:0.6;" x="382.95" xlink:href="#mcb6b57efeb" y="60.48"/>
      </g>
     </g>
    </g>
    <g id="xtick_27">
     <g id="line2d_79">
      <path clip-path="url(#pf4b15524bd)" d="M 396.9 448.56 
L 396.9 60.48 
" style="fill:none;stroke:#808080;stroke-dasharray:0.74,0.32;stroke-dashoffset:0;stroke-width:0.2;"/>
     </g>
     <g id="line2d_80">
      <g>
       <use style="stroke:#000000;stroke-width:0.6;" x="396.9" xlink:href="#m1e049bc071" y="448.56"/>
      </g>
     </g>
     <g id="line2d_81">
      <g>
       <use style="stroke:#000000;stroke-width:0.6;" x="396.9" xlink:href="#mcb6b57efeb" y="60.48"/>
      </g>
     </g>
    </g>
    <g id="xtick_28">
     <g id="line2d_82">
      <path clip-path="url(#pf4b15524bd)" d="M 410.85 448.56 
L 410.85 60.48 
" style="fill:none;stroke:#808080;stroke-dasharray:0.74,0.32;stroke-dashoffset:0;stroke-width:0.2;"/>
     </g>
     <g id="line2d_83">
      <g>
       <use style="stroke:#000000;stroke-width:0.6;" x="410.85" xlink:href="#m1e049bc071" y="448.56"/>
      </g>
     </g>
     <g id="line2d_84">
      <g>
       <use style="stroke:#000000;stroke-width:0.6;" x="410.85" xlink:href="#mcb6b57efeb" y="60.48"/>
      </g>
     </g>
    </g>
    <g id="xtick_29">
     <g id="line2d_85">
      <path clip-path="url(#pf4b15524bd)" d="M 424.8 448.56 
L 424.8 60.48 
" style="fill:none;stroke:#808080;stroke-dasharray:0.74,0.32;stroke-dashoffset:0;stroke-width:0.2;"/>
     </g>
     <g id="line2d_86">
      <g>
       <use style="stroke:#000000;stroke-width:0.6;" x="424.8" xlink:href="#m1e049bc071" y="448.56"/>
      </g>
     </g>
     <g id="line2d_87">
      <g>
       <use style="stroke:#000000;stroke-width:0.6;" x="424.8" xlink:href="#mcb6b57efeb" y="60.48"/>
      </g>
     </g>
    </g>
    <g id="xtick_30">
     <g id="line2d_88">
      <path clip-path="url(#pf4b15524bd)" d="M 452.7 448.56 
L 452.7 60.48 
" style="fill:none;stroke:#808080;stroke-dasharray:0.74,0.32;stroke-dashoffset:0;stroke-width:0.2;"/>
     </g>
     <g id="line2d_89">
      <g>
       <use style="stroke:#000000;stroke-width:0.6;" x="452.7" xlink:href="#m1e049bc071" y="448.56"/>
      </g>
     </g>
     <g id="line2d_90">
      <g>
       <use style="stroke:#000000;stroke-width:0.6;" x="452.7" xlink:href="#mcb6b57efeb" y="60.48"/>
      </g>
     </g>
    </g>
    <g id="xtick_31">
     <g id="line2d_91">
      <path clip-path="url(#pf4b15524bd)" d="M 466.65 448.56 
L 466.65 60.48 
" style="fill:none;stroke:#808080;stroke-dasharray:0.74,0.32;stroke-dashoffset:0;stroke-width:0.2;"/>
     </g>
     <g id="line2d_92">
      <g>
       <use style="stroke:#000000;stroke-width:0.6;" x="466.65" xlink:href="#m1e049bc071" y="448.56"/>
      </g>
     </g>
     <g id="line2d_93">
      <g>
       <use style="stroke:#000000;stroke-width:0.6;" x="466.65" xlink:href="#mcb6b57efeb" y="60.48"/>
      </g>
     </g>
    </g>
    <g id="xtick_32">
     <g id="line2d_94">
      <path clip-path="url(#pf4b15524bd)" d="M 480.6 448.56 
L 480.6 60.48 
" style="fill:none;stroke:#808080;stroke-dasharray:0.74,0.32;stroke-dashoffset:0;stroke-width:0.2;"/>
     </g>
     <g id="line2d_95">
      <g>
       <use style="stroke:#000000;stroke-width:0.6;" x="480.6" xlink:href="#m1e049bc071" y="448.56"/>
      </g>
     </g>
     <g id="line2d_96">
      <g>
       <use style="stroke:#000000;stroke-width:0.6;" x="480.6" xlink:href="#mcb6b57efeb" y="60.48"/>
      </g>
     </g>
    </g>
    <g id="xtick_33">
     <g id="line2d_97">
      <path clip-path="url(#pf4b15524bd)" d="M 494.55 448.56 
L 494.55 60.48 
" style="fill:none;stroke:#808080;stroke-dasharray:0.74,0.32;stroke-dashoffset:0;stroke-width:0.2;"/>
     </g>
     <g id="line2d_98">
      <g>
       <use style="stroke:#000000;stroke-width:0.6;" x="494.55" xlink:href="#m1e049bc071" y="448.56"/>
      </g>
     </g>
     <g id="line2d_99">
      <g>
       <use style="stroke:#000000;stroke-width:0.6;" x="494.55" xlink:href="#mcb6b57efeb" y="60.48"/>
      </g>
     </g>
    </g>
    <g id="xtick_34">
     <g id="line2d_100">
      <path clip-path="url(#pf4b15524bd)" d="M 522.45 448.56 
L 522.45 60.48 
" style="fill:none;stroke:#808080;stroke-dasharray:0.74,0.32;stroke-dashoffset:0;stroke-width:0.2;"/>
     </g>
     <g id="line2d_101">
      <g>
       <use style="stroke:#000000;stroke-width:0.6;" x="522.45" xlink:href="#m1e049bc071" y="448.56"/>
      </g>
     </g>
     <g id="line2d_102">
      <g>
       <use style="stroke:#000000;stroke-width:0.6;" x="522.45" xlink:href="#mcb6b57efeb" y="60.48"/>
      </g>
     </g>
    </g>
    <g id="xtick_35">
     <g id="line2d_103">
      <path clip-path="url(#pf4b15524bd)" d="M 536.4 448.56 
L 536.4 60.48 
" style="fill:none;stroke:#808080;stroke-dasharray:0.74,0.32;stroke-dashoffset:0;stroke-width:0.2;"/>
     </g>
     <g id="line2d_104">
      <g>
       <use style="stroke:#000000;stroke-width:0.6;" x="536.4" xlink:href="#m1e049bc071" y="448.56"/>
      </g>
     </g>
     <g id="line2d_105">
      <g>
       <use style="stroke:#000000;stroke-width:0.6;" x="536.4" xlink:href="#mcb6b57efeb" y="60.48"/>
      </g>
     </g>
    </g>
    <g id="xtick_36">
     <g id="line2d_106">
      <path clip-path="url(#pf4b15524bd)" d="M 550.35 448.56 
L 550.35 60.48 
" style="fill:none;stroke:#808080;stroke-dasharray:0.74,0.32;stroke-dashoffset:0;stroke-width:0.2;"/>
     </g>
     <g id="line2d_107">
      <g>
       <use style="stroke:#000000;stroke-width:0.6;" x="550.35" xlink:href="#m1e049bc071" y="448.56"/>
      </g>
     </g>
     <g id="line2d_108">
      <g>
       <use style="stroke:#000000;stroke-width:0.6;" x="550.35" xlink:href="#mcb6b57efeb" y="60.48"/>
      </g>
     </g>
    </g>
    <g id="xtick_37">
     <g id="line2d_109">
      <path clip-path="url(#pf4b15524bd)" d="M 564.3 448.56 
L 564.3 60.48 
" style="fill:none;stroke:#808080;stroke-dasharray:0.74,0.32;stroke-dashoffset:0;stroke-width:0.2;"/>
     </g>
     <g id="line2d_110">
      <g>
       <use style="stroke:#000000;stroke-width:0.6;" x="564.3" xlink:href="#m1e049bc071" y="448.56"/>
      </g>
     </g>
     <g id="line2d_111">
      <g>
       <use style="stroke:#000000;stroke-width:0.6;" x="564.3" xlink:href="#mcb6b57efeb" y="60.48"/>
      </g>
     </g>
    </g>
    <g id="xtick_38">
     <g id="line2d_112">
      <path clip-path="url(#pf4b15524bd)" d="M 592.2 448.56 
L 592.2 60.48 
" style="fill:none;stroke:#808080;stroke-dasharray:0.74,0.32;stroke-dashoffset:0;stroke-width:0.2;"/>
     </g>
     <g id="line2d_113">
      <g>
       <use style="stroke:#000000;stroke-width:0.6;" x="592.2" xlink:href="#m1e049bc071" y="448.56"/>
      </g>
     </g>
     <g id="line2d_114">
      <g>
       <use style="stroke:#000000;stroke-width:0.6;" x="592.2" xlink:href="#mcb6b57efeb" y="60.48"/>
      </g>
     </g>
    </g>
    <g id="xtick_39">
     <g id="line2d_115">
      <path clip-path="url(#pf4b15524bd)" d="M 606.15 448.56 
L 606.15 60.48 
" style="fill:none;stroke:#808080;stroke-dasharray:0.74,0.32;stroke-dashoffset:0;stroke-width:0.2;"/>
     </g>
     <g id="line2d_116">
      <g>
       <use style="stroke:#000000;stroke-width:0.6;" x="606.15" xlink:href="#m1e049bc071" y="448.56"/>
      </g>
     </g>
     <g id="line2d_117">
      <g>
       <use style="stroke:#000000;stroke-width:0.6;" x="606.15" xlink:href="#mcb6b57efeb" y="60.48"/>
      </g>
     </g>
    </g>
    <g id="xtick_40">
     <g id="line2d_118">
      <path clip-path="url(#pf4b15524bd)" d="M 620.1 448.56 
L 620.1 60.48 
" style="fill:none;stroke:#808080;stroke-dasharray:0.74,0.32;stroke-dashoffset:0;stroke-width:0.2;"/>
     </g>
     <g id="line2d_119">
      <g>
       <use style="stroke:#000000;stroke-width:0.6;" x="620.1" xlink:href="#m1e049bc071" y="448.56"/>
      </g>
     </g>
     <g id="line2d_120">
      <g>
       <use style="stroke:#000000;stroke-width:0.6;" x="620.1" xlink:href="#mcb6b57efeb" y="60.48"/>
      </g>
     </g>
    </g>
    <g id="xtick_41">
     <g id="line2d_121">
      <path clip-path="url(#pf4b15524bd)" d="M 634.05 448.56 
L 634.05 60.48 
" style="fill:none;stroke:#808080;stroke-dasharray:0.74,0.32;stroke-dashoffset:0;stroke-width:0.2;"/>
     </g>
     <g id="line2d_122">
      <g>
       <use style="stroke:#000000;stroke-width:0.6;" x="634.05" xlink:href="#m1e049bc071" y="448.56"/>
      </g>
     </g>
     <g id="line2d_123">
      <g>
       <use style="stroke:#000000;stroke-width:0.6;" x="634.05" xlink:href="#mcb6b57efeb" y="60.48"/>
      </g>
     </g>
    </g>
    <g id="text_10">
     <!-- Hours -->
     <g transform="translate(350.061665 479.721194)scale(0.15 -0.15)">
      <defs>
       <path d="M 3590 3905 
C 3590 4192 3661 4192 4102 4192 
L 4102 4352 
C 3917 4352 3578 4352 3379 4352 
C 3181 4352 2842 4352 2656 4352 
L 2656 4192 
C 3098 4192 3168 4192 3168 3904 
L 3168 2341 
L 1261 2341 
L 1261 3904 
C 1261 4192 1331 4192 1773 4192 
L 1773 4352 
C 1587 4352 1248 4352 1050 4352 
C 851 4352 512 4352 326 4352 
L 326 4192 
C 768 4192 838 4192 838 3905 
L 838 447 
C 838 160 768 160 326 160 
L 326 0 
C 512 0 851 0 1050 0 
C 1248 0 1587 0 1773 0 
L 1773 160 
C 1331 160 1261 160 1261 446 
L 1261 2176 
L 3168 2176 
L 3168 446 
C 3168 160 3098 160 2656 160 
L 2656 0 
C 2842 0 3181 0 3379 0 
C 3578 0 3917 0 4102 0 
L 4102 160 
C 3661 160 3590 160 3590 447 
L 3590 3905 
z
" id="CMR17-48" transform="scale(0.015625)"/>
       <path d="M 2758 1356 
C 2758 2176 2163 2816 1466 2816 
C 768 2816 173 2176 173 1356 
C 173 551 768 -64 1466 -64 
C 2163 -64 2758 551 2758 1356 
z
M 1466 51 
C 1165 51 909 230 762 480 
C 602 767 582 1126 582 1408 
C 582 1677 595 2010 762 2298 
C 890 2509 1139 2714 1466 2714 
C 1754 2714 1997 2554 2150 2330 
C 2349 2029 2349 1607 2349 1408 
C 2349 1158 2336 775 2163 467 
C 1984 173 1709 51 1466 51 
z
" id="CMR17-6f" transform="scale(0.015625)"/>
       <path d="M 1882 2693 
L 1882 2528 
C 2259 2528 2317 2489 2317 2186 
L 2317 1032 
C 2317 500 2029 38 1555 38 
C 1030 38 986 348 986 678 
L 986 2763 
L 211 2693 
L 211 2528 
C 467 2528 640 2528 646 2274 
L 646 1058 
C 646 633 646 361 813 183 
C 896 101 1056 -64 1517 -64 
C 2061 -64 2272 377 2323 506 
L 2330 506 
L 2330 -63 
L 3091 -63 
L 3091 128 
C 2714 128 2656 166 2656 473 
L 2656 2763 
L 1882 2693 
z
" id="CMR17-75" transform="scale(0.015625)"/>
       <path d="M 960 1497 
C 960 2112 1222 2688 1702 2688 
C 1747 2688 1792 2682 1837 2662 
C 1837 2662 1696 2617 1696 2452 
C 1696 2298 1818 2234 1914 2234 
C 1990 2234 2131 2279 2131 2458 
C 2131 2663 1926 2790 1709 2790 
C 1222 2790 1011 2317 947 2093 
L 941 2093 
L 941 2790 
L 198 2720 
L 198 2554 
C 576 2554 634 2515 634 2208 
L 634 428 
C 634 184 608 153 198 153 
L 198 -13 
C 352 0 646 0 813 0 
C 998 0 1325 0 1498 -13 
L 1498 153 
C 1037 153 960 153 960 440 
L 960 1497 
z
" id="CMR17-72" transform="scale(0.015625)"/>
       <path d="M 1978 2697 
C 1978 2813 1971 2819 1933 2819 
C 1907 2819 1901 2813 1824 2717 
C 1805 2691 1747 2626 1728 2601 
C 1523 2819 1235 2819 1126 2819 
C 416 2819 160 2447 160 2076 
C 160 1498 813 1365 998 1325 
C 1402 1243 1542 1217 1677 1101 
C 1760 1025 1901 884 1901 654 
C 1901 384 1747 38 1158 38 
C 602 38 403 460 288 1021 
C 269 1110 269 1117 218 1117 
C 166 1117 160 1110 160 983 
L 160 63 
C 160 -51 166 -58 205 -58 
C 237 -58 243 -51 275 0 
C 314 57 410 211 448 276 
C 576 103 800 -64 1158 -64 
C 1792 -64 2131 283 2131 784 
C 2131 1112 1958 1285 1875 1362 
C 1683 1561 1459 1606 1190 1657 
C 838 1735 390 1825 390 2217 
C 390 2383 480 2737 1126 2737 
C 1811 2737 1850 2094 1862 1888 
C 1869 1856 1901 1849 1920 1849 
C 1978 1849 1978 1869 1978 1978 
L 1978 2697 
z
" id="CMR17-73" transform="scale(0.015625)"/>
      </defs>
      <use transform="scale(0.996264)" xlink:href="#CMR17-48"/>
      <use transform="translate(69.07243 0)scale(0.996264)" xlink:href="#CMR17-6f"/>
      <use transform="translate(114.762907 0)scale(0.996264)" xlink:href="#CMR17-75"/>
      <use transform="translate(165.658277 0)scale(0.996264)" xlink:href="#CMR17-72"/>
      <use transform="translate(200.939045 0)scale(0.996264)" xlink:href="#CMR17-73"/>
     </g>
    </g>
   </g>
   <g id="matplotlib.axis_2">
    <g id="ytick_1">
     <g id="line2d_124">
      <path clip-path="url(#pf4b15524bd)" d="M 90 408.87 
L 648 408.87 
" style="fill:none;stroke:#808080;stroke-linecap:square;stroke-width:0.4;"/>
     </g>
     <g id="line2d_125">
      <defs>
       <path d="M 0 0 
L 3.5 0 
" id="m7d4b96a5d5" style="stroke:#000000;stroke-width:0.8;"/>
      </defs>
      <g>
       <use style="stroke:#000000;stroke-width:0.8;" x="90" xlink:href="#m7d4b96a5d5" y="408.87"/>
      </g>
     </g>
     <g id="line2d_126">
      <defs>
       <path d="M 0 0 
L -3.5 0 
" id="mf2edc8bd34" style="stroke:#000000;stroke-width:0.8;"/>
      </defs>
      <g>
       <use style="stroke:#000000;stroke-width:0.8;" x="648" xlink:href="#mf2edc8bd34" y="408.87"/>
      </g>
     </g>
     <g id="text_11">
      <!-- $\mathdefault{2}$ -->
      <g transform="translate(79.183762 414.058862)scale(0.15 -0.15)">
       <use transform="scale(0.996264)" xlink:href="#CMR17-32"/>
      </g>
     </g>
    </g>
    <g id="ytick_2">
     <g id="line2d_127">
      <path clip-path="url(#pf4b15524bd)" d="M 90 364.77 
L 648 364.77 
" style="fill:none;stroke:#808080;stroke-linecap:square;stroke-width:0.4;"/>
     </g>
     <g id="line2d_128">
      <g>
       <use style="stroke:#000000;stroke-width:0.8;" x="90" xlink:href="#m7d4b96a5d5" y="364.77"/>
      </g>
     </g>
     <g id="line2d_129">
      <g>
       <use style="stroke:#000000;stroke-width:0.8;" x="648" xlink:href="#mf2edc8bd34" y="364.77"/>
      </g>
     </g>
     <g id="text_12">
      <!-- $\mathdefault{4}$ -->
      <g transform="translate(79.183762 369.958862)scale(0.15 -0.15)">
       <use transform="scale(0.996264)" xlink:href="#CMR17-34"/>
      </g>
     </g>
    </g>
    <g id="ytick_3">
     <g id="line2d_130">
      <path clip-path="url(#pf4b15524bd)" d="M 90 320.67 
L 648 320.67 
" style="fill:none;stroke:#808080;stroke-linecap:square;stroke-width:0.4;"/>
     </g>
     <g id="line2d_131">
      <g>
       <use style="stroke:#000000;stroke-width:0.8;" x="90" xlink:href="#m7d4b96a5d5" y="320.67"/>
      </g>
     </g>
     <g id="line2d_132">
      <g>
       <use style="stroke:#000000;stroke-width:0.8;" x="648" xlink:href="#mf2edc8bd34" y="320.67"/>
      </g>
     </g>
     <g id="text_13">
      <!-- $\mathdefault{6}$ -->
      <g transform="translate(79.183762 325.858862)scale(0.15 -0.15)">
       <defs>
        <path d="M 678 2176 
C 678 3690 1395 4032 1811 4032 
C 1946 4032 2272 4009 2400 3776 
C 2298 3776 2106 3776 2106 3553 
C 2106 3381 2246 3323 2336 3323 
C 2394 3323 2566 3348 2566 3560 
C 2566 3954 2246 4179 1805 4179 
C 1043 4179 243 3390 243 1984 
C 243 253 966 -128 1478 -128 
C 2099 -128 2688 427 2688 1283 
C 2688 2081 2170 2662 1517 2662 
C 1126 2662 838 2407 678 1960 
L 678 2176 
z
M 1478 25 
C 691 25 691 1200 691 1436 
C 691 1896 909 2560 1504 2560 
C 1613 2560 1926 2560 2138 2120 
C 2253 1870 2253 1609 2253 1289 
C 2253 944 2253 690 2118 434 
C 1978 171 1773 25 1478 25 
z
" id="CMR17-36" transform="scale(0.015625)"/>
       </defs>
       <use transform="scale(0.996264)" xlink:href="#CMR17-36"/>
      </g>
     </g>
    </g>
    <g id="ytick_4">
     <g id="line2d_133">
      <path clip-path="url(#pf4b15524bd)" d="M 90 276.57 
L 648 276.57 
" style="fill:none;stroke:#808080;stroke-linecap:square;stroke-width:0.4;"/>
     </g>
     <g id="line2d_134">
      <g>
       <use style="stroke:#000000;stroke-width:0.8;" x="90" xlink:href="#m7d4b96a5d5" y="276.57"/>
      </g>
     </g>
     <g id="line2d_135">
      <g>
       <use style="stroke:#000000;stroke-width:0.8;" x="648" xlink:href="#mf2edc8bd34" y="276.57"/>
      </g>
     </g>
     <g id="text_14">
      <!-- $\mathdefault{8}$ -->
      <g transform="translate(79.183762 281.758862)scale(0.15 -0.15)">
       <defs>
        <path d="M 1741 2264 
C 2144 2467 2554 2773 2554 3263 
C 2554 3841 1990 4179 1472 4179 
C 890 4179 378 3759 378 3180 
C 378 3021 416 2747 666 2505 
C 730 2442 998 2251 1171 2130 
C 883 1983 211 1634 211 934 
C 211 279 838 -128 1459 -128 
C 2144 -128 2720 362 2720 1010 
C 2720 1590 2330 1857 2074 2029 
L 1741 2264 
z
M 902 2822 
C 851 2854 595 3051 595 3351 
C 595 3739 998 4032 1459 4032 
C 1965 4032 2336 3676 2336 3262 
C 2336 2669 1670 2331 1638 2331 
C 1632 2331 1626 2331 1574 2370 
L 902 2822 
z
M 2080 1519 
C 2176 1449 2483 1240 2483 851 
C 2483 381 2010 25 1472 25 
C 890 25 448 438 448 940 
C 448 1443 838 1862 1280 2060 
L 2080 1519 
z
" id="CMR17-38" transform="scale(0.015625)"/>
       </defs>
       <use transform="scale(0.996264)" xlink:href="#CMR17-38"/>
      </g>
     </g>
    </g>
    <g id="ytick_5">
     <g id="line2d_136">
      <path clip-path="url(#pf4b15524bd)" d="M 90 232.47 
L 648 232.47 
" style="fill:none;stroke:#808080;stroke-linecap:square;stroke-width:0.4;"/>
     </g>
     <g id="line2d_137">
      <g>
       <use style="stroke:#000000;stroke-width:0.8;" x="90" xlink:href="#m7d4b96a5d5" y="232.47"/>
      </g>
     </g>
     <g id="line2d_138">
      <g>
       <use style="stroke:#000000;stroke-width:0.8;" x="648" xlink:href="#mf2edc8bd34" y="232.47"/>
      </g>
     </g>
     <g id="text_15">
      <!-- $\mathdefault{10}$ -->
      <g transform="translate(71.867524 237.658862)scale(0.15 -0.15)">
       <defs>
        <path d="M 1702 4058 
C 1702 4192 1696 4192 1606 4192 
C 1357 3916 979 3827 621 3827 
C 602 3827 570 3827 563 3808 
C 557 3795 557 3782 557 3648 
C 755 3648 1088 3686 1344 3839 
L 1344 461 
C 1344 236 1331 160 781 160 
L 589 160 
L 589 0 
C 896 0 1216 0 1523 0 
C 1830 0 2150 0 2458 0 
L 2458 160 
L 2266 160 
C 1715 160 1702 230 1702 458 
L 1702 4058 
z
" id="CMR17-31" transform="scale(0.015625)"/>
       </defs>
       <use transform="scale(0.996264)" xlink:href="#CMR17-31"/>
       <use transform="translate(45.690477 0)scale(0.996264)" xlink:href="#CMR17-30"/>
      </g>
     </g>
    </g>
    <g id="ytick_6">
     <g id="line2d_139">
      <path clip-path="url(#pf4b15524bd)" d="M 90 188.37 
L 648 188.37 
" style="fill:none;stroke:#808080;stroke-linecap:square;stroke-width:0.4;"/>
     </g>
     <g id="line2d_140">
      <g>
       <use style="stroke:#000000;stroke-width:0.8;" x="90" xlink:href="#m7d4b96a5d5" y="188.37"/>
      </g>
     </g>
     <g id="line2d_141">
      <g>
       <use style="stroke:#000000;stroke-width:0.8;" x="648" xlink:href="#mf2edc8bd34" y="188.37"/>
      </g>
     </g>
     <g id="text_16">
      <!-- $\mathdefault{12}$ -->
      <g transform="translate(71.867524 193.558862)scale(0.15 -0.15)">
       <use transform="scale(0.996264)" xlink:href="#CMR17-31"/>
       <use transform="translate(45.690477 0)scale(0.996264)" xlink:href="#CMR17-32"/>
      </g>
     </g>
    </g>
    <g id="ytick_7">
     <g id="line2d_142">
      <path clip-path="url(#pf4b15524bd)" d="M 90 144.27 
L 648 144.27 
" style="fill:none;stroke:#808080;stroke-linecap:square;stroke-width:0.4;"/>
     </g>
     <g id="line2d_143">
      <g>
       <use style="stroke:#000000;stroke-width:0.8;" x="90" xlink:href="#m7d4b96a5d5" y="144.27"/>
      </g>
     </g>
     <g id="line2d_144">
      <g>
       <use style="stroke:#000000;stroke-width:0.8;" x="648" xlink:href="#mf2edc8bd34" y="144.27"/>
      </g>
     </g>
     <g id="text_17">
      <!-- $\mathdefault{14}$ -->
      <g transform="translate(71.867524 149.458862)scale(0.15 -0.15)">
       <use transform="scale(0.996264)" xlink:href="#CMR17-31"/>
       <use transform="translate(45.690477 0)scale(0.996264)" xlink:href="#CMR17-34"/>
      </g>
     </g>
    </g>
    <g id="ytick_8">
     <g id="line2d_145">
      <path clip-path="url(#pf4b15524bd)" d="M 90 100.17 
L 648 100.17 
" style="fill:none;stroke:#808080;stroke-linecap:square;stroke-width:0.4;"/>
     </g>
     <g id="line2d_146">
      <g>
       <use style="stroke:#000000;stroke-width:0.8;" x="90" xlink:href="#m7d4b96a5d5" y="100.17"/>
      </g>
     </g>
     <g id="line2d_147">
      <g>
       <use style="stroke:#000000;stroke-width:0.8;" x="648" xlink:href="#mf2edc8bd34" y="100.17"/>
      </g>
     </g>
     <g id="text_18">
      <!-- $\mathdefault{16}$ -->
      <g transform="translate(71.867524 105.358862)scale(0.15 -0.15)">
       <use transform="scale(0.996264)" xlink:href="#CMR17-31"/>
       <use transform="translate(45.690477 0)scale(0.996264)" xlink:href="#CMR17-36"/>
      </g>
     </g>
    </g>
    <g id="ytick_9">
     <g id="line2d_148">
      <path clip-path="url(#pf4b15524bd)" d="M 90 441.945 
L 648 441.945 
" style="fill:none;stroke:#808080;stroke-dasharray:0.74,0.32;stroke-dashoffset:0;stroke-width:0.2;"/>
     </g>
     <g id="line2d_149">
      <defs>
       <path d="M 0 0 
L 2 0 
" id="m5777590e46" style="stroke:#000000;stroke-width:0.6;"/>
      </defs>
      <g>
       <use style="stroke:#000000;stroke-width:0.6;" x="90" xlink:href="#m5777590e46" y="441.945"/>
      </g>
     </g>
     <g id="line2d_150">
      <defs>
       <path d="M 0 0 
L -2 0 
" id="m0c21f92758" style="stroke:#000000;stroke-width:0.6;"/>
      </defs>
      <g>
       <use style="stroke:#000000;stroke-width:0.6;" x="648" xlink:href="#m0c21f92758" y="441.945"/>
      </g>
     </g>
    </g>
    <g id="ytick_10">
     <g id="line2d_151">
      <path clip-path="url(#pf4b15524bd)" d="M 90 430.92 
L 648 430.92 
" style="fill:none;stroke:#808080;stroke-dasharray:0.74,0.32;stroke-dashoffset:0;stroke-width:0.2;"/>
     </g>
     <g id="line2d_152">
      <g>
       <use style="stroke:#000000;stroke-width:0.6;" x="90" xlink:href="#m5777590e46" y="430.92"/>
      </g>
     </g>
     <g id="line2d_153">
      <g>
       <use style="stroke:#000000;stroke-width:0.6;" x="648" xlink:href="#m0c21f92758" y="430.92"/>
      </g>
     </g>
    </g>
    <g id="ytick_11">
     <g id="line2d_154">
      <path clip-path="url(#pf4b15524bd)" d="M 90 419.895 
L 648 419.895 
" style="fill:none;stroke:#808080;stroke-dasharray:0.74,0.32;stroke-dashoffset:0;stroke-width:0.2;"/>
     </g>
     <g id="line2d_155">
      <g>
       <use style="stroke:#000000;stroke-width:0.6;" x="90" xlink:href="#m5777590e46" y="419.895"/>
      </g>
     </g>
     <g id="line2d_156">
      <g>
       <use style="stroke:#000000;stroke-width:0.6;" x="648" xlink:href="#m0c21f92758" y="419.895"/>
      </g>
     </g>
    </g>
    <g id="ytick_12">
     <g id="line2d_157">
      <path clip-path="url(#pf4b15524bd)" d="M 90 397.845 
L 648 397.845 
" style="fill:none;stroke:#808080;stroke-dasharray:0.74,0.32;stroke-dashoffset:0;stroke-width:0.2;"/>
     </g>
     <g id="line2d_158">
      <g>
       <use style="stroke:#000000;stroke-width:0.6;" x="90" xlink:href="#m5777590e46" y="397.845"/>
      </g>
     </g>
     <g id="line2d_159">
      <g>
       <use style="stroke:#000000;stroke-width:0.6;" x="648" xlink:href="#m0c21f92758" y="397.845"/>
      </g>
     </g>
    </g>
    <g id="ytick_13">
     <g id="line2d_160">
      <path clip-path="url(#pf4b15524bd)" d="M 90 386.82 
L 648 386.82 
" style="fill:none;stroke:#808080;stroke-dasharray:0.74,0.32;stroke-dashoffset:0;stroke-width:0.2;"/>
     </g>
     <g id="line2d_161">
      <g>
       <use style="stroke:#000000;stroke-width:0.6;" x="90" xlink:href="#m5777590e46" y="386.82"/>
      </g>
     </g>
     <g id="line2d_162">
      <g>
       <use style="stroke:#000000;stroke-width:0.6;" x="648" xlink:href="#m0c21f92758" y="386.82"/>
      </g>
     </g>
    </g>
    <g id="ytick_14">
     <g id="line2d_163">
      <path clip-path="url(#pf4b15524bd)" d="M 90 375.795 
L 648 375.795 
" style="fill:none;stroke:#808080;stroke-dasharray:0.74,0.32;stroke-dashoffset:0;stroke-width:0.2;"/>
     </g>
     <g id="line2d_164">
      <g>
       <use style="stroke:#000000;stroke-width:0.6;" x="90" xlink:href="#m5777590e46" y="375.795"/>
      </g>
     </g>
     <g id="line2d_165">
      <g>
       <use style="stroke:#000000;stroke-width:0.6;" x="648" xlink:href="#m0c21f92758" y="375.795"/>
      </g>
     </g>
    </g>
    <g id="ytick_15">
     <g id="line2d_166">
      <path clip-path="url(#pf4b15524bd)" d="M 90 353.745 
L 648 353.745 
" style="fill:none;stroke:#808080;stroke-dasharray:0.74,0.32;stroke-dashoffset:0;stroke-width:0.2;"/>
     </g>
     <g id="line2d_167">
      <g>
       <use style="stroke:#000000;stroke-width:0.6;" x="90" xlink:href="#m5777590e46" y="353.745"/>
      </g>
     </g>
     <g id="line2d_168">
      <g>
       <use style="stroke:#000000;stroke-width:0.6;" x="648" xlink:href="#m0c21f92758" y="353.745"/>
      </g>
     </g>
    </g>
    <g id="ytick_16">
     <g id="line2d_169">
      <path clip-path="url(#pf4b15524bd)" d="M 90 342.72 
L 648 342.72 
" style="fill:none;stroke:#808080;stroke-dasharray:0.74,0.32;stroke-dashoffset:0;stroke-width:0.2;"/>
     </g>
     <g id="line2d_170">
      <g>
       <use style="stroke:#000000;stroke-width:0.6;" x="90" xlink:href="#m5777590e46" y="342.72"/>
      </g>
     </g>
     <g id="line2d_171">
      <g>
       <use style="stroke:#000000;stroke-width:0.6;" x="648" xlink:href="#m0c21f92758" y="342.72"/>
      </g>
     </g>
    </g>
    <g id="ytick_17">
     <g id="line2d_172">
      <path clip-path="url(#pf4b15524bd)" d="M 90 331.695 
L 648 331.695 
" style="fill:none;stroke:#808080;stroke-dasharray:0.74,0.32;stroke-dashoffset:0;stroke-width:0.2;"/>
     </g>
     <g id="line2d_173">
      <g>
       <use style="stroke:#000000;stroke-width:0.6;" x="90" xlink:href="#m5777590e46" y="331.695"/>
      </g>
     </g>
     <g id="line2d_174">
      <g>
       <use style="stroke:#000000;stroke-width:0.6;" x="648" xlink:href="#m0c21f92758" y="331.695"/>
      </g>
     </g>
    </g>
    <g id="ytick_18">
     <g id="line2d_175">
      <path clip-path="url(#pf4b15524bd)" d="M 90 309.645 
L 648 309.645 
" style="fill:none;stroke:#808080;stroke-dasharray:0.74,0.32;stroke-dashoffset:0;stroke-width:0.2;"/>
     </g>
     <g id="line2d_176">
      <g>
       <use style="stroke:#000000;stroke-width:0.6;" x="90" xlink:href="#m5777590e46" y="309.645"/>
      </g>
     </g>
     <g id="line2d_177">
      <g>
       <use style="stroke:#000000;stroke-width:0.6;" x="648" xlink:href="#m0c21f92758" y="309.645"/>
      </g>
     </g>
    </g>
    <g id="ytick_19">
     <g id="line2d_178">
      <path clip-path="url(#pf4b15524bd)" d="M 90 298.62 
L 648 298.62 
" style="fill:none;stroke:#808080;stroke-dasharray:0.74,0.32;stroke-dashoffset:0;stroke-width:0.2;"/>
     </g>
     <g id="line2d_179">
      <g>
       <use style="stroke:#000000;stroke-width:0.6;" x="90" xlink:href="#m5777590e46" y="298.62"/>
      </g>
     </g>
     <g id="line2d_180">
      <g>
       <use style="stroke:#000000;stroke-width:0.6;" x="648" xlink:href="#m0c21f92758" y="298.62"/>
      </g>
     </g>
    </g>
    <g id="ytick_20">
     <g id="line2d_181">
      <path clip-path="url(#pf4b15524bd)" d="M 90 287.595 
L 648 287.595 
" style="fill:none;stroke:#808080;stroke-dasharray:0.74,0.32;stroke-dashoffset:0;stroke-width:0.2;"/>
     </g>
     <g id="line2d_182">
      <g>
       <use style="stroke:#000000;stroke-width:0.6;" x="90" xlink:href="#m5777590e46" y="287.595"/>
      </g>
     </g>
     <g id="line2d_183">
      <g>
       <use style="stroke:#000000;stroke-width:0.6;" x="648" xlink:href="#m0c21f92758" y="287.595"/>
      </g>
     </g>
    </g>
    <g id="ytick_21">
     <g id="line2d_184">
      <path clip-path="url(#pf4b15524bd)" d="M 90 265.545 
L 648 265.545 
" style="fill:none;stroke:#808080;stroke-dasharray:0.74,0.32;stroke-dashoffset:0;stroke-width:0.2;"/>
     </g>
     <g id="line2d_185">
      <g>
       <use style="stroke:#000000;stroke-width:0.6;" x="90" xlink:href="#m5777590e46" y="265.545"/>
      </g>
     </g>
     <g id="line2d_186">
      <g>
       <use style="stroke:#000000;stroke-width:0.6;" x="648" xlink:href="#m0c21f92758" y="265.545"/>
      </g>
     </g>
    </g>
    <g id="ytick_22">
     <g id="line2d_187">
      <path clip-path="url(#pf4b15524bd)" d="M 90 254.52 
L 648 254.52 
" style="fill:none;stroke:#808080;stroke-dasharray:0.74,0.32;stroke-dashoffset:0;stroke-width:0.2;"/>
     </g>
     <g id="line2d_188">
      <g>
       <use style="stroke:#000000;stroke-width:0.6;" x="90" xlink:href="#m5777590e46" y="254.52"/>
      </g>
     </g>
     <g id="line2d_189">
      <g>
       <use style="stroke:#000000;stroke-width:0.6;" x="648" xlink:href="#m0c21f92758" y="254.52"/>
      </g>
     </g>
    </g>
    <g id="ytick_23">
     <g id="line2d_190">
      <path clip-path="url(#pf4b15524bd)" d="M 90 243.495 
L 648 243.495 
" style="fill:none;stroke:#808080;stroke-dasharray:0.74,0.32;stroke-dashoffset:0;stroke-width:0.2;"/>
     </g>
     <g id="line2d_191">
      <g>
       <use style="stroke:#000000;stroke-width:0.6;" x="90" xlink:href="#m5777590e46" y="243.495"/>
      </g>
     </g>
     <g id="line2d_192">
      <g>
       <use style="stroke:#000000;stroke-width:0.6;" x="648" xlink:href="#m0c21f92758" y="243.495"/>
      </g>
     </g>
    </g>
    <g id="ytick_24">
     <g id="line2d_193">
      <path clip-path="url(#pf4b15524bd)" d="M 90 221.445 
L 648 221.445 
" style="fill:none;stroke:#808080;stroke-dasharray:0.74,0.32;stroke-dashoffset:0;stroke-width:0.2;"/>
     </g>
     <g id="line2d_194">
      <g>
       <use style="stroke:#000000;stroke-width:0.6;" x="90" xlink:href="#m5777590e46" y="221.445"/>
      </g>
     </g>
     <g id="line2d_195">
      <g>
       <use style="stroke:#000000;stroke-width:0.6;" x="648" xlink:href="#m0c21f92758" y="221.445"/>
      </g>
     </g>
    </g>
    <g id="ytick_25">
     <g id="line2d_196">
      <path clip-path="url(#pf4b15524bd)" d="M 90 210.42 
L 648 210.42 
" style="fill:none;stroke:#808080;stroke-dasharray:0.74,0.32;stroke-dashoffset:0;stroke-width:0.2;"/>
     </g>
     <g id="line2d_197">
      <g>
       <use style="stroke:#000000;stroke-width:0.6;" x="90" xlink:href="#m5777590e46" y="210.42"/>
      </g>
     </g>
     <g id="line2d_198">
      <g>
       <use style="stroke:#000000;stroke-width:0.6;" x="648" xlink:href="#m0c21f92758" y="210.42"/>
      </g>
     </g>
    </g>
    <g id="ytick_26">
     <g id="line2d_199">
      <path clip-path="url(#pf4b15524bd)" d="M 90 199.395 
L 648 199.395 
" style="fill:none;stroke:#808080;stroke-dasharray:0.74,0.32;stroke-dashoffset:0;stroke-width:0.2;"/>
     </g>
     <g id="line2d_200">
      <g>
       <use style="stroke:#000000;stroke-width:0.6;" x="90" xlink:href="#m5777590e46" y="199.395"/>
      </g>
     </g>
     <g id="line2d_201">
      <g>
       <use style="stroke:#000000;stroke-width:0.6;" x="648" xlink:href="#m0c21f92758" y="199.395"/>
      </g>
     </g>
    </g>
    <g id="ytick_27">
     <g id="line2d_202">
      <path clip-path="url(#pf4b15524bd)" d="M 90 177.345 
L 648 177.345 
" style="fill:none;stroke:#808080;stroke-dasharray:0.74,0.32;stroke-dashoffset:0;stroke-width:0.2;"/>
     </g>
     <g id="line2d_203">
      <g>
       <use style="stroke:#000000;stroke-width:0.6;" x="90" xlink:href="#m5777590e46" y="177.345"/>
      </g>
     </g>
     <g id="line2d_204">
      <g>
       <use style="stroke:#000000;stroke-width:0.6;" x="648" xlink:href="#m0c21f92758" y="177.345"/>
      </g>
     </g>
    </g>
    <g id="ytick_28">
     <g id="line2d_205">
      <path clip-path="url(#pf4b15524bd)" d="M 90 166.32 
L 648 166.32 
" style="fill:none;stroke:#808080;stroke-dasharray:0.74,0.32;stroke-dashoffset:0;stroke-width:0.2;"/>
     </g>
     <g id="line2d_206">
      <g>
       <use style="stroke:#000000;stroke-width:0.6;" x="90" xlink:href="#m5777590e46" y="166.32"/>
      </g>
     </g>
     <g id="line2d_207">
      <g>
       <use style="stroke:#000000;stroke-width:0.6;" x="648" xlink:href="#m0c21f92758" y="166.32"/>
      </g>
     </g>
    </g>
    <g id="ytick_29">
     <g id="line2d_208">
      <path clip-path="url(#pf4b15524bd)" d="M 90 155.295 
L 648 155.295 
" style="fill:none;stroke:#808080;stroke-dasharray:0.74,0.32;stroke-dashoffset:0;stroke-width:0.2;"/>
     </g>
     <g id="line2d_209">
      <g>
       <use style="stroke:#000000;stroke-width:0.6;" x="90" xlink:href="#m5777590e46" y="155.295"/>
      </g>
     </g>
     <g id="line2d_210">
      <g>
       <use style="stroke:#000000;stroke-width:0.6;" x="648" xlink:href="#m0c21f92758" y="155.295"/>
      </g>
     </g>
    </g>
    <g id="ytick_30">
     <g id="line2d_211">
      <path clip-path="url(#pf4b15524bd)" d="M 90 133.245 
L 648 133.245 
" style="fill:none;stroke:#808080;stroke-dasharray:0.74,0.32;stroke-dashoffset:0;stroke-width:0.2;"/>
     </g>
     <g id="line2d_212">
      <g>
       <use style="stroke:#000000;stroke-width:0.6;" x="90" xlink:href="#m5777590e46" y="133.245"/>
      </g>
     </g>
     <g id="line2d_213">
      <g>
       <use style="stroke:#000000;stroke-width:0.6;" x="648" xlink:href="#m0c21f92758" y="133.245"/>
      </g>
     </g>
    </g>
    <g id="ytick_31">
     <g id="line2d_214">
      <path clip-path="url(#pf4b15524bd)" d="M 90 122.22 
L 648 122.22 
" style="fill:none;stroke:#808080;stroke-dasharray:0.74,0.32;stroke-dashoffset:0;stroke-width:0.2;"/>
     </g>
     <g id="line2d_215">
      <g>
       <use style="stroke:#000000;stroke-width:0.6;" x="90" xlink:href="#m5777590e46" y="122.22"/>
      </g>
     </g>
     <g id="line2d_216">
      <g>
       <use style="stroke:#000000;stroke-width:0.6;" x="648" xlink:href="#m0c21f92758" y="122.22"/>
      </g>
     </g>
    </g>
    <g id="ytick_32">
     <g id="line2d_217">
      <path clip-path="url(#pf4b15524bd)" d="M 90 111.195 
L 648 111.195 
" style="fill:none;stroke:#808080;stroke-dasharray:0.74,0.32;stroke-dashoffset:0;stroke-width:0.2;"/>
     </g>
     <g id="line2d_218">
      <g>
       <use style="stroke:#000000;stroke-width:0.6;" x="90" xlink:href="#m5777590e46" y="111.195"/>
      </g>
     </g>
     <g id="line2d_219">
      <g>
       <use style="stroke:#000000;stroke-width:0.6;" x="648" xlink:href="#m0c21f92758" y="111.195"/>
      </g>
     </g>
    </g>
    <g id="ytick_33">
     <g id="line2d_220">
      <path clip-path="url(#pf4b15524bd)" d="M 90 89.145 
L 648 89.145 
" style="fill:none;stroke:#808080;stroke-dasharray:0.74,0.32;stroke-dashoffset:0;stroke-width:0.2;"/>
     </g>
     <g id="line2d_221">
      <g>
       <use style="stroke:#000000;stroke-width:0.6;" x="90" xlink:href="#m5777590e46" y="89.145"/>
      </g>
     </g>
     <g id="line2d_222">
      <g>
       <use style="stroke:#000000;stroke-width:0.6;" x="648" xlink:href="#m0c21f92758" y="89.145"/>
      </g>
     </g>
    </g>
    <g id="ytick_34">
     <g id="line2d_223">
      <path clip-path="url(#pf4b15524bd)" d="M 90 78.12 
L 648 78.12 
" style="fill:none;stroke:#808080;stroke-dasharray:0.74,0.32;stroke-dashoffset:0;stroke-width:0.2;"/>
     </g>
     <g id="line2d_224">
      <g>
       <use style="stroke:#000000;stroke-width:0.6;" x="90" xlink:href="#m5777590e46" y="78.12"/>
      </g>
     </g>
     <g id="line2d_225">
      <g>
       <use style="stroke:#000000;stroke-width:0.6;" x="648" xlink:href="#m0c21f92758" y="78.12"/>
      </g>
     </g>
    </g>
    <g id="ytick_35">
     <g id="line2d_226">
      <path clip-path="url(#pf4b15524bd)" d="M 90 67.095 
L 648 67.095 
" style="fill:none;stroke:#808080;stroke-dasharray:0.74,0.32;stroke-dashoffset:0;stroke-width:0.2;"/>
     </g>
     <g id="line2d_227">
      <g>
       <use style="stroke:#000000;stroke-width:0.6;" x="90" xlink:href="#m5777590e46" y="67.095"/>
      </g>
     </g>
     <g id="line2d_228">
      <g>
       <use style="stroke:#000000;stroke-width:0.6;" x="648" xlink:href="#m0c21f92758" y="67.095"/>
      </g>
     </g>
    </g>
    <g id="text_19">
     <!-- RMSE (x0.01 Mag) -->
     <g transform="translate(64.131534 317.106719)rotate(-90)scale(0.15 -0.15)">
      <defs>
       <path d="M 2509 2146 
C 3117 2268 3629 2676 3629 3186 
C 3629 3785 2950 4326 2054 4326 
L 333 4326 
L 333 4160 
C 774 4160 845 4160 845 3873 
L 845 415 
C 845 128 774 128 333 128 
L 333 -26 
C 518 -26 851 -26 1050 -26 
C 1248 -26 1581 -26 1766 -26 
L 1766 128 
C 1325 128 1254 128 1254 417 
L 1254 2112 
L 2003 2112 
C 2368 2112 2573 1964 2662 1881 
C 2918 1632 2918 1459 2918 1024 
C 2918 595 2918 377 3110 160 
C 3354 -102 3680 -128 3821 -128 
C 4294 -128 4365 396 4365 503 
C 4365 540 4365 585 4307 585 
C 4256 585 4250 547 4250 522 
C 4218 112 4032 -26 3834 -26 
C 3482 -26 3443 375 3405 764 
C 3386 898 3373 993 3360 1133 
C 3322 1452 3270 1917 2509 2146 
z
M 1984 2214 
L 1254 2214 
L 1254 3913 
C 1254 4129 1267 4160 1523 4160 
L 1990 4160 
C 2522 4160 3142 3977 3142 3190 
C 3142 2372 2464 2214 1984 2214 
z
" id="CMR17-52" transform="scale(0.015625)"/>
       <path d="M 1338 4224 
C 1299 4320 1293 4320 1158 4320 
L 339 4320 
L 339 4160 
C 781 4160 851 4160 851 3875 
L 851 610 
C 851 451 851 153 339 153 
L 339 -13 
C 486 0 755 0 915 0 
C 1075 0 1344 0 1491 -13 
L 1491 153 
C 979 153 979 451 979 610 
L 979 4135 
L 986 4135 
L 2490 89 
C 2515 25 2528 -13 2579 -13 
C 2630 -13 2643 25 2669 89 
L 4186 4166 
L 4192 4166 
L 4192 438 
C 4192 153 4122 153 3680 153 
L 3680 -13 
C 3853 0 4198 0 4384 0 
C 4570 0 4922 0 5094 -13 
L 5094 153 
C 4653 153 4582 153 4582 438 
L 4582 3875 
C 4582 4160 4653 4160 5094 4160 
L 5094 4320 
L 4282 4320 
C 4147 4320 4141 4314 4102 4218 
L 2720 502 
L 1338 4224 
z
" id="CMR17-4d" transform="scale(0.015625)"/>
       <path d="M 2803 4290 
C 2803 4404 2797 4411 2758 4411 
C 2720 4411 2707 4385 2682 4328 
L 2490 3907 
C 2246 4257 1875 4416 1472 4416 
C 819 4416 294 3901 294 3253 
C 294 3056 339 2776 557 2510 
C 794 2218 1018 2167 1530 2033 
C 1722 1982 2042 1899 2106 1874 
C 2470 1722 2662 1341 2662 985 
C 2662 527 2336 38 1779 38 
C 1094 38 454 419 410 1311 
C 403 1413 397 1419 352 1419 
C 301 1419 294 1413 294 1285 
L 294 -1 
C 294 -115 301 -122 339 -122 
C 384 -122 397 -90 486 108 
C 493 127 493 140 614 381 
C 934 -39 1472 -128 1779 -128 
C 2477 -128 2970 451 2970 1124 
C 2970 1454 2848 1708 2778 1823 
C 2509 2230 2221 2306 1914 2382 
C 1869 2402 1856 2402 1498 2490 
C 1152 2579 1005 2624 845 2796 
C 666 2992 602 3196 602 3399 
C 602 3812 934 4263 1478 4263 
C 2157 4263 2579 3786 2675 2993 
C 2694 2878 2701 2872 2746 2872 
C 2803 2872 2803 2891 2803 2999 
L 2803 4290 
z
" id="CMR17-53" transform="scale(0.015625)"/>
       <path d="M 3885 1615 
L 3770 1615 
C 3629 676 3546 166 2419 166 
L 1530 166 
C 1274 166 1261 197 1261 414 
L 1261 2176 
L 1862 2176 
C 2464 2176 2522 1960 2522 1430 
L 2637 1430 
L 2637 3081 
L 2522 3081 
C 2522 2557 2464 2342 1862 2342 
L 1261 2342 
L 1261 3913 
C 1261 4128 1274 4160 1530 4160 
L 2406 4160 
C 3398 4160 3514 3769 3603 2929 
L 3718 2929 
L 3565 4325 
L 326 4325 
L 326 4160 
C 768 4160 838 4160 838 3874 
L 838 451 
C 838 166 768 166 326 166 
L 326 0 
L 3654 0 
L 3885 1615 
z
" id="CMR17-45" transform="scale(0.015625)"/>
       <path d="M 1958 -1561 
C 1958 -1555 1958 -1542 1939 -1523 
C 1645 -1224 858 -407 858 1581 
C 858 3569 1632 4379 1946 4697 
C 1946 4704 1958 4717 1958 4736 
C 1958 4755 1939 4768 1914 4768 
C 1843 4768 1299 4296 986 3594 
C 666 2887 576 2199 576 1588 
C 576 1128 621 351 1005 -471 
C 1312 -1135 1837 -1600 1914 -1600 
C 1946 -1600 1958 -1587 1958 -1561 
z
" id="CMR17-28" transform="scale(0.015625)"/>
       <path d="M 1664 1477 
C 1856 1726 2074 2006 2253 2216 
C 2464 2458 2707 2560 2989 2560 
L 2989 2726 
C 2880 2726 2656 2726 2541 2726 
C 2368 2726 2170 2726 2022 2732 
L 2022 2566 
C 2112 2553 2163 2489 2163 2400 
C 2163 2285 2099 2215 2067 2171 
L 1594 1573 
L 1030 2306 
C 973 2376 973 2388 973 2420 
C 973 2497 1037 2560 1146 2560 
L 1146 2732 
C 992 2726 717 2726 557 2726 
C 384 2726 179 2726 38 2732 
L 38 2560 
C 384 2560 461 2534 614 2343 
L 1350 1395 
C 1363 1382 1395 1344 1395 1325 
C 1395 1299 838 619 768 530 
C 480 185 179 160 6 160 
L 6 0 
C 115 0 339 0 454 0 
C 582 0 864 0 979 -6 
L 979 160 
C 941 166 838 179 838 325 
C 838 440 890 510 947 586 
L 1478 1236 
L 2035 512 
C 2086 442 2163 346 2163 301 
C 2163 211 2086 160 1984 160 
L 1984 -6 
C 2138 0 2413 0 2573 0 
C 2746 0 2950 0 3091 -6 
L 3091 160 
C 2771 160 2675 172 2522 370 
L 1664 1477 
z
" id="CMR17-78" transform="scale(0.015625)"/>
       <path d="M 1062 261 
C 1062 420 934 522 800 522 
C 672 522 538 420 538 261 
C 538 102 666 0 800 0 
C 928 0 1062 102 1062 261 
z
" id="CMR17-2e" transform="scale(0.015625)"/>
       <path d="M 2304 1653 
C 2304 2072 2304 2294 2035 2543 
C 1798 2752 1523 2816 1306 2816 
C 800 2816 435 2407 435 1971 
C 435 1728 627 1728 666 1728 
C 749 1728 896 1778 896 1954 
C 896 2112 774 2181 666 2181 
C 640 2181 608 2174 589 2168 
C 723 2592 1069 2714 1293 2714 
C 1613 2714 1965 2429 1965 1885 
L 1965 1600 
C 1587 1600 1133 1549 774 1357 
C 371 1133 256 813 256 570 
C 256 77 832 -64 1171 -64 
C 1523 -64 1850 139 1990 511 
C 2003 233 2182 -18 2464 -18 
C 2598 -18 2938 70 2938 567 
L 2938 920 
L 2822 920 
L 2822 562 
C 2822 178 2650 128 2566 128 
C 2304 128 2304 458 2304 738 
L 2304 1653 
z
M 1965 870 
C 1965 317 1568 38 1216 38 
C 896 38 646 275 646 570 
C 646 761 730 1100 1101 1305 
C 1408 1478 1760 1504 1965 1504 
L 1965 870 
z
" id="CMR17-61" transform="scale(0.015625)"/>
       <path d="M 710 1164 
C 832 1068 1043 960 1299 960 
C 1805 960 2240 1357 2240 1888 
C 2240 2054 2189 2310 1997 2509 
C 2176 2692 2438 2752 2586 2752 
C 2611 2752 2650 2752 2682 2734 
C 2656 2728 2598 2703 2598 2605 
C 2598 2527 2656 2471 2739 2471 
C 2835 2471 2886 2533 2886 2614 
C 2886 2731 2790 2854 2586 2854 
C 2330 2854 2106 2738 1926 2580 
C 1734 2753 1504 2816 1299 2816 
C 794 2816 358 2419 358 1888 
C 358 1522 570 1292 634 1228 
C 442 1004 442 743 442 711 
C 442 545 506 302 723 168 
C 390 85 128 -169 128 -486 
C 128 -943 736 -1280 1466 -1280 
C 2170 -1280 2803 -956 2803 -479 
C 2803 384 1856 384 1363 384 
C 1216 384 954 384 922 391 
C 723 423 589 602 589 826 
C 589 883 589 1024 710 1164 
z
M 1299 1068 
C 736 1068 736 1760 736 1889 
C 736 2016 736 2708 1299 2708 
C 1862 2708 1862 2016 1862 1889 
C 1862 1760 1862 1068 1299 1068 
z
M 1466 -1171 
C 826 -1171 384 -835 384 -486 
C 384 -289 493 -105 634 -4 
C 794 104 858 104 1293 104 
C 1818 104 2547 104 2547 -486 
C 2547 -835 2106 -1171 1466 -1171 
z
" id="CMR17-67" transform="scale(0.015625)"/>
       <path d="M 1683 1581 
C 1683 2040 1638 2817 1254 3639 
C 947 4303 422 4768 346 4768 
C 326 4768 301 4761 301 4729 
C 301 4717 307 4710 314 4697 
C 621 4378 1402 3568 1402 1584 
C 1402 -407 627 -1217 314 -1537 
C 307 -1549 301 -1556 301 -1568 
C 301 -1600 326 -1600 346 -1600 
C 416 -1600 960 -1128 1274 -426 
C 1594 281 1683 969 1683 1581 
z
" id="CMR17-29" transform="scale(0.015625)"/>
      </defs>
      <use transform="scale(0.996264)" xlink:href="#CMR17-52"/>
      <use transform="translate(67.791102 0)scale(0.996264)" xlink:href="#CMR17-4d"/>
      <use transform="translate(152.478043 0)scale(0.996264)" xlink:href="#CMR17-53"/>
      <use transform="translate(203.373412 0)scale(0.996264)" xlink:href="#CMR17-45"/>
      <use transform="translate(296.035679 0)scale(0.996264)" xlink:href="#CMR17-28"/>
      <use transform="translate(331.316447 0)scale(0.996264)" xlink:href="#CMR17-78"/>
      <use transform="translate(379.609363 0)scale(0.996264)" xlink:href="#CMR17-30"/>
      <use transform="translate(425.29984 0)scale(0.996264)" xlink:href="#CMR17-2e"/>
      <use transform="translate(450.170898 0)scale(0.996264)" xlink:href="#CMR17-30"/>
      <use transform="translate(495.861376 0)scale(0.996264)" xlink:href="#CMR17-31"/>
      <use transform="translate(571.627819 0)scale(0.996264)" xlink:href="#CMR17-4d"/>
      <use transform="translate(656.31476 0)scale(0.996264)" xlink:href="#CMR17-61"/>
      <use transform="translate(702.005237 0)scale(0.996264)" xlink:href="#CMR17-67"/>
      <use transform="translate(747.695714 0)scale(0.996264)" xlink:href="#CMR17-29"/>
     </g>
    </g>
   </g>
   <g id="line2d_229">
    <path clip-path="url(#pf4b15524bd)" d="M 89.930808 88.430668 
L 91.08252 88.743447 
L 91.845864 88.763623 
L 92.615904 88.591214 
L 94.53096 87.979084 
L 95.301 88.042544 
L 96.07104 88.486499 
L 96.834384 89.379678 
L 97.986096 91.330927 
L 99.137808 93.188595 
L 99.907848 94.049493 
L 100.671192 94.640058 
L 101.822904 95.243457 
L 103.356288 96.014611 
L 104.508 96.838179 
L 106.041384 98.307326 
L 108.344808 100.796441 
L 109.114848 102.030336 
L 109.878192 103.709554 
L 110.648232 105.882075 
L 111.411576 108.578856 
L 112.181616 111.898483 
L 112.94496 116.019937 
L 113.715 121.081338 
L 114.866712 130.234778 
L 117.170136 149.497482 
L 118.315152 157.42772 
L 121.006944 173.201077 
L 123.69204 188.428278 
L 124.837056 193.581165 
L 125.607096 196.052088 
L 126.377136 197.552767 
L 126.758808 197.91518 
L 127.14048 198.019455 
L 127.528848 197.871345 
L 127.91052 197.47751 
L 128.292192 196.843198 
L 129.062232 194.861763 
L 129.825576 191.938903 
L 130.595616 188.125267 
L 131.747328 181.033215 
L 134.044056 164.446522 
L 136.34748 146.994807 
L 138.269232 130.982604 
L 140.184288 115.396407 
L 141.336 107.885008 
L 142.10604 104.080656 
L 142.869384 101.355386 
L 143.639424 99.702562 
L 144.021096 99.253029 
L 144.402768 99.031977 
L 144.791136 99.016983 
L 145.172808 99.181917 
L 145.942848 99.932522 
L 148.239576 103.095572 
L 149.009616 103.56107 
L 149.391288 103.602325 
L 150.161328 103.351925 
L 150.924672 102.772539 
L 152.076384 101.508854 
L 153.998136 99.107499 
L 154.76148 98.573756 
L 155.143152 98.494398 
L 155.53152 98.545995 
L 156.294864 98.973126 
L 157.446576 99.847916 
L 158.216616 100.056906 
L 158.598288 99.968331 
L 159.368328 99.475381 
L 160.52004 98.620392 
L 160.901712 98.494509 
L 161.283384 98.501962 
L 161.665056 98.6549 
L 162.435096 99.375935 
L 163.586808 101.119649 
L 165.501864 104.362763 
L 166.271904 106.077151 
L 167.423616 109.489234 
L 169.338672 115.614945 
L 170.872056 120.000557 
L 171.642096 122.775638 
L 172.793808 128.199254 
L 174.327192 137.117487 
L 176.248944 148.196885 
L 177.39396 153.495345 
L 178.164 156.065537 
L 178.545672 156.982928 
L 178.93404 157.621407 
L 179.315712 157.96111 
L 179.697384 157.989929 
L 180.079056 157.705572 
L 180.467424 157.116154 
L 181.230768 155.101754 
L 182.000808 152.168332 
L 183.15252 146.623815 
L 186.60096 128.797758 
L 187.752672 124.502616 
L 188.904384 121.46675 
L 190.437768 118.435338 
L 191.971152 115.164882 
L 193.122864 112.887823 
L 193.511232 112.402171 
L 193.892904 112.15089 
L 194.274576 112.190161 
L 194.662944 112.569707 
L 195.044616 113.330057 
L 195.426288 114.500295 
L 196.196328 118.121963 
L 196.959672 123.403159 
L 197.729712 130.12078 
L 199.263096 146.386094 
L 201.56652 171.531187 
L 202.718232 182.112563 
L 203.869944 191.15787 
L 205.01496 198.918455 
L 206.166672 205.156819 
L 206.936712 208.188584 
L 207.700056 210.191209 
L 208.088424 210.809844 
L 208.470096 211.189721 
L 208.851768 211.349231 
L 209.240136 211.308681 
L 209.621808 211.087895 
L 210.385152 210.169027 
L 211.155192 208.66815 
L 211.925232 206.566145 
L 212.688576 203.763326 
L 213.458616 200.13072 
L 214.22196 195.577991 
L 215.373672 187.05593 
L 216.525384 176.936524 
L 220.362192 141.528259 
L 222.283944 126.276539 
L 224.199 112.865464 
L 225.350712 105.923925 
L 226.114056 102.101536 
L 226.884096 99.256292 
L 227.265768 98.291583 
L 227.654136 97.671669 
L 228.035808 97.416153 
L 228.41748 97.534716 
L 228.805848 98.026916 
L 229.18752 98.882853 
L 229.950864 101.608013 
L 230.720904 105.50524 
L 231.872616 113.013816 
L 233.787672 128.011807 
L 236.091096 145.801483 
L 237.242808 152.677356 
L 238.006152 155.959874 
L 238.776192 158.005871 
L 239.157864 158.536835 
L 239.546232 158.734535 
L 239.927904 158.600604 
L 240.309576 158.140795 
L 240.697944 157.364723 
L 241.461288 154.923017 
L 242.231328 151.437044 
L 243.38304 144.760679 
L 248.364864 112.797859 
L 249.904944 105.021309 
L 251.04996 100.54915 
L 251.82 98.358526 
L 252.59004 96.850042 
L 253.353384 96.031987 
L 253.735056 95.875189 
L 254.123424 95.877945 
L 254.505096 96.030554 
L 255.275136 96.737499 
L 256.03848 97.898982 
L 256.80852 99.436 
L 257.960232 102.332664 
L 259.493616 107.085519 
L 261.79704 115.33427 
L 263.330424 120.688561 
L 264.482136 123.92334 
L 265.24548 125.517401 
L 266.01552 126.624002 
L 266.778864 127.249054 
L 267.548904 127.413789 
L 268.318944 127.16436 
L 269.082288 126.5902 
L 270.615672 124.972832 
L 275.604192 119.624428 
L 276.374232 119.069408 
L 277.137576 118.862998 
L 277.525944 118.927516 
L 277.907616 119.119572 
L 278.67096 119.915951 
L 279.441 121.270725 
L 280.21104 123.125351 
L 281.744424 127.742908 
L 283.277808 132.320201 
L 284.42952 134.997688 
L 285.192864 136.28274 
L 285.962904 137.174861 
L 286.732944 137.758194 
L 288.266328 138.680964 
L 289.029672 139.478337 
L 289.799712 140.826782 
L 290.563056 142.954431 
L 291.333096 146.061607 
L 292.103136 150.315779 
L 292.86648 155.851652 
L 293.63652 162.774977 
L 294.788232 175.929456 
L 295.939944 192.530879 
L 297.08496 212.568464 
L 298.236672 235.860188 
L 299.770056 271.206051 
L 303.995232 370.969622 
L 304.758576 382.380343 
L 305.146944 385.996874 
L 305.528616 387.924903 
L 305.910288 388.057556 
L 306.29196 386.432229 
L 306.680328 383.221021 
L 307.443672 373.073611 
L 308.213712 359.634577 
L 309.747096 328.179128 
L 313.583904 246.769888 
L 315.117288 218.255644 
L 316.650672 193.809978 
L 318.184056 173.528762 
L 319.724136 156.79773 
L 321.25752 142.905193 
L 322.409232 134.116857 
L 323.560944 126.712379 
L 324.70596 120.755505 
L 325.857672 116.2822 
L 326.627712 114.085557 
L 327.391056 112.446073 
L 328.161096 111.29041 
L 328.931136 110.571933 
L 329.69448 110.297521 
L 330.082848 110.342371 
L 330.46452 110.518793 
L 331.227864 111.284082 
L 331.997904 112.581945 
L 333.149616 115.293897 
L 335.45304 121.288652 
L 336.598056 123.600528 
L 337.749768 125.234147 
L 338.90148 126.287541 
L 339.67152 126.732907 
L 340.434864 126.987497 
L 341.204904 127.025334 
L 341.974944 126.793523 
L 342.738288 126.230983 
L 343.508328 125.289558 
L 344.271672 123.95205 
L 345.041712 122.248224 
L 348.496848 113.763759 
L 349.260192 112.869477 
L 349.641864 112.671181 
L 350.030232 112.64137 
L 350.411904 112.772722 
L 351.181944 113.451663 
L 352.32696 115.076439 
L 353.097 116.111202 
L 353.86704 116.733585 
L 354.248712 116.818213 
L 354.630384 116.735526 
L 355.012056 116.48958 
L 355.782096 115.581693 
L 357.31548 112.946277 
L 358.467192 111.107814 
L 359.618904 109.716746 
L 360.770616 108.666813 
L 361.922328 107.836212 
L 362.685672 107.44026 
L 363.455712 107.23224 
L 364.219056 107.24095 
L 364.989096 107.45338 
L 366.140808 108.087053 
L 366.910848 108.737197 
L 367.674192 109.685611 
L 368.444232 111.100207 
L 369.207576 113.135621 
L 369.977616 115.86519 
L 371.129328 121.172669 
L 372.662712 129.850006 
L 376.111152 150.479148 
L 377.262864 156.111864 
L 378.032904 159.120984 
L 378.802944 161.37101 
L 379.566288 162.74801 
L 379.94796 163.086676 
L 380.336328 163.188856 
L 380.718 163.058562 
L 381.099672 162.705211 
L 381.48804 162.143223 
L 382.251384 160.471899 
L 383.403096 156.956291 
L 386.858232 145.001729 
L 388.009944 141.974926 
L 389.15496 139.646093 
L 390.69504 137.235543 
L 391.840056 135.367842 
L 392.610096 133.796118 
L 393.380136 131.823966 
L 394.525152 128.077031 
L 396.446904 120.677228 
L 397.598616 116.526006 
L 398.36196 114.22004 
L 399.132 112.429403 
L 399.90204 111.255638 
L 400.283712 110.925968 
L 400.665384 110.778123 
L 401.047056 110.817284 
L 401.435424 111.046096 
L 401.817096 111.46476 
L 402.587136 112.859488 
L 403.35048 114.954062 
L 404.12052 117.670137 
L 405.272232 122.695619 
L 406.805616 130.667443 
L 409.10904 144.264267 
L 413.709192 172.473758 
L 415.242576 180.23011 
L 416.394288 184.928767 
L 417.164328 187.441695 
L 417.927672 189.426923 
L 418.697712 190.869566 
L 419.461056 191.762525 
L 419.849424 192.0019 
L 420.231096 192.102977 
L 420.612768 192.065602 
L 421.001136 191.889577 
L 421.76448 191.12109 
L 422.53452 189.798289 
L 423.297864 187.929265 
L 424.067904 185.538096 
L 425.219616 181.089443 
L 426.753 174.052692 
L 429.438096 161.458328 
L 431.359848 153.59102 
L 433.656576 144.047295 
L 435.18996 136.650975 
L 439.026768 117.830176 
L 440.17848 113.419558 
L 441.330192 109.836389 
L 442.481904 107.042279 
L 443.633616 104.922569 
L 444.785328 103.301651 
L 446.318712 101.582303 
L 447.852096 100.187045 
L 448.622136 99.703687 
L 449.38548 99.483209 
L 450.15552 99.627967 
L 450.918864 100.222391 
L 451.688904 101.316931 
L 452.458944 102.922171 
L 453.222288 105.011695 
L 454.374 108.92579 
L 455.907384 115.156966 
L 458.59248 126.48425 
L 459.744192 130.522112 
L 460.514232 132.69009 
L 461.277576 134.353762 
L 462.047616 135.466317 
L 462.81096 136.007005 
L 463.199328 136.063806 
L 463.581 135.982133 
L 464.35104 135.424907 
L 465.114384 134.393827 
L 465.884424 132.96964 
L 467.036136 130.314401 
L 470.102904 122.788449 
L 471.254616 120.613371 
L 472.406328 118.877904 
L 475.473096 114.623797 
L 477.00648 111.967367 
L 480.843288 105.015069 
L 482.376672 102.811303 
L 484.298424 100.58809 
L 488.516904 95.988195 
L 490.43196 93.433306 
L 494.657136 87.556981 
L 495.802152 86.491966 
L 496.953864 85.789453 
L 498.105576 85.415485 
L 499.257288 85.312688 
L 500.409 85.440798 
L 501.560712 85.79448 
L 502.712424 86.384891 
L 504.245808 87.512418 
L 506.160864 89.311301 
L 507.700944 91.047386 
L 509.234328 93.185993 
L 510.767712 95.821431 
L 512.682768 99.717865 
L 515.756232 106.014771 
L 516.907944 107.806356 
L 517.671288 108.698367 
L 518.441328 109.321808 
L 519.204672 109.675468 
L 519.974712 109.777824 
L 520.738056 109.665899 
L 521.889768 109.21502 
L 524.193192 108.124141 
L 525.344904 107.89879 
L 526.114944 107.950916 
L 526.878288 108.168858 
L 528.03 108.765178 
L 529.563384 109.905891 
L 531.485136 111.64493 
L 533.01852 113.311866 
L 534.551904 115.361789 
L 536.46696 118.41051 
L 538.388712 121.393125 
L 539.540424 122.748031 
L 540.303768 123.354517 
L 541.073808 123.685355 
L 541.837152 123.732718 
L 542.607192 123.513806 
L 543.377232 123.07124 
L 544.910616 121.797147 
L 546.062328 120.85731 
L 546.825672 120.41556 
L 547.595712 120.216272 
L 548.359056 120.317548 
L 549.129096 120.75233 
L 549.899136 121.52849 
L 550.66248 122.632291 
L 551.43252 124.033414 
L 552.584232 126.600078 
L 554.117616 130.628327 
L 557.566056 140.090334 
L 558.717768 142.695586 
L 559.86948 144.744582 
L 560.63952 145.742256 
L 561.402864 146.418199 
L 562.172904 146.760614 
L 562.942944 146.766986 
L 563.706288 146.442873 
L 564.476328 145.800579 
L 565.239672 144.858029 
L 566.009712 143.638312 
L 567.161424 141.353491 
L 568.694808 137.669619 
L 571.761576 130.009008 
L 572.913288 127.820832 
L 573.683328 126.731717 
L 574.446672 125.963032 
L 575.216712 125.508735 
L 575.980056 125.342633 
L 576.750096 125.424063 
L 577.520136 125.704297 
L 578.665152 126.386127 
L 583.272 129.519189 
L 584.423712 129.838937 
L 585.187056 129.864272 
L 585.957096 129.727452 
L 586.727136 129.426734 
L 587.872152 128.681289 
L 589.023864 127.61967 
L 590.175576 126.29742 
L 591.70896 124.229968 
L 593.630712 121.31928 
L 599.382576 112.285902 
L 600.534288 111.053682 
L 601.304328 110.512817 
L 602.067672 110.244579 
L 602.837712 110.273619 
L 603.601056 110.602627 
L 604.371096 111.2092 
L 605.522808 112.534868 
L 607.437864 115.30501 
L 609.741288 118.505678 
L 613.578096 123.527124 
L 615.11148 126.146708 
L 619.32996 134.000455 
L 620.481672 135.486581 
L 621.633384 136.53594 
L 622.785096 137.273535 
L 624.700152 138.429043 
L 625.851864 139.435758 
L 627.003576 140.797654 
L 628.53696 143.00885 
L 630.458712 145.676702 
L 631.610424 146.842684 
L 632.373768 147.374816 
L 633.52548 147.834427 
L 634.677192 148.003396 
L 638.514 148.103304 
L 639.665712 148.023616 
L 640.817424 147.680429 
L 641.580768 147.22642 
L 642.350808 146.546927 
L 643.114152 145.614807 
L 643.884192 144.413501 
L 645.035904 142.091658 
L 646.187616 139.145977 
L 647.339328 135.592267 
L 648.102672 132.901902 
L 648.102672 132.901902 
" style="fill:none;stroke:#000000;stroke-linecap:square;stroke-width:2;"/>
   </g>
   <g id="patch_3">
    <path d="M 90 448.56 
L 90 60.48 
" style="fill:none;stroke:#000000;stroke-linecap:square;stroke-linejoin:miter;stroke-width:0.8;"/>
   </g>
   <g id="patch_4">
    <path d="M 648 448.56 
L 648 60.48 
" style="fill:none;stroke:#000000;stroke-linecap:square;stroke-linejoin:miter;stroke-width:0.8;"/>
   </g>
   <g id="patch_5">
    <path d="M 90 448.56 
L 648 448.56 
" style="fill:none;stroke:#000000;stroke-linecap:square;stroke-linejoin:miter;stroke-width:0.8;"/>
   </g>
   <g id="patch_6">
    <path d="M 90 60.48 
L 648 60.48 
" style="fill:none;stroke:#000000;stroke-linecap:square;stroke-linejoin:miter;stroke-width:0.8;"/>
   </g>
   <g id="text_20">
    <!-- Periodogram: 2003 RP8 -->
    <g transform="translate(267.848944 54.48)scale(0.21 -0.21)">
     <defs>
      <path d="M 1267 2042 
L 2291 2042 
C 3117 2042 3718 2578 3718 3184 
C 3718 3791 3130 4352 2291 4352 
L 333 4352 
L 333 4186 
C 774 4186 845 4186 845 3899 
L 845 446 
C 845 160 774 160 333 160 
L 333 0 
C 518 0 858 0 1056 0 
C 1254 0 1594 0 1779 0 
L 1779 160 
C 1338 160 1267 160 1267 446 
L 1267 2042 
z
M 1254 2176 
L 1254 3938 
C 1254 4155 1267 4186 1523 4186 
L 2170 4186 
C 2995 4186 3232 3714 3232 3184 
C 3232 2604 2950 2176 2170 2176 
L 1254 2176 
z
" id="CMR17-50" transform="scale(0.015625)"/>
      <path d="M 2438 1472 
C 2464 1498 2464 1511 2464 1576 
C 2464 2238 2118 2816 1389 2816 
C 710 2816 173 2169 173 1383 
C 173 551 781 -64 1459 -64 
C 2176 -64 2458 607 2458 740 
C 2458 784 2419 784 2406 784 
C 2362 784 2355 771 2330 696 
C 2189 265 1837 51 1504 51 
C 1229 51 954 203 781 480 
C 582 803 582 1176 582 1472 
L 2438 1472 
z
M 589 1568 
C 634 2505 1126 2714 1382 2714 
C 1818 2714 2112 2297 2118 1568 
L 589 1568 
z
" id="CMR17-65" transform="scale(0.015625)"/>
      <path d="M 992 3909 
C 992 4049 877 4170 730 4170 
C 589 4170 467 4056 467 3909 
C 467 3769 582 3648 730 3648 
C 870 3648 992 3763 992 3909 
z
M 243 2706 
L 243 2541 
C 602 2541 653 2502 653 2197 
L 653 427 
C 653 184 627 153 218 153 
L 218 -13 
C 371 0 646 0 806 0 
C 960 0 1222 0 1370 -13 
L 1370 153 
C 992 153 979 191 979 420 
L 979 2776 
L 243 2706 
z
" id="CMR17-69" transform="scale(0.015625)"/>
      <path d="M 1869 4326 
L 1869 4160 
C 2246 4160 2304 4122 2304 3820 
L 2304 2345 
C 2278 2377 2016 2790 1498 2790 
C 845 2790 211 2208 211 1364 
C 211 525 806 -64 1434 -64 
C 1978 -64 2259 337 2291 380 
L 2291 -63 
L 3066 -63 
L 3066 128 
C 2688 128 2630 166 2630 473 
L 2630 4396 
L 1869 4326 
z
M 2291 755 
C 2291 563 2176 390 2029 262 
C 1811 70 1594 38 1472 38 
C 1286 38 621 134 621 1356 
C 621 2612 1363 2688 1530 2688 
C 1824 2688 2061 2522 2208 2291 
C 2291 2157 2291 2138 2291 2023 
L 2291 755 
z
" id="CMR17-64" transform="scale(0.015625)"/>
      <path d="M 4326 1933 
C 4326 2252 4269 2790 3507 2790 
C 3072 2790 2771 2496 2656 2151 
L 2650 2151 
C 2573 2676 2195 2790 1837 2790 
C 1331 2790 1069 2400 973 2144 
L 966 2144 
L 966 2790 
L 211 2720 
L 211 2554 
C 589 2554 646 2515 646 2208 
L 646 428 
C 646 184 621 153 211 153 
L 211 -13 
C 365 0 646 0 813 0 
C 979 0 1267 0 1421 -13 
L 1421 153 
C 1011 153 986 178 986 428 
L 986 1658 
C 986 2247 1344 2688 1792 2688 
C 2266 2688 2317 2266 2317 1958 
L 2317 428 
C 2317 184 2291 153 1882 153 
L 1882 -13 
C 2035 0 2317 0 2483 0 
C 2650 0 2938 0 3091 -13 
L 3091 153 
C 2682 153 2656 178 2656 428 
L 2656 1658 
C 2656 2247 3014 2688 3462 2688 
C 3936 2688 3987 2266 3987 1958 
L 3987 428 
C 3987 184 3962 153 3552 153 
L 3552 -13 
C 3706 0 3987 0 4154 0 
C 4320 0 4608 0 4762 -13 
L 4762 153 
C 4352 153 4326 178 4326 428 
L 4326 1933 
z
" id="CMR17-6d" transform="scale(0.015625)"/>
      <path d="M 1062 2491 
C 1062 2650 934 2752 800 2752 
C 672 2752 538 2650 538 2491 
C 538 2332 666 2230 800 2230 
C 928 2230 1062 2332 1062 2491 
z
M 1062 261 
C 1062 420 934 522 800 522 
C 672 522 538 420 538 261 
C 538 102 666 0 800 0 
C 928 0 1062 102 1062 261 
z
" id="CMR17-3a" transform="scale(0.015625)"/>
     </defs>
     <use transform="scale(0.996264)" xlink:href="#CMR17-50"/>
     <use transform="translate(59.983847 0)scale(0.996264)" xlink:href="#CMR17-65"/>
     <use transform="translate(100.469507 0)scale(0.996264)" xlink:href="#CMR17-72"/>
     <use transform="translate(135.750275 0)scale(0.996264)" xlink:href="#CMR17-69"/>
     <use transform="translate(160.621333 0)scale(0.996264)" xlink:href="#CMR17-6f"/>
     <use transform="translate(208.914249 0)scale(0.996264)" xlink:href="#CMR17-64"/>
     <use transform="translate(259.809619 0)scale(0.996264)" xlink:href="#CMR17-6f"/>
     <use transform="translate(305.500096 0)scale(0.996264)" xlink:href="#CMR17-67"/>
     <use transform="translate(351.190573 0)scale(0.996264)" xlink:href="#CMR17-72"/>
     <use transform="translate(386.471341 0)scale(0.996264)" xlink:href="#CMR17-61"/>
     <use transform="translate(432.161818 0)scale(0.996264)" xlink:href="#CMR17-6d"/>
     <use transform="translate(509.081408 0)scale(0.996264)" xlink:href="#CMR17-3a"/>
     <use transform="translate(574.438127 0)scale(0.996264)" xlink:href="#CMR17-32"/>
     <use transform="translate(620.128604 0)scale(0.996264)" xlink:href="#CMR17-30"/>
     <use transform="translate(665.819081 0)scale(0.996264)" xlink:href="#CMR17-30"/>
     <use transform="translate(711.509558 0)scale(0.996264)" xlink:href="#CMR17-33"/>
     <use transform="translate(787.276002 0)scale(0.996264)" xlink:href="#CMR17-52"/>
     <use transform="translate(855.067104 0)scale(0.996264)" xlink:href="#CMR17-50"/>
     <use transform="translate(917.653404 0)scale(0.996264)" xlink:href="#CMR17-38"/>
    </g>
   </g>
  </g>
 </g>
 <defs>
  <clipPath id="pf4b15524bd">
   <rect height="388.08" width="558" x="90" y="60.48"/>
  </clipPath>
 </defs>
</svg>
