<?xml version="1.0" encoding="utf-8" standalone="no"?>
<!DOCTYPE svg PUBLIC "-//W3C//DTD SVG 1.1//EN"
  "http://www.w3.org/Graphics/SVG/1.1/DTD/svg11.dtd">
<svg height="432pt" version="1.1" viewBox="0 0 720 432" width="720pt" xmlns="http://www.w3.org/2000/svg" xmlns:xlink="http://www.w3.org/1999/xlink">
 <metadata>
  <rdf:RDF xmlns:cc="http://creativecommons.org/ns#" xmlns:dc="http://purl.org/dc/elements/1.1/" xmlns:rdf="http://www.w3.org/1999/02/22-rdf-syntax-ns#">
   <cc:Work>
    <dc:type rdf:resource="http://purl.org/dc/dcmitype/StillImage"/>
    <dc:date>2021-08-25T16:34:55.970258</dc:date>
    <dc:format>image/svg+xml</dc:format>
    <dc:creator>
     <cc:Agent>
      <dc:title>Matplotlib v3.4.2, https://matplotlib.org/</dc:title>
     </cc:Agent>
    </dc:creator>
   </cc:Work>
  </rdf:RDF>
 </metadata>
 <defs>
  <style type="text/css">*{stroke-linecap:butt;stroke-linejoin:round;}</style>
 </defs>
 <g id="figure_1">
  <g id="patch_1">
   <path d="M 0 432 
L 720 432 
L 720 0 
L 0 0 
z
" style="fill:#ffffff;"/>
  </g>
  <g id="axes_1">
   <g id="patch_2">
    <path d="M 90 384.48 
L 648 384.48 
L 648 51.84 
L 90 51.84 
z
" style="fill:#ffffff;"/>
   </g>
   <g id="matplotlib.axis_1">
    <g id="xtick_1">
     <g id="line2d_1">
      <path clip-path="url(#pa996e8abe1)" d="M 115.363636 384.48 
L 115.363636 51.84 
" style="fill:none;stroke:#cccccc;stroke-linecap:round;stroke-width:0.8;"/>
     </g>
     <g id="line2d_2"/>
     <g id="text_1">
      <!-- 0.0 -->
      <g style="fill:#262626;" transform="translate(108.413636 395.226875)scale(0.1 -0.1)">
       <defs>
        <path d="M 3309 2203 
Q 3309 1569 3189 1136 
Q 3069 703 2861 436 
Q 2653 169 2372 53 
Q 2091 -63 1772 -63 
Q 1450 -63 1172 53 
Q 894 169 689 434 
Q 484 700 367 1133 
Q 250 1566 250 2203 
Q 250 2869 367 3305 
Q 484 3741 690 4000 
Q 897 4259 1178 4364 
Q 1459 4469 1791 4469 
Q 2106 4469 2382 4364 
Q 2659 4259 2865 4000 
Q 3072 3741 3190 3305 
Q 3309 2869 3309 2203 
z
M 2738 2203 
Q 2738 2728 2675 3076 
Q 2613 3425 2491 3633 
Q 2369 3841 2192 3927 
Q 2016 4013 1791 4013 
Q 1553 4013 1372 3925 
Q 1191 3838 1067 3630 
Q 944 3422 881 3073 
Q 819 2725 819 2203 
Q 819 1697 883 1350 
Q 947 1003 1070 792 
Q 1194 581 1372 489 
Q 1550 397 1778 397 
Q 2000 397 2178 489 
Q 2356 581 2479 792 
Q 2603 1003 2670 1350 
Q 2738 1697 2738 2203 
z
" id="LiberationSans-30" transform="scale(0.015625)"/>
        <path d="M 584 0 
L 584 684 
L 1194 684 
L 1194 0 
L 584 0 
z
" id="LiberationSans-2e" transform="scale(0.015625)"/>
       </defs>
       <use xlink:href="#LiberationSans-30"/>
       <use x="55.615234" xlink:href="#LiberationSans-2e"/>
       <use x="83.398438" xlink:href="#LiberationSans-30"/>
      </g>
     </g>
    </g>
    <g id="xtick_2">
     <g id="line2d_3">
      <path clip-path="url(#pa996e8abe1)" d="M 218.347178 384.48 
L 218.347178 51.84 
" style="fill:none;stroke:#cccccc;stroke-linecap:round;stroke-width:0.8;"/>
     </g>
     <g id="line2d_4"/>
     <g id="text_2">
      <!-- 0.2 -->
      <g style="fill:#262626;" transform="translate(211.397178 395.226875)scale(0.1 -0.1)">
       <defs>
        <path d="M 322 0 
L 322 397 
Q 481 763 711 1042 
Q 941 1322 1194 1548 
Q 1447 1775 1695 1969 
Q 1944 2163 2144 2356 
Q 2344 2550 2467 2762 
Q 2591 2975 2591 3244 
Q 2591 3431 2534 3573 
Q 2478 3716 2372 3812 
Q 2266 3909 2117 3957 
Q 1969 4006 1788 4006 
Q 1619 4006 1470 3959 
Q 1322 3913 1206 3819 
Q 1091 3725 1017 3586 
Q 944 3447 922 3263 
L 347 3316 
Q 375 3553 478 3762 
Q 581 3972 762 4130 
Q 944 4288 1198 4378 
Q 1453 4469 1788 4469 
Q 2116 4469 2372 4391 
Q 2628 4313 2804 4159 
Q 2981 4006 3075 3781 
Q 3169 3556 3169 3263 
Q 3169 3041 3089 2841 
Q 3009 2641 2876 2459 
Q 2744 2278 2569 2109 
Q 2394 1941 2203 1780 
Q 2013 1619 1819 1461 
Q 1625 1303 1454 1143 
Q 1284 984 1150 820 
Q 1016 656 941 478 
L 3238 478 
L 3238 0 
L 322 0 
z
" id="LiberationSans-32" transform="scale(0.015625)"/>
       </defs>
       <use xlink:href="#LiberationSans-30"/>
       <use x="55.615234" xlink:href="#LiberationSans-2e"/>
       <use x="83.398438" xlink:href="#LiberationSans-32"/>
      </g>
     </g>
    </g>
    <g id="xtick_3">
     <g id="line2d_5">
      <path clip-path="url(#pa996e8abe1)" d="M 321.330721 384.48 
L 321.330721 51.84 
" style="fill:none;stroke:#cccccc;stroke-linecap:round;stroke-width:0.8;"/>
     </g>
     <g id="line2d_6"/>
     <g id="text_3">
      <!-- 0.4 -->
      <g style="fill:#262626;" transform="translate(314.380721 395.226875)scale(0.1 -0.1)">
       <defs>
        <path d="M 2753 997 
L 2753 0 
L 2222 0 
L 2222 997 
L 147 997 
L 147 1434 
L 2163 4403 
L 2753 4403 
L 2753 1441 
L 3372 1441 
L 3372 997 
L 2753 997 
z
M 2222 3769 
Q 2216 3753 2191 3708 
Q 2166 3663 2134 3606 
Q 2103 3550 2070 3492 
Q 2038 3434 2013 3397 
L 884 1734 
Q 869 1709 839 1668 
Q 809 1628 778 1586 
Q 747 1544 715 1503 
Q 684 1463 666 1441 
L 2222 1441 
L 2222 3769 
z
" id="LiberationSans-34" transform="scale(0.015625)"/>
       </defs>
       <use xlink:href="#LiberationSans-30"/>
       <use x="55.615234" xlink:href="#LiberationSans-2e"/>
       <use x="83.398438" xlink:href="#LiberationSans-34"/>
      </g>
     </g>
    </g>
    <g id="xtick_4">
     <g id="line2d_7">
      <path clip-path="url(#pa996e8abe1)" d="M 424.314263 384.48 
L 424.314263 51.84 
" style="fill:none;stroke:#cccccc;stroke-linecap:round;stroke-width:0.8;"/>
     </g>
     <g id="line2d_8"/>
     <g id="text_4">
      <!-- 0.6 -->
      <g style="fill:#262626;" transform="translate(417.364263 395.226875)scale(0.1 -0.1)">
       <defs>
        <path d="M 3278 1441 
Q 3278 1109 3186 832 
Q 3094 556 2914 357 
Q 2734 159 2468 48 
Q 2203 -63 1856 -63 
Q 1472 -63 1184 84 
Q 897 231 706 507 
Q 516 784 420 1186 
Q 325 1588 325 2100 
Q 325 2688 433 3131 
Q 541 3575 744 3872 
Q 947 4169 1239 4319 
Q 1531 4469 1900 4469 
Q 2125 4469 2322 4422 
Q 2519 4375 2680 4270 
Q 2841 4166 2962 3994 
Q 3084 3822 3156 3572 
L 2619 3475 
Q 2531 3759 2339 3886 
Q 2147 4013 1894 4013 
Q 1663 4013 1475 3903 
Q 1288 3794 1156 3576 
Q 1025 3359 954 3031 
Q 884 2703 884 2266 
Q 1038 2550 1316 2698 
Q 1594 2847 1953 2847 
Q 2253 2847 2497 2750 
Q 2741 2653 2914 2470 
Q 3088 2288 3183 2027 
Q 3278 1766 3278 1441 
z
M 2706 1416 
Q 2706 1644 2650 1828 
Q 2594 2013 2481 2142 
Q 2369 2272 2203 2342 
Q 2038 2413 1819 2413 
Q 1666 2413 1509 2367 
Q 1353 2322 1226 2220 
Q 1100 2119 1020 1953 
Q 941 1788 941 1550 
Q 941 1306 1003 1095 
Q 1066 884 1183 728 
Q 1300 572 1465 481 
Q 1631 391 1838 391 
Q 2041 391 2202 461 
Q 2363 531 2475 664 
Q 2588 797 2647 987 
Q 2706 1178 2706 1416 
z
" id="LiberationSans-36" transform="scale(0.015625)"/>
       </defs>
       <use xlink:href="#LiberationSans-30"/>
       <use x="55.615234" xlink:href="#LiberationSans-2e"/>
       <use x="83.398438" xlink:href="#LiberationSans-36"/>
      </g>
     </g>
    </g>
    <g id="xtick_5">
     <g id="line2d_9">
      <path clip-path="url(#pa996e8abe1)" d="M 527.297805 384.48 
L 527.297805 51.84 
" style="fill:none;stroke:#cccccc;stroke-linecap:round;stroke-width:0.8;"/>
     </g>
     <g id="line2d_10"/>
     <g id="text_5">
      <!-- 0.8 -->
      <g style="fill:#262626;" transform="translate(520.347805 395.226875)scale(0.1 -0.1)">
       <defs>
        <path d="M 3281 1228 
Q 3281 947 3192 711 
Q 3103 475 2920 303 
Q 2738 131 2453 34 
Q 2169 -63 1781 -63 
Q 1394 -63 1111 34 
Q 828 131 642 301 
Q 456 472 367 708 
Q 278 944 278 1222 
Q 278 1463 351 1650 
Q 425 1838 548 1973 
Q 672 2109 830 2192 
Q 988 2275 1156 2303 
L 1156 2316 
Q 972 2359 826 2456 
Q 681 2553 582 2689 
Q 484 2825 432 2990 
Q 381 3156 381 3341 
Q 381 3572 470 3776 
Q 559 3981 734 4136 
Q 909 4291 1168 4380 
Q 1428 4469 1769 4469 
Q 2128 4469 2392 4378 
Q 2656 4288 2829 4133 
Q 3003 3978 3087 3772 
Q 3172 3566 3172 3334 
Q 3172 3153 3120 2987 
Q 3069 2822 2970 2686 
Q 2872 2550 2726 2454 
Q 2581 2359 2391 2322 
L 2391 2309 
Q 2581 2278 2743 2195 
Q 2906 2113 3025 1977 
Q 3144 1841 3212 1653 
Q 3281 1466 3281 1228 
z
M 2588 3303 
Q 2588 3469 2545 3606 
Q 2503 3744 2406 3842 
Q 2309 3941 2153 3995 
Q 1997 4050 1769 4050 
Q 1547 4050 1394 3995 
Q 1241 3941 1142 3842 
Q 1044 3744 1000 3606 
Q 956 3469 956 3303 
Q 956 3172 990 3034 
Q 1025 2897 1115 2784 
Q 1206 2672 1365 2600 
Q 1525 2528 1775 2528 
Q 2041 2528 2202 2600 
Q 2363 2672 2448 2784 
Q 2534 2897 2561 3034 
Q 2588 3172 2588 3303 
z
M 2697 1281 
Q 2697 1441 2653 1589 
Q 2609 1738 2503 1852 
Q 2397 1966 2217 2036 
Q 2038 2106 1769 2106 
Q 1522 2106 1348 2036 
Q 1175 1966 1067 1850 
Q 959 1734 909 1582 
Q 859 1431 859 1269 
Q 859 1066 909 898 
Q 959 731 1068 611 
Q 1178 491 1356 425 
Q 1534 359 1788 359 
Q 2044 359 2219 425 
Q 2394 491 2500 611 
Q 2606 731 2651 901 
Q 2697 1072 2697 1281 
z
" id="LiberationSans-38" transform="scale(0.015625)"/>
       </defs>
       <use xlink:href="#LiberationSans-30"/>
       <use x="55.615234" xlink:href="#LiberationSans-2e"/>
       <use x="83.398438" xlink:href="#LiberationSans-38"/>
      </g>
     </g>
    </g>
    <g id="xtick_6">
     <g id="line2d_11">
      <path clip-path="url(#pa996e8abe1)" d="M 630.281347 384.48 
L 630.281347 51.84 
" style="fill:none;stroke:#cccccc;stroke-linecap:round;stroke-width:0.8;"/>
     </g>
     <g id="line2d_12"/>
     <g id="text_6">
      <!-- 1.0 -->
      <g style="fill:#262626;" transform="translate(623.331347 395.226875)scale(0.1 -0.1)">
       <defs>
        <path d="M 488 0 
L 488 478 
L 1609 478 
L 1609 3866 
L 616 3156 
L 616 3688 
L 1656 4403 
L 2175 4403 
L 2175 478 
L 3247 478 
L 3247 0 
L 488 0 
z
" id="LiberationSans-31" transform="scale(0.015625)"/>
       </defs>
       <use xlink:href="#LiberationSans-31"/>
       <use x="55.615234" xlink:href="#LiberationSans-2e"/>
       <use x="83.398438" xlink:href="#LiberationSans-30"/>
      </g>
     </g>
    </g>
    <g id="text_7">
     <!-- Phase [Period = 6.7970 H -->
     <g style="fill:#262626;" transform="translate(311.603125 408.54875)scale(0.1 -0.1)">
      <defs>
       <path d="M 3931 3078 
Q 3931 2791 3836 2542 
Q 3741 2294 3552 2111 
Q 3363 1928 3078 1822 
Q 2794 1716 2416 1716 
L 1122 1716 
L 1122 0 
L 525 0 
L 525 4403 
L 2378 4403 
Q 2769 4403 3059 4308 
Q 3350 4213 3544 4039 
Q 3738 3866 3834 3620 
Q 3931 3375 3931 3078 
z
M 3331 3072 
Q 3331 3491 3075 3708 
Q 2819 3925 2306 3925 
L 1122 3925 
L 1122 2188 
L 2331 2188 
Q 2847 2188 3089 2416 
Q 3331 2644 3331 3072 
z
" id="LiberationSans-50" transform="scale(0.015625)"/>
       <path d="M 991 2803 
Q 1084 2975 1193 3095 
Q 1303 3216 1434 3294 
Q 1566 3372 1722 3408 
Q 1878 3444 2072 3444 
Q 2397 3444 2605 3356 
Q 2813 3269 2933 3111 
Q 3053 2953 3098 2734 
Q 3144 2516 3144 2253 
L 3144 0 
L 2578 0 
L 2578 2144 
Q 2578 2359 2551 2521 
Q 2525 2684 2450 2792 
Q 2375 2900 2237 2954 
Q 2100 3009 1881 3009 
Q 1681 3009 1520 2937 
Q 1359 2866 1245 2734 
Q 1131 2603 1068 2415 
Q 1006 2228 1006 1994 
L 1006 0 
L 444 0 
L 444 4638 
L 1006 4638 
L 1006 3431 
Q 1006 3328 1003 3225 
Q 1000 3122 995 3034 
Q 991 2947 987 2886 
Q 984 2825 981 2803 
L 991 2803 
z
" id="LiberationSans-68" transform="scale(0.015625)"/>
       <path d="M 1294 -63 
Q 784 -63 528 206 
Q 272 475 272 944 
Q 272 1278 398 1492 
Q 525 1706 729 1828 
Q 934 1950 1196 1997 
Q 1459 2044 1731 2050 
L 2491 2063 
L 2491 2247 
Q 2491 2456 2447 2603 
Q 2403 2750 2312 2840 
Q 2222 2931 2086 2973 
Q 1950 3016 1766 3016 
Q 1603 3016 1472 2992 
Q 1341 2969 1244 2908 
Q 1147 2847 1087 2742 
Q 1028 2638 1009 2478 
L 422 2531 
Q 453 2731 540 2898 
Q 628 3066 789 3187 
Q 950 3309 1192 3376 
Q 1434 3444 1778 3444 
Q 2416 3444 2737 3151 
Q 3059 2859 3059 2306 
L 3059 850 
Q 3059 600 3125 473 
Q 3191 347 3375 347 
Q 3422 347 3469 353 
Q 3516 359 3559 369 
L 3559 19 
Q 3453 -6 3348 -18 
Q 3244 -31 3125 -31 
Q 2966 -31 2852 11 
Q 2738 53 2666 139 
Q 2594 225 2556 351 
Q 2519 478 2509 647 
L 2491 647 
Q 2400 484 2292 353 
Q 2184 222 2040 130 
Q 1897 38 1714 -12 
Q 1531 -63 1294 -63 
z
M 1422 359 
Q 1691 359 1892 457 
Q 2094 556 2226 709 
Q 2359 863 2425 1044 
Q 2491 1225 2491 1391 
L 2491 1669 
L 1875 1656 
Q 1669 1653 1483 1626 
Q 1297 1600 1156 1522 
Q 1016 1444 933 1303 
Q 850 1163 850 934 
Q 850 659 998 509 
Q 1147 359 1422 359 
z
" id="LiberationSans-61" transform="scale(0.015625)"/>
       <path d="M 2969 934 
Q 2969 697 2876 511 
Q 2784 325 2609 198 
Q 2434 72 2179 4 
Q 1925 -63 1597 -63 
Q 1303 -63 1067 -17 
Q 831 28 653 128 
Q 475 228 354 392 
Q 234 556 178 794 
L 675 891 
Q 747 619 972 492 
Q 1197 366 1597 366 
Q 1778 366 1929 391 
Q 2081 416 2190 477 
Q 2300 538 2361 639 
Q 2422 741 2422 891 
Q 2422 1044 2350 1142 
Q 2278 1241 2150 1306 
Q 2022 1372 1839 1420 
Q 1656 1469 1438 1528 
Q 1234 1581 1034 1647 
Q 834 1713 673 1820 
Q 513 1928 413 2087 
Q 313 2247 313 2488 
Q 313 2950 642 3192 
Q 972 3434 1603 3434 
Q 2163 3434 2492 3237 
Q 2822 3041 2909 2606 
L 2403 2544 
Q 2375 2675 2300 2764 
Q 2225 2853 2119 2908 
Q 2013 2963 1880 2986 
Q 1747 3009 1603 3009 
Q 1222 3009 1040 2893 
Q 859 2778 859 2544 
Q 859 2406 926 2317 
Q 994 2228 1114 2167 
Q 1234 2106 1403 2061 
Q 1572 2016 1775 1966 
Q 1909 1931 2050 1892 
Q 2191 1853 2323 1798 
Q 2456 1744 2573 1670 
Q 2691 1597 2778 1494 
Q 2866 1391 2917 1253 
Q 2969 1116 2969 934 
z
" id="LiberationSans-73" transform="scale(0.015625)"/>
       <path d="M 863 1572 
Q 863 1306 917 1082 
Q 972 859 1086 698 
Q 1200 538 1378 448 
Q 1556 359 1806 359 
Q 2172 359 2392 506 
Q 2613 653 2691 878 
L 3184 738 
Q 3131 597 3036 455 
Q 2941 313 2781 198 
Q 2622 84 2383 10 
Q 2144 -63 1806 -63 
Q 1056 -63 664 384 
Q 272 831 272 1713 
Q 272 2188 390 2517 
Q 509 2847 715 3053 
Q 922 3259 1197 3351 
Q 1472 3444 1784 3444 
Q 2209 3444 2495 3306 
Q 2781 3169 2954 2926 
Q 3128 2684 3201 2356 
Q 3275 2028 3275 1647 
L 3275 1572 
L 863 1572 
z
M 2694 2003 
Q 2647 2538 2422 2783 
Q 2197 3028 1775 3028 
Q 1634 3028 1479 2983 
Q 1325 2938 1194 2822 
Q 1063 2706 972 2507 
Q 881 2309 869 2003 
L 2694 2003 
z
" id="LiberationSans-65" transform="scale(0.015625)"/>
       <path id="LiberationSans-20" transform="scale(0.015625)"/>
       <path d="M 456 -1328 
L 456 4638 
L 1728 4638 
L 1728 4234 
L 1000 4234 
L 1000 -925 
L 1728 -925 
L 1728 -1328 
L 456 -1328 
z
" id="LiberationSans-5b" transform="scale(0.015625)"/>
       <path d="M 444 0 
L 444 2594 
Q 444 2700 442 2811 
Q 441 2922 437 3025 
Q 434 3128 431 3218 
Q 428 3309 425 3381 
L 956 3381 
Q 959 3309 964 3217 
Q 969 3125 973 3028 
Q 978 2931 979 2842 
Q 981 2753 981 2691 
L 994 2691 
Q 1053 2884 1120 3026 
Q 1188 3169 1278 3261 
Q 1369 3353 1494 3398 
Q 1619 3444 1797 3444 
Q 1866 3444 1928 3433 
Q 1991 3422 2025 3413 
L 2025 2897 
Q 1969 2913 1894 2920 
Q 1819 2928 1725 2928 
Q 1531 2928 1395 2840 
Q 1259 2753 1173 2598 
Q 1088 2444 1047 2230 
Q 1006 2016 1006 1763 
L 1006 0 
L 444 0 
z
" id="LiberationSans-72" transform="scale(0.015625)"/>
       <path d="M 428 4100 
L 428 4638 
L 991 4638 
L 991 4100 
L 428 4100 
z
M 428 0 
L 428 3381 
L 991 3381 
L 991 0 
L 428 0 
z
" id="LiberationSans-69" transform="scale(0.015625)"/>
       <path d="M 3291 1694 
Q 3291 806 2900 371 
Q 2509 -63 1766 -63 
Q 1413 -63 1134 43 
Q 856 150 664 369 
Q 472 588 370 917 
Q 269 1247 269 1694 
Q 269 3444 1784 3444 
Q 2178 3444 2464 3334 
Q 2750 3225 2933 3006 
Q 3116 2788 3203 2459 
Q 3291 2131 3291 1694 
z
M 2700 1694 
Q 2700 2088 2639 2344 
Q 2578 2600 2461 2753 
Q 2344 2906 2175 2967 
Q 2006 3028 1794 3028 
Q 1578 3028 1404 2964 
Q 1231 2900 1109 2745 
Q 988 2591 923 2334 
Q 859 2078 859 1694 
Q 859 1300 928 1042 
Q 997 784 1117 631 
Q 1238 478 1402 415 
Q 1566 353 1759 353 
Q 1975 353 2150 414 
Q 2325 475 2447 628 
Q 2569 781 2634 1040 
Q 2700 1300 2700 1694 
z
" id="LiberationSans-6f" transform="scale(0.015625)"/>
       <path d="M 2566 544 
Q 2409 219 2151 78 
Q 1894 -63 1513 -63 
Q 872 -63 570 368 
Q 269 800 269 1675 
Q 269 3444 1513 3444 
Q 1897 3444 2153 3303 
Q 2409 3163 2566 2856 
L 2572 2856 
Q 2572 2888 2570 2955 
Q 2569 3022 2567 3095 
Q 2566 3169 2566 3234 
Q 2566 3300 2566 3328 
L 2566 4638 
L 3128 4638 
L 3128 697 
Q 3128 575 3129 462 
Q 3131 350 3134 256 
Q 3138 163 3141 95 
Q 3144 28 3147 0 
L 2609 0 
Q 2603 31 2598 89 
Q 2594 147 2589 222 
Q 2584 297 2581 380 
Q 2578 463 2578 544 
L 2566 544 
z
M 859 1694 
Q 859 1344 903 1094 
Q 947 844 1044 683 
Q 1141 522 1291 447 
Q 1441 372 1656 372 
Q 1878 372 2048 444 
Q 2219 516 2333 677 
Q 2447 838 2506 1097 
Q 2566 1356 2566 1731 
Q 2566 2091 2506 2339 
Q 2447 2588 2331 2741 
Q 2216 2894 2048 2961 
Q 1881 3028 1663 3028 
Q 1456 3028 1306 2956 
Q 1156 2884 1056 2725 
Q 956 2566 907 2311 
Q 859 2056 859 1694 
z
" id="LiberationSans-64" transform="scale(0.015625)"/>
       <path d="M 313 2675 
L 313 3138 
L 3422 3138 
L 3422 2675 
L 313 2675 
z
M 313 1075 
L 313 1538 
L 3422 1538 
L 3422 1075 
L 313 1075 
z
" id="LiberationSans-3d" transform="scale(0.015625)"/>
       <path d="M 3238 3947 
Q 2906 3441 2628 2973 
Q 2350 2506 2150 2032 
Q 1950 1559 1839 1061 
Q 1728 563 1728 0 
L 1141 0 
Q 1141 528 1266 1036 
Q 1391 1544 1603 2033 
Q 1816 2522 2097 2994 
Q 2378 3466 2694 3925 
L 328 3925 
L 328 4403 
L 3238 4403 
L 3238 3947 
z
" id="LiberationSans-37" transform="scale(0.015625)"/>
       <path d="M 3256 2291 
Q 3256 1703 3145 1261 
Q 3034 819 2828 525 
Q 2622 231 2326 84 
Q 2031 -63 1663 -63 
Q 1409 -63 1206 -11 
Q 1003 41 843 150 
Q 684 259 571 434 
Q 459 609 391 856 
L 928 941 
Q 1016 656 1202 523 
Q 1388 391 1672 391 
Q 1900 391 2089 498 
Q 2278 606 2411 822 
Q 2544 1038 2619 1363 
Q 2694 1688 2700 2125 
Q 2634 1978 2520 1862 
Q 2406 1747 2261 1667 
Q 2116 1588 1947 1545 
Q 1778 1503 1606 1503 
Q 1306 1503 1064 1611 
Q 822 1719 653 1912 
Q 484 2106 392 2379 
Q 300 2653 300 2988 
Q 300 3328 398 3603 
Q 497 3878 684 4070 
Q 872 4263 1145 4366 
Q 1419 4469 1766 4469 
Q 2500 4469 2878 3925 
Q 3256 3381 3256 2291 
z
M 2644 2834 
Q 2644 3078 2586 3293 
Q 2528 3509 2414 3668 
Q 2300 3828 2133 3920 
Q 1966 4013 1747 4013 
Q 1544 4013 1381 3941 
Q 1219 3869 1106 3736 
Q 994 3603 933 3412 
Q 872 3222 872 2988 
Q 872 2766 926 2575 
Q 981 2384 1090 2245 
Q 1200 2106 1362 2026 
Q 1525 1947 1741 1947 
Q 1897 1947 2058 2000 
Q 2219 2053 2348 2162 
Q 2478 2272 2561 2439 
Q 2644 2606 2644 2834 
z
" id="LiberationSans-39" transform="scale(0.015625)"/>
       <path d="M 3503 0 
L 3503 2041 
L 1122 2041 
L 1122 0 
L 525 0 
L 525 4403 
L 1122 4403 
L 1122 2541 
L 3503 2541 
L 3503 4403 
L 4100 4403 
L 4100 0 
L 3503 0 
z
" id="LiberationSans-48" transform="scale(0.015625)"/>
      </defs>
      <use xlink:href="#LiberationSans-50"/>
      <use x="66.699219" xlink:href="#LiberationSans-68"/>
      <use x="122.314453" xlink:href="#LiberationSans-61"/>
      <use x="177.929688" xlink:href="#LiberationSans-73"/>
      <use x="227.929688" xlink:href="#LiberationSans-65"/>
      <use x="283.544922" xlink:href="#LiberationSans-20"/>
      <use x="311.328125" xlink:href="#LiberationSans-5b"/>
      <use x="339.111328" xlink:href="#LiberationSans-50"/>
      <use x="405.810547" xlink:href="#LiberationSans-65"/>
      <use x="461.425781" xlink:href="#LiberationSans-72"/>
      <use x="494.726562" xlink:href="#LiberationSans-69"/>
      <use x="516.943359" xlink:href="#LiberationSans-6f"/>
      <use x="572.558594" xlink:href="#LiberationSans-64"/>
      <use x="628.173828" xlink:href="#LiberationSans-20"/>
      <use x="655.957031" xlink:href="#LiberationSans-3d"/>
      <use x="714.355469" xlink:href="#LiberationSans-20"/>
      <use x="742.138672" xlink:href="#LiberationSans-36"/>
      <use x="797.753906" xlink:href="#LiberationSans-2e"/>
      <use x="825.537109" xlink:href="#LiberationSans-37"/>
      <use x="881.152344" xlink:href="#LiberationSans-39"/>
      <use x="936.767578" xlink:href="#LiberationSans-37"/>
      <use x="992.382812" xlink:href="#LiberationSans-30"/>
      <use x="1047.998047" xlink:href="#LiberationSans-20"/>
      <use x="1075.78125" xlink:href="#LiberationSans-48"/>
     </g>
    </g>
   </g>
   <g id="matplotlib.axis_2">
    <g id="ytick_1">
     <g id="line2d_13">
      <path clip-path="url(#pa996e8abe1)" d="M 90 78.824394 
L 648 78.824394 
" style="fill:none;stroke:#cccccc;stroke-linecap:round;stroke-width:0.8;"/>
     </g>
     <g id="line2d_14"/>
     <g id="text_8">
      <!-- 18.05 -->
      <g style="fill:#262626;" transform="translate(61.478125 82.447832)scale(0.1 -0.1)">
       <defs>
        <path d="M 3291 1434 
Q 3291 1103 3191 828 
Q 3091 553 2894 354 
Q 2697 156 2405 46 
Q 2113 -63 1728 -63 
Q 1381 -63 1123 18 
Q 866 100 687 242 
Q 509 384 404 575 
Q 300 766 256 984 
L 825 1050 
Q 859 925 921 808 
Q 984 691 1092 598 
Q 1200 506 1358 451 
Q 1516 397 1741 397 
Q 1959 397 2137 464 
Q 2316 531 2442 662 
Q 2569 794 2637 984 
Q 2706 1175 2706 1422 
Q 2706 1625 2640 1795 
Q 2575 1966 2453 2089 
Q 2331 2213 2154 2281 
Q 1978 2350 1753 2350 
Q 1613 2350 1494 2325 
Q 1375 2300 1273 2256 
Q 1172 2213 1089 2155 
Q 1006 2097 934 2034 
L 384 2034 
L 531 4403 
L 3034 4403 
L 3034 3925 
L 1044 3925 
L 959 2528 
Q 1109 2644 1334 2726 
Q 1559 2809 1869 2809 
Q 2197 2809 2459 2709 
Q 2722 2609 2906 2426 
Q 3091 2244 3191 1991 
Q 3291 1738 3291 1434 
z
" id="LiberationSans-35" transform="scale(0.015625)"/>
       </defs>
       <use xlink:href="#LiberationSans-31"/>
       <use x="55.615234" xlink:href="#LiberationSans-38"/>
       <use x="111.230469" xlink:href="#LiberationSans-2e"/>
       <use x="139.013672" xlink:href="#LiberationSans-30"/>
       <use x="194.628906" xlink:href="#LiberationSans-35"/>
      </g>
     </g>
    </g>
    <g id="ytick_2">
     <g id="line2d_15">
      <path clip-path="url(#pa996e8abe1)" d="M 90 131.828299 
L 648 131.828299 
" style="fill:none;stroke:#cccccc;stroke-linecap:round;stroke-width:0.8;"/>
     </g>
     <g id="line2d_16"/>
     <g id="text_9">
      <!-- 18.10 -->
      <g style="fill:#262626;" transform="translate(61.478125 135.451737)scale(0.1 -0.1)">
       <use xlink:href="#LiberationSans-31"/>
       <use x="55.615234" xlink:href="#LiberationSans-38"/>
       <use x="111.230469" xlink:href="#LiberationSans-2e"/>
       <use x="139.013672" xlink:href="#LiberationSans-31"/>
       <use x="194.628906" xlink:href="#LiberationSans-30"/>
      </g>
     </g>
    </g>
    <g id="ytick_3">
     <g id="line2d_17">
      <path clip-path="url(#pa996e8abe1)" d="M 90 184.832204 
L 648 184.832204 
" style="fill:none;stroke:#cccccc;stroke-linecap:round;stroke-width:0.8;"/>
     </g>
     <g id="line2d_18"/>
     <g id="text_10">
      <!-- 18.15 -->
      <g style="fill:#262626;" transform="translate(61.478125 188.455642)scale(0.1 -0.1)">
       <use xlink:href="#LiberationSans-31"/>
       <use x="55.615234" xlink:href="#LiberationSans-38"/>
       <use x="111.230469" xlink:href="#LiberationSans-2e"/>
       <use x="139.013672" xlink:href="#LiberationSans-31"/>
       <use x="194.628906" xlink:href="#LiberationSans-35"/>
      </g>
     </g>
    </g>
    <g id="ytick_4">
     <g id="line2d_19">
      <path clip-path="url(#pa996e8abe1)" d="M 90 237.83611 
L 648 237.83611 
" style="fill:none;stroke:#cccccc;stroke-linecap:round;stroke-width:0.8;"/>
     </g>
     <g id="line2d_20"/>
     <g id="text_11">
      <!-- 18.20 -->
      <g style="fill:#262626;" transform="translate(61.478125 241.459547)scale(0.1 -0.1)">
       <use xlink:href="#LiberationSans-31"/>
       <use x="55.615234" xlink:href="#LiberationSans-38"/>
       <use x="111.230469" xlink:href="#LiberationSans-2e"/>
       <use x="139.013672" xlink:href="#LiberationSans-32"/>
       <use x="194.628906" xlink:href="#LiberationSans-30"/>
      </g>
     </g>
    </g>
    <g id="ytick_5">
     <g id="line2d_21">
      <path clip-path="url(#pa996e8abe1)" d="M 90 290.840015 
L 648 290.840015 
" style="fill:none;stroke:#cccccc;stroke-linecap:round;stroke-width:0.8;"/>
     </g>
     <g id="line2d_22"/>
     <g id="text_12">
      <!-- 18.25 -->
      <g style="fill:#262626;" transform="translate(61.478125 294.463452)scale(0.1 -0.1)">
       <use xlink:href="#LiberationSans-31"/>
       <use x="55.615234" xlink:href="#LiberationSans-38"/>
       <use x="111.230469" xlink:href="#LiberationSans-2e"/>
       <use x="139.013672" xlink:href="#LiberationSans-32"/>
       <use x="194.628906" xlink:href="#LiberationSans-35"/>
      </g>
     </g>
    </g>
    <g id="ytick_6">
     <g id="line2d_23">
      <path clip-path="url(#pa996e8abe1)" d="M 90 343.84392 
L 648 343.84392 
" style="fill:none;stroke:#cccccc;stroke-linecap:round;stroke-width:0.8;"/>
     </g>
     <g id="line2d_24"/>
     <g id="text_13">
      <!-- 18.30 -->
      <g style="fill:#262626;" transform="translate(61.478125 347.467358)scale(0.1 -0.1)">
       <defs>
        <path d="M 3278 1216 
Q 3278 913 3179 675 
Q 3081 438 2892 273 
Q 2703 109 2423 23 
Q 2144 -63 1784 -63 
Q 1375 -63 1095 39 
Q 816 141 634 308 
Q 453 475 362 689 
Q 272 903 244 1131 
L 825 1184 
Q 850 1009 917 865 
Q 984 722 1100 619 
Q 1216 516 1384 459 
Q 1553 403 1784 403 
Q 2209 403 2451 612 
Q 2694 822 2694 1234 
Q 2694 1478 2586 1626 
Q 2478 1775 2317 1858 
Q 2156 1941 1967 1969 
Q 1778 1997 1619 1997 
L 1300 1997 
L 1300 2484 
L 1606 2484 
Q 1766 2484 1937 2517 
Q 2109 2550 2251 2636 
Q 2394 2722 2486 2869 
Q 2578 3016 2578 3244 
Q 2578 3597 2370 3801 
Q 2163 4006 1753 4006 
Q 1381 4006 1151 3815 
Q 922 3625 884 3278 
L 319 3322 
Q 353 3613 478 3828 
Q 603 4044 795 4186 
Q 988 4328 1234 4398 
Q 1481 4469 1759 4469 
Q 2128 4469 2393 4376 
Q 2659 4284 2828 4126 
Q 2997 3969 3076 3756 
Q 3156 3544 3156 3303 
Q 3156 3109 3103 2940 
Q 3050 2772 2937 2637 
Q 2825 2503 2651 2406 
Q 2478 2309 2234 2259 
L 2234 2247 
Q 2500 2219 2697 2126 
Q 2894 2034 3022 1896 
Q 3150 1759 3214 1584 
Q 3278 1409 3278 1216 
z
" id="LiberationSans-33" transform="scale(0.015625)"/>
       </defs>
       <use xlink:href="#LiberationSans-31"/>
       <use x="55.615234" xlink:href="#LiberationSans-38"/>
       <use x="111.230469" xlink:href="#LiberationSans-2e"/>
       <use x="139.013672" xlink:href="#LiberationSans-33"/>
       <use x="194.628906" xlink:href="#LiberationSans-30"/>
      </g>
     </g>
    </g>
    <g id="text_14">
     <!-- Mag -->
     <g style="fill:#262626;" transform="translate(55.403125 227.885781)rotate(-90)scale(0.1 -0.1)">
      <defs>
       <path d="M 4269 0 
L 4269 2938 
Q 4269 3097 4272 3262 
Q 4275 3428 4281 3566 
Q 4288 3725 4297 3875 
Q 4253 3716 4206 3559 
Q 4166 3425 4117 3273 
Q 4069 3122 4022 3000 
L 2884 0 
L 2466 0 
L 1313 3000 
Q 1294 3047 1273 3109 
Q 1253 3172 1229 3242 
Q 1206 3313 1182 3386 
Q 1159 3459 1138 3531 
Q 1084 3697 1034 3875 
Q 1038 3700 1044 3528 
Q 1050 3381 1053 3220 
Q 1056 3059 1056 2938 
L 1056 0 
L 525 0 
L 525 4403 
L 1309 4403 
L 2481 1350 
Q 2503 1288 2534 1189 
Q 2566 1091 2594 987 
Q 2622 884 2645 792 
Q 2669 700 2678 650 
Q 2688 700 2713 794 
Q 2738 888 2770 991 
Q 2803 1094 2834 1191 
Q 2866 1288 2891 1350 
L 4041 4403 
L 4806 4403 
L 4806 0 
L 4269 0 
z
" id="LiberationSans-4d" transform="scale(0.015625)"/>
       <path d="M 1713 -1328 
Q 1422 -1328 1197 -1268 
Q 972 -1209 812 -1098 
Q 653 -988 553 -834 
Q 453 -681 409 -494 
L 975 -413 
Q 1031 -647 1223 -773 
Q 1416 -900 1728 -900 
Q 1919 -900 2075 -847 
Q 2231 -794 2340 -676 
Q 2450 -559 2509 -371 
Q 2569 -184 2569 84 
L 2569 628 
L 2563 628 
Q 2500 500 2408 383 
Q 2316 266 2183 175 
Q 2050 84 1875 29 
Q 1700 -25 1475 -25 
Q 1153 -25 923 83 
Q 694 191 548 406 
Q 403 622 336 942 
Q 269 1263 269 1684 
Q 269 2091 336 2416 
Q 403 2741 554 2967 
Q 706 3194 948 3314 
Q 1191 3434 1538 3434 
Q 1897 3434 2161 3270 
Q 2425 3106 2569 2803 
L 2575 2803 
Q 2575 2881 2579 2978 
Q 2584 3075 2589 3161 
Q 2594 3247 2600 3309 
Q 2606 3372 2613 3381 
L 3147 3381 
Q 3144 3353 3141 3286 
Q 3138 3219 3134 3125 
Q 3131 3031 3129 2917 
Q 3128 2803 3128 2681 
L 3128 97 
Q 3128 -613 2779 -970 
Q 2431 -1328 1713 -1328 
z
M 2569 1691 
Q 2569 2044 2492 2295 
Q 2416 2547 2291 2706 
Q 2166 2866 2005 2941 
Q 1844 3016 1675 3016 
Q 1459 3016 1304 2941 
Q 1150 2866 1048 2705 
Q 947 2544 898 2292 
Q 850 2041 850 1691 
Q 850 1325 898 1076 
Q 947 828 1047 675 
Q 1147 522 1300 456 
Q 1453 391 1666 391 
Q 1834 391 1995 462 
Q 2156 534 2284 690 
Q 2413 847 2491 1094 
Q 2569 1341 2569 1691 
z
" id="LiberationSans-67" transform="scale(0.015625)"/>
      </defs>
      <use xlink:href="#LiberationSans-4d"/>
      <use x="83.300781" xlink:href="#LiberationSans-61"/>
      <use x="138.916016" xlink:href="#LiberationSans-67"/>
     </g>
    </g>
   </g>
   <g id="LineCollection_1">
    <path clip-path="url(#pa996e8abe1)" d="M 115.363636 123.451562 
L 115.363636 216.738435 
" style="fill:none;stroke:#696969;"/>
    <path clip-path="url(#pa996e8abe1)" d="M 118.952613 129.704963 
L 118.952613 206.736598 
" style="fill:none;stroke:#696969;"/>
    <path clip-path="url(#pa996e8abe1)" d="M 121.887644 125.737091 
L 121.887644 222.558264 
" style="fill:none;stroke:#696969;"/>
    <path clip-path="url(#pa996e8abe1)" d="M 121.934501 132.296854 
L 121.934501 186.714903 
" style="fill:none;stroke:#696969;"/>
    <path clip-path="url(#pa996e8abe1)" d="M 127.72784 123.768525 
L 127.72784 200.094149 
" style="fill:none;stroke:#696969;"/>
    <path clip-path="url(#pa996e8abe1)" d="M 131.410017 131.549499 
L 131.410017 197.980353 
" style="fill:none;stroke:#696969;"/>
    <path clip-path="url(#pa996e8abe1)" d="M 131.753467 144.533335 
L 131.753467 246.300833 
" style="fill:none;stroke:#696969;"/>
    <path clip-path="url(#pa996e8abe1)" d="M 136.001023 153.537639 
L 136.001023 231.277406 
" style="fill:none;stroke:#696969;"/>
    <path clip-path="url(#pa996e8abe1)" d="M 138.516396 137.084167 
L 138.516396 200.688853 
" style="fill:none;stroke:#696969;"/>
    <path clip-path="url(#pa996e8abe1)" d="M 144.787579 128.254776 
L 144.787579 232.848442 
" style="fill:none;stroke:#696969;"/>
    <path clip-path="url(#pa996e8abe1)" d="M 146.208752 170.168144 
L 146.208752 247.19978 
" style="fill:none;stroke:#696969;"/>
    <path clip-path="url(#pa996e8abe1)" d="M 150.951659 203.879688 
L 150.951659 269.60453 
" style="fill:none;stroke:#696969;"/>
    <path clip-path="url(#pa996e8abe1)" d="M 153.921704 185.939986 
L 153.921704 294.067953 
" style="fill:none;stroke:#696969;"/>
    <path clip-path="url(#pa996e8abe1)" d="M 157.114709 173.349438 
L 157.114709 250.381074 
" style="fill:none;stroke:#696969;"/>
    <path clip-path="url(#pa996e8abe1)" d="M 165.037748 180.314152 
L 165.037748 291.976419 
" style="fill:none;stroke:#696969;"/>
    <path clip-path="url(#pa996e8abe1)" d="M 165.14794 236.147405 
L 165.14794 295.511779 
" style="fill:none;stroke:#696969;"/>
    <path clip-path="url(#pa996e8abe1)" d="M 165.734432 182.609221 
L 165.734432 259.640856 
" style="fill:none;stroke:#696969;"/>
    <path clip-path="url(#pa996e8abe1)" d="M 169.955727 204.025979 
L 169.955727 282.471758 
" style="fill:none;stroke:#696969;"/>
    <path clip-path="url(#pa996e8abe1)" d="M 173.725954 192.428724 
L 173.725954 302.676847 
" style="fill:none;stroke:#696969;"/>
    <path clip-path="url(#pa996e8abe1)" d="M 182.784902 207.493494 
L 182.784902 266.151856 
" style="fill:none;stroke:#696969;"/>
    <path clip-path="url(#pa996e8abe1)" d="M 187.083435 229.316262 
L 187.083435 345.924853 
" style="fill:none;stroke:#696969;"/>
    <path clip-path="url(#pa996e8abe1)" d="M 202.956803 204.99595 
L 202.956803 319.484385 
" style="fill:none;stroke:#696969;"/>
    <path clip-path="url(#pa996e8abe1)" d="M 218.930065 240.250968 
L 218.930065 308.801978 
" style="fill:none;stroke:#696969;"/>
    <path clip-path="url(#pa996e8abe1)" d="M 229.35097 202.00229 
L 229.35097 274.793613 
" style="fill:none;stroke:#696969;"/>
    <path clip-path="url(#pa996e8abe1)" d="M 239.573116 178.601065 
L 239.573116 242.911764 
" style="fill:none;stroke:#696969;"/>
    <path clip-path="url(#pa996e8abe1)" d="M 255.264719 225.638851 
L 255.264719 293.48385 
" style="fill:none;stroke:#696969;"/>
    <path clip-path="url(#pa996e8abe1)" d="M 266.629982 226.924726 
L 266.629982 290.529412 
" style="fill:none;stroke:#696969;"/>
    <path clip-path="url(#pa996e8abe1)" d="M 312.129141 164.760686 
L 312.129141 229.071384 
" style="fill:none;stroke:#696969;"/>
    <path clip-path="url(#pa996e8abe1)" d="M 323.772975 149.844327 
L 323.772975 212.743001 
" style="fill:none;stroke:#696969;"/>
    <path clip-path="url(#pa996e8abe1)" d="M 330.09462 149.965176 
L 330.09462 213.569862 
" style="fill:none;stroke:#696969;"/>
    <path clip-path="url(#pa996e8abe1)" d="M 340.999032 147.797316 
L 340.999032 209.987858 
" style="fill:none;stroke:#696969;"/>
    <path clip-path="url(#pa996e8abe1)" d="M 346.786707 109.951467 
L 346.786707 172.496076 
" style="fill:none;stroke:#696969;"/>
    <path clip-path="url(#pa996e8abe1)" d="M 363.362423 137.959791 
L 363.362423 200.504399 
" style="fill:none;stroke:#696969;"/>
    <path clip-path="url(#pa996e8abe1)" d="M 383.31188 129.624397 
L 383.31188 191.108927 
" style="fill:none;stroke:#696969;"/>
    <path clip-path="url(#pa996e8abe1)" d="M 394.554079 156.768757 
L 394.554079 220.373443 
" style="fill:none;stroke:#696969;"/>
    <path clip-path="url(#pa996e8abe1)" d="M 404.532154 153.217495 
L 404.532154 216.116169 
" style="fill:none;stroke:#696969;"/>
    <path clip-path="url(#pa996e8abe1)" d="M 416.147153 184.23432 
L 416.147153 248.545019 
" style="fill:none;stroke:#696969;"/>
    <path clip-path="url(#pa996e8abe1)" d="M 420.895724 192.183846 
L 420.895724 256.494544 
" style="fill:none;stroke:#696969;"/>
    <path clip-path="url(#pa996e8abe1)" d="M 432.849024 203.044346 
L 432.849024 268.063177 
" style="fill:none;stroke:#696969;"/>
    <path clip-path="url(#pa996e8abe1)" d="M 441.616013 258.547916 
L 441.616013 326.392914 
" style="fill:none;stroke:#696969;"/>
    <path clip-path="url(#pa996e8abe1)" d="M 452.317547 270.162131 
L 452.317547 338.00713 
" style="fill:none;stroke:#696969;"/>
    <path clip-path="url(#pa996e8abe1)" d="M 464.254885 298.688833 
L 464.254885 369.36 
" style="fill:none;stroke:#696969;"/>
    <path clip-path="url(#pa996e8abe1)" d="M 471.79328 273.316924 
L 471.79328 342.576067 
" style="fill:none;stroke:#696969;"/>
    <path clip-path="url(#pa996e8abe1)" d="M 477.844078 275.209163 
L 477.844078 345.174318 
" style="fill:none;stroke:#696969;"/>
    <path clip-path="url(#pa996e8abe1)" d="M 532.845013 115.750095 
L 532.845013 203.382511 
" style="fill:none;stroke:#696969;"/>
    <path clip-path="url(#pa996e8abe1)" d="M 543.19074 95.889531 
L 543.19074 175.041323 
" style="fill:none;stroke:#696969;"/>
    <path clip-path="url(#pa996e8abe1)" d="M 547.754456 110.552532 
L 547.754456 187.584167 
" style="fill:none;stroke:#696969;"/>
    <path clip-path="url(#pa996e8abe1)" d="M 553.023094 116.568475 
L 553.023094 192.894098 
" style="fill:none;stroke:#696969;"/>
    <path clip-path="url(#pa996e8abe1)" d="M 555.494184 106.691727 
L 555.494184 185.137507 
" style="fill:none;stroke:#696969;"/>
    <path clip-path="url(#pa996e8abe1)" d="M 567.933051 111.47586 
L 567.933051 162.359609 
" style="fill:none;stroke:#696969;"/>
    <path clip-path="url(#pa996e8abe1)" d="M 577.91576 82.03007 
L 577.91576 156.94155 
" style="fill:none;stroke:#696969;"/>
    <path clip-path="url(#pa996e8abe1)" d="M 584.036072 156.395609 
L 584.036072 203.039046 
" style="fill:none;stroke:#696969;"/>
    <path clip-path="url(#pa996e8abe1)" d="M 585.055609 66.96 
L 585.055609 140.459455 
" style="fill:none;stroke:#696969;"/>
    <path clip-path="url(#pa996e8abe1)" d="M 594.593945 103.051419 
L 594.593945 177.962898 
" style="fill:none;stroke:#696969;"/>
    <path clip-path="url(#pa996e8abe1)" d="M 595.790614 138.594778 
L 595.790614 186.652359 
" style="fill:none;stroke:#696969;"/>
    <path clip-path="url(#pa996e8abe1)" d="M 601.189011 83.050926 
L 601.189011 156.550381 
" style="fill:none;stroke:#696969;"/>
    <path clip-path="url(#pa996e8abe1)" d="M 605.455619 154.448246 
L 605.455619 205.331995 
" style="fill:none;stroke:#696969;"/>
    <path clip-path="url(#pa996e8abe1)" d="M 610.978627 85.210305 
L 610.978627 158.70976 
" style="fill:none;stroke:#696969;"/>
    <path clip-path="url(#pa996e8abe1)" d="M 622.636364 91.905758 
L 622.636364 164.697081 
" style="fill:none;stroke:#696969;"/>
   </g>
   <g id="line2d_25">
    <defs>
     <path d="M 2 0 
L -2 -0 
" id="md254b71c72" style="stroke:#696969;"/>
    </defs>
    <g clip-path="url(#pa996e8abe1)">
     <use style="fill:#696969;stroke:#696969;" x="115.363636" xlink:href="#md254b71c72" y="123.451562"/>
     <use style="fill:#696969;stroke:#696969;" x="118.952613" xlink:href="#md254b71c72" y="129.704963"/>
     <use style="fill:#696969;stroke:#696969;" x="121.887644" xlink:href="#md254b71c72" y="125.737091"/>
     <use style="fill:#696969;stroke:#696969;" x="121.934501" xlink:href="#md254b71c72" y="132.296854"/>
     <use style="fill:#696969;stroke:#696969;" x="127.72784" xlink:href="#md254b71c72" y="123.768525"/>
     <use style="fill:#696969;stroke:#696969;" x="131.410017" xlink:href="#md254b71c72" y="131.549499"/>
     <use style="fill:#696969;stroke:#696969;" x="131.753467" xlink:href="#md254b71c72" y="144.533335"/>
     <use style="fill:#696969;stroke:#696969;" x="136.001023" xlink:href="#md254b71c72" y="153.537639"/>
     <use style="fill:#696969;stroke:#696969;" x="138.516396" xlink:href="#md254b71c72" y="137.084167"/>
     <use style="fill:#696969;stroke:#696969;" x="144.787579" xlink:href="#md254b71c72" y="128.254776"/>
     <use style="fill:#696969;stroke:#696969;" x="146.208752" xlink:href="#md254b71c72" y="170.168144"/>
     <use style="fill:#696969;stroke:#696969;" x="150.951659" xlink:href="#md254b71c72" y="203.879688"/>
     <use style="fill:#696969;stroke:#696969;" x="153.921704" xlink:href="#md254b71c72" y="185.939986"/>
     <use style="fill:#696969;stroke:#696969;" x="157.114709" xlink:href="#md254b71c72" y="173.349438"/>
     <use style="fill:#696969;stroke:#696969;" x="165.037748" xlink:href="#md254b71c72" y="180.314152"/>
     <use style="fill:#696969;stroke:#696969;" x="165.14794" xlink:href="#md254b71c72" y="236.147405"/>
     <use style="fill:#696969;stroke:#696969;" x="165.734432" xlink:href="#md254b71c72" y="182.609221"/>
     <use style="fill:#696969;stroke:#696969;" x="169.955727" xlink:href="#md254b71c72" y="204.025979"/>
     <use style="fill:#696969;stroke:#696969;" x="173.725954" xlink:href="#md254b71c72" y="192.428724"/>
     <use style="fill:#696969;stroke:#696969;" x="182.784902" xlink:href="#md254b71c72" y="207.493494"/>
     <use style="fill:#696969;stroke:#696969;" x="187.083435" xlink:href="#md254b71c72" y="229.316262"/>
     <use style="fill:#696969;stroke:#696969;" x="202.956803" xlink:href="#md254b71c72" y="204.99595"/>
     <use style="fill:#696969;stroke:#696969;" x="218.930065" xlink:href="#md254b71c72" y="240.250968"/>
     <use style="fill:#696969;stroke:#696969;" x="229.35097" xlink:href="#md254b71c72" y="202.00229"/>
     <use style="fill:#696969;stroke:#696969;" x="239.573116" xlink:href="#md254b71c72" y="178.601065"/>
     <use style="fill:#696969;stroke:#696969;" x="255.264719" xlink:href="#md254b71c72" y="225.638851"/>
     <use style="fill:#696969;stroke:#696969;" x="266.629982" xlink:href="#md254b71c72" y="226.924726"/>
     <use style="fill:#696969;stroke:#696969;" x="312.129141" xlink:href="#md254b71c72" y="164.760686"/>
     <use style="fill:#696969;stroke:#696969;" x="323.772975" xlink:href="#md254b71c72" y="149.844327"/>
     <use style="fill:#696969;stroke:#696969;" x="330.09462" xlink:href="#md254b71c72" y="149.965176"/>
     <use style="fill:#696969;stroke:#696969;" x="340.999032" xlink:href="#md254b71c72" y="147.797316"/>
     <use style="fill:#696969;stroke:#696969;" x="346.786707" xlink:href="#md254b71c72" y="109.951467"/>
     <use style="fill:#696969;stroke:#696969;" x="363.362423" xlink:href="#md254b71c72" y="137.959791"/>
     <use style="fill:#696969;stroke:#696969;" x="383.31188" xlink:href="#md254b71c72" y="129.624397"/>
     <use style="fill:#696969;stroke:#696969;" x="394.554079" xlink:href="#md254b71c72" y="156.768757"/>
     <use style="fill:#696969;stroke:#696969;" x="404.532154" xlink:href="#md254b71c72" y="153.217495"/>
     <use style="fill:#696969;stroke:#696969;" x="416.147153" xlink:href="#md254b71c72" y="184.23432"/>
     <use style="fill:#696969;stroke:#696969;" x="420.895724" xlink:href="#md254b71c72" y="192.183846"/>
     <use style="fill:#696969;stroke:#696969;" x="432.849024" xlink:href="#md254b71c72" y="203.044346"/>
     <use style="fill:#696969;stroke:#696969;" x="441.616013" xlink:href="#md254b71c72" y="258.547916"/>
     <use style="fill:#696969;stroke:#696969;" x="452.317547" xlink:href="#md254b71c72" y="270.162131"/>
     <use style="fill:#696969;stroke:#696969;" x="464.254885" xlink:href="#md254b71c72" y="298.688833"/>
     <use style="fill:#696969;stroke:#696969;" x="471.79328" xlink:href="#md254b71c72" y="273.316924"/>
     <use style="fill:#696969;stroke:#696969;" x="477.844078" xlink:href="#md254b71c72" y="275.209163"/>
     <use style="fill:#696969;stroke:#696969;" x="532.845013" xlink:href="#md254b71c72" y="115.750095"/>
     <use style="fill:#696969;stroke:#696969;" x="543.19074" xlink:href="#md254b71c72" y="95.889531"/>
     <use style="fill:#696969;stroke:#696969;" x="547.754456" xlink:href="#md254b71c72" y="110.552532"/>
     <use style="fill:#696969;stroke:#696969;" x="553.023094" xlink:href="#md254b71c72" y="116.568475"/>
     <use style="fill:#696969;stroke:#696969;" x="555.494184" xlink:href="#md254b71c72" y="106.691727"/>
     <use style="fill:#696969;stroke:#696969;" x="567.933051" xlink:href="#md254b71c72" y="111.47586"/>
     <use style="fill:#696969;stroke:#696969;" x="577.91576" xlink:href="#md254b71c72" y="82.03007"/>
     <use style="fill:#696969;stroke:#696969;" x="584.036072" xlink:href="#md254b71c72" y="156.395609"/>
     <use style="fill:#696969;stroke:#696969;" x="585.055609" xlink:href="#md254b71c72" y="66.96"/>
     <use style="fill:#696969;stroke:#696969;" x="594.593945" xlink:href="#md254b71c72" y="103.051419"/>
     <use style="fill:#696969;stroke:#696969;" x="595.790614" xlink:href="#md254b71c72" y="138.594778"/>
     <use style="fill:#696969;stroke:#696969;" x="601.189011" xlink:href="#md254b71c72" y="83.050926"/>
     <use style="fill:#696969;stroke:#696969;" x="605.455619" xlink:href="#md254b71c72" y="154.448246"/>
     <use style="fill:#696969;stroke:#696969;" x="610.978627" xlink:href="#md254b71c72" y="85.210305"/>
     <use style="fill:#696969;stroke:#696969;" x="622.636364" xlink:href="#md254b71c72" y="91.905758"/>
    </g>
   </g>
   <g id="line2d_26">
    <g clip-path="url(#pa996e8abe1)">
     <use style="fill:#696969;stroke:#696969;" x="115.363636" xlink:href="#md254b71c72" y="216.738435"/>
     <use style="fill:#696969;stroke:#696969;" x="118.952613" xlink:href="#md254b71c72" y="206.736598"/>
     <use style="fill:#696969;stroke:#696969;" x="121.887644" xlink:href="#md254b71c72" y="222.558264"/>
     <use style="fill:#696969;stroke:#696969;" x="121.934501" xlink:href="#md254b71c72" y="186.714903"/>
     <use style="fill:#696969;stroke:#696969;" x="127.72784" xlink:href="#md254b71c72" y="200.094149"/>
     <use style="fill:#696969;stroke:#696969;" x="131.410017" xlink:href="#md254b71c72" y="197.980353"/>
     <use style="fill:#696969;stroke:#696969;" x="131.753467" xlink:href="#md254b71c72" y="246.300833"/>
     <use style="fill:#696969;stroke:#696969;" x="136.001023" xlink:href="#md254b71c72" y="231.277406"/>
     <use style="fill:#696969;stroke:#696969;" x="138.516396" xlink:href="#md254b71c72" y="200.688853"/>
     <use style="fill:#696969;stroke:#696969;" x="144.787579" xlink:href="#md254b71c72" y="232.848442"/>
     <use style="fill:#696969;stroke:#696969;" x="146.208752" xlink:href="#md254b71c72" y="247.19978"/>
     <use style="fill:#696969;stroke:#696969;" x="150.951659" xlink:href="#md254b71c72" y="269.60453"/>
     <use style="fill:#696969;stroke:#696969;" x="153.921704" xlink:href="#md254b71c72" y="294.067953"/>
     <use style="fill:#696969;stroke:#696969;" x="157.114709" xlink:href="#md254b71c72" y="250.381074"/>
     <use style="fill:#696969;stroke:#696969;" x="165.037748" xlink:href="#md254b71c72" y="291.976419"/>
     <use style="fill:#696969;stroke:#696969;" x="165.14794" xlink:href="#md254b71c72" y="295.511779"/>
     <use style="fill:#696969;stroke:#696969;" x="165.734432" xlink:href="#md254b71c72" y="259.640856"/>
     <use style="fill:#696969;stroke:#696969;" x="169.955727" xlink:href="#md254b71c72" y="282.471758"/>
     <use style="fill:#696969;stroke:#696969;" x="173.725954" xlink:href="#md254b71c72" y="302.676847"/>
     <use style="fill:#696969;stroke:#696969;" x="182.784902" xlink:href="#md254b71c72" y="266.151856"/>
     <use style="fill:#696969;stroke:#696969;" x="187.083435" xlink:href="#md254b71c72" y="345.924853"/>
     <use style="fill:#696969;stroke:#696969;" x="202.956803" xlink:href="#md254b71c72" y="319.484385"/>
     <use style="fill:#696969;stroke:#696969;" x="218.930065" xlink:href="#md254b71c72" y="308.801978"/>
     <use style="fill:#696969;stroke:#696969;" x="229.35097" xlink:href="#md254b71c72" y="274.793613"/>
     <use style="fill:#696969;stroke:#696969;" x="239.573116" xlink:href="#md254b71c72" y="242.911764"/>
     <use style="fill:#696969;stroke:#696969;" x="255.264719" xlink:href="#md254b71c72" y="293.48385"/>
     <use style="fill:#696969;stroke:#696969;" x="266.629982" xlink:href="#md254b71c72" y="290.529412"/>
     <use style="fill:#696969;stroke:#696969;" x="312.129141" xlink:href="#md254b71c72" y="229.071384"/>
     <use style="fill:#696969;stroke:#696969;" x="323.772975" xlink:href="#md254b71c72" y="212.743001"/>
     <use style="fill:#696969;stroke:#696969;" x="330.09462" xlink:href="#md254b71c72" y="213.569862"/>
     <use style="fill:#696969;stroke:#696969;" x="340.999032" xlink:href="#md254b71c72" y="209.987858"/>
     <use style="fill:#696969;stroke:#696969;" x="346.786707" xlink:href="#md254b71c72" y="172.496076"/>
     <use style="fill:#696969;stroke:#696969;" x="363.362423" xlink:href="#md254b71c72" y="200.504399"/>
     <use style="fill:#696969;stroke:#696969;" x="383.31188" xlink:href="#md254b71c72" y="191.108927"/>
     <use style="fill:#696969;stroke:#696969;" x="394.554079" xlink:href="#md254b71c72" y="220.373443"/>
     <use style="fill:#696969;stroke:#696969;" x="404.532154" xlink:href="#md254b71c72" y="216.116169"/>
     <use style="fill:#696969;stroke:#696969;" x="416.147153" xlink:href="#md254b71c72" y="248.545019"/>
     <use style="fill:#696969;stroke:#696969;" x="420.895724" xlink:href="#md254b71c72" y="256.494544"/>
     <use style="fill:#696969;stroke:#696969;" x="432.849024" xlink:href="#md254b71c72" y="268.063177"/>
     <use style="fill:#696969;stroke:#696969;" x="441.616013" xlink:href="#md254b71c72" y="326.392914"/>
     <use style="fill:#696969;stroke:#696969;" x="452.317547" xlink:href="#md254b71c72" y="338.00713"/>
     <use style="fill:#696969;stroke:#696969;" x="464.254885" xlink:href="#md254b71c72" y="369.36"/>
     <use style="fill:#696969;stroke:#696969;" x="471.79328" xlink:href="#md254b71c72" y="342.576067"/>
     <use style="fill:#696969;stroke:#696969;" x="477.844078" xlink:href="#md254b71c72" y="345.174318"/>
     <use style="fill:#696969;stroke:#696969;" x="532.845013" xlink:href="#md254b71c72" y="203.382511"/>
     <use style="fill:#696969;stroke:#696969;" x="543.19074" xlink:href="#md254b71c72" y="175.041323"/>
     <use style="fill:#696969;stroke:#696969;" x="547.754456" xlink:href="#md254b71c72" y="187.584167"/>
     <use style="fill:#696969;stroke:#696969;" x="553.023094" xlink:href="#md254b71c72" y="192.894098"/>
     <use style="fill:#696969;stroke:#696969;" x="555.494184" xlink:href="#md254b71c72" y="185.137507"/>
     <use style="fill:#696969;stroke:#696969;" x="567.933051" xlink:href="#md254b71c72" y="162.359609"/>
     <use style="fill:#696969;stroke:#696969;" x="577.91576" xlink:href="#md254b71c72" y="156.94155"/>
     <use style="fill:#696969;stroke:#696969;" x="584.036072" xlink:href="#md254b71c72" y="203.039046"/>
     <use style="fill:#696969;stroke:#696969;" x="585.055609" xlink:href="#md254b71c72" y="140.459455"/>
     <use style="fill:#696969;stroke:#696969;" x="594.593945" xlink:href="#md254b71c72" y="177.962898"/>
     <use style="fill:#696969;stroke:#696969;" x="595.790614" xlink:href="#md254b71c72" y="186.652359"/>
     <use style="fill:#696969;stroke:#696969;" x="601.189011" xlink:href="#md254b71c72" y="156.550381"/>
     <use style="fill:#696969;stroke:#696969;" x="605.455619" xlink:href="#md254b71c72" y="205.331995"/>
     <use style="fill:#696969;stroke:#696969;" x="610.978627" xlink:href="#md254b71c72" y="158.70976"/>
     <use style="fill:#696969;stroke:#696969;" x="622.636364" xlink:href="#md254b71c72" y="164.697081"/>
    </g>
   </g>
   <g id="line2d_27">
    <defs>
     <path d="M 0 3 
C 0.795609 3 1.55874 2.683901 2.12132 2.12132 
C 2.683901 1.55874 3 0.795609 3 0 
C 3 -0.795609 2.683901 -1.55874 2.12132 -2.12132 
C 1.55874 -2.683901 0.795609 -3 0 -3 
C -0.795609 -3 -1.55874 -2.683901 -2.12132 -2.12132 
C -2.683901 -1.55874 -3 -0.795609 -3 0 
C -3 0.795609 -2.683901 1.55874 -2.12132 2.12132 
C -1.55874 2.683901 -0.795609 3 0 3 
z
" id="meb5395d714" style="stroke:#1f77b4;"/>
    </defs>
    <g clip-path="url(#pa996e8abe1)">
     <use style="fill:#1f77b4;stroke:#1f77b4;" x="115.363636" xlink:href="#meb5395d714" y="170.094999"/>
     <use style="fill:#1f77b4;stroke:#1f77b4;" x="118.952613" xlink:href="#meb5395d714" y="168.220781"/>
     <use style="fill:#1f77b4;stroke:#1f77b4;" x="121.887644" xlink:href="#meb5395d714" y="174.147677"/>
     <use style="fill:#1f77b4;stroke:#1f77b4;" x="121.934501" xlink:href="#meb5395d714" y="159.505879"/>
     <use style="fill:#1f77b4;stroke:#1f77b4;" x="127.72784" xlink:href="#meb5395d714" y="161.931337"/>
     <use style="fill:#1f77b4;stroke:#1f77b4;" x="131.410017" xlink:href="#meb5395d714" y="164.764926"/>
     <use style="fill:#1f77b4;stroke:#1f77b4;" x="131.753467" xlink:href="#meb5395d714" y="195.417084"/>
     <use style="fill:#1f77b4;stroke:#1f77b4;" x="136.001023" xlink:href="#meb5395d714" y="192.407523"/>
     <use style="fill:#1f77b4;stroke:#1f77b4;" x="138.516396" xlink:href="#meb5395d714" y="168.88651"/>
     <use style="fill:#1f77b4;stroke:#1f77b4;" x="144.787579" xlink:href="#meb5395d714" y="180.551609"/>
     <use style="fill:#1f77b4;stroke:#1f77b4;" x="146.208752" xlink:href="#meb5395d714" y="208.683962"/>
     <use style="fill:#1f77b4;stroke:#1f77b4;" x="150.951659" xlink:href="#meb5395d714" y="236.742109"/>
     <use style="fill:#1f77b4;stroke:#1f77b4;" x="153.921704" xlink:href="#meb5395d714" y="240.003969"/>
     <use style="fill:#1f77b4;stroke:#1f77b4;" x="157.114709" xlink:href="#meb5395d714" y="211.865256"/>
     <use style="fill:#1f77b4;stroke:#1f77b4;" x="165.037748" xlink:href="#meb5395d714" y="236.145285"/>
     <use style="fill:#1f77b4;stroke:#1f77b4;" x="165.14794" xlink:href="#meb5395d714" y="265.829592"/>
     <use style="fill:#1f77b4;stroke:#1f77b4;" x="165.734432" xlink:href="#meb5395d714" y="221.125038"/>
     <use style="fill:#1f77b4;stroke:#1f77b4;" x="169.955727" xlink:href="#meb5395d714" y="243.248868"/>
     <use style="fill:#1f77b4;stroke:#1f77b4;" x="173.725954" xlink:href="#meb5395d714" y="247.552786"/>
     <use style="fill:#1f77b4;stroke:#1f77b4;" x="182.784902" xlink:href="#meb5395d714" y="236.822675"/>
     <use style="fill:#1f77b4;stroke:#1f77b4;" x="187.083435" xlink:href="#meb5395d714" y="287.620558"/>
     <use style="fill:#1f77b4;stroke:#1f77b4;" x="202.956803" xlink:href="#meb5395d714" y="262.240168"/>
     <use style="fill:#1f77b4;stroke:#1f77b4;" x="218.930065" xlink:href="#meb5395d714" y="274.526473"/>
     <use style="fill:#1f77b4;stroke:#1f77b4;" x="229.35097" xlink:href="#meb5395d714" y="238.397951"/>
     <use style="fill:#1f77b4;stroke:#1f77b4;" x="239.573116" xlink:href="#meb5395d714" y="210.756415"/>
     <use style="fill:#1f77b4;stroke:#1f77b4;" x="255.264719" xlink:href="#meb5395d714" y="259.56135"/>
     <use style="fill:#1f77b4;stroke:#1f77b4;" x="266.629982" xlink:href="#meb5395d714" y="258.727069"/>
     <use style="fill:#1f77b4;stroke:#1f77b4;" x="312.129141" xlink:href="#meb5395d714" y="196.916035"/>
     <use style="fill:#1f77b4;stroke:#1f77b4;" x="323.772975" xlink:href="#meb5395d714" y="181.293664"/>
     <use style="fill:#1f77b4;stroke:#1f77b4;" x="330.09462" xlink:href="#meb5395d714" y="181.767519"/>
     <use style="fill:#1f77b4;stroke:#1f77b4;" x="340.999032" xlink:href="#meb5395d714" y="178.892587"/>
     <use style="fill:#1f77b4;stroke:#1f77b4;" x="346.786707" xlink:href="#meb5395d714" y="141.223772"/>
     <use style="fill:#1f77b4;stroke:#1f77b4;" x="363.362423" xlink:href="#meb5395d714" y="169.232095"/>
     <use style="fill:#1f77b4;stroke:#1f77b4;" x="383.31188" xlink:href="#meb5395d714" y="160.366662"/>
     <use style="fill:#1f77b4;stroke:#1f77b4;" x="394.554079" xlink:href="#meb5395d714" y="188.5711"/>
     <use style="fill:#1f77b4;stroke:#1f77b4;" x="404.532154" xlink:href="#meb5395d714" y="184.666832"/>
     <use style="fill:#1f77b4;stroke:#1f77b4;" x="416.147153" xlink:href="#meb5395d714" y="216.38967"/>
     <use style="fill:#1f77b4;stroke:#1f77b4;" x="420.895724" xlink:href="#meb5395d714" y="224.339195"/>
     <use style="fill:#1f77b4;stroke:#1f77b4;" x="432.849024" xlink:href="#meb5395d714" y="235.553762"/>
     <use style="fill:#1f77b4;stroke:#1f77b4;" x="441.616013" xlink:href="#meb5395d714" y="292.470415"/>
     <use style="fill:#1f77b4;stroke:#1f77b4;" x="452.317547" xlink:href="#meb5395d714" y="304.084631"/>
     <use style="fill:#1f77b4;stroke:#1f77b4;" x="464.254885" xlink:href="#meb5395d714" y="334.024417"/>
     <use style="fill:#1f77b4;stroke:#1f77b4;" x="471.79328" xlink:href="#meb5395d714" y="307.946495"/>
     <use style="fill:#1f77b4;stroke:#1f77b4;" x="477.844078" xlink:href="#meb5395d714" y="310.191741"/>
     <use style="fill:#1f77b4;stroke:#1f77b4;" x="532.845013" xlink:href="#meb5395d714" y="159.566303"/>
     <use style="fill:#1f77b4;stroke:#1f77b4;" x="543.19074" xlink:href="#meb5395d714" y="135.465427"/>
     <use style="fill:#1f77b4;stroke:#1f77b4;" x="547.754456" xlink:href="#meb5395d714" y="149.06835"/>
     <use style="fill:#1f77b4;stroke:#1f77b4;" x="553.023094" xlink:href="#meb5395d714" y="154.731287"/>
     <use style="fill:#1f77b4;stroke:#1f77b4;" x="555.494184" xlink:href="#meb5395d714" y="145.914617"/>
     <use style="fill:#1f77b4;stroke:#1f77b4;" x="567.933051" xlink:href="#meb5395d714" y="136.917734"/>
     <use style="fill:#1f77b4;stroke:#1f77b4;" x="577.91576" xlink:href="#meb5395d714" y="119.48581"/>
     <use style="fill:#1f77b4;stroke:#1f77b4;" x="584.036072" xlink:href="#meb5395d714" y="179.717328"/>
     <use style="fill:#1f77b4;stroke:#1f77b4;" x="585.055609" xlink:href="#meb5395d714" y="103.709728"/>
     <use style="fill:#1f77b4;stroke:#1f77b4;" x="594.593945" xlink:href="#meb5395d714" y="140.507159"/>
     <use style="fill:#1f77b4;stroke:#1f77b4;" x="595.790614" xlink:href="#meb5395d714" y="162.623568"/>
     <use style="fill:#1f77b4;stroke:#1f77b4;" x="601.189011" xlink:href="#meb5395d714" y="119.800653"/>
     <use style="fill:#1f77b4;stroke:#1f77b4;" x="605.455619" xlink:href="#meb5395d714" y="179.89012"/>
     <use style="fill:#1f77b4;stroke:#1f77b4;" x="610.978627" xlink:href="#meb5395d714" y="121.960032"/>
     <use style="fill:#1f77b4;stroke:#1f77b4;" x="622.636364" xlink:href="#meb5395d714" y="128.301419"/>
    </g>
   </g>
   <g id="line2d_28">
    <path clip-path="url(#pa996e8abe1)" d="M 115.363636 157.262753 
L 119.429951 161.553814 
L 122.479687 165.143229 
L 126.546001 170.390713 
L 129.595737 174.68465 
L 133.662051 180.886566 
L 137.728366 187.608333 
L 141.79468 194.797101 
L 146.877573 204.324352 
L 153.993624 218.282405 
L 162.126253 234.153975 
L 166.192567 241.611764 
L 169.242303 246.826626 
L 172.292039 251.623272 
L 175.341774 255.913932 
L 177.374932 258.458501 
L 179.408089 260.73216 
L 181.441246 262.719577 
L 183.474403 264.405428 
L 185.507561 265.774906 
L 187.540718 266.814052 
L 189.573875 267.517458 
L 191.607032 267.897376 
L 193.640189 267.968261 
L 195.673347 267.744569 
L 197.706504 267.240755 
L 199.739661 266.471275 
L 201.772818 265.450585 
L 203.805976 264.19342 
L 205.839133 262.724295 
L 208.888869 260.20359 
L 212.955183 256.447257 
L 221.087812 248.69972 
L 224.137548 246.082585 
L 227.187284 243.789045 
L 229.220441 242.490741 
L 231.253598 241.409512 
L 233.286755 240.55741 
L 235.319913 239.941834 
L 237.35307 239.570184 
L 239.386227 239.449858 
L 241.419384 239.585104 
L 243.452541 239.963542 
L 245.485699 240.567327 
L 247.518856 241.37861 
L 249.552013 242.379543 
L 252.601749 244.197492 
L 255.651485 246.34168 
L 263.784114 252.40558 
L 265.817271 253.568578 
L 267.850428 254.428925 
L 269.883585 254.957155 
L 271.916743 255.161958 
L 273.9499 255.053006 
L 275.983057 254.639972 
L 278.016214 253.932526 
L 280.049371 252.940341 
L 282.082529 251.673087 
L 284.115686 250.140436 
L 286.148843 248.35206 
L 288.182 246.31763 
L 290.215158 244.046819 
L 293.264893 240.218541 
L 296.314629 235.912806 
L 299.364365 231.162255 
L 302.414101 225.99953 
L 305.463837 220.457273 
L 309.530151 212.533628 
L 313.596466 204.074723 
L 320.712516 189.008625 
L 323.762252 183.085881 
L 326.811988 177.805711 
L 328.845145 174.66681 
L 330.878302 171.833486 
L 332.911459 169.306563 
L 334.944617 167.087271 
L 336.977774 165.176871 
L 339.010931 163.576623 
L 341.044088 162.287787 
L 343.077245 161.307784 
L 345.110403 160.619664 
L 347.14356 160.203112 
L 349.176717 160.035609 
L 351.209874 160.089379 
L 353.243032 160.335875 
L 356.292767 161.004537 
L 359.342503 161.946262 
L 363.408818 163.460139 
L 370.524868 166.378067 
L 378.657497 169.980303 
L 386.790126 173.823639 
L 389.839862 175.445322 
L 392.889597 177.314796 
L 395.939333 179.536259 
L 397.97249 181.260894 
L 400.005648 183.210806 
L 402.038805 185.411795 
L 404.071962 187.889661 
L 406.105119 190.668563 
L 408.138277 193.759463 
L 410.171434 197.166958 
L 412.204591 200.895604 
L 414.237748 204.949957 
L 417.287484 211.651472 
L 420.33722 219.079076 
L 423.386956 227.166268 
L 427.45327 238.766189 
L 432.536163 254.112879 
L 440.668792 278.906405 
L 443.718528 287.634514 
L 446.768264 295.736624 
L 448.801421 300.693543 
L 450.834578 305.2272 
L 452.867735 309.279688 
L 454.900893 312.80312 
L 456.93405 315.767995 
L 458.967207 318.146782 
L 459.983786 319.10779 
L 461.000364 319.911952 
L 462.016943 320.555828 
L 463.033522 321.035975 
L 464.0501 321.348953 
L 465.066679 321.49161 
L 466.083257 321.462947 
L 467.099836 321.262931 
L 468.116415 320.891535 
L 469.132993 320.348732 
L 470.149572 319.634496 
L 471.16615 318.748799 
L 472.182729 317.691704 
L 474.215886 315.084522 
L 476.249044 311.88341 
L 478.282201 308.165585 
L 480.315358 303.996247 
L 482.348515 299.414915 
L 485.398251 291.84965 
L 488.447987 283.561111 
L 491.497723 274.671523 
L 495.564037 262.095031 
L 501.663509 242.267988 
L 510.812716 212.297489 
L 514.879031 199.634131 
L 518.945345 187.785436 
L 521.995081 179.607824 
L 525.044817 172.173654 
L 527.077974 167.690924 
L 529.111131 163.629151 
L 531.144289 160.024551 
L 533.177446 156.913258 
L 535.210603 154.302527 
L 537.24376 152.128184 
L 539.276917 150.315204 
L 541.310075 148.78856 
L 544.359811 146.874198 
L 547.409546 145.310053 
L 550.459282 144.116489 
L 553.509018 143.226882 
L 556.558754 142.549402 
L 560.625068 141.878703 
L 565.707961 141.286295 
L 576.890326 140.30245 
L 584.006376 139.848076 
L 589.089269 139.723082 
L 593.155584 139.823472 
L 597.221898 140.164072 
L 600.271634 140.610632 
L 603.32137 141.2443 
L 606.371106 142.083397 
L 609.420842 143.143417 
L 612.470578 144.437342 
L 615.520313 145.977915 
L 618.570049 147.777877 
L 621.619785 149.849969 
L 622.636364 150.603343 
L 622.636364 150.603343 
" style="fill:none;stroke:#d62728;stroke-linecap:round;stroke-width:3;"/>
   </g>
   <g id="patch_3">
    <path d="M 90 384.48 
L 90 51.84 
" style="fill:none;stroke:#cccccc;stroke-linecap:square;stroke-linejoin:miter;"/>
   </g>
   <g id="patch_4">
    <path d="M 648 384.48 
L 648 51.84 
" style="fill:none;stroke:#cccccc;stroke-linecap:square;stroke-linejoin:miter;"/>
   </g>
   <g id="patch_5">
    <path d="M 90 384.48 
L 648 384.48 
" style="fill:none;stroke:#cccccc;stroke-linecap:square;stroke-linejoin:miter;"/>
   </g>
   <g id="patch_6">
    <path d="M 90 51.84 
L 648 51.84 
" style="fill:none;stroke:#cccccc;stroke-linecap:square;stroke-linejoin:miter;"/>
   </g>
   <g id="text_15">
    <!-- 2001 UY4 Light Curve -->
    <g style="fill:#262626;" transform="translate(307.31625 45.84)scale(0.12 -0.12)">
     <defs>
      <path d="M 222 0 
L 222 609 
Q 372 938 587 1202 
Q 803 1466 1039 1686 
Q 1275 1906 1508 2095 
Q 1741 2284 1927 2461 
Q 2113 2638 2228 2816 
Q 2344 2994 2344 3194 
Q 2344 3488 2197 3628 
Q 2050 3769 1766 3769 
Q 1484 3769 1336 3617 
Q 1188 3466 1144 3163 
L 259 3213 
Q 291 3472 387 3700 
Q 484 3928 664 4100 
Q 844 4272 1114 4370 
Q 1384 4469 1759 4469 
Q 2116 4469 2391 4386 
Q 2666 4303 2853 4143 
Q 3041 3984 3137 3754 
Q 3234 3525 3234 3231 
Q 3234 2922 3112 2672 
Q 2991 2422 2800 2211 
Q 2609 2000 2376 1815 
Q 2144 1631 1925 1456 
Q 1706 1281 1526 1103 
Q 1347 925 1259 722 
L 3303 722 
L 3303 0 
L 222 0 
z
" id="LiberationSans-Bold-32" transform="scale(0.015625)"/>
      <path d="M 3297 2203 
Q 3297 1572 3181 1139 
Q 3066 706 2861 439 
Q 2656 172 2376 54 
Q 2097 -63 1766 -63 
Q 1434 -63 1156 53 
Q 878 169 678 436 
Q 478 703 365 1136 
Q 253 1569 253 2203 
Q 253 2869 364 3305 
Q 475 3741 678 4000 
Q 881 4259 1164 4364 
Q 1447 4469 1791 4469 
Q 2113 4469 2389 4364 
Q 2666 4259 2867 4000 
Q 3069 3741 3183 3305 
Q 3297 2869 3297 2203 
z
M 2416 2203 
Q 2416 2669 2381 2973 
Q 2347 3278 2272 3458 
Q 2197 3638 2076 3709 
Q 1956 3781 1784 3781 
Q 1600 3781 1475 3707 
Q 1350 3634 1273 3453 
Q 1197 3272 1164 2967 
Q 1131 2663 1131 2203 
Q 1131 1750 1165 1447 
Q 1200 1144 1275 961 
Q 1350 778 1472 703 
Q 1594 628 1772 628 
Q 1944 628 2066 703 
Q 2188 778 2266 961 
Q 2344 1144 2380 1447 
Q 2416 1750 2416 2203 
z
" id="LiberationSans-Bold-30" transform="scale(0.015625)"/>
      <path d="M 403 0 
L 403 653 
L 1494 653 
L 1494 3656 
L 438 2997 
L 438 3688 
L 1541 4403 
L 2372 4403 
L 2372 653 
L 3381 653 
L 3381 0 
L 403 0 
z
" id="LiberationSans-Bold-31" transform="scale(0.015625)"/>
      <path id="LiberationSans-Bold-20" transform="scale(0.015625)"/>
      <path d="M 2259 -63 
Q 1847 -63 1503 35 
Q 1159 134 911 342 
Q 663 550 523 875 
Q 384 1200 384 1650 
L 384 4403 
L 1306 4403 
L 1306 1722 
Q 1306 1444 1375 1242 
Q 1444 1041 1572 911 
Q 1700 781 1881 720 
Q 2063 659 2284 659 
Q 2509 659 2698 723 
Q 2888 788 3023 922 
Q 3159 1056 3234 1262 
Q 3309 1469 3309 1753 
L 3309 4403 
L 4231 4403 
L 4231 1697 
Q 4231 1244 4084 912 
Q 3938 581 3675 364 
Q 3413 147 3052 42 
Q 2691 -63 2259 -63 
z
" id="LiberationSans-Bold-55" transform="scale(0.015625)"/>
      <path d="M 2597 1806 
L 2597 0 
L 1678 0 
L 1678 1806 
L 109 4403 
L 1075 4403 
L 2131 2541 
L 3200 4403 
L 4166 4403 
L 2597 1806 
z
" id="LiberationSans-Bold-59" transform="scale(0.015625)"/>
      <path d="M 2938 897 
L 2938 0 
L 2100 0 
L 2100 897 
L 97 897 
L 97 1556 
L 1956 4403 
L 2938 4403 
L 2938 1550 
L 3525 1550 
L 3525 897 
L 2938 897 
z
M 2100 2991 
Q 2100 3044 2101 3130 
Q 2103 3216 2108 3306 
Q 2113 3397 2117 3480 
Q 2122 3563 2128 3609 
Q 2113 3575 2078 3511 
Q 2044 3447 2001 3373 
Q 1959 3300 1914 3228 
Q 1869 3156 1834 3103 
L 813 1550 
L 2100 1550 
L 2100 2991 
z
" id="LiberationSans-Bold-34" transform="scale(0.015625)"/>
      <path d="M 428 0 
L 428 4403 
L 1350 4403 
L 1350 713 
L 3713 713 
L 3713 0 
L 428 0 
z
" id="LiberationSans-Bold-4c" transform="scale(0.015625)"/>
      <path d="M 447 3991 
L 447 4638 
L 1325 4638 
L 1325 3991 
L 447 3991 
z
M 447 0 
L 447 3381 
L 1325 3381 
L 1325 0 
L 447 0 
z
" id="LiberationSans-Bold-69" transform="scale(0.015625)"/>
      <path d="M 1863 -1356 
Q 1528 -1356 1273 -1289 
Q 1019 -1222 839 -1101 
Q 659 -981 551 -814 
Q 444 -647 403 -447 
L 1281 -344 
Q 1328 -547 1483 -662 
Q 1638 -778 1888 -778 
Q 2044 -778 2173 -734 
Q 2303 -691 2395 -586 
Q 2488 -481 2539 -309 
Q 2591 -138 2591 116 
Q 2591 203 2591 293 
Q 2591 384 2594 459 
Q 2597 547 2597 628 
L 2591 628 
Q 2438 300 2161 153 
Q 1884 6 1503 6 
Q 1181 6 948 132 
Q 716 259 562 486 
Q 409 713 336 1027 
Q 263 1341 263 1719 
Q 263 2109 341 2426 
Q 419 2744 580 2972 
Q 741 3200 986 3323 
Q 1231 3447 1569 3447 
Q 1906 3447 2173 3303 
Q 2441 3159 2591 2838 
L 2606 2838 
Q 2606 2903 2611 2989 
Q 2616 3075 2622 3154 
Q 2628 3234 2636 3296 
Q 2644 3359 2650 3381 
L 3481 3381 
Q 3475 3269 3469 3066 
Q 3463 2863 3463 2600 
L 3463 103 
Q 3463 -266 3356 -539 
Q 3250 -813 3045 -994 
Q 2841 -1175 2542 -1265 
Q 2244 -1356 1863 -1356 
z
M 2597 1738 
Q 2597 2056 2534 2268 
Q 2472 2481 2372 2609 
Q 2272 2738 2142 2791 
Q 2013 2844 1881 2844 
Q 1713 2844 1583 2778 
Q 1453 2713 1362 2575 
Q 1272 2438 1225 2225 
Q 1178 2013 1178 1719 
Q 1178 1172 1353 894 
Q 1528 616 1875 616 
Q 2006 616 2136 667 
Q 2266 719 2369 848 
Q 2472 978 2534 1193 
Q 2597 1409 2597 1738 
z
" id="LiberationSans-Bold-67" transform="scale(0.015625)"/>
      <path d="M 1313 2706 
Q 1491 3094 1759 3269 
Q 2028 3444 2400 3444 
Q 2706 3444 2917 3344 
Q 3128 3244 3261 3069 
Q 3394 2894 3453 2656 
Q 3513 2419 3513 2144 
L 3513 0 
L 2638 0 
L 2638 1894 
Q 2638 2091 2606 2255 
Q 2575 2419 2503 2536 
Q 2431 2653 2315 2718 
Q 2200 2784 2034 2784 
Q 1875 2784 1745 2714 
Q 1616 2644 1522 2514 
Q 1428 2384 1376 2204 
Q 1325 2025 1325 1809 
L 1325 0 
L 447 0 
L 447 4638 
L 1325 4638 
L 1325 3372 
Q 1325 3272 1322 3170 
Q 1319 3069 1314 2980 
Q 1309 2891 1306 2819 
Q 1303 2747 1300 2706 
L 1313 2706 
z
" id="LiberationSans-Bold-68" transform="scale(0.015625)"/>
      <path d="M 1313 -56 
Q 925 -56 715 155 
Q 506 366 506 794 
L 506 2788 
L 78 2788 
L 78 3381 
L 550 3381 
L 825 4175 
L 1375 4175 
L 1375 3381 
L 2016 3381 
L 2016 2788 
L 1375 2788 
L 1375 1031 
Q 1375 784 1469 667 
Q 1563 550 1759 550 
Q 1841 550 1906 562 
Q 1972 575 2053 594 
L 2053 50 
Q 1891 -3 1709 -29 
Q 1528 -56 1313 -56 
z
" id="LiberationSans-Bold-74" transform="scale(0.015625)"/>
      <path d="M 2484 663 
Q 2744 663 2933 736 
Q 3122 809 3261 928 
Q 3400 1047 3492 1197 
Q 3584 1347 3644 1500 
L 4447 1197 
Q 4350 959 4194 731 
Q 4038 503 3803 328 
Q 3569 153 3245 45 
Q 2922 -63 2484 -63 
Q 1913 -63 1494 107 
Q 1075 278 801 583 
Q 528 888 395 1306 
Q 263 1725 263 2222 
Q 263 2738 395 3153 
Q 528 3569 797 3861 
Q 1066 4153 1477 4311 
Q 1888 4469 2444 4469 
Q 2875 4469 3198 4378 
Q 3522 4288 3758 4123 
Q 3994 3959 4148 3736 
Q 4303 3513 4391 3244 
L 3578 3022 
Q 3534 3163 3443 3292 
Q 3353 3422 3214 3522 
Q 3075 3622 2887 3683 
Q 2700 3744 2463 3744 
Q 2128 3744 1887 3636 
Q 1647 3528 1492 3328 
Q 1338 3128 1264 2848 
Q 1191 2569 1191 2222 
Q 1191 1878 1264 1592 
Q 1338 1306 1494 1100 
Q 1650 894 1895 778 
Q 2141 663 2484 663 
z
" id="LiberationSans-Bold-43" transform="scale(0.015625)"/>
      <path d="M 1275 3381 
L 1275 1484 
Q 1275 1288 1306 1123 
Q 1338 959 1409 842 
Q 1481 725 1595 659 
Q 1709 594 1875 594 
Q 2034 594 2164 664 
Q 2294 734 2387 864 
Q 2481 994 2532 1173 
Q 2584 1353 2584 1569 
L 2584 3381 
L 3463 3381 
L 3463 756 
Q 3463 650 3464 533 
Q 3466 416 3470 311 
Q 3475 206 3479 123 
Q 3484 41 3488 0 
L 2650 0 
Q 2647 38 2639 120 
Q 2631 203 2626 303 
Q 2622 403 2617 503 
Q 2613 603 2613 672 
L 2597 672 
Q 2422 288 2151 112 
Q 1881 -63 1509 -63 
Q 1206 -63 993 37 
Q 781 138 648 311 
Q 516 484 456 721 
Q 397 959 397 1234 
L 397 3381 
L 1275 3381 
z
" id="LiberationSans-Bold-75" transform="scale(0.015625)"/>
      <path d="M 447 0 
L 447 2588 
Q 447 2697 445 2819 
Q 444 2941 439 3052 
Q 434 3163 431 3252 
Q 428 3341 422 3381 
L 1259 3381 
Q 1266 3344 1272 3251 
Q 1278 3159 1284 3050 
Q 1291 2941 1295 2833 
Q 1300 2725 1300 2659 
L 1313 2659 
Q 1378 2844 1443 2989 
Q 1509 3134 1598 3236 
Q 1688 3338 1813 3392 
Q 1938 3447 2122 3447 
Q 2200 3447 2276 3433 
Q 2353 3419 2394 3400 
L 2394 2666 
Q 2309 2684 2223 2698 
Q 2138 2713 2019 2713 
Q 1691 2713 1508 2447 
Q 1325 2181 1325 1659 
L 1325 0 
L 447 0 
z
" id="LiberationSans-Bold-72" transform="scale(0.015625)"/>
      <path d="M 1766 709 
L 2613 3381 
L 3531 3381 
L 2284 0 
L 1234 0 
L 25 3381 
L 953 3381 
L 1766 709 
z
" id="LiberationSans-Bold-76" transform="scale(0.015625)"/>
      <path d="M 1831 -63 
Q 1466 -63 1173 45 
Q 881 153 675 373 
Q 469 594 359 926 
Q 250 1259 250 1706 
Q 250 2191 379 2522 
Q 509 2853 729 3058 
Q 950 3263 1237 3353 
Q 1525 3444 1844 3444 
Q 2244 3444 2526 3305 
Q 2809 3166 2990 2916 
Q 3172 2666 3256 2317 
Q 3341 1969 3341 1547 
L 3341 1522 
L 1172 1522 
Q 1172 1309 1209 1126 
Q 1247 944 1331 811 
Q 1416 678 1550 601 
Q 1684 525 1875 525 
Q 2106 525 2253 623 
Q 2400 722 2463 928 
L 3291 856 
Q 3234 713 3132 550 
Q 3031 388 2862 252 
Q 2694 116 2442 26 
Q 2191 -63 1831 -63 
z
M 1831 2891 
Q 1697 2891 1580 2845 
Q 1463 2800 1377 2701 
Q 1291 2603 1237 2447 
Q 1184 2291 1178 2072 
L 2491 2072 
Q 2466 2481 2294 2686 
Q 2122 2891 1831 2891 
z
" id="LiberationSans-Bold-65" transform="scale(0.015625)"/>
     </defs>
     <use xlink:href="#LiberationSans-Bold-32"/>
     <use x="55.615234" xlink:href="#LiberationSans-Bold-30"/>
     <use x="111.230469" xlink:href="#LiberationSans-Bold-30"/>
     <use x="166.845703" xlink:href="#LiberationSans-Bold-31"/>
     <use x="222.460938" xlink:href="#LiberationSans-Bold-20"/>
     <use x="250.244141" xlink:href="#LiberationSans-Bold-55"/>
     <use x="322.460938" xlink:href="#LiberationSans-Bold-59"/>
     <use x="389.160156" xlink:href="#LiberationSans-Bold-34"/>
     <use x="444.775391" xlink:href="#LiberationSans-Bold-20"/>
     <use x="472.558594" xlink:href="#LiberationSans-Bold-4c"/>
     <use x="533.642578" xlink:href="#LiberationSans-Bold-69"/>
     <use x="561.425781" xlink:href="#LiberationSans-Bold-67"/>
     <use x="622.509766" xlink:href="#LiberationSans-Bold-68"/>
     <use x="683.59375" xlink:href="#LiberationSans-Bold-74"/>
     <use x="716.894531" xlink:href="#LiberationSans-Bold-20"/>
     <use x="744.677734" xlink:href="#LiberationSans-Bold-43"/>
     <use x="816.894531" xlink:href="#LiberationSans-Bold-75"/>
     <use x="877.978516" xlink:href="#LiberationSans-Bold-72"/>
     <use x="916.894531" xlink:href="#LiberationSans-Bold-76"/>
     <use x="972.509766" xlink:href="#LiberationSans-Bold-65"/>
    </g>
   </g>
   <g id="legend_1">
    <g id="line2d_29">
     <path d="M 99 64.586875 
L 119 64.586875 
" style="fill:none;stroke:#d62728;stroke-linecap:round;stroke-width:3;"/>
    </g>
    <g id="line2d_30"/>
    <g id="text_16">
     <!-- Fit (6th order) -->
     <g style="fill:#262626;" transform="translate(127 68.086875)scale(0.1 -0.1)">
      <defs>
       <path d="M 1122 3916 
L 1122 2278 
L 3578 2278 
L 3578 1784 
L 1122 1784 
L 1122 0 
L 525 0 
L 525 4403 
L 3653 4403 
L 3653 3916 
L 1122 3916 
z
" id="LiberationSans-46" transform="scale(0.015625)"/>
       <path d="M 1731 25 
Q 1603 -9 1470 -29 
Q 1338 -50 1163 -50 
Q 488 -50 488 716 
L 488 2972 
L 97 2972 
L 97 3381 
L 509 3381 
L 675 4138 
L 1050 4138 
L 1050 3381 
L 1675 3381 
L 1675 2972 
L 1050 2972 
L 1050 838 
Q 1050 594 1129 495 
Q 1209 397 1406 397 
Q 1488 397 1564 409 
Q 1641 422 1731 441 
L 1731 25 
z
" id="LiberationSans-74" transform="scale(0.015625)"/>
       <path d="M 397 1663 
Q 397 2097 462 2494 
Q 528 2891 668 3256 
Q 809 3622 1028 3965 
Q 1247 4309 1550 4638 
L 2094 4638 
Q 1800 4309 1586 3964 
Q 1372 3619 1234 3251 
Q 1097 2884 1030 2487 
Q 963 2091 963 1656 
Q 963 1222 1030 825 
Q 1097 428 1234 59 
Q 1372 -309 1586 -653 
Q 1800 -997 2094 -1325 
L 1550 -1325 
Q 1247 -997 1028 -653 
Q 809 -309 668 56 
Q 528 422 462 817 
Q 397 1213 397 1650 
L 397 1663 
z
" id="LiberationSans-28" transform="scale(0.015625)"/>
       <path d="M 1734 1650 
Q 1734 1213 1668 817 
Q 1603 422 1462 56 
Q 1322 -309 1103 -653 
Q 884 -997 581 -1325 
L 38 -1325 
Q 331 -997 545 -653 
Q 759 -309 896 59 
Q 1034 428 1101 825 
Q 1169 1222 1169 1656 
Q 1169 2091 1101 2487 
Q 1034 2884 896 3251 
Q 759 3619 545 3964 
Q 331 4309 38 4638 
L 581 4638 
Q 884 4309 1103 3965 
Q 1322 3622 1462 3256 
Q 1603 2891 1668 2494 
Q 1734 2097 1734 1663 
L 1734 1650 
z
" id="LiberationSans-29" transform="scale(0.015625)"/>
      </defs>
      <use xlink:href="#LiberationSans-46"/>
      <use x="61.083984" xlink:href="#LiberationSans-69"/>
      <use x="83.300781" xlink:href="#LiberationSans-74"/>
      <use x="111.083984" xlink:href="#LiberationSans-20"/>
      <use x="138.867188" xlink:href="#LiberationSans-28"/>
      <use x="172.167969" xlink:href="#LiberationSans-36"/>
      <use x="227.783203" xlink:href="#LiberationSans-74"/>
      <use x="255.566406" xlink:href="#LiberationSans-68"/>
      <use x="311.181641" xlink:href="#LiberationSans-20"/>
      <use x="338.964844" xlink:href="#LiberationSans-6f"/>
      <use x="394.580078" xlink:href="#LiberationSans-72"/>
      <use x="427.880859" xlink:href="#LiberationSans-64"/>
      <use x="483.496094" xlink:href="#LiberationSans-65"/>
      <use x="539.111328" xlink:href="#LiberationSans-72"/>
      <use x="572.412109" xlink:href="#LiberationSans-29"/>
     </g>
    </g>
    <g id="LineCollection_2">
     <path d="M 109 83.90875 
L 109 73.90875 
" style="fill:none;stroke:#696969;"/>
    </g>
    <g id="line2d_31">
     <g>
      <use style="fill:#696969;stroke:#696969;" x="109" xlink:href="#md254b71c72" y="83.90875"/>
     </g>
    </g>
    <g id="line2d_32">
     <g>
      <use style="fill:#696969;stroke:#696969;" x="109" xlink:href="#md254b71c72" y="73.90875"/>
     </g>
    </g>
    <g id="line2d_33"/>
    <g id="line2d_34">
     <g>
      <use style="fill:#1f77b4;stroke:#1f77b4;" x="109" xlink:href="#meb5395d714" y="78.90875"/>
     </g>
    </g>
    <g id="text_17">
     <!-- Data of 4 nights -->
     <g style="fill:#262626;" transform="translate(127 82.40875)scale(0.1 -0.1)">
      <defs>
       <path d="M 4316 2247 
Q 4316 1697 4150 1276 
Q 3984 856 3696 573 
Q 3409 291 3017 145 
Q 2625 0 2172 0 
L 525 0 
L 525 4403 
L 1981 4403 
Q 2491 4403 2920 4276 
Q 3350 4150 3659 3886 
Q 3969 3622 4142 3215 
Q 4316 2809 4316 2247 
z
M 3716 2247 
Q 3716 2694 3587 3011 
Q 3459 3328 3228 3531 
Q 2997 3734 2675 3829 
Q 2353 3925 1969 3925 
L 1122 3925 
L 1122 478 
L 2103 478 
Q 2450 478 2745 590 
Q 3041 703 3256 925 
Q 3472 1147 3594 1478 
Q 3716 1809 3716 2247 
z
" id="LiberationSans-44" transform="scale(0.015625)"/>
       <path d="M 1128 2972 
L 1128 0 
L 566 0 
L 566 2972 
L 91 2972 
L 91 3381 
L 566 3381 
L 566 3763 
Q 566 3947 600 4105 
Q 634 4263 726 4380 
Q 819 4497 978 4564 
Q 1138 4631 1391 4631 
Q 1491 4631 1598 4622 
Q 1706 4613 1788 4594 
L 1788 4166 
Q 1734 4175 1664 4183 
Q 1594 4191 1538 4191 
Q 1413 4191 1333 4156 
Q 1253 4122 1208 4058 
Q 1163 3994 1145 3900 
Q 1128 3806 1128 3684 
L 1128 3381 
L 1788 3381 
L 1788 2972 
L 1128 2972 
z
" id="LiberationSans-66" transform="scale(0.015625)"/>
       <path d="M 2578 0 
L 2578 2144 
Q 2578 2391 2542 2556 
Q 2506 2722 2425 2823 
Q 2344 2925 2211 2967 
Q 2078 3009 1881 3009 
Q 1681 3009 1520 2939 
Q 1359 2869 1245 2736 
Q 1131 2603 1068 2408 
Q 1006 2213 1006 1959 
L 1006 0 
L 444 0 
L 444 2659 
Q 444 2766 442 2883 
Q 441 3000 437 3104 
Q 434 3209 431 3284 
Q 428 3359 425 3381 
L 956 3381 
Q 959 3366 962 3297 
Q 966 3228 970 3139 
Q 975 3050 978 2958 
Q 981 2866 981 2803 
L 991 2803 
Q 1072 2950 1169 3069 
Q 1266 3188 1394 3270 
Q 1522 3353 1687 3398 
Q 1853 3444 2072 3444 
Q 2353 3444 2556 3375 
Q 2759 3306 2890 3162 
Q 3022 3019 3083 2792 
Q 3144 2566 3144 2253 
L 3144 0 
L 2578 0 
z
" id="LiberationSans-6e" transform="scale(0.015625)"/>
      </defs>
      <use xlink:href="#LiberationSans-44"/>
      <use x="72.216797" xlink:href="#LiberationSans-61"/>
      <use x="127.832031" xlink:href="#LiberationSans-74"/>
      <use x="155.615234" xlink:href="#LiberationSans-61"/>
      <use x="211.230469" xlink:href="#LiberationSans-20"/>
      <use x="239.013672" xlink:href="#LiberationSans-6f"/>
      <use x="294.628906" xlink:href="#LiberationSans-66"/>
      <use x="322.412109" xlink:href="#LiberationSans-20"/>
      <use x="350.195312" xlink:href="#LiberationSans-34"/>
      <use x="405.810547" xlink:href="#LiberationSans-20"/>
      <use x="433.59375" xlink:href="#LiberationSans-6e"/>
      <use x="489.208984" xlink:href="#LiberationSans-69"/>
      <use x="511.425781" xlink:href="#LiberationSans-67"/>
      <use x="567.041016" xlink:href="#LiberationSans-68"/>
      <use x="622.65625" xlink:href="#LiberationSans-74"/>
      <use x="650.439453" xlink:href="#LiberationSans-73"/>
     </g>
    </g>
   </g>
  </g>
 </g>
 <defs>
  <clipPath id="pa996e8abe1">
   <rect height="332.64" width="558" x="90" y="51.84"/>
  </clipPath>
 </defs>
</svg>
