<?xml version="1.0" encoding="utf-8" standalone="no"?>
<!DOCTYPE svg PUBLIC "-//W3C//DTD SVG 1.1//EN"
  "http://www.w3.org/Graphics/SVG/1.1/DTD/svg11.dtd">
<svg height="432pt" version="1.1" viewBox="0 0 720 432" width="720pt" xmlns="http://www.w3.org/2000/svg" xmlns:xlink="http://www.w3.org/1999/xlink">
 <metadata>
  <rdf:RDF xmlns:cc="http://creativecommons.org/ns#" xmlns:dc="http://purl.org/dc/elements/1.1/" xmlns:rdf="http://www.w3.org/1999/02/22-rdf-syntax-ns#">
   <cc:Work>
    <dc:type rdf:resource="http://purl.org/dc/dcmitype/StillImage"/>
    <dc:date>2021-08-29T17:17:14.125453</dc:date>
    <dc:format>image/svg+xml</dc:format>
    <dc:creator>
     <cc:Agent>
      <dc:title>Matplotlib v3.4.2, https://matplotlib.org/</dc:title>
     </cc:Agent>
    </dc:creator>
   </cc:Work>
  </rdf:RDF>
 </metadata>
 <defs>
  <style type="text/css">*{stroke-linecap:butt;stroke-linejoin:round;}</style>
 </defs>
 <g id="figure_1">
  <g id="patch_1">
   <path d="M 0 432 
L 720 432 
L 720 0 
L 0 0 
z
" style="fill:#ffffff;"/>
  </g>
  <g id="axes_1">
   <g id="patch_2">
    <path d="M 90 384.48 
L 648 384.48 
L 648 51.84 
L 90 51.84 
z
" style="fill:#ffffff;"/>
   </g>
   <g id="matplotlib.axis_1">
    <g id="xtick_1">
     <g id="line2d_1">
      <path clip-path="url(#p21f93249c8)" d="M 161.484739 384.48 
L 161.484739 51.84 
" style="fill:none;stroke:#cccccc;stroke-linecap:round;stroke-width:0.8;"/>
     </g>
     <g id="line2d_2"/>
     <g id="text_1">
      <!-- 2 -->
      <g style="fill:#262626;" transform="translate(158.70427 395.226875)scale(0.1 -0.1)">
       <defs>
        <path d="M 322 0 
L 322 397 
Q 481 763 711 1042 
Q 941 1322 1194 1548 
Q 1447 1775 1695 1969 
Q 1944 2163 2144 2356 
Q 2344 2550 2467 2762 
Q 2591 2975 2591 3244 
Q 2591 3431 2534 3573 
Q 2478 3716 2372 3812 
Q 2266 3909 2117 3957 
Q 1969 4006 1788 4006 
Q 1619 4006 1470 3959 
Q 1322 3913 1206 3819 
Q 1091 3725 1017 3586 
Q 944 3447 922 3263 
L 347 3316 
Q 375 3553 478 3762 
Q 581 3972 762 4130 
Q 944 4288 1198 4378 
Q 1453 4469 1788 4469 
Q 2116 4469 2372 4391 
Q 2628 4313 2804 4159 
Q 2981 4006 3075 3781 
Q 3169 3556 3169 3263 
Q 3169 3041 3089 2841 
Q 3009 2641 2876 2459 
Q 2744 2278 2569 2109 
Q 2394 1941 2203 1780 
Q 2013 1619 1819 1461 
Q 1625 1303 1454 1143 
Q 1284 984 1150 820 
Q 1016 656 941 478 
L 3238 478 
L 3238 0 
L 322 0 
z
" id="LiberationSans-32" transform="scale(0.015625)"/>
       </defs>
       <use xlink:href="#LiberationSans-32"/>
      </g>
     </g>
    </g>
    <g id="xtick_2">
     <g id="line2d_3">
      <path clip-path="url(#p21f93249c8)" d="M 253.727683 384.48 
L 253.727683 51.84 
" style="fill:none;stroke:#cccccc;stroke-linecap:round;stroke-width:0.8;"/>
     </g>
     <g id="line2d_4"/>
     <g id="text_2">
      <!-- 4 -->
      <g style="fill:#262626;" transform="translate(250.947214 395.226875)scale(0.1 -0.1)">
       <defs>
        <path d="M 2753 997 
L 2753 0 
L 2222 0 
L 2222 997 
L 147 997 
L 147 1434 
L 2163 4403 
L 2753 4403 
L 2753 1441 
L 3372 1441 
L 3372 997 
L 2753 997 
z
M 2222 3769 
Q 2216 3753 2191 3708 
Q 2166 3663 2134 3606 
Q 2103 3550 2070 3492 
Q 2038 3434 2013 3397 
L 884 1734 
Q 869 1709 839 1668 
Q 809 1628 778 1586 
Q 747 1544 715 1503 
Q 684 1463 666 1441 
L 2222 1441 
L 2222 3769 
z
" id="LiberationSans-34" transform="scale(0.015625)"/>
       </defs>
       <use xlink:href="#LiberationSans-34"/>
      </g>
     </g>
    </g>
    <g id="xtick_3">
     <g id="line2d_5">
      <path clip-path="url(#p21f93249c8)" d="M 345.970627 384.48 
L 345.970627 51.84 
" style="fill:none;stroke:#cccccc;stroke-linecap:round;stroke-width:0.8;"/>
     </g>
     <g id="line2d_6"/>
     <g id="text_3">
      <!-- 6 -->
      <g style="fill:#262626;" transform="translate(343.190158 395.226875)scale(0.1 -0.1)">
       <defs>
        <path d="M 3278 1441 
Q 3278 1109 3186 832 
Q 3094 556 2914 357 
Q 2734 159 2468 48 
Q 2203 -63 1856 -63 
Q 1472 -63 1184 84 
Q 897 231 706 507 
Q 516 784 420 1186 
Q 325 1588 325 2100 
Q 325 2688 433 3131 
Q 541 3575 744 3872 
Q 947 4169 1239 4319 
Q 1531 4469 1900 4469 
Q 2125 4469 2322 4422 
Q 2519 4375 2680 4270 
Q 2841 4166 2962 3994 
Q 3084 3822 3156 3572 
L 2619 3475 
Q 2531 3759 2339 3886 
Q 2147 4013 1894 4013 
Q 1663 4013 1475 3903 
Q 1288 3794 1156 3576 
Q 1025 3359 954 3031 
Q 884 2703 884 2266 
Q 1038 2550 1316 2698 
Q 1594 2847 1953 2847 
Q 2253 2847 2497 2750 
Q 2741 2653 2914 2470 
Q 3088 2288 3183 2027 
Q 3278 1766 3278 1441 
z
M 2706 1416 
Q 2706 1644 2650 1828 
Q 2594 2013 2481 2142 
Q 2369 2272 2203 2342 
Q 2038 2413 1819 2413 
Q 1666 2413 1509 2367 
Q 1353 2322 1226 2220 
Q 1100 2119 1020 1953 
Q 941 1788 941 1550 
Q 941 1306 1003 1095 
Q 1066 884 1183 728 
Q 1300 572 1465 481 
Q 1631 391 1838 391 
Q 2041 391 2202 461 
Q 2363 531 2475 664 
Q 2588 797 2647 987 
Q 2706 1178 2706 1416 
z
" id="LiberationSans-36" transform="scale(0.015625)"/>
       </defs>
       <use xlink:href="#LiberationSans-36"/>
      </g>
     </g>
    </g>
    <g id="xtick_4">
     <g id="line2d_7">
      <path clip-path="url(#p21f93249c8)" d="M 438.21357 384.48 
L 438.21357 51.84 
" style="fill:none;stroke:#cccccc;stroke-linecap:round;stroke-width:0.8;"/>
     </g>
     <g id="line2d_8"/>
     <g id="text_4">
      <!-- 8 -->
      <g style="fill:#262626;" transform="translate(435.433102 395.226875)scale(0.1 -0.1)">
       <defs>
        <path d="M 3281 1228 
Q 3281 947 3192 711 
Q 3103 475 2920 303 
Q 2738 131 2453 34 
Q 2169 -63 1781 -63 
Q 1394 -63 1111 34 
Q 828 131 642 301 
Q 456 472 367 708 
Q 278 944 278 1222 
Q 278 1463 351 1650 
Q 425 1838 548 1973 
Q 672 2109 830 2192 
Q 988 2275 1156 2303 
L 1156 2316 
Q 972 2359 826 2456 
Q 681 2553 582 2689 
Q 484 2825 432 2990 
Q 381 3156 381 3341 
Q 381 3572 470 3776 
Q 559 3981 734 4136 
Q 909 4291 1168 4380 
Q 1428 4469 1769 4469 
Q 2128 4469 2392 4378 
Q 2656 4288 2829 4133 
Q 3003 3978 3087 3772 
Q 3172 3566 3172 3334 
Q 3172 3153 3120 2987 
Q 3069 2822 2970 2686 
Q 2872 2550 2726 2454 
Q 2581 2359 2391 2322 
L 2391 2309 
Q 2581 2278 2743 2195 
Q 2906 2113 3025 1977 
Q 3144 1841 3212 1653 
Q 3281 1466 3281 1228 
z
M 2588 3303 
Q 2588 3469 2545 3606 
Q 2503 3744 2406 3842 
Q 2309 3941 2153 3995 
Q 1997 4050 1769 4050 
Q 1547 4050 1394 3995 
Q 1241 3941 1142 3842 
Q 1044 3744 1000 3606 
Q 956 3469 956 3303 
Q 956 3172 990 3034 
Q 1025 2897 1115 2784 
Q 1206 2672 1365 2600 
Q 1525 2528 1775 2528 
Q 2041 2528 2202 2600 
Q 2363 2672 2448 2784 
Q 2534 2897 2561 3034 
Q 2588 3172 2588 3303 
z
M 2697 1281 
Q 2697 1441 2653 1589 
Q 2609 1738 2503 1852 
Q 2397 1966 2217 2036 
Q 2038 2106 1769 2106 
Q 1522 2106 1348 2036 
Q 1175 1966 1067 1850 
Q 959 1734 909 1582 
Q 859 1431 859 1269 
Q 859 1066 909 898 
Q 959 731 1068 611 
Q 1178 491 1356 425 
Q 1534 359 1788 359 
Q 2044 359 2219 425 
Q 2394 491 2500 611 
Q 2606 731 2651 901 
Q 2697 1072 2697 1281 
z
" id="LiberationSans-38" transform="scale(0.015625)"/>
       </defs>
       <use xlink:href="#LiberationSans-38"/>
      </g>
     </g>
    </g>
    <g id="xtick_5">
     <g id="line2d_9">
      <path clip-path="url(#p21f93249c8)" d="M 530.456514 384.48 
L 530.456514 51.84 
" style="fill:none;stroke:#cccccc;stroke-linecap:round;stroke-width:0.8;"/>
     </g>
     <g id="line2d_10"/>
     <g id="text_5">
      <!-- 10 -->
      <g style="fill:#262626;" transform="translate(524.895577 395.226875)scale(0.1 -0.1)">
       <defs>
        <path d="M 488 0 
L 488 478 
L 1609 478 
L 1609 3866 
L 616 3156 
L 616 3688 
L 1656 4403 
L 2175 4403 
L 2175 478 
L 3247 478 
L 3247 0 
L 488 0 
z
" id="LiberationSans-31" transform="scale(0.015625)"/>
        <path d="M 3309 2203 
Q 3309 1569 3189 1136 
Q 3069 703 2861 436 
Q 2653 169 2372 53 
Q 2091 -63 1772 -63 
Q 1450 -63 1172 53 
Q 894 169 689 434 
Q 484 700 367 1133 
Q 250 1566 250 2203 
Q 250 2869 367 3305 
Q 484 3741 690 4000 
Q 897 4259 1178 4364 
Q 1459 4469 1791 4469 
Q 2106 4469 2382 4364 
Q 2659 4259 2865 4000 
Q 3072 3741 3190 3305 
Q 3309 2869 3309 2203 
z
M 2738 2203 
Q 2738 2728 2675 3076 
Q 2613 3425 2491 3633 
Q 2369 3841 2192 3927 
Q 2016 4013 1791 4013 
Q 1553 4013 1372 3925 
Q 1191 3838 1067 3630 
Q 944 3422 881 3073 
Q 819 2725 819 2203 
Q 819 1697 883 1350 
Q 947 1003 1070 792 
Q 1194 581 1372 489 
Q 1550 397 1778 397 
Q 2000 397 2178 489 
Q 2356 581 2479 792 
Q 2603 1003 2670 1350 
Q 2738 1697 2738 2203 
z
" id="LiberationSans-30" transform="scale(0.015625)"/>
       </defs>
       <use xlink:href="#LiberationSans-31"/>
       <use x="55.615234" xlink:href="#LiberationSans-30"/>
      </g>
     </g>
    </g>
    <g id="xtick_6">
     <g id="line2d_11">
      <path clip-path="url(#p21f93249c8)" d="M 622.699458 384.48 
L 622.699458 51.84 
" style="fill:none;stroke:#cccccc;stroke-linecap:round;stroke-width:0.8;"/>
     </g>
     <g id="line2d_12"/>
     <g id="text_6">
      <!-- 12 -->
      <g style="fill:#262626;" transform="translate(617.13852 395.226875)scale(0.1 -0.1)">
       <use xlink:href="#LiberationSans-31"/>
       <use x="55.615234" xlink:href="#LiberationSans-32"/>
      </g>
     </g>
    </g>
    <g id="text_7">
     <!-- Hours -->
     <g style="fill:#262626;" transform="translate(355.663281 408.54875)scale(0.1 -0.1)">
      <defs>
       <path d="M 3503 0 
L 3503 2041 
L 1122 2041 
L 1122 0 
L 525 0 
L 525 4403 
L 1122 4403 
L 1122 2541 
L 3503 2541 
L 3503 4403 
L 4100 4403 
L 4100 0 
L 3503 0 
z
" id="LiberationSans-48" transform="scale(0.015625)"/>
       <path d="M 3291 1694 
Q 3291 806 2900 371 
Q 2509 -63 1766 -63 
Q 1413 -63 1134 43 
Q 856 150 664 369 
Q 472 588 370 917 
Q 269 1247 269 1694 
Q 269 3444 1784 3444 
Q 2178 3444 2464 3334 
Q 2750 3225 2933 3006 
Q 3116 2788 3203 2459 
Q 3291 2131 3291 1694 
z
M 2700 1694 
Q 2700 2088 2639 2344 
Q 2578 2600 2461 2753 
Q 2344 2906 2175 2967 
Q 2006 3028 1794 3028 
Q 1578 3028 1404 2964 
Q 1231 2900 1109 2745 
Q 988 2591 923 2334 
Q 859 2078 859 1694 
Q 859 1300 928 1042 
Q 997 784 1117 631 
Q 1238 478 1402 415 
Q 1566 353 1759 353 
Q 1975 353 2150 414 
Q 2325 475 2447 628 
Q 2569 781 2634 1040 
Q 2700 1300 2700 1694 
z
" id="LiberationSans-6f" transform="scale(0.015625)"/>
       <path d="M 981 3381 
L 981 1238 
Q 981 991 1017 825 
Q 1053 659 1134 557 
Q 1216 456 1348 414 
Q 1481 372 1678 372 
Q 1878 372 2039 442 
Q 2200 513 2314 645 
Q 2428 778 2490 973 
Q 2553 1169 2553 1422 
L 2553 3381 
L 3116 3381 
L 3116 722 
Q 3116 616 3117 498 
Q 3119 381 3122 276 
Q 3125 172 3128 97 
Q 3131 22 3134 0 
L 2603 0 
Q 2600 16 2597 84 
Q 2594 153 2589 242 
Q 2584 331 2581 423 
Q 2578 516 2578 578 
L 2569 578 
Q 2488 431 2391 312 
Q 2294 194 2166 111 
Q 2038 28 1872 -17 
Q 1706 -63 1488 -63 
Q 1206 -63 1003 6 
Q 800 75 669 219 
Q 538 363 477 588 
Q 416 813 416 1128 
L 416 3381 
L 981 3381 
z
" id="LiberationSans-75" transform="scale(0.015625)"/>
       <path d="M 444 0 
L 444 2594 
Q 444 2700 442 2811 
Q 441 2922 437 3025 
Q 434 3128 431 3218 
Q 428 3309 425 3381 
L 956 3381 
Q 959 3309 964 3217 
Q 969 3125 973 3028 
Q 978 2931 979 2842 
Q 981 2753 981 2691 
L 994 2691 
Q 1053 2884 1120 3026 
Q 1188 3169 1278 3261 
Q 1369 3353 1494 3398 
Q 1619 3444 1797 3444 
Q 1866 3444 1928 3433 
Q 1991 3422 2025 3413 
L 2025 2897 
Q 1969 2913 1894 2920 
Q 1819 2928 1725 2928 
Q 1531 2928 1395 2840 
Q 1259 2753 1173 2598 
Q 1088 2444 1047 2230 
Q 1006 2016 1006 1763 
L 1006 0 
L 444 0 
z
" id="LiberationSans-72" transform="scale(0.015625)"/>
       <path d="M 2969 934 
Q 2969 697 2876 511 
Q 2784 325 2609 198 
Q 2434 72 2179 4 
Q 1925 -63 1597 -63 
Q 1303 -63 1067 -17 
Q 831 28 653 128 
Q 475 228 354 392 
Q 234 556 178 794 
L 675 891 
Q 747 619 972 492 
Q 1197 366 1597 366 
Q 1778 366 1929 391 
Q 2081 416 2190 477 
Q 2300 538 2361 639 
Q 2422 741 2422 891 
Q 2422 1044 2350 1142 
Q 2278 1241 2150 1306 
Q 2022 1372 1839 1420 
Q 1656 1469 1438 1528 
Q 1234 1581 1034 1647 
Q 834 1713 673 1820 
Q 513 1928 413 2087 
Q 313 2247 313 2488 
Q 313 2950 642 3192 
Q 972 3434 1603 3434 
Q 2163 3434 2492 3237 
Q 2822 3041 2909 2606 
L 2403 2544 
Q 2375 2675 2300 2764 
Q 2225 2853 2119 2908 
Q 2013 2963 1880 2986 
Q 1747 3009 1603 3009 
Q 1222 3009 1040 2893 
Q 859 2778 859 2544 
Q 859 2406 926 2317 
Q 994 2228 1114 2167 
Q 1234 2106 1403 2061 
Q 1572 2016 1775 1966 
Q 1909 1931 2050 1892 
Q 2191 1853 2323 1798 
Q 2456 1744 2573 1670 
Q 2691 1597 2778 1494 
Q 2866 1391 2917 1253 
Q 2969 1116 2969 934 
z
" id="LiberationSans-73" transform="scale(0.015625)"/>
      </defs>
      <use xlink:href="#LiberationSans-48"/>
      <use x="72.216797" xlink:href="#LiberationSans-6f"/>
      <use x="127.832031" xlink:href="#LiberationSans-75"/>
      <use x="183.447266" xlink:href="#LiberationSans-72"/>
      <use x="216.748047" xlink:href="#LiberationSans-73"/>
     </g>
    </g>
   </g>
   <g id="matplotlib.axis_2">
    <g id="ytick_1">
     <g id="line2d_13">
      <path clip-path="url(#p21f93249c8)" d="M 90 373.640596 
L 648 373.640596 
" style="fill:none;stroke:#cccccc;stroke-linecap:round;stroke-width:0.8;"/>
     </g>
     <g id="line2d_14"/>
     <g id="text_8">
      <!-- 1.5 -->
      <g style="fill:#262626;" transform="translate(72.6 377.264034)scale(0.1 -0.1)">
       <defs>
        <path d="M 584 0 
L 584 684 
L 1194 684 
L 1194 0 
L 584 0 
z
" id="LiberationSans-2e" transform="scale(0.015625)"/>
        <path d="M 3291 1434 
Q 3291 1103 3191 828 
Q 3091 553 2894 354 
Q 2697 156 2405 46 
Q 2113 -63 1728 -63 
Q 1381 -63 1123 18 
Q 866 100 687 242 
Q 509 384 404 575 
Q 300 766 256 984 
L 825 1050 
Q 859 925 921 808 
Q 984 691 1092 598 
Q 1200 506 1358 451 
Q 1516 397 1741 397 
Q 1959 397 2137 464 
Q 2316 531 2442 662 
Q 2569 794 2637 984 
Q 2706 1175 2706 1422 
Q 2706 1625 2640 1795 
Q 2575 1966 2453 2089 
Q 2331 2213 2154 2281 
Q 1978 2350 1753 2350 
Q 1613 2350 1494 2325 
Q 1375 2300 1273 2256 
Q 1172 2213 1089 2155 
Q 1006 2097 934 2034 
L 384 2034 
L 531 4403 
L 3034 4403 
L 3034 3925 
L 1044 3925 
L 959 2528 
Q 1109 2644 1334 2726 
Q 1559 2809 1869 2809 
Q 2197 2809 2459 2709 
Q 2722 2609 2906 2426 
Q 3091 2244 3191 1991 
Q 3291 1738 3291 1434 
z
" id="LiberationSans-35" transform="scale(0.015625)"/>
       </defs>
       <use xlink:href="#LiberationSans-31"/>
       <use x="55.615234" xlink:href="#LiberationSans-2e"/>
       <use x="83.398438" xlink:href="#LiberationSans-35"/>
      </g>
     </g>
    </g>
    <g id="ytick_2">
     <g id="line2d_15">
      <path clip-path="url(#p21f93249c8)" d="M 90 331.233262 
L 648 331.233262 
" style="fill:none;stroke:#cccccc;stroke-linecap:round;stroke-width:0.8;"/>
     </g>
     <g id="line2d_16"/>
     <g id="text_9">
      <!-- 2.0 -->
      <g style="fill:#262626;" transform="translate(72.6 334.8567)scale(0.1 -0.1)">
       <use xlink:href="#LiberationSans-32"/>
       <use x="55.615234" xlink:href="#LiberationSans-2e"/>
       <use x="83.398438" xlink:href="#LiberationSans-30"/>
      </g>
     </g>
    </g>
    <g id="ytick_3">
     <g id="line2d_17">
      <path clip-path="url(#p21f93249c8)" d="M 90 288.825928 
L 648 288.825928 
" style="fill:none;stroke:#cccccc;stroke-linecap:round;stroke-width:0.8;"/>
     </g>
     <g id="line2d_18"/>
     <g id="text_10">
      <!-- 2.5 -->
      <g style="fill:#262626;" transform="translate(72.6 292.449365)scale(0.1 -0.1)">
       <use xlink:href="#LiberationSans-32"/>
       <use x="55.615234" xlink:href="#LiberationSans-2e"/>
       <use x="83.398438" xlink:href="#LiberationSans-35"/>
      </g>
     </g>
    </g>
    <g id="ytick_4">
     <g id="line2d_19">
      <path clip-path="url(#p21f93249c8)" d="M 90 246.418594 
L 648 246.418594 
" style="fill:none;stroke:#cccccc;stroke-linecap:round;stroke-width:0.8;"/>
     </g>
     <g id="line2d_20"/>
     <g id="text_11">
      <!-- 3.0 -->
      <g style="fill:#262626;" transform="translate(72.6 250.042031)scale(0.1 -0.1)">
       <defs>
        <path d="M 3278 1216 
Q 3278 913 3179 675 
Q 3081 438 2892 273 
Q 2703 109 2423 23 
Q 2144 -63 1784 -63 
Q 1375 -63 1095 39 
Q 816 141 634 308 
Q 453 475 362 689 
Q 272 903 244 1131 
L 825 1184 
Q 850 1009 917 865 
Q 984 722 1100 619 
Q 1216 516 1384 459 
Q 1553 403 1784 403 
Q 2209 403 2451 612 
Q 2694 822 2694 1234 
Q 2694 1478 2586 1626 
Q 2478 1775 2317 1858 
Q 2156 1941 1967 1969 
Q 1778 1997 1619 1997 
L 1300 1997 
L 1300 2484 
L 1606 2484 
Q 1766 2484 1937 2517 
Q 2109 2550 2251 2636 
Q 2394 2722 2486 2869 
Q 2578 3016 2578 3244 
Q 2578 3597 2370 3801 
Q 2163 4006 1753 4006 
Q 1381 4006 1151 3815 
Q 922 3625 884 3278 
L 319 3322 
Q 353 3613 478 3828 
Q 603 4044 795 4186 
Q 988 4328 1234 4398 
Q 1481 4469 1759 4469 
Q 2128 4469 2393 4376 
Q 2659 4284 2828 4126 
Q 2997 3969 3076 3756 
Q 3156 3544 3156 3303 
Q 3156 3109 3103 2940 
Q 3050 2772 2937 2637 
Q 2825 2503 2651 2406 
Q 2478 2309 2234 2259 
L 2234 2247 
Q 2500 2219 2697 2126 
Q 2894 2034 3022 1896 
Q 3150 1759 3214 1584 
Q 3278 1409 3278 1216 
z
" id="LiberationSans-33" transform="scale(0.015625)"/>
       </defs>
       <use xlink:href="#LiberationSans-33"/>
       <use x="55.615234" xlink:href="#LiberationSans-2e"/>
       <use x="83.398438" xlink:href="#LiberationSans-30"/>
      </g>
     </g>
    </g>
    <g id="ytick_5">
     <g id="line2d_21">
      <path clip-path="url(#p21f93249c8)" d="M 90 204.011259 
L 648 204.011259 
" style="fill:none;stroke:#cccccc;stroke-linecap:round;stroke-width:0.8;"/>
     </g>
     <g id="line2d_22"/>
     <g id="text_12">
      <!-- 3.5 -->
      <g style="fill:#262626;" transform="translate(72.6 207.634697)scale(0.1 -0.1)">
       <use xlink:href="#LiberationSans-33"/>
       <use x="55.615234" xlink:href="#LiberationSans-2e"/>
       <use x="83.398438" xlink:href="#LiberationSans-35"/>
      </g>
     </g>
    </g>
    <g id="ytick_6">
     <g id="line2d_23">
      <path clip-path="url(#p21f93249c8)" d="M 90 161.603925 
L 648 161.603925 
" style="fill:none;stroke:#cccccc;stroke-linecap:round;stroke-width:0.8;"/>
     </g>
     <g id="line2d_24"/>
     <g id="text_13">
      <!-- 4.0 -->
      <g style="fill:#262626;" transform="translate(72.6 165.227363)scale(0.1 -0.1)">
       <use xlink:href="#LiberationSans-34"/>
       <use x="55.615234" xlink:href="#LiberationSans-2e"/>
       <use x="83.398438" xlink:href="#LiberationSans-30"/>
      </g>
     </g>
    </g>
    <g id="ytick_7">
     <g id="line2d_25">
      <path clip-path="url(#p21f93249c8)" d="M 90 119.196591 
L 648 119.196591 
" style="fill:none;stroke:#cccccc;stroke-linecap:round;stroke-width:0.8;"/>
     </g>
     <g id="line2d_26"/>
     <g id="text_14">
      <!-- 4.5 -->
      <g style="fill:#262626;" transform="translate(72.6 122.820028)scale(0.1 -0.1)">
       <use xlink:href="#LiberationSans-34"/>
       <use x="55.615234" xlink:href="#LiberationSans-2e"/>
       <use x="83.398438" xlink:href="#LiberationSans-35"/>
      </g>
     </g>
    </g>
    <g id="ytick_8">
     <g id="line2d_27">
      <path clip-path="url(#p21f93249c8)" d="M 90 76.789257 
L 648 76.789257 
" style="fill:none;stroke:#cccccc;stroke-linecap:round;stroke-width:0.8;"/>
     </g>
     <g id="line2d_28"/>
     <g id="text_15">
      <!-- 5.0 -->
      <g style="fill:#262626;" transform="translate(72.6 80.412694)scale(0.1 -0.1)">
       <use xlink:href="#LiberationSans-35"/>
       <use x="55.615234" xlink:href="#LiberationSans-2e"/>
       <use x="83.398438" xlink:href="#LiberationSans-30"/>
      </g>
     </g>
    </g>
    <g id="text_16">
     <!-- RMSE (x0.01 Mag) -->
     <g style="fill:#262626;" transform="translate(66.525 260.670156)rotate(-90)scale(0.1 -0.1)">
      <defs>
       <path d="M 3638 0 
L 2494 1828 
L 1122 1828 
L 1122 0 
L 525 0 
L 525 4403 
L 2597 4403 
Q 2972 4403 3261 4317 
Q 3550 4231 3747 4068 
Q 3944 3906 4047 3672 
Q 4150 3438 4150 3144 
Q 4150 2934 4089 2731 
Q 4028 2528 3897 2359 
Q 3766 2191 3562 2069 
Q 3359 1947 3075 1897 
L 4325 0 
L 3638 0 
z
M 3550 3138 
Q 3550 3338 3481 3484 
Q 3413 3631 3281 3729 
Q 3150 3828 2962 3876 
Q 2775 3925 2538 3925 
L 1122 3925 
L 1122 2300 
L 2563 2300 
Q 2819 2300 3006 2364 
Q 3194 2428 3314 2540 
Q 3434 2653 3492 2806 
Q 3550 2959 3550 3138 
z
" id="LiberationSans-52" transform="scale(0.015625)"/>
       <path d="M 4269 0 
L 4269 2938 
Q 4269 3097 4272 3262 
Q 4275 3428 4281 3566 
Q 4288 3725 4297 3875 
Q 4253 3716 4206 3559 
Q 4166 3425 4117 3273 
Q 4069 3122 4022 3000 
L 2884 0 
L 2466 0 
L 1313 3000 
Q 1294 3047 1273 3109 
Q 1253 3172 1229 3242 
Q 1206 3313 1182 3386 
Q 1159 3459 1138 3531 
Q 1084 3697 1034 3875 
Q 1038 3700 1044 3528 
Q 1050 3381 1053 3220 
Q 1056 3059 1056 2938 
L 1056 0 
L 525 0 
L 525 4403 
L 1309 4403 
L 2481 1350 
Q 2503 1288 2534 1189 
Q 2566 1091 2594 987 
Q 2622 884 2645 792 
Q 2669 700 2678 650 
Q 2688 700 2713 794 
Q 2738 888 2770 991 
Q 2803 1094 2834 1191 
Q 2866 1288 2891 1350 
L 4041 4403 
L 4806 4403 
L 4806 0 
L 4269 0 
z
" id="LiberationSans-4d" transform="scale(0.015625)"/>
       <path d="M 3975 1216 
Q 3975 938 3867 703 
Q 3759 469 3534 298 
Q 3309 128 2967 32 
Q 2625 -63 2156 -63 
Q 1334 -63 875 225 
Q 416 513 291 1056 
L 869 1172 
Q 913 1000 1003 859 
Q 1094 719 1248 617 
Q 1403 516 1631 459 
Q 1859 403 2178 403 
Q 2444 403 2666 448 
Q 2888 494 3047 587 
Q 3206 681 3295 829 
Q 3384 978 3384 1184 
Q 3384 1400 3286 1534 
Q 3188 1669 3009 1756 
Q 2831 1844 2584 1903 
Q 2338 1963 2038 2031 
Q 1853 2072 1667 2120 
Q 1481 2169 1311 2236 
Q 1141 2303 991 2393 
Q 841 2484 731 2611 
Q 622 2738 559 2905 
Q 497 3072 497 3291 
Q 497 3603 623 3826 
Q 750 4050 975 4194 
Q 1200 4338 1506 4403 
Q 1813 4469 2169 4469 
Q 2578 4469 2868 4405 
Q 3159 4341 3359 4212 
Q 3559 4084 3679 3895 
Q 3800 3706 3872 3456 
L 3284 3353 
Q 3241 3513 3158 3638 
Q 3075 3763 2940 3847 
Q 2806 3931 2614 3975 
Q 2422 4019 2163 4019 
Q 1856 4019 1648 3964 
Q 1441 3909 1314 3815 
Q 1188 3722 1133 3595 
Q 1078 3469 1078 3322 
Q 1078 3125 1176 2998 
Q 1275 2872 1444 2787 
Q 1613 2703 1834 2647 
Q 2056 2591 2306 2534 
Q 2509 2488 2711 2439 
Q 2913 2391 3097 2323 
Q 3281 2256 3442 2165 
Q 3603 2075 3722 1944 
Q 3841 1813 3908 1634 
Q 3975 1456 3975 1216 
z
" id="LiberationSans-53" transform="scale(0.015625)"/>
       <path d="M 525 0 
L 525 4403 
L 3866 4403 
L 3866 3916 
L 1122 3916 
L 1122 2503 
L 3678 2503 
L 3678 2022 
L 1122 2022 
L 1122 488 
L 3994 488 
L 3994 0 
L 525 0 
z
" id="LiberationSans-45" transform="scale(0.015625)"/>
       <path id="LiberationSans-20" transform="scale(0.015625)"/>
       <path d="M 397 1663 
Q 397 2097 462 2494 
Q 528 2891 668 3256 
Q 809 3622 1028 3965 
Q 1247 4309 1550 4638 
L 2094 4638 
Q 1800 4309 1586 3964 
Q 1372 3619 1234 3251 
Q 1097 2884 1030 2487 
Q 963 2091 963 1656 
Q 963 1222 1030 825 
Q 1097 428 1234 59 
Q 1372 -309 1586 -653 
Q 1800 -997 2094 -1325 
L 1550 -1325 
Q 1247 -997 1028 -653 
Q 809 -309 668 56 
Q 528 422 462 817 
Q 397 1213 397 1650 
L 397 1663 
z
" id="LiberationSans-28" transform="scale(0.015625)"/>
       <path d="M 2503 0 
L 1594 1388 
L 678 0 
L 72 0 
L 1275 1738 
L 128 3381 
L 750 3381 
L 1594 2066 
L 2431 3381 
L 3059 3381 
L 1913 1744 
L 3131 0 
L 2503 0 
z
" id="LiberationSans-78" transform="scale(0.015625)"/>
       <path d="M 1294 -63 
Q 784 -63 528 206 
Q 272 475 272 944 
Q 272 1278 398 1492 
Q 525 1706 729 1828 
Q 934 1950 1196 1997 
Q 1459 2044 1731 2050 
L 2491 2063 
L 2491 2247 
Q 2491 2456 2447 2603 
Q 2403 2750 2312 2840 
Q 2222 2931 2086 2973 
Q 1950 3016 1766 3016 
Q 1603 3016 1472 2992 
Q 1341 2969 1244 2908 
Q 1147 2847 1087 2742 
Q 1028 2638 1009 2478 
L 422 2531 
Q 453 2731 540 2898 
Q 628 3066 789 3187 
Q 950 3309 1192 3376 
Q 1434 3444 1778 3444 
Q 2416 3444 2737 3151 
Q 3059 2859 3059 2306 
L 3059 850 
Q 3059 600 3125 473 
Q 3191 347 3375 347 
Q 3422 347 3469 353 
Q 3516 359 3559 369 
L 3559 19 
Q 3453 -6 3348 -18 
Q 3244 -31 3125 -31 
Q 2966 -31 2852 11 
Q 2738 53 2666 139 
Q 2594 225 2556 351 
Q 2519 478 2509 647 
L 2491 647 
Q 2400 484 2292 353 
Q 2184 222 2040 130 
Q 1897 38 1714 -12 
Q 1531 -63 1294 -63 
z
M 1422 359 
Q 1691 359 1892 457 
Q 2094 556 2226 709 
Q 2359 863 2425 1044 
Q 2491 1225 2491 1391 
L 2491 1669 
L 1875 1656 
Q 1669 1653 1483 1626 
Q 1297 1600 1156 1522 
Q 1016 1444 933 1303 
Q 850 1163 850 934 
Q 850 659 998 509 
Q 1147 359 1422 359 
z
" id="LiberationSans-61" transform="scale(0.015625)"/>
       <path d="M 1713 -1328 
Q 1422 -1328 1197 -1268 
Q 972 -1209 812 -1098 
Q 653 -988 553 -834 
Q 453 -681 409 -494 
L 975 -413 
Q 1031 -647 1223 -773 
Q 1416 -900 1728 -900 
Q 1919 -900 2075 -847 
Q 2231 -794 2340 -676 
Q 2450 -559 2509 -371 
Q 2569 -184 2569 84 
L 2569 628 
L 2563 628 
Q 2500 500 2408 383 
Q 2316 266 2183 175 
Q 2050 84 1875 29 
Q 1700 -25 1475 -25 
Q 1153 -25 923 83 
Q 694 191 548 406 
Q 403 622 336 942 
Q 269 1263 269 1684 
Q 269 2091 336 2416 
Q 403 2741 554 2967 
Q 706 3194 948 3314 
Q 1191 3434 1538 3434 
Q 1897 3434 2161 3270 
Q 2425 3106 2569 2803 
L 2575 2803 
Q 2575 2881 2579 2978 
Q 2584 3075 2589 3161 
Q 2594 3247 2600 3309 
Q 2606 3372 2613 3381 
L 3147 3381 
Q 3144 3353 3141 3286 
Q 3138 3219 3134 3125 
Q 3131 3031 3129 2917 
Q 3128 2803 3128 2681 
L 3128 97 
Q 3128 -613 2779 -970 
Q 2431 -1328 1713 -1328 
z
M 2569 1691 
Q 2569 2044 2492 2295 
Q 2416 2547 2291 2706 
Q 2166 2866 2005 2941 
Q 1844 3016 1675 3016 
Q 1459 3016 1304 2941 
Q 1150 2866 1048 2705 
Q 947 2544 898 2292 
Q 850 2041 850 1691 
Q 850 1325 898 1076 
Q 947 828 1047 675 
Q 1147 522 1300 456 
Q 1453 391 1666 391 
Q 1834 391 1995 462 
Q 2156 534 2284 690 
Q 2413 847 2491 1094 
Q 2569 1341 2569 1691 
z
" id="LiberationSans-67" transform="scale(0.015625)"/>
       <path d="M 1734 1650 
Q 1734 1213 1668 817 
Q 1603 422 1462 56 
Q 1322 -309 1103 -653 
Q 884 -997 581 -1325 
L 38 -1325 
Q 331 -997 545 -653 
Q 759 -309 896 59 
Q 1034 428 1101 825 
Q 1169 1222 1169 1656 
Q 1169 2091 1101 2487 
Q 1034 2884 896 3251 
Q 759 3619 545 3964 
Q 331 4309 38 4638 
L 581 4638 
Q 884 4309 1103 3965 
Q 1322 3622 1462 3256 
Q 1603 2891 1668 2494 
Q 1734 2097 1734 1663 
L 1734 1650 
z
" id="LiberationSans-29" transform="scale(0.015625)"/>
      </defs>
      <use xlink:href="#LiberationSans-52"/>
      <use x="72.216797" xlink:href="#LiberationSans-4d"/>
      <use x="155.517578" xlink:href="#LiberationSans-53"/>
      <use x="222.216797" xlink:href="#LiberationSans-45"/>
      <use x="288.916016" xlink:href="#LiberationSans-20"/>
      <use x="316.699219" xlink:href="#LiberationSans-28"/>
      <use x="350" xlink:href="#LiberationSans-78"/>
      <use x="400" xlink:href="#LiberationSans-30"/>
      <use x="455.615234" xlink:href="#LiberationSans-2e"/>
      <use x="483.398438" xlink:href="#LiberationSans-30"/>
      <use x="539.013672" xlink:href="#LiberationSans-31"/>
      <use x="594.628906" xlink:href="#LiberationSans-20"/>
      <use x="622.412109" xlink:href="#LiberationSans-4d"/>
      <use x="705.712891" xlink:href="#LiberationSans-61"/>
      <use x="761.328125" xlink:href="#LiberationSans-67"/>
      <use x="816.943359" xlink:href="#LiberationSans-29"/>
     </g>
    </g>
   </g>
   <g id="line2d_29">
    <path clip-path="url(#p21f93249c8)" d="M 115.363636 85.294048 
L 115.426731 86.20818 
L 115.489825 84.825107 
L 115.554026 80.622286 
L 115.680214 102.216101 
L 115.743308 87.635865 
L 115.807509 95.756955 
L 115.870604 87.904134 
L 116.060993 125.519524 
L 116.124087 99.256578 
L 116.187181 107.541868 
L 116.314477 80.425177 
L 116.377571 102.710316 
L 116.441772 83.720481 
L 116.504866 104.687176 
L 116.56796 91.830205 
L 116.631054 85.298288 
L 116.695255 87.941283 
L 116.75835 97.804381 
L 116.821444 75.706258 
L 116.885645 112.905293 
L 116.948739 86.665586 
L 117.011833 80.509822 
L 117.076034 106.411628 
L 117.139129 97.994026 
L 117.265317 114.395402 
L 117.455706 72.911021 
L 117.519907 78.522869 
L 117.646096 118.377027 
L 117.70919 77.275923 
L 117.773391 84.508579 
L 117.899579 86.890938 
L 118.153063 108.591365 
L 118.280358 96.75904 
L 118.343452 96.685421 
L 118.407654 94.639776 
L 118.470748 79.535301 
L 118.533842 81.479932 
L 118.661137 76.743542 
L 118.724231 74.113693 
L 118.787325 87.382863 
L 118.851527 83.677989 
L 118.914621 75.121716 
L 118.977715 80.191173 
L 119.041916 83.120502 
L 119.168104 77.197639 
L 119.2954 96.893471 
L 119.421588 75.182697 
L 119.485789 80.308557 
L 119.548883 76.510725 
L 119.611977 88.511322 
L 119.675072 84.997705 
L 119.739273 89.208753 
L 119.802367 88.774502 
L 119.992756 76.368746 
L 120.120052 87.50805 
L 120.183146 79.799669 
L 120.436629 110.964988 
L 120.499723 107.803776 
L 120.563925 108.325471 
L 120.627019 104.775129 
L 120.817408 86.536667 
L 120.880502 86.725804 
L 120.943597 89.364643 
L 121.007798 75.655794 
L 121.070892 82.757071 
L 121.133986 85.741106 
L 121.198187 71.424305 
L 121.261281 81.305129 
L 121.451671 87.879877 
L 121.705154 66.96 
L 121.831343 76.679167 
L 121.895544 75.052507 
L 122.021732 107.743388 
L 122.085933 85.060807 
L 122.149027 91.441076 
L 122.212121 85.128405 
L 122.275216 87.739255 
L 122.339417 89.787444 
L 122.402511 87.021468 
L 122.465605 94.896001 
L 122.5929 80.193209 
L 122.655995 80.491163 
L 122.78329 89.783203 
L 122.909478 104.939584 
L 122.973679 101.093409 
L 123.036773 109.232564 
L 123.099868 107.170719 
L 123.164069 104.052084 
L 123.227163 106.659796 
L 123.353351 96.064662 
L 123.417552 101.156511 
L 123.480646 98.2349 
L 123.607942 88.496056 
L 123.671036 92.181253 
L 123.797224 79.27721 
L 123.861425 79.278313 
L 123.924519 74.344559 
L 123.987614 80.195159 
L 124.051815 77.589483 
L 124.241097 70.479045 
L 124.368393 81.810455 
L 124.431487 74.857857 
L 124.495688 74.882199 
L 124.621876 84.596532 
L 124.749171 76.132706 
L 124.87536 92.719317 
L 125.065749 77.22232 
L 125.193044 90.405234 
L 125.256139 86.856588 
L 125.319233 88.061211 
L 125.383434 96.315459 
L 125.509622 79.803655 
L 126.143885 113.281955 
L 126.27118 126.041389 
L 126.587758 78.334326 
L 126.715053 86.262631 
L 126.778147 84.858185 
L 126.968537 73.674608 
L 127.031631 72.162193 
L 127.095832 74.62097 
L 127.285114 93.964651 
L 127.41241 76.734891 
L 127.475504 78.010334 
L 127.602799 74.471781 
L 127.730094 79.083748 
L 127.793189 77.922381 
L 127.856283 79.444719 
L 127.919377 79.221148 
L 127.983578 77.930268 
L 128.046672 77.944687 
L 128.36325 99.210099 
L 128.553639 86.408682 
L 128.61784 86.044912 
L 128.744029 95.254682 
L 128.871324 84.172967 
L 129.061714 90.107959 
L 129.124808 86.646333 
L 129.187902 90.202442 
L 129.315197 105.303779 
L 129.568681 89.050489 
L 129.631775 92.131212 
L 129.695976 95.971027 
L 129.822164 88.712079 
L 129.885259 93.298008 
L 129.94946 87.465727 
L 130.012554 91.226494 
L 130.075648 93.600627 
L 130.139849 87.849174 
L 130.202943 92.389982 
L 130.266037 90.815058 
L 130.330238 88.124313 
L 130.393333 88.702325 
L 130.456427 89.976496 
L 130.70991 76.005908 
L 130.774112 76.445164 
L 130.9003 85.904713 
L 130.963394 74.454733 
L 131.027595 76.972202 
L 131.281079 96.571006 
L 131.344173 86.099278 
L 131.471468 101.049899 
L 131.597657 87.554613 
L 131.724952 103.974054 
L 131.788046 93.702319 
L 131.915341 113.59348 
L 131.978435 101.024794 
L 132.04153 101.793808 
L 132.105731 104.285239 
L 132.231919 91.858873 
L 132.29612 95.131955 
L 132.359214 85.467918 
L 132.422308 86.028882 
L 132.485403 96.921884 
L 132.549604 92.44104 
L 132.675792 80.675465 
L 132.739993 85.1396 
L 132.803087 80.75553 
L 132.866181 81.772967 
L 133.183866 110.53871 
L 133.310055 88.229398 
L 133.43735 94.403313 
L 133.500444 93.666952 
L 133.627739 101.556327 
L 133.753928 97.056146 
L 133.818129 100.99901 
L 134.197801 79.599845 
L 134.262002 86.034649 
L 134.325096 82.918219 
L 134.38819 79.891353 
L 134.515485 84.822224 
L 134.578579 78.748136 
L 134.641674 81.095213 
L 134.705875 91.192484 
L 134.768969 90.971966 
L 134.832063 86.379506 
L 134.959358 99.572258 
L 135.022453 96.742077 
L 135.149748 83.172833 
L 135.403231 108.939614 
L 135.466326 105.993916 
L 135.52942 106.50662 
L 135.656715 127.449991 
L 136.037494 92.668598 
L 136.100588 93.646342 
L 136.290977 82.904818 
L 136.354072 84.131323 
L 136.481367 78.109567 
L 136.544461 80.833729 
L 136.671756 86.570339 
L 136.734851 86.347276 
L 136.797945 87.83272 
L 136.862146 87.79642 
L 136.988334 77.305608 
L 137.051428 77.479054 
L 137.178724 76.293006 
L 137.306019 85.808788 
L 137.369113 85.319068 
L 137.432207 85.055125 
L 137.685691 101.057108 
L 137.749892 102.466049 
L 137.939174 89.103498 
L 138.003375 90.360028 
L 138.06647 94.493301 
L 138.129564 92.734414 
L 138.256859 83.456029 
L 138.319953 84.006646 
L 138.384154 82.267606 
L 138.510343 75.339774 
L 138.573437 75.918465 
L 138.637638 76.705545 
L 138.891122 87.606604 
L 139.01731 81.607324 
L 139.081511 81.749982 
L 139.334995 95.565613 
L 139.651572 129.657887 
L 140.032351 105.824456 
L 140.095445 110.826995 
L 140.159647 115.659565 
L 140.60352 88.778828 
L 140.666614 87.538668 
L 140.983192 94.928231 
L 141.047393 94.150395 
L 141.300876 80.077267 
L 141.36397 79.318176 
L 141.55436 68.639585 
L 141.681655 72.503656 
L 141.807843 86.679326 
L 141.872045 81.093007 
L 141.998233 76.21803 
L 142.251717 89.210535 
L 142.315918 89.275418 
L 142.442106 89.660392 
L 142.69559 95.457898 
L 143.013274 78.14926 
L 143.076368 78.201167 
L 143.329852 87.469544 
L 143.394053 86.353468 
L 143.457147 82.507122 
L 143.520241 82.537232 
L 143.583336 83.00931 
L 143.710631 78.918868 
L 143.773725 79.464651 
L 144.154504 105.285204 
L 144.281799 105.151112 
L 144.407988 109.072264 
L 144.472189 108.134807 
L 144.535283 105.720303 
L 144.598377 107.155537 
L 144.661471 108.325216 
L 144.851861 103.180952 
L 144.979156 100.837353 
L 145.105344 107.57325 
L 145.169545 111.887687 
L 145.232639 110.290287 
L 145.613418 84.938844 
L 145.676513 83.580537 
L 145.803808 86.903406 
L 145.929996 91.333361 
L 146.373869 75.200508 
L 146.43807 76.653638 
L 146.627353 84.061521 
L 146.754648 78.71913 
L 146.945037 71.579855 
L 147.072333 70.807787 
L 147.198521 73.800049 
L 147.388911 77.521038 
L 147.642394 80.392693 
L 147.832784 92.015865 
L 147.960079 92.998103 
L 148.023173 92.849084 
L 148.149361 90.71591 
L 148.276657 88.271212 
L 148.339751 88.525995 
L 148.53014 93.977628 
L 148.657435 98.016587 
L 148.72053 97.90336 
L 148.847825 95.393269 
L 148.910919 95.934472 
L 148.974013 96.482714 
L 149.291698 85.656037 
L 149.354792 86.294691 
L 149.417886 86.691963 
L 149.482087 86.555157 
L 149.735571 85.870278 
L 149.798665 86.21717 
L 149.92596 89.358875 
L 150.305632 102.056649 
L 150.369834 102.460791 
L 150.432928 102.376824 
L 150.623317 99.325871 
L 151.383768 84.937063 
L 151.574157 84.075515 
L 151.764547 76.130247 
L 151.827641 76.145853 
L 152.145326 83.134581 
L 152.271514 79.857682 
L 152.461903 75.155726 
L 152.526105 75.142326 
L 152.652293 77.543853 
L 152.715387 77.531131 
L 152.842682 75.866388 
L 153.033072 71.803426 
L 153.096166 72.607809 
L 153.60424 94.845536 
L 153.667334 94.450554 
L 153.730428 94.213073 
L 154.427785 118.57685 
L 154.871658 136.050283 
L 154.935859 137.013863 
L 154.998953 136.987231 
L 155.126249 129.629728 
L 155.442826 112.66671 
L 155.633216 108.869048 
L 155.69631 108.987449 
L 155.886699 110.207678 
L 156.013995 108.154569 
L 156.457868 91.129721 
L 156.520962 91.309443 
L 156.584056 91.584497 
L 156.648257 91.407065 
L 156.711351 91.171535 
L 156.774446 91.598067 
L 156.901741 94.101881 
L 156.964835 93.903754 
L 157.09213 92.824148 
L 157.345614 98.558468 
L 157.471802 96.652513 
L 157.852581 86.972954 
L 157.915675 88.016768 
L 158.170266 93.1964 
L 158.486844 100.460013 
L 158.549938 100.431854 
L 158.740327 86.765497 
L 158.993811 78.752038 
L 159.058012 77.817974 
L 159.121106 78.386656 
L 159.311495 81.184777 
L 159.437684 79.62512 
L 159.564979 77.744694 
L 159.628073 78.214482 
L 159.692274 79.329117 
L 159.755369 79.103086 
L 159.818463 78.589703 
L 160.008852 81.328792 
L 160.071946 80.43722 
L 160.136147 80.513893 
L 160.58002 93.884416 
L 160.706209 97.599129 
L 160.896598 112.787231 
L 161.150082 130.089339 
L 161.214283 131.589541 
L 161.277377 131.493022 
L 161.530861 125.744538 
L 161.593955 126.109411 
L 161.72125 129.794184 
L 162.165123 153.158589 
L 162.228217 152.988875 
L 162.291312 153.477577 
L 162.481701 162.144704 
L 162.608996 166.479581 
L 162.67209 166.459565 
L 162.86248 161.150506 
L 163.180165 150.718217 
L 163.243259 150.738488 
L 163.306353 151.285797 
L 163.369447 150.807781 
L 163.496742 145.398132 
L 164.131005 100.974668 
L 164.384488 90.733891 
L 164.637972 81.141097 
L 164.702173 81.371115 
L 164.828361 84.703822 
L 164.955657 89.595424 
L 165.018751 89.438092 
L 165.335329 83.620824 
L 165.462624 82.875812 
L 165.525718 83.289962 
L 165.653013 87.56301 
L 166.096886 107.698775 
L 166.413464 103.288243 
L 166.603854 99.893621 
L 166.731149 99.757832 
L 166.858444 99.202296 
L 166.921538 99.351655 
L 166.984633 99.314591 
L 167.365411 94.380073 
L 167.681989 90.328731 
L 168.125862 75.939753 
L 168.253157 80.7853 
L 168.633936 98.369331 
L 168.760125 100.295133 
L 168.88742 98.652188 
L 169.013608 97.687591 
L 169.140904 99.563776 
L 169.83826 117.530576 
L 170.346334 147.715269 
L 170.599818 145.717629 
L 170.790207 148.693352 
L 171.931437 178.0377 
L 171.994531 177.424236 
L 172.121827 172.960779 
L 173.072667 116.169895 
L 174.278098 69.818594 
L 174.404286 71.87255 
L 174.65777 84.340816 
L 174.91236 92.985805 
L 175.165844 95.379699 
L 175.419327 97.001101 
L 175.545516 96.289082 
L 175.8632 92.846624 
L 175.926295 92.997679 
L 176.05359 95.056046 
L 176.243979 103.361099 
L 176.878242 139.660589 
L 176.941336 139.369421 
L 177.765988 120.898991 
L 178.14566 106.383893 
L 178.209861 107.194976 
L 178.589533 112.781209 
L 179.097607 107.528467 
L 179.223795 108.338193 
L 179.478386 110.097758 
L 179.54148 110.321414 
L 179.667668 112.418457 
L 179.922259 116.502623 
L 180.111541 115.3734 
L 180.238837 117.547709 
L 180.745804 131.890294 
L 181.126583 138.152754 
L 181.189677 138.34681 
L 181.253878 138.173873 
L 181.380066 136.788001 
L 181.760845 131.842458 
L 181.88814 132.211063 
L 182.07853 134.585704 
L 182.585497 142.345313 
L 183.21976 146.360524 
L 183.282854 145.742395 
L 183.473243 136.591401 
L 183.854022 119.10338 
L 184.867957 92.160728 
L 184.995252 91.884911 
L 185.058346 91.91044 
L 185.185641 91.995679 
L 185.31183 90.838467 
L 185.502219 85.339084 
L 185.946092 70.646809 
L 186.010293 70.847989 
L 186.136481 72.896603 
L 186.70765 87.61763 
L 186.770744 87.526709 
L 187.024228 86.177647 
L 187.151523 87.55139 
L 187.341912 92.65647 
L 188.292753 137.312071 
L 188.990109 176.498908 
L 189.180499 178.499346 
L 189.243593 178.213606 
L 189.433982 173.081979 
L 189.624372 169.849014 
L 189.687466 170.031026 
L 189.942056 173.280954 
L 190.385929 181.164987 
L 190.512118 180.462806 
L 191.083286 171.586188 
L 191.273675 171.654887 
L 191.399864 169.511621 
L 191.843737 151.542616 
L 192.351811 132.235489 
L 193.049168 116.851974 
L 193.239557 115.495194 
L 193.429947 115.318186 
L 193.746524 115.406987 
L 194.064209 115.808245 
L 194.761566 114.501251 
L 195.015049 112.430501 
L 195.268533 108.258722 
L 195.586218 103.798658 
L 196.156279 98.056704 
L 196.409763 96.671427 
L 196.537058 96.919594 
L 197.108226 99.488885 
L 197.234415 99.449955 
L 197.36171 99.945782 
L 197.552099 102.855518 
L 197.931771 108.667613 
L 198.186362 110.322178 
L 198.31255 109.591754 
L 198.566034 104.99887 
L 199.327591 85.786906 
L 199.897653 80.881734 
L 200.024948 81.78306 
L 200.342633 85.933381 
L 200.405727 85.918284 
L 200.531915 84.477198 
L 200.8496 79.623084 
L 200.912694 79.739789 
L 201.039989 81.35958 
L 201.230379 88.23118 
L 202.053924 131.537549 
L 202.497797 136.773244 
L 203.005871 152.925179 
L 203.449744 159.260241 
L 203.893617 182.318721 
L 204.147101 198.783962 
L 204.52788 221.671454 
L 205.034847 240.014747 
L 205.669109 277.566102 
L 205.922593 284.359333 
L 205.985687 284.640324 
L 206.112982 282.507998 
L 206.303372 272.004211 
L 206.87454 233.810724 
L 207.381507 210.31494 
L 208.206159 159.396878 
L 208.522737 151.814955 
L 210.551713 122.478155 
L 210.869397 115.945984 
L 211.122881 112.796731 
L 211.376365 104.574797 
L 211.947533 84.138617 
L 212.137922 82.595754 
L 212.264111 83.337119 
L 212.64489 86.500197 
L 213.025669 88.19666 
L 213.088763 88.095561 
L 213.216058 87.237321 
L 213.469542 83.378932 
L 213.913415 76.294194 
L 213.976509 76.348136 
L 214.103804 77.373206 
L 215.308128 94.270662 
L 215.816202 105.259081 
L 215.879296 105.353904 
L 216.006592 104.037072 
L 216.260075 96.790252 
L 216.703948 84.129797 
L 216.957432 82.000524 
L 217.020526 82.102217 
L 217.147821 83.097263 
L 217.401305 87.765802 
L 217.717883 93.071722 
L 217.782084 93.195382 
L 217.908272 92.317211 
L 218.352145 86.815877 
L 218.416346 86.919945 
L 218.542535 88.130759 
L 218.796018 93.872797 
L 219.557576 114.135785 
L 219.811059 116.201107 
L 220.191838 117.242291 
L 220.445322 119.990032 
L 220.7619 125.595603 
L 221.079584 136.672229 
L 221.649646 158.685283 
L 221.904236 162.849853 
L 222.15772 171.85259 
L 222.664687 191.58625 
L 222.855077 192.926661 
L 222.918171 192.966015 
L 222.982372 193.358961 
L 223.10856 196.616353 
L 223.362044 213.077863 
L 223.933212 248.170441 
L 224.313991 258.490859 
L 224.567475 266.329092 
L 224.820958 282.825545 
L 225.455221 330.780437 
L 225.708704 334.83127 
L 225.836 334.932878 
L 225.962188 335.01413 
L 226.089483 335.742604 
L 226.406061 338.531819 
L 226.470262 338.168388 
L 226.59645 335.463903 
L 226.849934 322.911247 
L 227.864975 266.861812 
L 228.245754 240.704375 
L 229.1335 170.764079 
L 229.640468 151.513694 
L 230.084341 141.883073 
L 230.211636 141.099809 
L 230.27473 141.268845 
L 230.402025 142.848942 
L 230.718603 152.05091 
L 231.036288 158.744653 
L 231.099382 158.641094 
L 231.226677 156.659145 
L 231.480161 146.798253 
L 232.494095 98.912145 
L 232.874874 90.696572 
L 233.192559 88.119988 
L 233.446042 86.363645 
L 234.016104 79.181285 
L 234.080305 79.236754 
L 234.206493 80.057675 
L 234.459977 83.633461 
L 235.094239 92.78242 
L 235.221535 92.984363 
L 235.347723 92.536627 
L 235.792703 90.087603 
L 235.855797 90.124922 
L 235.981985 90.605566 
L 236.29967 93.287067 
L 237.060121 99.796338 
L 237.187416 100.01499 
L 237.25051 99.978181 
L 237.694383 99.194154 
L 237.821679 99.531632 
L 238.012068 100.84134 
L 238.265552 104.290328 
L 238.709425 114.309315 
L 239.660265 137.325302 
L 240.421823 144.204026 
L 240.484917 144.117346 
L 240.612212 142.970227 
L 240.802602 138.584291 
L 241.563053 116.179394 
L 241.753442 115.309535 
L 241.880737 115.650574 
L 242.387704 118.184498 
L 242.513893 117.602839 
L 242.768483 114.474195 
L 243.148155 110.229984 
L 243.212356 110.096231 
L 243.275451 110.138724 
L 243.46584 110.944633 
L 243.656229 111.589054 
L 243.719324 111.519846 
L 243.846619 110.835985 
L 244.479774 105.55941 
L 244.60707 106.317399 
L 244.797459 109.637723 
L 245.114037 120.609094 
L 245.748299 143.346465 
L 246.065984 147.927305 
L 246.446763 150.343082 
L 246.763341 151.933442 
L 246.95373 155.102542 
L 248.09496 183.863535 
L 248.666128 197.901126 
L 249.553874 226.68468 
L 250.188137 244.791509 
L 250.948588 260.816223 
L 252.026723 282.149317 
L 252.97867 302.299332 
L 253.167953 303.103205 
L 253.295248 302.497459 
L 253.485637 299.959041 
L 253.992605 288.220606 
L 256.339265 231.1651 
L 257.544696 195.831478 
L 257.924368 183.22259 
L 258.305147 161.028967 
L 259.066705 115.921218 
L 259.446376 104.910408 
L 259.827155 99.745534 
L 260.14484 98.043473 
L 260.588713 96.132684 
L 260.968385 94.496609 
L 261.158775 94.353696 
L 261.28607 94.553859 
L 261.476459 95.35892 
L 262.23691 99.783786 
L 262.617689 99.551054 
L 262.808078 100.036873 
L 263.505435 102.963233 
L 263.949308 106.553777 
L 264.265886 108.427588 
L 264.456275 108.689411 
L 264.900148 108.677112 
L 265.154739 109.210597 
L 265.534411 110.040848 
L 265.661706 110.061882 
L 265.789001 109.848742 
L 265.978284 108.966246 
L 266.612546 104.464198 
L 266.676747 104.643836 
L 266.86603 106.608992 
L 267.183715 113.896692 
L 267.817977 129.48953 
L 268.134555 132.924099 
L 268.45224 134.132369 
L 268.705723 134.334992 
L 268.896113 134.496733 
L 269.086502 135.204936 
L 269.339986 137.5046 
L 269.846953 141.973994 
L 270.988183 148.612269 
L 271.686646 153.52448 
L 272.003224 154.179843 
L 272.256708 154.675754 
L 272.510191 155.902344 
L 272.827876 158.708352 
L 273.399044 166.209107 
L 274.096401 178.469576 
L 274.730663 189.359017 
L 274.793757 189.485051 
L 274.919946 188.685334 
L 275.110335 184.680131 
L 275.491114 169.632482 
L 275.998081 151.517341 
L 276.37886 145.261411 
L 277.330807 135.969879 
L 277.647385 133.365645 
L 277.710479 133.342151 
L 277.837775 133.835263 
L 278.091258 136.633723 
L 279.676361 162.623991 
L 280.120234 175.192253 
L 281.135275 206.216356 
L 281.388759 208.80244 
L 281.516054 209.164259 
L 281.579148 209.143649 
L 281.706444 208.73849 
L 281.959927 206.661548 
L 282.657284 199.74805 
L 282.784579 200.341159 
L 283.038063 203.321207 
L 283.925809 214.819362 
L 285.257428 229.411556 
L 285.510912 230.013401 
L 285.638207 229.978627 
L 285.828596 229.611634 
L 286.525953 227.817465 
L 286.652141 227.853172 
L 286.842531 228.264777 
L 287.097121 229.489331 
L 287.540994 233.128305 
L 288.42874 240.900466 
L 288.682224 241.673043 
L 288.808412 241.613334 
L 288.998802 240.931933 
L 289.252285 238.85533 
L 289.56997 234.06169 
L 290.7112 214.24364 
L 291.091979 210.50696 
L 291.408556 209.030422 
L 291.85243 208.081091 
L 292.677081 206.60786 
L 292.994766 205.360576 
L 293.311344 203.0431 
L 294.389479 193.319946 
L 294.770258 191.886409 
L 294.896447 191.811772 
L 295.086836 192.091067 
L 295.467615 192.679511 
L 295.59491 192.493936 
L 295.784193 191.603382 
L 296.101877 188.465664 
L 296.926529 176.495176 
L 297.496591 165.490727 
L 298.955505 135.055747 
L 299.843251 121.573861 
L 300.540608 113.887362 
L 301.999522 100.458826 
L 302.950363 88.380029 
L 303.268047 86.68399 
L 303.458437 86.443371 
L 303.584625 86.591458 
L 303.775015 87.248602 
L 304.092699 89.415871 
L 304.536572 94.399072 
L 305.170835 104.497785 
L 305.931286 121.129772 
L 306.755937 138.059712 
L 308.087557 162.044283 
L 308.721819 179.89828 
L 311.385057 263.322327 
L 311.956226 274.64729 
L 312.272803 277.662706 
L 312.463193 278.012482 
L 312.590488 277.617754 
L 312.780878 276.096773 
L 313.097455 271.109501 
L 313.478234 261.017234 
L 314.048296 238.807834 
L 315.824895 166.349645 
L 316.522251 147.991341 
L 317.092313 138.514913 
L 317.600387 133.677169 
L 318.107354 130.810518 
L 318.425039 129.872722 
L 318.614321 129.690795 
L 318.804711 129.829721 
L 319.058194 130.525371 
L 319.438973 132.440741 
L 320.010142 135.140307 
L 320.200531 135.400349 
L 320.326719 135.342335 
L 320.517109 134.937006 
L 320.834793 133.634507 
L 321.658338 130.043963 
L 321.912929 129.735492 
L 322.102212 129.855674 
L 322.356802 130.448699 
L 322.736474 132.07256 
L 323.244548 135.361079 
L 323.688421 139.714107 
L 324.195388 147.152948 
L 324.892745 161.415891 
L 326.224364 189.582673 
L 326.605143 193.33199 
L 326.922828 194.557816 
L 327.176311 194.815144 
L 327.55709 195.090877 
L 327.810574 195.655573 
L 328.190246 197.265694 
L 328.69832 200.580506 
L 329.395677 206.896485 
L 330.854591 220.969952 
L 331.171169 222.195185 
L 331.361558 222.290941 
L 331.551948 221.934126 
L 331.932727 220.331976 
L 332.3766 218.587763 
L 332.566989 218.43586 
L 332.693177 218.643995 
L 332.883567 219.484508 
L 333.201251 222.310618 
L 333.771313 230.329845 
L 334.532871 240.151044 
L 335.86449 255.938531 
L 336.942625 271.02053 
L 337.639982 283.8574 
L 338.844306 307.893029 
L 339.415474 314.296367 
L 340.240126 320.611836 
L 341.127872 327.738643 
L 342.586787 340.836148 
L 342.777176 341.200343 
L 342.903364 341.040552 
L 343.093754 340.085284 
L 343.347237 337.252729 
L 343.664922 330.834039 
L 344.108795 316.320044 
L 344.996541 276.207965 
L 345.756992 246.377289 
L 346.32816 231.941493 
L 346.835128 223.974342 
L 347.659779 215.34674 
L 349.625661 194.815144 
L 351.210764 171.150579 
L 351.591543 169.347928 
L 352.035416 167.414408 
L 352.3531 164.859451 
L 352.860068 158.377236 
L 355.269822 123.749782 
L 356.220663 114.632374 
L 356.728737 111.558945 
L 357.17261 110.13601 
L 357.806872 109.058694 
L 358.376934 107.852884 
L 359.391975 105.6142 
L 359.835848 105.164428 
L 360.153533 105.13381 
L 360.407016 105.32583 
L 360.723594 105.890951 
L 361.104373 107.084378 
L 361.738635 110.000476 
L 362.435992 112.916743 
L 362.75257 113.565406 
L 363.00716 113.696869 
L 363.260644 113.506969 
L 363.577222 112.892656 
L 364.085296 111.286945 
L 365.036136 107.273345 
L 365.733493 104.732043 
L 366.051178 104.173114 
L 366.24046 104.12265 
L 366.43085 104.328749 
L 366.68544 105.055526 
L 367.002018 106.769206 
L 367.445891 110.778735 
L 368.017059 118.634185 
L 368.77751 132.811635 
L 370.870687 173.946919 
L 372.709273 205.170337 
L 373.470831 224.655828 
L 375.246323 272.005737 
L 376.197163 290.22766 
L 376.958721 300.998444 
L 377.465688 305.508125 
L 377.972656 308.110833 
L 378.606918 311.064758 
L 378.987697 314.1141 
L 379.43157 319.575231 
L 380.065832 330.681034 
L 381.841325 364.613602 
L 382.285198 368.248165 
L 382.602882 369.281292 
L 382.793272 369.329976 
L 382.983661 368.966121 
L 383.237145 367.848263 
L 383.616817 364.845994 
L 384.124891 358.603804 
L 385.012637 343.954953 
L 386.281162 323.794337 
L 387.422392 305.291339 
L 388.563621 282.119886 
L 389.895241 255.407591 
L 390.592597 245.819548 
L 391.100671 241.625971 
L 392.051512 235.015431 
L 392.432291 229.930452 
L 392.939258 219.699853 
L 393.700815 199.05927 
L 395.222824 157.307893 
L 395.920181 143.688692 
L 396.491349 136.172077 
L 396.998316 132.161276 
L 397.379095 130.599754 
L 397.695673 130.093919 
L 397.886062 130.088491 
L 398.139546 130.386105 
L 398.457231 131.193965 
L 398.901104 133.047844 
L 399.471165 136.561207 
L 400.105428 141.8455 
L 400.930079 150.616779 
L 402.008215 164.671163 
L 403.657519 186.700925 
L 404.22758 191.434347 
L 404.735654 194.060294 
L 405.496105 196.695485 
L 406.193462 199.408791 
L 406.76463 202.579503 
L 407.461987 207.919774 
L 408.349733 216.804704 
L 410.315614 237.464964 
L 410.886783 241.011998 
L 411.203361 241.981005 
L 411.39375 242.153688 
L 411.584139 241.997459 
L 411.837623 241.26483 
L 412.155308 239.528844 
L 412.662275 235.16021 
L 414.628157 216.00558 
L 415.07203 213.897681 
L 415.452809 213.017305 
L 415.706292 212.897207 
L 415.896682 213.037915 
L 416.213259 213.669106 
L 416.657132 215.234276 
L 417.41869 218.93686 
L 418.116047 221.912837 
L 418.433731 222.55658 
L 418.623014 222.631641 
L 418.813403 222.460994 
L 419.066887 221.87959 
L 419.51076 220.189488 
L 420.145023 217.845465 
L 420.399613 217.481101 
L 420.588896 217.560403 
L 420.779285 217.986088 
L 421.032769 219.125064 
L 421.413548 222.02369 
L 422.745167 235.616343 
L 425.154921 259.308048 
L 426.106869 267.877468 
L 427.057709 278.729675 
L 428.07275 292.940457 
L 429.087791 306.394778 
L 429.720947 312.208484 
L 430.672894 318.432269 
L 433.336132 334.356053 
L 433.716911 335.323958 
L 434.033489 335.633956 
L 434.286973 335.555163 
L 434.541563 335.182148 
L 434.858141 334.297446 
L 435.302014 332.274193 
L 435.808981 328.840301 
L 436.443244 322.891485 
L 437.204802 313.647195 
L 443.419024 231.549904 
L 445.195623 212.101561 
L 446.653431 191.364629 
L 447.224599 178.497396 
L 449.190481 129.826668 
L 449.761649 122.270359 
L 450.459006 115.925883 
L 451.283658 110.392574 
L 452.297592 105.104125 
L 453.249539 101.05838 
L 453.756506 99.799646 
L 455.15122 96.782703 
L 455.468904 96.557775 
L 455.722388 96.658365 
L 456.040073 97.153513 
L 456.483946 98.429889 
L 457.181302 101.305954 
L 458.069049 105.97356 
L 459.400668 113.338018 
L 459.971836 115.253727 
L 460.795381 117.132456 
L 461.556939 119.017123 
L 462.444685 121.878092 
L 463.205136 125.029381 
L 463.776304 128.326975 
L 464.410566 133.477176 
L 465.171017 141.838121 
L 468.15194 176.894144 
L 469.420465 190.58179 
L 470.371305 203.612715 
L 471.259052 218.775542 
L 472.337187 240.885115 
L 474.239974 284.896125 
L 475.698889 315.462229 
L 476.523541 328.626398 
L 477.157803 335.867112 
L 477.66477 339.581231 
L 478.045549 341.076259 
L 478.299033 341.445287 
L 478.489422 341.392363 
L 478.679812 341.059211 
L 478.99639 339.893349 
L 479.377169 337.525747 
L 479.884136 332.857548 
L 480.581492 324.066677 
L 481.53344 309.07755 
L 484.133584 266.642821 
L 485.084424 254.854006 
L 485.909076 247.131291 
L 486.606432 242.454441 
L 487.240695 239.560734 
L 487.811863 237.892345 
L 488.31883 237.018329 
L 488.762704 236.655323 
L 489.143482 236.627928 
L 489.46006 236.815368 
L 489.840839 237.322475 
L 490.284712 238.364593 
L 490.791679 240.247394 
L 491.362848 243.342705 
L 492.060204 248.492312 
L 493.265635 259.560966 
L 494.343771 268.685752 
L 494.978033 272.360093 
L 495.485 274.082509 
L 495.865779 274.646951 
L 496.119263 274.69538 
L 496.372746 274.502257 
L 496.689324 273.955202 
L 497.134304 272.703508 
L 497.76746 270.160255 
L 498.656313 265.59519 
L 499.987932 257.375631 
L 502.714264 239.942315 
L 503.411621 236.88322 
L 503.982789 235.268094 
L 504.363568 234.704416 
L 504.680146 234.55811 
L 504.997831 234.692372 
L 505.377503 235.177851 
L 505.948671 236.371618 
L 507.154102 238.999176 
L 507.597975 239.474477 
L 507.977647 239.564211 
L 508.358426 239.371852 
L 508.865393 238.772721 
L 509.62695 237.470476 
L 511.212053 234.680922 
L 511.90941 233.94261 
L 512.417484 233.700973 
L 512.924451 233.716749 
L 513.431418 233.966358 
L 514.129882 234.57448 
L 515.208018 235.51694 
L 515.714985 235.684534 
L 516.158858 235.593189 
L 516.602731 235.257238 
L 517.109698 234.577872 
L 517.743961 233.322276 
L 518.442424 231.456438 
L 519.265969 228.580966 
L 520.217916 225.336042 
L 520.661789 224.506554 
L 521.105662 224.12862 
L 521.61263 224.031592 
L 523.134638 223.963571 
L 523.641605 223.614898 
L 524.212774 222.930443 
L 525.037426 221.509119 
L 526.178655 219.528527 
L 526.622528 219.112681 
L 526.940213 219.045592 
L 527.256791 219.219208 
L 527.574476 219.672797 
L 527.954148 220.633747 
L 528.398021 222.386188 
L 528.906095 225.27718 
L 529.540357 230.255802 
L 530.300808 238.167314 
L 531.251648 250.699868 
L 532.393985 268.707719 
L 535.881875 326.014616 
L 536.832715 337.517605 
L 537.657367 345.176963 
L 538.417818 350.329963 
L 539.116282 353.515008 
L 539.686343 355.10469 
L 540.130216 355.756999 
L 540.510995 355.938588 
L 540.827573 355.841136 
L 541.208352 355.445475 
L 541.652225 354.62871 
L 542.223393 353.072276 
L 542.983844 350.23285 
L 543.87159 346.02723 
L 545.013927 339.594886 
L 547.042902 326.64428 
L 552.814359 287.703066 
L 554.145978 276.560539 
L 555.477597 263.343785 
L 557.0627 244.964192 
L 560.106717 208.770126 
L 561.121758 199.441615 
L 562.009504 193.163294 
L 562.769955 189.185655 
L 563.531513 186.358613 
L 564.22887 184.591838 
L 564.926226 183.419869 
L 565.687784 182.612094 
L 566.512436 182.079798 
L 567.590571 181.660898 
L 569.048379 181.330969 
L 570.189609 181.279826 
L 571.014261 181.464298 
L 571.648523 181.815939 
L 572.282786 182.428301 
L 572.917048 183.384162 
L 573.55131 184.768677 
L 574.248667 186.875643 
L 575.010225 189.942033 
L 575.897971 194.529997 
L 577.039201 201.753408 
L 580.210513 222.825188 
L 580.970964 226.296398 
L 581.605226 228.267152 
L 582.049099 229.080694 
L 582.429878 229.386451 
L 582.746456 229.362109 
L 583.064141 229.087904 
L 583.443813 228.443142 
L 583.951887 227.097134 
L 584.649244 224.523517 
L 587.186293 214.327268 
L 587.756355 213.144188 
L 588.200228 212.675247 
L 588.581007 212.587973 
L 588.961786 212.778976 
L 589.405659 213.327896 
L 589.976827 214.492147 
L 590.674184 216.490805 
L 592.893549 223.504299 
L 593.210127 223.786987 
L 593.464717 223.744325 
L 593.718201 223.460111 
L 594.097873 222.629945 
L 594.732135 220.569203 
L 595.619881 217.857508 
L 596.00066 217.261601 
L 596.254144 217.150663 
L 596.508734 217.297138 
L 596.825312 217.861834 
L 597.206091 219.101655 
L 597.713058 221.665093 
L 599.552751 233.620654 
L 600.947465 244.487618 
L 602.088694 252.639241 
L 605.069617 271.167599 
L 606.528532 278.77276 
L 607.416278 284.002348 
L 608.430212 291.652631 
L 610.333 306.006581 
L 611.47423 312.679544 
L 613.567406 323.254831 
L 614.518247 327.054274 
L 615.21671 328.969304 
L 615.723677 329.780302 
L 616.104456 330.047807 
L 616.421034 330.041277 
L 616.738719 329.828222 
L 617.182592 329.20475 
L 617.752653 327.921504 
L 618.45001 325.77688 
L 619.274662 322.534415 
L 620.03622 318.714023 
L 620.923966 313.066893 
L 622.12829 303.711496 
L 622.636364 299.420383 
L 622.636364 299.420383 
" style="fill:none;stroke:#000000;stroke-linecap:round;stroke-width:1.5;"/>
   </g>
   <g id="patch_3">
    <path d="M 90 384.48 
L 90 51.84 
" style="fill:none;stroke:#cccccc;stroke-linecap:square;stroke-linejoin:miter;"/>
   </g>
   <g id="patch_4">
    <path d="M 648 384.48 
L 648 51.84 
" style="fill:none;stroke:#cccccc;stroke-linecap:square;stroke-linejoin:miter;"/>
   </g>
   <g id="patch_5">
    <path d="M 90 384.48 
L 648 384.48 
" style="fill:none;stroke:#cccccc;stroke-linecap:square;stroke-linejoin:miter;"/>
   </g>
   <g id="patch_6">
    <path d="M 90 51.84 
L 648 51.84 
" style="fill:none;stroke:#cccccc;stroke-linecap:square;stroke-linejoin:miter;"/>
   </g>
   <g id="text_17">
    <!-- Periodogram: 2001 UY4 -->
    <g style="fill:#262626;" transform="translate(279.19125 45.84)scale(0.16 -0.16)">
     <defs>
      <path d="M 4050 3009 
Q 4050 2725 3954 2461 
Q 3859 2197 3662 1994 
Q 3466 1791 3162 1670 
Q 2859 1550 2444 1550 
L 1350 1550 
L 1350 0 
L 428 0 
L 428 4403 
L 2406 4403 
Q 2828 4403 3137 4301 
Q 3447 4200 3650 4015 
Q 3853 3831 3951 3575 
Q 4050 3319 4050 3009 
z
M 3122 2994 
Q 3122 3334 2917 3511 
Q 2713 3688 2303 3688 
L 1350 3688 
L 1350 2259 
L 2328 2259 
Q 2534 2259 2682 2312 
Q 2831 2366 2929 2462 
Q 3028 2559 3075 2695 
Q 3122 2831 3122 2994 
z
" id="LiberationSans-Bold-50" transform="scale(0.015625)"/>
      <path d="M 1831 -63 
Q 1466 -63 1173 45 
Q 881 153 675 373 
Q 469 594 359 926 
Q 250 1259 250 1706 
Q 250 2191 379 2522 
Q 509 2853 729 3058 
Q 950 3263 1237 3353 
Q 1525 3444 1844 3444 
Q 2244 3444 2526 3305 
Q 2809 3166 2990 2916 
Q 3172 2666 3256 2317 
Q 3341 1969 3341 1547 
L 3341 1522 
L 1172 1522 
Q 1172 1309 1209 1126 
Q 1247 944 1331 811 
Q 1416 678 1550 601 
Q 1684 525 1875 525 
Q 2106 525 2253 623 
Q 2400 722 2463 928 
L 3291 856 
Q 3234 713 3132 550 
Q 3031 388 2862 252 
Q 2694 116 2442 26 
Q 2191 -63 1831 -63 
z
M 1831 2891 
Q 1697 2891 1580 2845 
Q 1463 2800 1377 2701 
Q 1291 2603 1237 2447 
Q 1184 2291 1178 2072 
L 2491 2072 
Q 2466 2481 2294 2686 
Q 2122 2891 1831 2891 
z
" id="LiberationSans-Bold-65" transform="scale(0.015625)"/>
      <path d="M 447 0 
L 447 2588 
Q 447 2697 445 2819 
Q 444 2941 439 3052 
Q 434 3163 431 3252 
Q 428 3341 422 3381 
L 1259 3381 
Q 1266 3344 1272 3251 
Q 1278 3159 1284 3050 
Q 1291 2941 1295 2833 
Q 1300 2725 1300 2659 
L 1313 2659 
Q 1378 2844 1443 2989 
Q 1509 3134 1598 3236 
Q 1688 3338 1813 3392 
Q 1938 3447 2122 3447 
Q 2200 3447 2276 3433 
Q 2353 3419 2394 3400 
L 2394 2666 
Q 2309 2684 2223 2698 
Q 2138 2713 2019 2713 
Q 1691 2713 1508 2447 
Q 1325 2181 1325 1659 
L 1325 0 
L 447 0 
z
" id="LiberationSans-Bold-72" transform="scale(0.015625)"/>
      <path d="M 447 3991 
L 447 4638 
L 1325 4638 
L 1325 3991 
L 447 3991 
z
M 447 0 
L 447 3381 
L 1325 3381 
L 1325 0 
L 447 0 
z
" id="LiberationSans-Bold-69" transform="scale(0.015625)"/>
      <path d="M 3659 1694 
Q 3659 1306 3551 984 
Q 3444 663 3228 430 
Q 3013 197 2691 67 
Q 2369 -63 1941 -63 
Q 1528 -63 1212 65 
Q 897 194 683 425 
Q 469 656 359 979 
Q 250 1303 250 1694 
Q 250 2072 354 2392 
Q 459 2713 671 2947 
Q 884 3181 1206 3312 
Q 1528 3444 1959 3444 
Q 2416 3444 2737 3312 
Q 3059 3181 3264 2948 
Q 3469 2716 3564 2395 
Q 3659 2075 3659 1694 
z
M 2741 1694 
Q 2741 2297 2544 2569 
Q 2347 2841 1972 2841 
Q 1584 2841 1378 2566 
Q 1172 2291 1172 1694 
Q 1172 1391 1226 1172 
Q 1281 953 1381 812 
Q 1481 672 1622 605 
Q 1763 538 1931 538 
Q 2125 538 2276 605 
Q 2428 672 2531 812 
Q 2634 953 2687 1172 
Q 2741 1391 2741 1694 
z
" id="LiberationSans-Bold-6f" transform="scale(0.015625)"/>
      <path d="M 2638 0 
Q 2631 25 2623 89 
Q 2616 153 2608 234 
Q 2600 316 2595 400 
Q 2591 484 2591 550 
L 2578 550 
Q 2425 222 2151 79 
Q 1878 -63 1497 -63 
Q 1178 -63 945 68 
Q 713 200 561 434 
Q 409 669 336 989 
Q 263 1309 263 1688 
Q 263 2072 339 2394 
Q 416 2716 575 2948 
Q 734 3181 979 3312 
Q 1225 3444 1563 3444 
Q 1728 3444 1881 3409 
Q 2034 3375 2165 3303 
Q 2297 3231 2403 3118 
Q 2509 3006 2584 2847 
L 2591 2847 
Q 2591 2878 2589 2939 
Q 2588 3000 2588 3078 
Q 2588 3156 2586 3240 
Q 2584 3325 2584 3403 
L 2584 4638 
L 3463 4638 
L 3463 738 
Q 3463 491 3472 298 
Q 3481 106 3488 0 
L 2638 0 
z
M 2597 1709 
Q 2597 2044 2534 2264 
Q 2472 2484 2370 2614 
Q 2269 2744 2139 2795 
Q 2009 2847 1875 2847 
Q 1706 2847 1576 2781 
Q 1447 2716 1358 2575 
Q 1269 2434 1223 2215 
Q 1178 1997 1178 1688 
Q 1178 538 1869 538 
Q 2000 538 2131 594 
Q 2263 650 2366 784 
Q 2469 919 2533 1145 
Q 2597 1372 2597 1709 
z
" id="LiberationSans-Bold-64" transform="scale(0.015625)"/>
      <path d="M 1863 -1356 
Q 1528 -1356 1273 -1289 
Q 1019 -1222 839 -1101 
Q 659 -981 551 -814 
Q 444 -647 403 -447 
L 1281 -344 
Q 1328 -547 1483 -662 
Q 1638 -778 1888 -778 
Q 2044 -778 2173 -734 
Q 2303 -691 2395 -586 
Q 2488 -481 2539 -309 
Q 2591 -138 2591 116 
Q 2591 203 2591 293 
Q 2591 384 2594 459 
Q 2597 547 2597 628 
L 2591 628 
Q 2438 300 2161 153 
Q 1884 6 1503 6 
Q 1181 6 948 132 
Q 716 259 562 486 
Q 409 713 336 1027 
Q 263 1341 263 1719 
Q 263 2109 341 2426 
Q 419 2744 580 2972 
Q 741 3200 986 3323 
Q 1231 3447 1569 3447 
Q 1906 3447 2173 3303 
Q 2441 3159 2591 2838 
L 2606 2838 
Q 2606 2903 2611 2989 
Q 2616 3075 2622 3154 
Q 2628 3234 2636 3296 
Q 2644 3359 2650 3381 
L 3481 3381 
Q 3475 3269 3469 3066 
Q 3463 2863 3463 2600 
L 3463 103 
Q 3463 -266 3356 -539 
Q 3250 -813 3045 -994 
Q 2841 -1175 2542 -1265 
Q 2244 -1356 1863 -1356 
z
M 2597 1738 
Q 2597 2056 2534 2268 
Q 2472 2481 2372 2609 
Q 2272 2738 2142 2791 
Q 2013 2844 1881 2844 
Q 1713 2844 1583 2778 
Q 1453 2713 1362 2575 
Q 1272 2438 1225 2225 
Q 1178 2013 1178 1719 
Q 1178 1172 1353 894 
Q 1528 616 1875 616 
Q 2006 616 2136 667 
Q 2266 719 2369 848 
Q 2472 978 2534 1193 
Q 2597 1409 2597 1738 
z
" id="LiberationSans-Bold-67" transform="scale(0.015625)"/>
      <path d="M 1228 -63 
Q 984 -63 792 4 
Q 600 72 465 201 
Q 331 331 259 522 
Q 188 713 188 956 
Q 188 1256 292 1461 
Q 397 1666 578 1792 
Q 759 1919 1003 1976 
Q 1247 2034 1522 2038 
L 2250 2050 
L 2250 2222 
Q 2250 2406 2217 2529 
Q 2184 2653 2121 2731 
Q 2059 2809 1967 2842 
Q 1875 2875 1756 2875 
Q 1647 2875 1561 2853 
Q 1475 2831 1412 2776 
Q 1350 2722 1311 2630 
Q 1272 2538 1256 2397 
L 341 2441 
Q 378 2663 478 2845 
Q 578 3028 754 3162 
Q 931 3297 1189 3370 
Q 1447 3444 1794 3444 
Q 2109 3444 2356 3366 
Q 2603 3288 2775 3133 
Q 2947 2978 3037 2753 
Q 3128 2528 3128 2231 
L 3128 1000 
Q 3128 881 3139 787 
Q 3150 694 3179 630 
Q 3209 566 3264 533 
Q 3319 500 3406 500 
Q 3506 500 3600 519 
L 3600 44 
Q 3522 25 3459 9 
Q 3397 -6 3334 -15 
Q 3272 -25 3201 -31 
Q 3131 -38 3038 -38 
Q 2706 -38 2548 125 
Q 2391 288 2359 603 
L 2341 603 
Q 2166 288 1892 112 
Q 1619 -63 1228 -63 
z
M 2250 1566 
L 1800 1559 
Q 1659 1553 1532 1536 
Q 1406 1519 1311 1464 
Q 1216 1409 1159 1306 
Q 1103 1203 1103 1025 
Q 1103 784 1214 667 
Q 1325 550 1509 550 
Q 1678 550 1815 622 
Q 1953 694 2048 811 
Q 2144 928 2197 1081 
Q 2250 1234 2250 1394 
L 2250 1566 
z
" id="LiberationSans-Bold-61" transform="scale(0.015625)"/>
      <path d="M 2438 0 
L 2438 1897 
Q 2438 2094 2411 2258 
Q 2384 2422 2323 2539 
Q 2263 2656 2164 2722 
Q 2066 2788 1925 2788 
Q 1791 2788 1681 2717 
Q 1572 2647 1492 2517 
Q 1413 2388 1369 2208 
Q 1325 2028 1325 1813 
L 1325 0 
L 447 0 
L 447 2625 
Q 447 2734 445 2850 
Q 444 2966 439 3070 
Q 434 3175 431 3258 
Q 428 3341 422 3381 
L 1259 3381 
Q 1266 3344 1272 3261 
Q 1278 3178 1284 3078 
Q 1291 2978 1295 2878 
Q 1300 2778 1300 2709 
L 1313 2709 
Q 1475 3097 1717 3272 
Q 1959 3447 2297 3447 
Q 2684 3447 2920 3258 
Q 3156 3069 3238 2709 
L 3256 2709 
Q 3347 2919 3451 3059 
Q 3556 3200 3682 3286 
Q 3809 3372 3957 3409 
Q 4106 3447 4281 3447 
Q 4559 3447 4751 3347 
Q 4944 3247 5064 3072 
Q 5184 2897 5239 2659 
Q 5294 2422 5294 2147 
L 5294 0 
L 4422 0 
L 4422 1897 
Q 4422 2094 4395 2258 
Q 4369 2422 4308 2539 
Q 4247 2656 4148 2722 
Q 4050 2788 3909 2788 
Q 3778 2788 3670 2720 
Q 3563 2653 3483 2529 
Q 3403 2406 3359 2234 
Q 3316 2063 3309 1853 
L 3309 0 
L 2438 0 
z
" id="LiberationSans-Bold-6d" transform="scale(0.015625)"/>
      <path d="M 616 2350 
L 616 3231 
L 1516 3231 
L 1516 2350 
L 616 2350 
z
M 616 0 
L 616 878 
L 1516 878 
L 1516 0 
L 616 0 
z
" id="LiberationSans-Bold-3a" transform="scale(0.015625)"/>
      <path id="LiberationSans-Bold-20" transform="scale(0.015625)"/>
      <path d="M 222 0 
L 222 609 
Q 372 938 587 1202 
Q 803 1466 1039 1686 
Q 1275 1906 1508 2095 
Q 1741 2284 1927 2461 
Q 2113 2638 2228 2816 
Q 2344 2994 2344 3194 
Q 2344 3488 2197 3628 
Q 2050 3769 1766 3769 
Q 1484 3769 1336 3617 
Q 1188 3466 1144 3163 
L 259 3213 
Q 291 3472 387 3700 
Q 484 3928 664 4100 
Q 844 4272 1114 4370 
Q 1384 4469 1759 4469 
Q 2116 4469 2391 4386 
Q 2666 4303 2853 4143 
Q 3041 3984 3137 3754 
Q 3234 3525 3234 3231 
Q 3234 2922 3112 2672 
Q 2991 2422 2800 2211 
Q 2609 2000 2376 1815 
Q 2144 1631 1925 1456 
Q 1706 1281 1526 1103 
Q 1347 925 1259 722 
L 3303 722 
L 3303 0 
L 222 0 
z
" id="LiberationSans-Bold-32" transform="scale(0.015625)"/>
      <path d="M 3297 2203 
Q 3297 1572 3181 1139 
Q 3066 706 2861 439 
Q 2656 172 2376 54 
Q 2097 -63 1766 -63 
Q 1434 -63 1156 53 
Q 878 169 678 436 
Q 478 703 365 1136 
Q 253 1569 253 2203 
Q 253 2869 364 3305 
Q 475 3741 678 4000 
Q 881 4259 1164 4364 
Q 1447 4469 1791 4469 
Q 2113 4469 2389 4364 
Q 2666 4259 2867 4000 
Q 3069 3741 3183 3305 
Q 3297 2869 3297 2203 
z
M 2416 2203 
Q 2416 2669 2381 2973 
Q 2347 3278 2272 3458 
Q 2197 3638 2076 3709 
Q 1956 3781 1784 3781 
Q 1600 3781 1475 3707 
Q 1350 3634 1273 3453 
Q 1197 3272 1164 2967 
Q 1131 2663 1131 2203 
Q 1131 1750 1165 1447 
Q 1200 1144 1275 961 
Q 1350 778 1472 703 
Q 1594 628 1772 628 
Q 1944 628 2066 703 
Q 2188 778 2266 961 
Q 2344 1144 2380 1447 
Q 2416 1750 2416 2203 
z
" id="LiberationSans-Bold-30" transform="scale(0.015625)"/>
      <path d="M 403 0 
L 403 653 
L 1494 653 
L 1494 3656 
L 438 2997 
L 438 3688 
L 1541 4403 
L 2372 4403 
L 2372 653 
L 3381 653 
L 3381 0 
L 403 0 
z
" id="LiberationSans-Bold-31" transform="scale(0.015625)"/>
      <path d="M 2259 -63 
Q 1847 -63 1503 35 
Q 1159 134 911 342 
Q 663 550 523 875 
Q 384 1200 384 1650 
L 384 4403 
L 1306 4403 
L 1306 1722 
Q 1306 1444 1375 1242 
Q 1444 1041 1572 911 
Q 1700 781 1881 720 
Q 2063 659 2284 659 
Q 2509 659 2698 723 
Q 2888 788 3023 922 
Q 3159 1056 3234 1262 
Q 3309 1469 3309 1753 
L 3309 4403 
L 4231 4403 
L 4231 1697 
Q 4231 1244 4084 912 
Q 3938 581 3675 364 
Q 3413 147 3052 42 
Q 2691 -63 2259 -63 
z
" id="LiberationSans-Bold-55" transform="scale(0.015625)"/>
      <path d="M 2597 1806 
L 2597 0 
L 1678 0 
L 1678 1806 
L 109 4403 
L 1075 4403 
L 2131 2541 
L 3200 4403 
L 4166 4403 
L 2597 1806 
z
" id="LiberationSans-Bold-59" transform="scale(0.015625)"/>
      <path d="M 2938 897 
L 2938 0 
L 2100 0 
L 2100 897 
L 97 897 
L 97 1556 
L 1956 4403 
L 2938 4403 
L 2938 1550 
L 3525 1550 
L 3525 897 
L 2938 897 
z
M 2100 2991 
Q 2100 3044 2101 3130 
Q 2103 3216 2108 3306 
Q 2113 3397 2117 3480 
Q 2122 3563 2128 3609 
Q 2113 3575 2078 3511 
Q 2044 3447 2001 3373 
Q 1959 3300 1914 3228 
Q 1869 3156 1834 3103 
L 813 1550 
L 2100 1550 
L 2100 2991 
z
" id="LiberationSans-Bold-34" transform="scale(0.015625)"/>
     </defs>
     <use xlink:href="#LiberationSans-Bold-50"/>
     <use x="66.699219" xlink:href="#LiberationSans-Bold-65"/>
     <use x="122.314453" xlink:href="#LiberationSans-Bold-72"/>
     <use x="161.230469" xlink:href="#LiberationSans-Bold-69"/>
     <use x="189.013672" xlink:href="#LiberationSans-Bold-6f"/>
     <use x="250.097656" xlink:href="#LiberationSans-Bold-64"/>
     <use x="311.181641" xlink:href="#LiberationSans-Bold-6f"/>
     <use x="372.265625" xlink:href="#LiberationSans-Bold-67"/>
     <use x="433.349609" xlink:href="#LiberationSans-Bold-72"/>
     <use x="472.265625" xlink:href="#LiberationSans-Bold-61"/>
     <use x="527.880859" xlink:href="#LiberationSans-Bold-6d"/>
     <use x="616.796875" xlink:href="#LiberationSans-Bold-3a"/>
     <use x="650.097656" xlink:href="#LiberationSans-Bold-20"/>
     <use x="677.880859" xlink:href="#LiberationSans-Bold-32"/>
     <use x="733.496094" xlink:href="#LiberationSans-Bold-30"/>
     <use x="789.111328" xlink:href="#LiberationSans-Bold-30"/>
     <use x="844.726562" xlink:href="#LiberationSans-Bold-31"/>
     <use x="900.341797" xlink:href="#LiberationSans-Bold-20"/>
     <use x="928.125" xlink:href="#LiberationSans-Bold-55"/>
     <use x="1000.341797" xlink:href="#LiberationSans-Bold-59"/>
     <use x="1067.041016" xlink:href="#LiberationSans-Bold-34"/>
    </g>
   </g>
  </g>
 </g>
 <defs>
  <clipPath id="p21f93249c8">
   <rect height="332.64" width="558" x="90" y="51.84"/>
  </clipPath>
 </defs>
</svg>
