<?xml version="1.0" encoding="utf-8" standalone="no"?>
<!DOCTYPE svg PUBLIC "-//W3C//DTD SVG 1.1//EN"
  "http://www.w3.org/Graphics/SVG/1.1/DTD/svg11.dtd">
<svg height="432pt" version="1.1" viewBox="0 0 720 432" width="720pt" xmlns="http://www.w3.org/2000/svg" xmlns:xlink="http://www.w3.org/1999/xlink">
 <metadata>
  <rdf:RDF xmlns:cc="http://creativecommons.org/ns#" xmlns:dc="http://purl.org/dc/elements/1.1/" xmlns:rdf="http://www.w3.org/1999/02/22-rdf-syntax-ns#">
   <cc:Work>
    <dc:type rdf:resource="http://purl.org/dc/dcmitype/StillImage"/>
    <dc:date>2021-08-29T16:49:35.256792</dc:date>
    <dc:format>image/svg+xml</dc:format>
    <dc:creator>
     <cc:Agent>
      <dc:title>Matplotlib v3.4.2, https://matplotlib.org/</dc:title>
     </cc:Agent>
    </dc:creator>
   </cc:Work>
  </rdf:RDF>
 </metadata>
 <defs>
  <style type="text/css">*{stroke-linecap:butt;stroke-linejoin:round;}</style>
 </defs>
 <g id="figure_1">
  <g id="patch_1">
   <path d="M 0 432 
L 720 432 
L 720 0 
L 0 0 
z
" style="fill:#ffffff;"/>
  </g>
  <g id="axes_1">
   <g id="patch_2">
    <path d="M 90 384.48 
L 648 384.48 
L 648 51.84 
L 90 51.84 
z
" style="fill:#ffffff;"/>
   </g>
   <g id="matplotlib.axis_1">
    <g id="xtick_1">
     <g id="line2d_1">
      <path clip-path="url(#p4d8d2b3e4b)" d="M 161.483951 384.48 
L 161.483951 51.84 
" style="fill:none;stroke:#cccccc;stroke-linecap:round;stroke-width:0.8;"/>
     </g>
     <g id="line2d_2"/>
     <g id="text_1">
      <!-- 2 -->
      <g style="fill:#262626;" transform="translate(158.703482 395.226875)scale(0.1 -0.1)">
       <defs>
        <path d="M 322 0 
L 322 397 
Q 481 763 711 1042 
Q 941 1322 1194 1548 
Q 1447 1775 1695 1969 
Q 1944 2163 2144 2356 
Q 2344 2550 2467 2762 
Q 2591 2975 2591 3244 
Q 2591 3431 2534 3573 
Q 2478 3716 2372 3812 
Q 2266 3909 2117 3957 
Q 1969 4006 1788 4006 
Q 1619 4006 1470 3959 
Q 1322 3913 1206 3819 
Q 1091 3725 1017 3586 
Q 944 3447 922 3263 
L 347 3316 
Q 375 3553 478 3762 
Q 581 3972 762 4130 
Q 944 4288 1198 4378 
Q 1453 4469 1788 4469 
Q 2116 4469 2372 4391 
Q 2628 4313 2804 4159 
Q 2981 4006 3075 3781 
Q 3169 3556 3169 3263 
Q 3169 3041 3089 2841 
Q 3009 2641 2876 2459 
Q 2744 2278 2569 2109 
Q 2394 1941 2203 1780 
Q 2013 1619 1819 1461 
Q 1625 1303 1454 1143 
Q 1284 984 1150 820 
Q 1016 656 941 478 
L 3238 478 
L 3238 0 
L 322 0 
z
" id="LiberationSans-32" transform="scale(0.015625)"/>
       </defs>
       <use xlink:href="#LiberationSans-32"/>
      </g>
     </g>
    </g>
    <g id="xtick_2">
     <g id="line2d_3">
      <path clip-path="url(#p4d8d2b3e4b)" d="M 253.72458 384.48 
L 253.72458 51.84 
" style="fill:none;stroke:#cccccc;stroke-linecap:round;stroke-width:0.8;"/>
     </g>
     <g id="line2d_4"/>
     <g id="text_2">
      <!-- 4 -->
      <g style="fill:#262626;" transform="translate(250.944111 395.226875)scale(0.1 -0.1)">
       <defs>
        <path d="M 2753 997 
L 2753 0 
L 2222 0 
L 2222 997 
L 147 997 
L 147 1434 
L 2163 4403 
L 2753 4403 
L 2753 1441 
L 3372 1441 
L 3372 997 
L 2753 997 
z
M 2222 3769 
Q 2216 3753 2191 3708 
Q 2166 3663 2134 3606 
Q 2103 3550 2070 3492 
Q 2038 3434 2013 3397 
L 884 1734 
Q 869 1709 839 1668 
Q 809 1628 778 1586 
Q 747 1544 715 1503 
Q 684 1463 666 1441 
L 2222 1441 
L 2222 3769 
z
" id="LiberationSans-34" transform="scale(0.015625)"/>
       </defs>
       <use xlink:href="#LiberationSans-34"/>
      </g>
     </g>
    </g>
    <g id="xtick_3">
     <g id="line2d_5">
      <path clip-path="url(#p4d8d2b3e4b)" d="M 345.965209 384.48 
L 345.965209 51.84 
" style="fill:none;stroke:#cccccc;stroke-linecap:round;stroke-width:0.8;"/>
     </g>
     <g id="line2d_6"/>
     <g id="text_3">
      <!-- 6 -->
      <g style="fill:#262626;" transform="translate(343.18474 395.226875)scale(0.1 -0.1)">
       <defs>
        <path d="M 3278 1441 
Q 3278 1109 3186 832 
Q 3094 556 2914 357 
Q 2734 159 2468 48 
Q 2203 -63 1856 -63 
Q 1472 -63 1184 84 
Q 897 231 706 507 
Q 516 784 420 1186 
Q 325 1588 325 2100 
Q 325 2688 433 3131 
Q 541 3575 744 3872 
Q 947 4169 1239 4319 
Q 1531 4469 1900 4469 
Q 2125 4469 2322 4422 
Q 2519 4375 2680 4270 
Q 2841 4166 2962 3994 
Q 3084 3822 3156 3572 
L 2619 3475 
Q 2531 3759 2339 3886 
Q 2147 4013 1894 4013 
Q 1663 4013 1475 3903 
Q 1288 3794 1156 3576 
Q 1025 3359 954 3031 
Q 884 2703 884 2266 
Q 1038 2550 1316 2698 
Q 1594 2847 1953 2847 
Q 2253 2847 2497 2750 
Q 2741 2653 2914 2470 
Q 3088 2288 3183 2027 
Q 3278 1766 3278 1441 
z
M 2706 1416 
Q 2706 1644 2650 1828 
Q 2594 2013 2481 2142 
Q 2369 2272 2203 2342 
Q 2038 2413 1819 2413 
Q 1666 2413 1509 2367 
Q 1353 2322 1226 2220 
Q 1100 2119 1020 1953 
Q 941 1788 941 1550 
Q 941 1306 1003 1095 
Q 1066 884 1183 728 
Q 1300 572 1465 481 
Q 1631 391 1838 391 
Q 2041 391 2202 461 
Q 2363 531 2475 664 
Q 2588 797 2647 987 
Q 2706 1178 2706 1416 
z
" id="LiberationSans-36" transform="scale(0.015625)"/>
       </defs>
       <use xlink:href="#LiberationSans-36"/>
      </g>
     </g>
    </g>
    <g id="xtick_4">
     <g id="line2d_7">
      <path clip-path="url(#p4d8d2b3e4b)" d="M 438.205838 384.48 
L 438.205838 51.84 
" style="fill:none;stroke:#cccccc;stroke-linecap:round;stroke-width:0.8;"/>
     </g>
     <g id="line2d_8"/>
     <g id="text_4">
      <!-- 8 -->
      <g style="fill:#262626;" transform="translate(435.425369 395.226875)scale(0.1 -0.1)">
       <defs>
        <path d="M 3281 1228 
Q 3281 947 3192 711 
Q 3103 475 2920 303 
Q 2738 131 2453 34 
Q 2169 -63 1781 -63 
Q 1394 -63 1111 34 
Q 828 131 642 301 
Q 456 472 367 708 
Q 278 944 278 1222 
Q 278 1463 351 1650 
Q 425 1838 548 1973 
Q 672 2109 830 2192 
Q 988 2275 1156 2303 
L 1156 2316 
Q 972 2359 826 2456 
Q 681 2553 582 2689 
Q 484 2825 432 2990 
Q 381 3156 381 3341 
Q 381 3572 470 3776 
Q 559 3981 734 4136 
Q 909 4291 1168 4380 
Q 1428 4469 1769 4469 
Q 2128 4469 2392 4378 
Q 2656 4288 2829 4133 
Q 3003 3978 3087 3772 
Q 3172 3566 3172 3334 
Q 3172 3153 3120 2987 
Q 3069 2822 2970 2686 
Q 2872 2550 2726 2454 
Q 2581 2359 2391 2322 
L 2391 2309 
Q 2581 2278 2743 2195 
Q 2906 2113 3025 1977 
Q 3144 1841 3212 1653 
Q 3281 1466 3281 1228 
z
M 2588 3303 
Q 2588 3469 2545 3606 
Q 2503 3744 2406 3842 
Q 2309 3941 2153 3995 
Q 1997 4050 1769 4050 
Q 1547 4050 1394 3995 
Q 1241 3941 1142 3842 
Q 1044 3744 1000 3606 
Q 956 3469 956 3303 
Q 956 3172 990 3034 
Q 1025 2897 1115 2784 
Q 1206 2672 1365 2600 
Q 1525 2528 1775 2528 
Q 2041 2528 2202 2600 
Q 2363 2672 2448 2784 
Q 2534 2897 2561 3034 
Q 2588 3172 2588 3303 
z
M 2697 1281 
Q 2697 1441 2653 1589 
Q 2609 1738 2503 1852 
Q 2397 1966 2217 2036 
Q 2038 2106 1769 2106 
Q 1522 2106 1348 2036 
Q 1175 1966 1067 1850 
Q 959 1734 909 1582 
Q 859 1431 859 1269 
Q 859 1066 909 898 
Q 959 731 1068 611 
Q 1178 491 1356 425 
Q 1534 359 1788 359 
Q 2044 359 2219 425 
Q 2394 491 2500 611 
Q 2606 731 2651 901 
Q 2697 1072 2697 1281 
z
" id="LiberationSans-38" transform="scale(0.015625)"/>
       </defs>
       <use xlink:href="#LiberationSans-38"/>
      </g>
     </g>
    </g>
    <g id="xtick_5">
     <g id="line2d_9">
      <path clip-path="url(#p4d8d2b3e4b)" d="M 530.446467 384.48 
L 530.446467 51.84 
" style="fill:none;stroke:#cccccc;stroke-linecap:round;stroke-width:0.8;"/>
     </g>
     <g id="line2d_10"/>
     <g id="text_5">
      <!-- 10 -->
      <g style="fill:#262626;" transform="translate(524.885529 395.226875)scale(0.1 -0.1)">
       <defs>
        <path d="M 488 0 
L 488 478 
L 1609 478 
L 1609 3866 
L 616 3156 
L 616 3688 
L 1656 4403 
L 2175 4403 
L 2175 478 
L 3247 478 
L 3247 0 
L 488 0 
z
" id="LiberationSans-31" transform="scale(0.015625)"/>
        <path d="M 3309 2203 
Q 3309 1569 3189 1136 
Q 3069 703 2861 436 
Q 2653 169 2372 53 
Q 2091 -63 1772 -63 
Q 1450 -63 1172 53 
Q 894 169 689 434 
Q 484 700 367 1133 
Q 250 1566 250 2203 
Q 250 2869 367 3305 
Q 484 3741 690 4000 
Q 897 4259 1178 4364 
Q 1459 4469 1791 4469 
Q 2106 4469 2382 4364 
Q 2659 4259 2865 4000 
Q 3072 3741 3190 3305 
Q 3309 2869 3309 2203 
z
M 2738 2203 
Q 2738 2728 2675 3076 
Q 2613 3425 2491 3633 
Q 2369 3841 2192 3927 
Q 2016 4013 1791 4013 
Q 1553 4013 1372 3925 
Q 1191 3838 1067 3630 
Q 944 3422 881 3073 
Q 819 2725 819 2203 
Q 819 1697 883 1350 
Q 947 1003 1070 792 
Q 1194 581 1372 489 
Q 1550 397 1778 397 
Q 2000 397 2178 489 
Q 2356 581 2479 792 
Q 2603 1003 2670 1350 
Q 2738 1697 2738 2203 
z
" id="LiberationSans-30" transform="scale(0.015625)"/>
       </defs>
       <use xlink:href="#LiberationSans-31"/>
       <use x="55.615234" xlink:href="#LiberationSans-30"/>
      </g>
     </g>
    </g>
    <g id="xtick_6">
     <g id="line2d_11">
      <path clip-path="url(#p4d8d2b3e4b)" d="M 622.687096 384.48 
L 622.687096 51.84 
" style="fill:none;stroke:#cccccc;stroke-linecap:round;stroke-width:0.8;"/>
     </g>
     <g id="line2d_12"/>
     <g id="text_6">
      <!-- 12 -->
      <g style="fill:#262626;" transform="translate(617.126158 395.226875)scale(0.1 -0.1)">
       <use xlink:href="#LiberationSans-31"/>
       <use x="55.615234" xlink:href="#LiberationSans-32"/>
      </g>
     </g>
    </g>
    <g id="text_7">
     <!-- Hours -->
     <g style="fill:#262626;" transform="translate(355.663281 408.54875)scale(0.1 -0.1)">
      <defs>
       <path d="M 3503 0 
L 3503 2041 
L 1122 2041 
L 1122 0 
L 525 0 
L 525 4403 
L 1122 4403 
L 1122 2541 
L 3503 2541 
L 3503 4403 
L 4100 4403 
L 4100 0 
L 3503 0 
z
" id="LiberationSans-48" transform="scale(0.015625)"/>
       <path d="M 3291 1694 
Q 3291 806 2900 371 
Q 2509 -63 1766 -63 
Q 1413 -63 1134 43 
Q 856 150 664 369 
Q 472 588 370 917 
Q 269 1247 269 1694 
Q 269 3444 1784 3444 
Q 2178 3444 2464 3334 
Q 2750 3225 2933 3006 
Q 3116 2788 3203 2459 
Q 3291 2131 3291 1694 
z
M 2700 1694 
Q 2700 2088 2639 2344 
Q 2578 2600 2461 2753 
Q 2344 2906 2175 2967 
Q 2006 3028 1794 3028 
Q 1578 3028 1404 2964 
Q 1231 2900 1109 2745 
Q 988 2591 923 2334 
Q 859 2078 859 1694 
Q 859 1300 928 1042 
Q 997 784 1117 631 
Q 1238 478 1402 415 
Q 1566 353 1759 353 
Q 1975 353 2150 414 
Q 2325 475 2447 628 
Q 2569 781 2634 1040 
Q 2700 1300 2700 1694 
z
" id="LiberationSans-6f" transform="scale(0.015625)"/>
       <path d="M 981 3381 
L 981 1238 
Q 981 991 1017 825 
Q 1053 659 1134 557 
Q 1216 456 1348 414 
Q 1481 372 1678 372 
Q 1878 372 2039 442 
Q 2200 513 2314 645 
Q 2428 778 2490 973 
Q 2553 1169 2553 1422 
L 2553 3381 
L 3116 3381 
L 3116 722 
Q 3116 616 3117 498 
Q 3119 381 3122 276 
Q 3125 172 3128 97 
Q 3131 22 3134 0 
L 2603 0 
Q 2600 16 2597 84 
Q 2594 153 2589 242 
Q 2584 331 2581 423 
Q 2578 516 2578 578 
L 2569 578 
Q 2488 431 2391 312 
Q 2294 194 2166 111 
Q 2038 28 1872 -17 
Q 1706 -63 1488 -63 
Q 1206 -63 1003 6 
Q 800 75 669 219 
Q 538 363 477 588 
Q 416 813 416 1128 
L 416 3381 
L 981 3381 
z
" id="LiberationSans-75" transform="scale(0.015625)"/>
       <path d="M 444 0 
L 444 2594 
Q 444 2700 442 2811 
Q 441 2922 437 3025 
Q 434 3128 431 3218 
Q 428 3309 425 3381 
L 956 3381 
Q 959 3309 964 3217 
Q 969 3125 973 3028 
Q 978 2931 979 2842 
Q 981 2753 981 2691 
L 994 2691 
Q 1053 2884 1120 3026 
Q 1188 3169 1278 3261 
Q 1369 3353 1494 3398 
Q 1619 3444 1797 3444 
Q 1866 3444 1928 3433 
Q 1991 3422 2025 3413 
L 2025 2897 
Q 1969 2913 1894 2920 
Q 1819 2928 1725 2928 
Q 1531 2928 1395 2840 
Q 1259 2753 1173 2598 
Q 1088 2444 1047 2230 
Q 1006 2016 1006 1763 
L 1006 0 
L 444 0 
z
" id="LiberationSans-72" transform="scale(0.015625)"/>
       <path d="M 2969 934 
Q 2969 697 2876 511 
Q 2784 325 2609 198 
Q 2434 72 2179 4 
Q 1925 -63 1597 -63 
Q 1303 -63 1067 -17 
Q 831 28 653 128 
Q 475 228 354 392 
Q 234 556 178 794 
L 675 891 
Q 747 619 972 492 
Q 1197 366 1597 366 
Q 1778 366 1929 391 
Q 2081 416 2190 477 
Q 2300 538 2361 639 
Q 2422 741 2422 891 
Q 2422 1044 2350 1142 
Q 2278 1241 2150 1306 
Q 2022 1372 1839 1420 
Q 1656 1469 1438 1528 
Q 1234 1581 1034 1647 
Q 834 1713 673 1820 
Q 513 1928 413 2087 
Q 313 2247 313 2488 
Q 313 2950 642 3192 
Q 972 3434 1603 3434 
Q 2163 3434 2492 3237 
Q 2822 3041 2909 2606 
L 2403 2544 
Q 2375 2675 2300 2764 
Q 2225 2853 2119 2908 
Q 2013 2963 1880 2986 
Q 1747 3009 1603 3009 
Q 1222 3009 1040 2893 
Q 859 2778 859 2544 
Q 859 2406 926 2317 
Q 994 2228 1114 2167 
Q 1234 2106 1403 2061 
Q 1572 2016 1775 1966 
Q 1909 1931 2050 1892 
Q 2191 1853 2323 1798 
Q 2456 1744 2573 1670 
Q 2691 1597 2778 1494 
Q 2866 1391 2917 1253 
Q 2969 1116 2969 934 
z
" id="LiberationSans-73" transform="scale(0.015625)"/>
      </defs>
      <use xlink:href="#LiberationSans-48"/>
      <use x="72.216797" xlink:href="#LiberationSans-6f"/>
      <use x="127.832031" xlink:href="#LiberationSans-75"/>
      <use x="183.447266" xlink:href="#LiberationSans-72"/>
      <use x="216.748047" xlink:href="#LiberationSans-73"/>
     </g>
    </g>
   </g>
   <g id="matplotlib.axis_2">
    <g id="ytick_1">
     <g id="line2d_13">
      <path clip-path="url(#p4d8d2b3e4b)" d="M 90 369.734652 
L 648 369.734652 
" style="fill:none;stroke:#cccccc;stroke-linecap:round;stroke-width:0.8;"/>
     </g>
     <g id="line2d_14"/>
     <g id="text_8">
      <!-- 5 -->
      <g style="fill:#262626;" transform="translate(80.939063 373.35809)scale(0.1 -0.1)">
       <defs>
        <path d="M 3291 1434 
Q 3291 1103 3191 828 
Q 3091 553 2894 354 
Q 2697 156 2405 46 
Q 2113 -63 1728 -63 
Q 1381 -63 1123 18 
Q 866 100 687 242 
Q 509 384 404 575 
Q 300 766 256 984 
L 825 1050 
Q 859 925 921 808 
Q 984 691 1092 598 
Q 1200 506 1358 451 
Q 1516 397 1741 397 
Q 1959 397 2137 464 
Q 2316 531 2442 662 
Q 2569 794 2637 984 
Q 2706 1175 2706 1422 
Q 2706 1625 2640 1795 
Q 2575 1966 2453 2089 
Q 2331 2213 2154 2281 
Q 1978 2350 1753 2350 
Q 1613 2350 1494 2325 
Q 1375 2300 1273 2256 
Q 1172 2213 1089 2155 
Q 1006 2097 934 2034 
L 384 2034 
L 531 4403 
L 3034 4403 
L 3034 3925 
L 1044 3925 
L 959 2528 
Q 1109 2644 1334 2726 
Q 1559 2809 1869 2809 
Q 2197 2809 2459 2709 
Q 2722 2609 2906 2426 
Q 3091 2244 3191 1991 
Q 3291 1738 3291 1434 
z
" id="LiberationSans-35" transform="scale(0.015625)"/>
       </defs>
       <use xlink:href="#LiberationSans-35"/>
      </g>
     </g>
    </g>
    <g id="ytick_2">
     <g id="line2d_15">
      <path clip-path="url(#p4d8d2b3e4b)" d="M 90 320.593515 
L 648 320.593515 
" style="fill:none;stroke:#cccccc;stroke-linecap:round;stroke-width:0.8;"/>
     </g>
     <g id="line2d_16"/>
     <g id="text_9">
      <!-- 10 -->
      <g style="fill:#262626;" transform="translate(75.378125 324.216953)scale(0.1 -0.1)">
       <use xlink:href="#LiberationSans-31"/>
       <use x="55.615234" xlink:href="#LiberationSans-30"/>
      </g>
     </g>
    </g>
    <g id="ytick_3">
     <g id="line2d_17">
      <path clip-path="url(#p4d8d2b3e4b)" d="M 90 271.452379 
L 648 271.452379 
" style="fill:none;stroke:#cccccc;stroke-linecap:round;stroke-width:0.8;"/>
     </g>
     <g id="line2d_18"/>
     <g id="text_10">
      <!-- 15 -->
      <g style="fill:#262626;" transform="translate(75.378125 275.075816)scale(0.1 -0.1)">
       <use xlink:href="#LiberationSans-31"/>
       <use x="55.615234" xlink:href="#LiberationSans-35"/>
      </g>
     </g>
    </g>
    <g id="ytick_4">
     <g id="line2d_19">
      <path clip-path="url(#p4d8d2b3e4b)" d="M 90 222.311242 
L 648 222.311242 
" style="fill:none;stroke:#cccccc;stroke-linecap:round;stroke-width:0.8;"/>
     </g>
     <g id="line2d_20"/>
     <g id="text_11">
      <!-- 20 -->
      <g style="fill:#262626;" transform="translate(75.378125 225.934679)scale(0.1 -0.1)">
       <use xlink:href="#LiberationSans-32"/>
       <use x="55.615234" xlink:href="#LiberationSans-30"/>
      </g>
     </g>
    </g>
    <g id="ytick_5">
     <g id="line2d_21">
      <path clip-path="url(#p4d8d2b3e4b)" d="M 90 173.170105 
L 648 173.170105 
" style="fill:none;stroke:#cccccc;stroke-linecap:round;stroke-width:0.8;"/>
     </g>
     <g id="line2d_22"/>
     <g id="text_12">
      <!-- 25 -->
      <g style="fill:#262626;" transform="translate(75.378125 176.793542)scale(0.1 -0.1)">
       <use xlink:href="#LiberationSans-32"/>
       <use x="55.615234" xlink:href="#LiberationSans-35"/>
      </g>
     </g>
    </g>
    <g id="ytick_6">
     <g id="line2d_23">
      <path clip-path="url(#p4d8d2b3e4b)" d="M 90 124.028968 
L 648 124.028968 
" style="fill:none;stroke:#cccccc;stroke-linecap:round;stroke-width:0.8;"/>
     </g>
     <g id="line2d_24"/>
     <g id="text_13">
      <!-- 30 -->
      <g style="fill:#262626;" transform="translate(75.378125 127.652406)scale(0.1 -0.1)">
       <defs>
        <path d="M 3278 1216 
Q 3278 913 3179 675 
Q 3081 438 2892 273 
Q 2703 109 2423 23 
Q 2144 -63 1784 -63 
Q 1375 -63 1095 39 
Q 816 141 634 308 
Q 453 475 362 689 
Q 272 903 244 1131 
L 825 1184 
Q 850 1009 917 865 
Q 984 722 1100 619 
Q 1216 516 1384 459 
Q 1553 403 1784 403 
Q 2209 403 2451 612 
Q 2694 822 2694 1234 
Q 2694 1478 2586 1626 
Q 2478 1775 2317 1858 
Q 2156 1941 1967 1969 
Q 1778 1997 1619 1997 
L 1300 1997 
L 1300 2484 
L 1606 2484 
Q 1766 2484 1937 2517 
Q 2109 2550 2251 2636 
Q 2394 2722 2486 2869 
Q 2578 3016 2578 3244 
Q 2578 3597 2370 3801 
Q 2163 4006 1753 4006 
Q 1381 4006 1151 3815 
Q 922 3625 884 3278 
L 319 3322 
Q 353 3613 478 3828 
Q 603 4044 795 4186 
Q 988 4328 1234 4398 
Q 1481 4469 1759 4469 
Q 2128 4469 2393 4376 
Q 2659 4284 2828 4126 
Q 2997 3969 3076 3756 
Q 3156 3544 3156 3303 
Q 3156 3109 3103 2940 
Q 3050 2772 2937 2637 
Q 2825 2503 2651 2406 
Q 2478 2309 2234 2259 
L 2234 2247 
Q 2500 2219 2697 2126 
Q 2894 2034 3022 1896 
Q 3150 1759 3214 1584 
Q 3278 1409 3278 1216 
z
" id="LiberationSans-33" transform="scale(0.015625)"/>
       </defs>
       <use xlink:href="#LiberationSans-33"/>
       <use x="55.615234" xlink:href="#LiberationSans-30"/>
      </g>
     </g>
    </g>
    <g id="ytick_7">
     <g id="line2d_25">
      <path clip-path="url(#p4d8d2b3e4b)" d="M 90 74.887831 
L 648 74.887831 
" style="fill:none;stroke:#cccccc;stroke-linecap:round;stroke-width:0.8;"/>
     </g>
     <g id="line2d_26"/>
     <g id="text_14">
      <!-- 35 -->
      <g style="fill:#262626;" transform="translate(75.378125 78.511269)scale(0.1 -0.1)">
       <use xlink:href="#LiberationSans-33"/>
       <use x="55.615234" xlink:href="#LiberationSans-35"/>
      </g>
     </g>
    </g>
    <g id="text_15">
     <!-- RMSE (x0.01 Mag) -->
     <g style="fill:#262626;" transform="translate(69.303125 260.670156)rotate(-90)scale(0.1 -0.1)">
      <defs>
       <path d="M 3638 0 
L 2494 1828 
L 1122 1828 
L 1122 0 
L 525 0 
L 525 4403 
L 2597 4403 
Q 2972 4403 3261 4317 
Q 3550 4231 3747 4068 
Q 3944 3906 4047 3672 
Q 4150 3438 4150 3144 
Q 4150 2934 4089 2731 
Q 4028 2528 3897 2359 
Q 3766 2191 3562 2069 
Q 3359 1947 3075 1897 
L 4325 0 
L 3638 0 
z
M 3550 3138 
Q 3550 3338 3481 3484 
Q 3413 3631 3281 3729 
Q 3150 3828 2962 3876 
Q 2775 3925 2538 3925 
L 1122 3925 
L 1122 2300 
L 2563 2300 
Q 2819 2300 3006 2364 
Q 3194 2428 3314 2540 
Q 3434 2653 3492 2806 
Q 3550 2959 3550 3138 
z
" id="LiberationSans-52" transform="scale(0.015625)"/>
       <path d="M 4269 0 
L 4269 2938 
Q 4269 3097 4272 3262 
Q 4275 3428 4281 3566 
Q 4288 3725 4297 3875 
Q 4253 3716 4206 3559 
Q 4166 3425 4117 3273 
Q 4069 3122 4022 3000 
L 2884 0 
L 2466 0 
L 1313 3000 
Q 1294 3047 1273 3109 
Q 1253 3172 1229 3242 
Q 1206 3313 1182 3386 
Q 1159 3459 1138 3531 
Q 1084 3697 1034 3875 
Q 1038 3700 1044 3528 
Q 1050 3381 1053 3220 
Q 1056 3059 1056 2938 
L 1056 0 
L 525 0 
L 525 4403 
L 1309 4403 
L 2481 1350 
Q 2503 1288 2534 1189 
Q 2566 1091 2594 987 
Q 2622 884 2645 792 
Q 2669 700 2678 650 
Q 2688 700 2713 794 
Q 2738 888 2770 991 
Q 2803 1094 2834 1191 
Q 2866 1288 2891 1350 
L 4041 4403 
L 4806 4403 
L 4806 0 
L 4269 0 
z
" id="LiberationSans-4d" transform="scale(0.015625)"/>
       <path d="M 3975 1216 
Q 3975 938 3867 703 
Q 3759 469 3534 298 
Q 3309 128 2967 32 
Q 2625 -63 2156 -63 
Q 1334 -63 875 225 
Q 416 513 291 1056 
L 869 1172 
Q 913 1000 1003 859 
Q 1094 719 1248 617 
Q 1403 516 1631 459 
Q 1859 403 2178 403 
Q 2444 403 2666 448 
Q 2888 494 3047 587 
Q 3206 681 3295 829 
Q 3384 978 3384 1184 
Q 3384 1400 3286 1534 
Q 3188 1669 3009 1756 
Q 2831 1844 2584 1903 
Q 2338 1963 2038 2031 
Q 1853 2072 1667 2120 
Q 1481 2169 1311 2236 
Q 1141 2303 991 2393 
Q 841 2484 731 2611 
Q 622 2738 559 2905 
Q 497 3072 497 3291 
Q 497 3603 623 3826 
Q 750 4050 975 4194 
Q 1200 4338 1506 4403 
Q 1813 4469 2169 4469 
Q 2578 4469 2868 4405 
Q 3159 4341 3359 4212 
Q 3559 4084 3679 3895 
Q 3800 3706 3872 3456 
L 3284 3353 
Q 3241 3513 3158 3638 
Q 3075 3763 2940 3847 
Q 2806 3931 2614 3975 
Q 2422 4019 2163 4019 
Q 1856 4019 1648 3964 
Q 1441 3909 1314 3815 
Q 1188 3722 1133 3595 
Q 1078 3469 1078 3322 
Q 1078 3125 1176 2998 
Q 1275 2872 1444 2787 
Q 1613 2703 1834 2647 
Q 2056 2591 2306 2534 
Q 2509 2488 2711 2439 
Q 2913 2391 3097 2323 
Q 3281 2256 3442 2165 
Q 3603 2075 3722 1944 
Q 3841 1813 3908 1634 
Q 3975 1456 3975 1216 
z
" id="LiberationSans-53" transform="scale(0.015625)"/>
       <path d="M 525 0 
L 525 4403 
L 3866 4403 
L 3866 3916 
L 1122 3916 
L 1122 2503 
L 3678 2503 
L 3678 2022 
L 1122 2022 
L 1122 488 
L 3994 488 
L 3994 0 
L 525 0 
z
" id="LiberationSans-45" transform="scale(0.015625)"/>
       <path id="LiberationSans-20" transform="scale(0.015625)"/>
       <path d="M 397 1663 
Q 397 2097 462 2494 
Q 528 2891 668 3256 
Q 809 3622 1028 3965 
Q 1247 4309 1550 4638 
L 2094 4638 
Q 1800 4309 1586 3964 
Q 1372 3619 1234 3251 
Q 1097 2884 1030 2487 
Q 963 2091 963 1656 
Q 963 1222 1030 825 
Q 1097 428 1234 59 
Q 1372 -309 1586 -653 
Q 1800 -997 2094 -1325 
L 1550 -1325 
Q 1247 -997 1028 -653 
Q 809 -309 668 56 
Q 528 422 462 817 
Q 397 1213 397 1650 
L 397 1663 
z
" id="LiberationSans-28" transform="scale(0.015625)"/>
       <path d="M 2503 0 
L 1594 1388 
L 678 0 
L 72 0 
L 1275 1738 
L 128 3381 
L 750 3381 
L 1594 2066 
L 2431 3381 
L 3059 3381 
L 1913 1744 
L 3131 0 
L 2503 0 
z
" id="LiberationSans-78" transform="scale(0.015625)"/>
       <path d="M 584 0 
L 584 684 
L 1194 684 
L 1194 0 
L 584 0 
z
" id="LiberationSans-2e" transform="scale(0.015625)"/>
       <path d="M 1294 -63 
Q 784 -63 528 206 
Q 272 475 272 944 
Q 272 1278 398 1492 
Q 525 1706 729 1828 
Q 934 1950 1196 1997 
Q 1459 2044 1731 2050 
L 2491 2063 
L 2491 2247 
Q 2491 2456 2447 2603 
Q 2403 2750 2312 2840 
Q 2222 2931 2086 2973 
Q 1950 3016 1766 3016 
Q 1603 3016 1472 2992 
Q 1341 2969 1244 2908 
Q 1147 2847 1087 2742 
Q 1028 2638 1009 2478 
L 422 2531 
Q 453 2731 540 2898 
Q 628 3066 789 3187 
Q 950 3309 1192 3376 
Q 1434 3444 1778 3444 
Q 2416 3444 2737 3151 
Q 3059 2859 3059 2306 
L 3059 850 
Q 3059 600 3125 473 
Q 3191 347 3375 347 
Q 3422 347 3469 353 
Q 3516 359 3559 369 
L 3559 19 
Q 3453 -6 3348 -18 
Q 3244 -31 3125 -31 
Q 2966 -31 2852 11 
Q 2738 53 2666 139 
Q 2594 225 2556 351 
Q 2519 478 2509 647 
L 2491 647 
Q 2400 484 2292 353 
Q 2184 222 2040 130 
Q 1897 38 1714 -12 
Q 1531 -63 1294 -63 
z
M 1422 359 
Q 1691 359 1892 457 
Q 2094 556 2226 709 
Q 2359 863 2425 1044 
Q 2491 1225 2491 1391 
L 2491 1669 
L 1875 1656 
Q 1669 1653 1483 1626 
Q 1297 1600 1156 1522 
Q 1016 1444 933 1303 
Q 850 1163 850 934 
Q 850 659 998 509 
Q 1147 359 1422 359 
z
" id="LiberationSans-61" transform="scale(0.015625)"/>
       <path d="M 1713 -1328 
Q 1422 -1328 1197 -1268 
Q 972 -1209 812 -1098 
Q 653 -988 553 -834 
Q 453 -681 409 -494 
L 975 -413 
Q 1031 -647 1223 -773 
Q 1416 -900 1728 -900 
Q 1919 -900 2075 -847 
Q 2231 -794 2340 -676 
Q 2450 -559 2509 -371 
Q 2569 -184 2569 84 
L 2569 628 
L 2563 628 
Q 2500 500 2408 383 
Q 2316 266 2183 175 
Q 2050 84 1875 29 
Q 1700 -25 1475 -25 
Q 1153 -25 923 83 
Q 694 191 548 406 
Q 403 622 336 942 
Q 269 1263 269 1684 
Q 269 2091 336 2416 
Q 403 2741 554 2967 
Q 706 3194 948 3314 
Q 1191 3434 1538 3434 
Q 1897 3434 2161 3270 
Q 2425 3106 2569 2803 
L 2575 2803 
Q 2575 2881 2579 2978 
Q 2584 3075 2589 3161 
Q 2594 3247 2600 3309 
Q 2606 3372 2613 3381 
L 3147 3381 
Q 3144 3353 3141 3286 
Q 3138 3219 3134 3125 
Q 3131 3031 3129 2917 
Q 3128 2803 3128 2681 
L 3128 97 
Q 3128 -613 2779 -970 
Q 2431 -1328 1713 -1328 
z
M 2569 1691 
Q 2569 2044 2492 2295 
Q 2416 2547 2291 2706 
Q 2166 2866 2005 2941 
Q 1844 3016 1675 3016 
Q 1459 3016 1304 2941 
Q 1150 2866 1048 2705 
Q 947 2544 898 2292 
Q 850 2041 850 1691 
Q 850 1325 898 1076 
Q 947 828 1047 675 
Q 1147 522 1300 456 
Q 1453 391 1666 391 
Q 1834 391 1995 462 
Q 2156 534 2284 690 
Q 2413 847 2491 1094 
Q 2569 1341 2569 1691 
z
" id="LiberationSans-67" transform="scale(0.015625)"/>
       <path d="M 1734 1650 
Q 1734 1213 1668 817 
Q 1603 422 1462 56 
Q 1322 -309 1103 -653 
Q 884 -997 581 -1325 
L 38 -1325 
Q 331 -997 545 -653 
Q 759 -309 896 59 
Q 1034 428 1101 825 
Q 1169 1222 1169 1656 
Q 1169 2091 1101 2487 
Q 1034 2884 896 3251 
Q 759 3619 545 3964 
Q 331 4309 38 4638 
L 581 4638 
Q 884 4309 1103 3965 
Q 1322 3622 1462 3256 
Q 1603 2891 1668 2494 
Q 1734 2097 1734 1663 
L 1734 1650 
z
" id="LiberationSans-29" transform="scale(0.015625)"/>
      </defs>
      <use xlink:href="#LiberationSans-52"/>
      <use x="72.216797" xlink:href="#LiberationSans-4d"/>
      <use x="155.517578" xlink:href="#LiberationSans-53"/>
      <use x="222.216797" xlink:href="#LiberationSans-45"/>
      <use x="288.916016" xlink:href="#LiberationSans-20"/>
      <use x="316.699219" xlink:href="#LiberationSans-28"/>
      <use x="350" xlink:href="#LiberationSans-78"/>
      <use x="400" xlink:href="#LiberationSans-30"/>
      <use x="455.615234" xlink:href="#LiberationSans-2e"/>
      <use x="483.398438" xlink:href="#LiberationSans-30"/>
      <use x="539.013672" xlink:href="#LiberationSans-31"/>
      <use x="594.628906" xlink:href="#LiberationSans-20"/>
      <use x="622.412109" xlink:href="#LiberationSans-4d"/>
      <use x="705.712891" xlink:href="#LiberationSans-61"/>
      <use x="761.328125" xlink:href="#LiberationSans-67"/>
      <use x="816.943359" xlink:href="#LiberationSans-29"/>
     </g>
    </g>
   </g>
   <g id="line2d_27">
    <path clip-path="url(#p4d8d2b3e4b)" d="M 115.363636 68.762153 
L 115.414369 68.798901 
L 115.566566 68.341259 
L 115.617298 68.514708 
L 115.718763 68.823913 
L 115.769495 68.711056 
L 116.073889 67.679407 
L 116.175354 67.770829 
L 116.276819 67.930724 
L 116.378283 68.356355 
L 116.429016 68.333229 
L 116.73341 67.562962 
L 116.834874 67.209932 
L 116.987071 66.982035 
L 117.342198 68.712275 
L 117.443663 68.453311 
L 117.697324 67.506381 
L 117.748057 67.451343 
L 117.900254 67.840491 
L 117.950986 67.79593 
L 118.001718 67.753207 
L 118.052451 67.837366 
L 118.407577 69.856339 
L 118.458309 69.586053 
L 118.762704 67.155513 
L 118.813436 67.132082 
L 118.914901 67.56418 
L 119.472956 71.705943 
L 119.574421 71.29528 
L 120.031012 67.11391 
L 120.132477 67.4034 
L 120.589068 69.469392 
L 120.690533 69.071722 
L 120.994927 67.60483 
L 121.147124 68.463355 
L 121.350053 71.168064 
L 121.806644 78.638647 
L 121.857377 78.520217 
L 121.958841 77.586623 
L 122.618362 67.535551 
L 122.719827 67.537546 
L 122.821291 68.017281 
L 123.074953 69.387336 
L 123.176418 69.108401 
L 123.531544 67.210453 
L 123.582276 67.343379 
L 123.734473 68.794311 
L 124.038868 75.597282 
L 124.444726 84.309052 
L 124.495459 84.382027 
L 124.596923 83.440355 
L 124.95205 74.394504 
L 125.307176 67.600063 
L 125.459373 66.96 
L 125.560838 67.296499 
L 125.915964 68.971543 
L 126.017429 68.878185 
L 126.423288 67.664438 
L 126.47402 67.757944 
L 126.626217 68.689227 
L 126.879879 72.398499 
L 127.33647 79.212949 
L 127.488667 79.832226 
L 127.539399 79.820963 
L 127.640864 79.280862 
L 127.894526 75.058538 
L 128.351117 68.332659 
L 128.503314 68.134965 
L 128.604779 68.258171 
L 128.909173 70.20645 
L 129.010637 70.058005 
L 129.92382 67.869367 
L 130.076017 68.607034 
L 130.329678 71.355134 
L 130.532608 73.009303 
L 130.58334 73.040793 
L 130.634072 72.958147 
L 130.938467 71.734297 
L 131.597987 68.982865 
L 131.851649 68.553736 
L 131.902381 68.600508 
L 132.054578 69.336908 
L 132.30824 70.290423 
L 132.612634 70.470712 
L 132.815563 69.800368 
L 133.272154 68.226927 
L 133.475084 68.424032 
L 133.728746 68.77375 
L 134.03314 69.305772 
L 134.185337 69.077541 
L 134.946322 67.218079 
L 134.997054 67.260881 
L 135.808772 68.555957 
L 136.620489 67.917309 
L 136.823419 68.056476 
L 136.975616 68.595024 
L 137.838066 73.129955 
L 138.040995 73.315807 
L 138.193192 73.173926 
L 138.396121 72.531524 
L 138.80198 70.002603 
L 139.055642 68.940673 
L 139.410768 68.565362 
L 139.562965 68.571682 
L 139.816627 68.753406 
L 139.968824 68.487287 
L 140.374683 67.650305 
L 140.729809 67.344146 
L 140.983471 67.454183 
L 141.135668 67.747015 
L 141.998118 71.246149 
L 142.353244 72.601904 
L 142.657638 73.740592 
L 142.962033 74.576129 
L 143.063497 74.458977 
L 143.317159 73.525836 
L 144.179609 70.138724 
L 144.331806 70.174961 
L 144.585468 70.424018 
L 144.686932 70.282619 
L 144.889862 69.38655 
L 145.244988 67.880984 
L 145.549382 67.476542 
L 145.752312 67.47667 
L 145.955241 67.703358 
L 146.3611 68.246682 
L 146.513297 68.097843 
L 146.868423 67.647956 
L 147.02062 67.805925 
L 147.274282 68.56318 
L 148.339661 72.468594 
L 148.593323 72.781249 
L 148.74552 72.70338 
L 148.948449 72.236461 
L 149.861632 69.349144 
L 150.419687 68.858686 
L 150.571884 68.933754 
L 151.079208 69.381331 
L 152.19532 68.363972 
L 152.347517 68.431453 
L 152.550446 68.94999 
L 152.804108 70.508049 
L 153.159234 74.535254 
L 154.173881 87.071914 
L 154.326078 87.227132 
L 154.478275 86.816764 
L 154.731937 85.065354 
L 155.137796 80.185276 
L 156.050978 68.365014 
L 156.253907 67.727103 
L 156.355372 67.781453 
L 156.507569 68.236932 
L 156.811963 70.125367 
L 157.370019 73.690763 
L 157.572948 73.8958 
L 157.725145 73.649259 
L 157.978807 72.649561 
L 158.790525 68.458362 
L 158.841257 68.488741 
L 158.993454 69.044518 
L 159.196383 71.10819 
L 159.450045 76.337829 
L 159.855904 90.767642 
L 161.124212 141.824694 
L 161.327142 143.526569 
L 161.377874 143.487158 
L 161.479339 142.846338 
L 161.682268 139.364679 
L 161.986662 129.236504 
L 163.4579 71.715634 
L 163.762294 69.143026 
L 163.863759 68.957843 
L 163.914491 68.984811 
L 164.066688 69.495476 
L 164.371083 71.898321 
L 165.233532 79.546952 
L 165.334997 79.716331 
L 165.385729 79.687446 
L 165.537927 79.122274 
L 165.791588 76.741848 
L 166.552573 68.348522 
L 166.654038 68.133382 
L 166.70477 68.177275 
L 166.806235 68.61698 
L 167.009165 71.147542 
L 167.262826 77.706675 
L 167.668685 94.852637 
L 168.125276 123.249285 
L 168.734064 178.185499 
L 169.444317 239.967426 
L 169.697979 248.606694 
L 169.748711 248.859987 
L 169.799444 248.589563 
L 169.951641 244.715256 
L 170.205302 229.639414 
L 170.81409 173.611864 
L 171.575076 109.928175 
L 172.082399 83.13965 
L 172.488258 70.904333 
L 172.74192 67.841877 
L 172.843384 67.622069 
L 172.944849 67.942036 
L 173.147778 70.053041 
L 173.502905 77.375533 
L 174.26389 94.055843 
L 174.466819 95.056248 
L 174.568284 94.760989 
L 174.771213 92.688776 
L 175.12634 85.579695 
L 175.887325 69.538799 
L 176.140987 67.72499 
L 176.242452 67.786053 
L 176.394649 68.759932 
L 176.64831 72.648804 
L 177.003437 82.427871 
L 177.409295 100.2331 
L 177.865887 131.485517 
L 178.37321 182.940257 
L 179.083463 280.894494 
L 179.742983 364.20534 
L 179.844448 365.924179 
L 179.945913 361.7994 
L 180.199575 334.804857 
L 181.62008 157.01015 
L 182.228868 112.272462 
L 182.786924 85.745792 
L 183.243515 72.754231 
L 183.547909 68.78748 
L 183.700106 68.275921 
L 183.801571 68.468938 
L 183.953768 69.513482 
L 184.20743 73.003161 
L 184.765486 85.042484 
L 185.323541 95.687624 
L 185.627936 98.322738 
L 185.7294 98.54005 
L 185.780133 98.519372 
L 185.93233 97.944391 
L 186.185991 95.387253 
L 186.59185 88.192244 
L 187.505032 71.387213 
L 187.809426 69.284101 
L 187.910891 69.141808 
L 187.961623 69.176855 
L 188.11382 69.704641 
L 188.367482 71.978096 
L 188.671876 77.010542 
L 189.077735 87.847794 
L 189.585059 108.485008 
L 190.244579 146.079697 
L 191.766549 238.820688 
L 192.070943 245.214687 
L 192.172408 245.541564 
L 192.273873 244.947183 
L 192.476802 241.165379 
L 192.781196 230.251231 
L 193.389984 198.290514 
L 194.911955 115.567887 
L 195.622208 89.088726 
L 196.180263 75.682355 
L 196.586122 70.52287 
L 196.890516 69.02837 
L 197.042713 68.942688 
L 197.19491 69.232758 
L 197.448572 70.400538 
L 197.905163 73.897765 
L 198.970543 82.338925 
L 199.325669 83.647396 
L 199.528598 83.878075 
L 199.680795 83.808619 
L 199.883725 83.421298 
L 200.188119 82.301715 
L 200.695442 79.404433 
L 201.913019 72.06431 
L 202.36961 70.522044 
L 202.674004 70.12406 
L 202.826201 70.183059 
L 203.02913 70.598351 
L 203.282792 71.756637 
L 203.637918 74.735917 
L 204.094509 80.982718 
L 204.703298 93.116697 
L 206.935521 142.195169 
L 207.290647 145.043173 
L 207.544309 145.660926 
L 207.645774 145.579155 
L 207.848703 144.881243 
L 208.153097 142.636132 
L 208.609688 137.169426 
L 209.319941 125.496961 
L 210.791179 96.475425 
L 211.755094 79.348648 
L 212.313149 72.747303 
L 212.769741 69.665691 
L 213.124867 68.598483 
L 213.378529 68.436445 
L 213.581458 68.609776 
L 213.885852 69.300406 
L 214.291711 70.899016 
L 214.951231 74.618695 
L 216.016611 80.618622 
L 216.473202 82.055076 
L 216.828328 82.520335 
L 217.08199 82.538772 
L 217.335652 82.329854 
L 217.690778 81.721339 
L 218.248834 80.258515 
L 219.314213 76.731312 
L 220.125931 73.418462 
L 221.394239 67.719958 
L 221.647901 67.444541 
L 221.850831 67.542273 
L 222.104492 68.014127 
L 222.561083 69.525285 
L 223.423533 72.396425 
L 224.336715 74.68709 
L 224.691842 76.838764 
L 225.097701 81.021019 
L 225.655756 89.635303 
L 226.568939 103.904366 
L 226.924065 106.354159 
L 227.126995 106.622627 
L 227.279192 106.312075 
L 227.532853 104.950207 
L 227.938712 101.170428 
L 229.511415 84.934039 
L 230.120203 81.616786 
L 232.149497 72.467159 
L 232.352426 72.332365 
L 232.504623 72.434509 
L 232.707553 72.847089 
L 233.011947 74.030545 
L 233.51927 77.15598 
L 234.38172 82.610233 
L 234.736846 83.592231 
L 234.939776 83.65978 
L 235.142705 83.380285 
L 235.447099 82.419094 
L 236.664676 77.786893 
L 236.816873 77.78138 
L 237.019802 78.117348 
L 237.273464 79.09103 
L 237.679322 81.754411 
L 239.099828 92.456269 
L 239.35349 93.026857 
L 239.505687 93.054523 
L 239.657884 92.846588 
L 239.911546 92.007257 
L 240.317404 89.620305 
L 241.839375 79.347911 
L 242.194501 78.507233 
L 242.397431 78.401836 
L 242.60036 78.548935 
L 242.904754 79.161273 
L 244.173063 82.380911 
L 244.375992 82.392125 
L 244.578922 82.191305 
L 244.883316 81.51359 
L 245.339907 79.80737 
L 247.57213 70.251129 
L 247.927256 69.683431 
L 248.180918 69.619813 
L 248.383847 69.828201 
L 248.637509 70.479754 
L 248.941903 71.94928 
L 249.29703 74.812616 
L 249.702888 79.897888 
L 250.210212 89.302234 
L 250.869732 106.171502 
L 252.594632 153.07423 
L 253.051223 159.58035 
L 253.355617 161.471281 
L 253.507814 161.615884 
L 253.660011 161.211079 
L 253.862941 159.814242 
L 254.167335 155.931247 
L 254.623926 146.506999 
L 255.334179 126.013985 
L 256.602488 89.19719 
L 257.211276 77.793586 
L 257.667867 72.660893 
L 258.073726 70.311042 
L 258.327387 69.753487 
L 258.530317 69.743344 
L 258.733246 70.072177 
L 259.03764 71.098696 
L 259.544964 73.81168 
L 260.813272 80.978325 
L 261.168399 81.860379 
L 261.42206 81.992195 
L 261.62499 81.781704 
L 261.878652 81.129581 
L 262.28451 79.281098 
L 262.994763 74.597486 
L 263.705016 70.458829 
L 264.00941 69.630113 
L 264.212339 69.560755 
L 264.364536 69.802097 
L 264.618198 70.820626 
L 264.922592 73.145238 
L 265.328451 78.245134 
L 265.835774 87.95214 
L 266.444563 104.489293 
L 267.154815 130.241617 
L 268.11873 174.283309 
L 269.437771 233.907793 
L 269.894362 245.262344 
L 270.148024 247.741348 
L 270.249489 247.894393 
L 270.350953 247.56557 
L 270.553883 245.49776 
L 270.858277 239.15304 
L 271.314868 223.870176 
L 272.177318 185.503498 
L 273.445626 131.147229 
L 274.257344 105.074092 
L 274.967597 88.49915 
L 275.576385 79.074411 
L 276.032976 75.129213 
L 276.33737 74.029355 
L 276.489567 73.928479 
L 276.641764 74.114792 
L 276.895426 75.025004 
L 277.250552 77.406855 
L 277.808608 83.010223 
L 278.975452 95.095905 
L 279.381311 97.129208 
L 279.634973 97.479604 
L 279.78717 97.333783 
L 279.990099 96.731352 
L 280.294493 95.011815 
L 280.751084 90.921857 
L 281.816463 78.398818 
L 282.475984 72.197256 
L 282.881843 70.095657 
L 283.135504 69.614142 
L 283.287701 69.653386 
L 283.490631 70.097209 
L 283.744293 71.284843 
L 284.099419 74.121063 
L 284.55601 79.759192 
L 285.114066 89.7791 
L 285.722854 105.113621 
L 286.382375 127.886282 
L 287.092627 160.611891 
L 287.904345 208.629013 
L 289.071189 292.662882 
L 290.085836 361.054784 
L 290.39023 369.235054 
L 290.440962 369.36 
L 290.542427 368.46798 
L 290.745356 362.583251 
L 291.100483 343.652846 
L 292.318059 259.514876 
L 293.484903 187.668156 
L 294.398085 144.507584 
L 295.209803 115.995287 
L 295.970788 96.473046 
L 296.681041 83.682542 
L 297.239097 77.197897 
L 297.644955 74.50688 
L 297.949349 73.615518 
L 298.152279 73.545581 
L 298.355208 73.877539 
L 298.60887 74.822454 
L 299.014729 77.41232 
L 299.623517 83.1254 
L 301.246952 99.281049 
L 301.703543 101.637701 
L 302.007937 102.319426 
L 302.210867 102.356331 
L 302.413796 102.059647 
L 302.71819 101.01298 
L 303.124049 98.609673 
L 303.732837 93.408929 
L 305.407004 78.2408 
L 305.914328 75.620093 
L 306.320187 74.56119 
L 306.573848 74.394582 
L 306.776778 74.541622 
L 307.030439 75.080366 
L 307.385566 76.506432 
L 307.842157 79.516799 
L 308.34948 84.466147 
L 308.958269 92.73086 
L 309.668521 105.714224 
L 310.480239 125.037787 
L 311.444154 153.719797 
L 314.132968 238.233963 
L 314.589559 245.52123 
L 314.944685 248.186055 
L 315.096882 248.465983 
L 315.147615 248.443191 
L 315.299812 248.029128 
L 315.553474 246.215368 
L 315.9086 241.488964 
L 316.415923 231.072595 
L 317.227641 208.799955 
L 319.256935 151.40235 
L 320.271582 129.752869 
L 321.184764 114.741804 
L 322.047214 104.073903 
L 322.808199 97.304288 
L 323.467719 93.283678 
L 324.076508 90.893001 
L 324.583831 89.681643 
L 325.091155 88.990188 
L 325.64921 88.604174 
L 327.424842 87.671505 
L 328.185828 86.842848 
L 330.164389 84.52373 
L 330.874642 84.131132 
L 332.34588 83.480267 
L 332.853204 82.881119 
L 333.411259 81.814687 
L 334.07078 80.020112 
L 336.100074 74.078251 
L 336.4552 73.689535 
L 336.708862 73.657495 
L 336.962524 73.865145 
L 337.266918 74.474132 
L 337.622044 75.748018 
L 338.027903 78.05028 
L 338.535226 82.380577 
L 339.093282 89.266685 
L 339.70207 99.612664 
L 340.412323 115.679978 
L 341.274773 140.882354 
L 342.390885 181.001374 
L 344.420178 255.369448 
L 344.978234 268.100806 
L 345.333361 272.514279 
L 345.587022 273.643346 
L 345.688487 273.607443 
L 345.840684 273.034006 
L 346.094346 270.734348 
L 346.449472 264.928332 
L 346.956796 252.400497 
L 347.819246 224.311797 
L 349.848539 156.677396 
L 350.812454 132.326272 
L 351.674904 115.909211 
L 352.435889 105.353508 
L 353.146142 98.420628 
L 353.805662 94.108218 
L 354.363718 91.750691 
L 354.921774 90.297342 
L 355.429097 89.532342 
L 356.037886 89.024429 
L 357.407659 88.060968 
L 358.016447 87.260243 
L 358.7267 85.935997 
L 360.4516 82.504482 
L 360.857458 82.21621 
L 361.11112 82.255169 
L 361.364782 82.500393 
L 361.669176 83.110166 
L 362.024302 84.319952 
L 362.480894 86.773353 
L 362.988217 90.820803 
L 363.597005 97.657987 
L 364.307258 108.424928 
L 365.169708 125.311552 
L 366.235087 150.925151 
L 369.53269 234.018498 
L 370.090745 241.348125 
L 370.445872 243.720168 
L 370.648801 244.183559 
L 370.750266 244.16288 
L 370.902463 243.812602 
L 371.156125 242.377563 
L 371.511251 238.625175 
L 371.967842 231.053578 
L 372.627363 215.70799 
L 373.692742 184.567016 
L 375.620571 128.382814 
L 376.635218 105.495968 
L 377.446936 91.822762 
L 378.106456 83.925034 
L 378.664512 79.486164 
L 379.121103 77.330942 
L 379.476229 76.523701 
L 379.729891 76.384179 
L 379.932821 76.519091 
L 380.186482 76.97634 
L 380.541609 78.108856 
L 381.048932 80.580203 
L 381.759185 85.285821 
L 384.24507 102.939332 
L 384.803126 105.145769 
L 385.208985 106.052108 
L 385.513379 106.324802 
L 385.76704 106.284536 
L 386.020702 106.00626 
L 386.375828 105.235972 
L 386.83242 103.655761 
L 387.49194 100.444092 
L 389.977825 87.245491 
L 390.383684 86.32319 
L 390.688078 86.069062 
L 390.891007 86.131186 
L 391.144669 86.488786 
L 391.449063 87.353916 
L 391.854922 89.294656 
L 392.362245 93.063585 
L 392.920301 99.021348 
L 393.579822 108.594838 
L 394.340807 123.096957 
L 395.203257 143.950471 
L 396.217904 174.147827 
L 397.486212 219.040791 
L 399.870633 305.351035 
L 400.428688 317.623228 
L 400.783815 321.609351 
L 400.986744 322.32922 
L 401.088209 322.251233 
L 401.240406 321.592761 
L 401.494068 319.112067 
L 401.849194 313.053869 
L 402.40725 298.937557 
L 403.421897 265.989063 
L 405.552655 196.537521 
L 406.820964 162.876275 
L 407.987808 137.578624 
L 409.103919 118.07605 
L 410.118566 104.12956 
L 410.981016 95.05847 
L 411.742001 89.14056 
L 412.401522 85.527625 
L 413.01031 83.350545 
L 413.517634 82.299082 
L 413.923492 81.896075 
L 414.278619 81.820417 
L 414.633745 81.96562 
L 415.090336 82.416824 
L 415.749857 83.443048 
L 418.286474 87.822526 
L 418.84453 88.220412 
L 419.301121 88.271636 
L 419.70698 88.088497 
L 420.163571 87.613283 
L 420.670894 86.750777 
L 421.330415 85.137346 
L 422.192865 82.353854 
L 424.628017 74.02853 
L 425.186073 72.984644 
L 425.591932 72.642986 
L 425.896326 72.661178 
L 426.20072 72.943729 
L 426.555846 73.641327 
L 426.961705 74.971312 
L 427.469029 77.513413 
L 428.027085 81.549591 
L 428.686605 88.149737 
L 429.396858 97.643323 
L 430.208575 111.671899 
L 431.121758 131.527228 
L 432.187137 159.80577 
L 433.506178 201.178577 
L 437.057442 316.893522 
L 437.514033 324.108905 
L 437.818427 326.328296 
L 437.970624 326.588351 
L 438.072089 326.442804 
L 438.275018 325.398428 
L 438.579412 322.050589 
L 438.985271 314.711508 
L 439.594059 299.216393 
L 440.710171 263.925067 
L 442.942394 193.291622 
L 444.159971 161.922239 
L 445.22535 139.880395 
L 446.189264 124.184225 
L 447.102447 112.696541 
L 447.964896 104.497362 
L 448.776614 98.798474 
L 449.537599 94.952551 
L 450.247852 92.438176 
L 450.907373 90.842897 
L 451.566893 89.783532 
L 452.277146 89.047889 
L 453.291793 88.349053 
L 454.712299 87.345178 
L 457.198183 85.358166 
L 457.654775 85.343974 
L 458.060633 85.55365 
L 458.466492 86.024619 
L 458.923083 86.926565 
L 459.430407 88.463916 
L 459.988462 90.889375 
L 460.647983 94.843467 
L 461.408968 100.95403 
L 462.271418 109.89981 
L 463.286065 123.014381 
L 464.503641 141.898622 
L 466.177809 171.674239 
L 469.069552 223.300246 
L 470.033467 236.59313 
L 470.74372 243.70919 
L 471.301776 247.275893 
L 471.707634 248.612777 
L 471.961296 248.88438 
L 472.164226 248.785105 
L 472.417887 248.26648 
L 472.773014 246.817819 
L 473.229605 243.777024 
L 473.787661 238.443088 
L 474.548646 228.859868 
L 475.71549 210.983374 
L 478.150642 173.300653 
L 479.216022 160.348475 
L 480.129204 151.787912 
L 480.890189 146.51669 
L 481.600442 143.064761 
L 482.20923 141.139657 
L 482.716553 140.181001 
L 483.173145 139.751626 
L 483.579003 139.660783 
L 483.984862 139.792472 
L 484.542918 140.240531 
L 485.760494 141.641584 
L 486.470747 142.254354 
L 486.927338 142.400844 
L 487.333197 142.3038 
L 487.739056 141.950475 
L 488.195647 141.204828 
L 488.70297 139.902017 
L 489.311758 137.640699 
L 490.022011 134.032934 
L 490.884461 128.347305 
L 492.000573 119.307458 
L 495.754766 87.405671 
L 496.566484 82.847251 
L 497.226004 80.301514 
L 497.733328 79.146864 
L 498.088454 78.788419 
L 498.342116 78.770561 
L 498.595778 78.957926 
L 498.900172 79.461436 
L 499.306031 80.620194 
L 499.813354 82.878475 
L 500.37141 86.437571 
L 501.03093 92.141579 
L 501.791916 100.789849 
L 502.654365 113.304888 
L 503.61828 130.683799 
L 504.734392 155.097646 
L 506.053433 189.237183 
L 507.930529 244.521434 
L 509.756894 296.55429 
L 510.517879 312.583097 
L 511.025203 319.431318 
L 511.380329 321.877033 
L 511.583258 322.325465 
L 511.684723 322.285848 
L 511.83692 321.898468 
L 512.090582 320.399251 
L 512.445708 316.625477 
L 512.953032 308.345716 
L 513.663285 292.625624 
L 514.931593 258.570334 
L 517.721872 183.134837 
L 519.19311 149.833893 
L 520.461419 125.944971 
L 521.57753 108.764621 
L 522.592177 96.26055 
L 523.50536 87.488248 
L 524.317077 81.596078 
L 525.078062 77.625907 
L 525.737583 75.332716 
L 526.244906 74.247955 
L 526.701497 73.742961 
L 527.056624 73.638683 
L 527.41175 73.769733 
L 527.817609 74.185998 
L 528.324932 75.066518 
L 528.984453 76.722074 
L 529.846903 79.552623 
L 531.368873 85.491712 
L 532.992308 91.55224 
L 533.956223 94.349727 
L 534.717208 95.948465 
L 535.376729 96.854539 
L 535.934784 97.270283 
L 536.442108 97.379651 
L 536.949431 97.251216 
L 537.507487 96.864072 
L 538.21774 96.059553 
L 539.130922 94.653036 
L 542.377792 89.323021 
L 543.088045 88.691311 
L 543.646101 88.455601 
L 544.153424 88.474353 
L 544.610016 88.703892 
L 545.117339 89.219176 
L 545.675395 90.131815 
L 546.284183 91.578412 
L 546.943703 93.723619 
L 547.704689 97.009992 
L 548.516406 101.548923 
L 549.429588 108.015543 
L 550.444235 116.963003 
L 551.560347 128.952114 
L 552.828656 145.108845 
L 554.502823 169.591746 
L 557.800425 218.524632 
L 558.865805 230.731743 
L 559.677522 237.682334 
L 560.337043 241.541889 
L 560.844366 243.330184 
L 561.199493 243.9546 
L 561.453154 244.084038 
L 561.706816 243.952477 
L 562.01121 243.456496 
L 562.417069 242.240135 
L 562.924392 239.877744 
L 563.583913 235.5415 
L 564.39563 228.541168 
L 565.46101 217.242491 
L 567.084445 197.290324 
L 571.29523 144.541982 
L 572.969397 126.761127 
L 574.440635 113.417697 
L 575.759676 103.399136 
L 576.977252 95.803479 
L 578.093364 90.209674 
L 579.108011 86.219827 
L 580.021193 83.478144 
L 580.832911 81.678547 
L 581.593896 80.502049 
L 582.253416 79.855008 
L 582.862204 79.542421 
L 583.470993 79.481515 
L 584.079781 79.649598 
L 584.739301 80.061951 
L 585.551019 80.85044 
L 586.565666 82.177202 
L 588.087636 84.592557 
L 590.421324 88.271322 
L 591.486703 89.53706 
L 592.349153 90.229861 
L 593.059406 90.531038 
L 593.718926 90.56923 
L 594.327715 90.386661 
L 594.987235 89.947929 
L 595.697488 89.198605 
L 596.509205 88.010088 
L 597.523852 86.090173 
L 598.893626 82.954261 
L 601.58244 76.690692 
L 602.495622 75.151257 
L 603.205875 74.367899 
L 603.763931 74.073111 
L 604.220522 74.076197 
L 604.677113 74.325205 
L 605.133704 74.843998 
L 605.641028 75.765119 
L 606.249816 77.391454 
L 606.909336 79.850487 
L 607.619589 83.377631 
L 608.431307 88.613157 
L 609.293757 95.686621 
L 610.257671 105.557287 
L 611.272318 118.313038 
L 612.38843 135.251123 
L 613.606006 157.20239 
L 615.026512 187.040466 
L 616.903609 231.631812 
L 619.795352 300.35521 
L 620.708534 316.898711 
L 621.317323 324.568886 
L 621.773914 327.952479 
L 622.078308 328.923793 
L 622.230505 329.007087 
L 622.382702 328.820459 
L 622.585631 328.155805 
L 622.636364 327.916567 
L 622.636364 327.916567 
" style="fill:none;stroke:#000000;stroke-linecap:round;stroke-width:1.5;"/>
   </g>
   <g id="patch_3">
    <path d="M 90 384.48 
L 90 51.84 
" style="fill:none;stroke:#cccccc;stroke-linecap:square;stroke-linejoin:miter;"/>
   </g>
   <g id="patch_4">
    <path d="M 648 384.48 
L 648 51.84 
" style="fill:none;stroke:#cccccc;stroke-linecap:square;stroke-linejoin:miter;"/>
   </g>
   <g id="patch_5">
    <path d="M 90 384.48 
L 648 384.48 
" style="fill:none;stroke:#cccccc;stroke-linecap:square;stroke-linejoin:miter;"/>
   </g>
   <g id="patch_6">
    <path d="M 90 51.84 
L 648 51.84 
" style="fill:none;stroke:#cccccc;stroke-linecap:square;stroke-linejoin:miter;"/>
   </g>
   <g id="text_16">
    <!-- Periodogram: Ivar 1627 -->
    <g style="fill:#262626;" transform="translate(280.52 45.84)scale(0.16 -0.16)">
     <defs>
      <path d="M 4050 3009 
Q 4050 2725 3954 2461 
Q 3859 2197 3662 1994 
Q 3466 1791 3162 1670 
Q 2859 1550 2444 1550 
L 1350 1550 
L 1350 0 
L 428 0 
L 428 4403 
L 2406 4403 
Q 2828 4403 3137 4301 
Q 3447 4200 3650 4015 
Q 3853 3831 3951 3575 
Q 4050 3319 4050 3009 
z
M 3122 2994 
Q 3122 3334 2917 3511 
Q 2713 3688 2303 3688 
L 1350 3688 
L 1350 2259 
L 2328 2259 
Q 2534 2259 2682 2312 
Q 2831 2366 2929 2462 
Q 3028 2559 3075 2695 
Q 3122 2831 3122 2994 
z
" id="LiberationSans-Bold-50" transform="scale(0.015625)"/>
      <path d="M 1831 -63 
Q 1466 -63 1173 45 
Q 881 153 675 373 
Q 469 594 359 926 
Q 250 1259 250 1706 
Q 250 2191 379 2522 
Q 509 2853 729 3058 
Q 950 3263 1237 3353 
Q 1525 3444 1844 3444 
Q 2244 3444 2526 3305 
Q 2809 3166 2990 2916 
Q 3172 2666 3256 2317 
Q 3341 1969 3341 1547 
L 3341 1522 
L 1172 1522 
Q 1172 1309 1209 1126 
Q 1247 944 1331 811 
Q 1416 678 1550 601 
Q 1684 525 1875 525 
Q 2106 525 2253 623 
Q 2400 722 2463 928 
L 3291 856 
Q 3234 713 3132 550 
Q 3031 388 2862 252 
Q 2694 116 2442 26 
Q 2191 -63 1831 -63 
z
M 1831 2891 
Q 1697 2891 1580 2845 
Q 1463 2800 1377 2701 
Q 1291 2603 1237 2447 
Q 1184 2291 1178 2072 
L 2491 2072 
Q 2466 2481 2294 2686 
Q 2122 2891 1831 2891 
z
" id="LiberationSans-Bold-65" transform="scale(0.015625)"/>
      <path d="M 447 0 
L 447 2588 
Q 447 2697 445 2819 
Q 444 2941 439 3052 
Q 434 3163 431 3252 
Q 428 3341 422 3381 
L 1259 3381 
Q 1266 3344 1272 3251 
Q 1278 3159 1284 3050 
Q 1291 2941 1295 2833 
Q 1300 2725 1300 2659 
L 1313 2659 
Q 1378 2844 1443 2989 
Q 1509 3134 1598 3236 
Q 1688 3338 1813 3392 
Q 1938 3447 2122 3447 
Q 2200 3447 2276 3433 
Q 2353 3419 2394 3400 
L 2394 2666 
Q 2309 2684 2223 2698 
Q 2138 2713 2019 2713 
Q 1691 2713 1508 2447 
Q 1325 2181 1325 1659 
L 1325 0 
L 447 0 
z
" id="LiberationSans-Bold-72" transform="scale(0.015625)"/>
      <path d="M 447 3991 
L 447 4638 
L 1325 4638 
L 1325 3991 
L 447 3991 
z
M 447 0 
L 447 3381 
L 1325 3381 
L 1325 0 
L 447 0 
z
" id="LiberationSans-Bold-69" transform="scale(0.015625)"/>
      <path d="M 3659 1694 
Q 3659 1306 3551 984 
Q 3444 663 3228 430 
Q 3013 197 2691 67 
Q 2369 -63 1941 -63 
Q 1528 -63 1212 65 
Q 897 194 683 425 
Q 469 656 359 979 
Q 250 1303 250 1694 
Q 250 2072 354 2392 
Q 459 2713 671 2947 
Q 884 3181 1206 3312 
Q 1528 3444 1959 3444 
Q 2416 3444 2737 3312 
Q 3059 3181 3264 2948 
Q 3469 2716 3564 2395 
Q 3659 2075 3659 1694 
z
M 2741 1694 
Q 2741 2297 2544 2569 
Q 2347 2841 1972 2841 
Q 1584 2841 1378 2566 
Q 1172 2291 1172 1694 
Q 1172 1391 1226 1172 
Q 1281 953 1381 812 
Q 1481 672 1622 605 
Q 1763 538 1931 538 
Q 2125 538 2276 605 
Q 2428 672 2531 812 
Q 2634 953 2687 1172 
Q 2741 1391 2741 1694 
z
" id="LiberationSans-Bold-6f" transform="scale(0.015625)"/>
      <path d="M 2638 0 
Q 2631 25 2623 89 
Q 2616 153 2608 234 
Q 2600 316 2595 400 
Q 2591 484 2591 550 
L 2578 550 
Q 2425 222 2151 79 
Q 1878 -63 1497 -63 
Q 1178 -63 945 68 
Q 713 200 561 434 
Q 409 669 336 989 
Q 263 1309 263 1688 
Q 263 2072 339 2394 
Q 416 2716 575 2948 
Q 734 3181 979 3312 
Q 1225 3444 1563 3444 
Q 1728 3444 1881 3409 
Q 2034 3375 2165 3303 
Q 2297 3231 2403 3118 
Q 2509 3006 2584 2847 
L 2591 2847 
Q 2591 2878 2589 2939 
Q 2588 3000 2588 3078 
Q 2588 3156 2586 3240 
Q 2584 3325 2584 3403 
L 2584 4638 
L 3463 4638 
L 3463 738 
Q 3463 491 3472 298 
Q 3481 106 3488 0 
L 2638 0 
z
M 2597 1709 
Q 2597 2044 2534 2264 
Q 2472 2484 2370 2614 
Q 2269 2744 2139 2795 
Q 2009 2847 1875 2847 
Q 1706 2847 1576 2781 
Q 1447 2716 1358 2575 
Q 1269 2434 1223 2215 
Q 1178 1997 1178 1688 
Q 1178 538 1869 538 
Q 2000 538 2131 594 
Q 2263 650 2366 784 
Q 2469 919 2533 1145 
Q 2597 1372 2597 1709 
z
" id="LiberationSans-Bold-64" transform="scale(0.015625)"/>
      <path d="M 1863 -1356 
Q 1528 -1356 1273 -1289 
Q 1019 -1222 839 -1101 
Q 659 -981 551 -814 
Q 444 -647 403 -447 
L 1281 -344 
Q 1328 -547 1483 -662 
Q 1638 -778 1888 -778 
Q 2044 -778 2173 -734 
Q 2303 -691 2395 -586 
Q 2488 -481 2539 -309 
Q 2591 -138 2591 116 
Q 2591 203 2591 293 
Q 2591 384 2594 459 
Q 2597 547 2597 628 
L 2591 628 
Q 2438 300 2161 153 
Q 1884 6 1503 6 
Q 1181 6 948 132 
Q 716 259 562 486 
Q 409 713 336 1027 
Q 263 1341 263 1719 
Q 263 2109 341 2426 
Q 419 2744 580 2972 
Q 741 3200 986 3323 
Q 1231 3447 1569 3447 
Q 1906 3447 2173 3303 
Q 2441 3159 2591 2838 
L 2606 2838 
Q 2606 2903 2611 2989 
Q 2616 3075 2622 3154 
Q 2628 3234 2636 3296 
Q 2644 3359 2650 3381 
L 3481 3381 
Q 3475 3269 3469 3066 
Q 3463 2863 3463 2600 
L 3463 103 
Q 3463 -266 3356 -539 
Q 3250 -813 3045 -994 
Q 2841 -1175 2542 -1265 
Q 2244 -1356 1863 -1356 
z
M 2597 1738 
Q 2597 2056 2534 2268 
Q 2472 2481 2372 2609 
Q 2272 2738 2142 2791 
Q 2013 2844 1881 2844 
Q 1713 2844 1583 2778 
Q 1453 2713 1362 2575 
Q 1272 2438 1225 2225 
Q 1178 2013 1178 1719 
Q 1178 1172 1353 894 
Q 1528 616 1875 616 
Q 2006 616 2136 667 
Q 2266 719 2369 848 
Q 2472 978 2534 1193 
Q 2597 1409 2597 1738 
z
" id="LiberationSans-Bold-67" transform="scale(0.015625)"/>
      <path d="M 1228 -63 
Q 984 -63 792 4 
Q 600 72 465 201 
Q 331 331 259 522 
Q 188 713 188 956 
Q 188 1256 292 1461 
Q 397 1666 578 1792 
Q 759 1919 1003 1976 
Q 1247 2034 1522 2038 
L 2250 2050 
L 2250 2222 
Q 2250 2406 2217 2529 
Q 2184 2653 2121 2731 
Q 2059 2809 1967 2842 
Q 1875 2875 1756 2875 
Q 1647 2875 1561 2853 
Q 1475 2831 1412 2776 
Q 1350 2722 1311 2630 
Q 1272 2538 1256 2397 
L 341 2441 
Q 378 2663 478 2845 
Q 578 3028 754 3162 
Q 931 3297 1189 3370 
Q 1447 3444 1794 3444 
Q 2109 3444 2356 3366 
Q 2603 3288 2775 3133 
Q 2947 2978 3037 2753 
Q 3128 2528 3128 2231 
L 3128 1000 
Q 3128 881 3139 787 
Q 3150 694 3179 630 
Q 3209 566 3264 533 
Q 3319 500 3406 500 
Q 3506 500 3600 519 
L 3600 44 
Q 3522 25 3459 9 
Q 3397 -6 3334 -15 
Q 3272 -25 3201 -31 
Q 3131 -38 3038 -38 
Q 2706 -38 2548 125 
Q 2391 288 2359 603 
L 2341 603 
Q 2166 288 1892 112 
Q 1619 -63 1228 -63 
z
M 2250 1566 
L 1800 1559 
Q 1659 1553 1532 1536 
Q 1406 1519 1311 1464 
Q 1216 1409 1159 1306 
Q 1103 1203 1103 1025 
Q 1103 784 1214 667 
Q 1325 550 1509 550 
Q 1678 550 1815 622 
Q 1953 694 2048 811 
Q 2144 928 2197 1081 
Q 2250 1234 2250 1394 
L 2250 1566 
z
" id="LiberationSans-Bold-61" transform="scale(0.015625)"/>
      <path d="M 2438 0 
L 2438 1897 
Q 2438 2094 2411 2258 
Q 2384 2422 2323 2539 
Q 2263 2656 2164 2722 
Q 2066 2788 1925 2788 
Q 1791 2788 1681 2717 
Q 1572 2647 1492 2517 
Q 1413 2388 1369 2208 
Q 1325 2028 1325 1813 
L 1325 0 
L 447 0 
L 447 2625 
Q 447 2734 445 2850 
Q 444 2966 439 3070 
Q 434 3175 431 3258 
Q 428 3341 422 3381 
L 1259 3381 
Q 1266 3344 1272 3261 
Q 1278 3178 1284 3078 
Q 1291 2978 1295 2878 
Q 1300 2778 1300 2709 
L 1313 2709 
Q 1475 3097 1717 3272 
Q 1959 3447 2297 3447 
Q 2684 3447 2920 3258 
Q 3156 3069 3238 2709 
L 3256 2709 
Q 3347 2919 3451 3059 
Q 3556 3200 3682 3286 
Q 3809 3372 3957 3409 
Q 4106 3447 4281 3447 
Q 4559 3447 4751 3347 
Q 4944 3247 5064 3072 
Q 5184 2897 5239 2659 
Q 5294 2422 5294 2147 
L 5294 0 
L 4422 0 
L 4422 1897 
Q 4422 2094 4395 2258 
Q 4369 2422 4308 2539 
Q 4247 2656 4148 2722 
Q 4050 2788 3909 2788 
Q 3778 2788 3670 2720 
Q 3563 2653 3483 2529 
Q 3403 2406 3359 2234 
Q 3316 2063 3309 1853 
L 3309 0 
L 2438 0 
z
" id="LiberationSans-Bold-6d" transform="scale(0.015625)"/>
      <path d="M 616 2350 
L 616 3231 
L 1516 3231 
L 1516 2350 
L 616 2350 
z
M 616 0 
L 616 878 
L 1516 878 
L 1516 0 
L 616 0 
z
" id="LiberationSans-Bold-3a" transform="scale(0.015625)"/>
      <path id="LiberationSans-Bold-20" transform="scale(0.015625)"/>
      <path d="M 428 0 
L 428 4403 
L 1350 4403 
L 1350 0 
L 428 0 
z
" id="LiberationSans-Bold-49" transform="scale(0.015625)"/>
      <path d="M 1766 709 
L 2613 3381 
L 3531 3381 
L 2284 0 
L 1234 0 
L 25 3381 
L 953 3381 
L 1766 709 
z
" id="LiberationSans-Bold-76" transform="scale(0.015625)"/>
      <path d="M 403 0 
L 403 653 
L 1494 653 
L 1494 3656 
L 438 2997 
L 438 3688 
L 1541 4403 
L 2372 4403 
L 2372 653 
L 3381 653 
L 3381 0 
L 403 0 
z
" id="LiberationSans-Bold-31" transform="scale(0.015625)"/>
      <path d="M 3328 1441 
Q 3328 1109 3234 832 
Q 3141 556 2955 357 
Q 2769 159 2491 48 
Q 2213 -63 1847 -63 
Q 1069 -63 651 482 
Q 234 1028 234 2100 
Q 234 3278 657 3873 
Q 1081 4469 1869 4469 
Q 2131 4469 2347 4414 
Q 2563 4359 2731 4237 
Q 2900 4116 3019 3923 
Q 3138 3731 3209 3456 
L 2381 3341 
Q 2319 3572 2178 3673 
Q 2038 3775 1850 3775 
Q 1497 3775 1295 3422 
Q 1094 3069 1094 2350 
Q 1234 2584 1484 2709 
Q 1734 2834 2050 2834 
Q 2341 2834 2577 2739 
Q 2813 2644 2980 2464 
Q 3147 2284 3237 2025 
Q 3328 1766 3328 1441 
z
M 2447 1416 
Q 2447 1594 2406 1736 
Q 2366 1878 2283 1978 
Q 2200 2078 2078 2133 
Q 1956 2188 1797 2188 
Q 1681 2188 1565 2150 
Q 1450 2113 1359 2030 
Q 1269 1947 1212 1819 
Q 1156 1691 1156 1509 
Q 1156 1322 1203 1159 
Q 1250 997 1336 876 
Q 1422 756 1544 689 
Q 1666 622 1819 622 
Q 2116 622 2281 833 
Q 2447 1044 2447 1416 
z
" id="LiberationSans-Bold-36" transform="scale(0.015625)"/>
      <path d="M 222 0 
L 222 609 
Q 372 938 587 1202 
Q 803 1466 1039 1686 
Q 1275 1906 1508 2095 
Q 1741 2284 1927 2461 
Q 2113 2638 2228 2816 
Q 2344 2994 2344 3194 
Q 2344 3488 2197 3628 
Q 2050 3769 1766 3769 
Q 1484 3769 1336 3617 
Q 1188 3466 1144 3163 
L 259 3213 
Q 291 3472 387 3700 
Q 484 3928 664 4100 
Q 844 4272 1114 4370 
Q 1384 4469 1759 4469 
Q 2116 4469 2391 4386 
Q 2666 4303 2853 4143 
Q 3041 3984 3137 3754 
Q 3234 3525 3234 3231 
Q 3234 2922 3112 2672 
Q 2991 2422 2800 2211 
Q 2609 2000 2376 1815 
Q 2144 1631 1925 1456 
Q 1706 1281 1526 1103 
Q 1347 925 1259 722 
L 3303 722 
L 3303 0 
L 222 0 
z
" id="LiberationSans-Bold-32" transform="scale(0.015625)"/>
      <path d="M 3278 3706 
Q 2981 3238 2717 2797 
Q 2453 2356 2256 1911 
Q 2059 1466 1945 995 
Q 1831 525 1831 0 
L 916 0 
Q 916 522 1039 992 
Q 1163 1463 1375 1909 
Q 1588 2356 1869 2792 
Q 2150 3228 2463 3681 
L 275 3681 
L 275 4403 
L 3278 4403 
L 3278 3706 
z
" id="LiberationSans-Bold-37" transform="scale(0.015625)"/>
     </defs>
     <use xlink:href="#LiberationSans-Bold-50"/>
     <use x="66.699219" xlink:href="#LiberationSans-Bold-65"/>
     <use x="122.314453" xlink:href="#LiberationSans-Bold-72"/>
     <use x="161.230469" xlink:href="#LiberationSans-Bold-69"/>
     <use x="189.013672" xlink:href="#LiberationSans-Bold-6f"/>
     <use x="250.097656" xlink:href="#LiberationSans-Bold-64"/>
     <use x="311.181641" xlink:href="#LiberationSans-Bold-6f"/>
     <use x="372.265625" xlink:href="#LiberationSans-Bold-67"/>
     <use x="433.349609" xlink:href="#LiberationSans-Bold-72"/>
     <use x="472.265625" xlink:href="#LiberationSans-Bold-61"/>
     <use x="527.880859" xlink:href="#LiberationSans-Bold-6d"/>
     <use x="616.796875" xlink:href="#LiberationSans-Bold-3a"/>
     <use x="650.097656" xlink:href="#LiberationSans-Bold-20"/>
     <use x="677.880859" xlink:href="#LiberationSans-Bold-49"/>
     <use x="705.664062" xlink:href="#LiberationSans-Bold-76"/>
     <use x="761.279297" xlink:href="#LiberationSans-Bold-61"/>
     <use x="816.894531" xlink:href="#LiberationSans-Bold-72"/>
     <use x="855.810547" xlink:href="#LiberationSans-Bold-20"/>
     <use x="883.59375" xlink:href="#LiberationSans-Bold-31"/>
     <use x="939.208984" xlink:href="#LiberationSans-Bold-36"/>
     <use x="994.824219" xlink:href="#LiberationSans-Bold-32"/>
     <use x="1050.439453" xlink:href="#LiberationSans-Bold-37"/>
    </g>
   </g>
  </g>
 </g>
 <defs>
  <clipPath id="p4d8d2b3e4b">
   <rect height="332.64" width="558" x="90" y="51.84"/>
  </clipPath>
 </defs>
</svg>
