<?xml version="1.0" encoding="utf-8" standalone="no"?>
<!DOCTYPE svg PUBLIC "-//W3C//DTD SVG 1.1//EN"
  "http://www.w3.org/Graphics/SVG/1.1/DTD/svg11.dtd">
<svg height="432pt" version="1.1" viewBox="0 0 720 432" width="720pt" xmlns="http://www.w3.org/2000/svg" xmlns:xlink="http://www.w3.org/1999/xlink">
 <metadata>
  <rdf:RDF xmlns:cc="http://creativecommons.org/ns#" xmlns:dc="http://purl.org/dc/elements/1.1/" xmlns:rdf="http://www.w3.org/1999/02/22-rdf-syntax-ns#">
   <cc:Work>
    <dc:type rdf:resource="http://purl.org/dc/dcmitype/StillImage"/>
    <dc:date>2021-09-06T17:01:54.578738</dc:date>
    <dc:format>image/svg+xml</dc:format>
    <dc:creator>
     <cc:Agent>
      <dc:title>Matplotlib v3.4.2, https://matplotlib.org/</dc:title>
     </cc:Agent>
    </dc:creator>
   </cc:Work>
  </rdf:RDF>
 </metadata>
 <defs>
  <style type="text/css">*{stroke-linecap:butt;stroke-linejoin:round;}</style>
 </defs>
 <g id="figure_1">
  <g id="patch_1">
   <path d="M 0 432 
L 720 432 
L 720 0 
L 0 0 
z
" style="fill:#ffffff;"/>
  </g>
  <g id="axes_1">
   <g id="patch_2">
    <path d="M 90 384.48 
L 648 384.48 
L 648 51.84 
L 90 51.84 
z
" style="fill:#ffffff;"/>
   </g>
   <g id="matplotlib.axis_1">
    <g id="xtick_1">
     <g id="line2d_1">
      <path clip-path="url(#p0dbf5c99d8)" d="M 90 384.48 
L 90 51.84 
" style="fill:none;stroke:#808080;stroke-linecap:square;stroke-width:0.4;"/>
     </g>
     <g id="line2d_2">
      <defs>
       <path d="M 0 0 
L 0 -3.5 
" id="mcfc6d0630f" style="stroke:#000000;stroke-width:0.8;"/>
      </defs>
      <g>
       <use style="stroke:#000000;stroke-width:0.8;" x="90" xlink:href="#mcfc6d0630f" y="384.48"/>
      </g>
     </g>
     <g id="line2d_3">
      <defs>
       <path d="M 0 0 
L 0 3.5 
" id="m6b6ed470a1" style="stroke:#000000;stroke-width:0.8;"/>
      </defs>
      <g>
       <use style="stroke:#000000;stroke-width:0.8;" x="90" xlink:href="#m6b6ed470a1" y="51.84"/>
      </g>
     </g>
     <g id="text_1">
      <!-- $\mathdefault{0}$ -->
      <g transform="translate(86.341881 398.357725)scale(0.15 -0.15)">
       <defs>
        <path d="M 2688 2025 
C 2688 2416 2682 3080 2413 3591 
C 2176 4039 1798 4198 1466 4198 
C 1158 4198 768 4058 525 3597 
C 269 3118 243 2524 243 2025 
C 243 1661 250 1106 448 619 
C 723 -39 1216 -128 1466 -128 
C 1760 -128 2208 -7 2470 600 
C 2662 1042 2688 1559 2688 2025 
z
M 1466 -26 
C 1056 -26 813 325 723 812 
C 653 1188 653 1738 653 2096 
C 653 2588 653 2997 736 3387 
C 858 3929 1216 4096 1466 4096 
C 1728 4096 2067 3923 2189 3400 
C 2272 3036 2278 2607 2278 2096 
C 2278 1680 2278 1169 2202 792 
C 2067 95 1690 -26 1466 -26 
z
" id="CMR17-30" transform="scale(0.015625)"/>
       </defs>
       <use transform="scale(0.996264)" xlink:href="#CMR17-30"/>
      </g>
     </g>
    </g>
    <g id="xtick_2">
     <g id="line2d_4">
      <path clip-path="url(#p0dbf5c99d8)" d="M 175.846154 384.48 
L 175.846154 51.84 
" style="fill:none;stroke:#808080;stroke-linecap:square;stroke-width:0.4;"/>
     </g>
     <g id="line2d_5">
      <g>
       <use style="stroke:#000000;stroke-width:0.8;" x="175.846154" xlink:href="#mcfc6d0630f" y="384.48"/>
      </g>
     </g>
     <g id="line2d_6">
      <g>
       <use style="stroke:#000000;stroke-width:0.8;" x="175.846154" xlink:href="#m6b6ed470a1" y="51.84"/>
      </g>
     </g>
     <g id="text_2">
      <!-- $\mathdefault{2}$ -->
      <g transform="translate(172.188035 398.357725)scale(0.15 -0.15)">
       <defs>
        <path d="M 2669 989 
L 2554 989 
C 2490 536 2438 459 2413 420 
C 2381 369 1920 369 1830 369 
L 602 369 
C 832 619 1280 1072 1824 1597 
C 2214 1967 2669 2402 2669 3035 
C 2669 3790 2067 4224 1395 4224 
C 691 4224 262 3604 262 3030 
C 262 2780 448 2748 525 2748 
C 589 2748 781 2787 781 3010 
C 781 3207 614 3264 525 3264 
C 486 3264 448 3258 422 3245 
C 544 3790 915 4058 1306 4058 
C 1862 4058 2227 3617 2227 3035 
C 2227 2479 1901 2000 1536 1584 
L 262 146 
L 262 0 
L 2515 0 
L 2669 989 
z
" id="CMR17-32" transform="scale(0.015625)"/>
       </defs>
       <use transform="scale(0.996264)" xlink:href="#CMR17-32"/>
      </g>
     </g>
    </g>
    <g id="xtick_3">
     <g id="line2d_7">
      <path clip-path="url(#p0dbf5c99d8)" d="M 261.692308 384.48 
L 261.692308 51.84 
" style="fill:none;stroke:#808080;stroke-linecap:square;stroke-width:0.4;"/>
     </g>
     <g id="line2d_8">
      <g>
       <use style="stroke:#000000;stroke-width:0.8;" x="261.692308" xlink:href="#mcfc6d0630f" y="384.48"/>
      </g>
     </g>
     <g id="line2d_9">
      <g>
       <use style="stroke:#000000;stroke-width:0.8;" x="261.692308" xlink:href="#m6b6ed470a1" y="51.84"/>
      </g>
     </g>
     <g id="text_3">
      <!-- $\mathdefault{4}$ -->
      <g transform="translate(258.034189 398.357725)scale(0.15 -0.15)">
       <defs>
        <path d="M 2150 4122 
C 2150 4256 2144 4256 2029 4256 
L 128 1254 
L 128 1088 
L 1779 1088 
L 1779 457 
C 1779 224 1766 160 1318 160 
L 1197 160 
L 1197 0 
C 1402 0 1747 0 1965 0 
C 2182 0 2528 0 2733 0 
L 2733 160 
L 2611 160 
C 2163 160 2150 224 2150 457 
L 2150 1088 
L 2803 1088 
L 2803 1254 
L 2150 1254 
L 2150 4122 
z
M 1798 3703 
L 1798 1254 
L 256 1254 
L 1798 3703 
z
" id="CMR17-34" transform="scale(0.015625)"/>
       </defs>
       <use transform="scale(0.996264)" xlink:href="#CMR17-34"/>
      </g>
     </g>
    </g>
    <g id="xtick_4">
     <g id="line2d_10">
      <path clip-path="url(#p0dbf5c99d8)" d="M 347.538462 384.48 
L 347.538462 51.84 
" style="fill:none;stroke:#808080;stroke-linecap:square;stroke-width:0.4;"/>
     </g>
     <g id="line2d_11">
      <g>
       <use style="stroke:#000000;stroke-width:0.8;" x="347.538462" xlink:href="#mcfc6d0630f" y="384.48"/>
      </g>
     </g>
     <g id="line2d_12">
      <g>
       <use style="stroke:#000000;stroke-width:0.8;" x="347.538462" xlink:href="#m6b6ed470a1" y="51.84"/>
      </g>
     </g>
     <g id="text_4">
      <!-- $\mathdefault{6}$ -->
      <g transform="translate(343.880343 398.357725)scale(0.15 -0.15)">
       <defs>
        <path d="M 678 2176 
C 678 3690 1395 4032 1811 4032 
C 1946 4032 2272 4009 2400 3776 
C 2298 3776 2106 3776 2106 3553 
C 2106 3381 2246 3323 2336 3323 
C 2394 3323 2566 3348 2566 3560 
C 2566 3954 2246 4179 1805 4179 
C 1043 4179 243 3390 243 1984 
C 243 253 966 -128 1478 -128 
C 2099 -128 2688 427 2688 1283 
C 2688 2081 2170 2662 1517 2662 
C 1126 2662 838 2407 678 1960 
L 678 2176 
z
M 1478 25 
C 691 25 691 1200 691 1436 
C 691 1896 909 2560 1504 2560 
C 1613 2560 1926 2560 2138 2120 
C 2253 1870 2253 1609 2253 1289 
C 2253 944 2253 690 2118 434 
C 1978 171 1773 25 1478 25 
z
" id="CMR17-36" transform="scale(0.015625)"/>
       </defs>
       <use transform="scale(0.996264)" xlink:href="#CMR17-36"/>
      </g>
     </g>
    </g>
    <g id="xtick_5">
     <g id="line2d_13">
      <path clip-path="url(#p0dbf5c99d8)" d="M 433.384615 384.48 
L 433.384615 51.84 
" style="fill:none;stroke:#808080;stroke-linecap:square;stroke-width:0.4;"/>
     </g>
     <g id="line2d_14">
      <g>
       <use style="stroke:#000000;stroke-width:0.8;" x="433.384615" xlink:href="#mcfc6d0630f" y="384.48"/>
      </g>
     </g>
     <g id="line2d_15">
      <g>
       <use style="stroke:#000000;stroke-width:0.8;" x="433.384615" xlink:href="#m6b6ed470a1" y="51.84"/>
      </g>
     </g>
     <g id="text_5">
      <!-- $\mathdefault{8}$ -->
      <g transform="translate(429.726496 398.357725)scale(0.15 -0.15)">
       <defs>
        <path d="M 1741 2264 
C 2144 2467 2554 2773 2554 3263 
C 2554 3841 1990 4179 1472 4179 
C 890 4179 378 3759 378 3180 
C 378 3021 416 2747 666 2505 
C 730 2442 998 2251 1171 2130 
C 883 1983 211 1634 211 934 
C 211 279 838 -128 1459 -128 
C 2144 -128 2720 362 2720 1010 
C 2720 1590 2330 1857 2074 2029 
L 1741 2264 
z
M 902 2822 
C 851 2854 595 3051 595 3351 
C 595 3739 998 4032 1459 4032 
C 1965 4032 2336 3676 2336 3262 
C 2336 2669 1670 2331 1638 2331 
C 1632 2331 1626 2331 1574 2370 
L 902 2822 
z
M 2080 1519 
C 2176 1449 2483 1240 2483 851 
C 2483 381 2010 25 1472 25 
C 890 25 448 438 448 940 
C 448 1443 838 1862 1280 2060 
L 2080 1519 
z
" id="CMR17-38" transform="scale(0.015625)"/>
       </defs>
       <use transform="scale(0.996264)" xlink:href="#CMR17-38"/>
      </g>
     </g>
    </g>
    <g id="xtick_6">
     <g id="line2d_16">
      <path clip-path="url(#p0dbf5c99d8)" d="M 519.230769 384.48 
L 519.230769 51.84 
" style="fill:none;stroke:#808080;stroke-linecap:square;stroke-width:0.4;"/>
     </g>
     <g id="line2d_17">
      <g>
       <use style="stroke:#000000;stroke-width:0.8;" x="519.230769" xlink:href="#mcfc6d0630f" y="384.48"/>
      </g>
     </g>
     <g id="line2d_18">
      <g>
       <use style="stroke:#000000;stroke-width:0.8;" x="519.230769" xlink:href="#m6b6ed470a1" y="51.84"/>
      </g>
     </g>
     <g id="text_6">
      <!-- $\mathdefault{10}$ -->
      <g transform="translate(511.914531 398.357725)scale(0.15 -0.15)">
       <defs>
        <path d="M 1702 4058 
C 1702 4192 1696 4192 1606 4192 
C 1357 3916 979 3827 621 3827 
C 602 3827 570 3827 563 3808 
C 557 3795 557 3782 557 3648 
C 755 3648 1088 3686 1344 3839 
L 1344 461 
C 1344 236 1331 160 781 160 
L 589 160 
L 589 0 
C 896 0 1216 0 1523 0 
C 1830 0 2150 0 2458 0 
L 2458 160 
L 2266 160 
C 1715 160 1702 230 1702 458 
L 1702 4058 
z
" id="CMR17-31" transform="scale(0.015625)"/>
       </defs>
       <use transform="scale(0.996264)" xlink:href="#CMR17-31"/>
       <use transform="translate(45.690477 0)scale(0.996264)" xlink:href="#CMR17-30"/>
      </g>
     </g>
    </g>
    <g id="xtick_7">
     <g id="line2d_19">
      <path clip-path="url(#p0dbf5c99d8)" d="M 605.076923 384.48 
L 605.076923 51.84 
" style="fill:none;stroke:#808080;stroke-linecap:square;stroke-width:0.4;"/>
     </g>
     <g id="line2d_20">
      <g>
       <use style="stroke:#000000;stroke-width:0.8;" x="605.076923" xlink:href="#mcfc6d0630f" y="384.48"/>
      </g>
     </g>
     <g id="line2d_21">
      <g>
       <use style="stroke:#000000;stroke-width:0.8;" x="605.076923" xlink:href="#m6b6ed470a1" y="51.84"/>
      </g>
     </g>
     <g id="text_7">
      <!-- $\mathdefault{12}$ -->
      <g transform="translate(597.760685 398.357725)scale(0.15 -0.15)">
       <use transform="scale(0.996264)" xlink:href="#CMR17-31"/>
       <use transform="translate(45.690477 0)scale(0.996264)" xlink:href="#CMR17-32"/>
      </g>
     </g>
    </g>
    <g id="xtick_8">
     <g id="line2d_22">
      <path clip-path="url(#p0dbf5c99d8)" d="M 111.461538 384.48 
L 111.461538 51.84 
" style="fill:none;stroke:#808080;stroke-dasharray:0.74,0.32;stroke-dashoffset:0;stroke-width:0.2;"/>
     </g>
     <g id="line2d_23">
      <defs>
       <path d="M 0 0 
L 0 -2 
" id="mc339c95728" style="stroke:#000000;stroke-width:0.6;"/>
      </defs>
      <g>
       <use style="stroke:#000000;stroke-width:0.6;" x="111.461538" xlink:href="#mc339c95728" y="384.48"/>
      </g>
     </g>
     <g id="line2d_24">
      <defs>
       <path d="M 0 0 
L 0 2 
" id="mc4d4758a8d" style="stroke:#000000;stroke-width:0.6;"/>
      </defs>
      <g>
       <use style="stroke:#000000;stroke-width:0.6;" x="111.461538" xlink:href="#mc4d4758a8d" y="51.84"/>
      </g>
     </g>
    </g>
    <g id="xtick_9">
     <g id="line2d_25">
      <path clip-path="url(#p0dbf5c99d8)" d="M 132.923077 384.48 
L 132.923077 51.84 
" style="fill:none;stroke:#808080;stroke-dasharray:0.74,0.32;stroke-dashoffset:0;stroke-width:0.2;"/>
     </g>
     <g id="line2d_26">
      <g>
       <use style="stroke:#000000;stroke-width:0.6;" x="132.923077" xlink:href="#mc339c95728" y="384.48"/>
      </g>
     </g>
     <g id="line2d_27">
      <g>
       <use style="stroke:#000000;stroke-width:0.6;" x="132.923077" xlink:href="#mc4d4758a8d" y="51.84"/>
      </g>
     </g>
    </g>
    <g id="xtick_10">
     <g id="line2d_28">
      <path clip-path="url(#p0dbf5c99d8)" d="M 154.384615 384.48 
L 154.384615 51.84 
" style="fill:none;stroke:#808080;stroke-dasharray:0.74,0.32;stroke-dashoffset:0;stroke-width:0.2;"/>
     </g>
     <g id="line2d_29">
      <g>
       <use style="stroke:#000000;stroke-width:0.6;" x="154.384615" xlink:href="#mc339c95728" y="384.48"/>
      </g>
     </g>
     <g id="line2d_30">
      <g>
       <use style="stroke:#000000;stroke-width:0.6;" x="154.384615" xlink:href="#mc4d4758a8d" y="51.84"/>
      </g>
     </g>
    </g>
    <g id="xtick_11">
     <g id="line2d_31">
      <path clip-path="url(#p0dbf5c99d8)" d="M 197.307692 384.48 
L 197.307692 51.84 
" style="fill:none;stroke:#808080;stroke-dasharray:0.74,0.32;stroke-dashoffset:0;stroke-width:0.2;"/>
     </g>
     <g id="line2d_32">
      <g>
       <use style="stroke:#000000;stroke-width:0.6;" x="197.307692" xlink:href="#mc339c95728" y="384.48"/>
      </g>
     </g>
     <g id="line2d_33">
      <g>
       <use style="stroke:#000000;stroke-width:0.6;" x="197.307692" xlink:href="#mc4d4758a8d" y="51.84"/>
      </g>
     </g>
    </g>
    <g id="xtick_12">
     <g id="line2d_34">
      <path clip-path="url(#p0dbf5c99d8)" d="M 218.769231 384.48 
L 218.769231 51.84 
" style="fill:none;stroke:#808080;stroke-dasharray:0.74,0.32;stroke-dashoffset:0;stroke-width:0.2;"/>
     </g>
     <g id="line2d_35">
      <g>
       <use style="stroke:#000000;stroke-width:0.6;" x="218.769231" xlink:href="#mc339c95728" y="384.48"/>
      </g>
     </g>
     <g id="line2d_36">
      <g>
       <use style="stroke:#000000;stroke-width:0.6;" x="218.769231" xlink:href="#mc4d4758a8d" y="51.84"/>
      </g>
     </g>
    </g>
    <g id="xtick_13">
     <g id="line2d_37">
      <path clip-path="url(#p0dbf5c99d8)" d="M 240.230769 384.48 
L 240.230769 51.84 
" style="fill:none;stroke:#808080;stroke-dasharray:0.74,0.32;stroke-dashoffset:0;stroke-width:0.2;"/>
     </g>
     <g id="line2d_38">
      <g>
       <use style="stroke:#000000;stroke-width:0.6;" x="240.230769" xlink:href="#mc339c95728" y="384.48"/>
      </g>
     </g>
     <g id="line2d_39">
      <g>
       <use style="stroke:#000000;stroke-width:0.6;" x="240.230769" xlink:href="#mc4d4758a8d" y="51.84"/>
      </g>
     </g>
    </g>
    <g id="xtick_14">
     <g id="line2d_40">
      <path clip-path="url(#p0dbf5c99d8)" d="M 283.153846 384.48 
L 283.153846 51.84 
" style="fill:none;stroke:#808080;stroke-dasharray:0.74,0.32;stroke-dashoffset:0;stroke-width:0.2;"/>
     </g>
     <g id="line2d_41">
      <g>
       <use style="stroke:#000000;stroke-width:0.6;" x="283.153846" xlink:href="#mc339c95728" y="384.48"/>
      </g>
     </g>
     <g id="line2d_42">
      <g>
       <use style="stroke:#000000;stroke-width:0.6;" x="283.153846" xlink:href="#mc4d4758a8d" y="51.84"/>
      </g>
     </g>
    </g>
    <g id="xtick_15">
     <g id="line2d_43">
      <path clip-path="url(#p0dbf5c99d8)" d="M 304.615385 384.48 
L 304.615385 51.84 
" style="fill:none;stroke:#808080;stroke-dasharray:0.74,0.32;stroke-dashoffset:0;stroke-width:0.2;"/>
     </g>
     <g id="line2d_44">
      <g>
       <use style="stroke:#000000;stroke-width:0.6;" x="304.615385" xlink:href="#mc339c95728" y="384.48"/>
      </g>
     </g>
     <g id="line2d_45">
      <g>
       <use style="stroke:#000000;stroke-width:0.6;" x="304.615385" xlink:href="#mc4d4758a8d" y="51.84"/>
      </g>
     </g>
    </g>
    <g id="xtick_16">
     <g id="line2d_46">
      <path clip-path="url(#p0dbf5c99d8)" d="M 326.076923 384.48 
L 326.076923 51.84 
" style="fill:none;stroke:#808080;stroke-dasharray:0.74,0.32;stroke-dashoffset:0;stroke-width:0.2;"/>
     </g>
     <g id="line2d_47">
      <g>
       <use style="stroke:#000000;stroke-width:0.6;" x="326.076923" xlink:href="#mc339c95728" y="384.48"/>
      </g>
     </g>
     <g id="line2d_48">
      <g>
       <use style="stroke:#000000;stroke-width:0.6;" x="326.076923" xlink:href="#mc4d4758a8d" y="51.84"/>
      </g>
     </g>
    </g>
    <g id="xtick_17">
     <g id="line2d_49">
      <path clip-path="url(#p0dbf5c99d8)" d="M 369 384.48 
L 369 51.84 
" style="fill:none;stroke:#808080;stroke-dasharray:0.74,0.32;stroke-dashoffset:0;stroke-width:0.2;"/>
     </g>
     <g id="line2d_50">
      <g>
       <use style="stroke:#000000;stroke-width:0.6;" x="369" xlink:href="#mc339c95728" y="384.48"/>
      </g>
     </g>
     <g id="line2d_51">
      <g>
       <use style="stroke:#000000;stroke-width:0.6;" x="369" xlink:href="#mc4d4758a8d" y="51.84"/>
      </g>
     </g>
    </g>
    <g id="xtick_18">
     <g id="line2d_52">
      <path clip-path="url(#p0dbf5c99d8)" d="M 390.461538 384.48 
L 390.461538 51.84 
" style="fill:none;stroke:#808080;stroke-dasharray:0.74,0.32;stroke-dashoffset:0;stroke-width:0.2;"/>
     </g>
     <g id="line2d_53">
      <g>
       <use style="stroke:#000000;stroke-width:0.6;" x="390.461538" xlink:href="#mc339c95728" y="384.48"/>
      </g>
     </g>
     <g id="line2d_54">
      <g>
       <use style="stroke:#000000;stroke-width:0.6;" x="390.461538" xlink:href="#mc4d4758a8d" y="51.84"/>
      </g>
     </g>
    </g>
    <g id="xtick_19">
     <g id="line2d_55">
      <path clip-path="url(#p0dbf5c99d8)" d="M 411.923077 384.48 
L 411.923077 51.84 
" style="fill:none;stroke:#808080;stroke-dasharray:0.74,0.32;stroke-dashoffset:0;stroke-width:0.2;"/>
     </g>
     <g id="line2d_56">
      <g>
       <use style="stroke:#000000;stroke-width:0.6;" x="411.923077" xlink:href="#mc339c95728" y="384.48"/>
      </g>
     </g>
     <g id="line2d_57">
      <g>
       <use style="stroke:#000000;stroke-width:0.6;" x="411.923077" xlink:href="#mc4d4758a8d" y="51.84"/>
      </g>
     </g>
    </g>
    <g id="xtick_20">
     <g id="line2d_58">
      <path clip-path="url(#p0dbf5c99d8)" d="M 454.846154 384.48 
L 454.846154 51.84 
" style="fill:none;stroke:#808080;stroke-dasharray:0.74,0.32;stroke-dashoffset:0;stroke-width:0.2;"/>
     </g>
     <g id="line2d_59">
      <g>
       <use style="stroke:#000000;stroke-width:0.6;" x="454.846154" xlink:href="#mc339c95728" y="384.48"/>
      </g>
     </g>
     <g id="line2d_60">
      <g>
       <use style="stroke:#000000;stroke-width:0.6;" x="454.846154" xlink:href="#mc4d4758a8d" y="51.84"/>
      </g>
     </g>
    </g>
    <g id="xtick_21">
     <g id="line2d_61">
      <path clip-path="url(#p0dbf5c99d8)" d="M 476.307692 384.48 
L 476.307692 51.84 
" style="fill:none;stroke:#808080;stroke-dasharray:0.74,0.32;stroke-dashoffset:0;stroke-width:0.2;"/>
     </g>
     <g id="line2d_62">
      <g>
       <use style="stroke:#000000;stroke-width:0.6;" x="476.307692" xlink:href="#mc339c95728" y="384.48"/>
      </g>
     </g>
     <g id="line2d_63">
      <g>
       <use style="stroke:#000000;stroke-width:0.6;" x="476.307692" xlink:href="#mc4d4758a8d" y="51.84"/>
      </g>
     </g>
    </g>
    <g id="xtick_22">
     <g id="line2d_64">
      <path clip-path="url(#p0dbf5c99d8)" d="M 497.769231 384.48 
L 497.769231 51.84 
" style="fill:none;stroke:#808080;stroke-dasharray:0.74,0.32;stroke-dashoffset:0;stroke-width:0.2;"/>
     </g>
     <g id="line2d_65">
      <g>
       <use style="stroke:#000000;stroke-width:0.6;" x="497.769231" xlink:href="#mc339c95728" y="384.48"/>
      </g>
     </g>
     <g id="line2d_66">
      <g>
       <use style="stroke:#000000;stroke-width:0.6;" x="497.769231" xlink:href="#mc4d4758a8d" y="51.84"/>
      </g>
     </g>
    </g>
    <g id="xtick_23">
     <g id="line2d_67">
      <path clip-path="url(#p0dbf5c99d8)" d="M 540.692308 384.48 
L 540.692308 51.84 
" style="fill:none;stroke:#808080;stroke-dasharray:0.74,0.32;stroke-dashoffset:0;stroke-width:0.2;"/>
     </g>
     <g id="line2d_68">
      <g>
       <use style="stroke:#000000;stroke-width:0.6;" x="540.692308" xlink:href="#mc339c95728" y="384.48"/>
      </g>
     </g>
     <g id="line2d_69">
      <g>
       <use style="stroke:#000000;stroke-width:0.6;" x="540.692308" xlink:href="#mc4d4758a8d" y="51.84"/>
      </g>
     </g>
    </g>
    <g id="xtick_24">
     <g id="line2d_70">
      <path clip-path="url(#p0dbf5c99d8)" d="M 562.153846 384.48 
L 562.153846 51.84 
" style="fill:none;stroke:#808080;stroke-dasharray:0.74,0.32;stroke-dashoffset:0;stroke-width:0.2;"/>
     </g>
     <g id="line2d_71">
      <g>
       <use style="stroke:#000000;stroke-width:0.6;" x="562.153846" xlink:href="#mc339c95728" y="384.48"/>
      </g>
     </g>
     <g id="line2d_72">
      <g>
       <use style="stroke:#000000;stroke-width:0.6;" x="562.153846" xlink:href="#mc4d4758a8d" y="51.84"/>
      </g>
     </g>
    </g>
    <g id="xtick_25">
     <g id="line2d_73">
      <path clip-path="url(#p0dbf5c99d8)" d="M 583.615385 384.48 
L 583.615385 51.84 
" style="fill:none;stroke:#808080;stroke-dasharray:0.74,0.32;stroke-dashoffset:0;stroke-width:0.2;"/>
     </g>
     <g id="line2d_74">
      <g>
       <use style="stroke:#000000;stroke-width:0.6;" x="583.615385" xlink:href="#mc339c95728" y="384.48"/>
      </g>
     </g>
     <g id="line2d_75">
      <g>
       <use style="stroke:#000000;stroke-width:0.6;" x="583.615385" xlink:href="#mc4d4758a8d" y="51.84"/>
      </g>
     </g>
    </g>
    <g id="xtick_26">
     <g id="line2d_76">
      <path clip-path="url(#p0dbf5c99d8)" d="M 626.538462 384.48 
L 626.538462 51.84 
" style="fill:none;stroke:#808080;stroke-dasharray:0.74,0.32;stroke-dashoffset:0;stroke-width:0.2;"/>
     </g>
     <g id="line2d_77">
      <g>
       <use style="stroke:#000000;stroke-width:0.6;" x="626.538462" xlink:href="#mc339c95728" y="384.48"/>
      </g>
     </g>
     <g id="line2d_78">
      <g>
       <use style="stroke:#000000;stroke-width:0.6;" x="626.538462" xlink:href="#mc4d4758a8d" y="51.84"/>
      </g>
     </g>
    </g>
    <g id="xtick_27">
     <g id="line2d_79">
      <path clip-path="url(#p0dbf5c99d8)" d="M 648 384.48 
L 648 51.84 
" style="fill:none;stroke:#808080;stroke-dasharray:0.74,0.32;stroke-dashoffset:0;stroke-width:0.2;"/>
     </g>
     <g id="line2d_80">
      <g>
       <use style="stroke:#000000;stroke-width:0.6;" x="648" xlink:href="#mc339c95728" y="384.48"/>
      </g>
     </g>
     <g id="line2d_81">
      <g>
       <use style="stroke:#000000;stroke-width:0.6;" x="648" xlink:href="#mc4d4758a8d" y="51.84"/>
      </g>
     </g>
    </g>
    <g id="text_8">
     <!-- Hours -->
     <g transform="translate(350.061665 415.641194)scale(0.15 -0.15)">
      <defs>
       <path d="M 3590 3905 
C 3590 4192 3661 4192 4102 4192 
L 4102 4352 
C 3917 4352 3578 4352 3379 4352 
C 3181 4352 2842 4352 2656 4352 
L 2656 4192 
C 3098 4192 3168 4192 3168 3904 
L 3168 2341 
L 1261 2341 
L 1261 3904 
C 1261 4192 1331 4192 1773 4192 
L 1773 4352 
C 1587 4352 1248 4352 1050 4352 
C 851 4352 512 4352 326 4352 
L 326 4192 
C 768 4192 838 4192 838 3905 
L 838 447 
C 838 160 768 160 326 160 
L 326 0 
C 512 0 851 0 1050 0 
C 1248 0 1587 0 1773 0 
L 1773 160 
C 1331 160 1261 160 1261 446 
L 1261 2176 
L 3168 2176 
L 3168 446 
C 3168 160 3098 160 2656 160 
L 2656 0 
C 2842 0 3181 0 3379 0 
C 3578 0 3917 0 4102 0 
L 4102 160 
C 3661 160 3590 160 3590 447 
L 3590 3905 
z
" id="CMR17-48" transform="scale(0.015625)"/>
       <path d="M 2758 1356 
C 2758 2176 2163 2816 1466 2816 
C 768 2816 173 2176 173 1356 
C 173 551 768 -64 1466 -64 
C 2163 -64 2758 551 2758 1356 
z
M 1466 51 
C 1165 51 909 230 762 480 
C 602 767 582 1126 582 1408 
C 582 1677 595 2010 762 2298 
C 890 2509 1139 2714 1466 2714 
C 1754 2714 1997 2554 2150 2330 
C 2349 2029 2349 1607 2349 1408 
C 2349 1158 2336 775 2163 467 
C 1984 173 1709 51 1466 51 
z
" id="CMR17-6f" transform="scale(0.015625)"/>
       <path d="M 1882 2693 
L 1882 2528 
C 2259 2528 2317 2489 2317 2186 
L 2317 1032 
C 2317 500 2029 38 1555 38 
C 1030 38 986 348 986 678 
L 986 2763 
L 211 2693 
L 211 2528 
C 467 2528 640 2528 646 2274 
L 646 1058 
C 646 633 646 361 813 183 
C 896 101 1056 -64 1517 -64 
C 2061 -64 2272 377 2323 506 
L 2330 506 
L 2330 -63 
L 3091 -63 
L 3091 128 
C 2714 128 2656 166 2656 473 
L 2656 2763 
L 1882 2693 
z
" id="CMR17-75" transform="scale(0.015625)"/>
       <path d="M 960 1497 
C 960 2112 1222 2688 1702 2688 
C 1747 2688 1792 2682 1837 2662 
C 1837 2662 1696 2617 1696 2452 
C 1696 2298 1818 2234 1914 2234 
C 1990 2234 2131 2279 2131 2458 
C 2131 2663 1926 2790 1709 2790 
C 1222 2790 1011 2317 947 2093 
L 941 2093 
L 941 2790 
L 198 2720 
L 198 2554 
C 576 2554 634 2515 634 2208 
L 634 428 
C 634 184 608 153 198 153 
L 198 -13 
C 352 0 646 0 813 0 
C 998 0 1325 0 1498 -13 
L 1498 153 
C 1037 153 960 153 960 440 
L 960 1497 
z
" id="CMR17-72" transform="scale(0.015625)"/>
       <path d="M 1978 2697 
C 1978 2813 1971 2819 1933 2819 
C 1907 2819 1901 2813 1824 2717 
C 1805 2691 1747 2626 1728 2601 
C 1523 2819 1235 2819 1126 2819 
C 416 2819 160 2447 160 2076 
C 160 1498 813 1365 998 1325 
C 1402 1243 1542 1217 1677 1101 
C 1760 1025 1901 884 1901 654 
C 1901 384 1747 38 1158 38 
C 602 38 403 460 288 1021 
C 269 1110 269 1117 218 1117 
C 166 1117 160 1110 160 983 
L 160 63 
C 160 -51 166 -58 205 -58 
C 237 -58 243 -51 275 0 
C 314 57 410 211 448 276 
C 576 103 800 -64 1158 -64 
C 1792 -64 2131 283 2131 784 
C 2131 1112 1958 1285 1875 1362 
C 1683 1561 1459 1606 1190 1657 
C 838 1735 390 1825 390 2217 
C 390 2383 480 2737 1126 2737 
C 1811 2737 1850 2094 1862 1888 
C 1869 1856 1901 1849 1920 1849 
C 1978 1849 1978 1869 1978 1978 
L 1978 2697 
z
" id="CMR17-73" transform="scale(0.015625)"/>
      </defs>
      <use transform="scale(0.996264)" xlink:href="#CMR17-48"/>
      <use transform="translate(69.07243 0)scale(0.996264)" xlink:href="#CMR17-6f"/>
      <use transform="translate(114.762907 0)scale(0.996264)" xlink:href="#CMR17-75"/>
      <use transform="translate(165.658277 0)scale(0.996264)" xlink:href="#CMR17-72"/>
      <use transform="translate(200.939045 0)scale(0.996264)" xlink:href="#CMR17-73"/>
     </g>
    </g>
   </g>
   <g id="matplotlib.axis_2">
    <g id="ytick_1">
     <g id="line2d_82">
      <path clip-path="url(#p0dbf5c99d8)" d="M 90 365.472 
L 648 365.472 
" style="fill:none;stroke:#808080;stroke-linecap:square;stroke-width:0.4;"/>
     </g>
     <g id="line2d_83">
      <defs>
       <path d="M 0 0 
L 3.5 0 
" id="m7cf1145f37" style="stroke:#000000;stroke-width:0.8;"/>
      </defs>
      <g>
       <use style="stroke:#000000;stroke-width:0.8;" x="90" xlink:href="#m7cf1145f37" y="365.472"/>
      </g>
     </g>
     <g id="line2d_84">
      <defs>
       <path d="M 0 0 
L -3.5 0 
" id="mac2786d84e" style="stroke:#000000;stroke-width:0.8;"/>
      </defs>
      <g>
       <use style="stroke:#000000;stroke-width:0.8;" x="648" xlink:href="#mac2786d84e" y="365.472"/>
      </g>
     </g>
     <g id="text_9">
      <!-- $\mathdefault{5}$ -->
      <g transform="translate(79.183762 370.660862)scale(0.15 -0.15)">
       <defs>
        <path d="M 730 3692 
C 794 3666 1056 3584 1325 3584 
C 1920 3584 2246 3911 2432 4100 
C 2432 4157 2432 4192 2394 4192 
C 2387 4192 2374 4192 2323 4163 
C 2099 4058 1837 3973 1517 3973 
C 1325 3973 1037 3999 723 4139 
C 653 4171 640 4171 634 4171 
C 602 4171 595 4164 595 4037 
L 595 2203 
C 595 2089 595 2057 659 2057 
C 691 2057 704 2070 736 2114 
C 941 2401 1222 2522 1542 2522 
C 1766 2522 2246 2382 2246 1289 
C 2246 1085 2246 715 2054 421 
C 1894 159 1645 25 1370 25 
C 947 25 518 320 403 814 
C 429 807 480 795 506 795 
C 589 795 749 840 749 1038 
C 749 1210 627 1280 506 1280 
C 358 1280 262 1190 262 1011 
C 262 454 704 -128 1382 -128 
C 2042 -128 2669 440 2669 1264 
C 2669 2030 2170 2624 1549 2624 
C 1222 2624 947 2503 730 2274 
L 730 3692 
z
" id="CMR17-35" transform="scale(0.015625)"/>
       </defs>
       <use transform="scale(0.996264)" xlink:href="#CMR17-35"/>
      </g>
     </g>
    </g>
    <g id="ytick_2">
     <g id="line2d_85">
      <path clip-path="url(#p0dbf5c99d8)" d="M 90 317.952 
L 648 317.952 
" style="fill:none;stroke:#808080;stroke-linecap:square;stroke-width:0.4;"/>
     </g>
     <g id="line2d_86">
      <g>
       <use style="stroke:#000000;stroke-width:0.8;" x="90" xlink:href="#m7cf1145f37" y="317.952"/>
      </g>
     </g>
     <g id="line2d_87">
      <g>
       <use style="stroke:#000000;stroke-width:0.8;" x="648" xlink:href="#mac2786d84e" y="317.952"/>
      </g>
     </g>
     <g id="text_10">
      <!-- $\mathdefault{10}$ -->
      <g transform="translate(71.867524 323.140862)scale(0.15 -0.15)">
       <use transform="scale(0.996264)" xlink:href="#CMR17-31"/>
       <use transform="translate(45.690477 0)scale(0.996264)" xlink:href="#CMR17-30"/>
      </g>
     </g>
    </g>
    <g id="ytick_3">
     <g id="line2d_88">
      <path clip-path="url(#p0dbf5c99d8)" d="M 90 270.432 
L 648 270.432 
" style="fill:none;stroke:#808080;stroke-linecap:square;stroke-width:0.4;"/>
     </g>
     <g id="line2d_89">
      <g>
       <use style="stroke:#000000;stroke-width:0.8;" x="90" xlink:href="#m7cf1145f37" y="270.432"/>
      </g>
     </g>
     <g id="line2d_90">
      <g>
       <use style="stroke:#000000;stroke-width:0.8;" x="648" xlink:href="#mac2786d84e" y="270.432"/>
      </g>
     </g>
     <g id="text_11">
      <!-- $\mathdefault{15}$ -->
      <g transform="translate(71.867524 275.620862)scale(0.15 -0.15)">
       <use transform="scale(0.996264)" xlink:href="#CMR17-31"/>
       <use transform="translate(45.690477 0)scale(0.996264)" xlink:href="#CMR17-35"/>
      </g>
     </g>
    </g>
    <g id="ytick_4">
     <g id="line2d_91">
      <path clip-path="url(#p0dbf5c99d8)" d="M 90 222.912 
L 648 222.912 
" style="fill:none;stroke:#808080;stroke-linecap:square;stroke-width:0.4;"/>
     </g>
     <g id="line2d_92">
      <g>
       <use style="stroke:#000000;stroke-width:0.8;" x="90" xlink:href="#m7cf1145f37" y="222.912"/>
      </g>
     </g>
     <g id="line2d_93">
      <g>
       <use style="stroke:#000000;stroke-width:0.8;" x="648" xlink:href="#mac2786d84e" y="222.912"/>
      </g>
     </g>
     <g id="text_12">
      <!-- $\mathdefault{20}$ -->
      <g transform="translate(71.867524 228.100862)scale(0.15 -0.15)">
       <use transform="scale(0.996264)" xlink:href="#CMR17-32"/>
       <use transform="translate(45.690477 0)scale(0.996264)" xlink:href="#CMR17-30"/>
      </g>
     </g>
    </g>
    <g id="ytick_5">
     <g id="line2d_94">
      <path clip-path="url(#p0dbf5c99d8)" d="M 90 175.392 
L 648 175.392 
" style="fill:none;stroke:#808080;stroke-linecap:square;stroke-width:0.4;"/>
     </g>
     <g id="line2d_95">
      <g>
       <use style="stroke:#000000;stroke-width:0.8;" x="90" xlink:href="#m7cf1145f37" y="175.392"/>
      </g>
     </g>
     <g id="line2d_96">
      <g>
       <use style="stroke:#000000;stroke-width:0.8;" x="648" xlink:href="#mac2786d84e" y="175.392"/>
      </g>
     </g>
     <g id="text_13">
      <!-- $\mathdefault{25}$ -->
      <g transform="translate(71.867524 180.580862)scale(0.15 -0.15)">
       <use transform="scale(0.996264)" xlink:href="#CMR17-32"/>
       <use transform="translate(45.690477 0)scale(0.996264)" xlink:href="#CMR17-35"/>
      </g>
     </g>
    </g>
    <g id="ytick_6">
     <g id="line2d_97">
      <path clip-path="url(#p0dbf5c99d8)" d="M 90 127.872 
L 648 127.872 
" style="fill:none;stroke:#808080;stroke-linecap:square;stroke-width:0.4;"/>
     </g>
     <g id="line2d_98">
      <g>
       <use style="stroke:#000000;stroke-width:0.8;" x="90" xlink:href="#m7cf1145f37" y="127.872"/>
      </g>
     </g>
     <g id="line2d_99">
      <g>
       <use style="stroke:#000000;stroke-width:0.8;" x="648" xlink:href="#mac2786d84e" y="127.872"/>
      </g>
     </g>
     <g id="text_14">
      <!-- $\mathdefault{30}$ -->
      <g transform="translate(71.867524 133.060862)scale(0.15 -0.15)">
       <defs>
        <path d="M 1414 2157 
C 1984 2157 2234 1662 2234 1090 
C 2234 320 1824 25 1453 25 
C 1114 25 563 194 390 693 
C 422 680 454 680 486 680 
C 640 680 755 782 755 948 
C 755 1133 614 1216 486 1216 
C 378 1216 211 1165 211 926 
C 211 335 787 -128 1466 -128 
C 2176 -128 2720 430 2720 1085 
C 2720 1707 2208 2157 1600 2227 
C 2086 2328 2554 2756 2554 3329 
C 2554 3820 2048 4179 1472 4179 
C 890 4179 378 3829 378 3329 
C 378 3110 544 3072 627 3072 
C 762 3072 877 3155 877 3321 
C 877 3486 762 3569 627 3569 
C 602 3569 570 3569 544 3557 
C 730 3959 1235 4032 1459 4032 
C 1683 4032 2106 3925 2106 3320 
C 2106 3143 2080 2828 1862 2550 
C 1670 2304 1453 2304 1242 2284 
C 1210 2284 1062 2269 1037 2269 
C 992 2263 966 2257 966 2208 
C 966 2163 973 2157 1101 2157 
L 1414 2157 
z
" id="CMR17-33" transform="scale(0.015625)"/>
       </defs>
       <use transform="scale(0.996264)" xlink:href="#CMR17-33"/>
       <use transform="translate(45.690477 0)scale(0.996264)" xlink:href="#CMR17-30"/>
      </g>
     </g>
    </g>
    <g id="ytick_7">
     <g id="line2d_100">
      <path clip-path="url(#p0dbf5c99d8)" d="M 90 80.352 
L 648 80.352 
" style="fill:none;stroke:#808080;stroke-linecap:square;stroke-width:0.4;"/>
     </g>
     <g id="line2d_101">
      <g>
       <use style="stroke:#000000;stroke-width:0.8;" x="90" xlink:href="#m7cf1145f37" y="80.352"/>
      </g>
     </g>
     <g id="line2d_102">
      <g>
       <use style="stroke:#000000;stroke-width:0.8;" x="648" xlink:href="#mac2786d84e" y="80.352"/>
      </g>
     </g>
     <g id="text_15">
      <!-- $\mathdefault{35}$ -->
      <g transform="translate(71.867524 85.540862)scale(0.15 -0.15)">
       <use transform="scale(0.996264)" xlink:href="#CMR17-33"/>
       <use transform="translate(45.690477 0)scale(0.996264)" xlink:href="#CMR17-35"/>
      </g>
     </g>
    </g>
    <g id="ytick_8">
     <g id="line2d_103">
      <path clip-path="url(#p0dbf5c99d8)" d="M 90 374.976 
L 648 374.976 
" style="fill:none;stroke:#808080;stroke-dasharray:0.74,0.32;stroke-dashoffset:0;stroke-width:0.2;"/>
     </g>
     <g id="line2d_104">
      <defs>
       <path d="M 0 0 
L 2 0 
" id="m3eaad4ac18" style="stroke:#000000;stroke-width:0.6;"/>
      </defs>
      <g>
       <use style="stroke:#000000;stroke-width:0.6;" x="90" xlink:href="#m3eaad4ac18" y="374.976"/>
      </g>
     </g>
     <g id="line2d_105">
      <defs>
       <path d="M 0 0 
L -2 0 
" id="m82b6b18a01" style="stroke:#000000;stroke-width:0.6;"/>
      </defs>
      <g>
       <use style="stroke:#000000;stroke-width:0.6;" x="648" xlink:href="#m82b6b18a01" y="374.976"/>
      </g>
     </g>
    </g>
    <g id="ytick_9">
     <g id="line2d_106">
      <path clip-path="url(#p0dbf5c99d8)" d="M 90 355.968 
L 648 355.968 
" style="fill:none;stroke:#808080;stroke-dasharray:0.74,0.32;stroke-dashoffset:0;stroke-width:0.2;"/>
     </g>
     <g id="line2d_107">
      <g>
       <use style="stroke:#000000;stroke-width:0.6;" x="90" xlink:href="#m3eaad4ac18" y="355.968"/>
      </g>
     </g>
     <g id="line2d_108">
      <g>
       <use style="stroke:#000000;stroke-width:0.6;" x="648" xlink:href="#m82b6b18a01" y="355.968"/>
      </g>
     </g>
    </g>
    <g id="ytick_10">
     <g id="line2d_109">
      <path clip-path="url(#p0dbf5c99d8)" d="M 90 346.464 
L 648 346.464 
" style="fill:none;stroke:#808080;stroke-dasharray:0.74,0.32;stroke-dashoffset:0;stroke-width:0.2;"/>
     </g>
     <g id="line2d_110">
      <g>
       <use style="stroke:#000000;stroke-width:0.6;" x="90" xlink:href="#m3eaad4ac18" y="346.464"/>
      </g>
     </g>
     <g id="line2d_111">
      <g>
       <use style="stroke:#000000;stroke-width:0.6;" x="648" xlink:href="#m82b6b18a01" y="346.464"/>
      </g>
     </g>
    </g>
    <g id="ytick_11">
     <g id="line2d_112">
      <path clip-path="url(#p0dbf5c99d8)" d="M 90 336.96 
L 648 336.96 
" style="fill:none;stroke:#808080;stroke-dasharray:0.74,0.32;stroke-dashoffset:0;stroke-width:0.2;"/>
     </g>
     <g id="line2d_113">
      <g>
       <use style="stroke:#000000;stroke-width:0.6;" x="90" xlink:href="#m3eaad4ac18" y="336.96"/>
      </g>
     </g>
     <g id="line2d_114">
      <g>
       <use style="stroke:#000000;stroke-width:0.6;" x="648" xlink:href="#m82b6b18a01" y="336.96"/>
      </g>
     </g>
    </g>
    <g id="ytick_12">
     <g id="line2d_115">
      <path clip-path="url(#p0dbf5c99d8)" d="M 90 327.456 
L 648 327.456 
" style="fill:none;stroke:#808080;stroke-dasharray:0.74,0.32;stroke-dashoffset:0;stroke-width:0.2;"/>
     </g>
     <g id="line2d_116">
      <g>
       <use style="stroke:#000000;stroke-width:0.6;" x="90" xlink:href="#m3eaad4ac18" y="327.456"/>
      </g>
     </g>
     <g id="line2d_117">
      <g>
       <use style="stroke:#000000;stroke-width:0.6;" x="648" xlink:href="#m82b6b18a01" y="327.456"/>
      </g>
     </g>
    </g>
    <g id="ytick_13">
     <g id="line2d_118">
      <path clip-path="url(#p0dbf5c99d8)" d="M 90 308.448 
L 648 308.448 
" style="fill:none;stroke:#808080;stroke-dasharray:0.74,0.32;stroke-dashoffset:0;stroke-width:0.2;"/>
     </g>
     <g id="line2d_119">
      <g>
       <use style="stroke:#000000;stroke-width:0.6;" x="90" xlink:href="#m3eaad4ac18" y="308.448"/>
      </g>
     </g>
     <g id="line2d_120">
      <g>
       <use style="stroke:#000000;stroke-width:0.6;" x="648" xlink:href="#m82b6b18a01" y="308.448"/>
      </g>
     </g>
    </g>
    <g id="ytick_14">
     <g id="line2d_121">
      <path clip-path="url(#p0dbf5c99d8)" d="M 90 298.944 
L 648 298.944 
" style="fill:none;stroke:#808080;stroke-dasharray:0.74,0.32;stroke-dashoffset:0;stroke-width:0.2;"/>
     </g>
     <g id="line2d_122">
      <g>
       <use style="stroke:#000000;stroke-width:0.6;" x="90" xlink:href="#m3eaad4ac18" y="298.944"/>
      </g>
     </g>
     <g id="line2d_123">
      <g>
       <use style="stroke:#000000;stroke-width:0.6;" x="648" xlink:href="#m82b6b18a01" y="298.944"/>
      </g>
     </g>
    </g>
    <g id="ytick_15">
     <g id="line2d_124">
      <path clip-path="url(#p0dbf5c99d8)" d="M 90 289.44 
L 648 289.44 
" style="fill:none;stroke:#808080;stroke-dasharray:0.74,0.32;stroke-dashoffset:0;stroke-width:0.2;"/>
     </g>
     <g id="line2d_125">
      <g>
       <use style="stroke:#000000;stroke-width:0.6;" x="90" xlink:href="#m3eaad4ac18" y="289.44"/>
      </g>
     </g>
     <g id="line2d_126">
      <g>
       <use style="stroke:#000000;stroke-width:0.6;" x="648" xlink:href="#m82b6b18a01" y="289.44"/>
      </g>
     </g>
    </g>
    <g id="ytick_16">
     <g id="line2d_127">
      <path clip-path="url(#p0dbf5c99d8)" d="M 90 279.936 
L 648 279.936 
" style="fill:none;stroke:#808080;stroke-dasharray:0.74,0.32;stroke-dashoffset:0;stroke-width:0.2;"/>
     </g>
     <g id="line2d_128">
      <g>
       <use style="stroke:#000000;stroke-width:0.6;" x="90" xlink:href="#m3eaad4ac18" y="279.936"/>
      </g>
     </g>
     <g id="line2d_129">
      <g>
       <use style="stroke:#000000;stroke-width:0.6;" x="648" xlink:href="#m82b6b18a01" y="279.936"/>
      </g>
     </g>
    </g>
    <g id="ytick_17">
     <g id="line2d_130">
      <path clip-path="url(#p0dbf5c99d8)" d="M 90 260.928 
L 648 260.928 
" style="fill:none;stroke:#808080;stroke-dasharray:0.74,0.32;stroke-dashoffset:0;stroke-width:0.2;"/>
     </g>
     <g id="line2d_131">
      <g>
       <use style="stroke:#000000;stroke-width:0.6;" x="90" xlink:href="#m3eaad4ac18" y="260.928"/>
      </g>
     </g>
     <g id="line2d_132">
      <g>
       <use style="stroke:#000000;stroke-width:0.6;" x="648" xlink:href="#m82b6b18a01" y="260.928"/>
      </g>
     </g>
    </g>
    <g id="ytick_18">
     <g id="line2d_133">
      <path clip-path="url(#p0dbf5c99d8)" d="M 90 251.424 
L 648 251.424 
" style="fill:none;stroke:#808080;stroke-dasharray:0.74,0.32;stroke-dashoffset:0;stroke-width:0.2;"/>
     </g>
     <g id="line2d_134">
      <g>
       <use style="stroke:#000000;stroke-width:0.6;" x="90" xlink:href="#m3eaad4ac18" y="251.424"/>
      </g>
     </g>
     <g id="line2d_135">
      <g>
       <use style="stroke:#000000;stroke-width:0.6;" x="648" xlink:href="#m82b6b18a01" y="251.424"/>
      </g>
     </g>
    </g>
    <g id="ytick_19">
     <g id="line2d_136">
      <path clip-path="url(#p0dbf5c99d8)" d="M 90 241.92 
L 648 241.92 
" style="fill:none;stroke:#808080;stroke-dasharray:0.74,0.32;stroke-dashoffset:0;stroke-width:0.2;"/>
     </g>
     <g id="line2d_137">
      <g>
       <use style="stroke:#000000;stroke-width:0.6;" x="90" xlink:href="#m3eaad4ac18" y="241.92"/>
      </g>
     </g>
     <g id="line2d_138">
      <g>
       <use style="stroke:#000000;stroke-width:0.6;" x="648" xlink:href="#m82b6b18a01" y="241.92"/>
      </g>
     </g>
    </g>
    <g id="ytick_20">
     <g id="line2d_139">
      <path clip-path="url(#p0dbf5c99d8)" d="M 90 232.416 
L 648 232.416 
" style="fill:none;stroke:#808080;stroke-dasharray:0.74,0.32;stroke-dashoffset:0;stroke-width:0.2;"/>
     </g>
     <g id="line2d_140">
      <g>
       <use style="stroke:#000000;stroke-width:0.6;" x="90" xlink:href="#m3eaad4ac18" y="232.416"/>
      </g>
     </g>
     <g id="line2d_141">
      <g>
       <use style="stroke:#000000;stroke-width:0.6;" x="648" xlink:href="#m82b6b18a01" y="232.416"/>
      </g>
     </g>
    </g>
    <g id="ytick_21">
     <g id="line2d_142">
      <path clip-path="url(#p0dbf5c99d8)" d="M 90 213.408 
L 648 213.408 
" style="fill:none;stroke:#808080;stroke-dasharray:0.74,0.32;stroke-dashoffset:0;stroke-width:0.2;"/>
     </g>
     <g id="line2d_143">
      <g>
       <use style="stroke:#000000;stroke-width:0.6;" x="90" xlink:href="#m3eaad4ac18" y="213.408"/>
      </g>
     </g>
     <g id="line2d_144">
      <g>
       <use style="stroke:#000000;stroke-width:0.6;" x="648" xlink:href="#m82b6b18a01" y="213.408"/>
      </g>
     </g>
    </g>
    <g id="ytick_22">
     <g id="line2d_145">
      <path clip-path="url(#p0dbf5c99d8)" d="M 90 203.904 
L 648 203.904 
" style="fill:none;stroke:#808080;stroke-dasharray:0.74,0.32;stroke-dashoffset:0;stroke-width:0.2;"/>
     </g>
     <g id="line2d_146">
      <g>
       <use style="stroke:#000000;stroke-width:0.6;" x="90" xlink:href="#m3eaad4ac18" y="203.904"/>
      </g>
     </g>
     <g id="line2d_147">
      <g>
       <use style="stroke:#000000;stroke-width:0.6;" x="648" xlink:href="#m82b6b18a01" y="203.904"/>
      </g>
     </g>
    </g>
    <g id="ytick_23">
     <g id="line2d_148">
      <path clip-path="url(#p0dbf5c99d8)" d="M 90 194.4 
L 648 194.4 
" style="fill:none;stroke:#808080;stroke-dasharray:0.74,0.32;stroke-dashoffset:0;stroke-width:0.2;"/>
     </g>
     <g id="line2d_149">
      <g>
       <use style="stroke:#000000;stroke-width:0.6;" x="90" xlink:href="#m3eaad4ac18" y="194.4"/>
      </g>
     </g>
     <g id="line2d_150">
      <g>
       <use style="stroke:#000000;stroke-width:0.6;" x="648" xlink:href="#m82b6b18a01" y="194.4"/>
      </g>
     </g>
    </g>
    <g id="ytick_24">
     <g id="line2d_151">
      <path clip-path="url(#p0dbf5c99d8)" d="M 90 184.896 
L 648 184.896 
" style="fill:none;stroke:#808080;stroke-dasharray:0.74,0.32;stroke-dashoffset:0;stroke-width:0.2;"/>
     </g>
     <g id="line2d_152">
      <g>
       <use style="stroke:#000000;stroke-width:0.6;" x="90" xlink:href="#m3eaad4ac18" y="184.896"/>
      </g>
     </g>
     <g id="line2d_153">
      <g>
       <use style="stroke:#000000;stroke-width:0.6;" x="648" xlink:href="#m82b6b18a01" y="184.896"/>
      </g>
     </g>
    </g>
    <g id="ytick_25">
     <g id="line2d_154">
      <path clip-path="url(#p0dbf5c99d8)" d="M 90 165.888 
L 648 165.888 
" style="fill:none;stroke:#808080;stroke-dasharray:0.74,0.32;stroke-dashoffset:0;stroke-width:0.2;"/>
     </g>
     <g id="line2d_155">
      <g>
       <use style="stroke:#000000;stroke-width:0.6;" x="90" xlink:href="#m3eaad4ac18" y="165.888"/>
      </g>
     </g>
     <g id="line2d_156">
      <g>
       <use style="stroke:#000000;stroke-width:0.6;" x="648" xlink:href="#m82b6b18a01" y="165.888"/>
      </g>
     </g>
    </g>
    <g id="ytick_26">
     <g id="line2d_157">
      <path clip-path="url(#p0dbf5c99d8)" d="M 90 156.384 
L 648 156.384 
" style="fill:none;stroke:#808080;stroke-dasharray:0.74,0.32;stroke-dashoffset:0;stroke-width:0.2;"/>
     </g>
     <g id="line2d_158">
      <g>
       <use style="stroke:#000000;stroke-width:0.6;" x="90" xlink:href="#m3eaad4ac18" y="156.384"/>
      </g>
     </g>
     <g id="line2d_159">
      <g>
       <use style="stroke:#000000;stroke-width:0.6;" x="648" xlink:href="#m82b6b18a01" y="156.384"/>
      </g>
     </g>
    </g>
    <g id="ytick_27">
     <g id="line2d_160">
      <path clip-path="url(#p0dbf5c99d8)" d="M 90 146.88 
L 648 146.88 
" style="fill:none;stroke:#808080;stroke-dasharray:0.74,0.32;stroke-dashoffset:0;stroke-width:0.2;"/>
     </g>
     <g id="line2d_161">
      <g>
       <use style="stroke:#000000;stroke-width:0.6;" x="90" xlink:href="#m3eaad4ac18" y="146.88"/>
      </g>
     </g>
     <g id="line2d_162">
      <g>
       <use style="stroke:#000000;stroke-width:0.6;" x="648" xlink:href="#m82b6b18a01" y="146.88"/>
      </g>
     </g>
    </g>
    <g id="ytick_28">
     <g id="line2d_163">
      <path clip-path="url(#p0dbf5c99d8)" d="M 90 137.376 
L 648 137.376 
" style="fill:none;stroke:#808080;stroke-dasharray:0.74,0.32;stroke-dashoffset:0;stroke-width:0.2;"/>
     </g>
     <g id="line2d_164">
      <g>
       <use style="stroke:#000000;stroke-width:0.6;" x="90" xlink:href="#m3eaad4ac18" y="137.376"/>
      </g>
     </g>
     <g id="line2d_165">
      <g>
       <use style="stroke:#000000;stroke-width:0.6;" x="648" xlink:href="#m82b6b18a01" y="137.376"/>
      </g>
     </g>
    </g>
    <g id="ytick_29">
     <g id="line2d_166">
      <path clip-path="url(#p0dbf5c99d8)" d="M 90 118.368 
L 648 118.368 
" style="fill:none;stroke:#808080;stroke-dasharray:0.74,0.32;stroke-dashoffset:0;stroke-width:0.2;"/>
     </g>
     <g id="line2d_167">
      <g>
       <use style="stroke:#000000;stroke-width:0.6;" x="90" xlink:href="#m3eaad4ac18" y="118.368"/>
      </g>
     </g>
     <g id="line2d_168">
      <g>
       <use style="stroke:#000000;stroke-width:0.6;" x="648" xlink:href="#m82b6b18a01" y="118.368"/>
      </g>
     </g>
    </g>
    <g id="ytick_30">
     <g id="line2d_169">
      <path clip-path="url(#p0dbf5c99d8)" d="M 90 108.864 
L 648 108.864 
" style="fill:none;stroke:#808080;stroke-dasharray:0.74,0.32;stroke-dashoffset:0;stroke-width:0.2;"/>
     </g>
     <g id="line2d_170">
      <g>
       <use style="stroke:#000000;stroke-width:0.6;" x="90" xlink:href="#m3eaad4ac18" y="108.864"/>
      </g>
     </g>
     <g id="line2d_171">
      <g>
       <use style="stroke:#000000;stroke-width:0.6;" x="648" xlink:href="#m82b6b18a01" y="108.864"/>
      </g>
     </g>
    </g>
    <g id="ytick_31">
     <g id="line2d_172">
      <path clip-path="url(#p0dbf5c99d8)" d="M 90 99.36 
L 648 99.36 
" style="fill:none;stroke:#808080;stroke-dasharray:0.74,0.32;stroke-dashoffset:0;stroke-width:0.2;"/>
     </g>
     <g id="line2d_173">
      <g>
       <use style="stroke:#000000;stroke-width:0.6;" x="90" xlink:href="#m3eaad4ac18" y="99.36"/>
      </g>
     </g>
     <g id="line2d_174">
      <g>
       <use style="stroke:#000000;stroke-width:0.6;" x="648" xlink:href="#m82b6b18a01" y="99.36"/>
      </g>
     </g>
    </g>
    <g id="ytick_32">
     <g id="line2d_175">
      <path clip-path="url(#p0dbf5c99d8)" d="M 90 89.856 
L 648 89.856 
" style="fill:none;stroke:#808080;stroke-dasharray:0.74,0.32;stroke-dashoffset:0;stroke-width:0.2;"/>
     </g>
     <g id="line2d_176">
      <g>
       <use style="stroke:#000000;stroke-width:0.6;" x="90" xlink:href="#m3eaad4ac18" y="89.856"/>
      </g>
     </g>
     <g id="line2d_177">
      <g>
       <use style="stroke:#000000;stroke-width:0.6;" x="648" xlink:href="#m82b6b18a01" y="89.856"/>
      </g>
     </g>
    </g>
    <g id="ytick_33">
     <g id="line2d_178">
      <path clip-path="url(#p0dbf5c99d8)" d="M 90 70.848 
L 648 70.848 
" style="fill:none;stroke:#808080;stroke-dasharray:0.74,0.32;stroke-dashoffset:0;stroke-width:0.2;"/>
     </g>
     <g id="line2d_179">
      <g>
       <use style="stroke:#000000;stroke-width:0.6;" x="90" xlink:href="#m3eaad4ac18" y="70.848"/>
      </g>
     </g>
     <g id="line2d_180">
      <g>
       <use style="stroke:#000000;stroke-width:0.6;" x="648" xlink:href="#m82b6b18a01" y="70.848"/>
      </g>
     </g>
    </g>
    <g id="ytick_34">
     <g id="line2d_181">
      <path clip-path="url(#p0dbf5c99d8)" d="M 90 61.344 
L 648 61.344 
" style="fill:none;stroke:#808080;stroke-dasharray:0.74,0.32;stroke-dashoffset:0;stroke-width:0.2;"/>
     </g>
     <g id="line2d_182">
      <g>
       <use style="stroke:#000000;stroke-width:0.6;" x="90" xlink:href="#m3eaad4ac18" y="61.344"/>
      </g>
     </g>
     <g id="line2d_183">
      <g>
       <use style="stroke:#000000;stroke-width:0.6;" x="648" xlink:href="#m82b6b18a01" y="61.344"/>
      </g>
     </g>
    </g>
    <g id="ytick_35">
     <g id="line2d_184">
      <path clip-path="url(#p0dbf5c99d8)" d="M 90 51.84 
L 648 51.84 
" style="fill:none;stroke:#808080;stroke-dasharray:0.74,0.32;stroke-dashoffset:0;stroke-width:0.2;"/>
     </g>
     <g id="line2d_185">
      <g>
       <use style="stroke:#000000;stroke-width:0.6;" x="90" xlink:href="#m3eaad4ac18" y="51.84"/>
      </g>
     </g>
     <g id="line2d_186">
      <g>
       <use style="stroke:#000000;stroke-width:0.6;" x="648" xlink:href="#m82b6b18a01" y="51.84"/>
      </g>
     </g>
    </g>
    <g id="text_16">
     <!-- RMSE (x0.01 Mag) -->
     <g transform="translate(64.131534 280.746719)rotate(-90)scale(0.15 -0.15)">
      <defs>
       <path d="M 2509 2146 
C 3117 2268 3629 2676 3629 3186 
C 3629 3785 2950 4326 2054 4326 
L 333 4326 
L 333 4160 
C 774 4160 845 4160 845 3873 
L 845 415 
C 845 128 774 128 333 128 
L 333 -26 
C 518 -26 851 -26 1050 -26 
C 1248 -26 1581 -26 1766 -26 
L 1766 128 
C 1325 128 1254 128 1254 417 
L 1254 2112 
L 2003 2112 
C 2368 2112 2573 1964 2662 1881 
C 2918 1632 2918 1459 2918 1024 
C 2918 595 2918 377 3110 160 
C 3354 -102 3680 -128 3821 -128 
C 4294 -128 4365 396 4365 503 
C 4365 540 4365 585 4307 585 
C 4256 585 4250 547 4250 522 
C 4218 112 4032 -26 3834 -26 
C 3482 -26 3443 375 3405 764 
C 3386 898 3373 993 3360 1133 
C 3322 1452 3270 1917 2509 2146 
z
M 1984 2214 
L 1254 2214 
L 1254 3913 
C 1254 4129 1267 4160 1523 4160 
L 1990 4160 
C 2522 4160 3142 3977 3142 3190 
C 3142 2372 2464 2214 1984 2214 
z
" id="CMR17-52" transform="scale(0.015625)"/>
       <path d="M 1338 4224 
C 1299 4320 1293 4320 1158 4320 
L 339 4320 
L 339 4160 
C 781 4160 851 4160 851 3875 
L 851 610 
C 851 451 851 153 339 153 
L 339 -13 
C 486 0 755 0 915 0 
C 1075 0 1344 0 1491 -13 
L 1491 153 
C 979 153 979 451 979 610 
L 979 4135 
L 986 4135 
L 2490 89 
C 2515 25 2528 -13 2579 -13 
C 2630 -13 2643 25 2669 89 
L 4186 4166 
L 4192 4166 
L 4192 438 
C 4192 153 4122 153 3680 153 
L 3680 -13 
C 3853 0 4198 0 4384 0 
C 4570 0 4922 0 5094 -13 
L 5094 153 
C 4653 153 4582 153 4582 438 
L 4582 3875 
C 4582 4160 4653 4160 5094 4160 
L 5094 4320 
L 4282 4320 
C 4147 4320 4141 4314 4102 4218 
L 2720 502 
L 1338 4224 
z
" id="CMR17-4d" transform="scale(0.015625)"/>
       <path d="M 2803 4290 
C 2803 4404 2797 4411 2758 4411 
C 2720 4411 2707 4385 2682 4328 
L 2490 3907 
C 2246 4257 1875 4416 1472 4416 
C 819 4416 294 3901 294 3253 
C 294 3056 339 2776 557 2510 
C 794 2218 1018 2167 1530 2033 
C 1722 1982 2042 1899 2106 1874 
C 2470 1722 2662 1341 2662 985 
C 2662 527 2336 38 1779 38 
C 1094 38 454 419 410 1311 
C 403 1413 397 1419 352 1419 
C 301 1419 294 1413 294 1285 
L 294 -1 
C 294 -115 301 -122 339 -122 
C 384 -122 397 -90 486 108 
C 493 127 493 140 614 381 
C 934 -39 1472 -128 1779 -128 
C 2477 -128 2970 451 2970 1124 
C 2970 1454 2848 1708 2778 1823 
C 2509 2230 2221 2306 1914 2382 
C 1869 2402 1856 2402 1498 2490 
C 1152 2579 1005 2624 845 2796 
C 666 2992 602 3196 602 3399 
C 602 3812 934 4263 1478 4263 
C 2157 4263 2579 3786 2675 2993 
C 2694 2878 2701 2872 2746 2872 
C 2803 2872 2803 2891 2803 2999 
L 2803 4290 
z
" id="CMR17-53" transform="scale(0.015625)"/>
       <path d="M 3885 1615 
L 3770 1615 
C 3629 676 3546 166 2419 166 
L 1530 166 
C 1274 166 1261 197 1261 414 
L 1261 2176 
L 1862 2176 
C 2464 2176 2522 1960 2522 1430 
L 2637 1430 
L 2637 3081 
L 2522 3081 
C 2522 2557 2464 2342 1862 2342 
L 1261 2342 
L 1261 3913 
C 1261 4128 1274 4160 1530 4160 
L 2406 4160 
C 3398 4160 3514 3769 3603 2929 
L 3718 2929 
L 3565 4325 
L 326 4325 
L 326 4160 
C 768 4160 838 4160 838 3874 
L 838 451 
C 838 166 768 166 326 166 
L 326 0 
L 3654 0 
L 3885 1615 
z
" id="CMR17-45" transform="scale(0.015625)"/>
       <path d="M 1958 -1561 
C 1958 -1555 1958 -1542 1939 -1523 
C 1645 -1224 858 -407 858 1581 
C 858 3569 1632 4379 1946 4697 
C 1946 4704 1958 4717 1958 4736 
C 1958 4755 1939 4768 1914 4768 
C 1843 4768 1299 4296 986 3594 
C 666 2887 576 2199 576 1588 
C 576 1128 621 351 1005 -471 
C 1312 -1135 1837 -1600 1914 -1600 
C 1946 -1600 1958 -1587 1958 -1561 
z
" id="CMR17-28" transform="scale(0.015625)"/>
       <path d="M 1664 1477 
C 1856 1726 2074 2006 2253 2216 
C 2464 2458 2707 2560 2989 2560 
L 2989 2726 
C 2880 2726 2656 2726 2541 2726 
C 2368 2726 2170 2726 2022 2732 
L 2022 2566 
C 2112 2553 2163 2489 2163 2400 
C 2163 2285 2099 2215 2067 2171 
L 1594 1573 
L 1030 2306 
C 973 2376 973 2388 973 2420 
C 973 2497 1037 2560 1146 2560 
L 1146 2732 
C 992 2726 717 2726 557 2726 
C 384 2726 179 2726 38 2732 
L 38 2560 
C 384 2560 461 2534 614 2343 
L 1350 1395 
C 1363 1382 1395 1344 1395 1325 
C 1395 1299 838 619 768 530 
C 480 185 179 160 6 160 
L 6 0 
C 115 0 339 0 454 0 
C 582 0 864 0 979 -6 
L 979 160 
C 941 166 838 179 838 325 
C 838 440 890 510 947 586 
L 1478 1236 
L 2035 512 
C 2086 442 2163 346 2163 301 
C 2163 211 2086 160 1984 160 
L 1984 -6 
C 2138 0 2413 0 2573 0 
C 2746 0 2950 0 3091 -6 
L 3091 160 
C 2771 160 2675 172 2522 370 
L 1664 1477 
z
" id="CMR17-78" transform="scale(0.015625)"/>
       <path d="M 1062 261 
C 1062 420 934 522 800 522 
C 672 522 538 420 538 261 
C 538 102 666 0 800 0 
C 928 0 1062 102 1062 261 
z
" id="CMR17-2e" transform="scale(0.015625)"/>
       <path d="M 2304 1653 
C 2304 2072 2304 2294 2035 2543 
C 1798 2752 1523 2816 1306 2816 
C 800 2816 435 2407 435 1971 
C 435 1728 627 1728 666 1728 
C 749 1728 896 1778 896 1954 
C 896 2112 774 2181 666 2181 
C 640 2181 608 2174 589 2168 
C 723 2592 1069 2714 1293 2714 
C 1613 2714 1965 2429 1965 1885 
L 1965 1600 
C 1587 1600 1133 1549 774 1357 
C 371 1133 256 813 256 570 
C 256 77 832 -64 1171 -64 
C 1523 -64 1850 139 1990 511 
C 2003 233 2182 -18 2464 -18 
C 2598 -18 2938 70 2938 567 
L 2938 920 
L 2822 920 
L 2822 562 
C 2822 178 2650 128 2566 128 
C 2304 128 2304 458 2304 738 
L 2304 1653 
z
M 1965 870 
C 1965 317 1568 38 1216 38 
C 896 38 646 275 646 570 
C 646 761 730 1100 1101 1305 
C 1408 1478 1760 1504 1965 1504 
L 1965 870 
z
" id="CMR17-61" transform="scale(0.015625)"/>
       <path d="M 710 1164 
C 832 1068 1043 960 1299 960 
C 1805 960 2240 1357 2240 1888 
C 2240 2054 2189 2310 1997 2509 
C 2176 2692 2438 2752 2586 2752 
C 2611 2752 2650 2752 2682 2734 
C 2656 2728 2598 2703 2598 2605 
C 2598 2527 2656 2471 2739 2471 
C 2835 2471 2886 2533 2886 2614 
C 2886 2731 2790 2854 2586 2854 
C 2330 2854 2106 2738 1926 2580 
C 1734 2753 1504 2816 1299 2816 
C 794 2816 358 2419 358 1888 
C 358 1522 570 1292 634 1228 
C 442 1004 442 743 442 711 
C 442 545 506 302 723 168 
C 390 85 128 -169 128 -486 
C 128 -943 736 -1280 1466 -1280 
C 2170 -1280 2803 -956 2803 -479 
C 2803 384 1856 384 1363 384 
C 1216 384 954 384 922 391 
C 723 423 589 602 589 826 
C 589 883 589 1024 710 1164 
z
M 1299 1068 
C 736 1068 736 1760 736 1889 
C 736 2016 736 2708 1299 2708 
C 1862 2708 1862 2016 1862 1889 
C 1862 1760 1862 1068 1299 1068 
z
M 1466 -1171 
C 826 -1171 384 -835 384 -486 
C 384 -289 493 -105 634 -4 
C 794 104 858 104 1293 104 
C 1818 104 2547 104 2547 -486 
C 2547 -835 2106 -1171 1466 -1171 
z
" id="CMR17-67" transform="scale(0.015625)"/>
       <path d="M 1683 1581 
C 1683 2040 1638 2817 1254 3639 
C 947 4303 422 4768 346 4768 
C 326 4768 301 4761 301 4729 
C 301 4717 307 4710 314 4697 
C 621 4378 1402 3568 1402 1584 
C 1402 -407 627 -1217 314 -1537 
C 307 -1549 301 -1556 301 -1568 
C 301 -1600 326 -1600 346 -1600 
C 416 -1600 960 -1128 1274 -426 
C 1594 281 1683 969 1683 1581 
z
" id="CMR17-29" transform="scale(0.015625)"/>
      </defs>
      <use transform="scale(0.996264)" xlink:href="#CMR17-52"/>
      <use transform="translate(67.791102 0)scale(0.996264)" xlink:href="#CMR17-4d"/>
      <use transform="translate(152.478043 0)scale(0.996264)" xlink:href="#CMR17-53"/>
      <use transform="translate(203.373412 0)scale(0.996264)" xlink:href="#CMR17-45"/>
      <use transform="translate(296.035679 0)scale(0.996264)" xlink:href="#CMR17-28"/>
      <use transform="translate(331.316447 0)scale(0.996264)" xlink:href="#CMR17-78"/>
      <use transform="translate(379.609363 0)scale(0.996264)" xlink:href="#CMR17-30"/>
      <use transform="translate(425.29984 0)scale(0.996264)" xlink:href="#CMR17-2e"/>
      <use transform="translate(450.170898 0)scale(0.996264)" xlink:href="#CMR17-30"/>
      <use transform="translate(495.861376 0)scale(0.996264)" xlink:href="#CMR17-31"/>
      <use transform="translate(571.627819 0)scale(0.996264)" xlink:href="#CMR17-4d"/>
      <use transform="translate(656.31476 0)scale(0.996264)" xlink:href="#CMR17-61"/>
      <use transform="translate(702.005237 0)scale(0.996264)" xlink:href="#CMR17-67"/>
      <use transform="translate(747.695714 0)scale(0.996264)" xlink:href="#CMR17-29"/>
     </g>
    </g>
   </g>
   <g id="line2d_187">
    <path clip-path="url(#p0dbf5c99d8)" d="M 132.923077 74.428404 
L 132.970292 74.463939 
L 133.111938 74.021395 
L 133.159154 74.189122 
L 133.253585 74.488127 
L 133.3008 74.378993 
L 133.584092 73.381377 
L 133.678523 73.469783 
L 133.772954 73.624404 
L 133.867385 74.035993 
L 133.9146 74.01363 
L 134.197892 73.268773 
L 134.292323 72.92739 
L 134.433969 72.707011 
L 134.764477 74.380171 
L 134.858908 74.12975 
L 135.094985 73.214059 
L 135.1422 73.160836 
L 135.283846 73.537147 
L 135.331062 73.494056 
L 135.378277 73.452742 
L 135.425492 73.534125 
L 135.756 75.486494 
L 135.803215 75.225124 
L 136.086508 72.874766 
L 136.133723 72.852108 
L 136.228154 73.269952 
L 136.747523 77.27508 
L 136.841954 76.877965 
L 137.266892 72.834536 
L 137.314108 72.907336 
L 137.786262 75.112312 
L 137.833477 74.983808 
L 138.163985 73.30926 
L 138.2112 73.475571 
L 138.400062 75.182708 
L 138.919431 83.979078 
L 139.013862 83.534186 
L 139.202723 79.922372 
L 139.533231 73.809931 
L 139.722092 73.201476 
L 139.816523 73.402979 
L 140.099815 75.032963 
L 140.147031 74.943777 
L 140.288677 74.124228 
L 140.524754 72.927893 
L 140.619185 73.341099 
L 140.760831 75.300405 
L 141.138554 85.300457 
L 141.374631 89.46242 
L 141.421846 89.532988 
L 141.516277 88.622381 
L 141.846785 79.874947 
L 142.177292 73.304651 
L 142.318938 72.685703 
L 142.413369 73.011101 
L 142.791092 74.628387 
L 142.932738 74.19413 
L 143.216031 73.366902 
L 143.310462 73.648373 
L 143.499323 75.521031 
L 144.207554 85.133282 
L 144.254769 85.12239 
L 144.3492 84.600107 
L 144.585277 80.517075 
L 145.010215 74.013079 
L 145.199077 73.835497 
L 145.293508 74.188048 
L 145.529585 75.825055 
L 145.5768 75.792009 
L 146.473892 73.56507 
L 146.521108 73.702612 
L 146.709969 75.141071 
L 147.087692 78.565894 
L 147.229338 78.167696 
L 147.890354 75.071112 
L 148.126431 74.486122 
L 148.268077 74.226862 
L 148.315292 74.272092 
L 148.456938 74.984198 
L 148.693015 75.906257 
L 148.976308 76.080598 
L 149.165169 75.432368 
L 149.590108 73.910835 
L 149.637323 73.932333 
L 150.015046 74.439619 
L 150.298338 74.954089 
L 150.439985 74.733387 
L 151.148215 72.935268 
L 151.195431 72.976658 
L 151.950877 74.22901 
L 152.706323 73.611431 
L 152.895185 73.746007 
L 153.036831 74.266788 
L 153.839492 78.652115 
L 154.028354 78.831835 
L 154.17 78.694635 
L 154.358862 78.073426 
L 154.7838 75.333118 
L 155.019877 74.522047 
L 155.3976 74.217653 
L 155.728108 74.369755 
L 156.530769 73.057176 
L 156.766846 73.163583 
L 156.908492 73.446755 
L 157.711154 76.830454 
L 158.041662 78.141484 
L 158.324954 79.242608 
L 158.608246 80.050581 
L 158.702677 79.937293 
L 158.938754 79.034936 
L 159.741415 75.759563 
L 159.883062 75.794604 
L 160.119138 76.035445 
L 160.166354 75.994492 
L 160.308 75.542092 
L 160.827369 73.384104 
L 161.110662 73.158993 
L 161.299523 73.26826 
L 161.818892 73.906007 
L 161.866108 73.856339 
L 162.291046 73.373659 
L 162.479908 73.73484 
L 162.857631 75.262703 
L 163.660292 78.110491 
L 163.896369 78.313601 
L 164.038015 78.164692 
L 164.274092 77.429929 
L 164.887892 75.193333 
L 165.360046 74.642111 
L 165.596123 74.52735 
L 165.784985 74.72683 
L 166.068277 75.070789 
L 166.257138 74.916168 
L 166.682077 74.507468 
L 167.012585 74.215115 
L 167.248662 74.039529 
L 167.390308 74.186137 
L 167.579169 74.822896 
L 167.815246 76.559372 
L 168.240185 82.049918 
L 168.995631 91.947697 
L 169.137277 92.29907 
L 169.184492 92.284234 
L 169.326138 91.887404 
L 169.562215 90.193772 
L 169.939938 85.474685 
L 170.837031 73.793651 
L 171.025892 73.42672 
L 171.167538 73.73101 
L 171.403615 75.029551 
L 172.064631 79.305828 
L 172.206277 79.392695 
L 172.347923 79.154287 
L 172.584 78.187569 
L 173.339446 74.134635 
L 173.386662 74.164012 
L 173.528308 74.701454 
L 173.717169 76.697047 
L 173.953246 81.754163 
L 174.330969 95.707945 
L 175.511354 145.080655 
L 175.700215 146.726387 
L 175.747431 146.688276 
L 175.841862 146.068596 
L 176.030723 142.701794 
L 176.314015 132.907742 
L 177.683262 77.284451 
L 177.966554 74.796712 
L 178.060985 74.617638 
L 178.1082 74.643717 
L 178.249846 75.137535 
L 178.533138 77.461111 
L 179.3358 84.857419 
L 179.430231 85.021211 
L 179.477446 84.993278 
L 179.619092 84.446751 
L 179.855169 82.144854 
L 180.5634 74.028419 
L 180.657831 73.820376 
L 180.705046 73.862821 
L 180.846692 74.689184 
L 181.035554 77.712026 
L 181.318846 86.564176 
L 181.743785 107.633394 
L 182.215938 143.022821 
L 183.443538 247.594259 
L 183.537969 248.584918 
L 183.585185 248.323415 
L 183.726831 244.576919 
L 183.962908 229.99842 
L 184.576708 171.109555 
L 185.284938 111.076161 
L 185.804308 84.609687 
L 186.182031 74.891078 
L 186.418108 73.32593 
L 186.512538 73.635343 
L 186.7014 75.676707 
L 187.031908 82.757633 
L 187.740138 98.88767 
L 187.929 99.855073 
L 188.023431 99.569554 
L 188.212292 97.565702 
L 188.5428 90.691145 
L 189.298246 74.6247 
L 189.534323 73.398284 
L 189.628754 73.684801 
L 189.817615 75.61283 
L 190.100908 81.657707 
L 190.478631 95.289465 
L 190.903569 120.033291 
L 191.375723 162.859959 
L 191.989523 243.293737 
L 192.886615 361.676026 
L 192.933831 361.787233 
L 193.028262 357.798527 
L 193.264338 331.694518 
L 194.633585 155.393797 
L 195.200169 113.693771 
L 195.766754 87.387792 
L 196.191692 76.591134 
L 196.474985 74.018354 
L 196.5222 73.958213 
L 196.569415 74.001038 
L 196.711062 74.725071 
L 196.947138 77.708139 
L 197.372077 86.770602 
L 198.033092 100.465619 
L 198.316385 103.013803 
L 198.410815 103.223946 
L 198.458031 103.20395 
L 198.599677 102.647937 
L 198.835754 100.175158 
L 199.213477 93.217508 
L 200.063354 76.966865 
L 200.346646 74.933133 
L 200.441077 74.795534 
L 200.488292 74.829425 
L 200.629938 75.339799 
L 200.866015 77.538255 
L 201.196523 83.458392 
L 201.574246 94.533574 
L 202.0464 115.249871 
L 202.707415 155.599853 
L 203.982231 237.144468 
L 204.265523 244.565514 
L 204.407169 245.375968 
L 204.5016 244.801195 
L 204.690462 241.14415 
L 205.020969 228.392244 
L 205.681985 191.032163 
L 206.909585 121.846312 
L 207.617815 94.084415 
L 208.137185 81.120313 
L 208.514908 76.131036 
L 208.7982 74.685839 
L 208.939846 74.602983 
L 209.081492 74.883484 
L 209.317569 76.01274 
L 209.742508 79.394596 
L 210.734031 87.557287 
L 211.064538 88.822592 
L 211.300615 89.044891 
L 211.442262 88.914078 
L 211.678338 88.306877 
L 212.056062 86.518518 
L 212.858723 81.128325 
L 213.519738 77.412061 
L 213.944677 76.026473 
L 214.180754 75.745383 
L 214.3224 75.802435 
L 214.511262 76.204027 
L 214.747338 77.324102 
L 215.077846 80.205097 
L 215.502785 86.24582 
L 216.069369 97.979506 
L 218.146846 145.438908 
L 218.477354 148.192959 
L 218.713431 148.790333 
L 218.807862 148.711259 
L 218.996723 148.036371 
L 219.280015 145.865324 
L 219.704954 140.578962 
L 220.413185 128.390985 
L 223.057246 79.218591 
L 223.5294 75.536789 
L 223.859908 74.355983 
L 224.095985 74.1104 
L 224.284846 74.216835 
L 224.520923 74.674976 
L 224.898646 76.046374 
L 225.465231 79.190763 
L 226.692831 86.282011 
L 227.117769 87.465544 
L 227.401062 87.755312 
L 227.637138 87.726733 
L 227.920431 87.413367 
L 228.345369 86.499434 
L 229.0536 84.313229 
L 230.139554 80.251533 
L 230.847785 76.656256 
L 231.461585 73.786561 
L 231.744877 73.208375 
L 231.933738 73.168706 
L 232.1226 73.390149 
L 232.405892 74.12343 
L 233.916785 78.830828 
L 234.247292 79.764073 
L 234.5778 81.517704 
L 234.955523 85.093669 
L 235.427677 92.102061 
L 236.513631 109.332528 
L 236.796923 110.919126 
L 236.938569 111.039884 
L 237.080215 110.739576 
L 237.316292 109.422636 
L 237.694015 105.767549 
L 239.157692 90.066789 
L 239.771492 86.628023 
L 241.660108 77.951347 
L 241.848969 77.894703 
L 242.037831 78.141113 
L 242.321123 79.073113 
L 242.746062 81.535856 
L 243.832015 88.353056 
L 244.115308 88.845554 
L 244.256954 88.797178 
L 244.445815 88.448971 
L 244.776323 87.221073 
L 245.720631 83.270612 
L 245.909492 83.128717 
L 246.051138 83.264301 
L 246.287215 83.970562 
L 246.617723 85.895522 
L 247.231523 91.252565 
L 247.892538 96.46817 
L 248.223046 97.747067 
L 248.411908 97.936025 
L 248.553554 97.810221 
L 248.789631 97.113644 
L 249.120138 95.268138 
L 249.875585 89.258788 
L 250.489385 85.259685 
L 250.867108 84.000899 
L 251.103185 83.751676 
L 251.292046 83.835473 
L 251.528123 84.244534 
L 252.000277 85.690064 
L 252.614077 87.387403 
L 252.897369 87.628947 
L 253.086231 87.537043 
L 253.322308 87.138702 
L 253.700031 85.924613 
L 254.313831 82.980816 
L 255.494215 77.327133 
L 256.013585 75.762053 
L 256.344092 75.282205 
L 256.532954 75.25777 
L 256.721815 75.459284 
L 256.957892 76.089342 
L 257.241185 77.51039 
L 257.618908 80.785839 
L 258.043846 86.748838 
L 258.563215 97.651713 
L 259.318662 119.264959 
L 260.499046 153.034448 
L 260.9712 161.202319 
L 261.301708 163.915891 
L 261.490569 164.218946 
L 261.632215 163.827495 
L 261.868292 161.992567 
L 262.1988 157.033884 
L 262.670954 145.805183 
L 263.568046 117.384849 
L 264.417923 93.077276 
L 264.984508 82.473939 
L 265.456662 77.453926 
L 265.787169 75.767993 
L 266.023246 75.351461 
L 266.164892 75.377226 
L 266.353754 75.695211 
L 266.637046 76.687866 
L 267.1092 79.31135 
L 268.289585 86.241572 
L 268.620092 87.094527 
L 268.856169 87.221995 
L 269.045031 87.018448 
L 269.328323 86.21382 
L 269.706046 84.320386 
L 270.555923 78.423125 
L 271.075292 75.718439 
L 271.358585 75.182755 
L 271.500231 75.250177 
L 271.689092 75.735546 
L 271.925169 77.034866 
L 272.255677 80.251638 
L 272.680615 86.92069 
L 273.199985 99.027522 
L 273.813785 118.857076 
L 274.569231 150.815179 
L 276.599492 242.333044 
L 276.93 247.253987 
L 277.071646 247.651178 
L 277.166077 247.333203 
L 277.354938 245.333609 
L 277.638231 239.198197 
L 278.063169 224.419505 
L 278.913046 185.02878 
L 280.093431 132.962894 
L 280.896092 106.909255 
L 281.557108 91.689094 
L 282.076477 83.845566 
L 282.501415 80.32632 
L 282.784708 79.457807 
L 282.926354 79.454072 
L 283.115215 79.872523 
L 283.398508 81.331777 
L 283.823446 85.044876 
L 285.475985 101.526342 
L 285.759277 102.188058 
L 285.900923 102.133087 
L 286.089785 101.661859 
L 286.373077 100.150372 
L 286.798015 96.365784 
L 287.647892 86.028711 
L 288.356123 78.481784 
L 288.781062 75.888085 
L 289.064354 75.252287 
L 289.206 75.290236 
L 289.394862 75.719418 
L 289.678154 77.178957 
L 290.055877 80.635058 
L 290.528031 87.365819 
L 291.094615 99.165558 
L 291.708415 117.26086 
L 292.369431 144.119573 
L 293.124877 185.153273 
L 294.021969 247.057292 
L 295.627292 360.947792 
L 295.863369 365.109708 
L 295.9578 364.247115 
L 296.146662 358.556519 
L 296.524385 337.143076 
L 299.215662 162.50125 
L 300.018323 129.467303 
L 300.773769 106.841739 
L 301.482 91.892622 
L 302.048585 83.989884 
L 302.520738 80.217746 
L 302.851246 79.12166 
L 303.040108 79.054029 
L 303.228969 79.375036 
L 303.512262 80.535465 
L 303.889985 83.184154 
L 304.503785 89.368226 
L 305.873031 103.600105 
L 306.345185 106.219407 
L 306.628477 106.878643 
L 306.817338 106.91433 
L 307.0062 106.627433 
L 307.289492 105.615295 
L 307.667215 103.291273 
L 308.281015 97.788979 
L 309.791908 83.594356 
L 310.311277 80.881648 
L 310.641785 80.036135 
L 310.877862 79.875023 
L 311.066723 80.017212 
L 311.3028 80.538183 
L 311.633308 81.917204 
L 312.058246 84.82826 
L 312.577615 90.185266 
L 313.191415 99.184176 
L 313.899646 113.313868 
L 314.702308 134.221708 
L 315.693831 166.328026 
L 317.724092 234.001476 
L 318.243462 244.135972 
L 318.621185 247.730746 
L 318.810046 248.203912 
L 318.904477 248.103911 
L 319.093338 247.239902 
L 319.376631 244.354906 
L 319.754354 237.868407 
L 320.320938 223.860233 
L 321.595754 184.817649 
L 322.776138 152.006724 
L 323.720446 131.600904 
L 324.617538 116.838768 
L 325.4202 107.079472 
L 326.128431 100.991561 
L 326.742231 97.457109 
L 327.308815 95.414262 
L 327.828185 94.340234 
L 328.300338 93.821278 
L 328.914138 93.492325 
L 330.000092 92.951728 
L 330.661108 92.319389 
L 331.699846 90.94705 
L 332.644154 89.830862 
L 333.305169 89.37294 
L 335.099354 88.410641 
L 335.571508 87.66625 
L 336.138092 86.31136 
L 336.940754 83.723515 
L 338.073923 80.144014 
L 338.546077 79.310656 
L 338.829369 79.148499 
L 339.065446 79.253005 
L 339.348738 79.710613 
L 339.679246 80.76761 
L 340.056969 82.765522 
L 340.529123 86.625372 
L 341.048492 92.874052 
L 341.662292 103.312419 
L 342.323308 118.549089 
L 343.125969 142.580676 
L 344.164708 181.07735 
L 346.147754 256.23865 
L 346.667123 267.986972 
L 346.997631 271.811135 
L 347.233708 272.567036 
L 347.328138 272.397741 
L 347.517 271.262754 
L 347.800292 267.667163 
L 348.225231 258.58094 
L 348.839031 239.902282 
L 351.8136 141.493941 
L 352.663477 123.326741 
L 353.418923 111.589215 
L 354.127154 103.915581 
L 354.740954 99.466939 
L 355.307538 96.825758 
L 355.826908 95.351698 
L 356.346277 94.513397 
L 356.912862 94.02224 
L 358.234892 93.037806 
L 358.848692 92.156681 
L 359.604138 90.613241 
L 360.926169 87.840164 
L 361.351108 87.452353 
L 361.6344 87.476293 
L 361.917692 87.787426 
L 362.2482 88.581504 
L 362.625923 90.149769 
L 363.098077 93.242741 
L 363.617446 98.254884 
L 364.231246 106.480302 
L 364.986692 119.991787 
L 365.883785 140.366776 
L 367.1586 174.993887 
L 369 224.805843 
L 369.661015 237.259048 
L 370.133169 242.532172 
L 370.416462 243.919414 
L 370.558108 244.073283 
L 370.699754 243.858208 
L 370.888615 242.994304 
L 371.171908 240.47754 
L 371.549631 234.964041 
L 372.069 223.905957 
L 372.871662 201.315063 
L 375.562938 121.396174 
L 376.460031 102.818249 
L 377.168262 92.267754 
L 377.782062 86.13296 
L 378.254215 83.270735 
L 378.631938 82.084779 
L 378.915231 81.798917 
L 379.104092 81.877668 
L 379.340169 82.259396 
L 379.670677 83.278643 
L 380.142831 85.579599 
L 380.803846 90.048323 
L 383.259046 107.941029 
L 383.778415 109.886231 
L 384.156138 110.613857 
L 384.439431 110.764344 
L 384.675508 110.632504 
L 384.9588 110.175609 
L 385.336523 109.093712 
L 385.855892 106.848686 
L 386.658554 102.216503 
L 388.075015 93.954125 
L 388.6416 91.89744 
L 389.019323 91.238727 
L 389.2554 91.171097 
L 389.491477 91.394736 
L 389.774769 92.075213 
L 390.152492 93.730058 
L 390.577431 96.678665 
L 391.0968 101.931963 
L 391.7106 110.572373 
L 392.418831 123.880035 
L 393.221492 143.255298 
L 394.1658 171.605483 
L 395.346185 214.229117 
L 397.801385 305.812873 
L 398.320754 316.509103 
L 398.651262 319.423333 
L 398.792908 319.627973 
L 398.887338 319.412014 
L 399.0762 318.153551 
L 399.359492 314.337638 
L 399.784431 305.01047 
L 400.492662 283.317343 
L 403.703308 177.690885 
L 404.836477 149.948385 
L 405.922431 128.47865 
L 406.913954 112.958095 
L 407.811046 102.182308 
L 408.566492 95.479336 
L 409.227508 91.330973 
L 409.794092 88.966986 
L 410.313462 87.672656 
L 410.7384 87.158983 
L 411.068908 87.052434 
L 411.399415 87.164515 
L 411.824354 87.572046 
L 412.438154 88.537805 
L 414.940569 92.954209 
L 415.412723 93.262661 
L 415.837662 93.283817 
L 416.215385 93.079842 
L 416.640323 92.589426 
L 417.159692 91.617167 
L 417.820708 89.835205 
L 418.7178 86.684677 
L 420.606415 79.888975 
L 421.173 78.650993 
L 421.597938 78.201368 
L 421.881231 78.178796 
L 422.164523 78.407691 
L 422.495031 79.025451 
L 422.872754 80.240185 
L 423.344908 82.600086 
L 423.864277 86.384293 
L 424.478077 92.613966 
L 425.186308 102.356801 
L 425.988969 116.880691 
L 426.886062 137.506347 
L 427.9248 166.769258 
L 429.246831 210.776238 
L 432.174185 311.191016 
L 432.693554 320.788184 
L 433.024062 323.497594 
L 433.165708 323.749069 
L 433.260138 323.608325 
L 433.449 322.598401 
L 433.732292 319.361006 
L 434.157231 311.188307 
L 434.771031 294.429191 
L 435.998631 253.35794 
L 437.840031 193.464265 
L 439.020415 162.272954 
L 440.059154 140.55217 
L 441.003462 125.292073 
L 441.853338 114.837426 
L 442.656 107.441821 
L 443.411446 102.35587 
L 444.119677 98.967076 
L 444.780692 96.783523 
L 445.441708 95.334448 
L 446.102723 94.412693 
L 446.858169 93.748515 
L 449.313369 91.871703 
L 450.777046 90.59582 
L 451.296415 90.441494 
L 451.674138 90.536002 
L 452.051862 90.859119 
L 452.4768 91.555154 
L 452.948954 92.81565 
L 453.468323 94.881934 
L 454.082123 98.346798 
L 454.743138 103.407792 
L 455.5458 111.452975 
L 456.442892 122.819712 
L 457.528846 139.52992 
L 458.992523 165.816596 
L 462.392031 228.28809 
L 463.241908 239.471703 
L 463.855708 245.072714 
L 464.327862 247.661956 
L 464.658369 248.501815 
L 464.847231 248.610037 
L 465.036092 248.445998 
L 465.272169 247.860276 
L 465.602677 246.345167 
L 466.027615 243.26837 
L 466.5942 237.410352 
L 467.396862 226.439923 
L 468.766108 203.973332 
L 470.513077 176.184862 
L 471.551815 162.993348 
L 472.401692 154.715193 
L 473.157138 149.33513 
L 473.818154 146.090921 
L 474.384738 144.301337 
L 474.856892 143.426646 
L 475.281831 143.05157 
L 475.659554 142.993292 
L 476.084492 143.175065 
L 476.651077 143.702955 
L 478.398046 145.547283 
L 478.822985 145.635537 
L 479.200708 145.483169 
L 479.578431 145.074164 
L 480.003369 144.269014 
L 480.522738 142.744677 
L 481.136538 140.139754 
L 481.844769 136.064648 
L 482.741862 129.43517 
L 483.969462 118.489908 
L 486.471877 95.863754 
L 487.368969 89.804498 
L 488.0772 86.404651 
L 488.596569 84.831729 
L 488.974292 84.22717 
L 489.257585 84.090047 
L 489.493662 84.191188 
L 489.776954 84.579265 
L 490.154677 85.563727 
L 490.626831 87.571276 
L 491.1462 90.812407 
L 491.76 96.08418 
L 492.468231 104.159387 
L 493.270892 115.933066 
L 494.2152 133.337969 
L 495.301154 157.915741 
L 496.575969 192.293628 
L 498.464585 250.332808 
L 500.022692 295.898443 
L 500.730923 311.022463 
L 501.203077 317.287452 
L 501.533585 319.365226 
L 501.722446 319.628914 
L 501.864092 319.380774 
L 502.052954 318.465302 
L 502.336246 315.897919 
L 502.761185 309.659608 
L 503.374985 296.749507 
L 504.366508 270.280886 
L 507.860446 173.30017 
L 509.182477 143.996695 
L 510.362862 122.506384 
L 511.4016 107.317908 
L 512.345908 96.498545 
L 513.195785 89.123204 
L 513.951231 84.366109 
L 514.612246 81.51758 
L 515.178831 79.990363 
L 515.650985 79.317661 
L 516.028708 79.144175 
L 516.359215 79.239357 
L 516.736938 79.608787 
L 517.209092 80.423594 
L 517.822892 81.985281 
L 518.625554 84.686413 
L 520.042015 90.409522 
L 521.647338 96.627324 
L 522.544431 99.292103 
L 523.299877 100.881096 
L 523.913677 101.690058 
L 524.433046 102.036526 
L 524.9052 102.094728 
L 525.377354 101.927135 
L 525.943938 101.462579 
L 526.652169 100.552201 
L 527.643692 98.867028 
L 530.004462 94.729195 
L 530.759908 93.880345 
L 531.373708 93.509955 
L 531.845862 93.460687 
L 532.318015 93.645102 
L 532.790169 94.088587 
L 533.309538 94.90519 
L 533.876123 96.225562 
L 534.537138 98.385108 
L 535.245369 101.505043 
L 536.048031 106.133558 
L 536.897908 112.386848 
L 537.842215 121.039137 
L 538.928169 133.209798 
L 540.155769 149.606042 
L 541.808308 174.949342 
L 544.641231 218.618749 
L 545.679969 231.054714 
L 546.435415 237.776009 
L 547.049215 241.508239 
L 547.521369 243.23754 
L 547.899092 243.886729 
L 548.135169 243.961165 
L 548.371246 243.783924 
L 548.654538 243.245722 
L 549.032262 241.994701 
L 549.504415 239.623548 
L 550.118215 235.331209 
L 550.920877 227.984256 
L 552.006831 215.733211 
L 553.706585 193.650163 
L 557.058877 149.956293 
L 558.711415 131.482826 
L 560.127877 118.019308 
L 561.402692 107.922733 
L 562.583077 100.304603 
L 563.621815 94.951902 
L 564.566123 91.142861 
L 565.463215 88.410432 
L 566.265877 86.653998 
L 566.974108 85.607864 
L 567.587908 85.055786 
L 568.154492 84.816333 
L 568.721077 84.814907 
L 569.334877 85.056062 
L 569.995892 85.563984 
L 570.798554 86.469297 
L 571.884508 88.06556 
L 575.897815 94.36753 
L 576.747692 95.126272 
L 577.455923 95.466772 
L 578.069723 95.521562 
L 578.683523 95.339532 
L 579.297323 94.915274 
L 580.005554 94.12859 
L 580.808215 92.875326 
L 581.799738 90.872491 
L 583.2162 87.432775 
L 585.340892 82.289172 
L 586.237985 80.67564 
L 586.899 79.889516 
L 587.418369 79.577481 
L 587.843308 79.555489 
L 588.268246 79.768721 
L 588.693185 80.24028 
L 589.165338 81.094671 
L 589.731923 82.619863 
L 590.345723 84.941824 
L 591.053954 88.561726 
L 591.8094 93.624536 
L 592.659277 100.916004 
L 593.556369 110.569806 
L 594.547892 123.711006 
L 595.633846 141.187636 
L 596.861446 164.798195 
L 598.277908 196.609015 
L 600.4026 250.171344 
L 602.338431 297.366849 
L 603.235523 314.379085 
L 603.849323 322.264297 
L 604.274262 325.295912 
L 604.557554 326.063341 
L 604.6992 326.056812 
L 604.888062 325.643131 
L 605.029708 325.033468 
L 605.029708 325.033468 
" style="fill:none;stroke:#000000;stroke-linecap:square;stroke-width:1.5;"/>
   </g>
   <g id="patch_3">
    <path d="M 90 384.48 
L 90 51.84 
" style="fill:none;stroke:#000000;stroke-linecap:square;stroke-linejoin:miter;stroke-width:0.8;"/>
   </g>
   <g id="patch_4">
    <path d="M 648 384.48 
L 648 51.84 
" style="fill:none;stroke:#000000;stroke-linecap:square;stroke-linejoin:miter;stroke-width:0.8;"/>
   </g>
   <g id="patch_5">
    <path d="M 90 384.48 
L 648 384.48 
" style="fill:none;stroke:#000000;stroke-linecap:square;stroke-linejoin:miter;stroke-width:0.8;"/>
   </g>
   <g id="patch_6">
    <path d="M 90 51.84 
L 648 51.84 
" style="fill:none;stroke:#000000;stroke-linecap:square;stroke-linejoin:miter;stroke-width:0.8;"/>
   </g>
   <g id="text_17">
    <!-- Periodogram: Ivar 1627 -->
    <g transform="translate(269.882813 45.84)scale(0.21 -0.21)">
     <defs>
      <path d="M 1267 2042 
L 2291 2042 
C 3117 2042 3718 2578 3718 3184 
C 3718 3791 3130 4352 2291 4352 
L 333 4352 
L 333 4186 
C 774 4186 845 4186 845 3899 
L 845 446 
C 845 160 774 160 333 160 
L 333 0 
C 518 0 858 0 1056 0 
C 1254 0 1594 0 1779 0 
L 1779 160 
C 1338 160 1267 160 1267 446 
L 1267 2042 
z
M 1254 2176 
L 1254 3938 
C 1254 4155 1267 4186 1523 4186 
L 2170 4186 
C 2995 4186 3232 3714 3232 3184 
C 3232 2604 2950 2176 2170 2176 
L 1254 2176 
z
" id="CMR17-50" transform="scale(0.015625)"/>
      <path d="M 2438 1472 
C 2464 1498 2464 1511 2464 1576 
C 2464 2238 2118 2816 1389 2816 
C 710 2816 173 2169 173 1383 
C 173 551 781 -64 1459 -64 
C 2176 -64 2458 607 2458 740 
C 2458 784 2419 784 2406 784 
C 2362 784 2355 771 2330 696 
C 2189 265 1837 51 1504 51 
C 1229 51 954 203 781 480 
C 582 803 582 1176 582 1472 
L 2438 1472 
z
M 589 1568 
C 634 2505 1126 2714 1382 2714 
C 1818 2714 2112 2297 2118 1568 
L 589 1568 
z
" id="CMR17-65" transform="scale(0.015625)"/>
      <path d="M 992 3909 
C 992 4049 877 4170 730 4170 
C 589 4170 467 4056 467 3909 
C 467 3769 582 3648 730 3648 
C 870 3648 992 3763 992 3909 
z
M 243 2706 
L 243 2541 
C 602 2541 653 2502 653 2197 
L 653 427 
C 653 184 627 153 218 153 
L 218 -13 
C 371 0 646 0 806 0 
C 960 0 1222 0 1370 -13 
L 1370 153 
C 992 153 979 191 979 420 
L 979 2776 
L 243 2706 
z
" id="CMR17-69" transform="scale(0.015625)"/>
      <path d="M 1869 4326 
L 1869 4160 
C 2246 4160 2304 4122 2304 3820 
L 2304 2345 
C 2278 2377 2016 2790 1498 2790 
C 845 2790 211 2208 211 1364 
C 211 525 806 -64 1434 -64 
C 1978 -64 2259 337 2291 380 
L 2291 -63 
L 3066 -63 
L 3066 128 
C 2688 128 2630 166 2630 473 
L 2630 4396 
L 1869 4326 
z
M 2291 755 
C 2291 563 2176 390 2029 262 
C 1811 70 1594 38 1472 38 
C 1286 38 621 134 621 1356 
C 621 2612 1363 2688 1530 2688 
C 1824 2688 2061 2522 2208 2291 
C 2291 2157 2291 2138 2291 2023 
L 2291 755 
z
" id="CMR17-64" transform="scale(0.015625)"/>
      <path d="M 4326 1933 
C 4326 2252 4269 2790 3507 2790 
C 3072 2790 2771 2496 2656 2151 
L 2650 2151 
C 2573 2676 2195 2790 1837 2790 
C 1331 2790 1069 2400 973 2144 
L 966 2144 
L 966 2790 
L 211 2720 
L 211 2554 
C 589 2554 646 2515 646 2208 
L 646 428 
C 646 184 621 153 211 153 
L 211 -13 
C 365 0 646 0 813 0 
C 979 0 1267 0 1421 -13 
L 1421 153 
C 1011 153 986 178 986 428 
L 986 1658 
C 986 2247 1344 2688 1792 2688 
C 2266 2688 2317 2266 2317 1958 
L 2317 428 
C 2317 184 2291 153 1882 153 
L 1882 -13 
C 2035 0 2317 0 2483 0 
C 2650 0 2938 0 3091 -13 
L 3091 153 
C 2682 153 2656 178 2656 428 
L 2656 1658 
C 2656 2247 3014 2688 3462 2688 
C 3936 2688 3987 2266 3987 1958 
L 3987 428 
C 3987 184 3962 153 3552 153 
L 3552 -13 
C 3706 0 3987 0 4154 0 
C 4320 0 4608 0 4762 -13 
L 4762 153 
C 4352 153 4326 178 4326 428 
L 4326 1933 
z
" id="CMR17-6d" transform="scale(0.015625)"/>
      <path d="M 1062 2491 
C 1062 2650 934 2752 800 2752 
C 672 2752 538 2650 538 2491 
C 538 2332 666 2230 800 2230 
C 928 2230 1062 2332 1062 2491 
z
M 1062 261 
C 1062 420 934 522 800 522 
C 672 522 538 420 538 261 
C 538 102 666 0 800 0 
C 928 0 1062 102 1062 261 
z
" id="CMR17-3a" transform="scale(0.015625)"/>
      <path d="M 1261 3905 
C 1261 4192 1338 4192 1798 4192 
L 1798 4352 
C 1594 4352 1267 4352 1050 4352 
C 832 4352 506 4352 301 4352 
L 301 4192 
C 762 4192 838 4192 838 3905 
L 838 447 
C 838 160 762 160 301 160 
L 301 0 
C 506 0 832 0 1050 0 
C 1267 0 1594 0 1798 0 
L 1798 160 
C 1338 160 1261 160 1261 447 
L 1261 3905 
z
" id="CMR17-49" transform="scale(0.015625)"/>
      <path d="M 2502 2163 
C 2560 2304 2662 2560 3034 2560 
L 3034 2726 
C 2912 2726 2752 2726 2630 2726 
C 2496 2726 2285 2726 2157 2732 
L 2157 2566 
C 2317 2553 2406 2477 2406 2311 
C 2406 2253 2406 2240 2368 2151 
L 1664 377 
L 902 2286 
C 864 2369 864 2381 864 2407 
C 864 2560 1075 2560 1171 2560 
L 1171 2732 
C 1018 2726 736 2726 576 2726 
C 403 2726 205 2726 64 2732 
L 64 2560 
C 307 2560 442 2560 518 2362 
L 1446 44 
C 1485 -51 1491 -64 1549 -64 
C 1606 -64 1613 -51 1651 44 
L 2502 2163 
z
" id="CMR17-76" transform="scale(0.015625)"/>
      <path d="M 2886 3941 
L 2886 4081 
L 1382 4081 
C 634 4081 621 4165 595 4288 
L 480 4288 
L 294 3094 
L 410 3094 
C 429 3215 474 3540 550 3661 
C 589 3712 1062 3712 1171 3712 
L 2579 3712 
L 1869 2661 
C 1395 1954 1069 999 1069 165 
C 1069 89 1069 -128 1299 -128 
C 1530 -128 1530 89 1530 171 
L 1530 465 
C 1530 1508 1709 2196 2003 2636 
L 2886 3941 
z
" id="CMR17-37" transform="scale(0.015625)"/>
     </defs>
     <use transform="scale(0.996264)" xlink:href="#CMR17-50"/>
     <use transform="translate(59.983847 0)scale(0.996264)" xlink:href="#CMR17-65"/>
     <use transform="translate(100.469507 0)scale(0.996264)" xlink:href="#CMR17-72"/>
     <use transform="translate(135.750275 0)scale(0.996264)" xlink:href="#CMR17-69"/>
     <use transform="translate(160.621333 0)scale(0.996264)" xlink:href="#CMR17-6f"/>
     <use transform="translate(208.914249 0)scale(0.996264)" xlink:href="#CMR17-64"/>
     <use transform="translate(259.809619 0)scale(0.996264)" xlink:href="#CMR17-6f"/>
     <use transform="translate(305.500096 0)scale(0.996264)" xlink:href="#CMR17-67"/>
     <use transform="translate(351.190573 0)scale(0.996264)" xlink:href="#CMR17-72"/>
     <use transform="translate(386.471341 0)scale(0.996264)" xlink:href="#CMR17-61"/>
     <use transform="translate(432.161818 0)scale(0.996264)" xlink:href="#CMR17-6d"/>
     <use transform="translate(509.081408 0)scale(0.996264)" xlink:href="#CMR17-3a"/>
     <use transform="translate(574.438127 0)scale(0.996264)" xlink:href="#CMR17-49"/>
     <use transform="translate(607.076536 0)scale(0.996264)" xlink:href="#CMR17-76"/>
     <use transform="translate(650.164635 0)scale(0.996264)" xlink:href="#CMR17-61"/>
     <use transform="translate(695.855112 0)scale(0.996264)" xlink:href="#CMR17-72"/>
     <use transform="translate(761.211847 0)scale(0.996264)" xlink:href="#CMR17-31"/>
     <use transform="translate(806.902324 0)scale(0.996264)" xlink:href="#CMR17-36"/>
     <use transform="translate(852.592801 0)scale(0.996264)" xlink:href="#CMR17-32"/>
     <use transform="translate(898.283278 0)scale(0.996264)" xlink:href="#CMR17-37"/>
    </g>
   </g>
  </g>
 </g>
 <defs>
  <clipPath id="p0dbf5c99d8">
   <rect height="332.64" width="558" x="90" y="51.84"/>
  </clipPath>
 </defs>
</svg>
