<?xml version="1.0" encoding="utf-8" standalone="no"?>
<!DOCTYPE svg PUBLIC "-//W3C//DTD SVG 1.1//EN"
  "http://www.w3.org/Graphics/SVG/1.1/DTD/svg11.dtd">
<svg height="432pt" version="1.1" viewBox="0 0 720 432" width="720pt" xmlns="http://www.w3.org/2000/svg" xmlns:xlink="http://www.w3.org/1999/xlink">
 <metadata>
  <rdf:RDF xmlns:cc="http://creativecommons.org/ns#" xmlns:dc="http://purl.org/dc/elements/1.1/" xmlns:rdf="http://www.w3.org/1999/02/22-rdf-syntax-ns#">
   <cc:Work>
    <dc:type rdf:resource="http://purl.org/dc/dcmitype/StillImage"/>
    <dc:date>2021-07-28T16:38:41.784508</dc:date>
    <dc:format>image/svg+xml</dc:format>
    <dc:creator>
     <cc:Agent>
      <dc:title>Matplotlib v3.4.2, https://matplotlib.org/</dc:title>
     </cc:Agent>
    </dc:creator>
   </cc:Work>
  </rdf:RDF>
 </metadata>
 <defs>
  <style type="text/css">*{stroke-linecap:butt;stroke-linejoin:round;}</style>
 </defs>
 <g id="figure_1">
  <g id="patch_1">
   <path d="M 0 432 
L 720 432 
L 720 0 
L 0 0 
z
" style="fill:#ffffff;"/>
  </g>
  <g id="axes_1">
   <g id="patch_2">
    <path d="M 90 384.48 
L 648 384.48 
L 648 51.84 
L 90 51.84 
z
" style="fill:#ffffff;"/>
   </g>
   <g id="matplotlib.axis_1">
    <g id="xtick_1">
     <g id="line2d_1">
      <path clip-path="url(#p7c7dc1a6e5)" d="M 161.484739 384.48 
L 161.484739 51.84 
" style="fill:none;stroke:#cccccc;stroke-linecap:round;stroke-width:0.8;"/>
     </g>
     <g id="line2d_2"/>
     <g id="text_1">
      <!-- 2 -->
      <g style="fill:#262626;" transform="translate(158.70427 395.226875)scale(0.1 -0.1)">
       <defs>
        <path d="M 322 0 
L 322 397 
Q 481 763 711 1042 
Q 941 1322 1194 1548 
Q 1447 1775 1695 1969 
Q 1944 2163 2144 2356 
Q 2344 2550 2467 2762 
Q 2591 2975 2591 3244 
Q 2591 3431 2534 3573 
Q 2478 3716 2372 3812 
Q 2266 3909 2117 3957 
Q 1969 4006 1788 4006 
Q 1619 4006 1470 3959 
Q 1322 3913 1206 3819 
Q 1091 3725 1017 3586 
Q 944 3447 922 3263 
L 347 3316 
Q 375 3553 478 3762 
Q 581 3972 762 4130 
Q 944 4288 1198 4378 
Q 1453 4469 1788 4469 
Q 2116 4469 2372 4391 
Q 2628 4313 2804 4159 
Q 2981 4006 3075 3781 
Q 3169 3556 3169 3263 
Q 3169 3041 3089 2841 
Q 3009 2641 2876 2459 
Q 2744 2278 2569 2109 
Q 2394 1941 2203 1780 
Q 2013 1619 1819 1461 
Q 1625 1303 1454 1143 
Q 1284 984 1150 820 
Q 1016 656 941 478 
L 3238 478 
L 3238 0 
L 322 0 
z
" id="LiberationSans-32" transform="scale(0.015625)"/>
       </defs>
       <use xlink:href="#LiberationSans-32"/>
      </g>
     </g>
    </g>
    <g id="xtick_2">
     <g id="line2d_3">
      <path clip-path="url(#p7c7dc1a6e5)" d="M 253.727683 384.48 
L 253.727683 51.84 
" style="fill:none;stroke:#cccccc;stroke-linecap:round;stroke-width:0.8;"/>
     </g>
     <g id="line2d_4"/>
     <g id="text_2">
      <!-- 4 -->
      <g style="fill:#262626;" transform="translate(250.947214 395.226875)scale(0.1 -0.1)">
       <defs>
        <path d="M 2753 997 
L 2753 0 
L 2222 0 
L 2222 997 
L 147 997 
L 147 1434 
L 2163 4403 
L 2753 4403 
L 2753 1441 
L 3372 1441 
L 3372 997 
L 2753 997 
z
M 2222 3769 
Q 2216 3753 2191 3708 
Q 2166 3663 2134 3606 
Q 2103 3550 2070 3492 
Q 2038 3434 2013 3397 
L 884 1734 
Q 869 1709 839 1668 
Q 809 1628 778 1586 
Q 747 1544 715 1503 
Q 684 1463 666 1441 
L 2222 1441 
L 2222 3769 
z
" id="LiberationSans-34" transform="scale(0.015625)"/>
       </defs>
       <use xlink:href="#LiberationSans-34"/>
      </g>
     </g>
    </g>
    <g id="xtick_3">
     <g id="line2d_5">
      <path clip-path="url(#p7c7dc1a6e5)" d="M 345.970627 384.48 
L 345.970627 51.84 
" style="fill:none;stroke:#cccccc;stroke-linecap:round;stroke-width:0.8;"/>
     </g>
     <g id="line2d_6"/>
     <g id="text_3">
      <!-- 6 -->
      <g style="fill:#262626;" transform="translate(343.190158 395.226875)scale(0.1 -0.1)">
       <defs>
        <path d="M 3278 1441 
Q 3278 1109 3186 832 
Q 3094 556 2914 357 
Q 2734 159 2468 48 
Q 2203 -63 1856 -63 
Q 1472 -63 1184 84 
Q 897 231 706 507 
Q 516 784 420 1186 
Q 325 1588 325 2100 
Q 325 2688 433 3131 
Q 541 3575 744 3872 
Q 947 4169 1239 4319 
Q 1531 4469 1900 4469 
Q 2125 4469 2322 4422 
Q 2519 4375 2680 4270 
Q 2841 4166 2962 3994 
Q 3084 3822 3156 3572 
L 2619 3475 
Q 2531 3759 2339 3886 
Q 2147 4013 1894 4013 
Q 1663 4013 1475 3903 
Q 1288 3794 1156 3576 
Q 1025 3359 954 3031 
Q 884 2703 884 2266 
Q 1038 2550 1316 2698 
Q 1594 2847 1953 2847 
Q 2253 2847 2497 2750 
Q 2741 2653 2914 2470 
Q 3088 2288 3183 2027 
Q 3278 1766 3278 1441 
z
M 2706 1416 
Q 2706 1644 2650 1828 
Q 2594 2013 2481 2142 
Q 2369 2272 2203 2342 
Q 2038 2413 1819 2413 
Q 1666 2413 1509 2367 
Q 1353 2322 1226 2220 
Q 1100 2119 1020 1953 
Q 941 1788 941 1550 
Q 941 1306 1003 1095 
Q 1066 884 1183 728 
Q 1300 572 1465 481 
Q 1631 391 1838 391 
Q 2041 391 2202 461 
Q 2363 531 2475 664 
Q 2588 797 2647 987 
Q 2706 1178 2706 1416 
z
" id="LiberationSans-36" transform="scale(0.015625)"/>
       </defs>
       <use xlink:href="#LiberationSans-36"/>
      </g>
     </g>
    </g>
    <g id="xtick_4">
     <g id="line2d_7">
      <path clip-path="url(#p7c7dc1a6e5)" d="M 438.21357 384.48 
L 438.21357 51.84 
" style="fill:none;stroke:#cccccc;stroke-linecap:round;stroke-width:0.8;"/>
     </g>
     <g id="line2d_8"/>
     <g id="text_4">
      <!-- 8 -->
      <g style="fill:#262626;" transform="translate(435.433102 395.226875)scale(0.1 -0.1)">
       <defs>
        <path d="M 3281 1228 
Q 3281 947 3192 711 
Q 3103 475 2920 303 
Q 2738 131 2453 34 
Q 2169 -63 1781 -63 
Q 1394 -63 1111 34 
Q 828 131 642 301 
Q 456 472 367 708 
Q 278 944 278 1222 
Q 278 1463 351 1650 
Q 425 1838 548 1973 
Q 672 2109 830 2192 
Q 988 2275 1156 2303 
L 1156 2316 
Q 972 2359 826 2456 
Q 681 2553 582 2689 
Q 484 2825 432 2990 
Q 381 3156 381 3341 
Q 381 3572 470 3776 
Q 559 3981 734 4136 
Q 909 4291 1168 4380 
Q 1428 4469 1769 4469 
Q 2128 4469 2392 4378 
Q 2656 4288 2829 4133 
Q 3003 3978 3087 3772 
Q 3172 3566 3172 3334 
Q 3172 3153 3120 2987 
Q 3069 2822 2970 2686 
Q 2872 2550 2726 2454 
Q 2581 2359 2391 2322 
L 2391 2309 
Q 2581 2278 2743 2195 
Q 2906 2113 3025 1977 
Q 3144 1841 3212 1653 
Q 3281 1466 3281 1228 
z
M 2588 3303 
Q 2588 3469 2545 3606 
Q 2503 3744 2406 3842 
Q 2309 3941 2153 3995 
Q 1997 4050 1769 4050 
Q 1547 4050 1394 3995 
Q 1241 3941 1142 3842 
Q 1044 3744 1000 3606 
Q 956 3469 956 3303 
Q 956 3172 990 3034 
Q 1025 2897 1115 2784 
Q 1206 2672 1365 2600 
Q 1525 2528 1775 2528 
Q 2041 2528 2202 2600 
Q 2363 2672 2448 2784 
Q 2534 2897 2561 3034 
Q 2588 3172 2588 3303 
z
M 2697 1281 
Q 2697 1441 2653 1589 
Q 2609 1738 2503 1852 
Q 2397 1966 2217 2036 
Q 2038 2106 1769 2106 
Q 1522 2106 1348 2036 
Q 1175 1966 1067 1850 
Q 959 1734 909 1582 
Q 859 1431 859 1269 
Q 859 1066 909 898 
Q 959 731 1068 611 
Q 1178 491 1356 425 
Q 1534 359 1788 359 
Q 2044 359 2219 425 
Q 2394 491 2500 611 
Q 2606 731 2651 901 
Q 2697 1072 2697 1281 
z
" id="LiberationSans-38" transform="scale(0.015625)"/>
       </defs>
       <use xlink:href="#LiberationSans-38"/>
      </g>
     </g>
    </g>
    <g id="xtick_5">
     <g id="line2d_9">
      <path clip-path="url(#p7c7dc1a6e5)" d="M 530.456514 384.48 
L 530.456514 51.84 
" style="fill:none;stroke:#cccccc;stroke-linecap:round;stroke-width:0.8;"/>
     </g>
     <g id="line2d_10"/>
     <g id="text_5">
      <!-- 10 -->
      <g style="fill:#262626;" transform="translate(524.895577 395.226875)scale(0.1 -0.1)">
       <defs>
        <path d="M 488 0 
L 488 478 
L 1609 478 
L 1609 3866 
L 616 3156 
L 616 3688 
L 1656 4403 
L 2175 4403 
L 2175 478 
L 3247 478 
L 3247 0 
L 488 0 
z
" id="LiberationSans-31" transform="scale(0.015625)"/>
        <path d="M 3309 2203 
Q 3309 1569 3189 1136 
Q 3069 703 2861 436 
Q 2653 169 2372 53 
Q 2091 -63 1772 -63 
Q 1450 -63 1172 53 
Q 894 169 689 434 
Q 484 700 367 1133 
Q 250 1566 250 2203 
Q 250 2869 367 3305 
Q 484 3741 690 4000 
Q 897 4259 1178 4364 
Q 1459 4469 1791 4469 
Q 2106 4469 2382 4364 
Q 2659 4259 2865 4000 
Q 3072 3741 3190 3305 
Q 3309 2869 3309 2203 
z
M 2738 2203 
Q 2738 2728 2675 3076 
Q 2613 3425 2491 3633 
Q 2369 3841 2192 3927 
Q 2016 4013 1791 4013 
Q 1553 4013 1372 3925 
Q 1191 3838 1067 3630 
Q 944 3422 881 3073 
Q 819 2725 819 2203 
Q 819 1697 883 1350 
Q 947 1003 1070 792 
Q 1194 581 1372 489 
Q 1550 397 1778 397 
Q 2000 397 2178 489 
Q 2356 581 2479 792 
Q 2603 1003 2670 1350 
Q 2738 1697 2738 2203 
z
" id="LiberationSans-30" transform="scale(0.015625)"/>
       </defs>
       <use xlink:href="#LiberationSans-31"/>
       <use x="55.615234" xlink:href="#LiberationSans-30"/>
      </g>
     </g>
    </g>
    <g id="xtick_6">
     <g id="line2d_11">
      <path clip-path="url(#p7c7dc1a6e5)" d="M 622.699458 384.48 
L 622.699458 51.84 
" style="fill:none;stroke:#cccccc;stroke-linecap:round;stroke-width:0.8;"/>
     </g>
     <g id="line2d_12"/>
     <g id="text_6">
      <!-- 12 -->
      <g style="fill:#262626;" transform="translate(617.13852 395.226875)scale(0.1 -0.1)">
       <use xlink:href="#LiberationSans-31"/>
       <use x="55.615234" xlink:href="#LiberationSans-32"/>
      </g>
     </g>
    </g>
    <g id="text_7">
     <!-- Hours -->
     <g style="fill:#262626;" transform="translate(355.663281 408.54875)scale(0.1 -0.1)">
      <defs>
       <path d="M 3503 0 
L 3503 2041 
L 1122 2041 
L 1122 0 
L 525 0 
L 525 4403 
L 1122 4403 
L 1122 2541 
L 3503 2541 
L 3503 4403 
L 4100 4403 
L 4100 0 
L 3503 0 
z
" id="LiberationSans-48" transform="scale(0.015625)"/>
       <path d="M 3291 1694 
Q 3291 806 2900 371 
Q 2509 -63 1766 -63 
Q 1413 -63 1134 43 
Q 856 150 664 369 
Q 472 588 370 917 
Q 269 1247 269 1694 
Q 269 3444 1784 3444 
Q 2178 3444 2464 3334 
Q 2750 3225 2933 3006 
Q 3116 2788 3203 2459 
Q 3291 2131 3291 1694 
z
M 2700 1694 
Q 2700 2088 2639 2344 
Q 2578 2600 2461 2753 
Q 2344 2906 2175 2967 
Q 2006 3028 1794 3028 
Q 1578 3028 1404 2964 
Q 1231 2900 1109 2745 
Q 988 2591 923 2334 
Q 859 2078 859 1694 
Q 859 1300 928 1042 
Q 997 784 1117 631 
Q 1238 478 1402 415 
Q 1566 353 1759 353 
Q 1975 353 2150 414 
Q 2325 475 2447 628 
Q 2569 781 2634 1040 
Q 2700 1300 2700 1694 
z
" id="LiberationSans-6f" transform="scale(0.015625)"/>
       <path d="M 981 3381 
L 981 1238 
Q 981 991 1017 825 
Q 1053 659 1134 557 
Q 1216 456 1348 414 
Q 1481 372 1678 372 
Q 1878 372 2039 442 
Q 2200 513 2314 645 
Q 2428 778 2490 973 
Q 2553 1169 2553 1422 
L 2553 3381 
L 3116 3381 
L 3116 722 
Q 3116 616 3117 498 
Q 3119 381 3122 276 
Q 3125 172 3128 97 
Q 3131 22 3134 0 
L 2603 0 
Q 2600 16 2597 84 
Q 2594 153 2589 242 
Q 2584 331 2581 423 
Q 2578 516 2578 578 
L 2569 578 
Q 2488 431 2391 312 
Q 2294 194 2166 111 
Q 2038 28 1872 -17 
Q 1706 -63 1488 -63 
Q 1206 -63 1003 6 
Q 800 75 669 219 
Q 538 363 477 588 
Q 416 813 416 1128 
L 416 3381 
L 981 3381 
z
" id="LiberationSans-75" transform="scale(0.015625)"/>
       <path d="M 444 0 
L 444 2594 
Q 444 2700 442 2811 
Q 441 2922 437 3025 
Q 434 3128 431 3218 
Q 428 3309 425 3381 
L 956 3381 
Q 959 3309 964 3217 
Q 969 3125 973 3028 
Q 978 2931 979 2842 
Q 981 2753 981 2691 
L 994 2691 
Q 1053 2884 1120 3026 
Q 1188 3169 1278 3261 
Q 1369 3353 1494 3398 
Q 1619 3444 1797 3444 
Q 1866 3444 1928 3433 
Q 1991 3422 2025 3413 
L 2025 2897 
Q 1969 2913 1894 2920 
Q 1819 2928 1725 2928 
Q 1531 2928 1395 2840 
Q 1259 2753 1173 2598 
Q 1088 2444 1047 2230 
Q 1006 2016 1006 1763 
L 1006 0 
L 444 0 
z
" id="LiberationSans-72" transform="scale(0.015625)"/>
       <path d="M 2969 934 
Q 2969 697 2876 511 
Q 2784 325 2609 198 
Q 2434 72 2179 4 
Q 1925 -63 1597 -63 
Q 1303 -63 1067 -17 
Q 831 28 653 128 
Q 475 228 354 392 
Q 234 556 178 794 
L 675 891 
Q 747 619 972 492 
Q 1197 366 1597 366 
Q 1778 366 1929 391 
Q 2081 416 2190 477 
Q 2300 538 2361 639 
Q 2422 741 2422 891 
Q 2422 1044 2350 1142 
Q 2278 1241 2150 1306 
Q 2022 1372 1839 1420 
Q 1656 1469 1438 1528 
Q 1234 1581 1034 1647 
Q 834 1713 673 1820 
Q 513 1928 413 2087 
Q 313 2247 313 2488 
Q 313 2950 642 3192 
Q 972 3434 1603 3434 
Q 2163 3434 2492 3237 
Q 2822 3041 2909 2606 
L 2403 2544 
Q 2375 2675 2300 2764 
Q 2225 2853 2119 2908 
Q 2013 2963 1880 2986 
Q 1747 3009 1603 3009 
Q 1222 3009 1040 2893 
Q 859 2778 859 2544 
Q 859 2406 926 2317 
Q 994 2228 1114 2167 
Q 1234 2106 1403 2061 
Q 1572 2016 1775 1966 
Q 1909 1931 2050 1892 
Q 2191 1853 2323 1798 
Q 2456 1744 2573 1670 
Q 2691 1597 2778 1494 
Q 2866 1391 2917 1253 
Q 2969 1116 2969 934 
z
" id="LiberationSans-73" transform="scale(0.015625)"/>
      </defs>
      <use xlink:href="#LiberationSans-48"/>
      <use x="72.216797" xlink:href="#LiberationSans-6f"/>
      <use x="127.832031" xlink:href="#LiberationSans-75"/>
      <use x="183.447266" xlink:href="#LiberationSans-72"/>
      <use x="216.748047" xlink:href="#LiberationSans-73"/>
     </g>
    </g>
   </g>
   <g id="matplotlib.axis_2">
    <g id="ytick_1">
     <g id="line2d_13">
      <path clip-path="url(#p7c7dc1a6e5)" d="M 90 333.706905 
L 648 333.706905 
" style="fill:none;stroke:#cccccc;stroke-linecap:round;stroke-width:0.8;"/>
     </g>
     <g id="line2d_14"/>
     <g id="text_8">
      <!-- 4.0 -->
      <g style="fill:#262626;" transform="translate(72.6 337.330343)scale(0.1 -0.1)">
       <defs>
        <path d="M 584 0 
L 584 684 
L 1194 684 
L 1194 0 
L 584 0 
z
" id="LiberationSans-2e" transform="scale(0.015625)"/>
       </defs>
       <use xlink:href="#LiberationSans-34"/>
       <use x="55.615234" xlink:href="#LiberationSans-2e"/>
       <use x="83.398438" xlink:href="#LiberationSans-30"/>
      </g>
     </g>
    </g>
    <g id="ytick_2">
     <g id="line2d_15">
      <path clip-path="url(#p7c7dc1a6e5)" d="M 90 260.567852 
L 648 260.567852 
" style="fill:none;stroke:#cccccc;stroke-linecap:round;stroke-width:0.8;"/>
     </g>
     <g id="line2d_16"/>
     <g id="text_9">
      <!-- 4.5 -->
      <g style="fill:#262626;" transform="translate(72.6 264.191289)scale(0.1 -0.1)">
       <defs>
        <path d="M 3291 1434 
Q 3291 1103 3191 828 
Q 3091 553 2894 354 
Q 2697 156 2405 46 
Q 2113 -63 1728 -63 
Q 1381 -63 1123 18 
Q 866 100 687 242 
Q 509 384 404 575 
Q 300 766 256 984 
L 825 1050 
Q 859 925 921 808 
Q 984 691 1092 598 
Q 1200 506 1358 451 
Q 1516 397 1741 397 
Q 1959 397 2137 464 
Q 2316 531 2442 662 
Q 2569 794 2637 984 
Q 2706 1175 2706 1422 
Q 2706 1625 2640 1795 
Q 2575 1966 2453 2089 
Q 2331 2213 2154 2281 
Q 1978 2350 1753 2350 
Q 1613 2350 1494 2325 
Q 1375 2300 1273 2256 
Q 1172 2213 1089 2155 
Q 1006 2097 934 2034 
L 384 2034 
L 531 4403 
L 3034 4403 
L 3034 3925 
L 1044 3925 
L 959 2528 
Q 1109 2644 1334 2726 
Q 1559 2809 1869 2809 
Q 2197 2809 2459 2709 
Q 2722 2609 2906 2426 
Q 3091 2244 3191 1991 
Q 3291 1738 3291 1434 
z
" id="LiberationSans-35" transform="scale(0.015625)"/>
       </defs>
       <use xlink:href="#LiberationSans-34"/>
       <use x="55.615234" xlink:href="#LiberationSans-2e"/>
       <use x="83.398438" xlink:href="#LiberationSans-35"/>
      </g>
     </g>
    </g>
    <g id="ytick_3">
     <g id="line2d_17">
      <path clip-path="url(#p7c7dc1a6e5)" d="M 90 187.428798 
L 648 187.428798 
" style="fill:none;stroke:#cccccc;stroke-linecap:round;stroke-width:0.8;"/>
     </g>
     <g id="line2d_18"/>
     <g id="text_10">
      <!-- 5.0 -->
      <g style="fill:#262626;" transform="translate(72.6 191.052236)scale(0.1 -0.1)">
       <use xlink:href="#LiberationSans-35"/>
       <use x="55.615234" xlink:href="#LiberationSans-2e"/>
       <use x="83.398438" xlink:href="#LiberationSans-30"/>
      </g>
     </g>
    </g>
    <g id="ytick_4">
     <g id="line2d_19">
      <path clip-path="url(#p7c7dc1a6e5)" d="M 90 114.289744 
L 648 114.289744 
" style="fill:none;stroke:#cccccc;stroke-linecap:round;stroke-width:0.8;"/>
     </g>
     <g id="line2d_20"/>
     <g id="text_11">
      <!-- 5.5 -->
      <g style="fill:#262626;" transform="translate(72.6 117.913182)scale(0.1 -0.1)">
       <use xlink:href="#LiberationSans-35"/>
       <use x="55.615234" xlink:href="#LiberationSans-2e"/>
       <use x="83.398438" xlink:href="#LiberationSans-35"/>
      </g>
     </g>
    </g>
    <g id="text_12">
     <!-- RMSE -->
     <g style="fill:#262626;" transform="translate(66.525 232.606094)rotate(-90)scale(0.1 -0.1)">
      <defs>
       <path d="M 3638 0 
L 2494 1828 
L 1122 1828 
L 1122 0 
L 525 0 
L 525 4403 
L 2597 4403 
Q 2972 4403 3261 4317 
Q 3550 4231 3747 4068 
Q 3944 3906 4047 3672 
Q 4150 3438 4150 3144 
Q 4150 2934 4089 2731 
Q 4028 2528 3897 2359 
Q 3766 2191 3562 2069 
Q 3359 1947 3075 1897 
L 4325 0 
L 3638 0 
z
M 3550 3138 
Q 3550 3338 3481 3484 
Q 3413 3631 3281 3729 
Q 3150 3828 2962 3876 
Q 2775 3925 2538 3925 
L 1122 3925 
L 1122 2300 
L 2563 2300 
Q 2819 2300 3006 2364 
Q 3194 2428 3314 2540 
Q 3434 2653 3492 2806 
Q 3550 2959 3550 3138 
z
" id="LiberationSans-52" transform="scale(0.015625)"/>
       <path d="M 4269 0 
L 4269 2938 
Q 4269 3097 4272 3262 
Q 4275 3428 4281 3566 
Q 4288 3725 4297 3875 
Q 4253 3716 4206 3559 
Q 4166 3425 4117 3273 
Q 4069 3122 4022 3000 
L 2884 0 
L 2466 0 
L 1313 3000 
Q 1294 3047 1273 3109 
Q 1253 3172 1229 3242 
Q 1206 3313 1182 3386 
Q 1159 3459 1138 3531 
Q 1084 3697 1034 3875 
Q 1038 3700 1044 3528 
Q 1050 3381 1053 3220 
Q 1056 3059 1056 2938 
L 1056 0 
L 525 0 
L 525 4403 
L 1309 4403 
L 2481 1350 
Q 2503 1288 2534 1189 
Q 2566 1091 2594 987 
Q 2622 884 2645 792 
Q 2669 700 2678 650 
Q 2688 700 2713 794 
Q 2738 888 2770 991 
Q 2803 1094 2834 1191 
Q 2866 1288 2891 1350 
L 4041 4403 
L 4806 4403 
L 4806 0 
L 4269 0 
z
" id="LiberationSans-4d" transform="scale(0.015625)"/>
       <path d="M 3975 1216 
Q 3975 938 3867 703 
Q 3759 469 3534 298 
Q 3309 128 2967 32 
Q 2625 -63 2156 -63 
Q 1334 -63 875 225 
Q 416 513 291 1056 
L 869 1172 
Q 913 1000 1003 859 
Q 1094 719 1248 617 
Q 1403 516 1631 459 
Q 1859 403 2178 403 
Q 2444 403 2666 448 
Q 2888 494 3047 587 
Q 3206 681 3295 829 
Q 3384 978 3384 1184 
Q 3384 1400 3286 1534 
Q 3188 1669 3009 1756 
Q 2831 1844 2584 1903 
Q 2338 1963 2038 2031 
Q 1853 2072 1667 2120 
Q 1481 2169 1311 2236 
Q 1141 2303 991 2393 
Q 841 2484 731 2611 
Q 622 2738 559 2905 
Q 497 3072 497 3291 
Q 497 3603 623 3826 
Q 750 4050 975 4194 
Q 1200 4338 1506 4403 
Q 1813 4469 2169 4469 
Q 2578 4469 2868 4405 
Q 3159 4341 3359 4212 
Q 3559 4084 3679 3895 
Q 3800 3706 3872 3456 
L 3284 3353 
Q 3241 3513 3158 3638 
Q 3075 3763 2940 3847 
Q 2806 3931 2614 3975 
Q 2422 4019 2163 4019 
Q 1856 4019 1648 3964 
Q 1441 3909 1314 3815 
Q 1188 3722 1133 3595 
Q 1078 3469 1078 3322 
Q 1078 3125 1176 2998 
Q 1275 2872 1444 2787 
Q 1613 2703 1834 2647 
Q 2056 2591 2306 2534 
Q 2509 2488 2711 2439 
Q 2913 2391 3097 2323 
Q 3281 2256 3442 2165 
Q 3603 2075 3722 1944 
Q 3841 1813 3908 1634 
Q 3975 1456 3975 1216 
z
" id="LiberationSans-53" transform="scale(0.015625)"/>
       <path d="M 525 0 
L 525 4403 
L 3866 4403 
L 3866 3916 
L 1122 3916 
L 1122 2503 
L 3678 2503 
L 3678 2022 
L 1122 2022 
L 1122 488 
L 3994 488 
L 3994 0 
L 525 0 
z
" id="LiberationSans-45" transform="scale(0.015625)"/>
      </defs>
      <use xlink:href="#LiberationSans-52"/>
      <use x="72.216797" xlink:href="#LiberationSans-4d"/>
      <use x="155.517578" xlink:href="#LiberationSans-53"/>
      <use x="222.216797" xlink:href="#LiberationSans-45"/>
     </g>
    </g>
   </g>
   <g id="line2d_21">
    <path clip-path="url(#p7c7dc1a6e5)" d="M 115.363636 95.452342 
L 115.554026 76.274258 
L 115.61712 89.917179 
L 115.680214 86.087472 
L 115.870604 95.180558 
L 115.933698 114.61887 
L 116.124087 86.616413 
L 116.187181 80.17491 
L 116.251382 86.753037 
L 116.314477 80.586976 
L 116.377571 86.707983 
L 116.441772 73.563725 
L 116.504866 74.121922 
L 116.631054 103.817256 
L 116.695255 83.647553 
L 116.75835 97.378679 
L 116.948739 87.585945 
L 117.011833 99.711522 
L 117.139129 69.339067 
L 117.202223 76.392305 
L 117.265317 71.796686 
L 117.329518 73.744086 
L 117.392612 75.580754 
L 117.455706 71.858415 
L 117.70919 108.781935 
L 117.96378 88.966956 
L 118.026875 106.509504 
L 118.089969 102.781022 
L 118.153063 78.268175 
L 118.217264 92.336034 
L 118.280358 95.54596 
L 118.343452 70.544106 
L 118.407654 77.370467 
L 118.470748 76.816219 
L 118.533842 71.131705 
L 118.598043 83.602499 
L 118.661137 68.965765 
L 118.724231 72.606042 
L 118.787325 77.740404 
L 118.851527 105.785282 
L 118.914621 102.936515 
L 118.977715 73.333045 
L 119.041916 81.742427 
L 119.10501 108.384644 
L 119.2954 80.388623 
L 119.358494 76.291812 
L 119.421588 85.872882 
L 119.485789 78.548005 
L 119.548883 85.29128 
L 119.675072 124.154009 
L 119.802367 75.940598 
L 119.929662 121.864171 
L 119.992756 127.257737 
L 120.120052 83.41029 
L 120.183146 111.531086 
L 120.24624 95.74168 
L 120.309334 92.786716 
L 120.373535 128.283586 
L 120.436629 115.969163 
L 120.563925 77.173723 
L 120.627019 91.599523 
L 120.690113 86.559365 
L 120.753207 90.268246 
L 120.817408 79.33542 
L 120.880502 98.886513 
L 120.943597 84.662138 
L 121.007798 88.68815 
L 121.070892 110.02091 
L 121.133986 88.291298 
L 121.198187 92.521807 
L 121.324375 190.153667 
L 121.451671 86.789607 
L 121.514765 93.431657 
L 121.577859 179.264578 
L 121.64206 161.567853 
L 121.831343 82.314082 
L 121.958638 95.539085 
L 122.021732 77.254029 
L 122.149027 177.842755 
L 122.339417 69.769417 
L 122.529806 153.880207 
L 122.719089 79.700092 
L 122.78329 79.471313 
L 122.846384 75.162545 
L 123.036773 110.589201 
L 123.227163 116.964586 
L 123.353351 84.362121 
L 123.480646 136.841001 
L 123.543741 124.89125 
L 123.607942 104.283737 
L 123.671036 106.943804 
L 123.73413 144.027352 
L 123.797224 120.364967 
L 123.861425 78.964167 
L 123.987614 293.103614 
L 124.051815 282.221546 
L 124.178003 79.079287 
L 124.305298 132.093984 
L 124.368393 123.876812 
L 124.431487 131.423299 
L 124.495688 90.137912 
L 124.558782 102.756447 
L 124.621876 98.755448 
L 124.686077 84.867805 
L 124.749171 88.134634 
L 124.812266 95.854461 
L 124.87536 89.011132 
L 125.002655 130.746032 
L 125.065749 131.125184 
L 125.193044 82.218854 
L 125.319233 100.92563 
L 125.383434 86.844753 
L 125.446528 93.251881 
L 125.509622 87.377059 
L 125.573823 98.792895 
L 125.636917 92.991213 
L 125.700012 94.066796 
L 125.827307 77.70047 
L 125.953495 107.947565 
L 126.017696 180.693715 
L 126.080791 139.195786 
L 126.143885 127.970404 
L 126.208086 80.774358 
L 126.27118 106.337481 
L 126.334274 93.245737 
L 126.524664 132.913434 
L 126.587758 120.986649 
L 126.651959 160.88883 
L 126.715053 147.564503 
L 126.841241 84.139486 
L 126.968537 156.492587 
L 127.095832 135.362422 
L 127.22202 82.819911 
L 127.349315 111.627483 
L 127.539705 72.973786 
L 127.602799 91.547595 
L 127.665893 84.291908 
L 127.730094 79.15228 
L 127.793189 82.426569 
L 127.856283 88.532218 
L 127.919377 69.720122 
L 128.173967 138.971396 
L 128.36325 80.039457 
L 128.490545 110.917595 
L 128.680935 80.743347 
L 128.744029 81.637692 
L 128.871324 103.883666 
L 128.997512 78.916772 
L 129.061714 84.780184 
L 129.124808 85.794769 
L 129.252103 111.5757 
L 129.315197 87.589163 
L 129.378291 96.379307 
L 129.441385 85.078884 
L 129.505587 88.830479 
L 129.695976 102.184207 
L 129.885259 78.571556 
L 130.012554 89.160482 
L 130.075648 69.809644 
L 130.139849 73.766174 
L 130.266037 109.090143 
L 130.330238 94.722415 
L 130.393333 74.486301 
L 130.456427 77.26266 
L 130.519521 79.337615 
L 130.583722 69.927105 
L 130.646816 74.456607 
L 130.70991 72.256438 
L 130.837206 86.271636 
L 130.9003 70.899562 
L 130.963394 80.903814 
L 131.027595 79.059979 
L 131.281079 98.58796 
L 131.344173 88.514225 
L 131.407267 91.712011 
L 131.597657 129.366336 
L 131.724952 72.626082 
L 131.788046 79.089234 
L 131.852247 75.042451 
L 131.915341 91.835762 
L 131.978435 85.444872 
L 132.04153 83.148598 
L 132.105731 109.699099 
L 132.168825 102.636792 
L 132.359214 67.59982 
L 132.422308 74.789828 
L 132.485403 68.157579 
L 132.549604 69.81491 
L 132.739993 88.523295 
L 132.803087 84.813974 
L 132.866181 72.498967 
L 132.929276 81.425881 
L 133.056571 68.054892 
L 133.119665 78.966946 
L 133.183866 69.735042 
L 133.24696 73.302326 
L 133.310055 83.595917 
L 133.373149 83.260647 
L 133.563538 87.617979 
L 133.690833 69.761665 
L 133.753928 71.724132 
L 133.818129 83.809044 
L 133.881223 68.291277 
L 133.944317 74.823033 
L 134.134706 97.677525 
L 134.197801 100.073268 
L 134.38819 68.149241 
L 134.451284 73.754618 
L 134.515485 73.633354 
L 134.578579 69.789457 
L 134.641674 73.2621 
L 134.832063 124.892274 
L 135.085547 77.342674 
L 135.212842 87.093865 
L 135.275936 101.612406 
L 135.340137 79.215765 
L 135.403231 88.555768 
L 135.466326 97.574838 
L 135.656715 72.750858 
L 135.847104 89.945264 
L 135.910199 86.505827 
L 136.100588 69.287431 
L 136.163682 70.021308 
L 136.290977 80.573957 
L 136.417166 71.298755 
L 136.544461 92.652872 
L 136.671756 72.635444 
L 136.734851 85.42922 
L 136.797945 75.644824 
L 136.862146 79.47219 
L 136.988334 116.06717 
L 137.051428 104.321477 
L 137.241818 76.155188 
L 137.306019 77.656294 
L 137.432207 71.95057 
L 137.495301 79.948179 
L 137.559502 73.268536 
L 137.749892 116.387519 
L 137.939174 77.784873 
L 138.003375 83.269278 
L 138.06647 94.667999 
L 138.129564 92.732447 
L 138.193765 89.654317 
L 138.256859 73.274387 
L 138.319953 79.922288 
L 138.384154 82.047855 
L 138.447249 81.920593 
L 138.573437 72.458887 
L 138.763826 82.850191 
L 138.828027 84.188343 
L 138.891122 83.209889 
L 138.954216 78.686384 
L 139.144605 88.351272 
L 139.2719 71.314699 
L 139.461183 82.574164 
L 139.525384 80.016491 
L 139.651572 83.878672 
L 139.715774 80.444501 
L 139.778868 81.448408 
L 139.841962 87.062854 
L 140.032351 76.063618 
L 140.095445 80.998017 
L 140.159647 74.585039 
L 140.222741 76.506402 
L 140.41313 72.064667 
L 140.476224 72.390721 
L 140.539319 76.44555 
L 140.60352 74.482205 
L 140.666614 75.469729 
L 140.857003 96.667767 
L 140.983192 92.590996 
L 141.047393 93.320631 
L 141.110487 90.683237 
L 141.173581 92.808951 
L 141.237782 92.624201 
L 141.428172 75.797831 
L 141.617454 93.063036 
L 141.744749 74.177654 
L 141.935139 94.106437 
L 141.998233 93.362613 
L 142.061327 97.592684 
L 142.188622 89.100801 
L 142.315918 102.361496 
L 142.632495 72.315973 
L 142.69559 71.798734 
L 142.759791 69.826612 
L 142.95018 78.672781 
L 143.076368 72.726429 
L 143.203664 99.371572 
L 143.266758 94.373834 
L 143.394053 73.344747 
L 143.457147 77.428978 
L 143.520241 73.914939 
L 143.583336 78.098493 
L 143.837926 66.96 
L 144.154504 91.04864 
L 144.281799 70.987621 
L 144.344893 73.172285 
L 144.472189 87.223175 
L 144.598377 85.081663 
L 144.788766 70.033157 
L 144.851861 78.811891 
L 144.916062 78.091033 
L 145.105344 73.522475 
L 145.169545 76.40781 
L 145.232639 69.404453 
L 145.423029 92.533363 
L 145.486123 87.991574 
L 145.613418 91.142697 
L 145.739607 76.738545 
L 145.866902 113.552064 
L 145.929996 107.753161 
L 146.18348 73.555387 
L 146.247681 76.303368 
L 146.310775 75.081653 
L 146.373869 73.120064 
L 146.564259 86.371251 
L 146.627353 78.011018 
L 146.691554 80.032436 
L 146.881943 121.40164 
L 146.945037 108.79744 
L 147.072333 78.041737 
L 147.135427 81.841896 
L 147.325816 89.896407 
L 147.452005 84.794812 
L 147.5793 73.961163 
L 147.642394 76.86844 
L 147.705488 75.977314 
L 147.769689 72.904157 
L 147.960079 87.091525 
L 148.023173 82.480985 
L 148.086267 73.782265 
L 148.339751 108.029773 
L 148.53014 78.229997 
L 148.594341 80.08217 
L 148.72053 90.283898 
L 149.101309 68.339256 
L 149.354792 85.039682 
L 149.482087 74.812355 
L 149.545182 77.100291 
L 149.608276 69.319027 
L 149.798665 87.382179 
L 149.861759 90.373128 
L 149.92596 82.239041 
L 149.989055 88.168424 
L 150.11635 75.370552 
L 150.179444 78.2161 
L 150.242538 76.53478 
L 150.305632 88.753975 
L 150.369834 86.575894 
L 150.560223 68.782479 
L 150.686411 70.471552 
L 150.813707 85.014814 
L 150.876801 78.062216 
L 150.939895 79.977142 
L 151.004096 81.454405 
L 151.06719 78.568338 
L 151.130284 85.131105 
L 151.193379 76.563158 
L 151.25758 77.688768 
L 151.447969 94.300548 
L 151.701453 70.31796 
L 151.891842 86.767665 
L 151.954936 78.438882 
L 152.01803 78.477353 
L 152.082232 79.159448 
L 152.145326 69.952558 
L 152.20842 79.118783 
L 152.271514 77.974595 
L 152.335715 74.591475 
L 152.589199 102.656978 
L 152.715387 83.365675 
L 152.779588 85.824171 
L 152.842682 74.40029 
L 152.969978 87.800973 
L 153.033072 87.792635 
L 153.096166 76.271772 
L 153.160367 77.011061 
L 153.223461 88.665623 
L 153.286555 87.212497 
L 153.413851 75.803536 
L 153.476945 78.485691 
L 153.60424 102.178795 
L 153.793523 82.782464 
L 153.857724 81.992855 
L 154.048113 72.160333 
L 154.237396 86.010237 
L 154.301597 84.708508 
L 154.364691 82.895244 
L 154.427785 90.700791 
L 154.618175 74.132016 
L 154.681269 75.0189 
L 154.808564 94.26354 
L 154.871658 72.055305 
L 154.935859 73.941269 
L 154.998953 75.909733 
L 155.126249 82.19311 
L 155.189343 82.91075 
L 155.252437 68.959622 
L 155.315531 74.072919 
L 155.505921 82.855311 
L 155.69631 70.974456 
L 155.759404 70.377495 
L 156.013995 96.923315 
L 156.140183 95.986404 
L 156.267478 89.794598 
L 156.330573 92.616595 
L 156.393667 100.83523 
L 156.584056 72.340548 
L 156.648257 73.693474 
L 156.774446 114.212071 
L 156.83754 100.274108 
L 157.027929 80.689809 
L 157.09213 72.721163 
L 157.155224 85.642494 
L 157.218319 81.283552 
L 157.345614 88.646753 
L 157.599097 67.923095 
L 157.662192 76.301466 
L 157.725286 75.302387 
L 157.915675 80.118008 
L 157.979876 78.496077 
L 158.106065 98.595859 
L 158.296454 76.370656 
L 158.359548 75.974827 
L 158.423749 72.037898 
L 158.486844 75.148941 
L 158.549938 70.111416 
L 158.740327 85.138712 
L 158.867622 77.228869 
L 158.930717 77.420201 
L 158.993811 77.976204 
L 159.1842 73.523791 
L 159.247294 76.444819 
L 159.311495 73.78168 
L 159.437684 82.804991 
L 159.501885 80.25156 
L 159.564979 73.590055 
L 159.628073 74.341047 
L 159.755369 70.877913 
L 160.008852 89.939706 
L 160.136147 114.953993 
L 160.32543 80.232837 
L 160.389631 80.916687 
L 160.515819 103.282902 
L 160.58002 97.869003 
L 160.833504 77.606559 
L 160.959692 68.29508 
L 161.086988 83.492791 
L 161.150082 81.19915 
L 161.403565 69.202005 
L 161.467767 70.070604 
L 161.593955 86.53596 
L 161.72125 69.116139 
L 161.784344 72.862175 
L 161.847439 69.150807 
L 162.228217 94.716563 
L 162.291312 91.586212 
L 162.418607 80.801858 
L 162.608996 104.989967 
L 162.67209 103.761963 
L 162.86248 90.943758 
L 162.925574 87.376913 
L 163.052869 69.682674 
L 163.115963 70.023941 
L 163.306353 99.019919 
L 163.369447 92.649946 
L 163.433648 86.91365 
L 163.496742 91.777836 
L 163.624038 72.323579 
L 163.750226 75.639412 
L 163.81332 82.470599 
L 163.877521 80.772603 
L 164.067911 74.994179 
L 164.2583 84.349541 
L 164.321394 80.628665 
L 164.384488 82.777491 
L 164.447583 91.223296 
L 164.511784 90.371811 
L 164.574878 88.931411 
L 164.637972 83.278347 
L 164.702173 86.119653 
L 164.828361 105.197829 
L 164.891456 97.097093 
L 164.955657 89.08866 
L 165.018751 91.288682 
L 165.081845 93.298543 
L 165.272235 75.660329 
L 165.335329 75.827233 
L 165.39953 73.370053 
L 165.462624 79.025603 
L 165.525718 76.739862 
L 165.843403 87.374134 
L 165.906497 85.930515 
L 166.033792 99.478208 
L 166.159981 112.97134 
L 166.287276 99.733756 
L 166.35037 102.434343 
L 166.413464 112.408901 
L 166.477665 105.486582 
L 166.668055 87.5248 
L 166.731149 88.574638 
L 166.858444 116.728347 
L 166.921538 114.208414 
L 167.111928 84.942407 
L 167.302317 105.281353 
L 167.428506 83.936013 
L 167.4916 87.744364 
L 167.681989 74.861358 
L 167.74619 75.320672 
L 167.809284 73.319002 
L 167.872379 73.70386 
L 168.125862 81.527252 
L 168.253157 82.795044 
L 168.379346 86.779806 
L 168.569735 123.747941 
L 168.760125 79.323572 
L 168.824326 83.572366 
L 168.950514 109.069518 
L 169.013608 104.312846 
L 169.140904 88.461565 
L 169.457481 106.59654 
L 169.775166 79.278518 
L 169.83826 75.601233 
L 169.902461 77.740843 
L 170.091744 110.770293 
L 170.346334 74.715665 
L 170.662912 138.197438 
L 170.726006 135.569698 
L 170.97949 79.048862 
L 171.169879 119.012626 
L 171.23408 114.772755 
L 171.297175 106.104168 
L 171.360269 108.669886 
L 171.550658 156.542029 
L 171.868343 79.545037 
L 171.931437 77.884342 
L 172.057625 99.49152 
L 172.121827 95.3027 
L 172.184921 86.945393 
L 172.248015 88.04555 
L 172.312216 84.861369 
L 172.37531 74.680559 
L 172.438404 77.302008 
L 172.5657 95.7645 
L 172.628794 94.497439 
L 172.691888 95.230438 
L 172.756089 100.832159 
L 172.882277 127.729192 
L 172.946478 125.819677 
L 173.135761 89.528372 
L 173.263056 119.189183 
L 173.390352 196.439091 
L 173.453446 190.272006 
L 173.706929 76.082195 
L 173.770023 82.621997 
L 173.960413 175.216185 
L 174.341192 81.309882 
L 174.404286 79.050032 
L 174.46738 80.862856 
L 174.594675 92.796956 
L 174.721971 77.66668 
L 174.785065 81.13742 
L 174.91236 110.421566 
L 175.038548 171.076222 
L 175.101643 163.305637 
L 175.292032 105.334452 
L 175.419327 81.003869 
L 175.482421 90.201836 
L 175.800106 165.742337 
L 176.05359 72.432995 
L 176.116684 76.781258 
L 176.307073 96.18973 
L 176.370168 90.056728 
L 176.497463 106.513893 
L 176.560557 97.236058 
L 176.623651 97.855838 
L 176.750946 126.403034 
L 176.814041 123.958288 
L 176.878242 110.518256 
L 176.941336 111.655129 
L 177.00443 119.751184 
L 177.067524 115.773882 
L 177.131725 102.885611 
L 177.257914 122.927467 
L 177.448303 72.904596 
L 177.765988 150.806611 
L 177.829082 145.622808 
L 178.019471 101.760001 
L 178.082566 106.923618 
L 178.272955 153.708623 
L 178.463344 108.111689 
L 178.526439 119.114289 
L 178.653734 229.698637 
L 178.779922 369.36 
L 179.097607 77.527277 
L 179.223795 95.790976 
L 179.351091 137.43021 
L 179.414185 128.8981 
L 179.478386 127.701545 
L 179.54148 134.802909 
L 179.604574 130.516521 
L 179.858058 94.569993 
L 179.922259 90.990567 
L 180.048447 95.433765 
L 180.111541 94.205029 
L 180.238837 99.632971 
L 180.301931 98.750329 
L 180.429226 83.875015 
L 180.49232 87.763672 
L 180.619615 117.530682 
L 180.68271 116.221493 
L 180.810005 142.383333 
L 180.873099 139.225481 
L 181.063489 79.447469 
L 181.126583 83.573975 
L 181.189677 86.964263 
L 181.316972 75.888084 
L 181.444267 101.312536 
L 181.507362 98.572162 
L 181.570456 95.769327 
L 181.63355 98.386681 
L 181.760845 87.02058 
L 181.951235 105.363562 
L 182.332013 82.631798 
L 182.395108 82.783049 
L 182.585497 94.200494 
L 182.775887 188.704782 
L 182.838981 184.484366 
L 183.155559 78.349506 
L 183.21976 72.211677 
L 183.663633 138.240883 
L 183.726727 133.726448 
L 183.917116 118.010913 
L 184.1706 177.519919 
L 184.424083 90.121237 
L 184.488285 88.68581 
L 184.741768 171.029852 
L 184.804862 154.289932 
L 184.995252 104.025995 
L 185.185641 80.594875 
L 185.31183 109.410784 
L 185.376031 108.445641 
L 185.56642 88.810731 
L 185.629514 88.102745 
L 185.692608 92.873898 
L 185.755703 89.854572 
L 185.946092 74.470649 
L 186.010293 78.491103 
L 186.136481 104.097817 
L 186.199576 99.494738 
L 186.326871 87.77084 
L 186.389965 90.153272 
L 186.580355 69.752742 
L 186.643449 72.892747 
L 186.898039 99.527065 
L 187.088429 152.824956 
L 187.151523 145.098401 
L 187.468101 86.104586 
L 187.532302 88.2401 
L 187.721584 105.02171 
L 187.848879 88.869389 
L 187.911974 90.264004 
L 188.039269 102.787312 
L 188.229658 82.817863 
L 188.292753 82.909726 
L 188.483142 126.365734 
L 188.546236 122.699858 
L 188.863921 86.410015 
L 188.990109 94.936419 
L 189.180499 116.707868 
L 189.307794 92.346127 
L 189.370888 93.302493 
L 189.624372 112.257503 
L 189.687466 111.608906 
L 189.877855 108.753996 
L 189.942056 109.147045 
L 190.132446 123.336607 
L 190.512118 78.100979 
L 190.829802 97.363027 
L 191.020192 75.220471 
L 191.083286 76.755075 
L 191.33677 105.39823 
L 191.399864 97.18603 
L 191.590253 80.532268 
L 191.717549 81.84014 
L 191.971032 78.389586 
L 192.098327 74.52565 
L 192.161422 75.113103 
L 192.605295 98.159072 
L 192.668389 96.474534 
L 192.921872 88.060324 
L 193.049168 86.430347 
L 193.112262 86.737093 
L 193.429947 96.373894 
L 193.68343 106.037465 
L 193.87382 130.81683 
L 193.936914 126.665896 
L 194.253492 74.308866 
L 194.698472 98.41857 
L 194.82466 113.74676 
L 194.887754 111.577895 
L 194.951955 109.951867 
L 195.078143 115.009433 
L 195.205439 105.520372 
L 195.458922 69.029543 
L 195.522017 69.587594 
L 195.712406 75.648627 
L 195.96589 68.453061 
L 196.030091 70.485888 
L 196.283574 90.256836 
L 196.473964 79.434597 
L 196.537058 81.926445 
L 196.664353 88.648362 
L 196.790541 86.543713 
L 196.853636 87.050274 
L 196.980931 82.933423 
L 197.044025 83.51561 
L 197.108226 84.755902 
L 197.17132 84.402787 
L 197.297509 81.231477 
L 197.36171 82.742384 
L 197.552099 99.404484 
L 197.615193 98.150881 
L 197.678288 97.170232 
L 197.931771 109.41883 
L 198.059066 94.5422 
L 198.249456 77.259442 
L 198.31255 76.854397 
L 198.439845 73.334215 
L 198.502939 73.617994 
L 198.566034 73.911282 
L 198.630235 73.826294 
L 198.693329 73.888463 
L 198.819517 77.598368 
L 198.946813 87.865628 
L 199.074108 104.019412 
L 199.137202 103.153007 
L 199.390686 77.840604 
L 199.45378 76.971566 
L 199.517981 77.547902 
L 199.834559 97.013569 
L 199.961854 105.983781 
L 200.152243 89.076226 
L 200.278432 109.014956 
L 200.468821 138.634371 
L 200.596116 121.082461 
L 200.8496 88.509983 
L 200.975788 82.239919 
L 201.230379 97.504478 
L 201.293473 96.716624 
L 201.483862 81.613117 
L 201.546957 84.732351 
L 201.674252 95.135211 
L 201.864641 85.922909 
L 201.927735 89.376389 
L 201.99083 89.654756 
L 202.053924 87.750215 
L 202.118125 87.870017 
L 202.244313 90.067991 
L 202.308514 88.983632 
L 202.371609 89.100508 
L 202.561998 101.28957 
L 202.94167 75.682125 
L 203.19626 80.426363 
L 203.449744 116.204379 
L 203.512838 112.282663 
L 203.703228 99.262594 
L 203.766322 98.440219 
L 204.210195 70.115219 
L 204.274396 71.823601 
L 204.33749 72.493262 
L 204.400584 72.344058 
L 204.52788 90.935567 
L 204.654068 110.827342 
L 204.718269 110.81169 
L 205.162142 77.323365 
L 205.225236 76.527612 
L 205.28833 77.276995 
L 205.415626 87.34561 
L 205.606015 112.17427 
L 205.859499 89.700541 
L 205.922593 93.555847 
L 206.176077 147.426563 
L 206.240278 141.585678 
L 206.556855 90.39346 
L 206.684151 79.767087 
L 206.747245 80.492188 
L 207.063823 101.880826 
L 207.128024 96.861147 
L 207.381507 72.876072 
L 207.634991 81.668849 
L 207.762286 91.011485 
L 207.951569 77.837094 
L 208.01577 80.459568 
L 208.332348 106.608388 
L 208.396549 104.205624 
L 208.522737 95.424842 
L 208.585831 97.102798 
L 208.650032 100.136606 
L 208.713126 99.768278 
L 208.840422 96.254824 
L 208.96661 98.227677 
L 209.029704 97.660703 
L 209.093905 96.870362 
L 209.284295 101.033583 
L 209.347389 99.543302 
L 209.537778 89.859691 
L 209.600873 89.891434 
L 209.854356 97.995241 
L 209.981651 95.497981 
L 210.10784 89.193102 
L 210.172041 90.231238 
L 210.235135 93.835823 
L 210.298229 93.606898 
L 210.551713 77.276264 
L 210.806303 80.354394 
L 210.932492 81.936977 
L 211.122881 87.897663 
L 211.376365 79.09962 
L 211.629848 89.602827 
L 211.694049 88.980999 
L 211.884439 81.752227 
L 212.391406 104.330692 
L 212.581795 117.682226 
L 212.64489 116.94162 
L 212.835279 100.379574 
L 212.898373 100.531411 
L 213.088763 109.448085 
L 213.216058 114.59137 
L 213.342246 108.478261 
L 213.85032 82.564656 
L 213.913415 82.712397 
L 214.103804 88.68581 
L 214.166898 87.428696 
L 214.229992 85.116185 
L 214.294193 85.353887 
L 214.673865 124.135139 
L 214.738067 123.136206 
L 214.928456 115.296284 
L 215.117738 126.937827 
L 215.372329 104.663182 
L 215.435423 105.904791 
L 215.688907 128.138771 
L 215.94239 97.032585 
L 216.006592 97.390381 
L 216.260075 122.377461 
L 216.323169 121.487359 
L 216.894338 73.800988 
L 217.084727 78.535864 
L 217.27401 83.871066 
L 217.464399 76.672135 
L 217.5286 76.73913 
L 217.654788 77.086541 
L 217.908272 85.741816 
L 218.161756 121.206358 
L 218.225957 116.451735 
L 218.47944 72.644367 
L 218.542535 74.023185 
L 218.66983 90.650032 
L 218.860219 115.834734 
L 219.050609 88.173836 
L 219.176797 91.124851 
L 219.239891 91.820403 
L 219.494482 81.632718 
L 219.557576 81.892654 
L 219.683764 86.560974 
L 219.811059 90.290188 
L 220.128744 80.604822 
L 220.191838 80.242491 
L 220.318027 97.782553 
L 220.445322 118.356715 
L 220.508416 117.473195 
L 220.889195 81.361519 
L 220.952289 83.982676 
L 221.205773 116.729224 
L 221.269974 117.883359 
L 221.460363 135.95046 
L 221.586552 122.205584 
L 221.776941 97.914057 
L 221.840035 98.337678 
L 222.094626 127.013453 
L 222.15772 123.814058 
L 222.348109 100.459881 
L 222.411204 102.751474 
L 222.727781 144.814475 
L 222.855077 112.460098 
L 222.982372 85.792575 
L 223.10856 90.050584 
L 223.235855 84.093116 
L 223.29895 86.774832 
L 223.489339 103.478915 
L 223.616634 101.486461 
L 223.805917 113.575176 
L 223.996306 101.593682 
L 224.186696 122.710975 
L 224.24979 120.611153 
L 224.440179 109.701146 
L 224.567475 116.441934 
L 224.693663 125.86634 
L 224.757864 124.657352 
L 225.011348 87.828035 
L 225.074442 90.615072 
L 225.264831 121.750074 
L 225.518315 200.181324 
L 225.64561 160.457017 
L 225.962188 71.887378 
L 226.026389 78.128626 
L 226.279873 179.377505 
L 226.342967 176.635961 
L 226.849934 90.41862 
L 226.977229 83.29707 
L 227.040323 84.317214 
L 227.293807 105.133027 
L 227.358008 103.812429 
L 227.484197 95.943837 
L 227.548398 96.242098 
L 227.674586 106.382242 
L 227.92807 186.094595 
L 227.992271 185.265345 
L 228.308848 118.920617 
L 228.562332 77.184986 
L 228.626533 80.904253 
L 229.006205 140.766228 
L 229.070406 149.740244 
L 229.1335 145.916827 
L 229.514279 78.861187 
L 229.577373 79.803364 
L 229.767763 85.475298 
L 229.958152 72.981831 
L 230.021246 74.453242 
L 230.148542 79.227467 
L 230.211636 78.54113 
L 230.27473 80.474927 
L 230.528214 125.900423 
L 230.592415 122.022005 
L 230.718603 105.721504 
L 230.908993 118.615188 
L 230.972087 116.534236 
L 231.036288 110.305568 
L 231.099382 112.290562 
L 231.289771 141.97902 
L 231.41596 111.20942 
L 231.543255 86.114387 
L 231.67055 101.514546 
L 231.987128 149.974289 
L 232.050222 149.439057 
L 232.367907 107.393024 
L 232.431001 108.921192 
L 232.558296 127.349893 
L 232.748686 155.368294 
L 232.874874 127.240623 
L 233.065264 78.543324 
L 233.128358 79.738709 
L 233.255653 112.71784 
L 233.572231 341.842016 
L 233.636432 316.299957 
L 233.95301 104.160278 
L 234.080305 78.403629 
L 234.143399 81.572013 
L 234.396883 143.340869 
L 234.459977 137.99733 
L 234.524178 130.829849 
L 234.587272 131.173456 
L 234.714567 136.905803 
L 234.840756 119.641036 
L 235.094239 85.61865 
L 235.15844 84.991117 
L 235.221535 86.276609 
L 235.411924 95.433326 
L 235.538112 89.270776 
L 235.665408 83.772767 
L 235.918891 106.654027 
L 236.046187 96.035407 
L 236.172375 107.746871 
L 236.29967 121.628371 
L 236.362764 120.921701 
L 236.425858 119.119848 
L 236.616248 142.725623 
L 236.680449 142.282401 
L 236.806637 116.558518 
L 236.997027 87.391541 
L 237.124322 95.10815 
L 237.187416 92.909005 
L 237.314711 83.556714 
L 237.4409 91.190383 
L 237.568195 97.479464 
L 237.758585 90.479472 
L 238.012068 106.692206 
L 238.202458 126.062207 
L 238.265552 125.612401 
L 238.519035 99.053124 
L 238.58213 99.099787 
L 238.646331 98.844239 
L 238.772519 90.454019 
L 238.899814 79.79488 
L 238.962908 81.008842 
L 239.153298 87.444786 
L 239.216392 87.942132 
L 239.343687 111.094884 
L 239.597171 186.570877 
L 240.168339 70.021601 
L 240.231433 71.894253 
L 240.865696 137.850028 
L 240.92879 133.543015 
L 241.182274 114.18106 
L 241.309569 131.021327 
L 241.563053 174.483186 
L 241.690348 144.047977 
L 241.943831 77.068987 
L 242.006926 76.387624 
L 242.134221 85.306639 
L 242.387704 153.789807 
L 242.513893 170.871872 
L 243.085061 90.055412 
L 243.148155 88.51993 
L 243.402746 115.854335 
L 243.46584 110.760054 
L 243.719324 87.110833 
L 244.035901 71.622761 
L 244.163197 72.791523 
L 244.353586 75.204819 
L 244.60707 87.692581 
L 244.670164 86.084546 
L 244.797459 80.12854 
L 244.860553 80.549968 
L 245.050943 86.914821 
L 245.114037 86.094054 
L 245.241332 81.854622 
L 245.368627 88.028728 
L 245.494816 94.564288 
L 245.622111 90.706203 
L 245.685205 92.073172 
L 245.875595 128.544546 
L 246.00289 149.530481 
L 246.065984 147.038633 
L 246.446763 98.11475 
L 246.572951 92.600943 
L 246.636045 93.99117 
L 246.890636 109.69866 
L 247.016824 99.489764 
L 247.207214 85.958747 
L 247.270308 85.919983 
L 247.460697 87.253747 
L 247.587993 87.090647 
L 247.714181 85.342185 
L 247.778382 83.946545 
L 247.841476 84.125736 
L 247.968771 93.267825 
L 248.158054 108.96449 
L 248.222255 108.410681 
L 248.538833 86.504949 
L 248.601927 86.845046 
L 248.666128 87.078798 
L 248.729222 86.867573 
L 248.792317 87.430743 
L 248.919612 94.724901 
L 249.110001 108.142846 
L 249.173095 106.169262 
L 249.363485 88.964469 
L 249.426579 89.390578 
L 249.616968 94.207516 
L 249.744264 88.529146 
L 249.934653 80.932924 
L 250.314325 96.952132 
L 250.567809 113.011127 
L 250.63201 112.581509 
L 250.822399 98.442706 
L 251.138977 77.196103 
L 251.202071 78.062801 
L 251.456662 88.078902 
L 251.519756 86.61144 
L 251.773239 78.939007 
L 251.836334 79.07446 
L 251.963629 81.568209 
L 252.154018 96.06949 
L 252.344408 115.232068 
L 252.407502 114.744523 
L 252.72408 86.15593 
L 252.788281 87.24146 
L 252.97867 93.084977 
L 253.041764 93.065961 
L 253.104859 92.753072 
L 253.167953 92.878579 
L 253.295248 93.845185 
L 253.358342 93.418053 
L 253.612933 85.439167 
L 253.739121 86.802625 
L 253.802215 87.971095 
L 253.866416 87.951201 
L 253.992605 83.79032 
L 254.246088 75.45159 
L 254.373384 77.321317 
L 254.563773 80.956621 
L 254.626867 80.91303 
L 254.817257 78.960071 
L 254.880351 79.132094 
L 255.007646 84.328477 
L 255.26113 96.500864 
L 255.641909 90.635989 
L 255.768097 94.193765 
L 255.958486 110.802913 
L 256.21197 131.747159 
L 256.276171 129.534264 
L 256.529655 95.572729 
L 256.720044 79.119953 
L 256.783138 78.006338 
L 256.846232 78.136818 
L 256.973528 80.661724 
L 257.163917 93.54941 
L 257.354307 106.049167 
L 257.417401 106.006747 
L 257.60779 103.940568 
L 257.733978 106.901091 
L 257.988569 117.519272 
L 258.051663 115.932009 
L 258.242053 96.843155 
L 258.495536 76.232716 
L 258.622831 75.360167 
L 258.812114 75.627124 
L 258.939409 77.099121 
L 259.129799 79.522803 
L 259.192893 79.259941 
L 259.383282 76.178885 
L 259.446376 77.281237 
L 259.764061 95.821548 
L 259.827155 95.28895 
L 260.14484 81.958333 
L 260.207934 82.589231 
L 260.461418 86.756401 
L 260.651807 87.365503 
L 260.968385 90.009626 
L 261.032586 90.000118 
L 261.158775 87.218494 
L 261.349164 81.190812 
L 261.412258 81.280334 
L 261.793037 90.843704 
L 261.983426 101.024661 
L 262.173816 108.694607 
L 262.300004 103.145547 
L 262.680783 76.34886 
L 262.808078 76.728598 
L 262.934267 74.823765 
L 263.061562 72.689567 
L 263.124656 72.995581 
L 263.505435 80.422852 
L 263.568529 80.332159 
L 263.63273 80.915078 
L 263.758919 85.73655 
L 264.012402 97.960427 
L 264.139697 93.200245 
L 264.456275 79.025457 
L 264.520476 78.48613 
L 264.583571 78.657129 
L 264.837054 81.213193 
L 264.900148 81.106117 
L 265.217833 79.610131 
L 265.280927 79.686342 
L 265.408222 80.949746 
L 265.534411 85.418688 
L 265.7248 107.267518 
L 265.978284 143.991368 
L 266.105579 133.209501 
L 266.422157 92.862342 
L 266.549452 90.006116 
L 266.612546 90.18004 
L 266.802936 92.433601 
L 267.12062 101.115646 
L 267.183715 100.182537 
L 267.500292 85.94251 
L 267.564493 87.053492 
L 267.881071 100.189413 
L 267.944165 98.860476 
L 268.45224 81.370149 
L 268.768817 77.891363 
L 268.896113 80.004058 
L 269.40308 99.462995 
L 269.466174 98.948097 
L 269.783859 96.414267 
L 269.974248 87.66786 
L 270.227732 74.906266 
L 270.290826 75.037185 
L 270.481215 78.112243 
L 270.54431 77.677504 
L 270.7989 70.040763 
L 270.861994 70.247893 
L 271.052384 79.381205 
L 271.242773 86.103416 
L 271.305867 85.729822 
L 271.496257 82.703474 
L 271.559351 82.835856 
L 271.812835 87.308162 
L 272.003224 92.502937 
L 272.256708 110.979178 
L 272.447097 120.239753 
L 272.574392 114.105141 
L 273.018265 80.557574 
L 273.081359 80.159551 
L 273.208655 82.827518 
L 273.588327 94.668584 
L 273.715622 93.417029 
L 273.906011 88.716089 
L 274.222589 77.609046 
L 274.349884 84.146069 
L 274.666462 113.204068 
L 274.730663 112.495351 
L 274.919946 99.51039 
L 275.237631 81.678211 
L 275.364926 80.343715 
L 275.42802 80.611989 
L 275.554208 83.908513 
L 275.998081 107.647402 
L 276.062282 106.57021 
L 276.37886 96.373163 
L 276.56925 98.014988 
L 276.632344 97.823072 
L 276.759639 95.05154 
L 277.203512 80.877192 
L 277.266606 81.230892 
L 277.456996 86.37052 
L 277.77468 95.720909 
L 277.837775 96.202164 
L 277.900869 96.106498 
L 278.154352 94.151345 
L 278.344742 87.4246 
L 278.598225 80.964373 
L 278.725521 82.594789 
L 278.852816 84.353491 
L 278.91591 84.089751 
L 279.1063 77.987907 
L 279.296689 72.931657 
L 279.359783 72.675086 
L 279.422877 72.807029 
L 279.550173 73.000116 
L 279.676361 71.888548 
L 279.803656 70.662006 
L 279.86675 71.170908 
L 279.994046 75.655502 
L 280.374825 91.797145 
L 280.437919 91.265424 
L 280.944886 80.659822 
L 281.135275 80.296175 
L 281.19837 80.313582 
L 281.325665 80.983243 
L 281.516054 85.159191 
L 282.086116 106.376976 
L 282.150317 105.776944 
L 282.4038 100.065222 
L 282.784579 84.984681 
L 282.974969 80.413051 
L 283.038063 80.863442 
L 283.228452 87.574827 
L 283.54503 97.814149 
L 283.735419 104.580535 
L 283.988903 112.583118 
L 284.116198 109.98712 
L 284.496977 97.838723 
L 284.68626 97.169647 
L 284.876649 95.884302 
L 285.003944 95.417236 
L 285.130133 95.787465 
L 285.194334 95.757478 
L 285.320522 94.436587 
L 285.574006 87.370038 
L 285.828596 81.897043 
L 285.891691 82.246794 
L 286.08208 86.78317 
L 286.398658 94.85699 
L 286.462859 95.277101 
L 286.525953 95.001659 
L 286.842531 89.741206 
L 286.906732 90.132354 
L 287.097121 96.279252 
L 287.604089 116.157862 
L 288.047962 125.357439 
L 288.17415 124.186775 
L 288.364539 119.395582 
L 288.745318 102.968404 
L 289.189191 83.13397 
L 289.442675 80.887285 
L 289.506876 80.791912 
L 289.56997 80.901474 
L 289.696158 82.098614 
L 290.013843 86.964701 
L 290.141138 85.26612 
L 290.648106 73.67124 
L 290.774294 75.205404 
L 291.282368 88.820971 
L 291.345462 88.612524 
L 291.535852 85.681989 
L 292.296303 71.593505 
L 292.423598 72.754368 
L 292.677081 75.760969 
L 292.740176 75.640728 
L 293.05786 73.097683 
L 293.120955 73.447434 
L 293.882512 83.862143 
L 294.452574 96.907956 
L 294.516775 96.87636 
L 294.642963 96.122881 
L 294.960648 91.806653 
L 295.34032 85.920276 
L 295.404521 86.37915 
L 295.59491 91.975751 
L 295.848394 98.299499 
L 296.038783 99.121582 
L 296.164972 99.131676 
L 296.292267 98.593518 
L 296.482656 94.974744 
L 297.243107 73.966136 
L 297.370402 76.211213 
L 297.814275 91.037084 
L 297.87737 90.808598 
L 298.384337 85.921446 
L 298.511632 86.732851 
L 298.702022 90.117141 
L 298.892411 97.824534 
L 299.336284 119.168704 
L 299.399378 118.644151 
L 299.589768 111.075576 
L 300.160936 79.664839 
L 300.477514 73.858768 
L 300.540608 73.711905 
L 300.667903 74.859603 
L 301.17487 82.364255 
L 301.428354 84.851129 
L 301.618743 89.467081 
L 302.3161 111.742896 
L 302.380301 111.390805 
L 302.570691 106.187693 
L 303.204953 84.905691 
L 303.458437 82.259081 
L 303.584625 82.978477 
L 303.839216 85.018032 
L 303.965404 83.922702 
L 304.218888 81.194615 
L 304.346183 82.916601 
L 304.980445 99.948639 
L 305.043539 99.873306 
L 305.170835 98.309885 
L 305.487413 89.420126 
L 305.868191 79.772061 
L 305.931286 79.953445 
L 306.058581 82.571677 
L 306.628642 103.110586 
L 306.692843 102.792431 
L 306.946327 97.427097 
L 307.327106 90.630577 
L 307.516388 89.56655 
L 307.580589 89.584396 
L 307.706778 90.10851 
L 308.024462 93.208582 
L 308.277946 94.728119 
L 308.404134 93.688813 
L 308.594524 89.333383 
L 308.975303 79.696581 
L 309.038397 79.586726 
L 309.165692 80.78255 
L 309.672659 88.478241 
L 309.799955 88.911078 
L 309.926143 90.153125 
L 310.434217 99.410043 
L 310.497311 99.341146 
L 310.687701 97.640224 
L 311.06848 92.192681 
L 311.321963 84.382454 
L 311.702742 71.628173 
L 311.765836 71.1162 
L 311.82893 71.27535 
L 312.01932 74.414771 
L 312.272803 78.128772 
L 312.463193 78.655959 
L 312.843972 79.018582 
L 312.907066 78.907557 
L 313.16055 78.279731 
L 313.287845 78.790242 
L 313.478234 81.359324 
L 314.112497 94.611828 
L 314.175591 94.393581 
L 314.302886 91.931428 
L 314.937149 73.967745 
L 315.000243 74.061217 
L 315.126431 75.419848 
L 315.381022 81.164189 
L 315.760694 94.883906 
L 316.141473 108.087992 
L 316.204567 108.554034 
L 316.268768 108.310334 
L 316.459157 104.052032 
L 316.90303 92.397178 
L 317.536186 86.496904 
L 317.853871 83.479333 
L 318.297744 82.273855 
L 318.425039 81.750911 
L 318.488133 81.80518 
L 318.614321 83.04123 
L 318.868912 90.013137 
L 319.122395 95.83603 
L 319.18549 96.003372 
L 319.312785 94.67034 
L 319.947047 82.952732 
L 320.13633 82.472062 
L 320.263625 82.386782 
L 320.39092 81.928054 
L 320.58131 80.076612 
L 321.278667 71.635633 
L 321.341761 71.530606 
L 321.469056 72.009374 
L 321.658338 74.72254 
L 321.912929 82.475426 
L 322.292601 93.729625 
L 322.356802 94.181186 
L 322.419896 94.127063 
L 322.547191 92.69383 
L 323.244548 80.740422 
L 323.307642 80.763095 
L 323.434938 81.31193 
L 323.688421 83.993208 
L 323.941905 90.370348 
L 324.448872 106.485369 
L 324.513073 106.524864 
L 324.639261 104.669618 
L 325.21043 90.051608 
L 325.273524 90.125479 
L 325.463913 91.999009 
L 325.907786 96.886307 
L 326.224364 98.00826 
L 326.351659 98.072622 
L 326.478955 97.608628 
L 326.668237 95.371304 
L 327.3025 84.824506 
L 327.492889 86.170265 
L 327.683279 87.025992 
L 327.810574 86.329562 
L 328.317541 80.698732 
L 328.380635 80.788547 
L 328.571025 82.150835 
L 329.014898 85.453502 
L 329.268381 86.080597 
L 329.395677 86.353551 
L 329.522972 87.178414 
L 329.776455 91.267764 
L 330.029939 94.756059 
L 330.093033 94.826711 
L 330.220329 93.83553 
L 330.601107 86.293285 
L 330.917685 82.171022 
L 331.234263 80.366389 
L 331.424652 80.036385 
L 331.551948 80.243515 
L 331.742337 81.390335 
L 332.249304 86.003947 
L 332.312398 85.968255 
L 332.502788 85.056942 
L 332.693177 84.508838 
L 332.820473 85.113406 
L 333.201251 88.2853 
L 333.264346 88.083875 
L 333.390534 86.558195 
L 333.708219 78.427472 
L 334.088998 70.898831 
L 334.215186 70.371059 
L 334.342481 70.872647 
L 334.532871 73.316223 
L 334.786354 80.013566 
L 335.356416 99.327688 
L 335.483711 97.904841 
L 335.737194 89.65929 
L 336.181068 74.508097 
L 336.371457 72.51418 
L 336.434551 72.459179 
L 336.561846 73.048241 
L 336.81533 76.287862 
L 337.196109 84.992141 
L 337.95656 104.933797 
L 338.083855 105.512619 
L 338.21115 104.677664 
L 338.718117 98.711857 
L 338.844306 99.15742 
L 339.289286 101.721822 
L 339.415474 101.317656 
L 339.605864 99.443394 
L 340.049737 91.775788 
L 340.811294 78.180409 
L 340.937483 77.568673 
L 341.000577 77.677797 
L 341.190966 79.41719 
L 341.44445 81.78002 
L 341.508651 81.821124 
L 341.634839 81.103776 
L 342.078712 76.037288 
L 342.142913 76.170108 
L 342.269102 77.864302 
L 342.903364 91.942984 
L 343.03066 91.451636 
L 343.79111 84.629957 
L 344.425373 76.073126 
L 344.488467 76.008325 
L 344.615762 76.379286 
L 344.996541 78.053 
L 345.12273 77.648395 
L 345.37732 75.348757 
L 345.821193 71.853734 
L 346.074677 71.013074 
L 346.200865 70.995374 
L 346.32816 71.343077 
L 346.581644 73.199932 
L 347.532484 82.225876 
L 347.659779 82.481277 
L 347.787075 81.651734 
L 348.040558 77.268657 
L 348.421337 71.55401 
L 348.484431 71.759824 
L 348.61062 73.899141 
L 348.86521 85.018032 
L 349.688755 127.515772 
L 350.132628 139.787335 
L 350.259924 140.587623 
L 350.387219 139.328607 
L 350.703797 130.286279 
L 351.020374 123.539494 
L 351.210764 122.639738 
L 351.401153 122.022298 
L 351.591543 119.784243 
L 351.845026 112.170906 
L 352.669678 81.199442 
L 353.176645 72.655338 
L 353.431236 70.997568 
L 353.49433 70.967289 
L 353.620518 71.337665 
L 353.875109 73.413644 
L 354.254781 79.098157 
L 354.825949 88.28018 
L 354.953245 88.598628 
L 355.079433 88.303731 
L 355.397118 87.406608 
L 355.523306 87.838274 
L 355.840991 90.562558 
L 356.728737 99.332662 
L 356.98222 102.140031 
L 357.045314 102.25837 
L 357.17261 101.513083 
L 357.489188 95.833397 
L 357.742671 93.284062 
L 357.869966 94.100147 
L 358.376934 100.491331 
L 358.441135 100.346954 
L 358.567323 98.968575 
L 358.820807 92.210966 
L 359.26468 80.735302 
L 359.645459 77.781216 
L 360.407016 72.729062 
L 360.533205 72.730525 
L 360.786688 72.88792 
L 360.977078 72.394524 
L 361.230561 71.852564 
L 361.357857 72.468541 
L 361.548246 75.31248 
L 361.864824 84.973271 
L 362.499086 105.069835 
L 363.260644 119.376127 
L 363.386832 119.865866 
L 363.451033 119.737287 
L 363.577222 118.728115 
L 363.830705 114.02425 
L 364.274578 100.322526 
L 364.845747 83.207256 
L 365.036136 81.358008 
L 365.09923 81.374537 
L 365.226526 82.244161 
L 365.607305 88.223132 
L 365.923882 91.862385 
L 366.558145 95.684486 
L 366.811628 97.56767 
L 366.874723 97.629253 
L 367.002018 97.149315 
L 367.255501 94.299525 
L 367.82667 87.193773 
L 368.143248 84.235591 
L 368.714416 76.382358 
L 368.77751 76.407372 
L 368.904805 77.577304 
L 369.158289 83.983846 
L 369.665256 98.549342 
L 369.855646 99.775007 
L 369.982941 98.766858 
L 370.743392 88.630663 
L 370.870687 88.893086 
L 371.124171 90.578795 
L 371.884621 97.115963 
L 371.948822 97.025563 
L 372.075011 96.25497 
L 372.328494 92.498987 
L 373.090052 78.974406 
L 373.343536 77.681015 
L 373.470831 77.634937 
L 373.787409 77.790139 
L 373.977798 77.336091 
L 374.358577 76.349592 
L 374.484765 76.422584 
L 374.612061 76.828945 
L 374.80245 78.303428 
L 375.055934 82.307499 
L 375.880586 97.861104 
L 376.006774 97.200951 
L 376.261365 93.480221 
L 376.831426 83.638045 
L 376.958721 83.070486 
L 377.021815 83.097986 
L 377.149111 83.72391 
L 377.402594 86.703302 
L 378.036857 94.69389 
L 378.353434 98.510725 
L 379.050791 108.33959 
L 379.749255 113.077977 
L 380.193128 117.468953 
L 380.256222 117.514884 
L 380.383517 116.954785 
L 380.637001 113.764167 
L 381.080874 107.878082 
L 381.271263 107.197743 
L 381.397452 107.323835 
L 381.778231 108.119441 
L 381.905526 107.783733 
L 382.094808 106.251616 
L 382.412493 101.169183 
L 383.553723 79.043011 
L 384.694952 70.859336 
L 384.822248 70.615929 
L 384.949543 71.094551 
L 385.138825 73.3623 
L 386.216961 90.735751 
L 386.471551 91.308576 
L 386.59774 91.222565 
L 386.788129 90.573967 
L 387.295096 88.086654 
L 387.422392 88.442842 
L 387.612781 90.017379 
L 388.056654 96.548989 
L 388.373232 100.147723 
L 388.437433 100.217498 
L 388.563621 99.40741 
L 388.754011 95.695895 
L 389.578663 72.919809 
L 389.641757 73.083933 
L 389.769052 74.641502 
L 390.022536 81.827853 
L 390.782987 107.52248 
L 391.037577 109.776919 
L 391.163766 109.057084 
L 391.354155 105.323335 
L 391.734934 90.745259 
L 392.178807 75.982872 
L 392.432291 73.438657 
L 392.495385 73.533738 
L 392.62268 74.53311 
L 392.876164 79.258771 
L 394.335078 113.721747 
L 394.778951 120.32123 
L 395.032435 121.882895 
L 395.222824 122.156435 
L 395.603603 122.279308 
L 395.792885 122.759539 
L 395.983275 123.875495 
L 396.236758 126.996485 
L 396.554443 134.449793 
L 397.379095 157.266545 
L 397.505283 157.576655 
L 397.632579 156.509556 
L 397.822968 152.143739 
L 398.139546 137.935454 
L 399.091493 89.510087 
L 399.408071 83.207841 
L 399.661554 81.336066 
L 399.915038 80.769531 
L 400.232723 80.456935 
L 400.423112 79.638216 
L 400.676596 77.211755 
L 401.246657 71.359753 
L 401.373952 71.137995 
L 401.501248 71.517002 
L 401.754731 73.819566 
L 402.324793 79.497935 
L 402.515182 79.917754 
L 402.642477 79.737246 
L 402.895961 78.570678 
L 403.27674 76.741324 
L 403.402928 76.759463 
L 403.530224 77.310493 
L 403.783707 80.120202 
L 404.22758 88.841742 
L 404.861843 100.822943 
L 405.115326 102.305325 
L 405.242622 101.92588 
L 405.496105 99.506001 
L 405.876884 95.746361 
L 406.003072 95.420746 
L 406.130368 95.727053 
L 406.383851 97.891822 
L 406.95502 103.533038 
L 407.145409 103.90356 
L 407.271597 103.544155 
L 407.461987 102.085177 
L 407.779671 97.544851 
L 408.412827 88.110498 
L 408.540122 87.825548 
L 408.667418 88.354197 
L 408.920901 91.318377 
L 409.427868 97.806396 
L 409.618258 98.481616 
L 409.745553 98.022302 
L 409.934836 95.660642 
L 410.25252 87.748167 
L 410.759488 75.35139 
L 410.949877 73.990126 
L 411.012971 74.061948 
L 411.140266 74.985256 
L 411.39375 79.606035 
L 412.599181 108.443301 
L 412.852664 109.539363 
L 412.978853 109.518299 
L 413.169242 108.913439 
L 413.486927 106.797672 
L 414.691251 96.878846 
L 415.262419 88.253412 
L 416.02287 76.990729 
L 416.27746 75.647749 
L 416.403649 75.53453 
L 416.530944 75.710649 
L 417.228301 77.456624 
L 417.355596 77.222726 
L 417.60908 75.91105 
L 418.433731 70.195525 
L 418.55992 70.185725 
L 418.687215 70.564293 
L 418.940699 72.395841 
L 419.891539 81.183498 
L 420.018834 81.178378 
L 420.209224 80.36083 
L 420.90658 75.711088 
L 421.032769 76.20975 
L 421.223158 78.506462 
L 421.540843 86.423326 
L 422.618978 118.331994 
L 422.872462 120.646991 
L 422.935556 120.760357 
L 422.999757 120.698042 
L 423.125946 120.089086 
L 423.379429 117.263725 
L 423.823302 108.917388 
L 424.331376 100.060249 
L 424.647954 97.753004 
L 424.901438 97.297933 
L 425.409512 97.204023 
L 425.598794 96.492672 
L 425.916479 94.143446 
L 426.360352 91.051712 
L 426.487647 90.831124 
L 426.613836 91.050688 
L 426.804225 92.235833 
L 427.185004 96.837742 
L 427.691971 102.332972 
L 427.882361 102.941489 
L 428.009656 102.765077 
L 428.198938 101.5694 
L 428.453529 98.244791 
L 429.02359 86.344775 
L 429.404369 80.481948 
L 429.594759 79.794587 
L 429.720947 80.339766 
L 429.911336 82.608978 
L 430.292115 91.045422 
L 430.863284 103.93501 
L 431.116767 105.622328 
L 431.242956 105.18598 
L 431.433345 103.147156 
L 431.814124 95.920579 
L 432.638776 79.596966 
L 433.019555 76.051769 
L 433.273038 75.41663 
L 433.399227 75.51566 
L 433.653817 76.262117 
L 434.731953 80.193049 
L 434.985436 81.119575 
L 435.23892 83.011389 
L 435.619699 88.251802 
L 436.697834 105.979539 
L 436.887117 106.583229 
L 437.014412 106.34304 
L 437.204802 105.156725 
L 437.648675 100.166008 
L 438.155642 95.174121 
L 438.409125 94.267782 
L 438.536421 94.232822 
L 438.72681 94.584767 
L 439.424167 96.515492 
L 439.551462 96.301487 
L 439.741851 95.346291 
L 440.058429 92.000618 
L 441.199659 76.878826 
L 441.326954 76.896087 
L 441.517344 77.807546 
L 441.833921 81.144149 
L 442.468184 88.071295 
L 442.595479 88.326404 
L 442.721668 88.03575 
L 442.912057 86.702278 
L 443.990192 76.972005 
L 444.117488 76.997165 
L 444.307877 77.596759 
L 444.624455 79.667618 
L 445.449107 85.520059 
L 445.70259 86.231848 
L 445.829886 86.285971 
L 445.956074 86.116142 
L 446.146464 85.407278 
L 446.463041 82.973942 
L 447.414989 74.297749 
L 447.541177 74.170633 
L 447.668472 74.323347 
L 447.921956 75.196189 
L 448.428923 77.05436 
L 448.683513 77.302886 
L 449.063185 77.177672 
L 449.253575 77.226529 
L 449.443964 77.532104 
L 449.697448 78.503098 
L 450.015133 80.783281 
L 450.5221 86.633967 
L 451.66333 100.844007 
L 451.790625 101.161577 
L 451.853719 101.129981 
L 451.981014 100.675056 
L 452.234498 98.245669 
L 452.615277 91.541305 
L 453.185338 81.899822 
L 453.375728 81.241424 
L 453.503023 81.746522 
L 453.756506 84.676327 
L 454.644252 97.941264 
L 454.897736 98.779877 
L 455.025031 98.69211 
L 455.215421 98.095588 
L 455.595093 95.843051 
L 456.419745 90.753304 
L 456.610134 90.535057 
L 456.737429 90.669194 
L 456.990913 91.526092 
L 457.307491 93.539171 
L 457.751364 97.889628 
L 458.63911 106.666753 
L 458.956795 107.729318 
L 459.147184 107.823374 
L 459.527963 107.81767 
L 459.717245 108.152646 
L 459.971836 109.14646 
L 460.478803 112.43289 
L 460.98577 115.299648 
L 461.17616 115.650131 
L 461.303455 115.555196 
L 461.493845 114.87749 
L 461.810422 112.423089 
L 462.381591 105.500624 
L 463.269337 95.074067 
L 463.903599 90.485762 
L 464.66405 85.0979 
L 465.425608 77.530641 
L 465.995669 72.623888 
L 466.249153 71.867045 
L 466.376448 71.928628 
L 466.566837 72.545337 
L 466.883415 74.685971 
L 467.708067 80.846034 
L 467.898457 81.064867 
L 468.025752 80.830822 
L 468.279235 79.587165 
L 469.357371 72.843159 
L 469.483559 72.760805 
L 469.610855 72.944676 
L 469.801244 73.755349 
L 470.117822 76.587586 
L 470.498601 82.342021 
L 471.132863 95.972946 
L 472.020609 114.796891 
L 472.274093 117.215745 
L 472.401388 117.499086 
L 472.527576 117.142314 
L 472.717966 115.554904 
L 473.733007 104.847346 
L 473.923397 104.715842 
L 474.113786 105.053013 
L 474.557659 106.054726 
L 474.683848 106.040537 
L 474.874237 105.568497 
L 475.127721 104.00537 
L 475.508499 99.800752 
L 476.205856 88.566154 
L 477.030508 76.070347 
L 477.411287 73.081593 
L 477.601676 72.580151 
L 477.727865 72.633835 
L 477.918254 73.274533 
L 478.235939 75.620395 
L 479.503357 87.344001 
L 479.884136 88.309143 
L 480.20182 89.182716 
L 480.518398 91.001392 
L 481.025365 95.826375 
L 481.786923 102.703641 
L 482.29389 105.314851 
L 483.118542 108.159229 
L 483.436227 108.640923 
L 483.62551 108.622931 
L 483.8801 108.262794 
L 484.767846 106.52735 
L 484.958236 106.722193 
L 485.718686 108.026408 
L 485.845982 107.853069 
L 486.035264 107.166586 
L 486.289855 105.342059 
L 486.669527 100.612156 
L 487.36799 88.14619 
L 487.938052 79.712964 
L 488.31883 76.918467 
L 488.572314 76.310243 
L 488.699609 76.302198 
L 488.889999 76.552772 
L 489.333872 77.751521 
L 490.284712 81.114894 
L 490.665491 82.155077 
L 490.85588 82.32593 
L 491.04627 82.183163 
L 491.299753 81.441825 
L 491.616331 79.586726 
L 492.821762 71.011318 
L 493.012151 70.946517 
L 493.201434 71.361069 
L 493.456025 72.565085 
L 493.962992 76.394353 
L 494.787644 82.404481 
L 495.294611 86.232579 
L 495.738484 91.784711 
L 497.070103 111.090788 
L 497.450882 113.163403 
L 499.226374 120.233902 
L 499.733341 124.14611 
L 501.001866 135.275387 
L 501.129162 135.448141 
L 501.25535 135.274509 
L 501.445739 134.322678 
L 501.70033 131.761494 
L 502.144203 124.318864 
L 503.475822 99.173219 
L 503.919695 95.224587 
L 504.363568 93.354714 
L 504.807441 91.564709 
L 505.251314 88.68932 
L 507.026806 75.603427 
L 507.28029 74.970774 
L 507.407585 75.046985 
L 507.597975 75.819187 
L 507.851458 78.311474 
L 508.232237 85.250029 
L 509.754246 118.410691 
L 510.007729 119.62948 
L 510.070824 119.623337 
L 510.198119 119.234237 
L 510.387401 117.735033 
L 510.705086 113.097724 
L 512.417484 83.002027 
L 512.861357 80.35337 
L 513.30523 79.041109 
L 514.129882 77.466133 
L 514.509554 77.091368 
L 514.953427 76.994239 
L 515.651891 76.880581 
L 516.286153 76.723917 
L 516.539637 76.880435 
L 516.856214 77.422103 
L 517.173899 78.435956 
L 517.617772 80.728866 
L 518.315129 85.927736 
L 518.949391 90.12109 
L 519.33017 91.300677 
L 519.583654 91.506052 
L 519.837137 91.413311 
L 520.4714 91.039717 
L 520.724884 91.139625 
L 521.041461 91.540719 
L 521.42224 92.420582 
L 521.866113 94.07923 
L 522.374187 96.981534 
L 523.325028 102.85577 
L 523.578511 103.42801 
L 523.705807 103.432398 
L 523.896196 103.070506 
L 524.212774 101.610066 
L 525.037426 97.105285 
L 525.227815 96.858221 
L 525.354003 96.945842 
L 525.544393 97.445235 
L 525.862078 99.125971 
L 526.432139 103.75421 
L 527.510274 112.256771 
L 528.271832 116.198381 
L 529.540357 121.542798 
L 529.793841 121.954717 
L 529.920029 121.940382 
L 530.110419 121.588876 
L 530.363902 120.455805 
L 530.744681 117.430921 
L 532.0763 105.263508 
L 532.457079 104.086554 
L 532.710563 103.92755 
L 532.900952 104.079825 
L 533.21753 104.70809 
L 533.915993 106.244302 
L 534.106383 106.26522 
L 534.295665 105.961254 
L 534.550256 104.992747 
L 534.994129 102.003115 
L 536.008063 94.638305 
L 537.973945 84.176056 
L 538.354724 83.284198 
L 538.608208 83.159423 
L 538.861691 83.354997 
L 539.24247 84.03519 
L 540.954868 87.492912 
L 541.398741 88.107719 
L 541.716426 88.253997 
L 542.286487 88.368532 
L 542.539971 88.778404 
L 542.794561 89.688253 
L 543.111139 91.724884 
L 543.555012 96.278667 
L 545.077021 114.209438 
L 545.330504 114.842529 
L 545.4578 114.6629 
L 545.648189 113.734034 
L 545.964767 110.472471 
L 546.471734 101.800227 
L 547.867554 76.197901 
L 548.311427 71.986847 
L 548.628005 70.507537 
L 548.882596 70.116389 
L 549.071878 70.201377 
L 549.326469 70.719786 
L 549.706141 72.18403 
L 550.214215 75.219447 
L 550.911571 81.057991 
L 551.672022 87.086844 
L 551.989707 88.344982 
L 552.180096 88.585463 
L 552.306285 88.531194 
L 552.496674 88.156429 
L 552.877453 86.629725 
L 553.57481 83.700213 
L 553.765199 83.46924 
L 553.892494 83.535796 
L 554.081777 83.994524 
L 554.336367 85.2787 
L 554.78024 89.096851 
L 556.174954 102.754984 
L 556.555733 104.422116 
L 556.87231 104.959688 
L 557.0627 104.962467 
L 557.316183 104.672983 
L 557.696962 103.813014 
L 558.394319 101.555211 
L 559.218971 98.048779 
L 559.725938 96.272377 
L 559.916328 96.084703 
L 560.043623 96.205821 
L 560.234012 96.850907 
L 560.487496 98.72473 
L 560.868275 103.817548 
L 561.565631 117.560815 
L 562.199894 128.283878 
L 562.579566 131.490295 
L 562.769955 132.00256 
L 562.89725 131.948145 
L 563.08764 131.311982 
L 563.404218 128.978846 
L 563.912292 123.036298 
L 566.57553 88.555622 
L 567.019403 85.624648 
L 567.335981 84.717431 
L 567.52637 84.64239 
L 567.71676 84.890185 
L 568.034445 85.903893 
L 569.366064 91.384494 
L 569.619547 91.505174 
L 569.873031 91.326568 
L 570.507293 90.695378 
L 570.697683 90.753451 
L 570.951166 91.155423 
L 571.267744 92.215647 
L 571.775818 94.929691 
L 573.107437 102.476617 
L 573.995184 107.445977 
L 574.946024 112.884304 
L 575.326803 114.010207 
L 575.580286 114.258148 
L 575.770676 114.173453 
L 576.024159 113.710337 
L 576.341844 112.604474 
L 576.785717 110.197468 
L 577.483074 104.923996 
L 579.005082 92.837329 
L 579.448955 90.91816 
L 579.829734 90.160293 
L 580.083218 90.038443 
L 580.399796 90.14903 
L 580.970964 90.362888 
L 581.288649 90.171703 
L 581.732522 89.509355 
L 582.302583 88.688443 
L 582.556067 88.606527 
L 582.810657 88.758071 
L 583.190329 89.325338 
L 583.888793 90.368593 
L 584.142276 90.408088 
L 584.39576 90.183551 
L 584.776539 89.414713 
L 585.664285 87.347511 
L 585.917768 87.202988 
L 586.108158 87.304359 
L 586.361642 87.71189 
L 586.805515 89.001917 
L 587.88365 92.458176 
L 588.264429 93.032171 
L 588.581007 93.144074 
L 588.83449 93.00116 
L 589.152175 92.563935 
L 589.659142 91.416383 
L 592.196192 84.333012 
L 593.147032 81.153657 
L 593.400516 80.920197 
L 593.590906 81.06984 
L 593.844389 81.735113 
L 594.225168 83.583922 
L 595.04982 87.972996 
L 595.303304 88.50106 
L 595.493693 88.522563 
L 595.684082 88.243465 
L 596.00066 87.247164 
L 597.206091 82.802065 
L 597.459575 82.686067 
L 597.649964 82.886029 
L 597.903448 83.519559 
L 598.347321 85.436827 
L 599.425456 90.610683 
L 599.742034 91.20033 
L 599.932423 91.244214 
L 600.122813 91.066486 
L 600.440498 90.349431 
L 600.947465 88.486725 
L 602.596769 82.000461 
L 604.30806 75.815677 
L 604.816134 74.38025 
L 605.069617 74.155713 
L 605.260007 74.310329 
L 605.51349 75.022557 
L 605.830068 76.764729 
L 606.273941 80.57425 
L 607.986339 96.732422 
L 608.557508 99.59289 
L 609.064475 101.137002 
L 609.698737 102.343211 
L 610.650685 103.658252 
L 611.094558 103.954757 
L 611.411135 103.92243 
L 611.72882 103.646842 
L 612.108492 102.989614 
L 612.616566 101.635957 
L 613.883984 97.935998 
L 614.201669 97.669041 
L 614.392058 97.754028 
L 614.645542 98.179405 
L 614.96212 99.200865 
L 615.470194 101.723577 
L 616.674518 108.049667 
L 617.182592 109.51274 
L 618.260727 112.092062 
L 619.528145 115.951171 
L 619.782736 116.109444 
L 619.972018 115.988911 
L 620.226609 115.476645 
L 620.543187 114.230941 
L 620.98706 111.314301 
L 621.558228 105.735254 
L 622.636364 93.286549 
L 622.636364 93.286549 
" style="fill:none;stroke:#000000;stroke-linecap:round;stroke-width:1.5;"/>
   </g>
   <g id="patch_3">
    <path d="M 90 384.48 
L 90 51.84 
" style="fill:none;stroke:#cccccc;stroke-linecap:square;stroke-linejoin:miter;"/>
   </g>
   <g id="patch_4">
    <path d="M 648 384.48 
L 648 51.84 
" style="fill:none;stroke:#cccccc;stroke-linecap:square;stroke-linejoin:miter;"/>
   </g>
   <g id="patch_5">
    <path d="M 90 384.48 
L 648 384.48 
" style="fill:none;stroke:#cccccc;stroke-linecap:square;stroke-linejoin:miter;"/>
   </g>
   <g id="patch_6">
    <path d="M 90 51.84 
L 648 51.84 
" style="fill:none;stroke:#cccccc;stroke-linecap:square;stroke-linejoin:miter;"/>
   </g>
   <g id="text_13">
    <!-- Periodogram: 2000 QL7 -->
    <g style="fill:#262626;" transform="translate(279.19625 45.84)scale(0.16 -0.16)">
     <defs>
      <path d="M 4050 3009 
Q 4050 2725 3954 2461 
Q 3859 2197 3662 1994 
Q 3466 1791 3162 1670 
Q 2859 1550 2444 1550 
L 1350 1550 
L 1350 0 
L 428 0 
L 428 4403 
L 2406 4403 
Q 2828 4403 3137 4301 
Q 3447 4200 3650 4015 
Q 3853 3831 3951 3575 
Q 4050 3319 4050 3009 
z
M 3122 2994 
Q 3122 3334 2917 3511 
Q 2713 3688 2303 3688 
L 1350 3688 
L 1350 2259 
L 2328 2259 
Q 2534 2259 2682 2312 
Q 2831 2366 2929 2462 
Q 3028 2559 3075 2695 
Q 3122 2831 3122 2994 
z
" id="LiberationSans-Bold-50" transform="scale(0.015625)"/>
      <path d="M 1831 -63 
Q 1466 -63 1173 45 
Q 881 153 675 373 
Q 469 594 359 926 
Q 250 1259 250 1706 
Q 250 2191 379 2522 
Q 509 2853 729 3058 
Q 950 3263 1237 3353 
Q 1525 3444 1844 3444 
Q 2244 3444 2526 3305 
Q 2809 3166 2990 2916 
Q 3172 2666 3256 2317 
Q 3341 1969 3341 1547 
L 3341 1522 
L 1172 1522 
Q 1172 1309 1209 1126 
Q 1247 944 1331 811 
Q 1416 678 1550 601 
Q 1684 525 1875 525 
Q 2106 525 2253 623 
Q 2400 722 2463 928 
L 3291 856 
Q 3234 713 3132 550 
Q 3031 388 2862 252 
Q 2694 116 2442 26 
Q 2191 -63 1831 -63 
z
M 1831 2891 
Q 1697 2891 1580 2845 
Q 1463 2800 1377 2701 
Q 1291 2603 1237 2447 
Q 1184 2291 1178 2072 
L 2491 2072 
Q 2466 2481 2294 2686 
Q 2122 2891 1831 2891 
z
" id="LiberationSans-Bold-65" transform="scale(0.015625)"/>
      <path d="M 447 0 
L 447 2588 
Q 447 2697 445 2819 
Q 444 2941 439 3052 
Q 434 3163 431 3252 
Q 428 3341 422 3381 
L 1259 3381 
Q 1266 3344 1272 3251 
Q 1278 3159 1284 3050 
Q 1291 2941 1295 2833 
Q 1300 2725 1300 2659 
L 1313 2659 
Q 1378 2844 1443 2989 
Q 1509 3134 1598 3236 
Q 1688 3338 1813 3392 
Q 1938 3447 2122 3447 
Q 2200 3447 2276 3433 
Q 2353 3419 2394 3400 
L 2394 2666 
Q 2309 2684 2223 2698 
Q 2138 2713 2019 2713 
Q 1691 2713 1508 2447 
Q 1325 2181 1325 1659 
L 1325 0 
L 447 0 
z
" id="LiberationSans-Bold-72" transform="scale(0.015625)"/>
      <path d="M 447 3991 
L 447 4638 
L 1325 4638 
L 1325 3991 
L 447 3991 
z
M 447 0 
L 447 3381 
L 1325 3381 
L 1325 0 
L 447 0 
z
" id="LiberationSans-Bold-69" transform="scale(0.015625)"/>
      <path d="M 3659 1694 
Q 3659 1306 3551 984 
Q 3444 663 3228 430 
Q 3013 197 2691 67 
Q 2369 -63 1941 -63 
Q 1528 -63 1212 65 
Q 897 194 683 425 
Q 469 656 359 979 
Q 250 1303 250 1694 
Q 250 2072 354 2392 
Q 459 2713 671 2947 
Q 884 3181 1206 3312 
Q 1528 3444 1959 3444 
Q 2416 3444 2737 3312 
Q 3059 3181 3264 2948 
Q 3469 2716 3564 2395 
Q 3659 2075 3659 1694 
z
M 2741 1694 
Q 2741 2297 2544 2569 
Q 2347 2841 1972 2841 
Q 1584 2841 1378 2566 
Q 1172 2291 1172 1694 
Q 1172 1391 1226 1172 
Q 1281 953 1381 812 
Q 1481 672 1622 605 
Q 1763 538 1931 538 
Q 2125 538 2276 605 
Q 2428 672 2531 812 
Q 2634 953 2687 1172 
Q 2741 1391 2741 1694 
z
" id="LiberationSans-Bold-6f" transform="scale(0.015625)"/>
      <path d="M 2638 0 
Q 2631 25 2623 89 
Q 2616 153 2608 234 
Q 2600 316 2595 400 
Q 2591 484 2591 550 
L 2578 550 
Q 2425 222 2151 79 
Q 1878 -63 1497 -63 
Q 1178 -63 945 68 
Q 713 200 561 434 
Q 409 669 336 989 
Q 263 1309 263 1688 
Q 263 2072 339 2394 
Q 416 2716 575 2948 
Q 734 3181 979 3312 
Q 1225 3444 1563 3444 
Q 1728 3444 1881 3409 
Q 2034 3375 2165 3303 
Q 2297 3231 2403 3118 
Q 2509 3006 2584 2847 
L 2591 2847 
Q 2591 2878 2589 2939 
Q 2588 3000 2588 3078 
Q 2588 3156 2586 3240 
Q 2584 3325 2584 3403 
L 2584 4638 
L 3463 4638 
L 3463 738 
Q 3463 491 3472 298 
Q 3481 106 3488 0 
L 2638 0 
z
M 2597 1709 
Q 2597 2044 2534 2264 
Q 2472 2484 2370 2614 
Q 2269 2744 2139 2795 
Q 2009 2847 1875 2847 
Q 1706 2847 1576 2781 
Q 1447 2716 1358 2575 
Q 1269 2434 1223 2215 
Q 1178 1997 1178 1688 
Q 1178 538 1869 538 
Q 2000 538 2131 594 
Q 2263 650 2366 784 
Q 2469 919 2533 1145 
Q 2597 1372 2597 1709 
z
" id="LiberationSans-Bold-64" transform="scale(0.015625)"/>
      <path d="M 1863 -1356 
Q 1528 -1356 1273 -1289 
Q 1019 -1222 839 -1101 
Q 659 -981 551 -814 
Q 444 -647 403 -447 
L 1281 -344 
Q 1328 -547 1483 -662 
Q 1638 -778 1888 -778 
Q 2044 -778 2173 -734 
Q 2303 -691 2395 -586 
Q 2488 -481 2539 -309 
Q 2591 -138 2591 116 
Q 2591 203 2591 293 
Q 2591 384 2594 459 
Q 2597 547 2597 628 
L 2591 628 
Q 2438 300 2161 153 
Q 1884 6 1503 6 
Q 1181 6 948 132 
Q 716 259 562 486 
Q 409 713 336 1027 
Q 263 1341 263 1719 
Q 263 2109 341 2426 
Q 419 2744 580 2972 
Q 741 3200 986 3323 
Q 1231 3447 1569 3447 
Q 1906 3447 2173 3303 
Q 2441 3159 2591 2838 
L 2606 2838 
Q 2606 2903 2611 2989 
Q 2616 3075 2622 3154 
Q 2628 3234 2636 3296 
Q 2644 3359 2650 3381 
L 3481 3381 
Q 3475 3269 3469 3066 
Q 3463 2863 3463 2600 
L 3463 103 
Q 3463 -266 3356 -539 
Q 3250 -813 3045 -994 
Q 2841 -1175 2542 -1265 
Q 2244 -1356 1863 -1356 
z
M 2597 1738 
Q 2597 2056 2534 2268 
Q 2472 2481 2372 2609 
Q 2272 2738 2142 2791 
Q 2013 2844 1881 2844 
Q 1713 2844 1583 2778 
Q 1453 2713 1362 2575 
Q 1272 2438 1225 2225 
Q 1178 2013 1178 1719 
Q 1178 1172 1353 894 
Q 1528 616 1875 616 
Q 2006 616 2136 667 
Q 2266 719 2369 848 
Q 2472 978 2534 1193 
Q 2597 1409 2597 1738 
z
" id="LiberationSans-Bold-67" transform="scale(0.015625)"/>
      <path d="M 1228 -63 
Q 984 -63 792 4 
Q 600 72 465 201 
Q 331 331 259 522 
Q 188 713 188 956 
Q 188 1256 292 1461 
Q 397 1666 578 1792 
Q 759 1919 1003 1976 
Q 1247 2034 1522 2038 
L 2250 2050 
L 2250 2222 
Q 2250 2406 2217 2529 
Q 2184 2653 2121 2731 
Q 2059 2809 1967 2842 
Q 1875 2875 1756 2875 
Q 1647 2875 1561 2853 
Q 1475 2831 1412 2776 
Q 1350 2722 1311 2630 
Q 1272 2538 1256 2397 
L 341 2441 
Q 378 2663 478 2845 
Q 578 3028 754 3162 
Q 931 3297 1189 3370 
Q 1447 3444 1794 3444 
Q 2109 3444 2356 3366 
Q 2603 3288 2775 3133 
Q 2947 2978 3037 2753 
Q 3128 2528 3128 2231 
L 3128 1000 
Q 3128 881 3139 787 
Q 3150 694 3179 630 
Q 3209 566 3264 533 
Q 3319 500 3406 500 
Q 3506 500 3600 519 
L 3600 44 
Q 3522 25 3459 9 
Q 3397 -6 3334 -15 
Q 3272 -25 3201 -31 
Q 3131 -38 3038 -38 
Q 2706 -38 2548 125 
Q 2391 288 2359 603 
L 2341 603 
Q 2166 288 1892 112 
Q 1619 -63 1228 -63 
z
M 2250 1566 
L 1800 1559 
Q 1659 1553 1532 1536 
Q 1406 1519 1311 1464 
Q 1216 1409 1159 1306 
Q 1103 1203 1103 1025 
Q 1103 784 1214 667 
Q 1325 550 1509 550 
Q 1678 550 1815 622 
Q 1953 694 2048 811 
Q 2144 928 2197 1081 
Q 2250 1234 2250 1394 
L 2250 1566 
z
" id="LiberationSans-Bold-61" transform="scale(0.015625)"/>
      <path d="M 2438 0 
L 2438 1897 
Q 2438 2094 2411 2258 
Q 2384 2422 2323 2539 
Q 2263 2656 2164 2722 
Q 2066 2788 1925 2788 
Q 1791 2788 1681 2717 
Q 1572 2647 1492 2517 
Q 1413 2388 1369 2208 
Q 1325 2028 1325 1813 
L 1325 0 
L 447 0 
L 447 2625 
Q 447 2734 445 2850 
Q 444 2966 439 3070 
Q 434 3175 431 3258 
Q 428 3341 422 3381 
L 1259 3381 
Q 1266 3344 1272 3261 
Q 1278 3178 1284 3078 
Q 1291 2978 1295 2878 
Q 1300 2778 1300 2709 
L 1313 2709 
Q 1475 3097 1717 3272 
Q 1959 3447 2297 3447 
Q 2684 3447 2920 3258 
Q 3156 3069 3238 2709 
L 3256 2709 
Q 3347 2919 3451 3059 
Q 3556 3200 3682 3286 
Q 3809 3372 3957 3409 
Q 4106 3447 4281 3447 
Q 4559 3447 4751 3347 
Q 4944 3247 5064 3072 
Q 5184 2897 5239 2659 
Q 5294 2422 5294 2147 
L 5294 0 
L 4422 0 
L 4422 1897 
Q 4422 2094 4395 2258 
Q 4369 2422 4308 2539 
Q 4247 2656 4148 2722 
Q 4050 2788 3909 2788 
Q 3778 2788 3670 2720 
Q 3563 2653 3483 2529 
Q 3403 2406 3359 2234 
Q 3316 2063 3309 1853 
L 3309 0 
L 2438 0 
z
" id="LiberationSans-Bold-6d" transform="scale(0.015625)"/>
      <path d="M 616 2350 
L 616 3231 
L 1516 3231 
L 1516 2350 
L 616 2350 
z
M 616 0 
L 616 878 
L 1516 878 
L 1516 0 
L 616 0 
z
" id="LiberationSans-Bold-3a" transform="scale(0.015625)"/>
      <path id="LiberationSans-Bold-20" transform="scale(0.015625)"/>
      <path d="M 222 0 
L 222 609 
Q 372 938 587 1202 
Q 803 1466 1039 1686 
Q 1275 1906 1508 2095 
Q 1741 2284 1927 2461 
Q 2113 2638 2228 2816 
Q 2344 2994 2344 3194 
Q 2344 3488 2197 3628 
Q 2050 3769 1766 3769 
Q 1484 3769 1336 3617 
Q 1188 3466 1144 3163 
L 259 3213 
Q 291 3472 387 3700 
Q 484 3928 664 4100 
Q 844 4272 1114 4370 
Q 1384 4469 1759 4469 
Q 2116 4469 2391 4386 
Q 2666 4303 2853 4143 
Q 3041 3984 3137 3754 
Q 3234 3525 3234 3231 
Q 3234 2922 3112 2672 
Q 2991 2422 2800 2211 
Q 2609 2000 2376 1815 
Q 2144 1631 1925 1456 
Q 1706 1281 1526 1103 
Q 1347 925 1259 722 
L 3303 722 
L 3303 0 
L 222 0 
z
" id="LiberationSans-Bold-32" transform="scale(0.015625)"/>
      <path d="M 3297 2203 
Q 3297 1572 3181 1139 
Q 3066 706 2861 439 
Q 2656 172 2376 54 
Q 2097 -63 1766 -63 
Q 1434 -63 1156 53 
Q 878 169 678 436 
Q 478 703 365 1136 
Q 253 1569 253 2203 
Q 253 2869 364 3305 
Q 475 3741 678 4000 
Q 881 4259 1164 4364 
Q 1447 4469 1791 4469 
Q 2113 4469 2389 4364 
Q 2666 4259 2867 4000 
Q 3069 3741 3183 3305 
Q 3297 2869 3297 2203 
z
M 2416 2203 
Q 2416 2669 2381 2973 
Q 2347 3278 2272 3458 
Q 2197 3638 2076 3709 
Q 1956 3781 1784 3781 
Q 1600 3781 1475 3707 
Q 1350 3634 1273 3453 
Q 1197 3272 1164 2967 
Q 1131 2663 1131 2203 
Q 1131 1750 1165 1447 
Q 1200 1144 1275 961 
Q 1350 778 1472 703 
Q 1594 628 1772 628 
Q 1944 628 2066 703 
Q 2188 778 2266 961 
Q 2344 1144 2380 1447 
Q 2416 1750 2416 2203 
z
" id="LiberationSans-Bold-30" transform="scale(0.015625)"/>
      <path d="M 4709 2222 
Q 4709 1781 4598 1411 
Q 4488 1041 4277 755 
Q 4066 469 3762 280 
Q 3459 91 3072 13 
Q 3134 -169 3218 -283 
Q 3303 -397 3409 -461 
Q 3516 -525 3641 -548 
Q 3766 -572 3909 -572 
Q 4000 -572 4094 -564 
Q 4188 -556 4281 -541 
L 4275 -1172 
Q 4106 -1209 3922 -1234 
Q 3738 -1259 3519 -1259 
Q 3222 -1259 3000 -1170 
Q 2778 -1081 2614 -920 
Q 2450 -759 2336 -532 
Q 2222 -306 2138 -31 
Q 1669 13 1317 197 
Q 966 381 731 678 
Q 497 975 380 1369 
Q 263 1763 263 2222 
Q 263 2738 408 3153 
Q 553 3569 836 3861 
Q 1119 4153 1533 4311 
Q 1947 4469 2484 4469 
Q 3022 4469 3436 4309 
Q 3850 4150 4133 3856 
Q 4416 3563 4562 3148 
Q 4709 2734 4709 2222 
z
M 3769 2222 
Q 3769 2569 3686 2848 
Q 3603 3128 3440 3328 
Q 3278 3528 3039 3636 
Q 2800 3744 2484 3744 
Q 2163 3744 1920 3636 
Q 1678 3528 1515 3328 
Q 1353 3128 1272 2848 
Q 1191 2569 1191 2222 
Q 1191 1878 1273 1590 
Q 1356 1303 1518 1097 
Q 1681 891 1922 775 
Q 2163 659 2478 659 
Q 2816 659 3059 776 
Q 3303 894 3461 1101 
Q 3619 1309 3694 1596 
Q 3769 1884 3769 2222 
z
" id="LiberationSans-Bold-51" transform="scale(0.015625)"/>
      <path d="M 428 0 
L 428 4403 
L 1350 4403 
L 1350 713 
L 3713 713 
L 3713 0 
L 428 0 
z
" id="LiberationSans-Bold-4c" transform="scale(0.015625)"/>
      <path d="M 3278 3706 
Q 2981 3238 2717 2797 
Q 2453 2356 2256 1911 
Q 2059 1466 1945 995 
Q 1831 525 1831 0 
L 916 0 
Q 916 522 1039 992 
Q 1163 1463 1375 1909 
Q 1588 2356 1869 2792 
Q 2150 3228 2463 3681 
L 275 3681 
L 275 4403 
L 3278 4403 
L 3278 3706 
z
" id="LiberationSans-Bold-37" transform="scale(0.015625)"/>
     </defs>
     <use xlink:href="#LiberationSans-Bold-50"/>
     <use x="66.699219" xlink:href="#LiberationSans-Bold-65"/>
     <use x="122.314453" xlink:href="#LiberationSans-Bold-72"/>
     <use x="161.230469" xlink:href="#LiberationSans-Bold-69"/>
     <use x="189.013672" xlink:href="#LiberationSans-Bold-6f"/>
     <use x="250.097656" xlink:href="#LiberationSans-Bold-64"/>
     <use x="311.181641" xlink:href="#LiberationSans-Bold-6f"/>
     <use x="372.265625" xlink:href="#LiberationSans-Bold-67"/>
     <use x="433.349609" xlink:href="#LiberationSans-Bold-72"/>
     <use x="472.265625" xlink:href="#LiberationSans-Bold-61"/>
     <use x="527.880859" xlink:href="#LiberationSans-Bold-6d"/>
     <use x="616.796875" xlink:href="#LiberationSans-Bold-3a"/>
     <use x="650.097656" xlink:href="#LiberationSans-Bold-20"/>
     <use x="677.880859" xlink:href="#LiberationSans-Bold-32"/>
     <use x="733.496094" xlink:href="#LiberationSans-Bold-30"/>
     <use x="789.111328" xlink:href="#LiberationSans-Bold-30"/>
     <use x="844.726562" xlink:href="#LiberationSans-Bold-30"/>
     <use x="900.341797" xlink:href="#LiberationSans-Bold-20"/>
     <use x="928.125" xlink:href="#LiberationSans-Bold-51"/>
     <use x="1005.908203" xlink:href="#LiberationSans-Bold-4c"/>
     <use x="1066.992188" xlink:href="#LiberationSans-Bold-37"/>
    </g>
   </g>
  </g>
 </g>
 <defs>
  <clipPath id="p7c7dc1a6e5">
   <rect height="332.64" width="558" x="90" y="51.84"/>
  </clipPath>
 </defs>
</svg>
