<?xml version="1.0" encoding="utf-8" standalone="no"?>
<!DOCTYPE svg PUBLIC "-//W3C//DTD SVG 1.1//EN"
  "http://www.w3.org/Graphics/SVG/1.1/DTD/svg11.dtd">
<svg height="432pt" version="1.1" viewBox="0 0 720 432" width="720pt" xmlns="http://www.w3.org/2000/svg" xmlns:xlink="http://www.w3.org/1999/xlink">
 <metadata>
  <rdf:RDF xmlns:cc="http://creativecommons.org/ns#" xmlns:dc="http://purl.org/dc/elements/1.1/" xmlns:rdf="http://www.w3.org/1999/02/22-rdf-syntax-ns#">
   <cc:Work>
    <dc:type rdf:resource="http://purl.org/dc/dcmitype/StillImage"/>
    <dc:date>2021-10-24T13:21:24.701829</dc:date>
    <dc:format>image/svg+xml</dc:format>
    <dc:creator>
     <cc:Agent>
      <dc:title>Matplotlib v3.4.2, https://matplotlib.org/</dc:title>
     </cc:Agent>
    </dc:creator>
   </cc:Work>
  </rdf:RDF>
 </metadata>
 <defs>
  <style type="text/css">*{stroke-linecap:butt;stroke-linejoin:round;}</style>
 </defs>
 <g id="figure_1">
  <g id="patch_1">
   <path d="M 0 432 
L 720 432 
L 720 0 
L 0 0 
z
" style="fill:#ffffff;"/>
  </g>
  <g id="axes_1">
   <g id="patch_2">
    <path d="M 90 384.48 
L 648 384.48 
L 648 51.84 
L 90 51.84 
z
" style="fill:#ffffff;"/>
   </g>
   <g id="matplotlib.axis_1">
    <g id="xtick_1">
     <g id="line2d_1">
      <path clip-path="url(#p0657669206)" d="M 121 384.48 
L 121 51.84 
" style="fill:none;stroke:#808080;stroke-linecap:square;stroke-width:0.4;"/>
     </g>
     <g id="line2d_2">
      <defs>
       <path d="M 0 0 
L 0 -3.5 
" id="mae0fd8d4ec" style="stroke:#000000;stroke-width:0.8;"/>
      </defs>
      <g>
       <use style="stroke:#000000;stroke-width:0.8;" x="121" xlink:href="#mae0fd8d4ec" y="384.48"/>
      </g>
     </g>
     <g id="line2d_3">
      <defs>
       <path d="M 0 0 
L 0 3.5 
" id="mc8fd7df275" style="stroke:#000000;stroke-width:0.8;"/>
      </defs>
      <g>
       <use style="stroke:#000000;stroke-width:0.8;" x="121" xlink:href="#mc8fd7df275" y="51.84"/>
      </g>
     </g>
     <g id="text_1">
      <!-- $\mathdefault{2.2}$ -->
      <g transform="translate(111.651474 398.357725)scale(0.15 -0.15)">
       <defs>
        <path d="M 2669 989 
L 2554 989 
C 2490 536 2438 459 2413 420 
C 2381 369 1920 369 1830 369 
L 602 369 
C 832 619 1280 1072 1824 1597 
C 2214 1967 2669 2402 2669 3035 
C 2669 3790 2067 4224 1395 4224 
C 691 4224 262 3604 262 3030 
C 262 2780 448 2748 525 2748 
C 589 2748 781 2787 781 3010 
C 781 3207 614 3264 525 3264 
C 486 3264 448 3258 422 3245 
C 544 3790 915 4058 1306 4058 
C 1862 4058 2227 3617 2227 3035 
C 2227 2479 1901 2000 1536 1584 
L 262 146 
L 262 0 
L 2515 0 
L 2669 989 
z
" id="CMR17-32" transform="scale(0.015625)"/>
        <path d="M 1178 307 
C 1178 492 1024 619 870 619 
C 685 619 557 466 557 313 
C 557 128 710 0 864 0 
C 1050 0 1178 153 1178 307 
z
" id="CMMI12-3a" transform="scale(0.015625)"/>
       </defs>
       <use transform="scale(0.996264)" xlink:href="#CMR17-32"/>
       <use transform="translate(45.690477 0)scale(0.996264)" xlink:href="#CMMI12-3a"/>
       <use transform="translate(72.787654 0)scale(0.996264)" xlink:href="#CMR17-32"/>
      </g>
     </g>
    </g>
    <g id="xtick_2">
     <g id="line2d_4">
      <path clip-path="url(#p0657669206)" d="M 183 384.48 
L 183 51.84 
" style="fill:none;stroke:#808080;stroke-linecap:square;stroke-width:0.4;"/>
     </g>
     <g id="line2d_5">
      <g>
       <use style="stroke:#000000;stroke-width:0.8;" x="183" xlink:href="#mae0fd8d4ec" y="384.48"/>
      </g>
     </g>
     <g id="line2d_6">
      <g>
       <use style="stroke:#000000;stroke-width:0.8;" x="183" xlink:href="#mc8fd7df275" y="51.84"/>
      </g>
     </g>
     <g id="text_2">
      <!-- $\mathdefault{2.4}$ -->
      <g transform="translate(173.651474 398.357725)scale(0.15 -0.15)">
       <defs>
        <path d="M 2150 4122 
C 2150 4256 2144 4256 2029 4256 
L 128 1254 
L 128 1088 
L 1779 1088 
L 1779 457 
C 1779 224 1766 160 1318 160 
L 1197 160 
L 1197 0 
C 1402 0 1747 0 1965 0 
C 2182 0 2528 0 2733 0 
L 2733 160 
L 2611 160 
C 2163 160 2150 224 2150 457 
L 2150 1088 
L 2803 1088 
L 2803 1254 
L 2150 1254 
L 2150 4122 
z
M 1798 3703 
L 1798 1254 
L 256 1254 
L 1798 3703 
z
" id="CMR17-34" transform="scale(0.015625)"/>
       </defs>
       <use transform="scale(0.996264)" xlink:href="#CMR17-32"/>
       <use transform="translate(45.690477 0)scale(0.996264)" xlink:href="#CMMI12-3a"/>
       <use transform="translate(72.787654 0)scale(0.996264)" xlink:href="#CMR17-34"/>
      </g>
     </g>
    </g>
    <g id="xtick_3">
     <g id="line2d_7">
      <path clip-path="url(#p0657669206)" d="M 245 384.48 
L 245 51.84 
" style="fill:none;stroke:#808080;stroke-linecap:square;stroke-width:0.4;"/>
     </g>
     <g id="line2d_8">
      <g>
       <use style="stroke:#000000;stroke-width:0.8;" x="245" xlink:href="#mae0fd8d4ec" y="384.48"/>
      </g>
     </g>
     <g id="line2d_9">
      <g>
       <use style="stroke:#000000;stroke-width:0.8;" x="245" xlink:href="#mc8fd7df275" y="51.84"/>
      </g>
     </g>
     <g id="text_3">
      <!-- $\mathdefault{2.6}$ -->
      <g transform="translate(235.651474 398.357725)scale(0.15 -0.15)">
       <defs>
        <path d="M 678 2176 
C 678 3690 1395 4032 1811 4032 
C 1946 4032 2272 4009 2400 3776 
C 2298 3776 2106 3776 2106 3553 
C 2106 3381 2246 3323 2336 3323 
C 2394 3323 2566 3348 2566 3560 
C 2566 3954 2246 4179 1805 4179 
C 1043 4179 243 3390 243 1984 
C 243 253 966 -128 1478 -128 
C 2099 -128 2688 427 2688 1283 
C 2688 2081 2170 2662 1517 2662 
C 1126 2662 838 2407 678 1960 
L 678 2176 
z
M 1478 25 
C 691 25 691 1200 691 1436 
C 691 1896 909 2560 1504 2560 
C 1613 2560 1926 2560 2138 2120 
C 2253 1870 2253 1609 2253 1289 
C 2253 944 2253 690 2118 434 
C 1978 171 1773 25 1478 25 
z
" id="CMR17-36" transform="scale(0.015625)"/>
       </defs>
       <use transform="scale(0.996264)" xlink:href="#CMR17-32"/>
       <use transform="translate(45.690477 0)scale(0.996264)" xlink:href="#CMMI12-3a"/>
       <use transform="translate(72.787654 0)scale(0.996264)" xlink:href="#CMR17-36"/>
      </g>
     </g>
    </g>
    <g id="xtick_4">
     <g id="line2d_10">
      <path clip-path="url(#p0657669206)" d="M 307 384.48 
L 307 51.84 
" style="fill:none;stroke:#808080;stroke-linecap:square;stroke-width:0.4;"/>
     </g>
     <g id="line2d_11">
      <g>
       <use style="stroke:#000000;stroke-width:0.8;" x="307" xlink:href="#mae0fd8d4ec" y="384.48"/>
      </g>
     </g>
     <g id="line2d_12">
      <g>
       <use style="stroke:#000000;stroke-width:0.8;" x="307" xlink:href="#mc8fd7df275" y="51.84"/>
      </g>
     </g>
     <g id="text_4">
      <!-- $\mathdefault{2.8}$ -->
      <g transform="translate(297.651474 398.357725)scale(0.15 -0.15)">
       <defs>
        <path d="M 1741 2264 
C 2144 2467 2554 2773 2554 3263 
C 2554 3841 1990 4179 1472 4179 
C 890 4179 378 3759 378 3180 
C 378 3021 416 2747 666 2505 
C 730 2442 998 2251 1171 2130 
C 883 1983 211 1634 211 934 
C 211 279 838 -128 1459 -128 
C 2144 -128 2720 362 2720 1010 
C 2720 1590 2330 1857 2074 2029 
L 1741 2264 
z
M 902 2822 
C 851 2854 595 3051 595 3351 
C 595 3739 998 4032 1459 4032 
C 1965 4032 2336 3676 2336 3262 
C 2336 2669 1670 2331 1638 2331 
C 1632 2331 1626 2331 1574 2370 
L 902 2822 
z
M 2080 1519 
C 2176 1449 2483 1240 2483 851 
C 2483 381 2010 25 1472 25 
C 890 25 448 438 448 940 
C 448 1443 838 1862 1280 2060 
L 2080 1519 
z
" id="CMR17-38" transform="scale(0.015625)"/>
       </defs>
       <use transform="scale(0.996264)" xlink:href="#CMR17-32"/>
       <use transform="translate(45.690477 0)scale(0.996264)" xlink:href="#CMMI12-3a"/>
       <use transform="translate(72.787654 0)scale(0.996264)" xlink:href="#CMR17-38"/>
      </g>
     </g>
    </g>
    <g id="xtick_5">
     <g id="line2d_13">
      <path clip-path="url(#p0657669206)" d="M 369 384.48 
L 369 51.84 
" style="fill:none;stroke:#808080;stroke-linecap:square;stroke-width:0.4;"/>
     </g>
     <g id="line2d_14">
      <g>
       <use style="stroke:#000000;stroke-width:0.8;" x="369" xlink:href="#mae0fd8d4ec" y="384.48"/>
      </g>
     </g>
     <g id="line2d_15">
      <g>
       <use style="stroke:#000000;stroke-width:0.8;" x="369" xlink:href="#mc8fd7df275" y="51.84"/>
      </g>
     </g>
     <g id="text_5">
      <!-- $\mathdefault{3.0}$ -->
      <g transform="translate(359.651474 398.357725)scale(0.15 -0.15)">
       <defs>
        <path d="M 1414 2157 
C 1984 2157 2234 1662 2234 1090 
C 2234 320 1824 25 1453 25 
C 1114 25 563 194 390 693 
C 422 680 454 680 486 680 
C 640 680 755 782 755 948 
C 755 1133 614 1216 486 1216 
C 378 1216 211 1165 211 926 
C 211 335 787 -128 1466 -128 
C 2176 -128 2720 430 2720 1085 
C 2720 1707 2208 2157 1600 2227 
C 2086 2328 2554 2756 2554 3329 
C 2554 3820 2048 4179 1472 4179 
C 890 4179 378 3829 378 3329 
C 378 3110 544 3072 627 3072 
C 762 3072 877 3155 877 3321 
C 877 3486 762 3569 627 3569 
C 602 3569 570 3569 544 3557 
C 730 3959 1235 4032 1459 4032 
C 1683 4032 2106 3925 2106 3320 
C 2106 3143 2080 2828 1862 2550 
C 1670 2304 1453 2304 1242 2284 
C 1210 2284 1062 2269 1037 2269 
C 992 2263 966 2257 966 2208 
C 966 2163 973 2157 1101 2157 
L 1414 2157 
z
" id="CMR17-33" transform="scale(0.015625)"/>
        <path d="M 2688 2025 
C 2688 2416 2682 3080 2413 3591 
C 2176 4039 1798 4198 1466 4198 
C 1158 4198 768 4058 525 3597 
C 269 3118 243 2524 243 2025 
C 243 1661 250 1106 448 619 
C 723 -39 1216 -128 1466 -128 
C 1760 -128 2208 -7 2470 600 
C 2662 1042 2688 1559 2688 2025 
z
M 1466 -26 
C 1056 -26 813 325 723 812 
C 653 1188 653 1738 653 2096 
C 653 2588 653 2997 736 3387 
C 858 3929 1216 4096 1466 4096 
C 1728 4096 2067 3923 2189 3400 
C 2272 3036 2278 2607 2278 2096 
C 2278 1680 2278 1169 2202 792 
C 2067 95 1690 -26 1466 -26 
z
" id="CMR17-30" transform="scale(0.015625)"/>
       </defs>
       <use transform="scale(0.996264)" xlink:href="#CMR17-33"/>
       <use transform="translate(45.690477 0)scale(0.996264)" xlink:href="#CMMI12-3a"/>
       <use transform="translate(72.787654 0)scale(0.996264)" xlink:href="#CMR17-30"/>
      </g>
     </g>
    </g>
    <g id="xtick_6">
     <g id="line2d_16">
      <path clip-path="url(#p0657669206)" d="M 431 384.48 
L 431 51.84 
" style="fill:none;stroke:#808080;stroke-linecap:square;stroke-width:0.4;"/>
     </g>
     <g id="line2d_17">
      <g>
       <use style="stroke:#000000;stroke-width:0.8;" x="431" xlink:href="#mae0fd8d4ec" y="384.48"/>
      </g>
     </g>
     <g id="line2d_18">
      <g>
       <use style="stroke:#000000;stroke-width:0.8;" x="431" xlink:href="#mc8fd7df275" y="51.84"/>
      </g>
     </g>
     <g id="text_6">
      <!-- $\mathdefault{3.2}$ -->
      <g transform="translate(421.651474 398.357725)scale(0.15 -0.15)">
       <use transform="scale(0.996264)" xlink:href="#CMR17-33"/>
       <use transform="translate(45.690477 0)scale(0.996264)" xlink:href="#CMMI12-3a"/>
       <use transform="translate(72.787654 0)scale(0.996264)" xlink:href="#CMR17-32"/>
      </g>
     </g>
    </g>
    <g id="xtick_7">
     <g id="line2d_19">
      <path clip-path="url(#p0657669206)" d="M 493 384.48 
L 493 51.84 
" style="fill:none;stroke:#808080;stroke-linecap:square;stroke-width:0.4;"/>
     </g>
     <g id="line2d_20">
      <g>
       <use style="stroke:#000000;stroke-width:0.8;" x="493" xlink:href="#mae0fd8d4ec" y="384.48"/>
      </g>
     </g>
     <g id="line2d_21">
      <g>
       <use style="stroke:#000000;stroke-width:0.8;" x="493" xlink:href="#mc8fd7df275" y="51.84"/>
      </g>
     </g>
     <g id="text_7">
      <!-- $\mathdefault{3.4}$ -->
      <g transform="translate(483.651474 398.357725)scale(0.15 -0.15)">
       <use transform="scale(0.996264)" xlink:href="#CMR17-33"/>
       <use transform="translate(45.690477 0)scale(0.996264)" xlink:href="#CMMI12-3a"/>
       <use transform="translate(72.787654 0)scale(0.996264)" xlink:href="#CMR17-34"/>
      </g>
     </g>
    </g>
    <g id="xtick_8">
     <g id="line2d_22">
      <path clip-path="url(#p0657669206)" d="M 555 384.48 
L 555 51.84 
" style="fill:none;stroke:#808080;stroke-linecap:square;stroke-width:0.4;"/>
     </g>
     <g id="line2d_23">
      <g>
       <use style="stroke:#000000;stroke-width:0.8;" x="555" xlink:href="#mae0fd8d4ec" y="384.48"/>
      </g>
     </g>
     <g id="line2d_24">
      <g>
       <use style="stroke:#000000;stroke-width:0.8;" x="555" xlink:href="#mc8fd7df275" y="51.84"/>
      </g>
     </g>
     <g id="text_8">
      <!-- $\mathdefault{3.6}$ -->
      <g transform="translate(545.651474 398.357725)scale(0.15 -0.15)">
       <use transform="scale(0.996264)" xlink:href="#CMR17-33"/>
       <use transform="translate(45.690477 0)scale(0.996264)" xlink:href="#CMMI12-3a"/>
       <use transform="translate(72.787654 0)scale(0.996264)" xlink:href="#CMR17-36"/>
      </g>
     </g>
    </g>
    <g id="xtick_9">
     <g id="line2d_25">
      <path clip-path="url(#p0657669206)" d="M 617 384.48 
L 617 51.84 
" style="fill:none;stroke:#808080;stroke-linecap:square;stroke-width:0.4;"/>
     </g>
     <g id="line2d_26">
      <g>
       <use style="stroke:#000000;stroke-width:0.8;" x="617" xlink:href="#mae0fd8d4ec" y="384.48"/>
      </g>
     </g>
     <g id="line2d_27">
      <g>
       <use style="stroke:#000000;stroke-width:0.8;" x="617" xlink:href="#mc8fd7df275" y="51.84"/>
      </g>
     </g>
     <g id="text_9">
      <!-- $\mathdefault{3.8}$ -->
      <g transform="translate(607.651474 398.357725)scale(0.15 -0.15)">
       <use transform="scale(0.996264)" xlink:href="#CMR17-33"/>
       <use transform="translate(45.690477 0)scale(0.996264)" xlink:href="#CMMI12-3a"/>
       <use transform="translate(72.787654 0)scale(0.996264)" xlink:href="#CMR17-38"/>
      </g>
     </g>
    </g>
    <g id="xtick_10">
     <g id="line2d_28">
      <path clip-path="url(#p0657669206)" d="M 105.5 384.48 
L 105.5 51.84 
" style="fill:none;stroke:#808080;stroke-dasharray:0.74,0.32;stroke-dashoffset:0;stroke-width:0.2;"/>
     </g>
     <g id="line2d_29">
      <defs>
       <path d="M 0 0 
L 0 -2 
" id="m1836abd658" style="stroke:#000000;stroke-width:0.6;"/>
      </defs>
      <g>
       <use style="stroke:#000000;stroke-width:0.6;" x="105.5" xlink:href="#m1836abd658" y="384.48"/>
      </g>
     </g>
     <g id="line2d_30">
      <defs>
       <path d="M 0 0 
L 0 2 
" id="m0a000b3e93" style="stroke:#000000;stroke-width:0.6;"/>
      </defs>
      <g>
       <use style="stroke:#000000;stroke-width:0.6;" x="105.5" xlink:href="#m0a000b3e93" y="51.84"/>
      </g>
     </g>
    </g>
    <g id="xtick_11">
     <g id="line2d_31">
      <path clip-path="url(#p0657669206)" d="M 136.5 384.48 
L 136.5 51.84 
" style="fill:none;stroke:#808080;stroke-dasharray:0.74,0.32;stroke-dashoffset:0;stroke-width:0.2;"/>
     </g>
     <g id="line2d_32">
      <g>
       <use style="stroke:#000000;stroke-width:0.6;" x="136.5" xlink:href="#m1836abd658" y="384.48"/>
      </g>
     </g>
     <g id="line2d_33">
      <g>
       <use style="stroke:#000000;stroke-width:0.6;" x="136.5" xlink:href="#m0a000b3e93" y="51.84"/>
      </g>
     </g>
    </g>
    <g id="xtick_12">
     <g id="line2d_34">
      <path clip-path="url(#p0657669206)" d="M 152 384.48 
L 152 51.84 
" style="fill:none;stroke:#808080;stroke-dasharray:0.74,0.32;stroke-dashoffset:0;stroke-width:0.2;"/>
     </g>
     <g id="line2d_35">
      <g>
       <use style="stroke:#000000;stroke-width:0.6;" x="152" xlink:href="#m1836abd658" y="384.48"/>
      </g>
     </g>
     <g id="line2d_36">
      <g>
       <use style="stroke:#000000;stroke-width:0.6;" x="152" xlink:href="#m0a000b3e93" y="51.84"/>
      </g>
     </g>
    </g>
    <g id="xtick_13">
     <g id="line2d_37">
      <path clip-path="url(#p0657669206)" d="M 167.5 384.48 
L 167.5 51.84 
" style="fill:none;stroke:#808080;stroke-dasharray:0.74,0.32;stroke-dashoffset:0;stroke-width:0.2;"/>
     </g>
     <g id="line2d_38">
      <g>
       <use style="stroke:#000000;stroke-width:0.6;" x="167.5" xlink:href="#m1836abd658" y="384.48"/>
      </g>
     </g>
     <g id="line2d_39">
      <g>
       <use style="stroke:#000000;stroke-width:0.6;" x="167.5" xlink:href="#m0a000b3e93" y="51.84"/>
      </g>
     </g>
    </g>
    <g id="xtick_14">
     <g id="line2d_40">
      <path clip-path="url(#p0657669206)" d="M 198.5 384.48 
L 198.5 51.84 
" style="fill:none;stroke:#808080;stroke-dasharray:0.74,0.32;stroke-dashoffset:0;stroke-width:0.2;"/>
     </g>
     <g id="line2d_41">
      <g>
       <use style="stroke:#000000;stroke-width:0.6;" x="198.5" xlink:href="#m1836abd658" y="384.48"/>
      </g>
     </g>
     <g id="line2d_42">
      <g>
       <use style="stroke:#000000;stroke-width:0.6;" x="198.5" xlink:href="#m0a000b3e93" y="51.84"/>
      </g>
     </g>
    </g>
    <g id="xtick_15">
     <g id="line2d_43">
      <path clip-path="url(#p0657669206)" d="M 214 384.48 
L 214 51.84 
" style="fill:none;stroke:#808080;stroke-dasharray:0.74,0.32;stroke-dashoffset:0;stroke-width:0.2;"/>
     </g>
     <g id="line2d_44">
      <g>
       <use style="stroke:#000000;stroke-width:0.6;" x="214" xlink:href="#m1836abd658" y="384.48"/>
      </g>
     </g>
     <g id="line2d_45">
      <g>
       <use style="stroke:#000000;stroke-width:0.6;" x="214" xlink:href="#m0a000b3e93" y="51.84"/>
      </g>
     </g>
    </g>
    <g id="xtick_16">
     <g id="line2d_46">
      <path clip-path="url(#p0657669206)" d="M 229.5 384.48 
L 229.5 51.84 
" style="fill:none;stroke:#808080;stroke-dasharray:0.74,0.32;stroke-dashoffset:0;stroke-width:0.2;"/>
     </g>
     <g id="line2d_47">
      <g>
       <use style="stroke:#000000;stroke-width:0.6;" x="229.5" xlink:href="#m1836abd658" y="384.48"/>
      </g>
     </g>
     <g id="line2d_48">
      <g>
       <use style="stroke:#000000;stroke-width:0.6;" x="229.5" xlink:href="#m0a000b3e93" y="51.84"/>
      </g>
     </g>
    </g>
    <g id="xtick_17">
     <g id="line2d_49">
      <path clip-path="url(#p0657669206)" d="M 260.5 384.48 
L 260.5 51.84 
" style="fill:none;stroke:#808080;stroke-dasharray:0.74,0.32;stroke-dashoffset:0;stroke-width:0.2;"/>
     </g>
     <g id="line2d_50">
      <g>
       <use style="stroke:#000000;stroke-width:0.6;" x="260.5" xlink:href="#m1836abd658" y="384.48"/>
      </g>
     </g>
     <g id="line2d_51">
      <g>
       <use style="stroke:#000000;stroke-width:0.6;" x="260.5" xlink:href="#m0a000b3e93" y="51.84"/>
      </g>
     </g>
    </g>
    <g id="xtick_18">
     <g id="line2d_52">
      <path clip-path="url(#p0657669206)" d="M 276 384.48 
L 276 51.84 
" style="fill:none;stroke:#808080;stroke-dasharray:0.74,0.32;stroke-dashoffset:0;stroke-width:0.2;"/>
     </g>
     <g id="line2d_53">
      <g>
       <use style="stroke:#000000;stroke-width:0.6;" x="276" xlink:href="#m1836abd658" y="384.48"/>
      </g>
     </g>
     <g id="line2d_54">
      <g>
       <use style="stroke:#000000;stroke-width:0.6;" x="276" xlink:href="#m0a000b3e93" y="51.84"/>
      </g>
     </g>
    </g>
    <g id="xtick_19">
     <g id="line2d_55">
      <path clip-path="url(#p0657669206)" d="M 291.5 384.48 
L 291.5 51.84 
" style="fill:none;stroke:#808080;stroke-dasharray:0.74,0.32;stroke-dashoffset:0;stroke-width:0.2;"/>
     </g>
     <g id="line2d_56">
      <g>
       <use style="stroke:#000000;stroke-width:0.6;" x="291.5" xlink:href="#m1836abd658" y="384.48"/>
      </g>
     </g>
     <g id="line2d_57">
      <g>
       <use style="stroke:#000000;stroke-width:0.6;" x="291.5" xlink:href="#m0a000b3e93" y="51.84"/>
      </g>
     </g>
    </g>
    <g id="xtick_20">
     <g id="line2d_58">
      <path clip-path="url(#p0657669206)" d="M 322.5 384.48 
L 322.5 51.84 
" style="fill:none;stroke:#808080;stroke-dasharray:0.74,0.32;stroke-dashoffset:0;stroke-width:0.2;"/>
     </g>
     <g id="line2d_59">
      <g>
       <use style="stroke:#000000;stroke-width:0.6;" x="322.5" xlink:href="#m1836abd658" y="384.48"/>
      </g>
     </g>
     <g id="line2d_60">
      <g>
       <use style="stroke:#000000;stroke-width:0.6;" x="322.5" xlink:href="#m0a000b3e93" y="51.84"/>
      </g>
     </g>
    </g>
    <g id="xtick_21">
     <g id="line2d_61">
      <path clip-path="url(#p0657669206)" d="M 338 384.48 
L 338 51.84 
" style="fill:none;stroke:#808080;stroke-dasharray:0.74,0.32;stroke-dashoffset:0;stroke-width:0.2;"/>
     </g>
     <g id="line2d_62">
      <g>
       <use style="stroke:#000000;stroke-width:0.6;" x="338" xlink:href="#m1836abd658" y="384.48"/>
      </g>
     </g>
     <g id="line2d_63">
      <g>
       <use style="stroke:#000000;stroke-width:0.6;" x="338" xlink:href="#m0a000b3e93" y="51.84"/>
      </g>
     </g>
    </g>
    <g id="xtick_22">
     <g id="line2d_64">
      <path clip-path="url(#p0657669206)" d="M 353.5 384.48 
L 353.5 51.84 
" style="fill:none;stroke:#808080;stroke-dasharray:0.74,0.32;stroke-dashoffset:0;stroke-width:0.2;"/>
     </g>
     <g id="line2d_65">
      <g>
       <use style="stroke:#000000;stroke-width:0.6;" x="353.5" xlink:href="#m1836abd658" y="384.48"/>
      </g>
     </g>
     <g id="line2d_66">
      <g>
       <use style="stroke:#000000;stroke-width:0.6;" x="353.5" xlink:href="#m0a000b3e93" y="51.84"/>
      </g>
     </g>
    </g>
    <g id="xtick_23">
     <g id="line2d_67">
      <path clip-path="url(#p0657669206)" d="M 384.5 384.48 
L 384.5 51.84 
" style="fill:none;stroke:#808080;stroke-dasharray:0.74,0.32;stroke-dashoffset:0;stroke-width:0.2;"/>
     </g>
     <g id="line2d_68">
      <g>
       <use style="stroke:#000000;stroke-width:0.6;" x="384.5" xlink:href="#m1836abd658" y="384.48"/>
      </g>
     </g>
     <g id="line2d_69">
      <g>
       <use style="stroke:#000000;stroke-width:0.6;" x="384.5" xlink:href="#m0a000b3e93" y="51.84"/>
      </g>
     </g>
    </g>
    <g id="xtick_24">
     <g id="line2d_70">
      <path clip-path="url(#p0657669206)" d="M 400 384.48 
L 400 51.84 
" style="fill:none;stroke:#808080;stroke-dasharray:0.74,0.32;stroke-dashoffset:0;stroke-width:0.2;"/>
     </g>
     <g id="line2d_71">
      <g>
       <use style="stroke:#000000;stroke-width:0.6;" x="400" xlink:href="#m1836abd658" y="384.48"/>
      </g>
     </g>
     <g id="line2d_72">
      <g>
       <use style="stroke:#000000;stroke-width:0.6;" x="400" xlink:href="#m0a000b3e93" y="51.84"/>
      </g>
     </g>
    </g>
    <g id="xtick_25">
     <g id="line2d_73">
      <path clip-path="url(#p0657669206)" d="M 415.5 384.48 
L 415.5 51.84 
" style="fill:none;stroke:#808080;stroke-dasharray:0.74,0.32;stroke-dashoffset:0;stroke-width:0.2;"/>
     </g>
     <g id="line2d_74">
      <g>
       <use style="stroke:#000000;stroke-width:0.6;" x="415.5" xlink:href="#m1836abd658" y="384.48"/>
      </g>
     </g>
     <g id="line2d_75">
      <g>
       <use style="stroke:#000000;stroke-width:0.6;" x="415.5" xlink:href="#m0a000b3e93" y="51.84"/>
      </g>
     </g>
    </g>
    <g id="xtick_26">
     <g id="line2d_76">
      <path clip-path="url(#p0657669206)" d="M 446.5 384.48 
L 446.5 51.84 
" style="fill:none;stroke:#808080;stroke-dasharray:0.74,0.32;stroke-dashoffset:0;stroke-width:0.2;"/>
     </g>
     <g id="line2d_77">
      <g>
       <use style="stroke:#000000;stroke-width:0.6;" x="446.5" xlink:href="#m1836abd658" y="384.48"/>
      </g>
     </g>
     <g id="line2d_78">
      <g>
       <use style="stroke:#000000;stroke-width:0.6;" x="446.5" xlink:href="#m0a000b3e93" y="51.84"/>
      </g>
     </g>
    </g>
    <g id="xtick_27">
     <g id="line2d_79">
      <path clip-path="url(#p0657669206)" d="M 462 384.48 
L 462 51.84 
" style="fill:none;stroke:#808080;stroke-dasharray:0.74,0.32;stroke-dashoffset:0;stroke-width:0.2;"/>
     </g>
     <g id="line2d_80">
      <g>
       <use style="stroke:#000000;stroke-width:0.6;" x="462" xlink:href="#m1836abd658" y="384.48"/>
      </g>
     </g>
     <g id="line2d_81">
      <g>
       <use style="stroke:#000000;stroke-width:0.6;" x="462" xlink:href="#m0a000b3e93" y="51.84"/>
      </g>
     </g>
    </g>
    <g id="xtick_28">
     <g id="line2d_82">
      <path clip-path="url(#p0657669206)" d="M 477.5 384.48 
L 477.5 51.84 
" style="fill:none;stroke:#808080;stroke-dasharray:0.74,0.32;stroke-dashoffset:0;stroke-width:0.2;"/>
     </g>
     <g id="line2d_83">
      <g>
       <use style="stroke:#000000;stroke-width:0.6;" x="477.5" xlink:href="#m1836abd658" y="384.48"/>
      </g>
     </g>
     <g id="line2d_84">
      <g>
       <use style="stroke:#000000;stroke-width:0.6;" x="477.5" xlink:href="#m0a000b3e93" y="51.84"/>
      </g>
     </g>
    </g>
    <g id="xtick_29">
     <g id="line2d_85">
      <path clip-path="url(#p0657669206)" d="M 508.5 384.48 
L 508.5 51.84 
" style="fill:none;stroke:#808080;stroke-dasharray:0.74,0.32;stroke-dashoffset:0;stroke-width:0.2;"/>
     </g>
     <g id="line2d_86">
      <g>
       <use style="stroke:#000000;stroke-width:0.6;" x="508.5" xlink:href="#m1836abd658" y="384.48"/>
      </g>
     </g>
     <g id="line2d_87">
      <g>
       <use style="stroke:#000000;stroke-width:0.6;" x="508.5" xlink:href="#m0a000b3e93" y="51.84"/>
      </g>
     </g>
    </g>
    <g id="xtick_30">
     <g id="line2d_88">
      <path clip-path="url(#p0657669206)" d="M 524 384.48 
L 524 51.84 
" style="fill:none;stroke:#808080;stroke-dasharray:0.74,0.32;stroke-dashoffset:0;stroke-width:0.2;"/>
     </g>
     <g id="line2d_89">
      <g>
       <use style="stroke:#000000;stroke-width:0.6;" x="524" xlink:href="#m1836abd658" y="384.48"/>
      </g>
     </g>
     <g id="line2d_90">
      <g>
       <use style="stroke:#000000;stroke-width:0.6;" x="524" xlink:href="#m0a000b3e93" y="51.84"/>
      </g>
     </g>
    </g>
    <g id="xtick_31">
     <g id="line2d_91">
      <path clip-path="url(#p0657669206)" d="M 539.5 384.48 
L 539.5 51.84 
" style="fill:none;stroke:#808080;stroke-dasharray:0.74,0.32;stroke-dashoffset:0;stroke-width:0.2;"/>
     </g>
     <g id="line2d_92">
      <g>
       <use style="stroke:#000000;stroke-width:0.6;" x="539.5" xlink:href="#m1836abd658" y="384.48"/>
      </g>
     </g>
     <g id="line2d_93">
      <g>
       <use style="stroke:#000000;stroke-width:0.6;" x="539.5" xlink:href="#m0a000b3e93" y="51.84"/>
      </g>
     </g>
    </g>
    <g id="xtick_32">
     <g id="line2d_94">
      <path clip-path="url(#p0657669206)" d="M 570.5 384.48 
L 570.5 51.84 
" style="fill:none;stroke:#808080;stroke-dasharray:0.74,0.32;stroke-dashoffset:0;stroke-width:0.2;"/>
     </g>
     <g id="line2d_95">
      <g>
       <use style="stroke:#000000;stroke-width:0.6;" x="570.5" xlink:href="#m1836abd658" y="384.48"/>
      </g>
     </g>
     <g id="line2d_96">
      <g>
       <use style="stroke:#000000;stroke-width:0.6;" x="570.5" xlink:href="#m0a000b3e93" y="51.84"/>
      </g>
     </g>
    </g>
    <g id="xtick_33">
     <g id="line2d_97">
      <path clip-path="url(#p0657669206)" d="M 586 384.48 
L 586 51.84 
" style="fill:none;stroke:#808080;stroke-dasharray:0.74,0.32;stroke-dashoffset:0;stroke-width:0.2;"/>
     </g>
     <g id="line2d_98">
      <g>
       <use style="stroke:#000000;stroke-width:0.6;" x="586" xlink:href="#m1836abd658" y="384.48"/>
      </g>
     </g>
     <g id="line2d_99">
      <g>
       <use style="stroke:#000000;stroke-width:0.6;" x="586" xlink:href="#m0a000b3e93" y="51.84"/>
      </g>
     </g>
    </g>
    <g id="xtick_34">
     <g id="line2d_100">
      <path clip-path="url(#p0657669206)" d="M 601.5 384.48 
L 601.5 51.84 
" style="fill:none;stroke:#808080;stroke-dasharray:0.74,0.32;stroke-dashoffset:0;stroke-width:0.2;"/>
     </g>
     <g id="line2d_101">
      <g>
       <use style="stroke:#000000;stroke-width:0.6;" x="601.5" xlink:href="#m1836abd658" y="384.48"/>
      </g>
     </g>
     <g id="line2d_102">
      <g>
       <use style="stroke:#000000;stroke-width:0.6;" x="601.5" xlink:href="#m0a000b3e93" y="51.84"/>
      </g>
     </g>
    </g>
    <g id="xtick_35">
     <g id="line2d_103">
      <path clip-path="url(#p0657669206)" d="M 632.5 384.48 
L 632.5 51.84 
" style="fill:none;stroke:#808080;stroke-dasharray:0.74,0.32;stroke-dashoffset:0;stroke-width:0.2;"/>
     </g>
     <g id="line2d_104">
      <g>
       <use style="stroke:#000000;stroke-width:0.6;" x="632.5" xlink:href="#m1836abd658" y="384.48"/>
      </g>
     </g>
     <g id="line2d_105">
      <g>
       <use style="stroke:#000000;stroke-width:0.6;" x="632.5" xlink:href="#m0a000b3e93" y="51.84"/>
      </g>
     </g>
    </g>
    <g id="text_10">
     <!-- Hours -->
     <g transform="translate(350.061665 415.641194)scale(0.15 -0.15)">
      <defs>
       <path d="M 3590 3905 
C 3590 4192 3661 4192 4102 4192 
L 4102 4352 
C 3917 4352 3578 4352 3379 4352 
C 3181 4352 2842 4352 2656 4352 
L 2656 4192 
C 3098 4192 3168 4192 3168 3904 
L 3168 2341 
L 1261 2341 
L 1261 3904 
C 1261 4192 1331 4192 1773 4192 
L 1773 4352 
C 1587 4352 1248 4352 1050 4352 
C 851 4352 512 4352 326 4352 
L 326 4192 
C 768 4192 838 4192 838 3905 
L 838 447 
C 838 160 768 160 326 160 
L 326 0 
C 512 0 851 0 1050 0 
C 1248 0 1587 0 1773 0 
L 1773 160 
C 1331 160 1261 160 1261 446 
L 1261 2176 
L 3168 2176 
L 3168 446 
C 3168 160 3098 160 2656 160 
L 2656 0 
C 2842 0 3181 0 3379 0 
C 3578 0 3917 0 4102 0 
L 4102 160 
C 3661 160 3590 160 3590 447 
L 3590 3905 
z
" id="CMR17-48" transform="scale(0.015625)"/>
       <path d="M 2758 1356 
C 2758 2176 2163 2816 1466 2816 
C 768 2816 173 2176 173 1356 
C 173 551 768 -64 1466 -64 
C 2163 -64 2758 551 2758 1356 
z
M 1466 51 
C 1165 51 909 230 762 480 
C 602 767 582 1126 582 1408 
C 582 1677 595 2010 762 2298 
C 890 2509 1139 2714 1466 2714 
C 1754 2714 1997 2554 2150 2330 
C 2349 2029 2349 1607 2349 1408 
C 2349 1158 2336 775 2163 467 
C 1984 173 1709 51 1466 51 
z
" id="CMR17-6f" transform="scale(0.015625)"/>
       <path d="M 1882 2693 
L 1882 2528 
C 2259 2528 2317 2489 2317 2186 
L 2317 1032 
C 2317 500 2029 38 1555 38 
C 1030 38 986 348 986 678 
L 986 2763 
L 211 2693 
L 211 2528 
C 467 2528 640 2528 646 2274 
L 646 1058 
C 646 633 646 361 813 183 
C 896 101 1056 -64 1517 -64 
C 2061 -64 2272 377 2323 506 
L 2330 506 
L 2330 -63 
L 3091 -63 
L 3091 128 
C 2714 128 2656 166 2656 473 
L 2656 2763 
L 1882 2693 
z
" id="CMR17-75" transform="scale(0.015625)"/>
       <path d="M 960 1497 
C 960 2112 1222 2688 1702 2688 
C 1747 2688 1792 2682 1837 2662 
C 1837 2662 1696 2617 1696 2452 
C 1696 2298 1818 2234 1914 2234 
C 1990 2234 2131 2279 2131 2458 
C 2131 2663 1926 2790 1709 2790 
C 1222 2790 1011 2317 947 2093 
L 941 2093 
L 941 2790 
L 198 2720 
L 198 2554 
C 576 2554 634 2515 634 2208 
L 634 428 
C 634 184 608 153 198 153 
L 198 -13 
C 352 0 646 0 813 0 
C 998 0 1325 0 1498 -13 
L 1498 153 
C 1037 153 960 153 960 440 
L 960 1497 
z
" id="CMR17-72" transform="scale(0.015625)"/>
       <path d="M 1978 2697 
C 1978 2813 1971 2819 1933 2819 
C 1907 2819 1901 2813 1824 2717 
C 1805 2691 1747 2626 1728 2601 
C 1523 2819 1235 2819 1126 2819 
C 416 2819 160 2447 160 2076 
C 160 1498 813 1365 998 1325 
C 1402 1243 1542 1217 1677 1101 
C 1760 1025 1901 884 1901 654 
C 1901 384 1747 38 1158 38 
C 602 38 403 460 288 1021 
C 269 1110 269 1117 218 1117 
C 166 1117 160 1110 160 983 
L 160 63 
C 160 -51 166 -58 205 -58 
C 237 -58 243 -51 275 0 
C 314 57 410 211 448 276 
C 576 103 800 -64 1158 -64 
C 1792 -64 2131 283 2131 784 
C 2131 1112 1958 1285 1875 1362 
C 1683 1561 1459 1606 1190 1657 
C 838 1735 390 1825 390 2217 
C 390 2383 480 2737 1126 2737 
C 1811 2737 1850 2094 1862 1888 
C 1869 1856 1901 1849 1920 1849 
C 1978 1849 1978 1869 1978 1978 
L 1978 2697 
z
" id="CMR17-73" transform="scale(0.015625)"/>
      </defs>
      <use transform="scale(0.996264)" xlink:href="#CMR17-48"/>
      <use transform="translate(69.07243 0)scale(0.996264)" xlink:href="#CMR17-6f"/>
      <use transform="translate(114.762907 0)scale(0.996264)" xlink:href="#CMR17-75"/>
      <use transform="translate(165.658277 0)scale(0.996264)" xlink:href="#CMR17-72"/>
      <use transform="translate(200.939045 0)scale(0.996264)" xlink:href="#CMR17-73"/>
     </g>
    </g>
   </g>
   <g id="matplotlib.axis_2">
    <g id="ytick_1">
     <g id="line2d_106">
      <path clip-path="url(#p0657669206)" d="M 90 360.247947 
L 648 360.247947 
" style="fill:none;stroke:#808080;stroke-linecap:square;stroke-width:0.4;"/>
     </g>
     <g id="line2d_107">
      <defs>
       <path d="M 0 0 
L 3.5 0 
" id="me014ac96e8" style="stroke:#000000;stroke-width:0.8;"/>
      </defs>
      <g>
       <use style="stroke:#000000;stroke-width:0.8;" x="90" xlink:href="#me014ac96e8" y="360.247947"/>
      </g>
     </g>
     <g id="line2d_108">
      <defs>
       <path d="M 0 0 
L -3.5 0 
" id="mec4dbb716a" style="stroke:#000000;stroke-width:0.8;"/>
      </defs>
      <g>
       <use style="stroke:#000000;stroke-width:0.8;" x="648" xlink:href="#mec4dbb716a" y="360.247947"/>
      </g>
     </g>
     <g id="text_11">
      <!-- $\mathdefault{1.6}$ -->
      <g transform="translate(67.802948 365.436809)scale(0.15 -0.15)">
       <defs>
        <path d="M 1702 4058 
C 1702 4192 1696 4192 1606 4192 
C 1357 3916 979 3827 621 3827 
C 602 3827 570 3827 563 3808 
C 557 3795 557 3782 557 3648 
C 755 3648 1088 3686 1344 3839 
L 1344 461 
C 1344 236 1331 160 781 160 
L 589 160 
L 589 0 
C 896 0 1216 0 1523 0 
C 1830 0 2150 0 2458 0 
L 2458 160 
L 2266 160 
C 1715 160 1702 230 1702 458 
L 1702 4058 
z
" id="CMR17-31" transform="scale(0.015625)"/>
       </defs>
       <use transform="scale(0.996264)" xlink:href="#CMR17-31"/>
       <use transform="translate(45.690477 0)scale(0.996264)" xlink:href="#CMMI12-3a"/>
       <use transform="translate(72.787654 0)scale(0.996264)" xlink:href="#CMR17-36"/>
      </g>
     </g>
    </g>
    <g id="ytick_2">
     <g id="line2d_109">
      <path clip-path="url(#p0657669206)" d="M 90 316.189669 
L 648 316.189669 
" style="fill:none;stroke:#808080;stroke-linecap:square;stroke-width:0.4;"/>
     </g>
     <g id="line2d_110">
      <g>
       <use style="stroke:#000000;stroke-width:0.8;" x="90" xlink:href="#me014ac96e8" y="316.189669"/>
      </g>
     </g>
     <g id="line2d_111">
      <g>
       <use style="stroke:#000000;stroke-width:0.8;" x="648" xlink:href="#mec4dbb716a" y="316.189669"/>
      </g>
     </g>
     <g id="text_12">
      <!-- $\mathdefault{1.8}$ -->
      <g transform="translate(67.802948 321.378531)scale(0.15 -0.15)">
       <use transform="scale(0.996264)" xlink:href="#CMR17-31"/>
       <use transform="translate(45.690477 0)scale(0.996264)" xlink:href="#CMMI12-3a"/>
       <use transform="translate(72.787654 0)scale(0.996264)" xlink:href="#CMR17-38"/>
      </g>
     </g>
    </g>
    <g id="ytick_3">
     <g id="line2d_112">
      <path clip-path="url(#p0657669206)" d="M 90 272.131391 
L 648 272.131391 
" style="fill:none;stroke:#808080;stroke-linecap:square;stroke-width:0.4;"/>
     </g>
     <g id="line2d_113">
      <g>
       <use style="stroke:#000000;stroke-width:0.8;" x="90" xlink:href="#me014ac96e8" y="272.131391"/>
      </g>
     </g>
     <g id="line2d_114">
      <g>
       <use style="stroke:#000000;stroke-width:0.8;" x="648" xlink:href="#mec4dbb716a" y="272.131391"/>
      </g>
     </g>
     <g id="text_13">
      <!-- $\mathdefault{2.0}$ -->
      <g transform="translate(67.802948 277.320253)scale(0.15 -0.15)">
       <use transform="scale(0.996264)" xlink:href="#CMR17-32"/>
       <use transform="translate(45.690477 0)scale(0.996264)" xlink:href="#CMMI12-3a"/>
       <use transform="translate(72.787654 0)scale(0.996264)" xlink:href="#CMR17-30"/>
      </g>
     </g>
    </g>
    <g id="ytick_4">
     <g id="line2d_115">
      <path clip-path="url(#p0657669206)" d="M 90 228.073113 
L 648 228.073113 
" style="fill:none;stroke:#808080;stroke-linecap:square;stroke-width:0.4;"/>
     </g>
     <g id="line2d_116">
      <g>
       <use style="stroke:#000000;stroke-width:0.8;" x="90" xlink:href="#me014ac96e8" y="228.073113"/>
      </g>
     </g>
     <g id="line2d_117">
      <g>
       <use style="stroke:#000000;stroke-width:0.8;" x="648" xlink:href="#mec4dbb716a" y="228.073113"/>
      </g>
     </g>
     <g id="text_14">
      <!-- $\mathdefault{2.2}$ -->
      <g transform="translate(67.802948 233.261975)scale(0.15 -0.15)">
       <use transform="scale(0.996264)" xlink:href="#CMR17-32"/>
       <use transform="translate(45.690477 0)scale(0.996264)" xlink:href="#CMMI12-3a"/>
       <use transform="translate(72.787654 0)scale(0.996264)" xlink:href="#CMR17-32"/>
      </g>
     </g>
    </g>
    <g id="ytick_5">
     <g id="line2d_118">
      <path clip-path="url(#p0657669206)" d="M 90 184.014834 
L 648 184.014834 
" style="fill:none;stroke:#808080;stroke-linecap:square;stroke-width:0.4;"/>
     </g>
     <g id="line2d_119">
      <g>
       <use style="stroke:#000000;stroke-width:0.8;" x="90" xlink:href="#me014ac96e8" y="184.014834"/>
      </g>
     </g>
     <g id="line2d_120">
      <g>
       <use style="stroke:#000000;stroke-width:0.8;" x="648" xlink:href="#mec4dbb716a" y="184.014834"/>
      </g>
     </g>
     <g id="text_15">
      <!-- $\mathdefault{2.4}$ -->
      <g transform="translate(67.802948 189.203697)scale(0.15 -0.15)">
       <use transform="scale(0.996264)" xlink:href="#CMR17-32"/>
       <use transform="translate(45.690477 0)scale(0.996264)" xlink:href="#CMMI12-3a"/>
       <use transform="translate(72.787654 0)scale(0.996264)" xlink:href="#CMR17-34"/>
      </g>
     </g>
    </g>
    <g id="ytick_6">
     <g id="line2d_121">
      <path clip-path="url(#p0657669206)" d="M 90 139.956556 
L 648 139.956556 
" style="fill:none;stroke:#808080;stroke-linecap:square;stroke-width:0.4;"/>
     </g>
     <g id="line2d_122">
      <g>
       <use style="stroke:#000000;stroke-width:0.8;" x="90" xlink:href="#me014ac96e8" y="139.956556"/>
      </g>
     </g>
     <g id="line2d_123">
      <g>
       <use style="stroke:#000000;stroke-width:0.8;" x="648" xlink:href="#mec4dbb716a" y="139.956556"/>
      </g>
     </g>
     <g id="text_16">
      <!-- $\mathdefault{2.6}$ -->
      <g transform="translate(67.802948 145.145419)scale(0.15 -0.15)">
       <use transform="scale(0.996264)" xlink:href="#CMR17-32"/>
       <use transform="translate(45.690477 0)scale(0.996264)" xlink:href="#CMMI12-3a"/>
       <use transform="translate(72.787654 0)scale(0.996264)" xlink:href="#CMR17-36"/>
      </g>
     </g>
    </g>
    <g id="ytick_7">
     <g id="line2d_124">
      <path clip-path="url(#p0657669206)" d="M 90 95.898278 
L 648 95.898278 
" style="fill:none;stroke:#808080;stroke-linecap:square;stroke-width:0.4;"/>
     </g>
     <g id="line2d_125">
      <g>
       <use style="stroke:#000000;stroke-width:0.8;" x="90" xlink:href="#me014ac96e8" y="95.898278"/>
      </g>
     </g>
     <g id="line2d_126">
      <g>
       <use style="stroke:#000000;stroke-width:0.8;" x="648" xlink:href="#mec4dbb716a" y="95.898278"/>
      </g>
     </g>
     <g id="text_17">
      <!-- $\mathdefault{2.8}$ -->
      <g transform="translate(67.802948 101.087141)scale(0.15 -0.15)">
       <use transform="scale(0.996264)" xlink:href="#CMR17-32"/>
       <use transform="translate(45.690477 0)scale(0.996264)" xlink:href="#CMMI12-3a"/>
       <use transform="translate(72.787654 0)scale(0.996264)" xlink:href="#CMR17-38"/>
      </g>
     </g>
    </g>
    <g id="ytick_8">
     <g id="line2d_127">
      <path clip-path="url(#p0657669206)" d="M 90 51.84 
L 648 51.84 
" style="fill:none;stroke:#808080;stroke-linecap:square;stroke-width:0.4;"/>
     </g>
     <g id="line2d_128">
      <g>
       <use style="stroke:#000000;stroke-width:0.8;" x="90" xlink:href="#me014ac96e8" y="51.84"/>
      </g>
     </g>
     <g id="line2d_129">
      <g>
       <use style="stroke:#000000;stroke-width:0.8;" x="648" xlink:href="#mec4dbb716a" y="51.84"/>
      </g>
     </g>
     <g id="text_18">
      <!-- $\mathdefault{3.0}$ -->
      <g transform="translate(67.802948 57.028862)scale(0.15 -0.15)">
       <use transform="scale(0.996264)" xlink:href="#CMR17-33"/>
       <use transform="translate(45.690477 0)scale(0.996264)" xlink:href="#CMMI12-3a"/>
       <use transform="translate(72.787654 0)scale(0.996264)" xlink:href="#CMR17-30"/>
      </g>
     </g>
    </g>
    <g id="ytick_9">
     <g id="line2d_130">
      <path clip-path="url(#p0657669206)" d="M 90 382.277086 
L 648 382.277086 
" style="fill:none;stroke:#808080;stroke-dasharray:0.74,0.32;stroke-dashoffset:0;stroke-width:0.2;"/>
     </g>
     <g id="line2d_131">
      <defs>
       <path d="M 0 0 
L 2 0 
" id="m9e7e1c2557" style="stroke:#000000;stroke-width:0.6;"/>
      </defs>
      <g>
       <use style="stroke:#000000;stroke-width:0.6;" x="90" xlink:href="#m9e7e1c2557" y="382.277086"/>
      </g>
     </g>
     <g id="line2d_132">
      <defs>
       <path d="M 0 0 
L -2 0 
" id="m4d418c4c5e" style="stroke:#000000;stroke-width:0.6;"/>
      </defs>
      <g>
       <use style="stroke:#000000;stroke-width:0.6;" x="648" xlink:href="#m4d418c4c5e" y="382.277086"/>
      </g>
     </g>
    </g>
    <g id="ytick_10">
     <g id="line2d_133">
      <path clip-path="url(#p0657669206)" d="M 90 371.262517 
L 648 371.262517 
" style="fill:none;stroke:#808080;stroke-dasharray:0.74,0.32;stroke-dashoffset:0;stroke-width:0.2;"/>
     </g>
     <g id="line2d_134">
      <g>
       <use style="stroke:#000000;stroke-width:0.6;" x="90" xlink:href="#m9e7e1c2557" y="371.262517"/>
      </g>
     </g>
     <g id="line2d_135">
      <g>
       <use style="stroke:#000000;stroke-width:0.6;" x="648" xlink:href="#m4d418c4c5e" y="371.262517"/>
      </g>
     </g>
    </g>
    <g id="ytick_11">
     <g id="line2d_136">
      <path clip-path="url(#p0657669206)" d="M 90 349.233377 
L 648 349.233377 
" style="fill:none;stroke:#808080;stroke-dasharray:0.74,0.32;stroke-dashoffset:0;stroke-width:0.2;"/>
     </g>
     <g id="line2d_137">
      <g>
       <use style="stroke:#000000;stroke-width:0.6;" x="90" xlink:href="#m9e7e1c2557" y="349.233377"/>
      </g>
     </g>
     <g id="line2d_138">
      <g>
       <use style="stroke:#000000;stroke-width:0.6;" x="648" xlink:href="#m4d418c4c5e" y="349.233377"/>
      </g>
     </g>
    </g>
    <g id="ytick_12">
     <g id="line2d_139">
      <path clip-path="url(#p0657669206)" d="M 90 338.218808 
L 648 338.218808 
" style="fill:none;stroke:#808080;stroke-dasharray:0.74,0.32;stroke-dashoffset:0;stroke-width:0.2;"/>
     </g>
     <g id="line2d_140">
      <g>
       <use style="stroke:#000000;stroke-width:0.6;" x="90" xlink:href="#m9e7e1c2557" y="338.218808"/>
      </g>
     </g>
     <g id="line2d_141">
      <g>
       <use style="stroke:#000000;stroke-width:0.6;" x="648" xlink:href="#m4d418c4c5e" y="338.218808"/>
      </g>
     </g>
    </g>
    <g id="ytick_13">
     <g id="line2d_142">
      <path clip-path="url(#p0657669206)" d="M 90 327.204238 
L 648 327.204238 
" style="fill:none;stroke:#808080;stroke-dasharray:0.74,0.32;stroke-dashoffset:0;stroke-width:0.2;"/>
     </g>
     <g id="line2d_143">
      <g>
       <use style="stroke:#000000;stroke-width:0.6;" x="90" xlink:href="#m9e7e1c2557" y="327.204238"/>
      </g>
     </g>
     <g id="line2d_144">
      <g>
       <use style="stroke:#000000;stroke-width:0.6;" x="648" xlink:href="#m4d418c4c5e" y="327.204238"/>
      </g>
     </g>
    </g>
    <g id="ytick_14">
     <g id="line2d_145">
      <path clip-path="url(#p0657669206)" d="M 90 305.175099 
L 648 305.175099 
" style="fill:none;stroke:#808080;stroke-dasharray:0.74,0.32;stroke-dashoffset:0;stroke-width:0.2;"/>
     </g>
     <g id="line2d_146">
      <g>
       <use style="stroke:#000000;stroke-width:0.6;" x="90" xlink:href="#m9e7e1c2557" y="305.175099"/>
      </g>
     </g>
     <g id="line2d_147">
      <g>
       <use style="stroke:#000000;stroke-width:0.6;" x="648" xlink:href="#m4d418c4c5e" y="305.175099"/>
      </g>
     </g>
    </g>
    <g id="ytick_15">
     <g id="line2d_148">
      <path clip-path="url(#p0657669206)" d="M 90 294.16053 
L 648 294.16053 
" style="fill:none;stroke:#808080;stroke-dasharray:0.74,0.32;stroke-dashoffset:0;stroke-width:0.2;"/>
     </g>
     <g id="line2d_149">
      <g>
       <use style="stroke:#000000;stroke-width:0.6;" x="90" xlink:href="#m9e7e1c2557" y="294.16053"/>
      </g>
     </g>
     <g id="line2d_150">
      <g>
       <use style="stroke:#000000;stroke-width:0.6;" x="648" xlink:href="#m4d418c4c5e" y="294.16053"/>
      </g>
     </g>
    </g>
    <g id="ytick_16">
     <g id="line2d_151">
      <path clip-path="url(#p0657669206)" d="M 90 283.14596 
L 648 283.14596 
" style="fill:none;stroke:#808080;stroke-dasharray:0.74,0.32;stroke-dashoffset:0;stroke-width:0.2;"/>
     </g>
     <g id="line2d_152">
      <g>
       <use style="stroke:#000000;stroke-width:0.6;" x="90" xlink:href="#m9e7e1c2557" y="283.14596"/>
      </g>
     </g>
     <g id="line2d_153">
      <g>
       <use style="stroke:#000000;stroke-width:0.6;" x="648" xlink:href="#m4d418c4c5e" y="283.14596"/>
      </g>
     </g>
    </g>
    <g id="ytick_17">
     <g id="line2d_154">
      <path clip-path="url(#p0657669206)" d="M 90 261.116821 
L 648 261.116821 
" style="fill:none;stroke:#808080;stroke-dasharray:0.74,0.32;stroke-dashoffset:0;stroke-width:0.2;"/>
     </g>
     <g id="line2d_155">
      <g>
       <use style="stroke:#000000;stroke-width:0.6;" x="90" xlink:href="#m9e7e1c2557" y="261.116821"/>
      </g>
     </g>
     <g id="line2d_156">
      <g>
       <use style="stroke:#000000;stroke-width:0.6;" x="648" xlink:href="#m4d418c4c5e" y="261.116821"/>
      </g>
     </g>
    </g>
    <g id="ytick_18">
     <g id="line2d_157">
      <path clip-path="url(#p0657669206)" d="M 90 250.102252 
L 648 250.102252 
" style="fill:none;stroke:#808080;stroke-dasharray:0.74,0.32;stroke-dashoffset:0;stroke-width:0.2;"/>
     </g>
     <g id="line2d_158">
      <g>
       <use style="stroke:#000000;stroke-width:0.6;" x="90" xlink:href="#m9e7e1c2557" y="250.102252"/>
      </g>
     </g>
     <g id="line2d_159">
      <g>
       <use style="stroke:#000000;stroke-width:0.6;" x="648" xlink:href="#m4d418c4c5e" y="250.102252"/>
      </g>
     </g>
    </g>
    <g id="ytick_19">
     <g id="line2d_160">
      <path clip-path="url(#p0657669206)" d="M 90 239.087682 
L 648 239.087682 
" style="fill:none;stroke:#808080;stroke-dasharray:0.74,0.32;stroke-dashoffset:0;stroke-width:0.2;"/>
     </g>
     <g id="line2d_161">
      <g>
       <use style="stroke:#000000;stroke-width:0.6;" x="90" xlink:href="#m9e7e1c2557" y="239.087682"/>
      </g>
     </g>
     <g id="line2d_162">
      <g>
       <use style="stroke:#000000;stroke-width:0.6;" x="648" xlink:href="#m4d418c4c5e" y="239.087682"/>
      </g>
     </g>
    </g>
    <g id="ytick_20">
     <g id="line2d_163">
      <path clip-path="url(#p0657669206)" d="M 90 217.058543 
L 648 217.058543 
" style="fill:none;stroke:#808080;stroke-dasharray:0.74,0.32;stroke-dashoffset:0;stroke-width:0.2;"/>
     </g>
     <g id="line2d_164">
      <g>
       <use style="stroke:#000000;stroke-width:0.6;" x="90" xlink:href="#m9e7e1c2557" y="217.058543"/>
      </g>
     </g>
     <g id="line2d_165">
      <g>
       <use style="stroke:#000000;stroke-width:0.6;" x="648" xlink:href="#m4d418c4c5e" y="217.058543"/>
      </g>
     </g>
    </g>
    <g id="ytick_21">
     <g id="line2d_166">
      <path clip-path="url(#p0657669206)" d="M 90 206.043974 
L 648 206.043974 
" style="fill:none;stroke:#808080;stroke-dasharray:0.74,0.32;stroke-dashoffset:0;stroke-width:0.2;"/>
     </g>
     <g id="line2d_167">
      <g>
       <use style="stroke:#000000;stroke-width:0.6;" x="90" xlink:href="#m9e7e1c2557" y="206.043974"/>
      </g>
     </g>
     <g id="line2d_168">
      <g>
       <use style="stroke:#000000;stroke-width:0.6;" x="648" xlink:href="#m4d418c4c5e" y="206.043974"/>
      </g>
     </g>
    </g>
    <g id="ytick_22">
     <g id="line2d_169">
      <path clip-path="url(#p0657669206)" d="M 90 195.029404 
L 648 195.029404 
" style="fill:none;stroke:#808080;stroke-dasharray:0.74,0.32;stroke-dashoffset:0;stroke-width:0.2;"/>
     </g>
     <g id="line2d_170">
      <g>
       <use style="stroke:#000000;stroke-width:0.6;" x="90" xlink:href="#m9e7e1c2557" y="195.029404"/>
      </g>
     </g>
     <g id="line2d_171">
      <g>
       <use style="stroke:#000000;stroke-width:0.6;" x="648" xlink:href="#m4d418c4c5e" y="195.029404"/>
      </g>
     </g>
    </g>
    <g id="ytick_23">
     <g id="line2d_172">
      <path clip-path="url(#p0657669206)" d="M 90 173.000265 
L 648 173.000265 
" style="fill:none;stroke:#808080;stroke-dasharray:0.74,0.32;stroke-dashoffset:0;stroke-width:0.2;"/>
     </g>
     <g id="line2d_173">
      <g>
       <use style="stroke:#000000;stroke-width:0.6;" x="90" xlink:href="#m9e7e1c2557" y="173.000265"/>
      </g>
     </g>
     <g id="line2d_174">
      <g>
       <use style="stroke:#000000;stroke-width:0.6;" x="648" xlink:href="#m4d418c4c5e" y="173.000265"/>
      </g>
     </g>
    </g>
    <g id="ytick_24">
     <g id="line2d_175">
      <path clip-path="url(#p0657669206)" d="M 90 161.985695 
L 648 161.985695 
" style="fill:none;stroke:#808080;stroke-dasharray:0.74,0.32;stroke-dashoffset:0;stroke-width:0.2;"/>
     </g>
     <g id="line2d_176">
      <g>
       <use style="stroke:#000000;stroke-width:0.6;" x="90" xlink:href="#m9e7e1c2557" y="161.985695"/>
      </g>
     </g>
     <g id="line2d_177">
      <g>
       <use style="stroke:#000000;stroke-width:0.6;" x="648" xlink:href="#m4d418c4c5e" y="161.985695"/>
      </g>
     </g>
    </g>
    <g id="ytick_25">
     <g id="line2d_178">
      <path clip-path="url(#p0657669206)" d="M 90 150.971126 
L 648 150.971126 
" style="fill:none;stroke:#808080;stroke-dasharray:0.74,0.32;stroke-dashoffset:0;stroke-width:0.2;"/>
     </g>
     <g id="line2d_179">
      <g>
       <use style="stroke:#000000;stroke-width:0.6;" x="90" xlink:href="#m9e7e1c2557" y="150.971126"/>
      </g>
     </g>
     <g id="line2d_180">
      <g>
       <use style="stroke:#000000;stroke-width:0.6;" x="648" xlink:href="#m4d418c4c5e" y="150.971126"/>
      </g>
     </g>
    </g>
    <g id="ytick_26">
     <g id="line2d_181">
      <path clip-path="url(#p0657669206)" d="M 90 128.941987 
L 648 128.941987 
" style="fill:none;stroke:#808080;stroke-dasharray:0.74,0.32;stroke-dashoffset:0;stroke-width:0.2;"/>
     </g>
     <g id="line2d_182">
      <g>
       <use style="stroke:#000000;stroke-width:0.6;" x="90" xlink:href="#m9e7e1c2557" y="128.941987"/>
      </g>
     </g>
     <g id="line2d_183">
      <g>
       <use style="stroke:#000000;stroke-width:0.6;" x="648" xlink:href="#m4d418c4c5e" y="128.941987"/>
      </g>
     </g>
    </g>
    <g id="ytick_27">
     <g id="line2d_184">
      <path clip-path="url(#p0657669206)" d="M 90 117.927417 
L 648 117.927417 
" style="fill:none;stroke:#808080;stroke-dasharray:0.74,0.32;stroke-dashoffset:0;stroke-width:0.2;"/>
     </g>
     <g id="line2d_185">
      <g>
       <use style="stroke:#000000;stroke-width:0.6;" x="90" xlink:href="#m9e7e1c2557" y="117.927417"/>
      </g>
     </g>
     <g id="line2d_186">
      <g>
       <use style="stroke:#000000;stroke-width:0.6;" x="648" xlink:href="#m4d418c4c5e" y="117.927417"/>
      </g>
     </g>
    </g>
    <g id="ytick_28">
     <g id="line2d_187">
      <path clip-path="url(#p0657669206)" d="M 90 106.912848 
L 648 106.912848 
" style="fill:none;stroke:#808080;stroke-dasharray:0.74,0.32;stroke-dashoffset:0;stroke-width:0.2;"/>
     </g>
     <g id="line2d_188">
      <g>
       <use style="stroke:#000000;stroke-width:0.6;" x="90" xlink:href="#m9e7e1c2557" y="106.912848"/>
      </g>
     </g>
     <g id="line2d_189">
      <g>
       <use style="stroke:#000000;stroke-width:0.6;" x="648" xlink:href="#m4d418c4c5e" y="106.912848"/>
      </g>
     </g>
    </g>
    <g id="ytick_29">
     <g id="line2d_190">
      <path clip-path="url(#p0657669206)" d="M 90 84.883709 
L 648 84.883709 
" style="fill:none;stroke:#808080;stroke-dasharray:0.74,0.32;stroke-dashoffset:0;stroke-width:0.2;"/>
     </g>
     <g id="line2d_191">
      <g>
       <use style="stroke:#000000;stroke-width:0.6;" x="90" xlink:href="#m9e7e1c2557" y="84.883709"/>
      </g>
     </g>
     <g id="line2d_192">
      <g>
       <use style="stroke:#000000;stroke-width:0.6;" x="648" xlink:href="#m4d418c4c5e" y="84.883709"/>
      </g>
     </g>
    </g>
    <g id="ytick_30">
     <g id="line2d_193">
      <path clip-path="url(#p0657669206)" d="M 90 73.869139 
L 648 73.869139 
" style="fill:none;stroke:#808080;stroke-dasharray:0.74,0.32;stroke-dashoffset:0;stroke-width:0.2;"/>
     </g>
     <g id="line2d_194">
      <g>
       <use style="stroke:#000000;stroke-width:0.6;" x="90" xlink:href="#m9e7e1c2557" y="73.869139"/>
      </g>
     </g>
     <g id="line2d_195">
      <g>
       <use style="stroke:#000000;stroke-width:0.6;" x="648" xlink:href="#m4d418c4c5e" y="73.869139"/>
      </g>
     </g>
    </g>
    <g id="ytick_31">
     <g id="line2d_196">
      <path clip-path="url(#p0657669206)" d="M 90 62.85457 
L 648 62.85457 
" style="fill:none;stroke:#808080;stroke-dasharray:0.74,0.32;stroke-dashoffset:0;stroke-width:0.2;"/>
     </g>
     <g id="line2d_197">
      <g>
       <use style="stroke:#000000;stroke-width:0.6;" x="90" xlink:href="#m9e7e1c2557" y="62.85457"/>
      </g>
     </g>
     <g id="line2d_198">
      <g>
       <use style="stroke:#000000;stroke-width:0.6;" x="648" xlink:href="#m4d418c4c5e" y="62.85457"/>
      </g>
     </g>
    </g>
    <g id="text_19">
     <!-- RMSE (x0.01 Mag) -->
     <g transform="translate(60.066958 280.746719)rotate(-90)scale(0.15 -0.15)">
      <defs>
       <path d="M 2509 2146 
C 3117 2268 3629 2676 3629 3186 
C 3629 3785 2950 4326 2054 4326 
L 333 4326 
L 333 4160 
C 774 4160 845 4160 845 3873 
L 845 415 
C 845 128 774 128 333 128 
L 333 -26 
C 518 -26 851 -26 1050 -26 
C 1248 -26 1581 -26 1766 -26 
L 1766 128 
C 1325 128 1254 128 1254 417 
L 1254 2112 
L 2003 2112 
C 2368 2112 2573 1964 2662 1881 
C 2918 1632 2918 1459 2918 1024 
C 2918 595 2918 377 3110 160 
C 3354 -102 3680 -128 3821 -128 
C 4294 -128 4365 396 4365 503 
C 4365 540 4365 585 4307 585 
C 4256 585 4250 547 4250 522 
C 4218 112 4032 -26 3834 -26 
C 3482 -26 3443 375 3405 764 
C 3386 898 3373 993 3360 1133 
C 3322 1452 3270 1917 2509 2146 
z
M 1984 2214 
L 1254 2214 
L 1254 3913 
C 1254 4129 1267 4160 1523 4160 
L 1990 4160 
C 2522 4160 3142 3977 3142 3190 
C 3142 2372 2464 2214 1984 2214 
z
" id="CMR17-52" transform="scale(0.015625)"/>
       <path d="M 1338 4224 
C 1299 4320 1293 4320 1158 4320 
L 339 4320 
L 339 4160 
C 781 4160 851 4160 851 3875 
L 851 610 
C 851 451 851 153 339 153 
L 339 -13 
C 486 0 755 0 915 0 
C 1075 0 1344 0 1491 -13 
L 1491 153 
C 979 153 979 451 979 610 
L 979 4135 
L 986 4135 
L 2490 89 
C 2515 25 2528 -13 2579 -13 
C 2630 -13 2643 25 2669 89 
L 4186 4166 
L 4192 4166 
L 4192 438 
C 4192 153 4122 153 3680 153 
L 3680 -13 
C 3853 0 4198 0 4384 0 
C 4570 0 4922 0 5094 -13 
L 5094 153 
C 4653 153 4582 153 4582 438 
L 4582 3875 
C 4582 4160 4653 4160 5094 4160 
L 5094 4320 
L 4282 4320 
C 4147 4320 4141 4314 4102 4218 
L 2720 502 
L 1338 4224 
z
" id="CMR17-4d" transform="scale(0.015625)"/>
       <path d="M 2803 4290 
C 2803 4404 2797 4411 2758 4411 
C 2720 4411 2707 4385 2682 4328 
L 2490 3907 
C 2246 4257 1875 4416 1472 4416 
C 819 4416 294 3901 294 3253 
C 294 3056 339 2776 557 2510 
C 794 2218 1018 2167 1530 2033 
C 1722 1982 2042 1899 2106 1874 
C 2470 1722 2662 1341 2662 985 
C 2662 527 2336 38 1779 38 
C 1094 38 454 419 410 1311 
C 403 1413 397 1419 352 1419 
C 301 1419 294 1413 294 1285 
L 294 -1 
C 294 -115 301 -122 339 -122 
C 384 -122 397 -90 486 108 
C 493 127 493 140 614 381 
C 934 -39 1472 -128 1779 -128 
C 2477 -128 2970 451 2970 1124 
C 2970 1454 2848 1708 2778 1823 
C 2509 2230 2221 2306 1914 2382 
C 1869 2402 1856 2402 1498 2490 
C 1152 2579 1005 2624 845 2796 
C 666 2992 602 3196 602 3399 
C 602 3812 934 4263 1478 4263 
C 2157 4263 2579 3786 2675 2993 
C 2694 2878 2701 2872 2746 2872 
C 2803 2872 2803 2891 2803 2999 
L 2803 4290 
z
" id="CMR17-53" transform="scale(0.015625)"/>
       <path d="M 3885 1615 
L 3770 1615 
C 3629 676 3546 166 2419 166 
L 1530 166 
C 1274 166 1261 197 1261 414 
L 1261 2176 
L 1862 2176 
C 2464 2176 2522 1960 2522 1430 
L 2637 1430 
L 2637 3081 
L 2522 3081 
C 2522 2557 2464 2342 1862 2342 
L 1261 2342 
L 1261 3913 
C 1261 4128 1274 4160 1530 4160 
L 2406 4160 
C 3398 4160 3514 3769 3603 2929 
L 3718 2929 
L 3565 4325 
L 326 4325 
L 326 4160 
C 768 4160 838 4160 838 3874 
L 838 451 
C 838 166 768 166 326 166 
L 326 0 
L 3654 0 
L 3885 1615 
z
" id="CMR17-45" transform="scale(0.015625)"/>
       <path d="M 1958 -1561 
C 1958 -1555 1958 -1542 1939 -1523 
C 1645 -1224 858 -407 858 1581 
C 858 3569 1632 4379 1946 4697 
C 1946 4704 1958 4717 1958 4736 
C 1958 4755 1939 4768 1914 4768 
C 1843 4768 1299 4296 986 3594 
C 666 2887 576 2199 576 1588 
C 576 1128 621 351 1005 -471 
C 1312 -1135 1837 -1600 1914 -1600 
C 1946 -1600 1958 -1587 1958 -1561 
z
" id="CMR17-28" transform="scale(0.015625)"/>
       <path d="M 1664 1477 
C 1856 1726 2074 2006 2253 2216 
C 2464 2458 2707 2560 2989 2560 
L 2989 2726 
C 2880 2726 2656 2726 2541 2726 
C 2368 2726 2170 2726 2022 2732 
L 2022 2566 
C 2112 2553 2163 2489 2163 2400 
C 2163 2285 2099 2215 2067 2171 
L 1594 1573 
L 1030 2306 
C 973 2376 973 2388 973 2420 
C 973 2497 1037 2560 1146 2560 
L 1146 2732 
C 992 2726 717 2726 557 2726 
C 384 2726 179 2726 38 2732 
L 38 2560 
C 384 2560 461 2534 614 2343 
L 1350 1395 
C 1363 1382 1395 1344 1395 1325 
C 1395 1299 838 619 768 530 
C 480 185 179 160 6 160 
L 6 0 
C 115 0 339 0 454 0 
C 582 0 864 0 979 -6 
L 979 160 
C 941 166 838 179 838 325 
C 838 440 890 510 947 586 
L 1478 1236 
L 2035 512 
C 2086 442 2163 346 2163 301 
C 2163 211 2086 160 1984 160 
L 1984 -6 
C 2138 0 2413 0 2573 0 
C 2746 0 2950 0 3091 -6 
L 3091 160 
C 2771 160 2675 172 2522 370 
L 1664 1477 
z
" id="CMR17-78" transform="scale(0.015625)"/>
       <path d="M 1062 261 
C 1062 420 934 522 800 522 
C 672 522 538 420 538 261 
C 538 102 666 0 800 0 
C 928 0 1062 102 1062 261 
z
" id="CMR17-2e" transform="scale(0.015625)"/>
       <path d="M 2304 1653 
C 2304 2072 2304 2294 2035 2543 
C 1798 2752 1523 2816 1306 2816 
C 800 2816 435 2407 435 1971 
C 435 1728 627 1728 666 1728 
C 749 1728 896 1778 896 1954 
C 896 2112 774 2181 666 2181 
C 640 2181 608 2174 589 2168 
C 723 2592 1069 2714 1293 2714 
C 1613 2714 1965 2429 1965 1885 
L 1965 1600 
C 1587 1600 1133 1549 774 1357 
C 371 1133 256 813 256 570 
C 256 77 832 -64 1171 -64 
C 1523 -64 1850 139 1990 511 
C 2003 233 2182 -18 2464 -18 
C 2598 -18 2938 70 2938 567 
L 2938 920 
L 2822 920 
L 2822 562 
C 2822 178 2650 128 2566 128 
C 2304 128 2304 458 2304 738 
L 2304 1653 
z
M 1965 870 
C 1965 317 1568 38 1216 38 
C 896 38 646 275 646 570 
C 646 761 730 1100 1101 1305 
C 1408 1478 1760 1504 1965 1504 
L 1965 870 
z
" id="CMR17-61" transform="scale(0.015625)"/>
       <path d="M 710 1164 
C 832 1068 1043 960 1299 960 
C 1805 960 2240 1357 2240 1888 
C 2240 2054 2189 2310 1997 2509 
C 2176 2692 2438 2752 2586 2752 
C 2611 2752 2650 2752 2682 2734 
C 2656 2728 2598 2703 2598 2605 
C 2598 2527 2656 2471 2739 2471 
C 2835 2471 2886 2533 2886 2614 
C 2886 2731 2790 2854 2586 2854 
C 2330 2854 2106 2738 1926 2580 
C 1734 2753 1504 2816 1299 2816 
C 794 2816 358 2419 358 1888 
C 358 1522 570 1292 634 1228 
C 442 1004 442 743 442 711 
C 442 545 506 302 723 168 
C 390 85 128 -169 128 -486 
C 128 -943 736 -1280 1466 -1280 
C 2170 -1280 2803 -956 2803 -479 
C 2803 384 1856 384 1363 384 
C 1216 384 954 384 922 391 
C 723 423 589 602 589 826 
C 589 883 589 1024 710 1164 
z
M 1299 1068 
C 736 1068 736 1760 736 1889 
C 736 2016 736 2708 1299 2708 
C 1862 2708 1862 2016 1862 1889 
C 1862 1760 1862 1068 1299 1068 
z
M 1466 -1171 
C 826 -1171 384 -835 384 -486 
C 384 -289 493 -105 634 -4 
C 794 104 858 104 1293 104 
C 1818 104 2547 104 2547 -486 
C 2547 -835 2106 -1171 1466 -1171 
z
" id="CMR17-67" transform="scale(0.015625)"/>
       <path d="M 1683 1581 
C 1683 2040 1638 2817 1254 3639 
C 947 4303 422 4768 346 4768 
C 326 4768 301 4761 301 4729 
C 301 4717 307 4710 314 4697 
C 621 4378 1402 3568 1402 1584 
C 1402 -407 627 -1217 314 -1537 
C 307 -1549 301 -1556 301 -1568 
C 301 -1600 326 -1600 346 -1600 
C 416 -1600 960 -1128 1274 -426 
C 1594 281 1683 969 1683 1581 
z
" id="CMR17-29" transform="scale(0.015625)"/>
      </defs>
      <use transform="scale(0.996264)" xlink:href="#CMR17-52"/>
      <use transform="translate(67.791102 0)scale(0.996264)" xlink:href="#CMR17-4d"/>
      <use transform="translate(152.478043 0)scale(0.996264)" xlink:href="#CMR17-53"/>
      <use transform="translate(203.373412 0)scale(0.996264)" xlink:href="#CMR17-45"/>
      <use transform="translate(296.035679 0)scale(0.996264)" xlink:href="#CMR17-28"/>
      <use transform="translate(331.316447 0)scale(0.996264)" xlink:href="#CMR17-78"/>
      <use transform="translate(379.609363 0)scale(0.996264)" xlink:href="#CMR17-30"/>
      <use transform="translate(425.29984 0)scale(0.996264)" xlink:href="#CMR17-2e"/>
      <use transform="translate(450.170898 0)scale(0.996264)" xlink:href="#CMR17-30"/>
      <use transform="translate(495.861376 0)scale(0.996264)" xlink:href="#CMR17-31"/>
      <use transform="translate(571.627819 0)scale(0.996264)" xlink:href="#CMR17-4d"/>
      <use transform="translate(656.31476 0)scale(0.996264)" xlink:href="#CMR17-61"/>
      <use transform="translate(702.005237 0)scale(0.996264)" xlink:href="#CMR17-67"/>
      <use transform="translate(747.695714 0)scale(0.996264)" xlink:href="#CMR17-29"/>
     </g>
    </g>
   </g>
   <g id="line2d_199">
    <path clip-path="url(#p0657669206)" d="M 90 90.355747 
L 90.42408 90.308164 
L 90.8556 89.660287 
L 91.70376 87.571484 
L 92.55936 84.760125 
L 93.40752 81.819015 
L 93.83904 81.02905 
L 94.26312 80.981467 
L 94.6872 81.565459 
L 95.5428 82.983916 
L 95.96688 82.902628 
L 96.39096 82.032257 
L 97.67064 77.686128 
L 98.10216 76.980755 
L 98.52624 76.964674 
L 98.95032 77.53655 
L 99.80592 79.576008 
L 101.0856 83.150236 
L 101.93376 85.650543 
L 102.35784 86.375522 
L 102.78936 86.377725 
L 103.21344 85.578287 
L 104.49312 81.312124 
L 104.9172 81.268947 
L 105.34128 83.114769 
L 105.7728 87.371239 
L 106.19688 94.262174 
L 107.05248 115.656433 
L 108.33216 161.355442 
L 109.18032 189.863351 
L 109.6044 198.504501 
L 110.03592 201.13522 
L 110.46 197.021719 
L 110.88408 186.660314 
L 111.73968 154.099924 
L 112.58784 119.757598 
L 113.44344 94.555602 
L 113.86752 86.042001 
L 114.29904 79.845645 
L 114.72312 75.630809 
L 115.1472 73.16685 
L 115.57872 72.276432 
L 116.0028 72.746534 
L 116.42688 74.268968 
L 117.70656 80.608734 
L 118.13064 81.801171 
L 118.56216 82.082043 
L 118.98624 81.442537 
L 119.41032 80.051176 
L 120.26592 76.53841 
L 120.69 75.382541 
L 121.11408 75.117751 
L 121.5456 75.854625 
L 121.96968 77.553953 
L 122.39376 80.121229 
L 123.24936 87.217696 
L 124.09752 94.541283 
L 124.52904 96.859189 
L 124.95312 97.504423 
L 125.3772 96.248982 
L 126.65688 87.011503 
L 127.08096 86.056099 
L 127.51248 87.977701 
L 127.93656 93.06445 
L 128.79216 110.292558 
L 129.64032 128.626089 
L 130.0644 135.1661 
L 130.49592 138.972294 
L 130.92 139.740891 
L 131.34408 137.434 
L 131.7756 132.291297 
L 132.62376 116.037978 
L 133.90344 89.912961 
L 134.32752 83.529577 
L 134.75904 78.885394 
L 135.18312 76.10752 
L 135.6072 75.279224 
L 136.03872 76.473204 
L 136.4628 79.725586 
L 136.88688 84.991431 
L 137.74248 101.059705 
L 138.59064 123.68297 
L 140.72592 186.508974 
L 141.15 191.797289 
L 141.57408 192.294707 
L 142.0056 188.034491 
L 142.42968 179.769379 
L 144.98904 114.577226 
L 146.26128 92.353569 
L 147.11688 80.059768 
L 147.54096 75.991867 
L 147.97248 74.16433 
L 148.39656 75.072371 
L 148.82064 78.959853 
L 149.25216 85.757164 
L 150.10032 106.216947 
L 151.38 140.429522 
L 151.80408 148.048961 
L 152.2356 151.891503 
L 152.65968 151.383071 
L 153.08376 146.659583 
L 153.93936 128.650762 
L 154.78752 109.255206 
L 155.21904 102.28034 
L 155.64312 98.007128 
L 156.0672 96.455615 
L 156.49128 97.152617 
L 157.77096 103.305356 
L 158.20248 103.514412 
L 158.62656 101.91708 
L 159.05064 98.652361 
L 160.33032 85.858718 
L 160.7544 83.461067 
L 161.18592 82.842048 
L 161.61 83.831817 
L 163.31376 91.859676 
L 163.73784 92.489049 
L 164.16936 92.391459 
L 164.59344 91.77178 
L 165.44904 89.776821 
L 166.72128 86.611013 
L 167.57688 85.183085 
L 168.43248 84.091541 
L 169.28064 82.362253 
L 169.71216 81.470514 
L 170.13624 81.162987 
L 170.56032 82.172582 
L 170.9844 85.355132 
L 171.41592 91.578805 
L 171.84 101.614619 
L 172.26408 116.038859 
L 172.6956 135.146934 
L 173.54376 186.664499 
L 175.24752 308.041971 
L 175.67904 328.371122 
L 176.10312 338.685385 
L 176.5272 336.961164 
L 176.95128 323.056812 
L 177.3828 298.97676 
L 179.51064 148.995332 
L 180.36624 114.71667 
L 181.2144 94.902561 
L 182.07 83.021145 
L 182.49408 78.87482 
L 182.9256 75.748665 
L 183.34968 73.653033 
L 183.77376 72.59982 
L 184.19784 72.549814 
L 184.62936 73.403002 
L 185.05344 75.005622 
L 185.90904 79.613457 
L 186.7572 84.22702 
L 187.18128 85.769941 
L 187.6128 86.493598 
L 188.03688 86.323093 
L 188.46096 85.344338 
L 189.74064 80.635609 
L 190.17216 79.946097 
L 190.59624 80.417521 
L 191.02032 82.308502 
L 191.4444 85.666845 
L 192.3 95.788573 
L 193.1556 106.947654 
L 193.57968 111.370444 
L 194.00376 114.346801 
L 194.42784 115.591227 
L 194.85936 115.048209 
L 195.28344 112.930327 
L 196.56312 103.545473 
L 196.9872 102.48477 
L 197.41872 103.852119 
L 197.8428 107.962536 
L 198.26688 114.614675 
L 199.97064 148.679875 
L 200.40216 153.421868 
L 200.82624 155.01127 
L 201.25032 153.329565 
L 201.6744 148.6834 
L 202.53 133.067163 
L 204.23376 96.305377 
L 205.08936 83.329773 
L 205.51344 79.061848 
L 205.93752 76.260843 
L 206.36904 74.772554 
L 206.79312 74.378893 
L 207.2172 74.867059 
L 207.64872 76.097386 
L 208.0728 78.054675 
L 208.49688 80.862069 
L 208.92096 84.755499 
L 209.35248 90.02531 
L 210.20064 105.643749 
L 211.05624 128.209077 
L 213.18408 194.122464 
L 213.6156 203.748978 
L 214.03968 210.657756 
L 214.46376 214.361295 
L 214.88784 214.560218 
L 215.31936 211.214873 
L 215.74344 204.595558 
L 216.59904 184.05713 
L 218.72688 125.321057 
L 219.58248 107.276549 
L 220.43064 92.955626 
L 221.28624 82.413141 
L 221.71032 78.748153 
L 222.1344 76.323405 
L 222.56592 75.274378 
L 222.99 75.708352 
L 223.41408 77.67225 
L 223.8456 81.125097 
L 224.69376 91.783676 
L 226.39752 117.056605 
L 226.82904 121.134199 
L 227.25312 123.360023 
L 227.6772 123.513346 
L 228.10128 121.607605 
L 228.5328 117.894594 
L 229.38096 106.969463 
L 230.23656 95.388524 
L 230.66064 90.772097 
L 231.09216 87.486231 
L 231.51624 85.744387 
L 231.94032 85.583354 
L 232.3644 86.872499 
L 232.79592 89.33756 
L 234.92376 104.960405 
L 235.34784 106.017143 
L 235.77936 105.852806 
L 236.20344 104.509909 
L 236.62752 102.178565 
L 238.7628 87.378509 
L 239.18688 85.736016 
L 239.61096 84.76365 
L 240.04248 84.391357 
L 240.46656 84.50701 
L 240.89064 84.974248 
L 242.17032 86.974935 
L 242.5944 87.380491 
L 243.02592 87.503854 
L 243.45 87.324537 
L 243.87408 86.866111 
L 244.72968 85.329138 
L 246.00936 82.215099 
L 248.1372 76.656045 
L 248.56128 75.994951 
L 248.9928 75.756816 
L 249.41688 76.096946 
L 249.84096 77.180559 
L 250.27248 79.185211 
L 250.69656 82.29925 
L 251.12064 86.717855 
L 251.55216 92.626731 
L 252.40032 109.440251 
L 253.25592 132.803034 
L 255.38376 199.583047 
L 255.80784 209.125409 
L 256.23936 215.944309 
L 256.66344 219.718121 
L 257.08752 220.346612 
L 257.51904 217.932219 
L 257.94312 212.730698 
L 258.3672 205.093636 
L 259.2228 184.181154 
L 261.78216 112.541733 
L 262.63032 96.938494 
L 263.48592 86.689878 
L 264.33408 80.498148 
L 265.18968 76.949694 
L 266.03784 74.919048 
L 266.89344 73.767144 
L 267.31752 73.449484 
L 267.74904 73.299906 
L 268.17312 73.316208 
L 268.5972 73.488035 
L 269.4528 74.20266 
L 270.73248 75.756375 
L 273.2844 79.250858 
L 274.14 80.622612 
L 274.9956 82.395958 
L 275.84376 84.857494 
L 277.12344 89.777262 
L 278.40312 94.721482 
L 279.25128 97.203284 
L 280.10688 98.892258 
L 280.96248 99.89172 
L 281.38656 100.126331 
L 281.81064 100.146598 
L 282.24216 99.919477 
L 282.66624 99.432193 
L 283.5144 97.830234 
L 284.37 96.066801 
L 284.79408 95.432582 
L 285.2256 95.077472 
L 285.64968 95.021298 
L 286.07376 95.231676 
L 286.92936 96.14192 
L 287.77752 97.050182 
L 288.20904 97.26012 
L 288.63312 97.191829 
L 289.0572 96.773055 
L 289.48128 95.950047 
L 289.9128 94.697029 
L 290.76096 91.003844 
L 293.32032 78.08816 
L 294.17592 75.520664 
L 294.6 74.699638 
L 295.02408 74.249803 
L 295.4556 74.251785 
L 295.87968 74.795464 
L 296.30376 75.953316 
L 296.72784 77.755079 
L 297.58344 83.132612 
L 298.86312 94.053117 
L 302.70216 128.998602 
L 304.83 145.58412 
L 305.6856 150.651703 
L 306.10968 152.072362 
L 306.53376 152.314022 
L 306.95784 151.074663 
L 307.38936 148.162411 
L 307.81344 143.562726 
L 308.66904 130.279155 
L 310.3728 100.449719 
L 311.22096 89.850619 
L 312.07656 83.058154 
L 312.50064 80.863391 
L 312.93216 79.310116 
L 313.35624 78.286642 
L 313.78032 77.694499 
L 314.2044 77.449755 
L 314.63592 77.482138 
L 315.06 77.733931 
L 315.9156 78.721057 
L 317.18784 80.906568 
L 318.04344 82.361592 
L 318.46752 82.923996 
L 318.89904 83.311048 
L 319.32312 83.504905 
L 320.17872 83.443443 
L 321.02688 83.353344 
L 321.45096 83.552267 
L 321.88248 84.001442 
L 322.73064 85.591505 
L 323.58624 87.480944 
L 324.01032 88.201517 
L 324.4344 88.604871 
L 324.86592 88.609717 
L 325.29 88.184335 
L 325.71408 87.350972 
L 326.56968 84.819163 
L 327.41784 82.180072 
L 327.84936 81.319834 
L 328.27344 81.041386 
L 328.69752 81.521181 
L 329.12904 82.885886 
L 329.55312 85.194319 
L 330.40872 92.457327 
L 332.53656 115.311016 
L 332.96064 117.991081 
L 333.39216 119.330453 
L 333.81624 119.208412 
L 334.24032 117.650511 
L 334.6644 114.831662 
L 335.52 106.693658 
L 336.79968 93.92689 
L 337.64784 88.220242 
L 338.07936 86.45725 
L 338.50344 85.336407 
L 338.92752 84.734351 
L 339.35904 84.509434 
L 339.78312 84.520668 
L 341.0628 84.856833 
L 341.91096 84.739858 
L 344.8944 83.444104 
L 345.32592 83.125563 
L 345.75 82.617571 
L 346.6056 80.901501 
L 347.87784 77.491831 
L 348.30936 76.732927 
L 348.73344 76.465934 
L 349.15752 76.823467 
L 349.58904 77.864564 
L 350.01312 79.559486 
L 350.86128 84.374395 
L 352.14096 91.918714 
L 352.57248 93.705277 
L 352.99656 94.96997 
L 353.42064 95.775356 
L 354.27624 96.82174 
L 354.70032 97.692552 
L 355.1244 99.285258 
L 355.55592 101.947039 
L 355.98 105.951496 
L 356.40408 111.464949 
L 357.25968 127.0466 
L 358.53936 158.662379 
L 359.81904 189.641737 
L 360.24312 196.950125 
L 360.6672 201.602899 
L 361.09872 203.012984 
L 361.5228 200.80236 
L 361.94688 194.909786 
L 362.37096 185.652701 
L 363.22656 160.018273 
L 364.50624 118.379896 
L 365.3544 97.155481 
L 366.21 83.268532 
L 366.63408 78.746831 
L 367.0656 75.516258 
L 367.48968 73.327002 
L 367.91376 71.957891 
L 368.33784 71.230489 
L 368.76936 71.011299 
L 369.19344 71.209121 
L 369.61752 71.766237 
L 370.04904 72.649165 
L 370.8972 75.297288 
L 372.17688 80.81757 
L 373.03248 84.46141 
L 373.45656 85.88251 
L 373.88064 86.871178 
L 374.31216 87.344584 
L 374.73624 87.27365 
L 375.16032 86.69142 
L 376.01592 84.43079 
L 376.86408 81.85338 
L 377.2956 80.91604 
L 377.71968 80.418182 
L 378.14376 80.449904 
L 378.56784 81.033235 
L 378.99936 82.116628 
L 381.1272 89.203182 
L 381.55872 89.520402 
L 381.9828 89.155159 
L 382.40688 88.147105 
L 384.11064 82.39772 
L 384.54216 82.377674 
L 384.96624 83.68995 
L 385.39032 86.589865 
L 385.8144 91.195277 
L 386.67 105.218807 
L 389.22936 158.246249 
L 389.65344 163.212058 
L 390.07752 165.847624 
L 390.50904 165.938163 
L 390.93312 163.451294 
L 391.3572 158.557521 
L 392.2128 143.211802 
L 393.91656 107.789387 
L 394.34064 101.318988 
L 394.77216 96.452531 
L 395.19624 93.234515 
L 395.62032 91.581228 
L 396.0444 91.319301 
L 396.47592 92.223377 
L 396.9 94.048491 
L 397.7556 99.499822 
L 399.45936 111.910158 
L 400.30752 116.53055 
L 401.16312 119.405793 
L 401.5872 120.199723 
L 402.01128 120.584352 
L 402.4428 120.550207 
L 402.86688 120.053449 
L 403.29096 119.016978 
L 403.72248 117.346509 
L 404.14656 114.956347 
L 405.00216 107.899533 
L 406.2744 93.151905 
L 407.55408 79.202834 
L 407.9856 75.966754 
L 408.40968 73.724408 
L 408.83376 72.530649 
L 409.25784 72.359262 
L 409.68936 73.104948 
L 410.11344 74.594779 
L 412.24128 84.494454 
L 412.6728 85.292129 
L 413.09688 85.390819 
L 413.52096 84.855071 
L 414.80064 81.7928 
L 415.23216 81.481969 
L 415.65624 82.184919 
L 416.08032 84.228342 
L 416.5044 87.830106 
L 416.93592 93.071719 
L 417.78408 108.066293 
L 420.34344 161.686099 
L 420.76752 166.72967 
L 421.19904 169.588612 
L 421.62312 170.095503 
L 422.0472 168.221484 
L 422.47872 164.078243 
L 422.9028 157.911626 
L 423.75096 141.052726 
L 425.46216 103.155778 
L 426.31032 89.184237 
L 426.7344 84.263588 
L 427.16592 80.718219 
L 427.59 78.428069 
L 428.01408 77.210299 
L 428.4456 76.850563 
L 428.86968 77.126368 
L 429.29376 77.828657 
L 431.42904 82.476585 
L 432.2772 83.558436 
L 433.55688 84.928207 
L 434.41248 86.441169 
L 436.54032 91.22788 
L 436.9644 91.723756 
L 437.82 92.179319 
L 438.24408 92.393883 
L 438.6756 92.848564 
L 439.09968 93.747573 
L 439.52376 95.270007 
L 439.94784 97.542093 
L 440.37936 100.620444 
L 441.22752 109.054521 
L 442.5072 125.340002 
L 443.78688 140.924517 
L 444.21096 144.835129 
L 444.64248 147.705747 
L 445.06656 149.332819 
L 445.49064 149.567429 
L 445.92216 148.339745 
L 446.34624 145.685234 
L 447.1944 136.830842 
L 448.9056 115.535714 
L 449.32968 112.066785 
L 449.75376 110.047814 
L 450.17784 109.635429 
L 450.60936 110.846811 
L 451.03344 113.564987 
L 451.88904 122.487008 
L 453.5928 143.642692 
L 454.01688 147.36077 
L 454.44096 149.849402 
L 454.87248 150.932355 
L 455.29656 150.511157 
L 455.72064 148.56268 
L 456.15216 145.138691 
L 457.00032 134.442002 
L 459.98376 88.102166 
L 460.40784 84.526396 
L 460.83936 82.158704 
L 461.26344 80.917582 
L 461.68752 80.653012 
L 462.11904 81.171799 
L 462.54312 82.263122 
L 463.8228 87.033312 
L 464.67096 90.031258 
L 465.52656 92.183725 
L 465.95064 92.900773 
L 466.38216 93.39731 
L 466.80624 93.705498 
L 467.6544 93.915435 
L 468.51 93.822252 
L 469.3656 93.530146 
L 469.78968 93.255002 
L 470.21376 92.825874 
L 470.63784 92.179759 
L 471.06936 91.259602 
L 471.91752 88.484371 
L 472.77312 84.666722 
L 474.0528 78.867551 
L 474.47688 77.46826 
L 474.90096 76.513076 
L 475.33248 76.04694 
L 475.75656 76.067427 
L 476.18064 76.529598 
L 476.61216 77.355471 
L 477.46032 79.680426 
L 478.31592 82.121915 
L 478.74 83.096705 
L 479.16408 83.768814 
L 479.5956 84.052549 
L 480.01968 83.885348 
L 480.44376 83.235268 
L 480.86784 82.110681 
L 481.72344 78.710703 
L 483.00312 73.157157 
L 483.4272 72.15351 
L 483.85128 72.051735 
L 484.2828 73.12874 
L 484.70688 75.621337 
L 485.13096 79.705539 
L 485.56248 85.479377 
L 486.41064 102.066878 
L 487.26624 124.515892 
L 490.24968 214.549204 
L 491.09784 230.361279 
L 491.52936 234.67877 
L 491.95344 236.286457 
L 492.37752 235.090054 
L 492.80904 231.135824 
L 493.23312 224.620486 
L 494.08872 205.384641 
L 497.07216 125.0208 
L 497.92032 109.421306 
L 498.77592 97.861295 
L 499.62408 89.512031 
L 500.47968 83.61505 
L 501.32784 79.66853 
L 502.18344 77.369349 
L 502.60752 76.761565 
L 503.03904 76.471001 
L 503.46312 76.459546 
L 503.8872 76.684243 
L 504.7428 77.651983 
L 506.87064 80.860968 
L 507.72624 81.657761 
L 508.5744 81.972117 
L 509.43 81.904488 
L 510.2856 81.74742 
L 510.70968 81.767907 
L 511.13376 81.932245 
L 511.55784 82.294404 
L 511.98936 82.898002 
L 512.41344 83.772118 
L 513.26904 86.356797 
L 514.1172 89.907674 
L 516.25248 99.799198 
L 517.10064 102.428156 
L 517.53216 103.143882 
L 517.95624 103.388185 
L 518.38032 103.130665 
L 518.8044 102.365593 
L 519.23592 101.115659 
L 520.08408 97.40441 
L 522.21936 86.755745 
L 522.64344 85.614415 
L 523.06752 85.120962 
L 523.49904 85.351167 
L 523.92312 86.335649 
L 524.3472 88.057226 
L 525.2028 93.418678 
L 528.18624 116.776395 
L 528.61032 118.499294 
L 529.0344 119.438176 
L 529.46592 119.53995 
L 529.89 118.788316 
L 530.31408 117.205743 
L 530.7456 114.850828 
L 531.59376 108.228208 
L 534.15312 84.765192 
L 534.5772 82.280305 
L 535.00872 80.635609 
L 535.4328 79.936625 
L 535.85688 80.256047 
L 536.28096 81.63397 
L 536.71248 84.078323 
L 537.13656 87.567298 
L 537.99216 97.448909 
L 538.84032 110.57365 
L 540.54408 142.246926 
L 542.24784 172.689213 
L 543.10344 184.298129 
L 543.95904 192.057673 
L 544.38312 194.242964 
L 544.8072 195.210924 
L 545.23872 194.930934 
L 545.6628 193.404094 
L 546.08688 190.664771 
L 546.94248 181.850912 
L 547.79064 169.385724 
L 549.07032 146.611559 
L 550.77408 115.650706 
L 552.05376 96.581842 
L 552.90936 86.972732 
L 553.75752 80.0536 
L 554.61312 75.69161 
L 555.0372 74.36105 
L 555.46128 73.513368 
L 555.8928 73.073887 
L 556.31688 72.961539 
L 556.74096 73.093053 
L 557.59656 73.764721 
L 558.45216 74.510187 
L 559.30032 74.914642 
L 559.7244 74.918387 
L 560.15592 74.781806 
L 561.00408 74.153095 
L 562.70784 72.627797 
L 563.13936 72.53197 
L 563.56344 72.680887 
L 563.98752 73.133366 
L 564.41904 73.939192 
L 564.84312 75.134052 
L 565.69872 78.747272 
L 566.54688 83.893499 
L 567.82656 93.594691 
L 569.53032 106.751154 
L 570.38592 111.817415 
L 571.23408 115.096893 
L 571.6656 115.948319 
L 572.08968 116.239985 
L 572.51376 115.966604 
L 572.93784 115.13963 
L 573.36936 113.789684 
L 574.21752 109.731476 
L 575.07312 104.377073 
L 577.20096 90.474264 
L 578.05656 86.574665 
L 578.48064 85.20247 
L 578.91216 84.23429 
L 579.33624 83.662413 
L 579.76032 83.462609 
L 580.1844 83.596326 
L 580.61592 84.014439 
L 581.46408 85.465498 
L 583.59936 89.751487 
L 584.02344 90.28283 
L 584.44752 90.613708 
L 584.87904 90.72143 
L 585.30312 90.59256 
L 585.7272 90.223131 
L 586.15872 89.61733 
L 587.00688 87.760714 
L 588.28656 83.828072 
L 589.56624 79.713249 
L 590.4144 77.763671 
L 590.84592 77.254357 
L 591.27 77.155226 
L 591.69408 77.534788 
L 592.1256 78.453183 
L 592.54968 79.959976 
L 592.97376 82.092396 
L 593.82936 88.311002 
L 594.67752 97.118032 
L 595.53312 108.299141 
L 596.8128 128.595689 
L 599.79624 180.013902 
L 600.6444 191.224531 
L 601.5 198.803216 
L 601.92408 200.962292 
L 602.3556 201.949858 
L 602.77968 201.74697 
L 603.20376 200.370148 
L 603.62784 197.870722 
L 604.05936 194.330419 
L 604.90752 184.572833 
L 605.76312 172.140468 
L 609.17064 117.655357 
L 610.02624 107.162438 
L 610.8744 98.918914 
L 611.73 93.023475 
L 612.15408 90.927403 
L 612.5856 89.358928 
L 613.00968 88.275095 
L 613.43376 87.624574 
L 613.85784 87.350532 
L 614.28936 87.390404 
L 614.71344 87.680308 
L 615.56904 88.749162 
L 616.84128 90.647633 
L 617.69688 91.487384 
L 618.12096 91.65833 
L 618.55248 91.629472 
L 618.97656 91.387592 
L 619.40064 90.930928 
L 620.25624 89.418407 
L 621.1044 87.288409 
L 623.23968 81.589251 
L 624.08784 80.162644 
L 624.51936 79.778456 
L 624.94344 79.63813 
L 625.36752 79.748276 
L 625.79904 80.10669 
L 626.22312 80.702358 
L 627.07872 82.527472 
L 627.92688 85.008394 
L 630.91032 94.541503 
L 631.76592 96.22497 
L 632.19 96.730319 
L 632.61408 96.985196 
L 633.0456 96.978587 
L 633.46968 96.707408 
L 633.89376 96.177387 
L 634.74936 94.404703 
L 635.59752 91.868708 
L 638.58096 81.835537 
L 639.43656 79.987953 
L 639.86064 79.360122 
L 640.29216 78.933858 
L 640.71624 78.702112 
L 641.14032 78.650784 
L 641.5644 78.760049 
L 642.42 79.361444 
L 643.69968 80.815587 
L 645.40344 82.769572 
L 646.25904 83.420974 
L 647.1072 83.703608 
L 647.53872 83.678054 
L 647.9628 83.530238 
L 648.38688 83.256196 
L 648.38688 83.256196 
" style="fill:none;stroke:#000000;stroke-linecap:square;stroke-width:1.5;"/>
   </g>
   <g id="patch_3">
    <path d="M 90 384.48 
L 90 51.84 
" style="fill:none;stroke:#000000;stroke-linecap:square;stroke-linejoin:miter;stroke-width:0.8;"/>
   </g>
   <g id="patch_4">
    <path d="M 648 384.48 
L 648 51.84 
" style="fill:none;stroke:#000000;stroke-linecap:square;stroke-linejoin:miter;stroke-width:0.8;"/>
   </g>
   <g id="patch_5">
    <path d="M 90 384.48 
L 648 384.48 
" style="fill:none;stroke:#000000;stroke-linecap:square;stroke-linejoin:miter;stroke-width:0.8;"/>
   </g>
   <g id="patch_6">
    <path d="M 90 51.84 
L 648 51.84 
" style="fill:none;stroke:#000000;stroke-linecap:square;stroke-linejoin:miter;stroke-width:0.8;"/>
   </g>
   <g id="text_20">
    <!-- Periodogram: 1998 TU3 -->
    <g transform="translate(267.302425 45.84)scale(0.21 -0.21)">
     <defs>
      <path d="M 1267 2042 
L 2291 2042 
C 3117 2042 3718 2578 3718 3184 
C 3718 3791 3130 4352 2291 4352 
L 333 4352 
L 333 4186 
C 774 4186 845 4186 845 3899 
L 845 446 
C 845 160 774 160 333 160 
L 333 0 
C 518 0 858 0 1056 0 
C 1254 0 1594 0 1779 0 
L 1779 160 
C 1338 160 1267 160 1267 446 
L 1267 2042 
z
M 1254 2176 
L 1254 3938 
C 1254 4155 1267 4186 1523 4186 
L 2170 4186 
C 2995 4186 3232 3714 3232 3184 
C 3232 2604 2950 2176 2170 2176 
L 1254 2176 
z
" id="CMR17-50" transform="scale(0.015625)"/>
      <path d="M 2438 1472 
C 2464 1498 2464 1511 2464 1576 
C 2464 2238 2118 2816 1389 2816 
C 710 2816 173 2169 173 1383 
C 173 551 781 -64 1459 -64 
C 2176 -64 2458 607 2458 740 
C 2458 784 2419 784 2406 784 
C 2362 784 2355 771 2330 696 
C 2189 265 1837 51 1504 51 
C 1229 51 954 203 781 480 
C 582 803 582 1176 582 1472 
L 2438 1472 
z
M 589 1568 
C 634 2505 1126 2714 1382 2714 
C 1818 2714 2112 2297 2118 1568 
L 589 1568 
z
" id="CMR17-65" transform="scale(0.015625)"/>
      <path d="M 992 3909 
C 992 4049 877 4170 730 4170 
C 589 4170 467 4056 467 3909 
C 467 3769 582 3648 730 3648 
C 870 3648 992 3763 992 3909 
z
M 243 2706 
L 243 2541 
C 602 2541 653 2502 653 2197 
L 653 427 
C 653 184 627 153 218 153 
L 218 -13 
C 371 0 646 0 806 0 
C 960 0 1222 0 1370 -13 
L 1370 153 
C 992 153 979 191 979 420 
L 979 2776 
L 243 2706 
z
" id="CMR17-69" transform="scale(0.015625)"/>
      <path d="M 1869 4326 
L 1869 4160 
C 2246 4160 2304 4122 2304 3820 
L 2304 2345 
C 2278 2377 2016 2790 1498 2790 
C 845 2790 211 2208 211 1364 
C 211 525 806 -64 1434 -64 
C 1978 -64 2259 337 2291 380 
L 2291 -63 
L 3066 -63 
L 3066 128 
C 2688 128 2630 166 2630 473 
L 2630 4396 
L 1869 4326 
z
M 2291 755 
C 2291 563 2176 390 2029 262 
C 1811 70 1594 38 1472 38 
C 1286 38 621 134 621 1356 
C 621 2612 1363 2688 1530 2688 
C 1824 2688 2061 2522 2208 2291 
C 2291 2157 2291 2138 2291 2023 
L 2291 755 
z
" id="CMR17-64" transform="scale(0.015625)"/>
      <path d="M 4326 1933 
C 4326 2252 4269 2790 3507 2790 
C 3072 2790 2771 2496 2656 2151 
L 2650 2151 
C 2573 2676 2195 2790 1837 2790 
C 1331 2790 1069 2400 973 2144 
L 966 2144 
L 966 2790 
L 211 2720 
L 211 2554 
C 589 2554 646 2515 646 2208 
L 646 428 
C 646 184 621 153 211 153 
L 211 -13 
C 365 0 646 0 813 0 
C 979 0 1267 0 1421 -13 
L 1421 153 
C 1011 153 986 178 986 428 
L 986 1658 
C 986 2247 1344 2688 1792 2688 
C 2266 2688 2317 2266 2317 1958 
L 2317 428 
C 2317 184 2291 153 1882 153 
L 1882 -13 
C 2035 0 2317 0 2483 0 
C 2650 0 2938 0 3091 -13 
L 3091 153 
C 2682 153 2656 178 2656 428 
L 2656 1658 
C 2656 2247 3014 2688 3462 2688 
C 3936 2688 3987 2266 3987 1958 
L 3987 428 
C 3987 184 3962 153 3552 153 
L 3552 -13 
C 3706 0 3987 0 4154 0 
C 4320 0 4608 0 4762 -13 
L 4762 153 
C 4352 153 4326 178 4326 428 
L 4326 1933 
z
" id="CMR17-6d" transform="scale(0.015625)"/>
      <path d="M 1062 2491 
C 1062 2650 934 2752 800 2752 
C 672 2752 538 2650 538 2491 
C 538 2332 666 2230 800 2230 
C 928 2230 1062 2332 1062 2491 
z
M 1062 261 
C 1062 420 934 522 800 522 
C 672 522 538 420 538 261 
C 538 102 666 0 800 0 
C 928 0 1062 102 1062 261 
z
" id="CMR17-3a" transform="scale(0.015625)"/>
      <path d="M 2253 1864 
C 2253 464 1670 31 1190 31 
C 1043 31 685 31 538 294 
C 704 268 826 357 826 518 
C 826 692 685 749 595 749 
C 538 749 365 723 365 506 
C 365 71 742 -128 1203 -128 
C 1939 -128 2688 674 2688 2073 
C 2688 3817 1971 4179 1485 4179 
C 851 4179 243 3628 243 2778 
C 243 1991 762 1408 1414 1408 
C 1952 1408 2189 1903 2253 2112 
L 2253 1864 
z
M 1427 1510 
C 1254 1510 1011 1542 813 1922 
C 678 2169 678 2461 678 2771 
C 678 3146 678 3405 858 3684 
C 947 3817 1114 4032 1485 4032 
C 2240 4032 2240 2885 2240 2632 
C 2240 2182 2035 1510 1427 1510 
z
" id="CMR17-39" transform="scale(0.015625)"/>
      <path d="M 3981 4326 
L 288 4326 
L 179 2918 
L 294 2918 
C 378 3976 467 4160 1453 4160 
C 1568 4160 1754 4160 1805 4154 
C 1926 4135 1926 4058 1926 3912 
L 1926 459 
C 1926 230 1907 160 1376 160 
L 1197 160 
L 1197 0 
C 1504 0 1824 0 2138 0 
C 2451 0 2771 0 3078 0 
L 3078 160 
L 2899 160 
C 2368 160 2349 230 2349 459 
L 2349 3912 
C 2349 4052 2349 4129 2464 4154 
C 2515 4160 2701 4160 2816 4160 
C 3795 4160 3891 3976 3974 2918 
L 4090 2918 
L 3981 4326 
z
" id="CMR17-54" transform="scale(0.015625)"/>
      <path d="M 3456 1433 
C 3456 579 2899 38 2291 38 
C 1965 38 1670 210 1491 477 
C 1286 783 1261 1178 1261 1401 
L 1261 3874 
C 1261 4160 1331 4160 1773 4160 
L 1773 4320 
C 1587 4320 1248 4320 1050 4320 
C 851 4320 512 4320 326 4320 
L 326 4160 
C 768 4160 838 4160 838 3874 
L 838 1433 
C 838 516 1536 -128 2278 -128 
C 3110 -128 3590 719 3590 1344 
L 3590 3766 
C 3590 4122 3917 4160 4102 4160 
L 4102 4326 
C 3955 4320 3686 4320 3526 4320 
C 3366 4320 3091 4320 2944 4326 
L 2944 4160 
C 3456 4160 3456 3861 3456 3702 
L 3456 1433 
z
" id="CMR17-55" transform="scale(0.015625)"/>
     </defs>
     <use transform="scale(0.996264)" xlink:href="#CMR17-50"/>
     <use transform="translate(59.983847 0)scale(0.996264)" xlink:href="#CMR17-65"/>
     <use transform="translate(100.469507 0)scale(0.996264)" xlink:href="#CMR17-72"/>
     <use transform="translate(135.750275 0)scale(0.996264)" xlink:href="#CMR17-69"/>
     <use transform="translate(160.621333 0)scale(0.996264)" xlink:href="#CMR17-6f"/>
     <use transform="translate(208.914249 0)scale(0.996264)" xlink:href="#CMR17-64"/>
     <use transform="translate(259.809619 0)scale(0.996264)" xlink:href="#CMR17-6f"/>
     <use transform="translate(305.500096 0)scale(0.996264)" xlink:href="#CMR17-67"/>
     <use transform="translate(351.190573 0)scale(0.996264)" xlink:href="#CMR17-72"/>
     <use transform="translate(386.471341 0)scale(0.996264)" xlink:href="#CMR17-61"/>
     <use transform="translate(432.161818 0)scale(0.996264)" xlink:href="#CMR17-6d"/>
     <use transform="translate(509.081408 0)scale(0.996264)" xlink:href="#CMR17-3a"/>
     <use transform="translate(574.438127 0)scale(0.996264)" xlink:href="#CMR17-31"/>
     <use transform="translate(620.128604 0)scale(0.996264)" xlink:href="#CMR17-39"/>
     <use transform="translate(665.819081 0)scale(0.996264)" xlink:href="#CMR17-39"/>
     <use transform="translate(711.509558 0)scale(0.996264)" xlink:href="#CMR17-38"/>
     <use transform="translate(787.276002 0)scale(0.996264)" xlink:href="#CMR17-54"/>
     <use transform="translate(853.785882 0)scale(0.996264)" xlink:href="#CMR17-55"/>
     <use transform="translate(922.858312 0)scale(0.996264)" xlink:href="#CMR17-33"/>
    </g>
   </g>
  </g>
 </g>
 <defs>
  <clipPath id="p0657669206">
   <rect height="332.64" width="558" x="90" y="51.84"/>
  </clipPath>
 </defs>
</svg>
