<?xml version="1.0" encoding="utf-8" standalone="no"?>
<!DOCTYPE svg PUBLIC "-//W3C//DTD SVG 1.1//EN"
  "http://www.w3.org/Graphics/SVG/1.1/DTD/svg11.dtd">
<svg height="432pt" version="1.1" viewBox="0 0 720 432" width="720pt" xmlns="http://www.w3.org/2000/svg" xmlns:xlink="http://www.w3.org/1999/xlink">
 <metadata>
  <rdf:RDF xmlns:cc="http://creativecommons.org/ns#" xmlns:dc="http://purl.org/dc/elements/1.1/" xmlns:rdf="http://www.w3.org/1999/02/22-rdf-syntax-ns#">
   <cc:Work>
    <dc:type rdf:resource="http://purl.org/dc/dcmitype/StillImage"/>
    <dc:date>2021-08-25T16:37:47.428895</dc:date>
    <dc:format>image/svg+xml</dc:format>
    <dc:creator>
     <cc:Agent>
      <dc:title>Matplotlib v3.4.2, https://matplotlib.org/</dc:title>
     </cc:Agent>
    </dc:creator>
   </cc:Work>
  </rdf:RDF>
 </metadata>
 <defs>
  <style type="text/css">*{stroke-linecap:butt;stroke-linejoin:round;}</style>
 </defs>
 <g id="figure_1">
  <g id="patch_1">
   <path d="M 0 432 
L 720 432 
L 720 0 
L 0 0 
z
" style="fill:#ffffff;"/>
  </g>
  <g id="axes_1">
   <g id="patch_2">
    <path d="M 90 384.48 
L 648 384.48 
L 648 51.84 
L 90 51.84 
z
" style="fill:#ffffff;"/>
   </g>
   <g id="matplotlib.axis_1">
    <g id="xtick_1">
     <g id="line2d_1">
      <path clip-path="url(#pd3c7261c7e)" d="M 115.363636 384.48 
L 115.363636 51.84 
" style="fill:none;stroke:#cccccc;stroke-linecap:round;stroke-width:0.8;"/>
     </g>
     <g id="line2d_2"/>
     <g id="text_1">
      <!-- 0.0 -->
      <g style="fill:#262626;" transform="translate(108.413636 395.226875)scale(0.1 -0.1)">
       <defs>
        <path d="M 3309 2203 
Q 3309 1569 3189 1136 
Q 3069 703 2861 436 
Q 2653 169 2372 53 
Q 2091 -63 1772 -63 
Q 1450 -63 1172 53 
Q 894 169 689 434 
Q 484 700 367 1133 
Q 250 1566 250 2203 
Q 250 2869 367 3305 
Q 484 3741 690 4000 
Q 897 4259 1178 4364 
Q 1459 4469 1791 4469 
Q 2106 4469 2382 4364 
Q 2659 4259 2865 4000 
Q 3072 3741 3190 3305 
Q 3309 2869 3309 2203 
z
M 2738 2203 
Q 2738 2728 2675 3076 
Q 2613 3425 2491 3633 
Q 2369 3841 2192 3927 
Q 2016 4013 1791 4013 
Q 1553 4013 1372 3925 
Q 1191 3838 1067 3630 
Q 944 3422 881 3073 
Q 819 2725 819 2203 
Q 819 1697 883 1350 
Q 947 1003 1070 792 
Q 1194 581 1372 489 
Q 1550 397 1778 397 
Q 2000 397 2178 489 
Q 2356 581 2479 792 
Q 2603 1003 2670 1350 
Q 2738 1697 2738 2203 
z
" id="LiberationSans-30" transform="scale(0.015625)"/>
        <path d="M 584 0 
L 584 684 
L 1194 684 
L 1194 0 
L 584 0 
z
" id="LiberationSans-2e" transform="scale(0.015625)"/>
       </defs>
       <use xlink:href="#LiberationSans-30"/>
       <use x="55.615234" xlink:href="#LiberationSans-2e"/>
       <use x="83.398438" xlink:href="#LiberationSans-30"/>
      </g>
     </g>
    </g>
    <g id="xtick_2">
     <g id="line2d_3">
      <path clip-path="url(#pd3c7261c7e)" d="M 217.398659 384.48 
L 217.398659 51.84 
" style="fill:none;stroke:#cccccc;stroke-linecap:round;stroke-width:0.8;"/>
     </g>
     <g id="line2d_4"/>
     <g id="text_2">
      <!-- 0.2 -->
      <g style="fill:#262626;" transform="translate(210.448659 395.226875)scale(0.1 -0.1)">
       <defs>
        <path d="M 322 0 
L 322 397 
Q 481 763 711 1042 
Q 941 1322 1194 1548 
Q 1447 1775 1695 1969 
Q 1944 2163 2144 2356 
Q 2344 2550 2467 2762 
Q 2591 2975 2591 3244 
Q 2591 3431 2534 3573 
Q 2478 3716 2372 3812 
Q 2266 3909 2117 3957 
Q 1969 4006 1788 4006 
Q 1619 4006 1470 3959 
Q 1322 3913 1206 3819 
Q 1091 3725 1017 3586 
Q 944 3447 922 3263 
L 347 3316 
Q 375 3553 478 3762 
Q 581 3972 762 4130 
Q 944 4288 1198 4378 
Q 1453 4469 1788 4469 
Q 2116 4469 2372 4391 
Q 2628 4313 2804 4159 
Q 2981 4006 3075 3781 
Q 3169 3556 3169 3263 
Q 3169 3041 3089 2841 
Q 3009 2641 2876 2459 
Q 2744 2278 2569 2109 
Q 2394 1941 2203 1780 
Q 2013 1619 1819 1461 
Q 1625 1303 1454 1143 
Q 1284 984 1150 820 
Q 1016 656 941 478 
L 3238 478 
L 3238 0 
L 322 0 
z
" id="LiberationSans-32" transform="scale(0.015625)"/>
       </defs>
       <use xlink:href="#LiberationSans-30"/>
       <use x="55.615234" xlink:href="#LiberationSans-2e"/>
       <use x="83.398438" xlink:href="#LiberationSans-32"/>
      </g>
     </g>
    </g>
    <g id="xtick_3">
     <g id="line2d_5">
      <path clip-path="url(#pd3c7261c7e)" d="M 319.433682 384.48 
L 319.433682 51.84 
" style="fill:none;stroke:#cccccc;stroke-linecap:round;stroke-width:0.8;"/>
     </g>
     <g id="line2d_6"/>
     <g id="text_3">
      <!-- 0.4 -->
      <g style="fill:#262626;" transform="translate(312.483682 395.226875)scale(0.1 -0.1)">
       <defs>
        <path d="M 2753 997 
L 2753 0 
L 2222 0 
L 2222 997 
L 147 997 
L 147 1434 
L 2163 4403 
L 2753 4403 
L 2753 1441 
L 3372 1441 
L 3372 997 
L 2753 997 
z
M 2222 3769 
Q 2216 3753 2191 3708 
Q 2166 3663 2134 3606 
Q 2103 3550 2070 3492 
Q 2038 3434 2013 3397 
L 884 1734 
Q 869 1709 839 1668 
Q 809 1628 778 1586 
Q 747 1544 715 1503 
Q 684 1463 666 1441 
L 2222 1441 
L 2222 3769 
z
" id="LiberationSans-34" transform="scale(0.015625)"/>
       </defs>
       <use xlink:href="#LiberationSans-30"/>
       <use x="55.615234" xlink:href="#LiberationSans-2e"/>
       <use x="83.398438" xlink:href="#LiberationSans-34"/>
      </g>
     </g>
    </g>
    <g id="xtick_4">
     <g id="line2d_7">
      <path clip-path="url(#pd3c7261c7e)" d="M 421.468704 384.48 
L 421.468704 51.84 
" style="fill:none;stroke:#cccccc;stroke-linecap:round;stroke-width:0.8;"/>
     </g>
     <g id="line2d_8"/>
     <g id="text_4">
      <!-- 0.6 -->
      <g style="fill:#262626;" transform="translate(414.518704 395.226875)scale(0.1 -0.1)">
       <defs>
        <path d="M 3278 1441 
Q 3278 1109 3186 832 
Q 3094 556 2914 357 
Q 2734 159 2468 48 
Q 2203 -63 1856 -63 
Q 1472 -63 1184 84 
Q 897 231 706 507 
Q 516 784 420 1186 
Q 325 1588 325 2100 
Q 325 2688 433 3131 
Q 541 3575 744 3872 
Q 947 4169 1239 4319 
Q 1531 4469 1900 4469 
Q 2125 4469 2322 4422 
Q 2519 4375 2680 4270 
Q 2841 4166 2962 3994 
Q 3084 3822 3156 3572 
L 2619 3475 
Q 2531 3759 2339 3886 
Q 2147 4013 1894 4013 
Q 1663 4013 1475 3903 
Q 1288 3794 1156 3576 
Q 1025 3359 954 3031 
Q 884 2703 884 2266 
Q 1038 2550 1316 2698 
Q 1594 2847 1953 2847 
Q 2253 2847 2497 2750 
Q 2741 2653 2914 2470 
Q 3088 2288 3183 2027 
Q 3278 1766 3278 1441 
z
M 2706 1416 
Q 2706 1644 2650 1828 
Q 2594 2013 2481 2142 
Q 2369 2272 2203 2342 
Q 2038 2413 1819 2413 
Q 1666 2413 1509 2367 
Q 1353 2322 1226 2220 
Q 1100 2119 1020 1953 
Q 941 1788 941 1550 
Q 941 1306 1003 1095 
Q 1066 884 1183 728 
Q 1300 572 1465 481 
Q 1631 391 1838 391 
Q 2041 391 2202 461 
Q 2363 531 2475 664 
Q 2588 797 2647 987 
Q 2706 1178 2706 1416 
z
" id="LiberationSans-36" transform="scale(0.015625)"/>
       </defs>
       <use xlink:href="#LiberationSans-30"/>
       <use x="55.615234" xlink:href="#LiberationSans-2e"/>
       <use x="83.398438" xlink:href="#LiberationSans-36"/>
      </g>
     </g>
    </g>
    <g id="xtick_5">
     <g id="line2d_9">
      <path clip-path="url(#pd3c7261c7e)" d="M 523.503727 384.48 
L 523.503727 51.84 
" style="fill:none;stroke:#cccccc;stroke-linecap:round;stroke-width:0.8;"/>
     </g>
     <g id="line2d_10"/>
     <g id="text_5">
      <!-- 0.8 -->
      <g style="fill:#262626;" transform="translate(516.553727 395.226875)scale(0.1 -0.1)">
       <defs>
        <path d="M 3281 1228 
Q 3281 947 3192 711 
Q 3103 475 2920 303 
Q 2738 131 2453 34 
Q 2169 -63 1781 -63 
Q 1394 -63 1111 34 
Q 828 131 642 301 
Q 456 472 367 708 
Q 278 944 278 1222 
Q 278 1463 351 1650 
Q 425 1838 548 1973 
Q 672 2109 830 2192 
Q 988 2275 1156 2303 
L 1156 2316 
Q 972 2359 826 2456 
Q 681 2553 582 2689 
Q 484 2825 432 2990 
Q 381 3156 381 3341 
Q 381 3572 470 3776 
Q 559 3981 734 4136 
Q 909 4291 1168 4380 
Q 1428 4469 1769 4469 
Q 2128 4469 2392 4378 
Q 2656 4288 2829 4133 
Q 3003 3978 3087 3772 
Q 3172 3566 3172 3334 
Q 3172 3153 3120 2987 
Q 3069 2822 2970 2686 
Q 2872 2550 2726 2454 
Q 2581 2359 2391 2322 
L 2391 2309 
Q 2581 2278 2743 2195 
Q 2906 2113 3025 1977 
Q 3144 1841 3212 1653 
Q 3281 1466 3281 1228 
z
M 2588 3303 
Q 2588 3469 2545 3606 
Q 2503 3744 2406 3842 
Q 2309 3941 2153 3995 
Q 1997 4050 1769 4050 
Q 1547 4050 1394 3995 
Q 1241 3941 1142 3842 
Q 1044 3744 1000 3606 
Q 956 3469 956 3303 
Q 956 3172 990 3034 
Q 1025 2897 1115 2784 
Q 1206 2672 1365 2600 
Q 1525 2528 1775 2528 
Q 2041 2528 2202 2600 
Q 2363 2672 2448 2784 
Q 2534 2897 2561 3034 
Q 2588 3172 2588 3303 
z
M 2697 1281 
Q 2697 1441 2653 1589 
Q 2609 1738 2503 1852 
Q 2397 1966 2217 2036 
Q 2038 2106 1769 2106 
Q 1522 2106 1348 2036 
Q 1175 1966 1067 1850 
Q 959 1734 909 1582 
Q 859 1431 859 1269 
Q 859 1066 909 898 
Q 959 731 1068 611 
Q 1178 491 1356 425 
Q 1534 359 1788 359 
Q 2044 359 2219 425 
Q 2394 491 2500 611 
Q 2606 731 2651 901 
Q 2697 1072 2697 1281 
z
" id="LiberationSans-38" transform="scale(0.015625)"/>
       </defs>
       <use xlink:href="#LiberationSans-30"/>
       <use x="55.615234" xlink:href="#LiberationSans-2e"/>
       <use x="83.398438" xlink:href="#LiberationSans-38"/>
      </g>
     </g>
    </g>
    <g id="xtick_6">
     <g id="line2d_11">
      <path clip-path="url(#pd3c7261c7e)" d="M 625.53875 384.48 
L 625.53875 51.84 
" style="fill:none;stroke:#cccccc;stroke-linecap:round;stroke-width:0.8;"/>
     </g>
     <g id="line2d_12"/>
     <g id="text_6">
      <!-- 1.0 -->
      <g style="fill:#262626;" transform="translate(618.58875 395.226875)scale(0.1 -0.1)">
       <defs>
        <path d="M 488 0 
L 488 478 
L 1609 478 
L 1609 3866 
L 616 3156 
L 616 3688 
L 1656 4403 
L 2175 4403 
L 2175 478 
L 3247 478 
L 3247 0 
L 488 0 
z
" id="LiberationSans-31" transform="scale(0.015625)"/>
       </defs>
       <use xlink:href="#LiberationSans-31"/>
       <use x="55.615234" xlink:href="#LiberationSans-2e"/>
       <use x="83.398438" xlink:href="#LiberationSans-30"/>
      </g>
     </g>
    </g>
    <g id="text_7">
     <!-- Phase [Period = 5.0906 H -->
     <g style="fill:#262626;" transform="translate(311.603125 408.54875)scale(0.1 -0.1)">
      <defs>
       <path d="M 3931 3078 
Q 3931 2791 3836 2542 
Q 3741 2294 3552 2111 
Q 3363 1928 3078 1822 
Q 2794 1716 2416 1716 
L 1122 1716 
L 1122 0 
L 525 0 
L 525 4403 
L 2378 4403 
Q 2769 4403 3059 4308 
Q 3350 4213 3544 4039 
Q 3738 3866 3834 3620 
Q 3931 3375 3931 3078 
z
M 3331 3072 
Q 3331 3491 3075 3708 
Q 2819 3925 2306 3925 
L 1122 3925 
L 1122 2188 
L 2331 2188 
Q 2847 2188 3089 2416 
Q 3331 2644 3331 3072 
z
" id="LiberationSans-50" transform="scale(0.015625)"/>
       <path d="M 991 2803 
Q 1084 2975 1193 3095 
Q 1303 3216 1434 3294 
Q 1566 3372 1722 3408 
Q 1878 3444 2072 3444 
Q 2397 3444 2605 3356 
Q 2813 3269 2933 3111 
Q 3053 2953 3098 2734 
Q 3144 2516 3144 2253 
L 3144 0 
L 2578 0 
L 2578 2144 
Q 2578 2359 2551 2521 
Q 2525 2684 2450 2792 
Q 2375 2900 2237 2954 
Q 2100 3009 1881 3009 
Q 1681 3009 1520 2937 
Q 1359 2866 1245 2734 
Q 1131 2603 1068 2415 
Q 1006 2228 1006 1994 
L 1006 0 
L 444 0 
L 444 4638 
L 1006 4638 
L 1006 3431 
Q 1006 3328 1003 3225 
Q 1000 3122 995 3034 
Q 991 2947 987 2886 
Q 984 2825 981 2803 
L 991 2803 
z
" id="LiberationSans-68" transform="scale(0.015625)"/>
       <path d="M 1294 -63 
Q 784 -63 528 206 
Q 272 475 272 944 
Q 272 1278 398 1492 
Q 525 1706 729 1828 
Q 934 1950 1196 1997 
Q 1459 2044 1731 2050 
L 2491 2063 
L 2491 2247 
Q 2491 2456 2447 2603 
Q 2403 2750 2312 2840 
Q 2222 2931 2086 2973 
Q 1950 3016 1766 3016 
Q 1603 3016 1472 2992 
Q 1341 2969 1244 2908 
Q 1147 2847 1087 2742 
Q 1028 2638 1009 2478 
L 422 2531 
Q 453 2731 540 2898 
Q 628 3066 789 3187 
Q 950 3309 1192 3376 
Q 1434 3444 1778 3444 
Q 2416 3444 2737 3151 
Q 3059 2859 3059 2306 
L 3059 850 
Q 3059 600 3125 473 
Q 3191 347 3375 347 
Q 3422 347 3469 353 
Q 3516 359 3559 369 
L 3559 19 
Q 3453 -6 3348 -18 
Q 3244 -31 3125 -31 
Q 2966 -31 2852 11 
Q 2738 53 2666 139 
Q 2594 225 2556 351 
Q 2519 478 2509 647 
L 2491 647 
Q 2400 484 2292 353 
Q 2184 222 2040 130 
Q 1897 38 1714 -12 
Q 1531 -63 1294 -63 
z
M 1422 359 
Q 1691 359 1892 457 
Q 2094 556 2226 709 
Q 2359 863 2425 1044 
Q 2491 1225 2491 1391 
L 2491 1669 
L 1875 1656 
Q 1669 1653 1483 1626 
Q 1297 1600 1156 1522 
Q 1016 1444 933 1303 
Q 850 1163 850 934 
Q 850 659 998 509 
Q 1147 359 1422 359 
z
" id="LiberationSans-61" transform="scale(0.015625)"/>
       <path d="M 2969 934 
Q 2969 697 2876 511 
Q 2784 325 2609 198 
Q 2434 72 2179 4 
Q 1925 -63 1597 -63 
Q 1303 -63 1067 -17 
Q 831 28 653 128 
Q 475 228 354 392 
Q 234 556 178 794 
L 675 891 
Q 747 619 972 492 
Q 1197 366 1597 366 
Q 1778 366 1929 391 
Q 2081 416 2190 477 
Q 2300 538 2361 639 
Q 2422 741 2422 891 
Q 2422 1044 2350 1142 
Q 2278 1241 2150 1306 
Q 2022 1372 1839 1420 
Q 1656 1469 1438 1528 
Q 1234 1581 1034 1647 
Q 834 1713 673 1820 
Q 513 1928 413 2087 
Q 313 2247 313 2488 
Q 313 2950 642 3192 
Q 972 3434 1603 3434 
Q 2163 3434 2492 3237 
Q 2822 3041 2909 2606 
L 2403 2544 
Q 2375 2675 2300 2764 
Q 2225 2853 2119 2908 
Q 2013 2963 1880 2986 
Q 1747 3009 1603 3009 
Q 1222 3009 1040 2893 
Q 859 2778 859 2544 
Q 859 2406 926 2317 
Q 994 2228 1114 2167 
Q 1234 2106 1403 2061 
Q 1572 2016 1775 1966 
Q 1909 1931 2050 1892 
Q 2191 1853 2323 1798 
Q 2456 1744 2573 1670 
Q 2691 1597 2778 1494 
Q 2866 1391 2917 1253 
Q 2969 1116 2969 934 
z
" id="LiberationSans-73" transform="scale(0.015625)"/>
       <path d="M 863 1572 
Q 863 1306 917 1082 
Q 972 859 1086 698 
Q 1200 538 1378 448 
Q 1556 359 1806 359 
Q 2172 359 2392 506 
Q 2613 653 2691 878 
L 3184 738 
Q 3131 597 3036 455 
Q 2941 313 2781 198 
Q 2622 84 2383 10 
Q 2144 -63 1806 -63 
Q 1056 -63 664 384 
Q 272 831 272 1713 
Q 272 2188 390 2517 
Q 509 2847 715 3053 
Q 922 3259 1197 3351 
Q 1472 3444 1784 3444 
Q 2209 3444 2495 3306 
Q 2781 3169 2954 2926 
Q 3128 2684 3201 2356 
Q 3275 2028 3275 1647 
L 3275 1572 
L 863 1572 
z
M 2694 2003 
Q 2647 2538 2422 2783 
Q 2197 3028 1775 3028 
Q 1634 3028 1479 2983 
Q 1325 2938 1194 2822 
Q 1063 2706 972 2507 
Q 881 2309 869 2003 
L 2694 2003 
z
" id="LiberationSans-65" transform="scale(0.015625)"/>
       <path id="LiberationSans-20" transform="scale(0.015625)"/>
       <path d="M 456 -1328 
L 456 4638 
L 1728 4638 
L 1728 4234 
L 1000 4234 
L 1000 -925 
L 1728 -925 
L 1728 -1328 
L 456 -1328 
z
" id="LiberationSans-5b" transform="scale(0.015625)"/>
       <path d="M 444 0 
L 444 2594 
Q 444 2700 442 2811 
Q 441 2922 437 3025 
Q 434 3128 431 3218 
Q 428 3309 425 3381 
L 956 3381 
Q 959 3309 964 3217 
Q 969 3125 973 3028 
Q 978 2931 979 2842 
Q 981 2753 981 2691 
L 994 2691 
Q 1053 2884 1120 3026 
Q 1188 3169 1278 3261 
Q 1369 3353 1494 3398 
Q 1619 3444 1797 3444 
Q 1866 3444 1928 3433 
Q 1991 3422 2025 3413 
L 2025 2897 
Q 1969 2913 1894 2920 
Q 1819 2928 1725 2928 
Q 1531 2928 1395 2840 
Q 1259 2753 1173 2598 
Q 1088 2444 1047 2230 
Q 1006 2016 1006 1763 
L 1006 0 
L 444 0 
z
" id="LiberationSans-72" transform="scale(0.015625)"/>
       <path d="M 428 4100 
L 428 4638 
L 991 4638 
L 991 4100 
L 428 4100 
z
M 428 0 
L 428 3381 
L 991 3381 
L 991 0 
L 428 0 
z
" id="LiberationSans-69" transform="scale(0.015625)"/>
       <path d="M 3291 1694 
Q 3291 806 2900 371 
Q 2509 -63 1766 -63 
Q 1413 -63 1134 43 
Q 856 150 664 369 
Q 472 588 370 917 
Q 269 1247 269 1694 
Q 269 3444 1784 3444 
Q 2178 3444 2464 3334 
Q 2750 3225 2933 3006 
Q 3116 2788 3203 2459 
Q 3291 2131 3291 1694 
z
M 2700 1694 
Q 2700 2088 2639 2344 
Q 2578 2600 2461 2753 
Q 2344 2906 2175 2967 
Q 2006 3028 1794 3028 
Q 1578 3028 1404 2964 
Q 1231 2900 1109 2745 
Q 988 2591 923 2334 
Q 859 2078 859 1694 
Q 859 1300 928 1042 
Q 997 784 1117 631 
Q 1238 478 1402 415 
Q 1566 353 1759 353 
Q 1975 353 2150 414 
Q 2325 475 2447 628 
Q 2569 781 2634 1040 
Q 2700 1300 2700 1694 
z
" id="LiberationSans-6f" transform="scale(0.015625)"/>
       <path d="M 2566 544 
Q 2409 219 2151 78 
Q 1894 -63 1513 -63 
Q 872 -63 570 368 
Q 269 800 269 1675 
Q 269 3444 1513 3444 
Q 1897 3444 2153 3303 
Q 2409 3163 2566 2856 
L 2572 2856 
Q 2572 2888 2570 2955 
Q 2569 3022 2567 3095 
Q 2566 3169 2566 3234 
Q 2566 3300 2566 3328 
L 2566 4638 
L 3128 4638 
L 3128 697 
Q 3128 575 3129 462 
Q 3131 350 3134 256 
Q 3138 163 3141 95 
Q 3144 28 3147 0 
L 2609 0 
Q 2603 31 2598 89 
Q 2594 147 2589 222 
Q 2584 297 2581 380 
Q 2578 463 2578 544 
L 2566 544 
z
M 859 1694 
Q 859 1344 903 1094 
Q 947 844 1044 683 
Q 1141 522 1291 447 
Q 1441 372 1656 372 
Q 1878 372 2048 444 
Q 2219 516 2333 677 
Q 2447 838 2506 1097 
Q 2566 1356 2566 1731 
Q 2566 2091 2506 2339 
Q 2447 2588 2331 2741 
Q 2216 2894 2048 2961 
Q 1881 3028 1663 3028 
Q 1456 3028 1306 2956 
Q 1156 2884 1056 2725 
Q 956 2566 907 2311 
Q 859 2056 859 1694 
z
" id="LiberationSans-64" transform="scale(0.015625)"/>
       <path d="M 313 2675 
L 313 3138 
L 3422 3138 
L 3422 2675 
L 313 2675 
z
M 313 1075 
L 313 1538 
L 3422 1538 
L 3422 1075 
L 313 1075 
z
" id="LiberationSans-3d" transform="scale(0.015625)"/>
       <path d="M 3291 1434 
Q 3291 1103 3191 828 
Q 3091 553 2894 354 
Q 2697 156 2405 46 
Q 2113 -63 1728 -63 
Q 1381 -63 1123 18 
Q 866 100 687 242 
Q 509 384 404 575 
Q 300 766 256 984 
L 825 1050 
Q 859 925 921 808 
Q 984 691 1092 598 
Q 1200 506 1358 451 
Q 1516 397 1741 397 
Q 1959 397 2137 464 
Q 2316 531 2442 662 
Q 2569 794 2637 984 
Q 2706 1175 2706 1422 
Q 2706 1625 2640 1795 
Q 2575 1966 2453 2089 
Q 2331 2213 2154 2281 
Q 1978 2350 1753 2350 
Q 1613 2350 1494 2325 
Q 1375 2300 1273 2256 
Q 1172 2213 1089 2155 
Q 1006 2097 934 2034 
L 384 2034 
L 531 4403 
L 3034 4403 
L 3034 3925 
L 1044 3925 
L 959 2528 
Q 1109 2644 1334 2726 
Q 1559 2809 1869 2809 
Q 2197 2809 2459 2709 
Q 2722 2609 2906 2426 
Q 3091 2244 3191 1991 
Q 3291 1738 3291 1434 
z
" id="LiberationSans-35" transform="scale(0.015625)"/>
       <path d="M 3256 2291 
Q 3256 1703 3145 1261 
Q 3034 819 2828 525 
Q 2622 231 2326 84 
Q 2031 -63 1663 -63 
Q 1409 -63 1206 -11 
Q 1003 41 843 150 
Q 684 259 571 434 
Q 459 609 391 856 
L 928 941 
Q 1016 656 1202 523 
Q 1388 391 1672 391 
Q 1900 391 2089 498 
Q 2278 606 2411 822 
Q 2544 1038 2619 1363 
Q 2694 1688 2700 2125 
Q 2634 1978 2520 1862 
Q 2406 1747 2261 1667 
Q 2116 1588 1947 1545 
Q 1778 1503 1606 1503 
Q 1306 1503 1064 1611 
Q 822 1719 653 1912 
Q 484 2106 392 2379 
Q 300 2653 300 2988 
Q 300 3328 398 3603 
Q 497 3878 684 4070 
Q 872 4263 1145 4366 
Q 1419 4469 1766 4469 
Q 2500 4469 2878 3925 
Q 3256 3381 3256 2291 
z
M 2644 2834 
Q 2644 3078 2586 3293 
Q 2528 3509 2414 3668 
Q 2300 3828 2133 3920 
Q 1966 4013 1747 4013 
Q 1544 4013 1381 3941 
Q 1219 3869 1106 3736 
Q 994 3603 933 3412 
Q 872 3222 872 2988 
Q 872 2766 926 2575 
Q 981 2384 1090 2245 
Q 1200 2106 1362 2026 
Q 1525 1947 1741 1947 
Q 1897 1947 2058 2000 
Q 2219 2053 2348 2162 
Q 2478 2272 2561 2439 
Q 2644 2606 2644 2834 
z
" id="LiberationSans-39" transform="scale(0.015625)"/>
       <path d="M 3503 0 
L 3503 2041 
L 1122 2041 
L 1122 0 
L 525 0 
L 525 4403 
L 1122 4403 
L 1122 2541 
L 3503 2541 
L 3503 4403 
L 4100 4403 
L 4100 0 
L 3503 0 
z
" id="LiberationSans-48" transform="scale(0.015625)"/>
      </defs>
      <use xlink:href="#LiberationSans-50"/>
      <use x="66.699219" xlink:href="#LiberationSans-68"/>
      <use x="122.314453" xlink:href="#LiberationSans-61"/>
      <use x="177.929688" xlink:href="#LiberationSans-73"/>
      <use x="227.929688" xlink:href="#LiberationSans-65"/>
      <use x="283.544922" xlink:href="#LiberationSans-20"/>
      <use x="311.328125" xlink:href="#LiberationSans-5b"/>
      <use x="339.111328" xlink:href="#LiberationSans-50"/>
      <use x="405.810547" xlink:href="#LiberationSans-65"/>
      <use x="461.425781" xlink:href="#LiberationSans-72"/>
      <use x="494.726562" xlink:href="#LiberationSans-69"/>
      <use x="516.943359" xlink:href="#LiberationSans-6f"/>
      <use x="572.558594" xlink:href="#LiberationSans-64"/>
      <use x="628.173828" xlink:href="#LiberationSans-20"/>
      <use x="655.957031" xlink:href="#LiberationSans-3d"/>
      <use x="714.355469" xlink:href="#LiberationSans-20"/>
      <use x="742.138672" xlink:href="#LiberationSans-35"/>
      <use x="797.753906" xlink:href="#LiberationSans-2e"/>
      <use x="825.537109" xlink:href="#LiberationSans-30"/>
      <use x="881.152344" xlink:href="#LiberationSans-39"/>
      <use x="936.767578" xlink:href="#LiberationSans-30"/>
      <use x="992.382812" xlink:href="#LiberationSans-36"/>
      <use x="1047.998047" xlink:href="#LiberationSans-20"/>
      <use x="1075.78125" xlink:href="#LiberationSans-48"/>
     </g>
    </g>
   </g>
   <g id="matplotlib.axis_2">
    <g id="ytick_1">
     <g id="line2d_13">
      <path clip-path="url(#pd3c7261c7e)" d="M 90 75.460609 
L 648 75.460609 
" style="fill:none;stroke:#cccccc;stroke-linecap:round;stroke-width:0.8;"/>
     </g>
     <g id="line2d_14"/>
     <g id="text_8">
      <!-- 17.8 -->
      <g style="fill:#262626;" transform="translate(67.039062 79.084047)scale(0.1 -0.1)">
       <defs>
        <path d="M 3238 3947 
Q 2906 3441 2628 2973 
Q 2350 2506 2150 2032 
Q 1950 1559 1839 1061 
Q 1728 563 1728 0 
L 1141 0 
Q 1141 528 1266 1036 
Q 1391 1544 1603 2033 
Q 1816 2522 2097 2994 
Q 2378 3466 2694 3925 
L 328 3925 
L 328 4403 
L 3238 4403 
L 3238 3947 
z
" id="LiberationSans-37" transform="scale(0.015625)"/>
       </defs>
       <use xlink:href="#LiberationSans-31"/>
       <use x="55.615234" xlink:href="#LiberationSans-37"/>
       <use x="111.230469" xlink:href="#LiberationSans-2e"/>
       <use x="139.013672" xlink:href="#LiberationSans-38"/>
      </g>
     </g>
    </g>
    <g id="ytick_2">
     <g id="line2d_15">
      <path clip-path="url(#pd3c7261c7e)" d="M 90 132.924338 
L 648 132.924338 
" style="fill:none;stroke:#cccccc;stroke-linecap:round;stroke-width:0.8;"/>
     </g>
     <g id="line2d_16"/>
     <g id="text_9">
      <!-- 17.9 -->
      <g style="fill:#262626;" transform="translate(67.039062 136.547776)scale(0.1 -0.1)">
       <use xlink:href="#LiberationSans-31"/>
       <use x="55.615234" xlink:href="#LiberationSans-37"/>
       <use x="111.230469" xlink:href="#LiberationSans-2e"/>
       <use x="139.013672" xlink:href="#LiberationSans-39"/>
      </g>
     </g>
    </g>
    <g id="ytick_3">
     <g id="line2d_17">
      <path clip-path="url(#pd3c7261c7e)" d="M 90 190.388067 
L 648 190.388067 
" style="fill:none;stroke:#cccccc;stroke-linecap:round;stroke-width:0.8;"/>
     </g>
     <g id="line2d_18"/>
     <g id="text_10">
      <!-- 18.0 -->
      <g style="fill:#262626;" transform="translate(67.039062 194.011505)scale(0.1 -0.1)">
       <use xlink:href="#LiberationSans-31"/>
       <use x="55.615234" xlink:href="#LiberationSans-38"/>
       <use x="111.230469" xlink:href="#LiberationSans-2e"/>
       <use x="139.013672" xlink:href="#LiberationSans-30"/>
      </g>
     </g>
    </g>
    <g id="ytick_4">
     <g id="line2d_19">
      <path clip-path="url(#pd3c7261c7e)" d="M 90 247.851796 
L 648 247.851796 
" style="fill:none;stroke:#cccccc;stroke-linecap:round;stroke-width:0.8;"/>
     </g>
     <g id="line2d_20"/>
     <g id="text_11">
      <!-- 18.1 -->
      <g style="fill:#262626;" transform="translate(67.039062 251.475234)scale(0.1 -0.1)">
       <use xlink:href="#LiberationSans-31"/>
       <use x="55.615234" xlink:href="#LiberationSans-38"/>
       <use x="111.230469" xlink:href="#LiberationSans-2e"/>
       <use x="139.013672" xlink:href="#LiberationSans-31"/>
      </g>
     </g>
    </g>
    <g id="ytick_5">
     <g id="line2d_21">
      <path clip-path="url(#pd3c7261c7e)" d="M 90 305.315525 
L 648 305.315525 
" style="fill:none;stroke:#cccccc;stroke-linecap:round;stroke-width:0.8;"/>
     </g>
     <g id="line2d_22"/>
     <g id="text_12">
      <!-- 18.2 -->
      <g style="fill:#262626;" transform="translate(67.039062 308.938962)scale(0.1 -0.1)">
       <use xlink:href="#LiberationSans-31"/>
       <use x="55.615234" xlink:href="#LiberationSans-38"/>
       <use x="111.230469" xlink:href="#LiberationSans-2e"/>
       <use x="139.013672" xlink:href="#LiberationSans-32"/>
      </g>
     </g>
    </g>
    <g id="ytick_6">
     <g id="line2d_23">
      <path clip-path="url(#pd3c7261c7e)" d="M 90 362.779254 
L 648 362.779254 
" style="fill:none;stroke:#cccccc;stroke-linecap:round;stroke-width:0.8;"/>
     </g>
     <g id="line2d_24"/>
     <g id="text_13">
      <!-- 18.3 -->
      <g style="fill:#262626;" transform="translate(67.039062 366.402691)scale(0.1 -0.1)">
       <defs>
        <path d="M 3278 1216 
Q 3278 913 3179 675 
Q 3081 438 2892 273 
Q 2703 109 2423 23 
Q 2144 -63 1784 -63 
Q 1375 -63 1095 39 
Q 816 141 634 308 
Q 453 475 362 689 
Q 272 903 244 1131 
L 825 1184 
Q 850 1009 917 865 
Q 984 722 1100 619 
Q 1216 516 1384 459 
Q 1553 403 1784 403 
Q 2209 403 2451 612 
Q 2694 822 2694 1234 
Q 2694 1478 2586 1626 
Q 2478 1775 2317 1858 
Q 2156 1941 1967 1969 
Q 1778 1997 1619 1997 
L 1300 1997 
L 1300 2484 
L 1606 2484 
Q 1766 2484 1937 2517 
Q 2109 2550 2251 2636 
Q 2394 2722 2486 2869 
Q 2578 3016 2578 3244 
Q 2578 3597 2370 3801 
Q 2163 4006 1753 4006 
Q 1381 4006 1151 3815 
Q 922 3625 884 3278 
L 319 3322 
Q 353 3613 478 3828 
Q 603 4044 795 4186 
Q 988 4328 1234 4398 
Q 1481 4469 1759 4469 
Q 2128 4469 2393 4376 
Q 2659 4284 2828 4126 
Q 2997 3969 3076 3756 
Q 3156 3544 3156 3303 
Q 3156 3109 3103 2940 
Q 3050 2772 2937 2637 
Q 2825 2503 2651 2406 
Q 2478 2309 2234 2259 
L 2234 2247 
Q 2500 2219 2697 2126 
Q 2894 2034 3022 1896 
Q 3150 1759 3214 1584 
Q 3278 1409 3278 1216 
z
" id="LiberationSans-33" transform="scale(0.015625)"/>
       </defs>
       <use xlink:href="#LiberationSans-31"/>
       <use x="55.615234" xlink:href="#LiberationSans-38"/>
       <use x="111.230469" xlink:href="#LiberationSans-2e"/>
       <use x="139.013672" xlink:href="#LiberationSans-33"/>
      </g>
     </g>
    </g>
    <g id="text_14">
     <!-- Mag -->
     <g style="fill:#262626;" transform="translate(60.964062 227.885781)rotate(-90)scale(0.1 -0.1)">
      <defs>
       <path d="M 4269 0 
L 4269 2938 
Q 4269 3097 4272 3262 
Q 4275 3428 4281 3566 
Q 4288 3725 4297 3875 
Q 4253 3716 4206 3559 
Q 4166 3425 4117 3273 
Q 4069 3122 4022 3000 
L 2884 0 
L 2466 0 
L 1313 3000 
Q 1294 3047 1273 3109 
Q 1253 3172 1229 3242 
Q 1206 3313 1182 3386 
Q 1159 3459 1138 3531 
Q 1084 3697 1034 3875 
Q 1038 3700 1044 3528 
Q 1050 3381 1053 3220 
Q 1056 3059 1056 2938 
L 1056 0 
L 525 0 
L 525 4403 
L 1309 4403 
L 2481 1350 
Q 2503 1288 2534 1189 
Q 2566 1091 2594 987 
Q 2622 884 2645 792 
Q 2669 700 2678 650 
Q 2688 700 2713 794 
Q 2738 888 2770 991 
Q 2803 1094 2834 1191 
Q 2866 1288 2891 1350 
L 4041 4403 
L 4806 4403 
L 4806 0 
L 4269 0 
z
" id="LiberationSans-4d" transform="scale(0.015625)"/>
       <path d="M 1713 -1328 
Q 1422 -1328 1197 -1268 
Q 972 -1209 812 -1098 
Q 653 -988 553 -834 
Q 453 -681 409 -494 
L 975 -413 
Q 1031 -647 1223 -773 
Q 1416 -900 1728 -900 
Q 1919 -900 2075 -847 
Q 2231 -794 2340 -676 
Q 2450 -559 2509 -371 
Q 2569 -184 2569 84 
L 2569 628 
L 2563 628 
Q 2500 500 2408 383 
Q 2316 266 2183 175 
Q 2050 84 1875 29 
Q 1700 -25 1475 -25 
Q 1153 -25 923 83 
Q 694 191 548 406 
Q 403 622 336 942 
Q 269 1263 269 1684 
Q 269 2091 336 2416 
Q 403 2741 554 2967 
Q 706 3194 948 3314 
Q 1191 3434 1538 3434 
Q 1897 3434 2161 3270 
Q 2425 3106 2569 2803 
L 2575 2803 
Q 2575 2881 2579 2978 
Q 2584 3075 2589 3161 
Q 2594 3247 2600 3309 
Q 2606 3372 2613 3381 
L 3147 3381 
Q 3144 3353 3141 3286 
Q 3138 3219 3134 3125 
Q 3131 3031 3129 2917 
Q 3128 2803 3128 2681 
L 3128 97 
Q 3128 -613 2779 -970 
Q 2431 -1328 1713 -1328 
z
M 2569 1691 
Q 2569 2044 2492 2295 
Q 2416 2547 2291 2706 
Q 2166 2866 2005 2941 
Q 1844 3016 1675 3016 
Q 1459 3016 1304 2941 
Q 1150 2866 1048 2705 
Q 947 2544 898 2292 
Q 850 2041 850 1691 
Q 850 1325 898 1076 
Q 947 828 1047 675 
Q 1147 522 1300 456 
Q 1453 391 1666 391 
Q 1834 391 1995 462 
Q 2156 534 2284 690 
Q 2413 847 2491 1094 
Q 2569 1341 2569 1691 
z
" id="LiberationSans-67" transform="scale(0.015625)"/>
      </defs>
      <use xlink:href="#LiberationSans-4d"/>
      <use x="83.300781" xlink:href="#LiberationSans-61"/>
      <use x="138.916016" xlink:href="#LiberationSans-67"/>
     </g>
    </g>
   </g>
   <g id="LineCollection_1">
    <path clip-path="url(#pd3c7261c7e)" d="M 115.363636 156.735009 
L 115.363636 236.801521 
" style="fill:none;stroke:#696969;"/>
    <path clip-path="url(#pd3c7261c7e)" d="M 116.574792 128.238171 
L 116.574792 185.7019 
" style="fill:none;stroke:#696969;"/>
    <path clip-path="url(#pd3c7261c7e)" d="M 120.162343 178.147718 
L 120.162343 229.865074 
" style="fill:none;stroke:#696969;"/>
    <path clip-path="url(#pd3c7261c7e)" d="M 126.127821 189.288786 
L 126.127821 285.445142 
" style="fill:none;stroke:#696969;"/>
    <path clip-path="url(#pd3c7261c7e)" d="M 127.361425 203.4852 
L 127.361425 241.411261 
" style="fill:none;stroke:#696969;"/>
    <path clip-path="url(#pd3c7261c7e)" d="M 129.655682 242.643284 
L 129.655682 320.793955 
" style="fill:none;stroke:#696969;"/>
    <path clip-path="url(#pd3c7261c7e)" d="M 136.383871 180.435924 
L 136.383871 270.462049 
" style="fill:none;stroke:#696969;"/>
    <path clip-path="url(#pd3c7261c7e)" d="M 138.941379 170.948662 
L 138.941379 229.178957 
" style="fill:none;stroke:#696969;"/>
    <path clip-path="url(#pd3c7261c7e)" d="M 150.396851 190.043285 
L 150.396851 315.314214 
" style="fill:none;stroke:#696969;"/>
    <path clip-path="url(#pd3c7261c7e)" d="M 152.212564 211.119831 
L 152.212564 300.763248 
" style="fill:none;stroke:#696969;"/>
    <path clip-path="url(#pd3c7261c7e)" d="M 162.5431 256.685695 
L 162.5431 330.239268 
" style="fill:none;stroke:#696969;"/>
    <path clip-path="url(#pd3c7261c7e)" d="M 185.990749 237.879541 
L 185.990749 321.776585 
" style="fill:none;stroke:#696969;"/>
    <path clip-path="url(#pd3c7261c7e)" d="M 187.144254 234.414478 
L 187.144254 273.489813 
" style="fill:none;stroke:#696969;"/>
    <path clip-path="url(#pd3c7261c7e)" d="M 193.440326 202.014129 
L 193.440326 280.1648 
" style="fill:none;stroke:#696969;"/>
    <path clip-path="url(#pd3c7261c7e)" d="M 201.455177 239.69482 
L 201.455177 353.473003 
" style="fill:none;stroke:#696969;"/>
    <path clip-path="url(#pd3c7261c7e)" d="M 203.987686 212.060512 
L 203.987686 290.211184 
" style="fill:none;stroke:#696969;"/>
    <path clip-path="url(#pd3c7261c7e)" d="M 204.272874 245.591173 
L 204.272874 312.249098 
" style="fill:none;stroke:#696969;"/>
    <path clip-path="url(#pd3c7261c7e)" d="M 215.788546 202.021024 
L 215.788546 280.171696 
" style="fill:none;stroke:#696969;"/>
    <path clip-path="url(#pd3c7261c7e)" d="M 216.328312 197.382552 
L 216.328312 233.77663 
" style="fill:none;stroke:#696969;"/>
    <path clip-path="url(#pd3c7261c7e)" d="M 222.459086 200.57064 
L 222.459086 263.014176 
" style="fill:none;stroke:#696969;"/>
    <path clip-path="url(#pd3c7261c7e)" d="M 224.871194 222.4965 
L 224.871194 300.647172 
" style="fill:none;stroke:#696969;"/>
    <path clip-path="url(#pd3c7261c7e)" d="M 231.226956 232.242349 
L 231.226956 293.153901 
" style="fill:none;stroke:#696969;"/>
    <path clip-path="url(#pd3c7261c7e)" d="M 238.680614 166.359609 
L 238.680614 201.604412 
" style="fill:none;stroke:#696969;"/>
    <path clip-path="url(#pd3c7261c7e)" d="M 241.062111 182.859744 
L 241.062111 241.472747 
" style="fill:none;stroke:#696969;"/>
    <path clip-path="url(#pd3c7261c7e)" d="M 254.060353 202.340523 
L 254.060353 280.491194 
" style="fill:none;stroke:#696969;"/>
    <path clip-path="url(#pd3c7261c7e)" d="M 257.31527 215.814618 
L 257.31527 272.129072 
" style="fill:none;stroke:#696969;"/>
    <path clip-path="url(#pd3c7261c7e)" d="M 261.781343 183.42806 
L 261.781343 229.399043 
" style="fill:none;stroke:#696969;"/>
    <path clip-path="url(#pd3c7261c7e)" d="M 272.707763 199.519628 
L 272.707763 283.416672 
" style="fill:none;stroke:#696969;"/>
    <path clip-path="url(#pd3c7261c7e)" d="M 279.675225 204.880994 
L 279.675225 259.279608 
" style="fill:none;stroke:#696969;"/>
    <path clip-path="url(#pd3c7261c7e)" d="M 295.066698 151.656939 
L 295.066698 221.762688 
" style="fill:none;stroke:#696969;"/>
    <path clip-path="url(#pd3c7261c7e)" d="M 309.386293 172.038749 
L 309.386293 223.756105 
" style="fill:none;stroke:#696969;"/>
    <path clip-path="url(#pd3c7261c7e)" d="M 310.930083 177.063378 
L 310.930083 239.124205 
" style="fill:none;stroke:#696969;"/>
    <path clip-path="url(#pd3c7261c7e)" d="M 323.662013 214.79751 
L 323.662013 268.813415 
" style="fill:none;stroke:#696969;"/>
    <path clip-path="url(#pd3c7261c7e)" d="M 337.220427 157.987144 
L 337.220427 217.749422 
" style="fill:none;stroke:#696969;"/>
    <path clip-path="url(#pd3c7261c7e)" d="M 346.033702 196.393027 
L 346.033702 250.79164 
" style="fill:none;stroke:#696969;"/>
    <path clip-path="url(#pd3c7261c7e)" d="M 348.617739 118.483703 
L 348.617739 232.261886 
" style="fill:none;stroke:#696969;"/>
    <path clip-path="url(#pd3c7261c7e)" d="M 354.385269 87.228032 
L 354.385269 322.254683 
" style="fill:none;stroke:#696969;"/>
    <path clip-path="url(#pd3c7261c7e)" d="M 358.948275 191.88902 
L 358.948275 252.417864 
" style="fill:none;stroke:#696969;"/>
    <path clip-path="url(#pd3c7261c7e)" d="M 369.609404 161.341301 
L 369.609404 369.36 
" style="fill:none;stroke:#696969;"/>
    <path clip-path="url(#pd3c7261c7e)" d="M 373.019415 180.945627 
L 373.019415 259.096298 
" style="fill:none;stroke:#696969;"/>
    <path clip-path="url(#pd3c7261c7e)" d="M 374.613712 196.174665 
L 374.613712 300.758651 
" style="fill:none;stroke:#696969;"/>
    <path clip-path="url(#pd3c7261c7e)" d="M 381.304148 224.844468 
L 381.304148 287.288004 
" style="fill:none;stroke:#696969;"/>
    <path clip-path="url(#pd3c7261c7e)" d="M 383.598916 235.117834 
L 383.598916 300.626485 
" style="fill:none;stroke:#696969;"/>
    <path clip-path="url(#pd3c7261c7e)" d="M 396.209424 233.150276 
L 396.209424 295.211103 
" style="fill:none;stroke:#696969;"/>
    <path clip-path="url(#pd3c7261c7e)" d="M 397.576184 258.899198 
L 397.576184 342.796242 
" style="fill:none;stroke:#696969;"/>
    <path clip-path="url(#pd3c7261c7e)" d="M 436.291842 211.968571 
L 436.291842 308.507635 
" style="fill:none;stroke:#696969;"/>
    <path clip-path="url(#pd3c7261c7e)" d="M 446.997357 221.940826 
L 446.997357 335.719009 
" style="fill:none;stroke:#696969;"/>
    <path clip-path="url(#pd3c7261c7e)" d="M 457.856434 245.344079 
L 457.856434 305.106357 
" style="fill:none;stroke:#696969;"/>
    <path clip-path="url(#pd3c7261c7e)" d="M 470.40113 272.368696 
L 470.40113 350.519367 
" style="fill:none;stroke:#696969;"/>
    <path clip-path="url(#pd3c7261c7e)" d="M 473.073427 230.459824 
L 473.073427 304.396105 
" style="fill:none;stroke:#696969;"/>
    <path clip-path="url(#pd3c7261c7e)" d="M 480.209247 250.33308 
L 480.209247 310.095358 
" style="fill:none;stroke:#696969;"/>
    <path clip-path="url(#pd3c7261c7e)" d="M 487.978703 276.701461 
L 487.978703 346.80721 
" style="fill:none;stroke:#696969;"/>
    <path clip-path="url(#pd3c7261c7e)" d="M 492.129998 199.362178 
L 492.129998 287.473612 
" style="fill:none;stroke:#696969;"/>
    <path clip-path="url(#pd3c7261c7e)" d="M 495.107891 200.409741 
L 495.107891 254.425647 
" style="fill:none;stroke:#696969;"/>
    <path clip-path="url(#pd3c7261c7e)" d="M 504.185946 155.654691 
L 504.185946 231.506813 
" style="fill:none;stroke:#696969;"/>
    <path clip-path="url(#pd3c7261c7e)" d="M 507.044458 167.234782 
L 507.044458 251.131826 
" style="fill:none;stroke:#696969;"/>
    <path clip-path="url(#pd3c7261c7e)" d="M 510.127446 167.923197 
L 510.127446 218.491278 
" style="fill:none;stroke:#696969;"/>
    <path clip-path="url(#pd3c7261c7e)" d="M 531.850702 193.792218 
L 531.850702 240.529768 
" style="fill:none;stroke:#696969;"/>
    <path clip-path="url(#pd3c7261c7e)" d="M 535.323464 162.615847 
L 535.323464 209.736105 
" style="fill:none;stroke:#696969;"/>
    <path clip-path="url(#pd3c7261c7e)" d="M 544.820884 178.820044 
L 544.820884 275.359108 
" style="fill:none;stroke:#696969;"/>
    <path clip-path="url(#pd3c7261c7e)" d="M 553.953019 152.599344 
L 553.953019 198.570328 
" style="fill:none;stroke:#696969;"/>
    <path clip-path="url(#pd3c7261c7e)" d="M 554.203004 188.452114 
L 554.203004 229.44329 
" style="fill:none;stroke:#696969;"/>
    <path clip-path="url(#pd3c7261c7e)" d="M 559.727181 129.671317 
L 559.727181 219.314734 
" style="fill:none;stroke:#696969;"/>
    <path clip-path="url(#pd3c7261c7e)" d="M 560.069508 66.96 
L 560.069508 192.230929 
" style="fill:none;stroke:#696969;"/>
    <path clip-path="url(#pd3c7261c7e)" d="M 565.009024 181.462801 
L 565.009024 259.613472 
" style="fill:none;stroke:#696969;"/>
    <path clip-path="url(#pd3c7261c7e)" d="M 568.854213 131.600374 
L 568.854213 175.272808 
" style="fill:none;stroke:#696969;"/>
    <path clip-path="url(#pd3c7261c7e)" d="M 576.565 189.049162 
L 576.565 224.676674 
" style="fill:none;stroke:#696969;"/>
    <path clip-path="url(#pd3c7261c7e)" d="M 582.650879 106.993831 
L 582.650879 175.950305 
" style="fill:none;stroke:#696969;"/>
    <path clip-path="url(#pd3c7261c7e)" d="M 583.647761 177.362764 
L 583.647761 253.214886 
" style="fill:none;stroke:#696969;"/>
    <path clip-path="url(#pd3c7261c7e)" d="M 593.718108 164.841417 
L 593.718108 198.17038 
" style="fill:none;stroke:#696969;"/>
    <path clip-path="url(#pd3c7261c7e)" d="M 600.908006 152.2741 
L 600.908006 192.49871 
" style="fill:none;stroke:#696969;"/>
    <path clip-path="url(#pd3c7261c7e)" d="M 604.382298 128.239895 
L 604.382298 192.98198 
" style="fill:none;stroke:#696969;"/>
    <path clip-path="url(#pd3c7261c7e)" d="M 615.439323 213.504576 
L 615.439323 253.729186 
" style="fill:none;stroke:#696969;"/>
    <path clip-path="url(#pd3c7261c7e)" d="M 622.636364 200.1592 
L 622.636364 240.38381 
" style="fill:none;stroke:#696969;"/>
   </g>
   <g id="line2d_25">
    <defs>
     <path d="M 2 0 
L -2 -0 
" id="ma27f95b6c0" style="stroke:#696969;"/>
    </defs>
    <g clip-path="url(#pd3c7261c7e)">
     <use style="fill:#696969;stroke:#696969;" x="115.363636" xlink:href="#ma27f95b6c0" y="156.735009"/>
     <use style="fill:#696969;stroke:#696969;" x="116.574792" xlink:href="#ma27f95b6c0" y="128.238171"/>
     <use style="fill:#696969;stroke:#696969;" x="120.162343" xlink:href="#ma27f95b6c0" y="178.147718"/>
     <use style="fill:#696969;stroke:#696969;" x="126.127821" xlink:href="#ma27f95b6c0" y="189.288786"/>
     <use style="fill:#696969;stroke:#696969;" x="127.361425" xlink:href="#ma27f95b6c0" y="203.4852"/>
     <use style="fill:#696969;stroke:#696969;" x="129.655682" xlink:href="#ma27f95b6c0" y="242.643284"/>
     <use style="fill:#696969;stroke:#696969;" x="136.383871" xlink:href="#ma27f95b6c0" y="180.435924"/>
     <use style="fill:#696969;stroke:#696969;" x="138.941379" xlink:href="#ma27f95b6c0" y="170.948662"/>
     <use style="fill:#696969;stroke:#696969;" x="150.396851" xlink:href="#ma27f95b6c0" y="190.043285"/>
     <use style="fill:#696969;stroke:#696969;" x="152.212564" xlink:href="#ma27f95b6c0" y="211.119831"/>
     <use style="fill:#696969;stroke:#696969;" x="162.5431" xlink:href="#ma27f95b6c0" y="256.685695"/>
     <use style="fill:#696969;stroke:#696969;" x="185.990749" xlink:href="#ma27f95b6c0" y="237.879541"/>
     <use style="fill:#696969;stroke:#696969;" x="187.144254" xlink:href="#ma27f95b6c0" y="234.414478"/>
     <use style="fill:#696969;stroke:#696969;" x="193.440326" xlink:href="#ma27f95b6c0" y="202.014129"/>
     <use style="fill:#696969;stroke:#696969;" x="201.455177" xlink:href="#ma27f95b6c0" y="239.69482"/>
     <use style="fill:#696969;stroke:#696969;" x="203.987686" xlink:href="#ma27f95b6c0" y="212.060512"/>
     <use style="fill:#696969;stroke:#696969;" x="204.272874" xlink:href="#ma27f95b6c0" y="245.591173"/>
     <use style="fill:#696969;stroke:#696969;" x="215.788546" xlink:href="#ma27f95b6c0" y="202.021024"/>
     <use style="fill:#696969;stroke:#696969;" x="216.328312" xlink:href="#ma27f95b6c0" y="197.382552"/>
     <use style="fill:#696969;stroke:#696969;" x="222.459086" xlink:href="#ma27f95b6c0" y="200.57064"/>
     <use style="fill:#696969;stroke:#696969;" x="224.871194" xlink:href="#ma27f95b6c0" y="222.4965"/>
     <use style="fill:#696969;stroke:#696969;" x="231.226956" xlink:href="#ma27f95b6c0" y="232.242349"/>
     <use style="fill:#696969;stroke:#696969;" x="238.680614" xlink:href="#ma27f95b6c0" y="166.359609"/>
     <use style="fill:#696969;stroke:#696969;" x="241.062111" xlink:href="#ma27f95b6c0" y="182.859744"/>
     <use style="fill:#696969;stroke:#696969;" x="254.060353" xlink:href="#ma27f95b6c0" y="202.340523"/>
     <use style="fill:#696969;stroke:#696969;" x="257.31527" xlink:href="#ma27f95b6c0" y="215.814618"/>
     <use style="fill:#696969;stroke:#696969;" x="261.781343" xlink:href="#ma27f95b6c0" y="183.42806"/>
     <use style="fill:#696969;stroke:#696969;" x="272.707763" xlink:href="#ma27f95b6c0" y="199.519628"/>
     <use style="fill:#696969;stroke:#696969;" x="279.675225" xlink:href="#ma27f95b6c0" y="204.880994"/>
     <use style="fill:#696969;stroke:#696969;" x="295.066698" xlink:href="#ma27f95b6c0" y="151.656939"/>
     <use style="fill:#696969;stroke:#696969;" x="309.386293" xlink:href="#ma27f95b6c0" y="172.038749"/>
     <use style="fill:#696969;stroke:#696969;" x="310.930083" xlink:href="#ma27f95b6c0" y="177.063378"/>
     <use style="fill:#696969;stroke:#696969;" x="323.662013" xlink:href="#ma27f95b6c0" y="214.79751"/>
     <use style="fill:#696969;stroke:#696969;" x="337.220427" xlink:href="#ma27f95b6c0" y="157.987144"/>
     <use style="fill:#696969;stroke:#696969;" x="346.033702" xlink:href="#ma27f95b6c0" y="196.393027"/>
     <use style="fill:#696969;stroke:#696969;" x="348.617739" xlink:href="#ma27f95b6c0" y="118.483703"/>
     <use style="fill:#696969;stroke:#696969;" x="354.385269" xlink:href="#ma27f95b6c0" y="87.228032"/>
     <use style="fill:#696969;stroke:#696969;" x="358.948275" xlink:href="#ma27f95b6c0" y="191.88902"/>
     <use style="fill:#696969;stroke:#696969;" x="369.609404" xlink:href="#ma27f95b6c0" y="161.341301"/>
     <use style="fill:#696969;stroke:#696969;" x="373.019415" xlink:href="#ma27f95b6c0" y="180.945627"/>
     <use style="fill:#696969;stroke:#696969;" x="374.613712" xlink:href="#ma27f95b6c0" y="196.174665"/>
     <use style="fill:#696969;stroke:#696969;" x="381.304148" xlink:href="#ma27f95b6c0" y="224.844468"/>
     <use style="fill:#696969;stroke:#696969;" x="383.598916" xlink:href="#ma27f95b6c0" y="235.117834"/>
     <use style="fill:#696969;stroke:#696969;" x="396.209424" xlink:href="#ma27f95b6c0" y="233.150276"/>
     <use style="fill:#696969;stroke:#696969;" x="397.576184" xlink:href="#ma27f95b6c0" y="258.899198"/>
     <use style="fill:#696969;stroke:#696969;" x="436.291842" xlink:href="#ma27f95b6c0" y="211.968571"/>
     <use style="fill:#696969;stroke:#696969;" x="446.997357" xlink:href="#ma27f95b6c0" y="221.940826"/>
     <use style="fill:#696969;stroke:#696969;" x="457.856434" xlink:href="#ma27f95b6c0" y="245.344079"/>
     <use style="fill:#696969;stroke:#696969;" x="470.40113" xlink:href="#ma27f95b6c0" y="272.368696"/>
     <use style="fill:#696969;stroke:#696969;" x="473.073427" xlink:href="#ma27f95b6c0" y="230.459824"/>
     <use style="fill:#696969;stroke:#696969;" x="480.209247" xlink:href="#ma27f95b6c0" y="250.33308"/>
     <use style="fill:#696969;stroke:#696969;" x="487.978703" xlink:href="#ma27f95b6c0" y="276.701461"/>
     <use style="fill:#696969;stroke:#696969;" x="492.129998" xlink:href="#ma27f95b6c0" y="199.362178"/>
     <use style="fill:#696969;stroke:#696969;" x="495.107891" xlink:href="#ma27f95b6c0" y="200.409741"/>
     <use style="fill:#696969;stroke:#696969;" x="504.185946" xlink:href="#ma27f95b6c0" y="155.654691"/>
     <use style="fill:#696969;stroke:#696969;" x="507.044458" xlink:href="#ma27f95b6c0" y="167.234782"/>
     <use style="fill:#696969;stroke:#696969;" x="510.127446" xlink:href="#ma27f95b6c0" y="167.923197"/>
     <use style="fill:#696969;stroke:#696969;" x="531.850702" xlink:href="#ma27f95b6c0" y="193.792218"/>
     <use style="fill:#696969;stroke:#696969;" x="535.323464" xlink:href="#ma27f95b6c0" y="162.615847"/>
     <use style="fill:#696969;stroke:#696969;" x="544.820884" xlink:href="#ma27f95b6c0" y="178.820044"/>
     <use style="fill:#696969;stroke:#696969;" x="553.953019" xlink:href="#ma27f95b6c0" y="152.599344"/>
     <use style="fill:#696969;stroke:#696969;" x="554.203004" xlink:href="#ma27f95b6c0" y="188.452114"/>
     <use style="fill:#696969;stroke:#696969;" x="559.727181" xlink:href="#ma27f95b6c0" y="129.671317"/>
     <use style="fill:#696969;stroke:#696969;" x="560.069508" xlink:href="#ma27f95b6c0" y="66.96"/>
     <use style="fill:#696969;stroke:#696969;" x="565.009024" xlink:href="#ma27f95b6c0" y="181.462801"/>
     <use style="fill:#696969;stroke:#696969;" x="568.854213" xlink:href="#ma27f95b6c0" y="131.600374"/>
     <use style="fill:#696969;stroke:#696969;" x="576.565" xlink:href="#ma27f95b6c0" y="189.049162"/>
     <use style="fill:#696969;stroke:#696969;" x="582.650879" xlink:href="#ma27f95b6c0" y="106.993831"/>
     <use style="fill:#696969;stroke:#696969;" x="583.647761" xlink:href="#ma27f95b6c0" y="177.362764"/>
     <use style="fill:#696969;stroke:#696969;" x="593.718108" xlink:href="#ma27f95b6c0" y="164.841417"/>
     <use style="fill:#696969;stroke:#696969;" x="600.908006" xlink:href="#ma27f95b6c0" y="152.2741"/>
     <use style="fill:#696969;stroke:#696969;" x="604.382298" xlink:href="#ma27f95b6c0" y="128.239895"/>
     <use style="fill:#696969;stroke:#696969;" x="615.439323" xlink:href="#ma27f95b6c0" y="213.504576"/>
     <use style="fill:#696969;stroke:#696969;" x="622.636364" xlink:href="#ma27f95b6c0" y="200.1592"/>
    </g>
   </g>
   <g id="line2d_26">
    <g clip-path="url(#pd3c7261c7e)">
     <use style="fill:#696969;stroke:#696969;" x="115.363636" xlink:href="#ma27f95b6c0" y="236.801521"/>
     <use style="fill:#696969;stroke:#696969;" x="116.574792" xlink:href="#ma27f95b6c0" y="185.7019"/>
     <use style="fill:#696969;stroke:#696969;" x="120.162343" xlink:href="#ma27f95b6c0" y="229.865074"/>
     <use style="fill:#696969;stroke:#696969;" x="126.127821" xlink:href="#ma27f95b6c0" y="285.445142"/>
     <use style="fill:#696969;stroke:#696969;" x="127.361425" xlink:href="#ma27f95b6c0" y="241.411261"/>
     <use style="fill:#696969;stroke:#696969;" x="129.655682" xlink:href="#ma27f95b6c0" y="320.793955"/>
     <use style="fill:#696969;stroke:#696969;" x="136.383871" xlink:href="#ma27f95b6c0" y="270.462049"/>
     <use style="fill:#696969;stroke:#696969;" x="138.941379" xlink:href="#ma27f95b6c0" y="229.178957"/>
     <use style="fill:#696969;stroke:#696969;" x="150.396851" xlink:href="#ma27f95b6c0" y="315.314214"/>
     <use style="fill:#696969;stroke:#696969;" x="152.212564" xlink:href="#ma27f95b6c0" y="300.763248"/>
     <use style="fill:#696969;stroke:#696969;" x="162.5431" xlink:href="#ma27f95b6c0" y="330.239268"/>
     <use style="fill:#696969;stroke:#696969;" x="185.990749" xlink:href="#ma27f95b6c0" y="321.776585"/>
     <use style="fill:#696969;stroke:#696969;" x="187.144254" xlink:href="#ma27f95b6c0" y="273.489813"/>
     <use style="fill:#696969;stroke:#696969;" x="193.440326" xlink:href="#ma27f95b6c0" y="280.1648"/>
     <use style="fill:#696969;stroke:#696969;" x="201.455177" xlink:href="#ma27f95b6c0" y="353.473003"/>
     <use style="fill:#696969;stroke:#696969;" x="203.987686" xlink:href="#ma27f95b6c0" y="290.211184"/>
     <use style="fill:#696969;stroke:#696969;" x="204.272874" xlink:href="#ma27f95b6c0" y="312.249098"/>
     <use style="fill:#696969;stroke:#696969;" x="215.788546" xlink:href="#ma27f95b6c0" y="280.171696"/>
     <use style="fill:#696969;stroke:#696969;" x="216.328312" xlink:href="#ma27f95b6c0" y="233.77663"/>
     <use style="fill:#696969;stroke:#696969;" x="222.459086" xlink:href="#ma27f95b6c0" y="263.014176"/>
     <use style="fill:#696969;stroke:#696969;" x="224.871194" xlink:href="#ma27f95b6c0" y="300.647172"/>
     <use style="fill:#696969;stroke:#696969;" x="231.226956" xlink:href="#ma27f95b6c0" y="293.153901"/>
     <use style="fill:#696969;stroke:#696969;" x="238.680614" xlink:href="#ma27f95b6c0" y="201.604412"/>
     <use style="fill:#696969;stroke:#696969;" x="241.062111" xlink:href="#ma27f95b6c0" y="241.472747"/>
     <use style="fill:#696969;stroke:#696969;" x="254.060353" xlink:href="#ma27f95b6c0" y="280.491194"/>
     <use style="fill:#696969;stroke:#696969;" x="257.31527" xlink:href="#ma27f95b6c0" y="272.129072"/>
     <use style="fill:#696969;stroke:#696969;" x="261.781343" xlink:href="#ma27f95b6c0" y="229.399043"/>
     <use style="fill:#696969;stroke:#696969;" x="272.707763" xlink:href="#ma27f95b6c0" y="283.416672"/>
     <use style="fill:#696969;stroke:#696969;" x="279.675225" xlink:href="#ma27f95b6c0" y="259.279608"/>
     <use style="fill:#696969;stroke:#696969;" x="295.066698" xlink:href="#ma27f95b6c0" y="221.762688"/>
     <use style="fill:#696969;stroke:#696969;" x="309.386293" xlink:href="#ma27f95b6c0" y="223.756105"/>
     <use style="fill:#696969;stroke:#696969;" x="310.930083" xlink:href="#ma27f95b6c0" y="239.124205"/>
     <use style="fill:#696969;stroke:#696969;" x="323.662013" xlink:href="#ma27f95b6c0" y="268.813415"/>
     <use style="fill:#696969;stroke:#696969;" x="337.220427" xlink:href="#ma27f95b6c0" y="217.749422"/>
     <use style="fill:#696969;stroke:#696969;" x="346.033702" xlink:href="#ma27f95b6c0" y="250.79164"/>
     <use style="fill:#696969;stroke:#696969;" x="348.617739" xlink:href="#ma27f95b6c0" y="232.261886"/>
     <use style="fill:#696969;stroke:#696969;" x="354.385269" xlink:href="#ma27f95b6c0" y="322.254683"/>
     <use style="fill:#696969;stroke:#696969;" x="358.948275" xlink:href="#ma27f95b6c0" y="252.417864"/>
     <use style="fill:#696969;stroke:#696969;" x="369.609404" xlink:href="#ma27f95b6c0" y="369.36"/>
     <use style="fill:#696969;stroke:#696969;" x="373.019415" xlink:href="#ma27f95b6c0" y="259.096298"/>
     <use style="fill:#696969;stroke:#696969;" x="374.613712" xlink:href="#ma27f95b6c0" y="300.758651"/>
     <use style="fill:#696969;stroke:#696969;" x="381.304148" xlink:href="#ma27f95b6c0" y="287.288004"/>
     <use style="fill:#696969;stroke:#696969;" x="383.598916" xlink:href="#ma27f95b6c0" y="300.626485"/>
     <use style="fill:#696969;stroke:#696969;" x="396.209424" xlink:href="#ma27f95b6c0" y="295.211103"/>
     <use style="fill:#696969;stroke:#696969;" x="397.576184" xlink:href="#ma27f95b6c0" y="342.796242"/>
     <use style="fill:#696969;stroke:#696969;" x="436.291842" xlink:href="#ma27f95b6c0" y="308.507635"/>
     <use style="fill:#696969;stroke:#696969;" x="446.997357" xlink:href="#ma27f95b6c0" y="335.719009"/>
     <use style="fill:#696969;stroke:#696969;" x="457.856434" xlink:href="#ma27f95b6c0" y="305.106357"/>
     <use style="fill:#696969;stroke:#696969;" x="470.40113" xlink:href="#ma27f95b6c0" y="350.519367"/>
     <use style="fill:#696969;stroke:#696969;" x="473.073427" xlink:href="#ma27f95b6c0" y="304.396105"/>
     <use style="fill:#696969;stroke:#696969;" x="480.209247" xlink:href="#ma27f95b6c0" y="310.095358"/>
     <use style="fill:#696969;stroke:#696969;" x="487.978703" xlink:href="#ma27f95b6c0" y="346.80721"/>
     <use style="fill:#696969;stroke:#696969;" x="492.129998" xlink:href="#ma27f95b6c0" y="287.473612"/>
     <use style="fill:#696969;stroke:#696969;" x="495.107891" xlink:href="#ma27f95b6c0" y="254.425647"/>
     <use style="fill:#696969;stroke:#696969;" x="504.185946" xlink:href="#ma27f95b6c0" y="231.506813"/>
     <use style="fill:#696969;stroke:#696969;" x="507.044458" xlink:href="#ma27f95b6c0" y="251.131826"/>
     <use style="fill:#696969;stroke:#696969;" x="510.127446" xlink:href="#ma27f95b6c0" y="218.491278"/>
     <use style="fill:#696969;stroke:#696969;" x="531.850702" xlink:href="#ma27f95b6c0" y="240.529768"/>
     <use style="fill:#696969;stroke:#696969;" x="535.323464" xlink:href="#ma27f95b6c0" y="209.736105"/>
     <use style="fill:#696969;stroke:#696969;" x="544.820884" xlink:href="#ma27f95b6c0" y="275.359108"/>
     <use style="fill:#696969;stroke:#696969;" x="553.953019" xlink:href="#ma27f95b6c0" y="198.570328"/>
     <use style="fill:#696969;stroke:#696969;" x="554.203004" xlink:href="#ma27f95b6c0" y="229.44329"/>
     <use style="fill:#696969;stroke:#696969;" x="559.727181" xlink:href="#ma27f95b6c0" y="219.314734"/>
     <use style="fill:#696969;stroke:#696969;" x="560.069508" xlink:href="#ma27f95b6c0" y="192.230929"/>
     <use style="fill:#696969;stroke:#696969;" x="565.009024" xlink:href="#ma27f95b6c0" y="259.613472"/>
     <use style="fill:#696969;stroke:#696969;" x="568.854213" xlink:href="#ma27f95b6c0" y="175.272808"/>
     <use style="fill:#696969;stroke:#696969;" x="576.565" xlink:href="#ma27f95b6c0" y="224.676674"/>
     <use style="fill:#696969;stroke:#696969;" x="582.650879" xlink:href="#ma27f95b6c0" y="175.950305"/>
     <use style="fill:#696969;stroke:#696969;" x="583.647761" xlink:href="#ma27f95b6c0" y="253.214886"/>
     <use style="fill:#696969;stroke:#696969;" x="593.718108" xlink:href="#ma27f95b6c0" y="198.17038"/>
     <use style="fill:#696969;stroke:#696969;" x="600.908006" xlink:href="#ma27f95b6c0" y="192.49871"/>
     <use style="fill:#696969;stroke:#696969;" x="604.382298" xlink:href="#ma27f95b6c0" y="192.98198"/>
     <use style="fill:#696969;stroke:#696969;" x="615.439323" xlink:href="#ma27f95b6c0" y="253.729186"/>
     <use style="fill:#696969;stroke:#696969;" x="622.636364" xlink:href="#ma27f95b6c0" y="240.38381"/>
    </g>
   </g>
   <g id="line2d_27">
    <defs>
     <path d="M 0 3 
C 0.795609 3 1.55874 2.683901 2.12132 2.12132 
C 2.683901 1.55874 3 0.795609 3 0 
C 3 -0.795609 2.683901 -1.55874 2.12132 -2.12132 
C 1.55874 -2.683901 0.795609 -3 0 -3 
C -0.795609 -3 -1.55874 -2.683901 -2.12132 -2.12132 
C -2.683901 -1.55874 -3 -0.795609 -3 0 
C -3 0.795609 -2.683901 1.55874 -2.12132 2.12132 
C -1.55874 2.683901 -0.795609 3 0 3 
z
" id="mec2a9f748e" style="stroke:#1f77b4;"/>
    </defs>
    <g clip-path="url(#pd3c7261c7e)">
     <use style="fill:#1f77b4;stroke:#1f77b4;" x="115.363636" xlink:href="#mec2a9f748e" y="196.768265"/>
     <use style="fill:#1f77b4;stroke:#1f77b4;" x="116.574792" xlink:href="#mec2a9f748e" y="156.970036"/>
     <use style="fill:#1f77b4;stroke:#1f77b4;" x="120.162343" xlink:href="#mec2a9f748e" y="204.006396"/>
     <use style="fill:#1f77b4;stroke:#1f77b4;" x="126.127821" xlink:href="#mec2a9f748e" y="237.366964"/>
     <use style="fill:#1f77b4;stroke:#1f77b4;" x="127.361425" xlink:href="#mec2a9f748e" y="222.448231"/>
     <use style="fill:#1f77b4;stroke:#1f77b4;" x="129.655682" xlink:href="#mec2a9f748e" y="281.718619"/>
     <use style="fill:#1f77b4;stroke:#1f77b4;" x="136.383871" xlink:href="#mec2a9f748e" y="225.448987"/>
     <use style="fill:#1f77b4;stroke:#1f77b4;" x="138.941379" xlink:href="#mec2a9f748e" y="200.06381"/>
     <use style="fill:#1f77b4;stroke:#1f77b4;" x="150.396851" xlink:href="#mec2a9f748e" y="252.678749"/>
     <use style="fill:#1f77b4;stroke:#1f77b4;" x="152.212564" xlink:href="#mec2a9f748e" y="255.94154"/>
     <use style="fill:#1f77b4;stroke:#1f77b4;" x="162.5431" xlink:href="#mec2a9f748e" y="293.462482"/>
     <use style="fill:#1f77b4;stroke:#1f77b4;" x="185.990749" xlink:href="#mec2a9f748e" y="279.828063"/>
     <use style="fill:#1f77b4;stroke:#1f77b4;" x="187.144254" xlink:href="#mec2a9f748e" y="253.952145"/>
     <use style="fill:#1f77b4;stroke:#1f77b4;" x="193.440326" xlink:href="#mec2a9f748e" y="241.089464"/>
     <use style="fill:#1f77b4;stroke:#1f77b4;" x="201.455177" xlink:href="#mec2a9f748e" y="296.583911"/>
     <use style="fill:#1f77b4;stroke:#1f77b4;" x="203.987686" xlink:href="#mec2a9f748e" y="251.135848"/>
     <use style="fill:#1f77b4;stroke:#1f77b4;" x="204.272874" xlink:href="#mec2a9f748e" y="278.920136"/>
     <use style="fill:#1f77b4;stroke:#1f77b4;" x="215.788546" xlink:href="#mec2a9f748e" y="241.09636"/>
     <use style="fill:#1f77b4;stroke:#1f77b4;" x="216.328312" xlink:href="#mec2a9f748e" y="215.579591"/>
     <use style="fill:#1f77b4;stroke:#1f77b4;" x="222.459086" xlink:href="#mec2a9f748e" y="231.792408"/>
     <use style="fill:#1f77b4;stroke:#1f77b4;" x="224.871194" xlink:href="#mec2a9f748e" y="261.571836"/>
     <use style="fill:#1f77b4;stroke:#1f77b4;" x="231.226956" xlink:href="#mec2a9f748e" y="262.698125"/>
     <use style="fill:#1f77b4;stroke:#1f77b4;" x="238.680614" xlink:href="#mec2a9f748e" y="183.982011"/>
     <use style="fill:#1f77b4;stroke:#1f77b4;" x="241.062111" xlink:href="#mec2a9f748e" y="212.166246"/>
     <use style="fill:#1f77b4;stroke:#1f77b4;" x="254.060353" xlink:href="#mec2a9f748e" y="241.415858"/>
     <use style="fill:#1f77b4;stroke:#1f77b4;" x="257.31527" xlink:href="#mec2a9f748e" y="243.971845"/>
     <use style="fill:#1f77b4;stroke:#1f77b4;" x="261.781343" xlink:href="#mec2a9f748e" y="206.413552"/>
     <use style="fill:#1f77b4;stroke:#1f77b4;" x="272.707763" xlink:href="#mec2a9f748e" y="241.46815"/>
     <use style="fill:#1f77b4;stroke:#1f77b4;" x="279.675225" xlink:href="#mec2a9f748e" y="232.080301"/>
     <use style="fill:#1f77b4;stroke:#1f77b4;" x="295.066698" xlink:href="#mec2a9f748e" y="186.709814"/>
     <use style="fill:#1f77b4;stroke:#1f77b4;" x="309.386293" xlink:href="#mec2a9f748e" y="197.897427"/>
     <use style="fill:#1f77b4;stroke:#1f77b4;" x="310.930083" xlink:href="#mec2a9f748e" y="208.093791"/>
     <use style="fill:#1f77b4;stroke:#1f77b4;" x="323.662013" xlink:href="#mec2a9f748e" y="241.805462"/>
     <use style="fill:#1f77b4;stroke:#1f77b4;" x="337.220427" xlink:href="#mec2a9f748e" y="187.868283"/>
     <use style="fill:#1f77b4;stroke:#1f77b4;" x="346.033702" xlink:href="#mec2a9f748e" y="223.592334"/>
     <use style="fill:#1f77b4;stroke:#1f77b4;" x="348.617739" xlink:href="#mec2a9f748e" y="175.372795"/>
     <use style="fill:#1f77b4;stroke:#1f77b4;" x="354.385269" xlink:href="#mec2a9f748e" y="204.741357"/>
     <use style="fill:#1f77b4;stroke:#1f77b4;" x="358.948275" xlink:href="#mec2a9f748e" y="222.153442"/>
     <use style="fill:#1f77b4;stroke:#1f77b4;" x="369.609404" xlink:href="#mec2a9f748e" y="265.350651"/>
     <use style="fill:#1f77b4;stroke:#1f77b4;" x="373.019415" xlink:href="#mec2a9f748e" y="220.020963"/>
     <use style="fill:#1f77b4;stroke:#1f77b4;" x="374.613712" xlink:href="#mec2a9f748e" y="248.466658"/>
     <use style="fill:#1f77b4;stroke:#1f77b4;" x="381.304148" xlink:href="#mec2a9f748e" y="256.066236"/>
     <use style="fill:#1f77b4;stroke:#1f77b4;" x="383.598916" xlink:href="#mec2a9f748e" y="267.872159"/>
     <use style="fill:#1f77b4;stroke:#1f77b4;" x="396.209424" xlink:href="#mec2a9f748e" y="264.180689"/>
     <use style="fill:#1f77b4;stroke:#1f77b4;" x="397.576184" xlink:href="#mec2a9f748e" y="300.84772"/>
     <use style="fill:#1f77b4;stroke:#1f77b4;" x="436.291842" xlink:href="#mec2a9f748e" y="260.238103"/>
     <use style="fill:#1f77b4;stroke:#1f77b4;" x="446.997357" xlink:href="#mec2a9f748e" y="278.829918"/>
     <use style="fill:#1f77b4;stroke:#1f77b4;" x="457.856434" xlink:href="#mec2a9f748e" y="275.225218"/>
     <use style="fill:#1f77b4;stroke:#1f77b4;" x="470.40113" xlink:href="#mec2a9f748e" y="311.444032"/>
     <use style="fill:#1f77b4;stroke:#1f77b4;" x="473.073427" xlink:href="#mec2a9f748e" y="267.427965"/>
     <use style="fill:#1f77b4;stroke:#1f77b4;" x="480.209247" xlink:href="#mec2a9f748e" y="280.214219"/>
     <use style="fill:#1f77b4;stroke:#1f77b4;" x="487.978703" xlink:href="#mec2a9f748e" y="311.754336"/>
     <use style="fill:#1f77b4;stroke:#1f77b4;" x="492.129998" xlink:href="#mec2a9f748e" y="243.417895"/>
     <use style="fill:#1f77b4;stroke:#1f77b4;" x="495.107891" xlink:href="#mec2a9f748e" y="227.417694"/>
     <use style="fill:#1f77b4;stroke:#1f77b4;" x="504.185946" xlink:href="#mec2a9f748e" y="193.580752"/>
     <use style="fill:#1f77b4;stroke:#1f77b4;" x="507.044458" xlink:href="#mec2a9f748e" y="209.183304"/>
     <use style="fill:#1f77b4;stroke:#1f77b4;" x="510.127446" xlink:href="#mec2a9f748e" y="193.207238"/>
     <use style="fill:#1f77b4;stroke:#1f77b4;" x="531.850702" xlink:href="#mec2a9f748e" y="217.160993"/>
     <use style="fill:#1f77b4;stroke:#1f77b4;" x="535.323464" xlink:href="#mec2a9f748e" y="186.175976"/>
     <use style="fill:#1f77b4;stroke:#1f77b4;" x="544.820884" xlink:href="#mec2a9f748e" y="227.089576"/>
     <use style="fill:#1f77b4;stroke:#1f77b4;" x="553.953019" xlink:href="#mec2a9f748e" y="175.584836"/>
     <use style="fill:#1f77b4;stroke:#1f77b4;" x="554.203004" xlink:href="#mec2a9f748e" y="208.947702"/>
     <use style="fill:#1f77b4;stroke:#1f77b4;" x="559.727181" xlink:href="#mec2a9f748e" y="174.493025"/>
     <use style="fill:#1f77b4;stroke:#1f77b4;" x="560.069508" xlink:href="#mec2a9f748e" y="129.595464"/>
     <use style="fill:#1f77b4;stroke:#1f77b4;" x="565.009024" xlink:href="#mec2a9f748e" y="220.538136"/>
     <use style="fill:#1f77b4;stroke:#1f77b4;" x="568.854213" xlink:href="#mec2a9f748e" y="153.436591"/>
     <use style="fill:#1f77b4;stroke:#1f77b4;" x="576.565" xlink:href="#mec2a9f748e" y="206.862918"/>
     <use style="fill:#1f77b4;stroke:#1f77b4;" x="582.650879" xlink:href="#mec2a9f748e" y="141.472068"/>
     <use style="fill:#1f77b4;stroke:#1f77b4;" x="583.647761" xlink:href="#mec2a9f748e" y="215.288825"/>
     <use style="fill:#1f77b4;stroke:#1f77b4;" x="593.718108" xlink:href="#mec2a9f748e" y="181.505899"/>
     <use style="fill:#1f77b4;stroke:#1f77b4;" x="600.908006" xlink:href="#mec2a9f748e" y="172.386405"/>
     <use style="fill:#1f77b4;stroke:#1f77b4;" x="604.382298" xlink:href="#mec2a9f748e" y="160.610937"/>
     <use style="fill:#1f77b4;stroke:#1f77b4;" x="615.439323" xlink:href="#mec2a9f748e" y="233.616881"/>
     <use style="fill:#1f77b4;stroke:#1f77b4;" x="622.636364" xlink:href="#mec2a9f748e" y="220.271505"/>
    </g>
   </g>
   <g id="line2d_28">
    <path clip-path="url(#pd3c7261c7e)" d="M 115.363636 204.510353 
L 120.446529 212.899103 
L 131.628894 231.666075 
L 135.695209 238.046949 
L 139.761523 243.970974 
L 142.811259 248.055076 
L 145.860995 251.810092 
L 148.910731 255.220277 
L 151.960466 258.270394 
L 155.010202 260.956943 
L 158.059938 263.290544 
L 161.109674 265.28335 
L 164.15941 266.947262 
L 167.209146 268.289203 
L 170.258881 269.311486 
L 173.308617 270.016253 
L 176.358353 270.405645 
L 179.408089 270.481803 
L 182.457825 270.246868 
L 185.507561 269.702983 
L 188.557296 268.848501 
L 191.607032 267.672031 
L 194.656768 266.172004 
L 197.706504 264.353471 
L 200.75624 262.228723 
L 203.805976 259.811195 
L 206.855711 257.122719 
L 210.922026 253.188356 
L 216.004919 247.863891 
L 227.187284 235.855985 
L 231.253598 231.908743 
L 234.303334 229.25688 
L 237.35307 226.929621 
L 240.402806 224.976703 
L 242.435963 223.908187 
L 244.46912 223.032738 
L 246.502277 222.34627 
L 248.535435 221.844577 
L 250.568592 221.523451 
L 252.601749 221.378686 
L 254.634906 221.405998 
L 257.684642 221.741162 
L 260.734378 222.359161 
L 264.800692 223.489926 
L 273.9499 226.266714 
L 276.999636 226.923995 
L 279.032793 227.201283 
L 281.06595 227.315755 
L 283.099107 227.2523 
L 285.132265 227.004392 
L 287.165422 226.565629 
L 289.198579 225.929611 
L 291.231736 225.089935 
L 293.264893 224.0402 
L 295.298051 222.774014 
L 297.331208 221.292961 
L 300.380944 218.72305 
L 303.43068 215.82032 
L 307.496994 211.597922 
L 316.646201 201.863071 
L 319.695937 199.019417 
L 321.729095 197.354236 
L 323.762252 195.921003 
L 325.795409 194.756166 
L 327.828566 193.881515 
L 329.861723 193.315682 
L 331.894881 193.077296 
L 333.928038 193.18499 
L 335.961195 193.657393 
L 337.994352 194.512819 
L 340.02751 195.755697 
L 342.060667 197.371474 
L 344.093824 199.344229 
L 346.126981 201.658043 
L 348.160138 204.2946 
L 350.193296 207.226647 
L 353.243032 212.104258 
L 356.292767 217.448173 
L 360.359082 225.057453 
L 369.508289 242.491668 
L 372.558025 247.883692 
L 375.607761 252.853224 
L 378.657497 257.301011 
L 380.690654 259.943595 
L 382.723811 262.306556 
L 384.756968 264.37314 
L 386.790126 266.141744 
L 388.823283 267.622991 
L 390.85644 268.827878 
L 392.889597 269.767399 
L 394.922755 270.452554 
L 396.955912 270.8957 
L 400.005648 271.258722 
L 403.055383 271.400989 
L 407.121698 271.346758 
L 421.353799 270.819543 
L 424.403534 271.014286 
L 427.45327 271.444023 
L 430.503006 272.165627 
L 432.536163 272.836931 
L 434.56932 273.680083 
L 436.602478 274.711892 
L 439.652214 276.596518 
L 443.718528 279.471204 
L 448.801421 283.032809 
L 451.851157 284.867541 
L 453.884314 285.891488 
L 455.917471 286.717126 
L 457.950629 287.311072 
L 459.983786 287.642646 
L 462.016943 287.690571 
L 464.0501 287.435614 
L 466.083257 286.858545 
L 468.116415 285.94013 
L 470.149572 284.661138 
L 472.182729 283.006157 
L 474.215886 280.98198 
L 476.249044 278.603314 
L 478.282201 275.884788 
L 480.315358 272.841029 
L 482.348515 269.490476 
L 485.398251 263.959135 
L 488.447987 257.923989 
L 492.514301 249.307982 
L 504.713245 222.792409 
L 507.762981 216.73659 
L 510.812716 211.161777 
L 513.862452 206.203227 
L 515.895609 203.244607 
L 517.928767 200.560245 
L 519.961924 198.147218 
L 521.995081 196.002607 
L 524.028238 194.12349 
L 526.061396 192.506946 
L 528.094553 191.150055 
L 530.12771 190.049895 
L 532.160867 189.203516 
L 534.194024 188.59563 
L 536.227182 188.179797 
L 539.276917 187.830305 
L 542.326653 187.724102 
L 547.409546 187.830701 
L 553.509018 187.93466 
L 556.558754 187.798041 
L 559.60849 187.47218 
L 562.658226 186.927946 
L 565.707961 186.166192 
L 568.757697 185.197746 
L 572.824012 183.648458 
L 585.022955 178.69693 
L 588.072691 177.810897 
L 590.105848 177.385995 
L 592.139005 177.121173 
L 594.172163 177.039942 
L 596.20532 177.162398 
L 598.238477 177.501506 
L 600.271634 178.069336 
L 602.304791 178.877831 
L 604.337949 179.937582 
L 606.371106 181.255229 
L 608.404263 182.82405 
L 610.43742 184.63376 
L 612.470578 186.674074 
L 615.520313 190.14443 
L 618.570049 194.075794 
L 621.619785 198.433455 
L 622.636364 199.974741 
L 622.636364 199.974741 
" style="fill:none;stroke:#d62728;stroke-linecap:round;stroke-width:3;"/>
   </g>
   <g id="patch_3">
    <path d="M 90 384.48 
L 90 51.84 
" style="fill:none;stroke:#cccccc;stroke-linecap:square;stroke-linejoin:miter;"/>
   </g>
   <g id="patch_4">
    <path d="M 648 384.48 
L 648 51.84 
" style="fill:none;stroke:#cccccc;stroke-linecap:square;stroke-linejoin:miter;"/>
   </g>
   <g id="patch_5">
    <path d="M 90 384.48 
L 648 384.48 
" style="fill:none;stroke:#cccccc;stroke-linecap:square;stroke-linejoin:miter;"/>
   </g>
   <g id="patch_6">
    <path d="M 90 51.84 
L 648 51.84 
" style="fill:none;stroke:#cccccc;stroke-linecap:square;stroke-linejoin:miter;"/>
   </g>
   <g id="text_15">
    <!-- 2001 SG276 Light Curve -->
    <g style="fill:#262626;" transform="translate(300.309375 45.84)scale(0.12 -0.12)">
     <defs>
      <path d="M 222 0 
L 222 609 
Q 372 938 587 1202 
Q 803 1466 1039 1686 
Q 1275 1906 1508 2095 
Q 1741 2284 1927 2461 
Q 2113 2638 2228 2816 
Q 2344 2994 2344 3194 
Q 2344 3488 2197 3628 
Q 2050 3769 1766 3769 
Q 1484 3769 1336 3617 
Q 1188 3466 1144 3163 
L 259 3213 
Q 291 3472 387 3700 
Q 484 3928 664 4100 
Q 844 4272 1114 4370 
Q 1384 4469 1759 4469 
Q 2116 4469 2391 4386 
Q 2666 4303 2853 4143 
Q 3041 3984 3137 3754 
Q 3234 3525 3234 3231 
Q 3234 2922 3112 2672 
Q 2991 2422 2800 2211 
Q 2609 2000 2376 1815 
Q 2144 1631 1925 1456 
Q 1706 1281 1526 1103 
Q 1347 925 1259 722 
L 3303 722 
L 3303 0 
L 222 0 
z
" id="LiberationSans-Bold-32" transform="scale(0.015625)"/>
      <path d="M 3297 2203 
Q 3297 1572 3181 1139 
Q 3066 706 2861 439 
Q 2656 172 2376 54 
Q 2097 -63 1766 -63 
Q 1434 -63 1156 53 
Q 878 169 678 436 
Q 478 703 365 1136 
Q 253 1569 253 2203 
Q 253 2869 364 3305 
Q 475 3741 678 4000 
Q 881 4259 1164 4364 
Q 1447 4469 1791 4469 
Q 2113 4469 2389 4364 
Q 2666 4259 2867 4000 
Q 3069 3741 3183 3305 
Q 3297 2869 3297 2203 
z
M 2416 2203 
Q 2416 2669 2381 2973 
Q 2347 3278 2272 3458 
Q 2197 3638 2076 3709 
Q 1956 3781 1784 3781 
Q 1600 3781 1475 3707 
Q 1350 3634 1273 3453 
Q 1197 3272 1164 2967 
Q 1131 2663 1131 2203 
Q 1131 1750 1165 1447 
Q 1200 1144 1275 961 
Q 1350 778 1472 703 
Q 1594 628 1772 628 
Q 1944 628 2066 703 
Q 2188 778 2266 961 
Q 2344 1144 2380 1447 
Q 2416 1750 2416 2203 
z
" id="LiberationSans-Bold-30" transform="scale(0.015625)"/>
      <path d="M 403 0 
L 403 653 
L 1494 653 
L 1494 3656 
L 438 2997 
L 438 3688 
L 1541 4403 
L 2372 4403 
L 2372 653 
L 3381 653 
L 3381 0 
L 403 0 
z
" id="LiberationSans-Bold-31" transform="scale(0.015625)"/>
      <path id="LiberationSans-Bold-20" transform="scale(0.015625)"/>
      <path d="M 4019 1269 
Q 4019 969 3909 723 
Q 3800 478 3570 303 
Q 3341 128 2983 32 
Q 2625 -63 2131 -63 
Q 1694 -63 1359 15 
Q 1025 94 786 247 
Q 547 400 398 626 
Q 250 853 184 1147 
L 1075 1294 
Q 1113 1147 1184 1025 
Q 1256 903 1382 814 
Q 1509 725 1698 676 
Q 1888 628 2156 628 
Q 2625 628 2873 770 
Q 3122 913 3122 1216 
Q 3122 1397 3022 1512 
Q 2922 1628 2756 1703 
Q 2591 1778 2375 1828 
Q 2159 1878 1925 1925 
Q 1738 1969 1550 2016 
Q 1363 2063 1192 2128 
Q 1022 2194 875 2284 
Q 728 2375 620 2508 
Q 513 2641 452 2819 
Q 391 2997 391 3238 
Q 391 3566 522 3800 
Q 653 4034 886 4182 
Q 1119 4331 1441 4400 
Q 1763 4469 2144 4469 
Q 2575 4469 2883 4401 
Q 3191 4334 3398 4196 
Q 3606 4059 3726 3851 
Q 3847 3644 3903 3366 
L 3009 3244 
Q 2941 3528 2730 3672 
Q 2519 3816 2125 3816 
Q 1881 3816 1720 3773 
Q 1559 3731 1464 3659 
Q 1369 3588 1328 3492 
Q 1288 3397 1288 3291 
Q 1288 3128 1366 3023 
Q 1444 2919 1584 2848 
Q 1725 2778 1920 2729 
Q 2116 2681 2350 2631 
Q 2556 2588 2759 2539 
Q 2963 2491 3147 2425 
Q 3331 2359 3490 2265 
Q 3650 2172 3767 2036 
Q 3884 1900 3951 1712 
Q 4019 1525 4019 1269 
z
" id="LiberationSans-Bold-53" transform="scale(0.015625)"/>
      <path d="M 2519 659 
Q 2719 659 2903 690 
Q 3088 722 3245 773 
Q 3403 825 3529 892 
Q 3656 959 3738 1031 
L 3738 1641 
L 2663 1641 
L 2663 2322 
L 4581 2322 
L 4581 703 
Q 4431 550 4218 411 
Q 4006 272 3740 167 
Q 3475 63 3161 0 
Q 2847 -63 2494 -63 
Q 1909 -63 1487 107 
Q 1066 278 794 583 
Q 522 888 392 1306 
Q 263 1725 263 2222 
Q 263 2738 400 3153 
Q 538 3569 817 3861 
Q 1097 4153 1520 4311 
Q 1944 4469 2516 4469 
Q 2931 4469 3254 4387 
Q 3578 4306 3820 4156 
Q 4063 4006 4227 3795 
Q 4391 3584 4488 3322 
L 3638 3066 
Q 3581 3203 3487 3326 
Q 3394 3450 3255 3542 
Q 3116 3634 2933 3689 
Q 2750 3744 2516 3744 
Q 2172 3744 1922 3636 
Q 1672 3528 1509 3328 
Q 1347 3128 1269 2848 
Q 1191 2569 1191 2222 
Q 1191 1878 1270 1590 
Q 1350 1303 1514 1097 
Q 1678 891 1928 775 
Q 2178 659 2519 659 
z
" id="LiberationSans-Bold-47" transform="scale(0.015625)"/>
      <path d="M 3278 3706 
Q 2981 3238 2717 2797 
Q 2453 2356 2256 1911 
Q 2059 1466 1945 995 
Q 1831 525 1831 0 
L 916 0 
Q 916 522 1039 992 
Q 1163 1463 1375 1909 
Q 1588 2356 1869 2792 
Q 2150 3228 2463 3681 
L 275 3681 
L 275 4403 
L 3278 4403 
L 3278 3706 
z
" id="LiberationSans-Bold-37" transform="scale(0.015625)"/>
      <path d="M 3328 1441 
Q 3328 1109 3234 832 
Q 3141 556 2955 357 
Q 2769 159 2491 48 
Q 2213 -63 1847 -63 
Q 1069 -63 651 482 
Q 234 1028 234 2100 
Q 234 3278 657 3873 
Q 1081 4469 1869 4469 
Q 2131 4469 2347 4414 
Q 2563 4359 2731 4237 
Q 2900 4116 3019 3923 
Q 3138 3731 3209 3456 
L 2381 3341 
Q 2319 3572 2178 3673 
Q 2038 3775 1850 3775 
Q 1497 3775 1295 3422 
Q 1094 3069 1094 2350 
Q 1234 2584 1484 2709 
Q 1734 2834 2050 2834 
Q 2341 2834 2577 2739 
Q 2813 2644 2980 2464 
Q 3147 2284 3237 2025 
Q 3328 1766 3328 1441 
z
M 2447 1416 
Q 2447 1594 2406 1736 
Q 2366 1878 2283 1978 
Q 2200 2078 2078 2133 
Q 1956 2188 1797 2188 
Q 1681 2188 1565 2150 
Q 1450 2113 1359 2030 
Q 1269 1947 1212 1819 
Q 1156 1691 1156 1509 
Q 1156 1322 1203 1159 
Q 1250 997 1336 876 
Q 1422 756 1544 689 
Q 1666 622 1819 622 
Q 2116 622 2281 833 
Q 2447 1044 2447 1416 
z
" id="LiberationSans-Bold-36" transform="scale(0.015625)"/>
      <path d="M 428 0 
L 428 4403 
L 1350 4403 
L 1350 713 
L 3713 713 
L 3713 0 
L 428 0 
z
" id="LiberationSans-Bold-4c" transform="scale(0.015625)"/>
      <path d="M 447 3991 
L 447 4638 
L 1325 4638 
L 1325 3991 
L 447 3991 
z
M 447 0 
L 447 3381 
L 1325 3381 
L 1325 0 
L 447 0 
z
" id="LiberationSans-Bold-69" transform="scale(0.015625)"/>
      <path d="M 1863 -1356 
Q 1528 -1356 1273 -1289 
Q 1019 -1222 839 -1101 
Q 659 -981 551 -814 
Q 444 -647 403 -447 
L 1281 -344 
Q 1328 -547 1483 -662 
Q 1638 -778 1888 -778 
Q 2044 -778 2173 -734 
Q 2303 -691 2395 -586 
Q 2488 -481 2539 -309 
Q 2591 -138 2591 116 
Q 2591 203 2591 293 
Q 2591 384 2594 459 
Q 2597 547 2597 628 
L 2591 628 
Q 2438 300 2161 153 
Q 1884 6 1503 6 
Q 1181 6 948 132 
Q 716 259 562 486 
Q 409 713 336 1027 
Q 263 1341 263 1719 
Q 263 2109 341 2426 
Q 419 2744 580 2972 
Q 741 3200 986 3323 
Q 1231 3447 1569 3447 
Q 1906 3447 2173 3303 
Q 2441 3159 2591 2838 
L 2606 2838 
Q 2606 2903 2611 2989 
Q 2616 3075 2622 3154 
Q 2628 3234 2636 3296 
Q 2644 3359 2650 3381 
L 3481 3381 
Q 3475 3269 3469 3066 
Q 3463 2863 3463 2600 
L 3463 103 
Q 3463 -266 3356 -539 
Q 3250 -813 3045 -994 
Q 2841 -1175 2542 -1265 
Q 2244 -1356 1863 -1356 
z
M 2597 1738 
Q 2597 2056 2534 2268 
Q 2472 2481 2372 2609 
Q 2272 2738 2142 2791 
Q 2013 2844 1881 2844 
Q 1713 2844 1583 2778 
Q 1453 2713 1362 2575 
Q 1272 2438 1225 2225 
Q 1178 2013 1178 1719 
Q 1178 1172 1353 894 
Q 1528 616 1875 616 
Q 2006 616 2136 667 
Q 2266 719 2369 848 
Q 2472 978 2534 1193 
Q 2597 1409 2597 1738 
z
" id="LiberationSans-Bold-67" transform="scale(0.015625)"/>
      <path d="M 1313 2706 
Q 1491 3094 1759 3269 
Q 2028 3444 2400 3444 
Q 2706 3444 2917 3344 
Q 3128 3244 3261 3069 
Q 3394 2894 3453 2656 
Q 3513 2419 3513 2144 
L 3513 0 
L 2638 0 
L 2638 1894 
Q 2638 2091 2606 2255 
Q 2575 2419 2503 2536 
Q 2431 2653 2315 2718 
Q 2200 2784 2034 2784 
Q 1875 2784 1745 2714 
Q 1616 2644 1522 2514 
Q 1428 2384 1376 2204 
Q 1325 2025 1325 1809 
L 1325 0 
L 447 0 
L 447 4638 
L 1325 4638 
L 1325 3372 
Q 1325 3272 1322 3170 
Q 1319 3069 1314 2980 
Q 1309 2891 1306 2819 
Q 1303 2747 1300 2706 
L 1313 2706 
z
" id="LiberationSans-Bold-68" transform="scale(0.015625)"/>
      <path d="M 1313 -56 
Q 925 -56 715 155 
Q 506 366 506 794 
L 506 2788 
L 78 2788 
L 78 3381 
L 550 3381 
L 825 4175 
L 1375 4175 
L 1375 3381 
L 2016 3381 
L 2016 2788 
L 1375 2788 
L 1375 1031 
Q 1375 784 1469 667 
Q 1563 550 1759 550 
Q 1841 550 1906 562 
Q 1972 575 2053 594 
L 2053 50 
Q 1891 -3 1709 -29 
Q 1528 -56 1313 -56 
z
" id="LiberationSans-Bold-74" transform="scale(0.015625)"/>
      <path d="M 2484 663 
Q 2744 663 2933 736 
Q 3122 809 3261 928 
Q 3400 1047 3492 1197 
Q 3584 1347 3644 1500 
L 4447 1197 
Q 4350 959 4194 731 
Q 4038 503 3803 328 
Q 3569 153 3245 45 
Q 2922 -63 2484 -63 
Q 1913 -63 1494 107 
Q 1075 278 801 583 
Q 528 888 395 1306 
Q 263 1725 263 2222 
Q 263 2738 395 3153 
Q 528 3569 797 3861 
Q 1066 4153 1477 4311 
Q 1888 4469 2444 4469 
Q 2875 4469 3198 4378 
Q 3522 4288 3758 4123 
Q 3994 3959 4148 3736 
Q 4303 3513 4391 3244 
L 3578 3022 
Q 3534 3163 3443 3292 
Q 3353 3422 3214 3522 
Q 3075 3622 2887 3683 
Q 2700 3744 2463 3744 
Q 2128 3744 1887 3636 
Q 1647 3528 1492 3328 
Q 1338 3128 1264 2848 
Q 1191 2569 1191 2222 
Q 1191 1878 1264 1592 
Q 1338 1306 1494 1100 
Q 1650 894 1895 778 
Q 2141 663 2484 663 
z
" id="LiberationSans-Bold-43" transform="scale(0.015625)"/>
      <path d="M 1275 3381 
L 1275 1484 
Q 1275 1288 1306 1123 
Q 1338 959 1409 842 
Q 1481 725 1595 659 
Q 1709 594 1875 594 
Q 2034 594 2164 664 
Q 2294 734 2387 864 
Q 2481 994 2532 1173 
Q 2584 1353 2584 1569 
L 2584 3381 
L 3463 3381 
L 3463 756 
Q 3463 650 3464 533 
Q 3466 416 3470 311 
Q 3475 206 3479 123 
Q 3484 41 3488 0 
L 2650 0 
Q 2647 38 2639 120 
Q 2631 203 2626 303 
Q 2622 403 2617 503 
Q 2613 603 2613 672 
L 2597 672 
Q 2422 288 2151 112 
Q 1881 -63 1509 -63 
Q 1206 -63 993 37 
Q 781 138 648 311 
Q 516 484 456 721 
Q 397 959 397 1234 
L 397 3381 
L 1275 3381 
z
" id="LiberationSans-Bold-75" transform="scale(0.015625)"/>
      <path d="M 447 0 
L 447 2588 
Q 447 2697 445 2819 
Q 444 2941 439 3052 
Q 434 3163 431 3252 
Q 428 3341 422 3381 
L 1259 3381 
Q 1266 3344 1272 3251 
Q 1278 3159 1284 3050 
Q 1291 2941 1295 2833 
Q 1300 2725 1300 2659 
L 1313 2659 
Q 1378 2844 1443 2989 
Q 1509 3134 1598 3236 
Q 1688 3338 1813 3392 
Q 1938 3447 2122 3447 
Q 2200 3447 2276 3433 
Q 2353 3419 2394 3400 
L 2394 2666 
Q 2309 2684 2223 2698 
Q 2138 2713 2019 2713 
Q 1691 2713 1508 2447 
Q 1325 2181 1325 1659 
L 1325 0 
L 447 0 
z
" id="LiberationSans-Bold-72" transform="scale(0.015625)"/>
      <path d="M 1766 709 
L 2613 3381 
L 3531 3381 
L 2284 0 
L 1234 0 
L 25 3381 
L 953 3381 
L 1766 709 
z
" id="LiberationSans-Bold-76" transform="scale(0.015625)"/>
      <path d="M 1831 -63 
Q 1466 -63 1173 45 
Q 881 153 675 373 
Q 469 594 359 926 
Q 250 1259 250 1706 
Q 250 2191 379 2522 
Q 509 2853 729 3058 
Q 950 3263 1237 3353 
Q 1525 3444 1844 3444 
Q 2244 3444 2526 3305 
Q 2809 3166 2990 2916 
Q 3172 2666 3256 2317 
Q 3341 1969 3341 1547 
L 3341 1522 
L 1172 1522 
Q 1172 1309 1209 1126 
Q 1247 944 1331 811 
Q 1416 678 1550 601 
Q 1684 525 1875 525 
Q 2106 525 2253 623 
Q 2400 722 2463 928 
L 3291 856 
Q 3234 713 3132 550 
Q 3031 388 2862 252 
Q 2694 116 2442 26 
Q 2191 -63 1831 -63 
z
M 1831 2891 
Q 1697 2891 1580 2845 
Q 1463 2800 1377 2701 
Q 1291 2603 1237 2447 
Q 1184 2291 1178 2072 
L 2491 2072 
Q 2466 2481 2294 2686 
Q 2122 2891 1831 2891 
z
" id="LiberationSans-Bold-65" transform="scale(0.015625)"/>
     </defs>
     <use xlink:href="#LiberationSans-Bold-32"/>
     <use x="55.615234" xlink:href="#LiberationSans-Bold-30"/>
     <use x="111.230469" xlink:href="#LiberationSans-Bold-30"/>
     <use x="166.845703" xlink:href="#LiberationSans-Bold-31"/>
     <use x="222.460938" xlink:href="#LiberationSans-Bold-20"/>
     <use x="250.244141" xlink:href="#LiberationSans-Bold-53"/>
     <use x="316.943359" xlink:href="#LiberationSans-Bold-47"/>
     <use x="394.726562" xlink:href="#LiberationSans-Bold-32"/>
     <use x="450.341797" xlink:href="#LiberationSans-Bold-37"/>
     <use x="505.957031" xlink:href="#LiberationSans-Bold-36"/>
     <use x="561.572266" xlink:href="#LiberationSans-Bold-20"/>
     <use x="589.355469" xlink:href="#LiberationSans-Bold-4c"/>
     <use x="650.439453" xlink:href="#LiberationSans-Bold-69"/>
     <use x="678.222656" xlink:href="#LiberationSans-Bold-67"/>
     <use x="739.306641" xlink:href="#LiberationSans-Bold-68"/>
     <use x="800.390625" xlink:href="#LiberationSans-Bold-74"/>
     <use x="833.691406" xlink:href="#LiberationSans-Bold-20"/>
     <use x="861.474609" xlink:href="#LiberationSans-Bold-43"/>
     <use x="933.691406" xlink:href="#LiberationSans-Bold-75"/>
     <use x="994.775391" xlink:href="#LiberationSans-Bold-72"/>
     <use x="1033.691406" xlink:href="#LiberationSans-Bold-76"/>
     <use x="1089.306641" xlink:href="#LiberationSans-Bold-65"/>
    </g>
   </g>
   <g id="legend_1">
    <g id="line2d_29">
     <path d="M 99 64.586875 
L 119 64.586875 
" style="fill:none;stroke:#d62728;stroke-linecap:round;stroke-width:3;"/>
    </g>
    <g id="line2d_30"/>
    <g id="text_16">
     <!-- Fit (6th order) -->
     <g style="fill:#262626;" transform="translate(127 68.086875)scale(0.1 -0.1)">
      <defs>
       <path d="M 1122 3916 
L 1122 2278 
L 3578 2278 
L 3578 1784 
L 1122 1784 
L 1122 0 
L 525 0 
L 525 4403 
L 3653 4403 
L 3653 3916 
L 1122 3916 
z
" id="LiberationSans-46" transform="scale(0.015625)"/>
       <path d="M 1731 25 
Q 1603 -9 1470 -29 
Q 1338 -50 1163 -50 
Q 488 -50 488 716 
L 488 2972 
L 97 2972 
L 97 3381 
L 509 3381 
L 675 4138 
L 1050 4138 
L 1050 3381 
L 1675 3381 
L 1675 2972 
L 1050 2972 
L 1050 838 
Q 1050 594 1129 495 
Q 1209 397 1406 397 
Q 1488 397 1564 409 
Q 1641 422 1731 441 
L 1731 25 
z
" id="LiberationSans-74" transform="scale(0.015625)"/>
       <path d="M 397 1663 
Q 397 2097 462 2494 
Q 528 2891 668 3256 
Q 809 3622 1028 3965 
Q 1247 4309 1550 4638 
L 2094 4638 
Q 1800 4309 1586 3964 
Q 1372 3619 1234 3251 
Q 1097 2884 1030 2487 
Q 963 2091 963 1656 
Q 963 1222 1030 825 
Q 1097 428 1234 59 
Q 1372 -309 1586 -653 
Q 1800 -997 2094 -1325 
L 1550 -1325 
Q 1247 -997 1028 -653 
Q 809 -309 668 56 
Q 528 422 462 817 
Q 397 1213 397 1650 
L 397 1663 
z
" id="LiberationSans-28" transform="scale(0.015625)"/>
       <path d="M 1734 1650 
Q 1734 1213 1668 817 
Q 1603 422 1462 56 
Q 1322 -309 1103 -653 
Q 884 -997 581 -1325 
L 38 -1325 
Q 331 -997 545 -653 
Q 759 -309 896 59 
Q 1034 428 1101 825 
Q 1169 1222 1169 1656 
Q 1169 2091 1101 2487 
Q 1034 2884 896 3251 
Q 759 3619 545 3964 
Q 331 4309 38 4638 
L 581 4638 
Q 884 4309 1103 3965 
Q 1322 3622 1462 3256 
Q 1603 2891 1668 2494 
Q 1734 2097 1734 1663 
L 1734 1650 
z
" id="LiberationSans-29" transform="scale(0.015625)"/>
      </defs>
      <use xlink:href="#LiberationSans-46"/>
      <use x="61.083984" xlink:href="#LiberationSans-69"/>
      <use x="83.300781" xlink:href="#LiberationSans-74"/>
      <use x="111.083984" xlink:href="#LiberationSans-20"/>
      <use x="138.867188" xlink:href="#LiberationSans-28"/>
      <use x="172.167969" xlink:href="#LiberationSans-36"/>
      <use x="227.783203" xlink:href="#LiberationSans-74"/>
      <use x="255.566406" xlink:href="#LiberationSans-68"/>
      <use x="311.181641" xlink:href="#LiberationSans-20"/>
      <use x="338.964844" xlink:href="#LiberationSans-6f"/>
      <use x="394.580078" xlink:href="#LiberationSans-72"/>
      <use x="427.880859" xlink:href="#LiberationSans-64"/>
      <use x="483.496094" xlink:href="#LiberationSans-65"/>
      <use x="539.111328" xlink:href="#LiberationSans-72"/>
      <use x="572.412109" xlink:href="#LiberationSans-29"/>
     </g>
    </g>
    <g id="LineCollection_2">
     <path d="M 109 83.90875 
L 109 73.90875 
" style="fill:none;stroke:#696969;"/>
    </g>
    <g id="line2d_31">
     <g>
      <use style="fill:#696969;stroke:#696969;" x="109" xlink:href="#ma27f95b6c0" y="83.90875"/>
     </g>
    </g>
    <g id="line2d_32">
     <g>
      <use style="fill:#696969;stroke:#696969;" x="109" xlink:href="#ma27f95b6c0" y="73.90875"/>
     </g>
    </g>
    <g id="line2d_33"/>
    <g id="line2d_34">
     <g>
      <use style="fill:#1f77b4;stroke:#1f77b4;" x="109" xlink:href="#mec2a9f748e" y="78.90875"/>
     </g>
    </g>
    <g id="text_17">
     <!-- Data of 5 nights -->
     <g style="fill:#262626;" transform="translate(127 82.40875)scale(0.1 -0.1)">
      <defs>
       <path d="M 4316 2247 
Q 4316 1697 4150 1276 
Q 3984 856 3696 573 
Q 3409 291 3017 145 
Q 2625 0 2172 0 
L 525 0 
L 525 4403 
L 1981 4403 
Q 2491 4403 2920 4276 
Q 3350 4150 3659 3886 
Q 3969 3622 4142 3215 
Q 4316 2809 4316 2247 
z
M 3716 2247 
Q 3716 2694 3587 3011 
Q 3459 3328 3228 3531 
Q 2997 3734 2675 3829 
Q 2353 3925 1969 3925 
L 1122 3925 
L 1122 478 
L 2103 478 
Q 2450 478 2745 590 
Q 3041 703 3256 925 
Q 3472 1147 3594 1478 
Q 3716 1809 3716 2247 
z
" id="LiberationSans-44" transform="scale(0.015625)"/>
       <path d="M 1128 2972 
L 1128 0 
L 566 0 
L 566 2972 
L 91 2972 
L 91 3381 
L 566 3381 
L 566 3763 
Q 566 3947 600 4105 
Q 634 4263 726 4380 
Q 819 4497 978 4564 
Q 1138 4631 1391 4631 
Q 1491 4631 1598 4622 
Q 1706 4613 1788 4594 
L 1788 4166 
Q 1734 4175 1664 4183 
Q 1594 4191 1538 4191 
Q 1413 4191 1333 4156 
Q 1253 4122 1208 4058 
Q 1163 3994 1145 3900 
Q 1128 3806 1128 3684 
L 1128 3381 
L 1788 3381 
L 1788 2972 
L 1128 2972 
z
" id="LiberationSans-66" transform="scale(0.015625)"/>
       <path d="M 2578 0 
L 2578 2144 
Q 2578 2391 2542 2556 
Q 2506 2722 2425 2823 
Q 2344 2925 2211 2967 
Q 2078 3009 1881 3009 
Q 1681 3009 1520 2939 
Q 1359 2869 1245 2736 
Q 1131 2603 1068 2408 
Q 1006 2213 1006 1959 
L 1006 0 
L 444 0 
L 444 2659 
Q 444 2766 442 2883 
Q 441 3000 437 3104 
Q 434 3209 431 3284 
Q 428 3359 425 3381 
L 956 3381 
Q 959 3366 962 3297 
Q 966 3228 970 3139 
Q 975 3050 978 2958 
Q 981 2866 981 2803 
L 991 2803 
Q 1072 2950 1169 3069 
Q 1266 3188 1394 3270 
Q 1522 3353 1687 3398 
Q 1853 3444 2072 3444 
Q 2353 3444 2556 3375 
Q 2759 3306 2890 3162 
Q 3022 3019 3083 2792 
Q 3144 2566 3144 2253 
L 3144 0 
L 2578 0 
z
" id="LiberationSans-6e" transform="scale(0.015625)"/>
      </defs>
      <use xlink:href="#LiberationSans-44"/>
      <use x="72.216797" xlink:href="#LiberationSans-61"/>
      <use x="127.832031" xlink:href="#LiberationSans-74"/>
      <use x="155.615234" xlink:href="#LiberationSans-61"/>
      <use x="211.230469" xlink:href="#LiberationSans-20"/>
      <use x="239.013672" xlink:href="#LiberationSans-6f"/>
      <use x="294.628906" xlink:href="#LiberationSans-66"/>
      <use x="322.412109" xlink:href="#LiberationSans-20"/>
      <use x="350.195312" xlink:href="#LiberationSans-35"/>
      <use x="405.810547" xlink:href="#LiberationSans-20"/>
      <use x="433.59375" xlink:href="#LiberationSans-6e"/>
      <use x="489.208984" xlink:href="#LiberationSans-69"/>
      <use x="511.425781" xlink:href="#LiberationSans-67"/>
      <use x="567.041016" xlink:href="#LiberationSans-68"/>
      <use x="622.65625" xlink:href="#LiberationSans-74"/>
      <use x="650.439453" xlink:href="#LiberationSans-73"/>
     </g>
    </g>
   </g>
  </g>
 </g>
 <defs>
  <clipPath id="pd3c7261c7e">
   <rect height="332.64" width="558" x="90" y="51.84"/>
  </clipPath>
 </defs>
</svg>
