<?xml version="1.0" encoding="utf-8" standalone="no"?>
<!DOCTYPE svg PUBLIC "-//W3C//DTD SVG 1.1//EN"
  "http://www.w3.org/Graphics/SVG/1.1/DTD/svg11.dtd">
<svg height="432pt" version="1.1" viewBox="0 0 720 432" width="720pt" xmlns="http://www.w3.org/2000/svg" xmlns:xlink="http://www.w3.org/1999/xlink">
 <metadata>
  <rdf:RDF xmlns:cc="http://creativecommons.org/ns#" xmlns:dc="http://purl.org/dc/elements/1.1/" xmlns:rdf="http://www.w3.org/1999/02/22-rdf-syntax-ns#">
   <cc:Work>
    <dc:type rdf:resource="http://purl.org/dc/dcmitype/StillImage"/>
    <dc:date>2021-06-30T15:42:36.160996</dc:date>
    <dc:format>image/svg+xml</dc:format>
    <dc:creator>
     <cc:Agent>
      <dc:title>Matplotlib v3.4.2, https://matplotlib.org/</dc:title>
     </cc:Agent>
    </dc:creator>
   </cc:Work>
  </rdf:RDF>
 </metadata>
 <defs>
  <style type="text/css">*{stroke-linecap:butt;stroke-linejoin:round;}</style>
 </defs>
 <g id="figure_1">
  <g id="patch_1">
   <path d="M 0 432 
L 720 432 
L 720 0 
L 0 0 
z
" style="fill:#ffffff;"/>
  </g>
  <g id="axes_1">
   <g id="patch_2">
    <path d="M 90 384.48 
L 648 384.48 
L 648 51.84 
L 90 51.84 
z
" style="fill:#ffffff;"/>
   </g>
   <g id="matplotlib.axis_1">
    <g id="xtick_1">
     <g id="line2d_1">
      <path clip-path="url(#pc778499c78)" d="M 161.484739 384.48 
L 161.484739 51.84 
" style="fill:none;stroke:#cccccc;stroke-linecap:round;stroke-width:0.8;"/>
     </g>
     <g id="line2d_2"/>
     <g id="text_1">
      <!-- 2 -->
      <g style="fill:#262626;" transform="translate(158.70427 395.226875)scale(0.1 -0.1)">
       <defs>
        <path d="M 322 0 
L 322 397 
Q 481 763 711 1042 
Q 941 1322 1194 1548 
Q 1447 1775 1695 1969 
Q 1944 2163 2144 2356 
Q 2344 2550 2467 2762 
Q 2591 2975 2591 3244 
Q 2591 3431 2534 3573 
Q 2478 3716 2372 3812 
Q 2266 3909 2117 3957 
Q 1969 4006 1788 4006 
Q 1619 4006 1470 3959 
Q 1322 3913 1206 3819 
Q 1091 3725 1017 3586 
Q 944 3447 922 3263 
L 347 3316 
Q 375 3553 478 3762 
Q 581 3972 762 4130 
Q 944 4288 1198 4378 
Q 1453 4469 1788 4469 
Q 2116 4469 2372 4391 
Q 2628 4313 2804 4159 
Q 2981 4006 3075 3781 
Q 3169 3556 3169 3263 
Q 3169 3041 3089 2841 
Q 3009 2641 2876 2459 
Q 2744 2278 2569 2109 
Q 2394 1941 2203 1780 
Q 2013 1619 1819 1461 
Q 1625 1303 1454 1143 
Q 1284 984 1150 820 
Q 1016 656 941 478 
L 3238 478 
L 3238 0 
L 322 0 
z
" id="LiberationSans-32" transform="scale(0.015625)"/>
       </defs>
       <use xlink:href="#LiberationSans-32"/>
      </g>
     </g>
    </g>
    <g id="xtick_2">
     <g id="line2d_3">
      <path clip-path="url(#pc778499c78)" d="M 253.727683 384.48 
L 253.727683 51.84 
" style="fill:none;stroke:#cccccc;stroke-linecap:round;stroke-width:0.8;"/>
     </g>
     <g id="line2d_4"/>
     <g id="text_2">
      <!-- 4 -->
      <g style="fill:#262626;" transform="translate(250.947214 395.226875)scale(0.1 -0.1)">
       <defs>
        <path d="M 2753 997 
L 2753 0 
L 2222 0 
L 2222 997 
L 147 997 
L 147 1434 
L 2163 4403 
L 2753 4403 
L 2753 1441 
L 3372 1441 
L 3372 997 
L 2753 997 
z
M 2222 3769 
Q 2216 3753 2191 3708 
Q 2166 3663 2134 3606 
Q 2103 3550 2070 3492 
Q 2038 3434 2013 3397 
L 884 1734 
Q 869 1709 839 1668 
Q 809 1628 778 1586 
Q 747 1544 715 1503 
Q 684 1463 666 1441 
L 2222 1441 
L 2222 3769 
z
" id="LiberationSans-34" transform="scale(0.015625)"/>
       </defs>
       <use xlink:href="#LiberationSans-34"/>
      </g>
     </g>
    </g>
    <g id="xtick_3">
     <g id="line2d_5">
      <path clip-path="url(#pc778499c78)" d="M 345.970627 384.48 
L 345.970627 51.84 
" style="fill:none;stroke:#cccccc;stroke-linecap:round;stroke-width:0.8;"/>
     </g>
     <g id="line2d_6"/>
     <g id="text_3">
      <!-- 6 -->
      <g style="fill:#262626;" transform="translate(343.190158 395.226875)scale(0.1 -0.1)">
       <defs>
        <path d="M 3278 1441 
Q 3278 1109 3186 832 
Q 3094 556 2914 357 
Q 2734 159 2468 48 
Q 2203 -63 1856 -63 
Q 1472 -63 1184 84 
Q 897 231 706 507 
Q 516 784 420 1186 
Q 325 1588 325 2100 
Q 325 2688 433 3131 
Q 541 3575 744 3872 
Q 947 4169 1239 4319 
Q 1531 4469 1900 4469 
Q 2125 4469 2322 4422 
Q 2519 4375 2680 4270 
Q 2841 4166 2962 3994 
Q 3084 3822 3156 3572 
L 2619 3475 
Q 2531 3759 2339 3886 
Q 2147 4013 1894 4013 
Q 1663 4013 1475 3903 
Q 1288 3794 1156 3576 
Q 1025 3359 954 3031 
Q 884 2703 884 2266 
Q 1038 2550 1316 2698 
Q 1594 2847 1953 2847 
Q 2253 2847 2497 2750 
Q 2741 2653 2914 2470 
Q 3088 2288 3183 2027 
Q 3278 1766 3278 1441 
z
M 2706 1416 
Q 2706 1644 2650 1828 
Q 2594 2013 2481 2142 
Q 2369 2272 2203 2342 
Q 2038 2413 1819 2413 
Q 1666 2413 1509 2367 
Q 1353 2322 1226 2220 
Q 1100 2119 1020 1953 
Q 941 1788 941 1550 
Q 941 1306 1003 1095 
Q 1066 884 1183 728 
Q 1300 572 1465 481 
Q 1631 391 1838 391 
Q 2041 391 2202 461 
Q 2363 531 2475 664 
Q 2588 797 2647 987 
Q 2706 1178 2706 1416 
z
" id="LiberationSans-36" transform="scale(0.015625)"/>
       </defs>
       <use xlink:href="#LiberationSans-36"/>
      </g>
     </g>
    </g>
    <g id="xtick_4">
     <g id="line2d_7">
      <path clip-path="url(#pc778499c78)" d="M 438.21357 384.48 
L 438.21357 51.84 
" style="fill:none;stroke:#cccccc;stroke-linecap:round;stroke-width:0.8;"/>
     </g>
     <g id="line2d_8"/>
     <g id="text_4">
      <!-- 8 -->
      <g style="fill:#262626;" transform="translate(435.433102 395.226875)scale(0.1 -0.1)">
       <defs>
        <path d="M 3281 1228 
Q 3281 947 3192 711 
Q 3103 475 2920 303 
Q 2738 131 2453 34 
Q 2169 -63 1781 -63 
Q 1394 -63 1111 34 
Q 828 131 642 301 
Q 456 472 367 708 
Q 278 944 278 1222 
Q 278 1463 351 1650 
Q 425 1838 548 1973 
Q 672 2109 830 2192 
Q 988 2275 1156 2303 
L 1156 2316 
Q 972 2359 826 2456 
Q 681 2553 582 2689 
Q 484 2825 432 2990 
Q 381 3156 381 3341 
Q 381 3572 470 3776 
Q 559 3981 734 4136 
Q 909 4291 1168 4380 
Q 1428 4469 1769 4469 
Q 2128 4469 2392 4378 
Q 2656 4288 2829 4133 
Q 3003 3978 3087 3772 
Q 3172 3566 3172 3334 
Q 3172 3153 3120 2987 
Q 3069 2822 2970 2686 
Q 2872 2550 2726 2454 
Q 2581 2359 2391 2322 
L 2391 2309 
Q 2581 2278 2743 2195 
Q 2906 2113 3025 1977 
Q 3144 1841 3212 1653 
Q 3281 1466 3281 1228 
z
M 2588 3303 
Q 2588 3469 2545 3606 
Q 2503 3744 2406 3842 
Q 2309 3941 2153 3995 
Q 1997 4050 1769 4050 
Q 1547 4050 1394 3995 
Q 1241 3941 1142 3842 
Q 1044 3744 1000 3606 
Q 956 3469 956 3303 
Q 956 3172 990 3034 
Q 1025 2897 1115 2784 
Q 1206 2672 1365 2600 
Q 1525 2528 1775 2528 
Q 2041 2528 2202 2600 
Q 2363 2672 2448 2784 
Q 2534 2897 2561 3034 
Q 2588 3172 2588 3303 
z
M 2697 1281 
Q 2697 1441 2653 1589 
Q 2609 1738 2503 1852 
Q 2397 1966 2217 2036 
Q 2038 2106 1769 2106 
Q 1522 2106 1348 2036 
Q 1175 1966 1067 1850 
Q 959 1734 909 1582 
Q 859 1431 859 1269 
Q 859 1066 909 898 
Q 959 731 1068 611 
Q 1178 491 1356 425 
Q 1534 359 1788 359 
Q 2044 359 2219 425 
Q 2394 491 2500 611 
Q 2606 731 2651 901 
Q 2697 1072 2697 1281 
z
" id="LiberationSans-38" transform="scale(0.015625)"/>
       </defs>
       <use xlink:href="#LiberationSans-38"/>
      </g>
     </g>
    </g>
    <g id="xtick_5">
     <g id="line2d_9">
      <path clip-path="url(#pc778499c78)" d="M 530.456514 384.48 
L 530.456514 51.84 
" style="fill:none;stroke:#cccccc;stroke-linecap:round;stroke-width:0.8;"/>
     </g>
     <g id="line2d_10"/>
     <g id="text_5">
      <!-- 10 -->
      <g style="fill:#262626;" transform="translate(524.895577 395.226875)scale(0.1 -0.1)">
       <defs>
        <path d="M 488 0 
L 488 478 
L 1609 478 
L 1609 3866 
L 616 3156 
L 616 3688 
L 1656 4403 
L 2175 4403 
L 2175 478 
L 3247 478 
L 3247 0 
L 488 0 
z
" id="LiberationSans-31" transform="scale(0.015625)"/>
        <path d="M 3309 2203 
Q 3309 1569 3189 1136 
Q 3069 703 2861 436 
Q 2653 169 2372 53 
Q 2091 -63 1772 -63 
Q 1450 -63 1172 53 
Q 894 169 689 434 
Q 484 700 367 1133 
Q 250 1566 250 2203 
Q 250 2869 367 3305 
Q 484 3741 690 4000 
Q 897 4259 1178 4364 
Q 1459 4469 1791 4469 
Q 2106 4469 2382 4364 
Q 2659 4259 2865 4000 
Q 3072 3741 3190 3305 
Q 3309 2869 3309 2203 
z
M 2738 2203 
Q 2738 2728 2675 3076 
Q 2613 3425 2491 3633 
Q 2369 3841 2192 3927 
Q 2016 4013 1791 4013 
Q 1553 4013 1372 3925 
Q 1191 3838 1067 3630 
Q 944 3422 881 3073 
Q 819 2725 819 2203 
Q 819 1697 883 1350 
Q 947 1003 1070 792 
Q 1194 581 1372 489 
Q 1550 397 1778 397 
Q 2000 397 2178 489 
Q 2356 581 2479 792 
Q 2603 1003 2670 1350 
Q 2738 1697 2738 2203 
z
" id="LiberationSans-30" transform="scale(0.015625)"/>
       </defs>
       <use xlink:href="#LiberationSans-31"/>
       <use x="55.615234" xlink:href="#LiberationSans-30"/>
      </g>
     </g>
    </g>
    <g id="xtick_6">
     <g id="line2d_11">
      <path clip-path="url(#pc778499c78)" d="M 622.699458 384.48 
L 622.699458 51.84 
" style="fill:none;stroke:#cccccc;stroke-linecap:round;stroke-width:0.8;"/>
     </g>
     <g id="line2d_12"/>
     <g id="text_6">
      <!-- 12 -->
      <g style="fill:#262626;" transform="translate(617.13852 395.226875)scale(0.1 -0.1)">
       <use xlink:href="#LiberationSans-31"/>
       <use x="55.615234" xlink:href="#LiberationSans-32"/>
      </g>
     </g>
    </g>
    <g id="text_7">
     <!-- Hours -->
     <g style="fill:#262626;" transform="translate(355.663281 408.54875)scale(0.1 -0.1)">
      <defs>
       <path d="M 3503 0 
L 3503 2041 
L 1122 2041 
L 1122 0 
L 525 0 
L 525 4403 
L 1122 4403 
L 1122 2541 
L 3503 2541 
L 3503 4403 
L 4100 4403 
L 4100 0 
L 3503 0 
z
" id="LiberationSans-48" transform="scale(0.015625)"/>
       <path d="M 3291 1694 
Q 3291 806 2900 371 
Q 2509 -63 1766 -63 
Q 1413 -63 1134 43 
Q 856 150 664 369 
Q 472 588 370 917 
Q 269 1247 269 1694 
Q 269 3444 1784 3444 
Q 2178 3444 2464 3334 
Q 2750 3225 2933 3006 
Q 3116 2788 3203 2459 
Q 3291 2131 3291 1694 
z
M 2700 1694 
Q 2700 2088 2639 2344 
Q 2578 2600 2461 2753 
Q 2344 2906 2175 2967 
Q 2006 3028 1794 3028 
Q 1578 3028 1404 2964 
Q 1231 2900 1109 2745 
Q 988 2591 923 2334 
Q 859 2078 859 1694 
Q 859 1300 928 1042 
Q 997 784 1117 631 
Q 1238 478 1402 415 
Q 1566 353 1759 353 
Q 1975 353 2150 414 
Q 2325 475 2447 628 
Q 2569 781 2634 1040 
Q 2700 1300 2700 1694 
z
" id="LiberationSans-6f" transform="scale(0.015625)"/>
       <path d="M 981 3381 
L 981 1238 
Q 981 991 1017 825 
Q 1053 659 1134 557 
Q 1216 456 1348 414 
Q 1481 372 1678 372 
Q 1878 372 2039 442 
Q 2200 513 2314 645 
Q 2428 778 2490 973 
Q 2553 1169 2553 1422 
L 2553 3381 
L 3116 3381 
L 3116 722 
Q 3116 616 3117 498 
Q 3119 381 3122 276 
Q 3125 172 3128 97 
Q 3131 22 3134 0 
L 2603 0 
Q 2600 16 2597 84 
Q 2594 153 2589 242 
Q 2584 331 2581 423 
Q 2578 516 2578 578 
L 2569 578 
Q 2488 431 2391 312 
Q 2294 194 2166 111 
Q 2038 28 1872 -17 
Q 1706 -63 1488 -63 
Q 1206 -63 1003 6 
Q 800 75 669 219 
Q 538 363 477 588 
Q 416 813 416 1128 
L 416 3381 
L 981 3381 
z
" id="LiberationSans-75" transform="scale(0.015625)"/>
       <path d="M 444 0 
L 444 2594 
Q 444 2700 442 2811 
Q 441 2922 437 3025 
Q 434 3128 431 3218 
Q 428 3309 425 3381 
L 956 3381 
Q 959 3309 964 3217 
Q 969 3125 973 3028 
Q 978 2931 979 2842 
Q 981 2753 981 2691 
L 994 2691 
Q 1053 2884 1120 3026 
Q 1188 3169 1278 3261 
Q 1369 3353 1494 3398 
Q 1619 3444 1797 3444 
Q 1866 3444 1928 3433 
Q 1991 3422 2025 3413 
L 2025 2897 
Q 1969 2913 1894 2920 
Q 1819 2928 1725 2928 
Q 1531 2928 1395 2840 
Q 1259 2753 1173 2598 
Q 1088 2444 1047 2230 
Q 1006 2016 1006 1763 
L 1006 0 
L 444 0 
z
" id="LiberationSans-72" transform="scale(0.015625)"/>
       <path d="M 2969 934 
Q 2969 697 2876 511 
Q 2784 325 2609 198 
Q 2434 72 2179 4 
Q 1925 -63 1597 -63 
Q 1303 -63 1067 -17 
Q 831 28 653 128 
Q 475 228 354 392 
Q 234 556 178 794 
L 675 891 
Q 747 619 972 492 
Q 1197 366 1597 366 
Q 1778 366 1929 391 
Q 2081 416 2190 477 
Q 2300 538 2361 639 
Q 2422 741 2422 891 
Q 2422 1044 2350 1142 
Q 2278 1241 2150 1306 
Q 2022 1372 1839 1420 
Q 1656 1469 1438 1528 
Q 1234 1581 1034 1647 
Q 834 1713 673 1820 
Q 513 1928 413 2087 
Q 313 2247 313 2488 
Q 313 2950 642 3192 
Q 972 3434 1603 3434 
Q 2163 3434 2492 3237 
Q 2822 3041 2909 2606 
L 2403 2544 
Q 2375 2675 2300 2764 
Q 2225 2853 2119 2908 
Q 2013 2963 1880 2986 
Q 1747 3009 1603 3009 
Q 1222 3009 1040 2893 
Q 859 2778 859 2544 
Q 859 2406 926 2317 
Q 994 2228 1114 2167 
Q 1234 2106 1403 2061 
Q 1572 2016 1775 1966 
Q 1909 1931 2050 1892 
Q 2191 1853 2323 1798 
Q 2456 1744 2573 1670 
Q 2691 1597 2778 1494 
Q 2866 1391 2917 1253 
Q 2969 1116 2969 934 
z
" id="LiberationSans-73" transform="scale(0.015625)"/>
      </defs>
      <use xlink:href="#LiberationSans-48"/>
      <use x="72.216797" xlink:href="#LiberationSans-6f"/>
      <use x="127.832031" xlink:href="#LiberationSans-75"/>
      <use x="183.447266" xlink:href="#LiberationSans-72"/>
      <use x="216.748047" xlink:href="#LiberationSans-73"/>
     </g>
    </g>
   </g>
   <g id="matplotlib.axis_2">
    <g id="ytick_1">
     <g id="line2d_13">
      <path clip-path="url(#pc778499c78)" d="M 90 379.651865 
L 648 379.651865 
" style="fill:none;stroke:#cccccc;stroke-linecap:round;stroke-width:0.8;"/>
     </g>
     <g id="line2d_14"/>
     <g id="text_8">
      <!-- 4.0 -->
      <g style="fill:#262626;" transform="translate(72.6 383.275303)scale(0.1 -0.1)">
       <defs>
        <path d="M 584 0 
L 584 684 
L 1194 684 
L 1194 0 
L 584 0 
z
" id="LiberationSans-2e" transform="scale(0.015625)"/>
       </defs>
       <use xlink:href="#LiberationSans-34"/>
       <use x="55.615234" xlink:href="#LiberationSans-2e"/>
       <use x="83.398438" xlink:href="#LiberationSans-30"/>
      </g>
     </g>
    </g>
    <g id="ytick_2">
     <g id="line2d_15">
      <path clip-path="url(#pc778499c78)" d="M 90 324.827999 
L 648 324.827999 
" style="fill:none;stroke:#cccccc;stroke-linecap:round;stroke-width:0.8;"/>
     </g>
     <g id="line2d_16"/>
     <g id="text_9">
      <!-- 4.5 -->
      <g style="fill:#262626;" transform="translate(72.6 328.451437)scale(0.1 -0.1)">
       <defs>
        <path d="M 3291 1434 
Q 3291 1103 3191 828 
Q 3091 553 2894 354 
Q 2697 156 2405 46 
Q 2113 -63 1728 -63 
Q 1381 -63 1123 18 
Q 866 100 687 242 
Q 509 384 404 575 
Q 300 766 256 984 
L 825 1050 
Q 859 925 921 808 
Q 984 691 1092 598 
Q 1200 506 1358 451 
Q 1516 397 1741 397 
Q 1959 397 2137 464 
Q 2316 531 2442 662 
Q 2569 794 2637 984 
Q 2706 1175 2706 1422 
Q 2706 1625 2640 1795 
Q 2575 1966 2453 2089 
Q 2331 2213 2154 2281 
Q 1978 2350 1753 2350 
Q 1613 2350 1494 2325 
Q 1375 2300 1273 2256 
Q 1172 2213 1089 2155 
Q 1006 2097 934 2034 
L 384 2034 
L 531 4403 
L 3034 4403 
L 3034 3925 
L 1044 3925 
L 959 2528 
Q 1109 2644 1334 2726 
Q 1559 2809 1869 2809 
Q 2197 2809 2459 2709 
Q 2722 2609 2906 2426 
Q 3091 2244 3191 1991 
Q 3291 1738 3291 1434 
z
" id="LiberationSans-35" transform="scale(0.015625)"/>
       </defs>
       <use xlink:href="#LiberationSans-34"/>
       <use x="55.615234" xlink:href="#LiberationSans-2e"/>
       <use x="83.398438" xlink:href="#LiberationSans-35"/>
      </g>
     </g>
    </g>
    <g id="ytick_3">
     <g id="line2d_17">
      <path clip-path="url(#pc778499c78)" d="M 90 270.004134 
L 648 270.004134 
" style="fill:none;stroke:#cccccc;stroke-linecap:round;stroke-width:0.8;"/>
     </g>
     <g id="line2d_18"/>
     <g id="text_10">
      <!-- 5.0 -->
      <g style="fill:#262626;" transform="translate(72.6 273.627571)scale(0.1 -0.1)">
       <use xlink:href="#LiberationSans-35"/>
       <use x="55.615234" xlink:href="#LiberationSans-2e"/>
       <use x="83.398438" xlink:href="#LiberationSans-30"/>
      </g>
     </g>
    </g>
    <g id="ytick_4">
     <g id="line2d_19">
      <path clip-path="url(#pc778499c78)" d="M 90 215.180268 
L 648 215.180268 
" style="fill:none;stroke:#cccccc;stroke-linecap:round;stroke-width:0.8;"/>
     </g>
     <g id="line2d_20"/>
     <g id="text_11">
      <!-- 5.5 -->
      <g style="fill:#262626;" transform="translate(72.6 218.803706)scale(0.1 -0.1)">
       <use xlink:href="#LiberationSans-35"/>
       <use x="55.615234" xlink:href="#LiberationSans-2e"/>
       <use x="83.398438" xlink:href="#LiberationSans-35"/>
      </g>
     </g>
    </g>
    <g id="ytick_5">
     <g id="line2d_21">
      <path clip-path="url(#pc778499c78)" d="M 90 160.356402 
L 648 160.356402 
" style="fill:none;stroke:#cccccc;stroke-linecap:round;stroke-width:0.8;"/>
     </g>
     <g id="line2d_22"/>
     <g id="text_12">
      <!-- 6.0 -->
      <g style="fill:#262626;" transform="translate(72.6 163.97984)scale(0.1 -0.1)">
       <use xlink:href="#LiberationSans-36"/>
       <use x="55.615234" xlink:href="#LiberationSans-2e"/>
       <use x="83.398438" xlink:href="#LiberationSans-30"/>
      </g>
     </g>
    </g>
    <g id="ytick_6">
     <g id="line2d_23">
      <path clip-path="url(#pc778499c78)" d="M 90 105.532537 
L 648 105.532537 
" style="fill:none;stroke:#cccccc;stroke-linecap:round;stroke-width:0.8;"/>
     </g>
     <g id="line2d_24"/>
     <g id="text_13">
      <!-- 6.5 -->
      <g style="fill:#262626;" transform="translate(72.6 109.155974)scale(0.1 -0.1)">
       <use xlink:href="#LiberationSans-36"/>
       <use x="55.615234" xlink:href="#LiberationSans-2e"/>
       <use x="83.398438" xlink:href="#LiberationSans-35"/>
      </g>
     </g>
    </g>
    <g id="text_14">
     <!-- RMSE -->
     <g style="fill:#262626;" transform="translate(66.525 232.606094)rotate(-90)scale(0.1 -0.1)">
      <defs>
       <path d="M 3638 0 
L 2494 1828 
L 1122 1828 
L 1122 0 
L 525 0 
L 525 4403 
L 2597 4403 
Q 2972 4403 3261 4317 
Q 3550 4231 3747 4068 
Q 3944 3906 4047 3672 
Q 4150 3438 4150 3144 
Q 4150 2934 4089 2731 
Q 4028 2528 3897 2359 
Q 3766 2191 3562 2069 
Q 3359 1947 3075 1897 
L 4325 0 
L 3638 0 
z
M 3550 3138 
Q 3550 3338 3481 3484 
Q 3413 3631 3281 3729 
Q 3150 3828 2962 3876 
Q 2775 3925 2538 3925 
L 1122 3925 
L 1122 2300 
L 2563 2300 
Q 2819 2300 3006 2364 
Q 3194 2428 3314 2540 
Q 3434 2653 3492 2806 
Q 3550 2959 3550 3138 
z
" id="LiberationSans-52" transform="scale(0.015625)"/>
       <path d="M 4269 0 
L 4269 2938 
Q 4269 3097 4272 3262 
Q 4275 3428 4281 3566 
Q 4288 3725 4297 3875 
Q 4253 3716 4206 3559 
Q 4166 3425 4117 3273 
Q 4069 3122 4022 3000 
L 2884 0 
L 2466 0 
L 1313 3000 
Q 1294 3047 1273 3109 
Q 1253 3172 1229 3242 
Q 1206 3313 1182 3386 
Q 1159 3459 1138 3531 
Q 1084 3697 1034 3875 
Q 1038 3700 1044 3528 
Q 1050 3381 1053 3220 
Q 1056 3059 1056 2938 
L 1056 0 
L 525 0 
L 525 4403 
L 1309 4403 
L 2481 1350 
Q 2503 1288 2534 1189 
Q 2566 1091 2594 987 
Q 2622 884 2645 792 
Q 2669 700 2678 650 
Q 2688 700 2713 794 
Q 2738 888 2770 991 
Q 2803 1094 2834 1191 
Q 2866 1288 2891 1350 
L 4041 4403 
L 4806 4403 
L 4806 0 
L 4269 0 
z
" id="LiberationSans-4d" transform="scale(0.015625)"/>
       <path d="M 3975 1216 
Q 3975 938 3867 703 
Q 3759 469 3534 298 
Q 3309 128 2967 32 
Q 2625 -63 2156 -63 
Q 1334 -63 875 225 
Q 416 513 291 1056 
L 869 1172 
Q 913 1000 1003 859 
Q 1094 719 1248 617 
Q 1403 516 1631 459 
Q 1859 403 2178 403 
Q 2444 403 2666 448 
Q 2888 494 3047 587 
Q 3206 681 3295 829 
Q 3384 978 3384 1184 
Q 3384 1400 3286 1534 
Q 3188 1669 3009 1756 
Q 2831 1844 2584 1903 
Q 2338 1963 2038 2031 
Q 1853 2072 1667 2120 
Q 1481 2169 1311 2236 
Q 1141 2303 991 2393 
Q 841 2484 731 2611 
Q 622 2738 559 2905 
Q 497 3072 497 3291 
Q 497 3603 623 3826 
Q 750 4050 975 4194 
Q 1200 4338 1506 4403 
Q 1813 4469 2169 4469 
Q 2578 4469 2868 4405 
Q 3159 4341 3359 4212 
Q 3559 4084 3679 3895 
Q 3800 3706 3872 3456 
L 3284 3353 
Q 3241 3513 3158 3638 
Q 3075 3763 2940 3847 
Q 2806 3931 2614 3975 
Q 2422 4019 2163 4019 
Q 1856 4019 1648 3964 
Q 1441 3909 1314 3815 
Q 1188 3722 1133 3595 
Q 1078 3469 1078 3322 
Q 1078 3125 1176 2998 
Q 1275 2872 1444 2787 
Q 1613 2703 1834 2647 
Q 2056 2591 2306 2534 
Q 2509 2488 2711 2439 
Q 2913 2391 3097 2323 
Q 3281 2256 3442 2165 
Q 3603 2075 3722 1944 
Q 3841 1813 3908 1634 
Q 3975 1456 3975 1216 
z
" id="LiberationSans-53" transform="scale(0.015625)"/>
       <path d="M 525 0 
L 525 4403 
L 3866 4403 
L 3866 3916 
L 1122 3916 
L 1122 2503 
L 3678 2503 
L 3678 2022 
L 1122 2022 
L 1122 488 
L 3994 488 
L 3994 0 
L 525 0 
z
" id="LiberationSans-45" transform="scale(0.015625)"/>
      </defs>
      <use xlink:href="#LiberationSans-52"/>
      <use x="72.216797" xlink:href="#LiberationSans-4d"/>
      <use x="155.517578" xlink:href="#LiberationSans-53"/>
      <use x="222.216797" xlink:href="#LiberationSans-45"/>
     </g>
    </g>
   </g>
   <g id="line2d_25">
    <path clip-path="url(#pc778499c78)" d="M 115.363636 140.480229 
L 115.554026 206.284767 
L 115.61712 189.123801 
L 115.807509 134.041934 
L 115.870604 139.878702 
L 115.933698 122.794379 
L 115.997899 124.332408 
L 116.060993 129.473351 
L 116.124087 156.944275 
L 116.251382 126.405298 
L 116.314477 149.543053 
L 116.504866 113.996136 
L 116.56796 102.319858 
L 116.695255 139.906004 
L 116.75835 137.754277 
L 116.821444 108.384145 
L 116.885645 176.60806 
L 116.948739 156.101084 
L 117.076034 97.123543 
L 117.139129 122.504361 
L 117.202223 115.004785 
L 117.265317 157.816632 
L 117.329518 127.726882 
L 117.392612 158.086256 
L 117.455706 142.15159 
L 117.519907 128.042668 
L 117.583002 129.03498 
L 117.646096 177.685349 
L 117.70919 141.473089 
L 117.836485 83.150036 
L 117.899579 84.74234 
L 117.96378 132.485813 
L 118.026875 117.809245 
L 118.089969 124.529445 
L 118.217264 88.501832 
L 118.280358 137.105053 
L 118.343452 86.313702 
L 118.470748 169.181729 
L 118.533842 167.970889 
L 118.661137 85.128629 
L 118.851527 149.300293 
L 118.914621 163.843968 
L 119.10501 115.86848 
L 119.168104 147.490667 
L 119.231199 100.290827 
L 119.2954 124.291619 
L 119.358494 135.439942 
L 119.485789 107.767925 
L 119.739273 185.82779 
L 119.865461 95.127296 
L 120.05585 156.975086 
L 120.120052 147.712703 
L 120.183146 149.732524 
L 120.309334 81.157079 
L 120.373535 88.207976 
L 120.563925 152.198392 
L 120.627019 147.947678 
L 120.690113 90.980857 
L 120.753207 121.967635 
L 120.817408 105.00546 
L 120.880502 156.163802 
L 121.007798 98.558722 
L 121.198187 144.195643 
L 121.261281 127.192021 
L 121.324375 153.989926 
L 121.38747 137.667875 
L 121.514765 121.886057 
L 121.577859 124.870998 
L 121.64206 135.472398 
L 121.705154 115.170134 
L 121.768248 130.540114 
L 121.831343 134.279431 
L 122.149027 190.70503 
L 122.275216 102.076221 
L 122.339417 177.622192 
L 122.402511 147.966318 
L 122.465605 154.606804 
L 122.655995 91.643897 
L 122.78329 146.302743 
L 122.846384 146.207459 
L 122.973679 103.272149 
L 123.164069 126.18052 
L 123.227163 120.256802 
L 123.290257 164.245059 
L 123.353351 134.745105 
L 123.417552 119.031488 
L 123.480646 192.230779 
L 123.543741 176.728892 
L 123.73413 86.490892 
L 123.797224 161.983465 
L 123.861425 104.133651 
L 123.924519 185.82461 
L 123.987614 165.730238 
L 124.178003 111.255929 
L 124.241097 134.05553 
L 124.305298 129.501312 
L 124.368393 144.641251 
L 124.431487 118.606274 
L 124.495688 130.144396 
L 124.621876 177.405309 
L 124.686077 134.76846 
L 124.749171 144.283142 
L 124.812266 158.504233 
L 125.002655 96.481774 
L 125.256139 183.026948 
L 125.446528 82.260135 
L 125.573823 145.783232 
L 125.636917 119.916894 
L 125.700012 188.046621 
L 125.763106 149.37902 
L 125.890401 113.208865 
L 125.953495 163.259655 
L 126.017696 103.686508 
L 126.080791 107.203349 
L 126.143885 108.129653 
L 126.208086 145.440693 
L 126.27118 99.245336 
L 126.334274 125.835678 
L 126.461569 92.314612 
L 126.524664 98.166402 
L 126.651959 124.871984 
L 126.715053 97.067622 
L 126.778147 148.775299 
L 126.841241 130.773225 
L 126.905442 147.185627 
L 126.968537 109.319331 
L 127.031631 111.715463 
L 127.095832 116.069684 
L 127.158926 113.128164 
L 127.285114 88.998975 
L 127.349315 90.907174 
L 127.41241 119.669419 
L 127.475504 111.624784 
L 127.539705 100.687423 
L 127.602799 104.671254 
L 127.730094 150.720341 
L 127.793189 122.49208 
L 127.856283 163.128736 
L 127.919377 151.275597 
L 128.046672 82.116058 
L 128.173967 131.476396 
L 128.237062 114.230124 
L 128.427451 142.559698 
L 128.490545 131.906215 
L 128.553639 92.285227 
L 128.744029 144.973264 
L 128.807123 136.243441 
L 128.871324 148.142413 
L 128.934418 135.635664 
L 129.061714 89.571774 
L 129.252103 200.606111 
L 129.378291 131.679354 
L 129.505587 176.606087 
L 129.568681 169.808585 
L 129.75907 126.565603 
L 129.822164 162.80977 
L 129.885259 123.462792 
L 129.94946 178.000806 
L 130.012554 162.473481 
L 130.075648 181.239142 
L 130.139849 116.9734 
L 130.202943 142.295118 
L 130.266037 145.573586 
L 130.330238 161.699697 
L 130.583722 90.397532 
L 130.70991 104.515444 
L 130.9003 172.057021 
L 131.027595 108.300594 
L 131.217985 139.345266 
L 131.281079 118.954187 
L 131.344173 120.50318 
L 131.534562 112.116773 
L 131.597657 83.024818 
L 131.724952 124.994242 
L 131.788046 104.903378 
L 131.852247 113.826949 
L 131.915341 117.425478 
L 132.04153 139.422019 
L 132.105731 132.181431 
L 132.29612 81.44611 
L 132.359214 105.063245 
L 132.422308 73.751142 
L 132.549604 127.203643 
L 132.612698 122.819708 
L 132.739993 78.742307 
L 132.993477 133.351153 
L 133.056571 129.209978 
L 133.119665 131.057432 
L 133.24696 91.293353 
L 133.43735 123.969364 
L 133.690833 140.661477 
L 133.753928 111.586846 
L 133.818129 125.927453 
L 133.881223 117.500477 
L 133.944317 79.988782 
L 134.007411 105.032543 
L 134.134706 129.974003 
L 134.262002 106.653027 
L 134.325096 121.878711 
L 134.38819 119.341791 
L 134.451284 87.740986 
L 134.515485 103.955035 
L 134.578579 128.251876 
L 134.641674 89.434605 
L 134.705875 118.357374 
L 134.768969 105.141314 
L 134.832063 107.835797 
L 134.959358 154.855485 
L 135.022453 135.097732 
L 135.085547 102.890575 
L 135.149748 122.339341 
L 135.275936 78.003391 
L 135.340137 143.406946 
L 135.403231 95.153502 
L 135.466326 113.301517 
L 135.52942 103.258772 
L 135.593621 113.418621 
L 135.656715 147.737045 
L 135.719809 140.017406 
L 135.78401 90.852899 
L 135.847104 129.219846 
L 135.910199 67.643105 
L 135.973293 89.154784 
L 136.037494 100.998165 
L 136.163682 70.92234 
L 136.227883 80.275072 
L 136.354072 143.661549 
L 136.417166 106.557853 
L 136.481367 108.846201 
L 136.797945 71.621673 
L 136.862146 82.491491 
L 137.051428 152.213852 
L 137.241818 71.195802 
L 137.432207 124.16684 
L 137.495301 120.013164 
L 137.559502 116.362114 
L 137.685691 144.591471 
L 137.749892 137.881468 
L 137.812986 89.374737 
L 137.87608 108.125596 
L 137.939174 144.011325 
L 138.003375 116.413868 
L 138.06647 155.522034 
L 138.129564 153.340592 
L 138.256859 115.371557 
L 138.510343 132.430002 
L 138.573437 123.889979 
L 138.700732 208.483862 
L 138.891122 84.192237 
L 139.01731 142.57472 
L 139.081511 125.643795 
L 139.144605 136.167236 
L 139.207699 132.252483 
L 139.2719 109.140824 
L 139.334995 135.354636 
L 139.398089 130.362704 
L 139.461183 110.939705 
L 139.525384 111.616012 
L 139.588478 116.442925 
L 139.651572 111.491672 
L 139.841962 159.50115 
L 139.906163 160.562759 
L 140.032351 118.573161 
L 140.095445 126.191047 
L 140.159647 121.091331 
L 140.285835 117.012435 
L 140.350036 106.896445 
L 140.41313 152.803318 
L 140.476224 133.116836 
L 140.60352 165.046146 
L 140.729708 122.152721 
L 140.793909 143.857928 
L 140.857003 139.948657 
L 141.047393 120.744734 
L 141.110487 119.219534 
L 141.173581 125.258602 
L 141.237782 122.964772 
L 141.300876 123.728359 
L 141.36397 140.012691 
L 141.491266 110.125022 
L 141.617454 144.295203 
L 141.744749 113.093954 
L 141.872045 155.997905 
L 141.935139 151.528883 
L 142.061327 116.711342 
L 142.188622 169.537865 
L 142.251717 168.143584 
L 142.442106 117.356181 
L 142.5052 126.813626 
L 142.569401 133.902243 
L 142.632495 99.316717 
L 142.69559 142.787218 
L 142.759791 124.901151 
L 142.885979 133.200497 
L 142.95018 125.280532 
L 143.013274 145.661085 
L 143.076368 128.301765 
L 143.139463 137.680813 
L 143.266758 163.266124 
L 143.394053 112.607557 
L 143.457147 120.668419 
L 143.520241 152.357929 
L 143.583336 135.336654 
L 143.710631 83.882812 
L 143.773725 89.1095 
L 143.837926 84.500896 
L 143.964115 145.806697 
L 144.09141 99.10707 
L 144.281799 130.645047 
L 144.344893 123.504129 
L 144.472189 140.764984 
L 144.535283 175.916402 
L 144.725672 90.862328 
L 144.788766 95.655031 
L 144.851861 100.491044 
L 144.916062 119.072606 
L 144.979156 106.461801 
L 145.04225 86.848344 
L 145.232639 146.458991 
L 145.359935 92.647942 
L 145.486123 167.929552 
L 145.549217 153.030289 
L 145.613418 150.59611 
L 145.676513 141.505216 
L 145.803808 99.650594 
L 145.929996 149.759388 
L 146.120386 99.478228 
L 146.18348 124.340083 
L 146.247681 112.523128 
L 146.310775 104.729696 
L 146.373869 150.766064 
L 146.43807 114.454353 
L 146.501164 118.242902 
L 146.627353 210.726268 
L 146.754648 209.530011 
L 146.881943 119.961959 
L 146.945037 137.701536 
L 147.008132 135.856275 
L 147.072333 119.589815 
L 147.135427 127.822166 
L 147.325816 181.764793 
L 147.452005 165.391207 
L 147.516206 179.562299 
L 147.832784 104.119945 
L 148.086267 144.595418 
L 148.149361 132.330333 
L 148.276657 180.275448 
L 148.339751 173.519174 
L 148.467046 129.127084 
L 148.53014 131.328152 
L 148.72053 166.719151 
L 148.910919 102.90768 
L 148.974013 93.904395 
L 149.038214 97.140977 
L 149.291698 128.391567 
L 149.354792 123.696999 
L 149.417886 125.156959 
L 149.545182 170.386319 
L 149.735571 106.070469 
L 149.92596 163.573248 
L 150.052149 138.405365 
L 150.242538 156.0524 
L 150.496022 119.51975 
L 150.560223 132.721885 
L 150.623317 123.729016 
L 150.749505 101.068558 
L 150.813707 101.164171 
L 150.939895 93.643104 
L 151.06719 117.445872 
L 151.130284 109.713734 
L 151.193379 90.067821 
L 151.25758 92.735221 
L 151.383768 110.35616 
L 151.447969 102.613166 
L 151.511063 106.404346 
L 151.574157 124.386026 
L 151.637252 113.613465 
L 151.701453 119.393435 
L 151.827641 97.16477 
L 152.145326 140.621346 
L 152.20842 131.365213 
L 152.271514 131.855777 
L 152.589199 162.506594 
L 152.652293 157.912026 
L 152.715387 161.759345 
L 152.905777 105.553918 
L 153.096166 173.631344 
L 153.160367 171.186309 
L 153.286555 109.298607 
L 153.413851 165.444496 
L 153.476945 159.554768 
L 153.60424 91.31013 
L 153.667334 102.178522 
L 153.793523 111.741778 
L 153.857724 107.466065 
L 153.920818 89.641401 
L 153.983912 103.111844 
L 154.048113 133.768692 
L 154.111207 123.030341 
L 154.364691 105.548326 
L 154.427785 107.192713 
L 154.491986 141.200286 
L 154.55508 140.111374 
L 154.74547 95.218852 
L 154.808564 97.804784 
L 154.935859 122.278487 
L 154.998953 115.83734 
L 155.062048 103.335525 
L 155.126249 104.081349 
L 155.189343 105.220041 
L 155.315531 96.729798 
L 155.69631 143.482165 
L 155.823605 102.109883 
L 156.140183 146.669734 
L 156.267478 92.814168 
L 156.330573 110.262411 
L 156.520962 160.506401 
L 156.584056 148.427935 
L 156.711351 87.225752 
L 156.901741 138.592315 
L 157.027929 83.992898 
L 157.09213 84.401445 
L 157.218319 118.888069 
L 157.281413 99.19128 
L 157.345614 110.982797 
L 157.408708 134.054324 
L 157.471802 123.729674 
L 157.599097 69.025654 
L 157.662192 74.935776 
L 157.789487 141.558834 
L 157.852581 139.53375 
L 157.979876 118.23095 
L 158.042971 140.123107 
L 158.170266 107.211792 
L 158.359548 152.115169 
L 158.423749 159.250276 
L 158.549938 142.71167 
L 158.677233 158.175619 
L 158.740327 166.079356 
L 158.867622 134.886331 
L 158.993811 159.635688 
L 159.058012 156.746689 
L 159.121106 160.480414 
L 159.247294 196.655832 
L 159.437684 149.212575 
L 159.628073 205.900342 
L 160.008852 78.706342 
L 160.136147 90.165188 
L 160.262336 79.796679 
L 160.389631 125.701031 
L 160.452725 123.444481 
L 160.643115 107.630317 
L 160.769303 131.961697 
L 160.833504 129.922797 
L 161.023894 95.222799 
L 161.086988 98.488767 
L 161.150082 97.314439 
L 161.214283 97.676606 
L 161.277377 98.433394 
L 161.340471 104.878488 
L 161.403565 104.418954 
L 161.467767 100.116158 
L 161.593955 135.090605 
L 161.658156 134.89598 
L 161.72125 115.891945 
L 161.784344 116.72132 
L 161.847439 115.858612 
L 161.91164 118.742567 
L 162.102029 167.962666 
L 162.165123 168.247092 
L 162.355513 84.700893 
L 162.418607 84.937403 
L 162.481701 92.416366 
L 162.608996 69.137604 
L 162.67209 69.605252 
L 162.989775 152.65047 
L 163.180165 105.23572 
L 163.243259 117.462539 
L 163.306353 139.310946 
L 163.369447 131.963232 
L 163.496742 105.980557 
L 163.559837 106.403578 
L 163.687132 110.688721 
L 163.750226 107.472315 
L 163.877521 85.344854 
L 164.00371 105.974856 
L 164.131005 139.36566 
L 164.194099 133.181747 
L 164.321394 100.502009 
L 164.384488 102.786958 
L 164.511784 154.825113 
L 164.574878 144.727434 
L 164.828361 104.676188 
L 165.018751 90.40433 
L 165.081845 94.003188 
L 165.335329 126.705404 
L 165.589919 135.763951 
L 166.096886 197.935969 
L 166.224182 210.332742 
L 166.413464 182.664782 
L 166.603854 211.832723 
L 166.668055 211.126372 
L 166.794243 189.267439 
L 166.921538 193.569248 
L 166.984633 202.417053 
L 167.047727 196.353533 
L 167.175022 148.217083 
L 167.238116 158.02573 
L 167.4916 124.132849 
L 167.681989 93.511088 
L 167.809284 132.167615 
L 167.872379 123.425292 
L 167.999674 92.752984 
L 168.062768 96.584076 
L 168.190063 79.572011 
L 168.379346 125.93151 
L 168.506641 111.579061 
L 168.633936 131.175194 
L 168.697031 150.308613 
L 168.760125 150.157738 
L 169.331293 80.901051 
L 169.394387 85.17205 
L 169.647871 118.077443 
L 169.712072 118.004418 
L 169.83826 99.815394 
L 170.02865 129.421707 
L 170.155945 145.07414 
L 170.409429 111.18082 
L 170.472523 110.979178 
L 170.599818 127.871617 
L 170.726006 92.241587 
L 170.853302 117.165065 
L 171.106785 76.939808 
L 171.169879 79.745364 
L 171.360269 87.792521 
L 171.423363 86.781678 
L 171.487564 86.887598 
L 171.550658 88.627488 
L 171.677954 81.108834 
L 171.868343 110.342454 
L 171.931437 103.583439 
L 172.121827 75.425243 
L 172.312216 99.705198 
L 172.5657 72.087676 
L 172.756089 103.471379 
L 172.882277 118.646077 
L 172.946478 116.154441 
L 173.009573 120.579495 
L 173.263056 176.909263 
L 173.643835 99.008606 
L 173.706929 94.307131 
L 173.897319 111.692656 
L 174.087708 136.124473 
L 174.150802 154.108675 
L 174.213897 150.270894 
L 174.278098 146.996594 
L 174.341192 152.879633 
L 174.404286 150.87308 
L 174.46738 142.132292 
L 174.65777 206.569741 
L 174.721971 196.825676 
L 174.785065 190.609856 
L 174.848159 198.515677 
L 175.038548 244.340753 
L 175.165844 233.100874 
L 175.292032 234.992517 
L 175.419327 249.443759 
L 175.545516 288.429448 
L 175.609717 281.694994 
L 175.8632 254.060805 
L 176.05359 279.895017 
L 176.116684 277.265993 
L 176.941336 109.644875 
L 177.00443 118.32744 
L 177.067524 124.738872 
L 177.194819 117.590388 
L 177.385209 132.771117 
L 177.511397 145.680931 
L 177.575598 139.223776 
L 177.829082 77.514252 
L 177.956377 82.968788 
L 178.589533 132.254785 
L 178.844123 112.952179 
L 179.033406 181.556243 
L 179.097607 165.638901 
L 179.351091 97.34218 
L 179.414185 95.631237 
L 179.604574 127.881486 
L 179.667668 130.217092 
L 179.731869 126.019448 
L 179.794964 129.28695 
L 179.985353 164.125872 
L 180.048447 162.210655 
L 180.175742 140.377599 
L 180.366132 119.364379 
L 180.555414 107.341286 
L 180.619615 108.140069 
L 180.68271 106.814538 
L 180.810005 91.785343 
L 180.873099 94.289916 
L 180.936193 99.727347 
L 181.000394 98.099188 
L 181.189677 92.675134 
L 181.316972 75.898483 
L 181.380066 78.402618 
L 181.570456 95.868734 
L 181.63355 95.764898 
L 181.760845 115.269913 
L 181.823939 114.412358 
L 181.951235 98.117499 
L 182.014329 98.311685 
L 182.204718 86.307013 
L 182.395108 105.21708 
L 182.522403 121.497904 
L 182.775887 91.680739 
L 182.902075 102.472488 
L 182.966276 100.545977 
L 183.282854 68.695833 
L 183.345948 72.829004 
L 183.600538 145.92095 
L 183.726727 128.266788 
L 183.854022 113.774647 
L 184.107506 120.826641 
L 184.1706 118.775022 
L 184.233694 110.354734 
L 184.297895 110.485434 
L 184.424083 122.507102 
L 184.488285 121.999981 
L 184.614473 116.592703 
L 184.741768 100.669989 
L 185.31183 131.229031 
L 185.439125 143.005416 
L 185.692608 184.984818 
L 185.882998 196.138733 
L 186.454166 280.025936 
L 186.770744 330.130893 
L 186.833838 330.514769 
L 187.024228 304.830336 
L 187.468101 247.495647 
L 187.595396 244.685705 
L 187.65849 244.622877 
L 187.785785 207.255478 
L 187.976175 175.889429 
L 188.102363 167.517715 
L 188.355847 114.564659 
L 188.420048 119.300783 
L 188.546236 125.219458 
L 188.673531 111.458229 
L 188.927015 83.838404 
L 189.05431 89.674514 
L 189.243593 120.832452 
L 189.307794 116.141284 
L 189.370888 96.916528 
L 189.433982 98.469578 
L 189.624372 150.986017 
L 189.814761 140.441524 
L 190.005151 103.43355 
L 190.068245 104.684083 
L 190.19554 111.183671 
L 190.258634 111.16525 
L 190.385929 107.139095 
L 190.576319 128.359221 
L 190.765601 176.589968 
L 190.829802 172.270177 
L 191.083286 103.566992 
L 191.14638 118.641252 
L 191.33677 178.047187 
L 191.399864 176.928561 
L 191.527159 137.788268 
L 191.654454 98.504008 
L 191.717549 100.56988 
L 191.907938 109.299814 
L 191.971032 109.356501 
L 192.034126 107.343369 
L 192.224516 89.089434 
L 192.28761 90.612002 
L 192.414905 104.814454 
L 192.5422 121.769392 
L 192.795684 106.429784 
L 192.858778 112.975754 
L 192.986073 146.284213 
L 193.049168 141.468265 
L 193.112262 138.104273 
L 193.176463 139.248227 
L 193.302651 142.356412 
L 193.429947 118.550683 
L 193.68343 72.858719 
L 193.746524 74.540277 
L 194.000008 104.726626 
L 194.190397 141.551488 
L 194.380787 83.185671 
L 194.443881 85.041569 
L 194.698472 110.96624 
L 194.761566 110.168114 
L 194.887754 101.930061 
L 195.078143 86.567317 
L 195.268533 100.288524 
L 195.331627 98.812118 
L 195.458922 91.418681 
L 195.649312 70.493069 
L 195.712406 71.089443 
L 195.96589 89.395132 
L 196.156279 71.189661 
L 196.22048 72.732624 
L 196.473964 92.809891 
L 196.537058 91.211118 
L 196.600152 90.77154 
L 196.790541 99.070338 
L 196.917837 85.219856 
L 197.044025 72.386686 
L 197.108226 73.250052 
L 197.424804 94.434103 
L 197.552099 99.942915 
L 197.615193 99.644015 
L 197.742489 94.964908 
L 197.805583 94.992758 
L 197.868677 94.577742 
L 197.931771 96.763679 
L 198.375644 146.047812 
L 198.439845 147.906451 
L 198.630235 127.88938 
L 198.693329 130.969056 
L 199.897653 227.704999 
L 199.961854 228.024732 
L 200.024948 229.555195 
L 200.596116 266.677202 
L 200.659211 265.884449 
L 200.722305 264.703105 
L 200.786506 265.370201 
L 200.912694 267.94155 
L 201.039989 265.427547 
L 201.230379 245.767599 
L 201.80044 191.121801 
L 201.927735 190.037056 
L 202.053924 183.03583 
L 202.371609 140.88143 
L 202.434703 143.018026 
L 202.625092 160.101691 
L 202.688186 160.007394 
L 202.878576 123.938663 
L 203.132059 89.468596 
L 203.259355 86.692206 
L 203.512838 96.5048 
L 203.956711 85.3681 
L 204.084007 101.107483 
L 204.33749 143.48041 
L 204.400584 142.55301 
L 204.844457 108.012549 
L 204.907552 108.188095 
L 205.034847 111.674235 
L 205.162142 105.326728 
L 205.352532 96.975957 
L 205.415626 98.941392 
L 206.049888 154.009663 
L 206.112982 150.312999 
L 206.366466 107.513652 
L 206.430667 107.62944 
L 206.684151 136.554183 
L 206.747245 133.338763 
L 207.063823 97.720575 
L 207.254212 106.215533 
L 207.381507 118.755395 
L 207.634991 159.719788 
L 207.698085 157.611262 
L 207.888475 141.567277 
L 207.951569 141.695894 
L 208.332348 132.554343 
L 208.585831 108.264191 
L 208.713126 102.314157 
L 208.840422 112.927838 
L 208.96661 102.198698 
L 209.220094 82.189412 
L 209.347389 78.996689 
L 209.918557 111.680156 
L 209.981651 111.951096 
L 210.488619 95.349004 
L 210.679008 71.658076 
L 210.742102 73.45915 
L 211.059787 123.210383 
L 211.122881 122.626399 
L 211.566754 88.418938 
L 211.629848 87.992518 
L 211.694049 88.012255 
L 211.884439 92.886425 
L 212.010627 101.922605 
L 212.328312 140.720467 
L 212.517594 116.897195 
L 212.962574 69.220607 
L 213.025669 69.725974 
L 213.151857 81.91935 
L 213.469542 112.428392 
L 213.723025 107.423193 
L 213.85032 113.258426 
L 214.229992 137.376541 
L 214.294193 137.892323 
L 214.357288 137.570617 
L 214.420382 137.410312 
L 214.547677 139.306341 
L 214.673865 142.30389 
L 214.738067 141.716288 
L 214.99155 129.493527 
L 215.308128 114.890532 
L 215.372329 115.82802 
L 215.498517 123.101612 
L 215.688907 153.326557 
L 215.879296 173.084421 
L 216.195874 170.278864 
L 216.323169 168.730529 
L 216.450465 173.239463 
L 216.894338 204.827439 
L 217.147821 223.457904 
L 217.338211 226.693061 
L 217.401305 226.229689 
L 217.464399 225.876295 
L 217.654788 230.213301 
L 217.782084 229.974927 
L 217.908272 231.976546 
L 218.225957 243.823326 
L 218.289051 243.322674 
L 218.352145 242.945705 
L 218.542535 244.907413 
L 218.66983 240.688936 
L 219.050609 222.13939 
L 219.239891 217.874642 
L 219.494482 190.447468 
L 219.557576 193.317826 
L 219.747965 204.358695 
L 219.874154 198.650544 
L 220.128744 183.047781 
L 220.191838 183.53681 
L 220.318027 186.074716 
L 220.382228 185.315735 
L 220.508416 175.957849 
L 220.826101 141.641947 
L 220.889195 141.622759 
L 220.952289 141.303903 
L 221.079584 135.691255 
L 221.396162 112.486725 
L 221.460363 113.828594 
L 221.649646 137.085207 
L 221.776941 154.629392 
L 221.840035 151.08788 
L 222.15772 98.015198 
L 222.411204 91.539403 
L 222.727781 79.461267 
L 222.791982 79.097236 
L 223.172761 70.191757 
L 223.29895 66.96 
L 223.426245 78.7445 
L 223.742823 106.678465 
L 223.870118 107.024623 
L 223.996306 114.670688 
L 224.313991 142.218036 
L 224.377085 143.083266 
L 224.440179 142.004223 
L 224.630569 133.417709 
L 224.757864 139.428708 
L 224.948253 147.248455 
L 225.011348 147.03508 
L 225.138643 144.953418 
L 225.201737 145.314049 
L 225.582516 165.93484 
L 225.64561 164.475429 
L 225.771798 155.987379 
L 226.216778 103.13158 
L 226.279873 103.847909 
L 226.406061 105.188901 
L 226.533356 99.718575 
L 226.660652 94.097813 
L 226.723746 94.627302 
L 227.167619 113.124436 
L 227.421102 133.994127 
L 227.548398 138.652621 
L 227.992271 119.572929 
L 228.055365 119.681809 
L 228.18266 120.418642 
L 228.245754 120.012835 
L 228.371943 115.895673 
L 228.562332 99.52428 
L 228.815816 79.184955 
L 228.880017 79.702821 
L 229.070406 88.218941 
L 229.196595 93.576 
L 229.259689 93.05002 
L 229.514279 85.466125 
L 229.640468 89.410592 
L 229.893951 98.826701 
L 230.021246 100.175587 
L 230.27473 109.298278 
L 230.781697 121.46808 
L 230.908993 122.421029 
L 231.036288 127.920849 
L 231.226677 141.526598 
L 231.352866 132.76706 
L 231.859833 82.046651 
L 232.114423 70.376843 
L 232.240612 69.654593 
L 232.367907 71.392729 
L 232.684485 77.565677 
L 232.748686 77.458661 
L 232.81178 77.63618 
L 232.937968 79.748434 
L 233.381841 92.135338 
L 233.509137 89.942274 
L 233.76262 84.753195 
L 233.826821 85.295842 
L 234.080305 92.043673 
L 234.143399 91.07965 
L 234.524178 73.976029 
L 234.587272 75.156497 
L 234.777662 90.418584 
L 235.475018 157.13572 
L 235.538112 156.662919 
L 235.665408 151.460024 
L 236.362764 109.651235 
L 236.616248 102.760861 
L 236.680449 103.713152 
L 236.870838 116.093697 
L 237.187416 135.729851 
L 237.4409 138.640669 
L 237.503994 138.327844 
L 237.631289 132.451164 
L 238.012068 106.705658 
L 238.138257 110.390808 
L 238.962908 148.19307 
L 239.153298 151.587983 
L 239.406781 165.092307 
L 239.724466 178.205079 
L 239.914856 180.738381 
L 240.104138 179.993324 
L 240.231433 181.33925 
L 240.548011 185.84325 
L 240.675306 186.701682 
L 240.92879 191.720807 
L 241.119179 194.228451 
L 241.246475 191.391754 
L 241.626147 176.755975 
L 241.753442 179.269869 
L 241.943831 190.640558 
L 242.260409 211.080978 
L 242.32461 211.193915 
L 242.450799 207.079274 
L 242.704282 187.976666 
L 243.275451 142.480423 
L 243.402746 139.064129 
L 243.46584 139.316648 
L 243.782418 149.015318 
L 243.846619 147.43365 
L 244.035901 134.669119 
L 244.479774 101.046848 
L 244.543975 100.263415 
L 244.670164 104.029047 
L 244.924754 112.371814 
L 244.987849 112.645714 
L 245.114037 111.026985 
L 245.368627 101.375462 
L 245.8125 84.344757 
L 246.256373 72.87385 
L 246.382562 76.191681 
L 247.016824 103.813699 
L 247.14412 104.127949 
L 247.270308 106.040864 
L 247.460697 114.013131 
L 247.968771 140.671016 
L 248.031866 140.535272 
L 248.475739 136.277103 
L 248.538833 136.345304 
L 248.666128 137.431474 
L 248.856518 142.893466 
L 249.173095 153.065486 
L 249.23619 152.967351 
L 249.426579 149.080559 
L 249.934653 132.45248 
L 250.251231 118.363295 
L 250.695104 108.492039 
L 250.822399 107.176814 
L 251.266272 98.523086 
L 251.329366 99.699387 
L 251.519756 112.6251 
L 251.773239 132.095248 
L 251.836334 132.466625 
L 251.963629 125.847849 
L 252.407502 91.544118 
L 252.534797 95.108766 
L 252.914469 109.251788 
L 253.104859 110.098159 
L 253.167953 110.173267 
L 253.295248 111.279174 
L 253.422543 115.243707 
L 253.612933 129.951525 
L 253.929511 153.47217 
L 253.992605 152.621523 
L 254.563773 133.859919 
L 254.689961 135.678317 
L 254.944552 139.936596 
L 255.07074 135.414394 
L 255.324224 107.568147 
L 255.641909 82.189741 
L 255.705003 81.582183 
L 255.768097 81.992814 
L 255.895392 83.285122 
L 255.958486 82.794448 
L 256.276171 74.09094 
L 256.339265 74.755625 
L 256.720044 84.276337 
L 256.973528 95.458761 
L 257.354307 111.580596 
L 257.417401 111.315139 
L 257.544696 106.364434 
L 257.924368 83.837088 
L 258.051663 87.649759 
L 258.55863 114.67321 
L 258.685926 112.384314 
L 258.939409 98.160481 
L 259.255987 83.03052 
L 259.383282 85.204505 
L 260.524512 121.107558 
L 260.588713 120.357239 
L 260.777996 111.534983 
L 261.158775 91.421861 
L 261.28607 98.167828 
L 261.793037 140.041529 
L 261.920332 141.215198 
L 261.983426 141.194365 
L 262.046521 141.3016 
L 262.173816 143.690496 
L 262.364205 157.707971 
L 262.934267 216.867089 
L 263.188857 222.519539 
L 263.251951 222.726773 
L 263.315046 222.64991 
L 263.442341 221.682927 
L 263.63273 216.55843 
L 264.583571 176.732949 
L 265.090538 153.470086 
L 265.7248 123.165975 
L 266.232874 97.903467 
L 266.359063 101.000906 
L 266.802936 117.731505 
L 266.930231 115.897866 
L 267.246809 108.046759 
L 267.309903 108.496754 
L 267.437198 113.189238 
L 268.008367 144.730833 
L 268.071461 145.29826 
L 268.134555 145.281813 
L 268.26185 143.597514 
L 268.515334 135.227993 
L 268.959207 121.505689 
L 269.276891 117.521639 
L 269.530375 116.166393 
L 269.593469 116.056965 
L 269.656563 116.118148 
L 269.783859 117.048728 
L 269.974248 120.990126 
L 270.290826 133.310693 
L 271.052384 168.111348 
L 271.305867 172.651093 
L 271.368961 172.647803 
L 271.496257 171.032583 
L 271.686646 164.362711 
L 272.510191 128.230494 
L 272.574392 127.675129 
L 272.637486 127.716685 
L 272.764782 129.597144 
L 273.334843 141.742933 
L 273.399044 141.679118 
L 273.525233 140.597223 
L 273.842917 137.313932 
L 273.969106 138.675428 
L 274.222589 147.374769 
L 274.476073 154.992984 
L 274.540274 155.253836 
L 274.666462 153.444319 
L 275.42802 134.109038 
L 275.681504 127.151012 
L 275.934987 121.614021 
L 275.998081 121.705358 
L 276.125377 123.955987 
L 276.950029 147.494614 
L 277.140418 148.011603 
L 277.266606 147.774764 
L 277.456996 146.795171 
L 277.647385 144.918002 
L 277.837775 140.096901 
L 278.154352 121.780905 
L 278.535131 102.162404 
L 278.598225 101.469759 
L 278.662427 101.67184 
L 278.788615 104.595049 
L 279.676361 142.101481 
L 279.930951 172.499779 
L 280.374825 230.545753 
L 280.501013 233.970819 
L 280.564107 233.68091 
L 280.944886 226.991851 
L 281.00798 227.604453 
L 281.19837 233.857772 
L 281.832632 261.410931 
L 282.150317 265.592567 
L 282.466895 268.221262 
L 282.531096 268.00394 
L 282.657284 265.696842 
L 282.910768 253.181431 
L 283.988903 172.743636 
L 284.750461 105.087038 
L 284.813555 105.192958 
L 284.94085 109.30727 
L 285.447817 137.243319 
L 285.510912 136.911853 
L 285.638207 133.089863 
L 286.208268 109.551017 
L 286.335564 111.263824 
L 286.652141 117.03261 
L 286.716342 116.912107 
L 286.906732 115.518156 
L 286.969826 115.649075 
L 287.097121 117.979418 
L 287.350605 130.018191 
L 288.111056 171.725666 
L 288.17415 171.273808 
L 288.364539 164.489135 
L 288.998802 135.452113 
L 289.252285 127.367896 
L 289.886548 96.443836 
L 289.950749 96.826726 
L 290.076937 100.422075 
L 290.330421 118.523381 
L 290.774294 150.781963 
L 290.838495 151.682719 
L 290.901589 151.600044 
L 291.028885 149.158189 
L 292.042819 121.030257 
L 292.296303 111.110207 
L 292.867471 82.728331 
L 292.930565 82.247854 
L 292.994766 82.291275 
L 293.311344 83.885991 
L 293.629029 82.691928 
L 293.692123 82.94028 
L 293.882512 85.38674 
L 294.262184 95.045499 
L 294.706057 104.558097 
L 294.770258 104.825967 
L 294.833353 104.674872 
L 294.960648 103.059213 
L 295.214131 95.412928 
L 295.658004 82.144895 
L 295.721099 81.935468 
L 295.848394 83.306832 
L 296.355361 94.535747 
L 296.418455 94.448467 
L 296.545751 92.973047 
L 297.052718 84.348705 
L 297.116919 84.35024 
L 297.243107 85.332026 
L 297.496591 90.548297 
L 298.702022 121.903053 
L 298.765116 122.239233 
L 298.82821 122.115002 
L 298.955505 120.440791 
L 299.526673 110.049146 
L 299.589768 109.98895 
L 299.717063 110.456159 
L 299.906345 112.949 
L 300.22403 122.289013 
L 300.858293 147.492311 
L 301.999522 212.937095 
L 302.633785 241.744295 
L 303.077658 279.470351 
L 303.965404 365.276718 
L 304.155793 369.36 
L 304.218888 369.103753 
L 304.346183 366.515628 
L 304.599666 355.140773 
L 305.043539 322.02946 
L 305.550507 284.137617 
L 306.24897 248.664492 
L 308.087557 133.360802 
L 308.658725 105.395587 
L 308.975303 98.177477 
L 309.165692 97.275185 
L 309.292987 98.297541 
L 309.48227 103.083445 
L 309.73686 117.055307 
L 310.497311 168.527022 
L 310.87809 176.972749 
L 311.258869 181.625211 
L 311.385057 181.866436 
L 311.512353 181.113266 
L 311.765836 177.014853 
L 312.146615 166.910596 
L 312.526287 150.311135 
L 313.097455 126.281287 
L 313.350939 123.706319 
L 313.668624 122.576619 
L 313.922107 120.129172 
L 314.238685 114.364442 
L 315.253726 92.795856 
L 315.951083 84.977863 
L 316.204567 83.324266 
L 316.268768 83.392577 
L 316.394956 84.575347 
L 316.585346 89.780873 
L 317.029219 113.222023 
L 317.409997 127.633572 
L 317.663481 131.26346 
L 318.04426 134.645873 
L 318.360838 141.539536 
L 318.868912 152.425363 
L 319.058194 153.190923 
L 319.18549 152.460998 
L 319.438973 148.484294 
L 320.454015 129.014147 
L 320.58131 128.516127 
L 320.707498 129.254385 
L 320.960982 134.057942 
L 321.469056 144.494433 
L 321.53215 144.671404 
L 321.595244 144.433797 
L 321.72254 142.635575 
L 321.976023 134.183708 
L 322.800675 101.353533 
L 323.054159 98.417824 
L 323.117253 98.487341 
L 323.307642 100.064075 
L 323.688421 103.818195 
L 323.81461 104.039902 
L 323.941905 103.671047 
L 324.766557 99.388317 
L 324.956946 99.301585 
L 325.083134 99.446101 
L 325.336618 100.307384 
L 325.717397 102.703625 
L 326.478955 110.60835 
L 326.732438 117.149166 
L 327.113217 136.456486 
L 328.254447 204.539504 
L 328.571025 210.566511 
L 328.888709 215.67763 
L 329.205287 225.38606 
L 329.966845 252.021686 
L 330.727296 266.958668 
L 331.234263 290.034691 
L 331.615042 302.503392 
L 331.868525 304.761039 
L 331.932727 304.685711 
L 332.123116 303.388798 
L 332.630083 296.67726 
L 332.946661 290.717796 
L 333.201251 281.930189 
L 333.580923 259.190674 
L 334.849448 173.950309 
L 335.230227 163.908221 
L 335.483711 161.170756 
L 335.6741 160.560676 
L 336.054879 160.275811 
L 336.245269 159.337885 
L 336.498752 156.631121 
L 336.878424 149.719915 
L 338.020761 126.392689 
L 338.146949 127.343225 
L 338.337339 131.185501 
L 338.781212 147.252512 
L 339.225085 160.45366 
L 339.35238 161.559677 
L 339.415474 161.466037 
L 339.542769 159.868251 
L 339.796253 151.302022 
L 340.811294 106.127705 
L 340.937483 105.157103 
L 341.000577 105.259185 
L 341.127872 106.639321 
L 341.318262 111.603732 
L 341.634839 127.049917 
L 342.522585 178.103107 
L 342.649881 179.246843 
L 342.712975 179.007482 
L 342.903364 175.606757 
L 343.347237 159.54161 
L 344.044594 136.278199 
L 344.552668 126.214073 
L 344.806152 124.349842 
L 344.869246 124.363548 
L 344.996541 125.074723 
L 345.186931 128.00769 
L 345.503508 137.503293 
L 346.074677 154.835968 
L 346.32816 157.320147 
L 346.391254 157.384401 
L 346.51855 156.816316 
L 346.708939 154.090802 
L 347.025517 144.414719 
L 348.674821 80.133956 
L 349.054493 74.808365 
L 349.244882 73.936666 
L 349.309083 73.920438 
L 349.435272 74.289183 
L 349.625661 75.769099 
L 350.00644 81.198525 
L 350.894186 94.791664 
L 351.401153 99.071544 
L 351.845026 102.652968 
L 352.162711 107.187998 
L 352.796973 116.579655 
L 352.923162 116.77746 
L 353.050457 116.172753 
L 353.303941 113.162593 
L 353.747814 108.238862 
L 353.810908 108.16496 
L 353.938203 108.71901 
L 354.128593 111.356476 
L 354.44517 119.978187 
L 355.397118 149.142839 
L 355.460212 149.146676 
L 355.5864 147.820268 
L 355.77679 142.641167 
L 356.791831 107.356636 
L 356.854925 107.144249 
L 356.919126 107.230213 
L 357.045314 108.274936 
L 357.298798 113.657543 
L 357.679577 128.382466 
L 358.820807 176.780207 
L 359.835848 208.486055 
L 360.407016 219.353022 
L 361.167467 231.615695 
L 361.80173 250.279274 
L 362.182509 258.674453 
L 362.372898 259.832991 
L 362.499086 259.295936 
L 362.75257 256.014618 
L 363.133349 251.542636 
L 363.260644 251.374436 
L 363.386832 251.877938 
L 363.704517 254.659372 
L 364.401874 262.597101 
L 365.28962 275.326215 
L 365.733493 279.846772 
L 366.114272 287.787132 
L 366.938924 306.309594 
L 367.573186 315.185688 
L 367.889764 317.767014 
L 368.017059 318.07973 
L 368.080153 318.027318 
L 368.207449 317.434234 
L 368.396731 315.127684 
L 368.651322 308.999034 
L 369.030994 293.225221 
L 369.91874 253.62671 
L 370.109129 251.435181 
L 370.17333 251.389458 
L 370.299519 252.253372 
L 370.553002 257.145525 
L 371.377654 276.098903 
L 371.440748 276.167542 
L 371.568044 275.359219 
L 371.758433 271.825711 
L 372.075011 260.786488 
L 373.217347 207.128177 
L 374.231282 162.819529 
L 376.134069 108.270441 
L 376.705238 95.584417 
L 377.021815 92.649915 
L 377.149111 92.448383 
L 377.275299 92.773269 
L 377.465688 94.162725 
L 377.783373 98.591945 
L 378.227246 108.570875 
L 378.987697 132.205992 
L 380.763189 190.56808 
L 381.143968 197.924785 
L 381.271263 198.413485 
L 381.397452 197.35045 
L 381.587841 192.606212 
L 381.96862 174.449864 
L 382.665977 140.472664 
L 382.983661 133.222207 
L 383.237145 131.564114 
L 383.363333 131.872992 
L 383.553723 133.376372 
L 384.631858 146.422478 
L 384.949543 152.411876 
L 385.329215 165.237152 
L 385.963477 196.924359 
L 387.168908 269.569709 
L 387.73897 298.640832 
L 387.99356 303.990435 
L 388.119748 304.504792 
L 388.247044 303.751622 
L 388.500527 299.62481 
L 389.197884 286.968721 
L 389.832146 277.723005 
L 390.212925 267.907559 
L 390.782987 245.762884 
L 391.861122 203.145991 
L 392.62268 175.253691 
L 394.017393 118.920525 
L 394.525467 107.699944 
L 394.96934 101.988393 
L 395.285918 100.020326 
L 395.413213 99.915941 
L 395.539402 100.307713 
L 395.729791 101.898263 
L 396.047476 106.860919 
L 397.06141 124.584488 
L 397.505283 128.730488 
L 397.758767 129.757997 
L 397.886062 129.760519 
L 398.013358 129.360524 
L 398.20264 127.937296 
L 398.520325 123.295689 
L 399.027292 111.122707 
L 399.59846 97.961909 
L 399.851944 96.054916 
L 399.915038 96.172349 
L 400.042333 97.16784 
L 400.295817 102.029511 
L 400.802784 118.776996 
L 401.501248 140.006551 
L 401.88092 146.180157 
L 402.13551 147.591652 
L 402.198604 147.594503 
L 402.324793 147.186942 
L 402.515182 145.58148 
L 402.832867 140.552268 
L 404.037191 117.778544 
L 404.101392 117.66462 
L 404.164486 117.72043 
L 404.290674 118.326673 
L 404.545265 121.319069 
L 404.989138 130.529149 
L 405.876884 149.700946 
L 406.257663 153.485766 
L 406.511147 154.313497 
L 406.95502 154.923906 
L 407.145409 156.178824 
L 407.398893 159.940289 
L 407.71547 168.638863 
L 408.223545 189.88969 
L 409.04709 223.805268 
L 409.364774 229.176033 
L 409.618258 230.501017 
L 410.062131 231.84453 
L 410.379816 234.273447 
L 410.823689 239.841468 
L 411.584139 249.710093 
L 411.837623 250.697471 
L 411.964918 250.377628 
L 412.155308 248.715369 
L 412.408791 244.199746 
L 412.852664 231.212959 
L 413.613115 208.878813 
L 413.993894 203.877012 
L 414.247378 202.935906 
L 414.374673 202.949831 
L 414.628157 203.430746 
L 414.944734 203.917692 
L 415.07203 203.862649 
L 415.262419 203.417479 
L 415.578997 201.763552 
L 416.530944 195.870096 
L 416.657132 195.808474 
L 416.784428 196.07448 
L 416.974817 197.153085 
L 417.291395 200.813893 
L 417.735268 209.153152 
L 418.55992 229.370987 
L 419.384572 254.59161 
L 420.081928 284.203625 
L 421.350453 340.816283 
L 421.667031 347.039121 
L 421.857421 347.987464 
L 421.984716 347.393393 
L 422.175105 344.628845 
L 422.491683 335.081707 
L 422.935556 312.585172 
L 424.521766 221.74729 
L 425.154921 203.487653 
L 426.360352 170.75956 
L 427.057709 153.625567 
L 427.375393 149.962017 
L 427.565783 149.529457 
L 427.691971 149.955767 
L 427.945455 152.244334 
L 428.453529 160.025157 
L 429.150886 170.108801 
L 429.404369 171.53455 
L 429.467463 171.520844 
L 429.594759 170.948264 
L 429.785148 168.627569 
L 430.101726 161.374591 
L 430.863284 142.594676 
L 431.116767 140.046901 
L 431.242956 139.719603 
L 431.370251 140.015981 
L 431.56064 141.56936 
L 431.877218 146.739031 
L 432.385292 159.649065 
L 433.336132 184.140092 
L 433.589616 186.78644 
L 433.716911 187.026897 
L 433.8431 186.487869 
L 434.033489 184.230771 
L 434.351174 177.181189 
L 435.808981 139.040664 
L 436.633633 125.901577 
L 437.077506 121.519066 
L 437.33099 120.49068 
L 437.521379 120.377195 
L 437.774863 120.677959 
L 437.965252 121.349003 
L 438.282937 124.044254 
L 438.9172 129.303726 
L 439.170683 130.173014 
L 439.297978 130.135075 
L 439.487261 129.439141 
L 439.741851 127.336207 
L 440.121523 121.799436 
L 440.629598 110.390589 
L 441.961217 76.67128 
L 442.2147 74.654639 
L 442.340889 74.533478 
L 442.468184 74.980841 
L 442.721668 77.347478 
L 443.165541 84.349472 
L 443.927098 95.662158 
L 444.307877 98.593919 
L 444.624455 99.641383 
L 444.814844 99.801908 
L 445.005234 99.693905 
L 445.258717 99.21913 
L 445.70259 97.75314 
L 446.399947 95.446152 
L 446.590337 95.285737 
L 446.717632 95.382008 
L 446.906914 95.88551 
L 447.161505 97.295141 
L 447.541177 100.95924 
L 448.23964 110.526991 
L 448.936997 119.086422 
L 449.57126 124.129231 
L 450.33171 128.54946 
L 450.649395 129.465786 
L 450.775583 129.514469 
L 450.902879 129.344954 
L 451.093268 128.662287 
L 451.409846 126.474376 
L 452.424887 118.31812 
L 452.551076 118.233034 
L 452.678371 118.530508 
L 452.86876 119.708673 
L 453.185338 123.323649 
L 453.629211 131.025415 
L 454.137285 145.039492 
L 454.644252 157.152276 
L 455.468904 172.60526 
L 456.229355 195.744659 
L 458.005954 248.140047 
L 459.463762 286.117306 
L 461.049971 315.825482 
L 461.303455 316.954963 
L 461.429643 316.893122 
L 461.620033 316.16857 
L 462.000812 313.247554 
L 462.698168 307.657713 
L 462.951652 306.826473 
L 463.078947 306.766825 
L 463.205136 306.949389 
L 463.459726 307.986985 
L 463.903599 311.285189 
L 464.600956 316.462535 
L 465.107923 318.635315 
L 466.313354 322.525068 
L 466.439542 322.411473 
L 466.629932 321.600299 
L 466.883415 318.915465 
L 467.2011 312.35239 
L 467.644973 297.162232 
L 469.166982 237.902019 
L 469.54776 232.010208 
L 469.737043 231.129079 
L 469.801244 231.148815 
L 469.927432 231.655388 
L 470.117822 233.551088 
L 470.435507 239.443995 
L 471.069769 257.374908 
L 471.63983 271.125391 
L 471.893314 273.816695 
L 472.020609 274.135551 
L 472.147905 273.751784 
L 472.337187 271.903013 
L 472.654872 265.863726 
L 473.289134 247.579418 
L 473.986491 229.310242 
L 474.430364 222.316581 
L 474.874237 218.575291 
L 475.255016 217.012811 
L 475.571594 216.413695 
L 475.826184 216.279816 
L 476.079668 216.409529 
L 476.45934 216.982657 
L 478.045549 219.83602 
L 478.425221 220.145337 
L 478.679812 220.128341 
L 478.933295 219.845231 
L 479.249873 219.059714 
L 479.757947 217.010727 
L 480.518398 213.96877 
L 480.899177 213.19992 
L 481.152661 213.04126 
L 481.406144 213.138956 
L 481.723829 213.542241 
L 482.611575 215.27621 
L 483.499321 217.167743 
L 483.815899 218.523318 
L 484.196678 221.290169 
L 484.703645 226.978912 
L 485.465203 235.164993 
L 485.718686 236.12441 
L 485.845982 236.081757 
L 486.035264 235.301723 
L 486.289855 232.879715 
L 486.669527 226.39427 
L 487.177601 213.502987 
L 488.50922 177.654977 
L 488.889999 172.956133 
L 489.079281 172.257238 
L 489.143482 172.294518 
L 489.269671 172.791771 
L 489.46006 174.620914 
L 489.777745 180.571168 
L 490.221618 194.44972 
L 490.982069 227.575615 
L 492.123298 275.625992 
L 492.884856 298.247196 
L 493.582213 312.719271 
L 494.153381 320.489897 
L 494.53416 323.339202 
L 494.787644 323.951366 
L 494.913832 323.814416 
L 495.104221 323.009601 
L 495.357705 320.760836 
L 495.738484 314.824289 
L 496.245451 302.371705 
L 496.816619 282.758796 
L 497.578177 247.887199 
L 499.987932 125.309698 
L 500.494899 113.048998 
L 501.001866 105.758192 
L 501.445739 102.273039 
L 501.763424 101.131167 
L 501.953813 101.004305 
L 502.080002 101.17996 
L 502.270391 101.880281 
L 502.523875 103.728283 
L 502.84156 107.643694 
L 503.348527 117.317365 
L 506.773323 192.47924 
L 507.28029 199.169945 
L 507.661069 201.978243 
L 507.914552 202.76354 
L 508.104942 202.813429 
L 508.295331 202.441943 
L 508.611909 201.021676 
L 509.055782 197.809107 
L 510.324307 188.167453 
L 510.577791 187.656275 
L 510.705086 187.730287 
L 510.895475 188.285544 
L 511.148959 189.856796 
L 511.529738 193.788654 
L 512.290189 204.838294 
L 513.242136 220.966927 
L 513.749103 233.633652 
L 514.320271 254.133831 
L 515.84228 312.935826 
L 516.349247 323.897419 
L 516.665825 327.419414 
L 516.856214 328.177628 
L 516.920416 328.195281 
L 517.046604 327.873027 
L 517.236993 326.498263 
L 517.553571 321.942729 
L 517.997444 311.710293 
L 519.964433 256.13852 
L 520.852179 226.940097 
L 522.881155 154.097271 
L 523.452323 142.949167 
L 524.022384 135.797394 
L 525.10052 125.741381 
L 525.607487 122.279254 
L 525.862078 121.571149 
L 525.988266 121.582223 
L 526.178655 122.094717 
L 526.432139 123.656868 
L 526.940213 128.702309 
L 527.63757 135.22284 
L 528.081443 137.420509 
L 528.398021 137.990787 
L 528.58841 137.970393 
L 528.778799 137.701427 
L 529.096484 136.753193 
L 529.540357 134.570436 
L 530.618493 128.718646 
L 530.871976 128.232249 
L 531.062366 128.270625 
L 531.251648 128.677528 
L 531.506239 129.791439 
L 531.885911 132.603904 
L 532.393985 138.21392 
L 533.028247 147.990222 
L 533.66251 161.292465 
L 534.359867 181.085306 
L 535.120317 209.798867 
L 536.008063 251.800527 
L 537.720461 333.242914 
L 538.354724 353.098364 
L 538.861691 362.970388 
L 539.24247 366.894023 
L 539.495954 368.017364 
L 539.686343 368.170761 
L 539.813638 367.980412 
L 540.067122 366.985907 
L 540.447901 364.24899 
L 541.017962 358.237663 
L 541.77952 347.994372 
L 542.476877 335.825776 
L 543.111139 320.525203 
L 543.935791 293.857669 
L 545.583988 239.05957 
L 546.915607 204.199925 
L 547.867554 184.553025 
L 548.437616 176.447207 
L 548.882596 172.746377 
L 549.199173 171.704394 
L 549.326469 171.686522 
L 549.452657 171.903734 
L 549.706141 173.057009 
L 550.023825 175.864758 
L 550.467698 182.31983 
L 551.03776 194.606955 
L 551.799317 216.252733 
L 553.765199 274.637518 
L 554.209072 282.25979 
L 554.52565 284.702741 
L 554.652945 284.834318 
L 554.78024 284.446823 
L 554.97063 282.874255 
L 555.287208 277.703597 
L 555.794175 264.150041 
L 558.902393 170.419981 
L 559.980529 146.273686 
L 560.804074 132.246891 
L 561.628726 122.018073 
L 562.390283 115.154673 
L 562.89725 112.070612 
L 563.213828 111.097269 
L 563.404218 110.993103 
L 563.531513 111.155601 
L 563.721902 111.776427 
L 564.03848 113.856006 
L 564.482353 118.794868 
L 565.243911 130.498777 
L 566.448235 148.458966 
L 567.463276 159.976583 
L 568.287928 167.075067 
L 568.85799 170.472612 
L 569.238768 171.766126 
L 569.492252 172.095837 
L 569.682641 172.031912 
L 569.873031 171.686412 
L 570.189609 170.468555 
L 570.570388 167.972095 
L 571.078462 163.133231 
L 572.980142 143.281948 
L 573.360921 141.79052 
L 573.614405 141.517168 
L 573.804794 141.693262 
L 574.058278 142.428231 
L 574.375962 144.126784 
L 574.819835 147.885508 
L 575.389897 154.902415 
L 576.08836 166.440536 
L 577.102295 187.647613 
L 578.877787 225.037051 
L 579.51205 233.522798 
L 579.955923 236.907514 
L 580.273607 237.996536 
L 580.463997 238.158924 
L 580.654386 237.998838 
L 580.90787 237.376587 
L 581.477931 235.082866 
L 581.986005 233.431791 
L 582.239489 233.219732 
L 582.429878 233.442536 
L 582.683362 234.317196 
L 582.99994 236.390196 
L 583.443813 241.054611 
L 584.078075 250.452189 
L 585.3466 269.408856 
L 585.980863 274.997491 
L 587.565965 287.06236 
L 589.659142 305.984379 
L 589.976827 306.931187 
L 590.230311 307.14807 
L 590.4207 307.055637 
L 590.737278 306.584042 
L 591.497729 305.347983 
L 591.752319 305.29601 
L 592.005803 305.531534 
L 592.322381 306.259814 
L 592.703159 307.759027 
L 593.274328 311.118415 
L 594.162074 318.037077 
L 595.430599 327.814804 
L 596.064861 331.119148 
L 596.508734 332.475819 
L 596.825312 332.922085 
L 597.078796 332.958598 
L 597.332279 332.708272 
L 597.649964 331.988654 
L 598.030743 330.519484 
L 598.53771 327.492659 
L 599.107771 322.523423 
L 599.742034 314.879332 
L 600.440498 303.720701 
L 601.328244 285.462709 
L 602.532568 255.060573 
L 605.323101 183.476723 
L 606.210847 166.960156 
L 607.035499 155.476859 
L 607.79595 147.732549 
L 608.620602 141.551268 
L 609.508348 136.588831 
L 610.269906 133.533388 
L 610.776873 132.276605 
L 611.094558 131.918496 
L 611.348041 131.924746 
L 611.601525 132.233623 
L 611.918103 133.106858 
L 612.298881 134.969115 
L 612.742754 138.401637 
L 613.250829 144.098275 
L 613.948185 154.828293 
L 615.723677 184.173096 
L 616.040255 186.249495 
L 616.230645 186.584249 
L 616.35794 186.40366 
L 616.548329 185.524614 
L 616.864907 182.528709 
L 617.30878 175.744913 
L 618.260727 156.832324 
L 619.338863 137.128737 
L 619.972018 129.117106 
L 620.480093 125.461122 
L 621.114355 122.562803 
L 621.367839 122.068621 
L 621.558228 122.119607 
L 621.874806 122.696135 
L 622.12829 123.488888 
L 622.318679 125.379763 
L 622.636364 129.363046 
L 622.636364 129.363046 
" style="fill:none;stroke:#000000;stroke-linecap:round;stroke-width:1.5;"/>
   </g>
   <g id="patch_3">
    <path d="M 90 384.48 
L 90 51.84 
" style="fill:none;stroke:#cccccc;stroke-linecap:square;stroke-linejoin:miter;"/>
   </g>
   <g id="patch_4">
    <path d="M 648 384.48 
L 648 51.84 
" style="fill:none;stroke:#cccccc;stroke-linecap:square;stroke-linejoin:miter;"/>
   </g>
   <g id="patch_5">
    <path d="M 90 384.48 
L 648 384.48 
" style="fill:none;stroke:#cccccc;stroke-linecap:square;stroke-linejoin:miter;"/>
   </g>
   <g id="patch_6">
    <path d="M 90 51.84 
L 648 51.84 
" style="fill:none;stroke:#cccccc;stroke-linecap:square;stroke-linejoin:miter;"/>
   </g>
   <g id="text_15">
    <!-- Periodogram: 2001 SG276 -->
    <g style="fill:#262626;" transform="translate(269.84875 45.84)scale(0.16 -0.16)">
     <defs>
      <path d="M 4050 3009 
Q 4050 2725 3954 2461 
Q 3859 2197 3662 1994 
Q 3466 1791 3162 1670 
Q 2859 1550 2444 1550 
L 1350 1550 
L 1350 0 
L 428 0 
L 428 4403 
L 2406 4403 
Q 2828 4403 3137 4301 
Q 3447 4200 3650 4015 
Q 3853 3831 3951 3575 
Q 4050 3319 4050 3009 
z
M 3122 2994 
Q 3122 3334 2917 3511 
Q 2713 3688 2303 3688 
L 1350 3688 
L 1350 2259 
L 2328 2259 
Q 2534 2259 2682 2312 
Q 2831 2366 2929 2462 
Q 3028 2559 3075 2695 
Q 3122 2831 3122 2994 
z
" id="LiberationSans-Bold-50" transform="scale(0.015625)"/>
      <path d="M 1831 -63 
Q 1466 -63 1173 45 
Q 881 153 675 373 
Q 469 594 359 926 
Q 250 1259 250 1706 
Q 250 2191 379 2522 
Q 509 2853 729 3058 
Q 950 3263 1237 3353 
Q 1525 3444 1844 3444 
Q 2244 3444 2526 3305 
Q 2809 3166 2990 2916 
Q 3172 2666 3256 2317 
Q 3341 1969 3341 1547 
L 3341 1522 
L 1172 1522 
Q 1172 1309 1209 1126 
Q 1247 944 1331 811 
Q 1416 678 1550 601 
Q 1684 525 1875 525 
Q 2106 525 2253 623 
Q 2400 722 2463 928 
L 3291 856 
Q 3234 713 3132 550 
Q 3031 388 2862 252 
Q 2694 116 2442 26 
Q 2191 -63 1831 -63 
z
M 1831 2891 
Q 1697 2891 1580 2845 
Q 1463 2800 1377 2701 
Q 1291 2603 1237 2447 
Q 1184 2291 1178 2072 
L 2491 2072 
Q 2466 2481 2294 2686 
Q 2122 2891 1831 2891 
z
" id="LiberationSans-Bold-65" transform="scale(0.015625)"/>
      <path d="M 447 0 
L 447 2588 
Q 447 2697 445 2819 
Q 444 2941 439 3052 
Q 434 3163 431 3252 
Q 428 3341 422 3381 
L 1259 3381 
Q 1266 3344 1272 3251 
Q 1278 3159 1284 3050 
Q 1291 2941 1295 2833 
Q 1300 2725 1300 2659 
L 1313 2659 
Q 1378 2844 1443 2989 
Q 1509 3134 1598 3236 
Q 1688 3338 1813 3392 
Q 1938 3447 2122 3447 
Q 2200 3447 2276 3433 
Q 2353 3419 2394 3400 
L 2394 2666 
Q 2309 2684 2223 2698 
Q 2138 2713 2019 2713 
Q 1691 2713 1508 2447 
Q 1325 2181 1325 1659 
L 1325 0 
L 447 0 
z
" id="LiberationSans-Bold-72" transform="scale(0.015625)"/>
      <path d="M 447 3991 
L 447 4638 
L 1325 4638 
L 1325 3991 
L 447 3991 
z
M 447 0 
L 447 3381 
L 1325 3381 
L 1325 0 
L 447 0 
z
" id="LiberationSans-Bold-69" transform="scale(0.015625)"/>
      <path d="M 3659 1694 
Q 3659 1306 3551 984 
Q 3444 663 3228 430 
Q 3013 197 2691 67 
Q 2369 -63 1941 -63 
Q 1528 -63 1212 65 
Q 897 194 683 425 
Q 469 656 359 979 
Q 250 1303 250 1694 
Q 250 2072 354 2392 
Q 459 2713 671 2947 
Q 884 3181 1206 3312 
Q 1528 3444 1959 3444 
Q 2416 3444 2737 3312 
Q 3059 3181 3264 2948 
Q 3469 2716 3564 2395 
Q 3659 2075 3659 1694 
z
M 2741 1694 
Q 2741 2297 2544 2569 
Q 2347 2841 1972 2841 
Q 1584 2841 1378 2566 
Q 1172 2291 1172 1694 
Q 1172 1391 1226 1172 
Q 1281 953 1381 812 
Q 1481 672 1622 605 
Q 1763 538 1931 538 
Q 2125 538 2276 605 
Q 2428 672 2531 812 
Q 2634 953 2687 1172 
Q 2741 1391 2741 1694 
z
" id="LiberationSans-Bold-6f" transform="scale(0.015625)"/>
      <path d="M 2638 0 
Q 2631 25 2623 89 
Q 2616 153 2608 234 
Q 2600 316 2595 400 
Q 2591 484 2591 550 
L 2578 550 
Q 2425 222 2151 79 
Q 1878 -63 1497 -63 
Q 1178 -63 945 68 
Q 713 200 561 434 
Q 409 669 336 989 
Q 263 1309 263 1688 
Q 263 2072 339 2394 
Q 416 2716 575 2948 
Q 734 3181 979 3312 
Q 1225 3444 1563 3444 
Q 1728 3444 1881 3409 
Q 2034 3375 2165 3303 
Q 2297 3231 2403 3118 
Q 2509 3006 2584 2847 
L 2591 2847 
Q 2591 2878 2589 2939 
Q 2588 3000 2588 3078 
Q 2588 3156 2586 3240 
Q 2584 3325 2584 3403 
L 2584 4638 
L 3463 4638 
L 3463 738 
Q 3463 491 3472 298 
Q 3481 106 3488 0 
L 2638 0 
z
M 2597 1709 
Q 2597 2044 2534 2264 
Q 2472 2484 2370 2614 
Q 2269 2744 2139 2795 
Q 2009 2847 1875 2847 
Q 1706 2847 1576 2781 
Q 1447 2716 1358 2575 
Q 1269 2434 1223 2215 
Q 1178 1997 1178 1688 
Q 1178 538 1869 538 
Q 2000 538 2131 594 
Q 2263 650 2366 784 
Q 2469 919 2533 1145 
Q 2597 1372 2597 1709 
z
" id="LiberationSans-Bold-64" transform="scale(0.015625)"/>
      <path d="M 1863 -1356 
Q 1528 -1356 1273 -1289 
Q 1019 -1222 839 -1101 
Q 659 -981 551 -814 
Q 444 -647 403 -447 
L 1281 -344 
Q 1328 -547 1483 -662 
Q 1638 -778 1888 -778 
Q 2044 -778 2173 -734 
Q 2303 -691 2395 -586 
Q 2488 -481 2539 -309 
Q 2591 -138 2591 116 
Q 2591 203 2591 293 
Q 2591 384 2594 459 
Q 2597 547 2597 628 
L 2591 628 
Q 2438 300 2161 153 
Q 1884 6 1503 6 
Q 1181 6 948 132 
Q 716 259 562 486 
Q 409 713 336 1027 
Q 263 1341 263 1719 
Q 263 2109 341 2426 
Q 419 2744 580 2972 
Q 741 3200 986 3323 
Q 1231 3447 1569 3447 
Q 1906 3447 2173 3303 
Q 2441 3159 2591 2838 
L 2606 2838 
Q 2606 2903 2611 2989 
Q 2616 3075 2622 3154 
Q 2628 3234 2636 3296 
Q 2644 3359 2650 3381 
L 3481 3381 
Q 3475 3269 3469 3066 
Q 3463 2863 3463 2600 
L 3463 103 
Q 3463 -266 3356 -539 
Q 3250 -813 3045 -994 
Q 2841 -1175 2542 -1265 
Q 2244 -1356 1863 -1356 
z
M 2597 1738 
Q 2597 2056 2534 2268 
Q 2472 2481 2372 2609 
Q 2272 2738 2142 2791 
Q 2013 2844 1881 2844 
Q 1713 2844 1583 2778 
Q 1453 2713 1362 2575 
Q 1272 2438 1225 2225 
Q 1178 2013 1178 1719 
Q 1178 1172 1353 894 
Q 1528 616 1875 616 
Q 2006 616 2136 667 
Q 2266 719 2369 848 
Q 2472 978 2534 1193 
Q 2597 1409 2597 1738 
z
" id="LiberationSans-Bold-67" transform="scale(0.015625)"/>
      <path d="M 1228 -63 
Q 984 -63 792 4 
Q 600 72 465 201 
Q 331 331 259 522 
Q 188 713 188 956 
Q 188 1256 292 1461 
Q 397 1666 578 1792 
Q 759 1919 1003 1976 
Q 1247 2034 1522 2038 
L 2250 2050 
L 2250 2222 
Q 2250 2406 2217 2529 
Q 2184 2653 2121 2731 
Q 2059 2809 1967 2842 
Q 1875 2875 1756 2875 
Q 1647 2875 1561 2853 
Q 1475 2831 1412 2776 
Q 1350 2722 1311 2630 
Q 1272 2538 1256 2397 
L 341 2441 
Q 378 2663 478 2845 
Q 578 3028 754 3162 
Q 931 3297 1189 3370 
Q 1447 3444 1794 3444 
Q 2109 3444 2356 3366 
Q 2603 3288 2775 3133 
Q 2947 2978 3037 2753 
Q 3128 2528 3128 2231 
L 3128 1000 
Q 3128 881 3139 787 
Q 3150 694 3179 630 
Q 3209 566 3264 533 
Q 3319 500 3406 500 
Q 3506 500 3600 519 
L 3600 44 
Q 3522 25 3459 9 
Q 3397 -6 3334 -15 
Q 3272 -25 3201 -31 
Q 3131 -38 3038 -38 
Q 2706 -38 2548 125 
Q 2391 288 2359 603 
L 2341 603 
Q 2166 288 1892 112 
Q 1619 -63 1228 -63 
z
M 2250 1566 
L 1800 1559 
Q 1659 1553 1532 1536 
Q 1406 1519 1311 1464 
Q 1216 1409 1159 1306 
Q 1103 1203 1103 1025 
Q 1103 784 1214 667 
Q 1325 550 1509 550 
Q 1678 550 1815 622 
Q 1953 694 2048 811 
Q 2144 928 2197 1081 
Q 2250 1234 2250 1394 
L 2250 1566 
z
" id="LiberationSans-Bold-61" transform="scale(0.015625)"/>
      <path d="M 2438 0 
L 2438 1897 
Q 2438 2094 2411 2258 
Q 2384 2422 2323 2539 
Q 2263 2656 2164 2722 
Q 2066 2788 1925 2788 
Q 1791 2788 1681 2717 
Q 1572 2647 1492 2517 
Q 1413 2388 1369 2208 
Q 1325 2028 1325 1813 
L 1325 0 
L 447 0 
L 447 2625 
Q 447 2734 445 2850 
Q 444 2966 439 3070 
Q 434 3175 431 3258 
Q 428 3341 422 3381 
L 1259 3381 
Q 1266 3344 1272 3261 
Q 1278 3178 1284 3078 
Q 1291 2978 1295 2878 
Q 1300 2778 1300 2709 
L 1313 2709 
Q 1475 3097 1717 3272 
Q 1959 3447 2297 3447 
Q 2684 3447 2920 3258 
Q 3156 3069 3238 2709 
L 3256 2709 
Q 3347 2919 3451 3059 
Q 3556 3200 3682 3286 
Q 3809 3372 3957 3409 
Q 4106 3447 4281 3447 
Q 4559 3447 4751 3347 
Q 4944 3247 5064 3072 
Q 5184 2897 5239 2659 
Q 5294 2422 5294 2147 
L 5294 0 
L 4422 0 
L 4422 1897 
Q 4422 2094 4395 2258 
Q 4369 2422 4308 2539 
Q 4247 2656 4148 2722 
Q 4050 2788 3909 2788 
Q 3778 2788 3670 2720 
Q 3563 2653 3483 2529 
Q 3403 2406 3359 2234 
Q 3316 2063 3309 1853 
L 3309 0 
L 2438 0 
z
" id="LiberationSans-Bold-6d" transform="scale(0.015625)"/>
      <path d="M 616 2350 
L 616 3231 
L 1516 3231 
L 1516 2350 
L 616 2350 
z
M 616 0 
L 616 878 
L 1516 878 
L 1516 0 
L 616 0 
z
" id="LiberationSans-Bold-3a" transform="scale(0.015625)"/>
      <path id="LiberationSans-Bold-20" transform="scale(0.015625)"/>
      <path d="M 222 0 
L 222 609 
Q 372 938 587 1202 
Q 803 1466 1039 1686 
Q 1275 1906 1508 2095 
Q 1741 2284 1927 2461 
Q 2113 2638 2228 2816 
Q 2344 2994 2344 3194 
Q 2344 3488 2197 3628 
Q 2050 3769 1766 3769 
Q 1484 3769 1336 3617 
Q 1188 3466 1144 3163 
L 259 3213 
Q 291 3472 387 3700 
Q 484 3928 664 4100 
Q 844 4272 1114 4370 
Q 1384 4469 1759 4469 
Q 2116 4469 2391 4386 
Q 2666 4303 2853 4143 
Q 3041 3984 3137 3754 
Q 3234 3525 3234 3231 
Q 3234 2922 3112 2672 
Q 2991 2422 2800 2211 
Q 2609 2000 2376 1815 
Q 2144 1631 1925 1456 
Q 1706 1281 1526 1103 
Q 1347 925 1259 722 
L 3303 722 
L 3303 0 
L 222 0 
z
" id="LiberationSans-Bold-32" transform="scale(0.015625)"/>
      <path d="M 3297 2203 
Q 3297 1572 3181 1139 
Q 3066 706 2861 439 
Q 2656 172 2376 54 
Q 2097 -63 1766 -63 
Q 1434 -63 1156 53 
Q 878 169 678 436 
Q 478 703 365 1136 
Q 253 1569 253 2203 
Q 253 2869 364 3305 
Q 475 3741 678 4000 
Q 881 4259 1164 4364 
Q 1447 4469 1791 4469 
Q 2113 4469 2389 4364 
Q 2666 4259 2867 4000 
Q 3069 3741 3183 3305 
Q 3297 2869 3297 2203 
z
M 2416 2203 
Q 2416 2669 2381 2973 
Q 2347 3278 2272 3458 
Q 2197 3638 2076 3709 
Q 1956 3781 1784 3781 
Q 1600 3781 1475 3707 
Q 1350 3634 1273 3453 
Q 1197 3272 1164 2967 
Q 1131 2663 1131 2203 
Q 1131 1750 1165 1447 
Q 1200 1144 1275 961 
Q 1350 778 1472 703 
Q 1594 628 1772 628 
Q 1944 628 2066 703 
Q 2188 778 2266 961 
Q 2344 1144 2380 1447 
Q 2416 1750 2416 2203 
z
" id="LiberationSans-Bold-30" transform="scale(0.015625)"/>
      <path d="M 403 0 
L 403 653 
L 1494 653 
L 1494 3656 
L 438 2997 
L 438 3688 
L 1541 4403 
L 2372 4403 
L 2372 653 
L 3381 653 
L 3381 0 
L 403 0 
z
" id="LiberationSans-Bold-31" transform="scale(0.015625)"/>
      <path d="M 4019 1269 
Q 4019 969 3909 723 
Q 3800 478 3570 303 
Q 3341 128 2983 32 
Q 2625 -63 2131 -63 
Q 1694 -63 1359 15 
Q 1025 94 786 247 
Q 547 400 398 626 
Q 250 853 184 1147 
L 1075 1294 
Q 1113 1147 1184 1025 
Q 1256 903 1382 814 
Q 1509 725 1698 676 
Q 1888 628 2156 628 
Q 2625 628 2873 770 
Q 3122 913 3122 1216 
Q 3122 1397 3022 1512 
Q 2922 1628 2756 1703 
Q 2591 1778 2375 1828 
Q 2159 1878 1925 1925 
Q 1738 1969 1550 2016 
Q 1363 2063 1192 2128 
Q 1022 2194 875 2284 
Q 728 2375 620 2508 
Q 513 2641 452 2819 
Q 391 2997 391 3238 
Q 391 3566 522 3800 
Q 653 4034 886 4182 
Q 1119 4331 1441 4400 
Q 1763 4469 2144 4469 
Q 2575 4469 2883 4401 
Q 3191 4334 3398 4196 
Q 3606 4059 3726 3851 
Q 3847 3644 3903 3366 
L 3009 3244 
Q 2941 3528 2730 3672 
Q 2519 3816 2125 3816 
Q 1881 3816 1720 3773 
Q 1559 3731 1464 3659 
Q 1369 3588 1328 3492 
Q 1288 3397 1288 3291 
Q 1288 3128 1366 3023 
Q 1444 2919 1584 2848 
Q 1725 2778 1920 2729 
Q 2116 2681 2350 2631 
Q 2556 2588 2759 2539 
Q 2963 2491 3147 2425 
Q 3331 2359 3490 2265 
Q 3650 2172 3767 2036 
Q 3884 1900 3951 1712 
Q 4019 1525 4019 1269 
z
" id="LiberationSans-Bold-53" transform="scale(0.015625)"/>
      <path d="M 2519 659 
Q 2719 659 2903 690 
Q 3088 722 3245 773 
Q 3403 825 3529 892 
Q 3656 959 3738 1031 
L 3738 1641 
L 2663 1641 
L 2663 2322 
L 4581 2322 
L 4581 703 
Q 4431 550 4218 411 
Q 4006 272 3740 167 
Q 3475 63 3161 0 
Q 2847 -63 2494 -63 
Q 1909 -63 1487 107 
Q 1066 278 794 583 
Q 522 888 392 1306 
Q 263 1725 263 2222 
Q 263 2738 400 3153 
Q 538 3569 817 3861 
Q 1097 4153 1520 4311 
Q 1944 4469 2516 4469 
Q 2931 4469 3254 4387 
Q 3578 4306 3820 4156 
Q 4063 4006 4227 3795 
Q 4391 3584 4488 3322 
L 3638 3066 
Q 3581 3203 3487 3326 
Q 3394 3450 3255 3542 
Q 3116 3634 2933 3689 
Q 2750 3744 2516 3744 
Q 2172 3744 1922 3636 
Q 1672 3528 1509 3328 
Q 1347 3128 1269 2848 
Q 1191 2569 1191 2222 
Q 1191 1878 1270 1590 
Q 1350 1303 1514 1097 
Q 1678 891 1928 775 
Q 2178 659 2519 659 
z
" id="LiberationSans-Bold-47" transform="scale(0.015625)"/>
      <path d="M 3278 3706 
Q 2981 3238 2717 2797 
Q 2453 2356 2256 1911 
Q 2059 1466 1945 995 
Q 1831 525 1831 0 
L 916 0 
Q 916 522 1039 992 
Q 1163 1463 1375 1909 
Q 1588 2356 1869 2792 
Q 2150 3228 2463 3681 
L 275 3681 
L 275 4403 
L 3278 4403 
L 3278 3706 
z
" id="LiberationSans-Bold-37" transform="scale(0.015625)"/>
      <path d="M 3328 1441 
Q 3328 1109 3234 832 
Q 3141 556 2955 357 
Q 2769 159 2491 48 
Q 2213 -63 1847 -63 
Q 1069 -63 651 482 
Q 234 1028 234 2100 
Q 234 3278 657 3873 
Q 1081 4469 1869 4469 
Q 2131 4469 2347 4414 
Q 2563 4359 2731 4237 
Q 2900 4116 3019 3923 
Q 3138 3731 3209 3456 
L 2381 3341 
Q 2319 3572 2178 3673 
Q 2038 3775 1850 3775 
Q 1497 3775 1295 3422 
Q 1094 3069 1094 2350 
Q 1234 2584 1484 2709 
Q 1734 2834 2050 2834 
Q 2341 2834 2577 2739 
Q 2813 2644 2980 2464 
Q 3147 2284 3237 2025 
Q 3328 1766 3328 1441 
z
M 2447 1416 
Q 2447 1594 2406 1736 
Q 2366 1878 2283 1978 
Q 2200 2078 2078 2133 
Q 1956 2188 1797 2188 
Q 1681 2188 1565 2150 
Q 1450 2113 1359 2030 
Q 1269 1947 1212 1819 
Q 1156 1691 1156 1509 
Q 1156 1322 1203 1159 
Q 1250 997 1336 876 
Q 1422 756 1544 689 
Q 1666 622 1819 622 
Q 2116 622 2281 833 
Q 2447 1044 2447 1416 
z
" id="LiberationSans-Bold-36" transform="scale(0.015625)"/>
     </defs>
     <use xlink:href="#LiberationSans-Bold-50"/>
     <use x="66.699219" xlink:href="#LiberationSans-Bold-65"/>
     <use x="122.314453" xlink:href="#LiberationSans-Bold-72"/>
     <use x="161.230469" xlink:href="#LiberationSans-Bold-69"/>
     <use x="189.013672" xlink:href="#LiberationSans-Bold-6f"/>
     <use x="250.097656" xlink:href="#LiberationSans-Bold-64"/>
     <use x="311.181641" xlink:href="#LiberationSans-Bold-6f"/>
     <use x="372.265625" xlink:href="#LiberationSans-Bold-67"/>
     <use x="433.349609" xlink:href="#LiberationSans-Bold-72"/>
     <use x="472.265625" xlink:href="#LiberationSans-Bold-61"/>
     <use x="527.880859" xlink:href="#LiberationSans-Bold-6d"/>
     <use x="616.796875" xlink:href="#LiberationSans-Bold-3a"/>
     <use x="650.097656" xlink:href="#LiberationSans-Bold-20"/>
     <use x="677.880859" xlink:href="#LiberationSans-Bold-32"/>
     <use x="733.496094" xlink:href="#LiberationSans-Bold-30"/>
     <use x="789.111328" xlink:href="#LiberationSans-Bold-30"/>
     <use x="844.726562" xlink:href="#LiberationSans-Bold-31"/>
     <use x="900.341797" xlink:href="#LiberationSans-Bold-20"/>
     <use x="928.125" xlink:href="#LiberationSans-Bold-53"/>
     <use x="994.824219" xlink:href="#LiberationSans-Bold-47"/>
     <use x="1072.607422" xlink:href="#LiberationSans-Bold-32"/>
     <use x="1128.222656" xlink:href="#LiberationSans-Bold-37"/>
     <use x="1183.837891" xlink:href="#LiberationSans-Bold-36"/>
    </g>
   </g>
  </g>
 </g>
 <defs>
  <clipPath id="pc778499c78">
   <rect height="332.64" width="558" x="90" y="51.84"/>
  </clipPath>
 </defs>
</svg>
