<?xml version="1.0" encoding="utf-8" standalone="no"?>
<!DOCTYPE svg PUBLIC "-//W3C//DTD SVG 1.1//EN"
  "http://www.w3.org/Graphics/SVG/1.1/DTD/svg11.dtd">
<svg height="432pt" version="1.1" viewBox="0 0 720 432" width="720pt" xmlns="http://www.w3.org/2000/svg" xmlns:xlink="http://www.w3.org/1999/xlink">
 <metadata>
  <rdf:RDF xmlns:cc="http://creativecommons.org/ns#" xmlns:dc="http://purl.org/dc/elements/1.1/" xmlns:rdf="http://www.w3.org/1999/02/22-rdf-syntax-ns#">
   <cc:Work>
    <dc:type rdf:resource="http://purl.org/dc/dcmitype/StillImage"/>
    <dc:date>2021-07-28T16:52:48.440971</dc:date>
    <dc:format>image/svg+xml</dc:format>
    <dc:creator>
     <cc:Agent>
      <dc:title>Matplotlib v3.4.2, https://matplotlib.org/</dc:title>
     </cc:Agent>
    </dc:creator>
   </cc:Work>
  </rdf:RDF>
 </metadata>
 <defs>
  <style type="text/css">*{stroke-linecap:butt;stroke-linejoin:round;}</style>
 </defs>
 <g id="figure_1">
  <g id="patch_1">
   <path d="M 0 432 
L 720 432 
L 720 0 
L 0 0 
z
" style="fill:#ffffff;"/>
  </g>
  <g id="axes_1">
   <g id="patch_2">
    <path d="M 90 384.48 
L 648 384.48 
L 648 51.84 
L 90 51.84 
z
" style="fill:#ffffff;"/>
   </g>
   <g id="matplotlib.axis_1">
    <g id="xtick_1">
     <g id="line2d_1">
      <path clip-path="url(#p4dcd729094)" d="M 90 384.48 
L 90 51.84 
" style="fill:none;stroke:#cccccc;stroke-linecap:round;stroke-width:0.8;"/>
     </g>
     <g id="line2d_2"/>
     <g id="text_1">
      <!-- 4.00 -->
      <g style="fill:#262626;" transform="translate(80.269531 395.226875)scale(0.1 -0.1)">
       <defs>
        <path d="M 2753 997 
L 2753 0 
L 2222 0 
L 2222 997 
L 147 997 
L 147 1434 
L 2163 4403 
L 2753 4403 
L 2753 1441 
L 3372 1441 
L 3372 997 
L 2753 997 
z
M 2222 3769 
Q 2216 3753 2191 3708 
Q 2166 3663 2134 3606 
Q 2103 3550 2070 3492 
Q 2038 3434 2013 3397 
L 884 1734 
Q 869 1709 839 1668 
Q 809 1628 778 1586 
Q 747 1544 715 1503 
Q 684 1463 666 1441 
L 2222 1441 
L 2222 3769 
z
" id="LiberationSans-34" transform="scale(0.015625)"/>
        <path d="M 584 0 
L 584 684 
L 1194 684 
L 1194 0 
L 584 0 
z
" id="LiberationSans-2e" transform="scale(0.015625)"/>
        <path d="M 3309 2203 
Q 3309 1569 3189 1136 
Q 3069 703 2861 436 
Q 2653 169 2372 53 
Q 2091 -63 1772 -63 
Q 1450 -63 1172 53 
Q 894 169 689 434 
Q 484 700 367 1133 
Q 250 1566 250 2203 
Q 250 2869 367 3305 
Q 484 3741 690 4000 
Q 897 4259 1178 4364 
Q 1459 4469 1791 4469 
Q 2106 4469 2382 4364 
Q 2659 4259 2865 4000 
Q 3072 3741 3190 3305 
Q 3309 2869 3309 2203 
z
M 2738 2203 
Q 2738 2728 2675 3076 
Q 2613 3425 2491 3633 
Q 2369 3841 2192 3927 
Q 2016 4013 1791 4013 
Q 1553 4013 1372 3925 
Q 1191 3838 1067 3630 
Q 944 3422 881 3073 
Q 819 2725 819 2203 
Q 819 1697 883 1350 
Q 947 1003 1070 792 
Q 1194 581 1372 489 
Q 1550 397 1778 397 
Q 2000 397 2178 489 
Q 2356 581 2479 792 
Q 2603 1003 2670 1350 
Q 2738 1697 2738 2203 
z
" id="LiberationSans-30" transform="scale(0.015625)"/>
       </defs>
       <use xlink:href="#LiberationSans-34"/>
       <use x="55.615234" xlink:href="#LiberationSans-2e"/>
       <use x="83.398438" xlink:href="#LiberationSans-30"/>
       <use x="139.013672" xlink:href="#LiberationSans-30"/>
      </g>
     </g>
    </g>
    <g id="xtick_2">
     <g id="line2d_3">
      <path clip-path="url(#p4dcd729094)" d="M 159.75 384.48 
L 159.75 51.84 
" style="fill:none;stroke:#cccccc;stroke-linecap:round;stroke-width:0.8;"/>
     </g>
     <g id="line2d_4"/>
     <g id="text_2">
      <!-- 4.25 -->
      <g style="fill:#262626;" transform="translate(150.019531 395.226875)scale(0.1 -0.1)">
       <defs>
        <path d="M 322 0 
L 322 397 
Q 481 763 711 1042 
Q 941 1322 1194 1548 
Q 1447 1775 1695 1969 
Q 1944 2163 2144 2356 
Q 2344 2550 2467 2762 
Q 2591 2975 2591 3244 
Q 2591 3431 2534 3573 
Q 2478 3716 2372 3812 
Q 2266 3909 2117 3957 
Q 1969 4006 1788 4006 
Q 1619 4006 1470 3959 
Q 1322 3913 1206 3819 
Q 1091 3725 1017 3586 
Q 944 3447 922 3263 
L 347 3316 
Q 375 3553 478 3762 
Q 581 3972 762 4130 
Q 944 4288 1198 4378 
Q 1453 4469 1788 4469 
Q 2116 4469 2372 4391 
Q 2628 4313 2804 4159 
Q 2981 4006 3075 3781 
Q 3169 3556 3169 3263 
Q 3169 3041 3089 2841 
Q 3009 2641 2876 2459 
Q 2744 2278 2569 2109 
Q 2394 1941 2203 1780 
Q 2013 1619 1819 1461 
Q 1625 1303 1454 1143 
Q 1284 984 1150 820 
Q 1016 656 941 478 
L 3238 478 
L 3238 0 
L 322 0 
z
" id="LiberationSans-32" transform="scale(0.015625)"/>
        <path d="M 3291 1434 
Q 3291 1103 3191 828 
Q 3091 553 2894 354 
Q 2697 156 2405 46 
Q 2113 -63 1728 -63 
Q 1381 -63 1123 18 
Q 866 100 687 242 
Q 509 384 404 575 
Q 300 766 256 984 
L 825 1050 
Q 859 925 921 808 
Q 984 691 1092 598 
Q 1200 506 1358 451 
Q 1516 397 1741 397 
Q 1959 397 2137 464 
Q 2316 531 2442 662 
Q 2569 794 2637 984 
Q 2706 1175 2706 1422 
Q 2706 1625 2640 1795 
Q 2575 1966 2453 2089 
Q 2331 2213 2154 2281 
Q 1978 2350 1753 2350 
Q 1613 2350 1494 2325 
Q 1375 2300 1273 2256 
Q 1172 2213 1089 2155 
Q 1006 2097 934 2034 
L 384 2034 
L 531 4403 
L 3034 4403 
L 3034 3925 
L 1044 3925 
L 959 2528 
Q 1109 2644 1334 2726 
Q 1559 2809 1869 2809 
Q 2197 2809 2459 2709 
Q 2722 2609 2906 2426 
Q 3091 2244 3191 1991 
Q 3291 1738 3291 1434 
z
" id="LiberationSans-35" transform="scale(0.015625)"/>
       </defs>
       <use xlink:href="#LiberationSans-34"/>
       <use x="55.615234" xlink:href="#LiberationSans-2e"/>
       <use x="83.398438" xlink:href="#LiberationSans-32"/>
       <use x="139.013672" xlink:href="#LiberationSans-35"/>
      </g>
     </g>
    </g>
    <g id="xtick_3">
     <g id="line2d_5">
      <path clip-path="url(#p4dcd729094)" d="M 229.5 384.48 
L 229.5 51.84 
" style="fill:none;stroke:#cccccc;stroke-linecap:round;stroke-width:0.8;"/>
     </g>
     <g id="line2d_6"/>
     <g id="text_3">
      <!-- 4.50 -->
      <g style="fill:#262626;" transform="translate(219.769531 395.226875)scale(0.1 -0.1)">
       <use xlink:href="#LiberationSans-34"/>
       <use x="55.615234" xlink:href="#LiberationSans-2e"/>
       <use x="83.398438" xlink:href="#LiberationSans-35"/>
       <use x="139.013672" xlink:href="#LiberationSans-30"/>
      </g>
     </g>
    </g>
    <g id="xtick_4">
     <g id="line2d_7">
      <path clip-path="url(#p4dcd729094)" d="M 299.25 384.48 
L 299.25 51.84 
" style="fill:none;stroke:#cccccc;stroke-linecap:round;stroke-width:0.8;"/>
     </g>
     <g id="line2d_8"/>
     <g id="text_4">
      <!-- 4.75 -->
      <g style="fill:#262626;" transform="translate(289.519531 395.226875)scale(0.1 -0.1)">
       <defs>
        <path d="M 3238 3947 
Q 2906 3441 2628 2973 
Q 2350 2506 2150 2032 
Q 1950 1559 1839 1061 
Q 1728 563 1728 0 
L 1141 0 
Q 1141 528 1266 1036 
Q 1391 1544 1603 2033 
Q 1816 2522 2097 2994 
Q 2378 3466 2694 3925 
L 328 3925 
L 328 4403 
L 3238 4403 
L 3238 3947 
z
" id="LiberationSans-37" transform="scale(0.015625)"/>
       </defs>
       <use xlink:href="#LiberationSans-34"/>
       <use x="55.615234" xlink:href="#LiberationSans-2e"/>
       <use x="83.398438" xlink:href="#LiberationSans-37"/>
       <use x="139.013672" xlink:href="#LiberationSans-35"/>
      </g>
     </g>
    </g>
    <g id="xtick_5">
     <g id="line2d_9">
      <path clip-path="url(#p4dcd729094)" d="M 369 384.48 
L 369 51.84 
" style="fill:none;stroke:#cccccc;stroke-linecap:round;stroke-width:0.8;"/>
     </g>
     <g id="line2d_10"/>
     <g id="text_5">
      <!-- 5.00 -->
      <g style="fill:#262626;" transform="translate(359.269531 395.226875)scale(0.1 -0.1)">
       <use xlink:href="#LiberationSans-35"/>
       <use x="55.615234" xlink:href="#LiberationSans-2e"/>
       <use x="83.398438" xlink:href="#LiberationSans-30"/>
       <use x="139.013672" xlink:href="#LiberationSans-30"/>
      </g>
     </g>
    </g>
    <g id="xtick_6">
     <g id="line2d_11">
      <path clip-path="url(#p4dcd729094)" d="M 438.75 384.48 
L 438.75 51.84 
" style="fill:none;stroke:#cccccc;stroke-linecap:round;stroke-width:0.8;"/>
     </g>
     <g id="line2d_12"/>
     <g id="text_6">
      <!-- 5.25 -->
      <g style="fill:#262626;" transform="translate(429.019531 395.226875)scale(0.1 -0.1)">
       <use xlink:href="#LiberationSans-35"/>
       <use x="55.615234" xlink:href="#LiberationSans-2e"/>
       <use x="83.398438" xlink:href="#LiberationSans-32"/>
       <use x="139.013672" xlink:href="#LiberationSans-35"/>
      </g>
     </g>
    </g>
    <g id="xtick_7">
     <g id="line2d_13">
      <path clip-path="url(#p4dcd729094)" d="M 508.5 384.48 
L 508.5 51.84 
" style="fill:none;stroke:#cccccc;stroke-linecap:round;stroke-width:0.8;"/>
     </g>
     <g id="line2d_14"/>
     <g id="text_7">
      <!-- 5.50 -->
      <g style="fill:#262626;" transform="translate(498.769531 395.226875)scale(0.1 -0.1)">
       <use xlink:href="#LiberationSans-35"/>
       <use x="55.615234" xlink:href="#LiberationSans-2e"/>
       <use x="83.398438" xlink:href="#LiberationSans-35"/>
       <use x="139.013672" xlink:href="#LiberationSans-30"/>
      </g>
     </g>
    </g>
    <g id="xtick_8">
     <g id="line2d_15">
      <path clip-path="url(#p4dcd729094)" d="M 578.25 384.48 
L 578.25 51.84 
" style="fill:none;stroke:#cccccc;stroke-linecap:round;stroke-width:0.8;"/>
     </g>
     <g id="line2d_16"/>
     <g id="text_8">
      <!-- 5.75 -->
      <g style="fill:#262626;" transform="translate(568.519531 395.226875)scale(0.1 -0.1)">
       <use xlink:href="#LiberationSans-35"/>
       <use x="55.615234" xlink:href="#LiberationSans-2e"/>
       <use x="83.398438" xlink:href="#LiberationSans-37"/>
       <use x="139.013672" xlink:href="#LiberationSans-35"/>
      </g>
     </g>
    </g>
    <g id="xtick_9">
     <g id="line2d_17">
      <path clip-path="url(#p4dcd729094)" d="M 648 384.48 
L 648 51.84 
" style="fill:none;stroke:#cccccc;stroke-linecap:round;stroke-width:0.8;"/>
     </g>
     <g id="line2d_18"/>
     <g id="text_9">
      <!-- 6.00 -->
      <g style="fill:#262626;" transform="translate(638.269531 395.226875)scale(0.1 -0.1)">
       <defs>
        <path d="M 3278 1441 
Q 3278 1109 3186 832 
Q 3094 556 2914 357 
Q 2734 159 2468 48 
Q 2203 -63 1856 -63 
Q 1472 -63 1184 84 
Q 897 231 706 507 
Q 516 784 420 1186 
Q 325 1588 325 2100 
Q 325 2688 433 3131 
Q 541 3575 744 3872 
Q 947 4169 1239 4319 
Q 1531 4469 1900 4469 
Q 2125 4469 2322 4422 
Q 2519 4375 2680 4270 
Q 2841 4166 2962 3994 
Q 3084 3822 3156 3572 
L 2619 3475 
Q 2531 3759 2339 3886 
Q 2147 4013 1894 4013 
Q 1663 4013 1475 3903 
Q 1288 3794 1156 3576 
Q 1025 3359 954 3031 
Q 884 2703 884 2266 
Q 1038 2550 1316 2698 
Q 1594 2847 1953 2847 
Q 2253 2847 2497 2750 
Q 2741 2653 2914 2470 
Q 3088 2288 3183 2027 
Q 3278 1766 3278 1441 
z
M 2706 1416 
Q 2706 1644 2650 1828 
Q 2594 2013 2481 2142 
Q 2369 2272 2203 2342 
Q 2038 2413 1819 2413 
Q 1666 2413 1509 2367 
Q 1353 2322 1226 2220 
Q 1100 2119 1020 1953 
Q 941 1788 941 1550 
Q 941 1306 1003 1095 
Q 1066 884 1183 728 
Q 1300 572 1465 481 
Q 1631 391 1838 391 
Q 2041 391 2202 461 
Q 2363 531 2475 664 
Q 2588 797 2647 987 
Q 2706 1178 2706 1416 
z
" id="LiberationSans-36" transform="scale(0.015625)"/>
       </defs>
       <use xlink:href="#LiberationSans-36"/>
       <use x="55.615234" xlink:href="#LiberationSans-2e"/>
       <use x="83.398438" xlink:href="#LiberationSans-30"/>
       <use x="139.013672" xlink:href="#LiberationSans-30"/>
      </g>
     </g>
    </g>
    <g id="text_10">
     <!-- Hours -->
     <g style="fill:#262626;" transform="translate(355.663281 408.54875)scale(0.1 -0.1)">
      <defs>
       <path d="M 3503 0 
L 3503 2041 
L 1122 2041 
L 1122 0 
L 525 0 
L 525 4403 
L 1122 4403 
L 1122 2541 
L 3503 2541 
L 3503 4403 
L 4100 4403 
L 4100 0 
L 3503 0 
z
" id="LiberationSans-48" transform="scale(0.015625)"/>
       <path d="M 3291 1694 
Q 3291 806 2900 371 
Q 2509 -63 1766 -63 
Q 1413 -63 1134 43 
Q 856 150 664 369 
Q 472 588 370 917 
Q 269 1247 269 1694 
Q 269 3444 1784 3444 
Q 2178 3444 2464 3334 
Q 2750 3225 2933 3006 
Q 3116 2788 3203 2459 
Q 3291 2131 3291 1694 
z
M 2700 1694 
Q 2700 2088 2639 2344 
Q 2578 2600 2461 2753 
Q 2344 2906 2175 2967 
Q 2006 3028 1794 3028 
Q 1578 3028 1404 2964 
Q 1231 2900 1109 2745 
Q 988 2591 923 2334 
Q 859 2078 859 1694 
Q 859 1300 928 1042 
Q 997 784 1117 631 
Q 1238 478 1402 415 
Q 1566 353 1759 353 
Q 1975 353 2150 414 
Q 2325 475 2447 628 
Q 2569 781 2634 1040 
Q 2700 1300 2700 1694 
z
" id="LiberationSans-6f" transform="scale(0.015625)"/>
       <path d="M 981 3381 
L 981 1238 
Q 981 991 1017 825 
Q 1053 659 1134 557 
Q 1216 456 1348 414 
Q 1481 372 1678 372 
Q 1878 372 2039 442 
Q 2200 513 2314 645 
Q 2428 778 2490 973 
Q 2553 1169 2553 1422 
L 2553 3381 
L 3116 3381 
L 3116 722 
Q 3116 616 3117 498 
Q 3119 381 3122 276 
Q 3125 172 3128 97 
Q 3131 22 3134 0 
L 2603 0 
Q 2600 16 2597 84 
Q 2594 153 2589 242 
Q 2584 331 2581 423 
Q 2578 516 2578 578 
L 2569 578 
Q 2488 431 2391 312 
Q 2294 194 2166 111 
Q 2038 28 1872 -17 
Q 1706 -63 1488 -63 
Q 1206 -63 1003 6 
Q 800 75 669 219 
Q 538 363 477 588 
Q 416 813 416 1128 
L 416 3381 
L 981 3381 
z
" id="LiberationSans-75" transform="scale(0.015625)"/>
       <path d="M 444 0 
L 444 2594 
Q 444 2700 442 2811 
Q 441 2922 437 3025 
Q 434 3128 431 3218 
Q 428 3309 425 3381 
L 956 3381 
Q 959 3309 964 3217 
Q 969 3125 973 3028 
Q 978 2931 979 2842 
Q 981 2753 981 2691 
L 994 2691 
Q 1053 2884 1120 3026 
Q 1188 3169 1278 3261 
Q 1369 3353 1494 3398 
Q 1619 3444 1797 3444 
Q 1866 3444 1928 3433 
Q 1991 3422 2025 3413 
L 2025 2897 
Q 1969 2913 1894 2920 
Q 1819 2928 1725 2928 
Q 1531 2928 1395 2840 
Q 1259 2753 1173 2598 
Q 1088 2444 1047 2230 
Q 1006 2016 1006 1763 
L 1006 0 
L 444 0 
z
" id="LiberationSans-72" transform="scale(0.015625)"/>
       <path d="M 2969 934 
Q 2969 697 2876 511 
Q 2784 325 2609 198 
Q 2434 72 2179 4 
Q 1925 -63 1597 -63 
Q 1303 -63 1067 -17 
Q 831 28 653 128 
Q 475 228 354 392 
Q 234 556 178 794 
L 675 891 
Q 747 619 972 492 
Q 1197 366 1597 366 
Q 1778 366 1929 391 
Q 2081 416 2190 477 
Q 2300 538 2361 639 
Q 2422 741 2422 891 
Q 2422 1044 2350 1142 
Q 2278 1241 2150 1306 
Q 2022 1372 1839 1420 
Q 1656 1469 1438 1528 
Q 1234 1581 1034 1647 
Q 834 1713 673 1820 
Q 513 1928 413 2087 
Q 313 2247 313 2488 
Q 313 2950 642 3192 
Q 972 3434 1603 3434 
Q 2163 3434 2492 3237 
Q 2822 3041 2909 2606 
L 2403 2544 
Q 2375 2675 2300 2764 
Q 2225 2853 2119 2908 
Q 2013 2963 1880 2986 
Q 1747 3009 1603 3009 
Q 1222 3009 1040 2893 
Q 859 2778 859 2544 
Q 859 2406 926 2317 
Q 994 2228 1114 2167 
Q 1234 2106 1403 2061 
Q 1572 2016 1775 1966 
Q 1909 1931 2050 1892 
Q 2191 1853 2323 1798 
Q 2456 1744 2573 1670 
Q 2691 1597 2778 1494 
Q 2866 1391 2917 1253 
Q 2969 1116 2969 934 
z
" id="LiberationSans-73" transform="scale(0.015625)"/>
      </defs>
      <use xlink:href="#LiberationSans-48"/>
      <use x="72.216797" xlink:href="#LiberationSans-6f"/>
      <use x="127.832031" xlink:href="#LiberationSans-75"/>
      <use x="183.447266" xlink:href="#LiberationSans-72"/>
      <use x="216.748047" xlink:href="#LiberationSans-73"/>
     </g>
    </g>
   </g>
   <g id="matplotlib.axis_2">
    <g id="ytick_1">
     <g id="line2d_19">
      <path clip-path="url(#p4dcd729094)" d="M 90 346.775521 
L 648 346.775521 
" style="fill:none;stroke:#cccccc;stroke-linecap:round;stroke-width:0.8;"/>
     </g>
     <g id="line2d_20"/>
     <g id="text_11">
      <!-- 4 -->
      <g style="fill:#262626;" transform="translate(80.939063 350.398958)scale(0.1 -0.1)">
       <use xlink:href="#LiberationSans-34"/>
      </g>
     </g>
    </g>
    <g id="ytick_2">
     <g id="line2d_21">
      <path clip-path="url(#p4dcd729094)" d="M 90 304.006949 
L 648 304.006949 
" style="fill:none;stroke:#cccccc;stroke-linecap:round;stroke-width:0.8;"/>
     </g>
     <g id="line2d_22"/>
     <g id="text_12">
      <!-- 6 -->
      <g style="fill:#262626;" transform="translate(80.939063 307.630386)scale(0.1 -0.1)">
       <use xlink:href="#LiberationSans-36"/>
      </g>
     </g>
    </g>
    <g id="ytick_3">
     <g id="line2d_23">
      <path clip-path="url(#p4dcd729094)" d="M 90 261.238377 
L 648 261.238377 
" style="fill:none;stroke:#cccccc;stroke-linecap:round;stroke-width:0.8;"/>
     </g>
     <g id="line2d_24"/>
     <g id="text_13">
      <!-- 8 -->
      <g style="fill:#262626;" transform="translate(80.939063 264.861814)scale(0.1 -0.1)">
       <defs>
        <path d="M 3281 1228 
Q 3281 947 3192 711 
Q 3103 475 2920 303 
Q 2738 131 2453 34 
Q 2169 -63 1781 -63 
Q 1394 -63 1111 34 
Q 828 131 642 301 
Q 456 472 367 708 
Q 278 944 278 1222 
Q 278 1463 351 1650 
Q 425 1838 548 1973 
Q 672 2109 830 2192 
Q 988 2275 1156 2303 
L 1156 2316 
Q 972 2359 826 2456 
Q 681 2553 582 2689 
Q 484 2825 432 2990 
Q 381 3156 381 3341 
Q 381 3572 470 3776 
Q 559 3981 734 4136 
Q 909 4291 1168 4380 
Q 1428 4469 1769 4469 
Q 2128 4469 2392 4378 
Q 2656 4288 2829 4133 
Q 3003 3978 3087 3772 
Q 3172 3566 3172 3334 
Q 3172 3153 3120 2987 
Q 3069 2822 2970 2686 
Q 2872 2550 2726 2454 
Q 2581 2359 2391 2322 
L 2391 2309 
Q 2581 2278 2743 2195 
Q 2906 2113 3025 1977 
Q 3144 1841 3212 1653 
Q 3281 1466 3281 1228 
z
M 2588 3303 
Q 2588 3469 2545 3606 
Q 2503 3744 2406 3842 
Q 2309 3941 2153 3995 
Q 1997 4050 1769 4050 
Q 1547 4050 1394 3995 
Q 1241 3941 1142 3842 
Q 1044 3744 1000 3606 
Q 956 3469 956 3303 
Q 956 3172 990 3034 
Q 1025 2897 1115 2784 
Q 1206 2672 1365 2600 
Q 1525 2528 1775 2528 
Q 2041 2528 2202 2600 
Q 2363 2672 2448 2784 
Q 2534 2897 2561 3034 
Q 2588 3172 2588 3303 
z
M 2697 1281 
Q 2697 1441 2653 1589 
Q 2609 1738 2503 1852 
Q 2397 1966 2217 2036 
Q 2038 2106 1769 2106 
Q 1522 2106 1348 2036 
Q 1175 1966 1067 1850 
Q 959 1734 909 1582 
Q 859 1431 859 1269 
Q 859 1066 909 898 
Q 959 731 1068 611 
Q 1178 491 1356 425 
Q 1534 359 1788 359 
Q 2044 359 2219 425 
Q 2394 491 2500 611 
Q 2606 731 2651 901 
Q 2697 1072 2697 1281 
z
" id="LiberationSans-38" transform="scale(0.015625)"/>
       </defs>
       <use xlink:href="#LiberationSans-38"/>
      </g>
     </g>
    </g>
    <g id="ytick_4">
     <g id="line2d_25">
      <path clip-path="url(#p4dcd729094)" d="M 90 218.469805 
L 648 218.469805 
" style="fill:none;stroke:#cccccc;stroke-linecap:round;stroke-width:0.8;"/>
     </g>
     <g id="line2d_26"/>
     <g id="text_14">
      <!-- 10 -->
      <g style="fill:#262626;" transform="translate(75.378125 222.093242)scale(0.1 -0.1)">
       <defs>
        <path d="M 488 0 
L 488 478 
L 1609 478 
L 1609 3866 
L 616 3156 
L 616 3688 
L 1656 4403 
L 2175 4403 
L 2175 478 
L 3247 478 
L 3247 0 
L 488 0 
z
" id="LiberationSans-31" transform="scale(0.015625)"/>
       </defs>
       <use xlink:href="#LiberationSans-31"/>
       <use x="55.615234" xlink:href="#LiberationSans-30"/>
      </g>
     </g>
    </g>
    <g id="ytick_5">
     <g id="line2d_27">
      <path clip-path="url(#p4dcd729094)" d="M 90 175.701233 
L 648 175.701233 
" style="fill:none;stroke:#cccccc;stroke-linecap:round;stroke-width:0.8;"/>
     </g>
     <g id="line2d_28"/>
     <g id="text_15">
      <!-- 12 -->
      <g style="fill:#262626;" transform="translate(75.378125 179.32467)scale(0.1 -0.1)">
       <use xlink:href="#LiberationSans-31"/>
       <use x="55.615234" xlink:href="#LiberationSans-32"/>
      </g>
     </g>
    </g>
    <g id="ytick_6">
     <g id="line2d_29">
      <path clip-path="url(#p4dcd729094)" d="M 90 132.932661 
L 648 132.932661 
" style="fill:none;stroke:#cccccc;stroke-linecap:round;stroke-width:0.8;"/>
     </g>
     <g id="line2d_30"/>
     <g id="text_16">
      <!-- 14 -->
      <g style="fill:#262626;" transform="translate(75.378125 136.556098)scale(0.1 -0.1)">
       <use xlink:href="#LiberationSans-31"/>
       <use x="55.615234" xlink:href="#LiberationSans-34"/>
      </g>
     </g>
    </g>
    <g id="ytick_7">
     <g id="line2d_31">
      <path clip-path="url(#p4dcd729094)" d="M 90 90.164089 
L 648 90.164089 
" style="fill:none;stroke:#cccccc;stroke-linecap:round;stroke-width:0.8;"/>
     </g>
     <g id="line2d_32"/>
     <g id="text_17">
      <!-- 16 -->
      <g style="fill:#262626;" transform="translate(75.378125 93.787526)scale(0.1 -0.1)">
       <use xlink:href="#LiberationSans-31"/>
       <use x="55.615234" xlink:href="#LiberationSans-36"/>
      </g>
     </g>
    </g>
    <g id="text_18">
     <!-- RMSE -->
     <g style="fill:#262626;" transform="translate(69.303125 232.606094)rotate(-90)scale(0.1 -0.1)">
      <defs>
       <path d="M 3638 0 
L 2494 1828 
L 1122 1828 
L 1122 0 
L 525 0 
L 525 4403 
L 2597 4403 
Q 2972 4403 3261 4317 
Q 3550 4231 3747 4068 
Q 3944 3906 4047 3672 
Q 4150 3438 4150 3144 
Q 4150 2934 4089 2731 
Q 4028 2528 3897 2359 
Q 3766 2191 3562 2069 
Q 3359 1947 3075 1897 
L 4325 0 
L 3638 0 
z
M 3550 3138 
Q 3550 3338 3481 3484 
Q 3413 3631 3281 3729 
Q 3150 3828 2962 3876 
Q 2775 3925 2538 3925 
L 1122 3925 
L 1122 2300 
L 2563 2300 
Q 2819 2300 3006 2364 
Q 3194 2428 3314 2540 
Q 3434 2653 3492 2806 
Q 3550 2959 3550 3138 
z
" id="LiberationSans-52" transform="scale(0.015625)"/>
       <path d="M 4269 0 
L 4269 2938 
Q 4269 3097 4272 3262 
Q 4275 3428 4281 3566 
Q 4288 3725 4297 3875 
Q 4253 3716 4206 3559 
Q 4166 3425 4117 3273 
Q 4069 3122 4022 3000 
L 2884 0 
L 2466 0 
L 1313 3000 
Q 1294 3047 1273 3109 
Q 1253 3172 1229 3242 
Q 1206 3313 1182 3386 
Q 1159 3459 1138 3531 
Q 1084 3697 1034 3875 
Q 1038 3700 1044 3528 
Q 1050 3381 1053 3220 
Q 1056 3059 1056 2938 
L 1056 0 
L 525 0 
L 525 4403 
L 1309 4403 
L 2481 1350 
Q 2503 1288 2534 1189 
Q 2566 1091 2594 987 
Q 2622 884 2645 792 
Q 2669 700 2678 650 
Q 2688 700 2713 794 
Q 2738 888 2770 991 
Q 2803 1094 2834 1191 
Q 2866 1288 2891 1350 
L 4041 4403 
L 4806 4403 
L 4806 0 
L 4269 0 
z
" id="LiberationSans-4d" transform="scale(0.015625)"/>
       <path d="M 3975 1216 
Q 3975 938 3867 703 
Q 3759 469 3534 298 
Q 3309 128 2967 32 
Q 2625 -63 2156 -63 
Q 1334 -63 875 225 
Q 416 513 291 1056 
L 869 1172 
Q 913 1000 1003 859 
Q 1094 719 1248 617 
Q 1403 516 1631 459 
Q 1859 403 2178 403 
Q 2444 403 2666 448 
Q 2888 494 3047 587 
Q 3206 681 3295 829 
Q 3384 978 3384 1184 
Q 3384 1400 3286 1534 
Q 3188 1669 3009 1756 
Q 2831 1844 2584 1903 
Q 2338 1963 2038 2031 
Q 1853 2072 1667 2120 
Q 1481 2169 1311 2236 
Q 1141 2303 991 2393 
Q 841 2484 731 2611 
Q 622 2738 559 2905 
Q 497 3072 497 3291 
Q 497 3603 623 3826 
Q 750 4050 975 4194 
Q 1200 4338 1506 4403 
Q 1813 4469 2169 4469 
Q 2578 4469 2868 4405 
Q 3159 4341 3359 4212 
Q 3559 4084 3679 3895 
Q 3800 3706 3872 3456 
L 3284 3353 
Q 3241 3513 3158 3638 
Q 3075 3763 2940 3847 
Q 2806 3931 2614 3975 
Q 2422 4019 2163 4019 
Q 1856 4019 1648 3964 
Q 1441 3909 1314 3815 
Q 1188 3722 1133 3595 
Q 1078 3469 1078 3322 
Q 1078 3125 1176 2998 
Q 1275 2872 1444 2787 
Q 1613 2703 1834 2647 
Q 2056 2591 2306 2534 
Q 2509 2488 2711 2439 
Q 2913 2391 3097 2323 
Q 3281 2256 3442 2165 
Q 3603 2075 3722 1944 
Q 3841 1813 3908 1634 
Q 3975 1456 3975 1216 
z
" id="LiberationSans-53" transform="scale(0.015625)"/>
       <path d="M 525 0 
L 525 4403 
L 3866 4403 
L 3866 3916 
L 1122 3916 
L 1122 2503 
L 3678 2503 
L 3678 2022 
L 1122 2022 
L 1122 488 
L 3994 488 
L 3994 0 
L 525 0 
z
" id="LiberationSans-45" transform="scale(0.015625)"/>
      </defs>
      <use xlink:href="#LiberationSans-52"/>
      <use x="72.216797" xlink:href="#LiberationSans-4d"/>
      <use x="155.517578" xlink:href="#LiberationSans-53"/>
      <use x="222.216797" xlink:href="#LiberationSans-45"/>
     </g>
    </g>
   </g>
   <g id="line2d_33">
    <path clip-path="url(#p4dcd729094)" d="M 89.68752 88.915802 
L 90.450864 91.558686 
L 91.220904 95.338252 
L 92.372616 102.620136 
L 94.287672 117.165321 
L 96.591096 134.417906 
L 97.742808 141.08619 
L 98.506152 144.269604 
L 99.276192 146.253831 
L 99.657864 146.768764 
L 100.046232 146.960496 
L 100.427904 146.830608 
L 100.809576 146.384681 
L 101.197944 145.63204 
L 101.961288 143.264051 
L 102.731328 139.883324 
L 103.88304 133.408525 
L 108.864864 102.410698 
L 110.404944 94.868931 
L 111.54996 90.531792 
L 112.32 88.407306 
L 113.09004 86.944364 
L 113.853384 86.151007 
L 114.235056 85.998943 
L 114.623424 86.001616 
L 115.005096 86.149617 
L 115.775136 86.835218 
L 116.53848 87.961636 
L 117.690192 90.3172 
L 118.841904 93.331422 
L 120.375288 98.141219 
L 124.593768 112.255917 
L 125.363808 114.031817 
L 126.133848 115.34199 
L 126.897192 116.179933 
L 127.667232 116.55929 
L 128.430576 116.510299 
L 129.200616 116.097283 
L 130.352328 115.03752 
L 136.104192 109.031166 
L 136.874232 108.492902 
L 137.637576 108.292724 
L 138.025944 108.355295 
L 138.407616 108.541552 
L 139.17096 109.313888 
L 139.941 110.62776 
L 140.71104 112.426392 
L 142.244424 116.90454 
L 143.777808 121.343639 
L 144.92952 123.940291 
L 145.692864 125.186545 
L 146.462904 126.051732 
L 147.232944 126.617453 
L 148.766328 127.512364 
L 149.529672 128.285663 
L 150.299712 129.593398 
L 151.063056 131.65681 
L 151.833096 134.670177 
L 152.603136 138.795911 
L 153.36648 144.16465 
L 154.13652 150.878952 
L 155.288232 163.636283 
L 156.439944 179.73649 
L 157.58496 199.169118 
L 158.736672 221.757639 
L 160.270056 256.036371 
L 164.495232 352.78797 
L 165.258576 363.854188 
L 165.646944 367.361532 
L 166.028616 369.231352 
L 166.410288 369.36 
L 166.79196 367.783743 
L 167.180328 364.669485 
L 167.943672 354.828437 
L 168.713712 341.795142 
L 170.247096 311.289368 
L 174.083904 232.337963 
L 175.617288 204.684596 
L 177.150672 180.976971 
L 178.684056 161.308069 
L 180.224136 145.082164 
L 181.75752 131.609059 
L 182.909232 123.086052 
L 184.060944 115.905124 
L 185.20596 110.128095 
L 186.357672 105.789843 
L 187.127712 103.659519 
L 187.891056 102.069533 
L 188.661096 100.948762 
L 189.431136 100.251976 
L 190.19448 99.985849 
L 190.582848 100.029344 
L 190.96452 100.20044 
L 191.727864 100.942624 
L 192.497904 102.201303 
L 193.649616 104.831378 
L 195.95304 110.645145 
L 197.098056 112.887224 
L 198.249768 114.471521 
L 199.40148 115.493113 
L 200.17152 115.925032 
L 200.934864 116.171935 
L 201.704904 116.208631 
L 202.474944 115.983818 
L 203.238288 115.438262 
L 204.008328 114.52526 
L 204.771672 113.228132 
L 205.541712 111.575747 
L 208.996848 103.347437 
L 209.760192 102.480154 
L 210.141864 102.287846 
L 210.530232 102.258934 
L 210.911904 102.38632 
L 211.681944 103.044764 
L 213.978672 105.992074 
L 214.36704 106.227601 
L 214.748712 106.309674 
L 215.130384 106.229483 
L 215.512056 105.990962 
L 216.282096 105.110486 
L 217.81548 102.554636 
L 218.967192 100.771678 
L 220.118904 99.422608 
L 221.270616 98.404374 
L 222.422328 97.598849 
L 223.185672 97.214851 
L 223.955712 97.013112 
L 224.719056 97.021559 
L 225.489096 97.227575 
L 226.640808 97.842117 
L 227.410848 98.472632 
L 228.174192 99.392413 
L 228.944232 100.764301 
L 229.707576 102.738263 
L 230.477616 105.385424 
L 231.629328 110.532664 
L 233.162712 118.948022 
L 236.611152 138.954347 
L 237.762864 144.417006 
L 238.532904 147.335277 
L 239.302944 149.517372 
L 240.066288 150.852799 
L 240.44796 151.181241 
L 240.836328 151.280335 
L 241.218 151.153976 
L 241.599672 150.811292 
L 241.98804 150.266271 
L 242.751384 148.645406 
L 243.903096 145.235939 
L 247.358232 133.642298 
L 248.509944 130.706877 
L 249.65496 128.448355 
L 251.19504 126.110582 
L 252.340056 124.299269 
L 253.110096 122.774997 
L 253.880136 120.862386 
L 255.025152 117.228576 
L 256.946904 110.05218 
L 258.098616 106.026289 
L 258.86196 103.789942 
L 259.632 102.053367 
L 260.40204 100.915039 
L 260.783712 100.595322 
L 261.165384 100.45194 
L 261.547056 100.489919 
L 261.935424 100.711824 
L 262.317096 101.117847 
L 263.087136 102.470467 
L 263.85048 104.501803 
L 264.62052 107.135877 
L 265.772232 112.009634 
L 267.305616 119.74078 
L 269.60904 132.927101 
L 274.209192 160.284916 
L 275.742576 167.807095 
L 276.894288 172.363894 
L 277.664328 174.800954 
L 278.427672 176.726246 
L 279.197712 178.125334 
L 279.961056 178.991334 
L 280.349424 179.223481 
L 280.731096 179.321507 
L 281.112768 179.285261 
L 281.501136 179.11455 
L 282.26448 178.369265 
L 283.03452 177.0864 
L 283.797864 175.273804 
L 284.567904 172.954828 
L 285.719616 168.640484 
L 287.253 161.816181 
L 289.938096 149.602054 
L 291.859848 141.972269 
L 294.156576 132.716679 
L 295.68996 125.543663 
L 299.526768 107.291084 
L 300.67848 103.013628 
L 301.830192 99.538639 
L 302.981904 96.828886 
L 304.133616 94.773172 
L 305.285328 93.201192 
L 306.818712 91.533752 
L 308.352096 90.180619 
L 309.122136 89.711854 
L 309.88548 89.498032 
L 310.65552 89.63842 
L 311.418864 90.214898 
L 312.188904 91.276392 
L 312.958944 92.833168 
L 313.722288 94.859608 
L 314.874 98.655532 
L 316.407384 104.698582 
L 319.09248 115.683882 
L 320.244192 119.599836 
L 321.014232 121.702361 
L 321.777576 123.315805 
L 322.547616 124.394771 
L 323.31096 124.919135 
L 323.699328 124.974221 
L 324.081 124.895013 
L 324.85104 124.354611 
L 325.614384 123.35466 
L 326.384424 121.973471 
L 327.536136 119.398396 
L 330.602904 112.099662 
L 331.754616 109.990252 
L 332.906328 108.30718 
L 335.973096 104.18151 
L 337.50648 101.605281 
L 341.343288 94.862879 
L 342.876672 92.725648 
L 344.798424 90.569556 
L 349.016904 86.108538 
L 350.93196 83.630783 
L 355.157136 77.931871 
L 356.302152 76.89901 
L 357.453864 76.217706 
L 358.605576 75.855029 
L 359.757288 75.755335 
L 360.909 75.879578 
L 362.060712 76.222582 
L 363.212424 76.795168 
L 364.745808 77.888653 
L 366.660864 79.633226 
L 368.200944 81.316896 
L 369.734328 83.390937 
L 371.267712 85.946808 
L 373.182768 89.725604 
L 376.256232 95.8324 
L 377.407944 97.569895 
L 378.171288 98.434975 
L 378.941328 99.039594 
L 379.704672 99.382576 
L 380.474712 99.481842 
L 381.238056 99.373296 
L 382.389768 98.93603 
L 384.693192 97.878085 
L 385.844904 97.659538 
L 386.614944 97.71009 
L 387.75996 98.08269 
L 388.911672 98.747891 
L 390.445056 99.920477 
L 392.366808 101.668535 
L 393.900192 103.367944 
L 395.433576 105.456077 
L 399.652056 111.674585 
L 400.422096 112.386596 
L 401.192136 112.843514 
L 401.95548 113.026371 
L 402.72552 112.939529 
L 403.488864 112.612115 
L 404.640576 111.791707 
L 406.944 109.987621 
L 407.71404 109.668311 
L 408.477384 109.615235 
L 409.247424 109.872724 
L 410.010768 110.460385 
L 410.780808 111.374799 
L 411.550848 112.593895 
L 412.695864 114.914048 
L 414.235944 118.682472 
L 418.454424 129.772534 
L 419.606136 132.134621 
L 420.751152 133.914584 
L 421.521192 134.728171 
L 422.291232 135.222832 
L 423.054576 135.391747 
L 423.824616 135.23654 
L 424.58796 134.766085 
L 425.358 133.995096 
L 426.12804 132.943503 
L 427.273056 130.896086 
L 428.424768 128.386255 
L 430.34652 123.62947 
L 431.879904 119.930972 
L 433.031616 117.620229 
L 433.79496 116.413685 
L 434.565 115.512145 
L 435.33504 114.92119 
L 436.098384 114.624547 
L 436.868424 114.589049 
L 437.631768 114.77058 
L 438.78348 115.342524 
L 440.705232 116.704233 
L 442.620288 118.044044 
L 443.772 118.627194 
L 444.923712 118.937287 
L 445.687056 118.961858 
L 446.457096 118.829168 
L 447.608808 118.333438 
L 448.76052 117.503 
L 449.912232 116.382806 
L 451.445616 114.535738 
L 453.360672 111.836229 
L 455.664096 108.264112 
L 459.119232 102.914576 
L 460.270944 101.469127 
L 461.41596 100.426044 
L 462.186 100.029601 
L 462.95604 99.911838 
L 463.719384 100.086633 
L 464.489424 100.544513 
L 465.252768 101.252012 
L 466.40448 102.660788 
L 471.011328 108.876365 
L 473.696424 112.254463 
L 475.229808 114.678842 
L 477.533232 118.9897 
L 479.066616 121.77774 
L 480.218328 123.502682 
L 481.37004 124.79733 
L 482.515056 125.694764 
L 485.970192 127.881243 
L 487.121904 129.088344 
L 488.655288 131.153082 
L 490.57704 133.833602 
L 491.722056 135.097392 
L 492.873768 135.943739 
L 494.02548 136.389473 
L 495.177192 136.553341 
L 499.014 136.650233 
L 500.165712 136.572951 
L 501.317424 136.240126 
L 502.080768 135.799823 
L 502.850808 135.140845 
L 503.614152 134.236867 
L 504.384192 133.07183 
L 505.535904 130.820086 
L 506.687616 127.963338 
L 507.839328 124.516918 
L 509.372712 119.070511 
L 511.287768 111.212492 
L 514.361232 98.457877 
L 515.512944 94.561532 
L 516.276288 92.48454 
L 517.046328 90.925925 
L 517.809672 89.963526 
L 518.19804 89.726737 
L 518.579712 89.661922 
L 518.961384 89.774317 
L 519.343056 90.067603 
L 519.731424 90.544002 
L 520.494768 92.046056 
L 521.264808 94.262387 
L 522.028152 97.14563 
L 523.179864 102.55038 
L 524.719944 111.205435 
L 528.168384 131.552968 
L 529.320096 136.987057 
L 530.090136 139.894336 
L 530.85348 142.130833 
L 531.62352 143.638533 
L 532.005192 144.108131 
L 532.386864 144.385742 
L 532.775232 144.471557 
L 533.156904 144.367416 
L 533.538576 144.076568 
L 533.926944 143.603719 
L 534.690288 142.1368 
L 535.460328 140.026534 
L 536.61204 135.818427 
L 537.757056 130.617662 
L 539.297136 122.695789 
L 542.363904 106.564788 
L 543.515616 101.45219 
L 544.667328 97.260657 
L 545.430672 95.045565 
L 546.200712 93.308947 
L 546.964056 92.042378 
L 547.734096 91.224535 
L 548.504136 90.828178 
L 549.26748 90.82651 
L 550.03752 91.197827 
L 550.800864 91.927565 
L 551.570904 93.007557 
L 552.340944 94.433269 
L 553.48596 97.207709 
L 554.637672 100.706563 
L 555.789384 104.842883 
L 557.711136 112.752952 
L 561.547944 129.063987 
L 563.081328 134.486871 
L 564.23304 137.806311 
L 565.378056 140.370565 
L 566.148096 141.620925 
L 566.918136 142.480916 
L 567.68148 142.933706 
L 568.45152 142.965184 
L 569.214864 142.564892 
L 569.984904 141.727633 
L 570.754944 140.455674 
L 571.518288 138.760713 
L 572.67 135.478717 
L 573.821712 131.427378 
L 575.355096 125.150278 
L 580.343616 103.749846 
L 581.877 98.306092 
L 583.410384 93.680564 
L 584.562096 90.753354 
L 585.713808 88.310627 
L 586.86552 86.419593 
L 587.628864 85.525559 
L 588.398904 84.981158 
L 589.168944 84.838354 
L 589.550616 84.932509 
L 590.31396 85.474793 
L 591.084 86.504938 
L 591.85404 88.020549 
L 592.617384 89.994041 
L 593.769096 93.700301 
L 595.30248 99.683774 
L 597.224232 108.121415 
L 600.672672 124.481527 
L 602.976096 136.333532 
L 606.042864 153.639322 
L 610.26804 177.331742 
L 612.183096 186.952276 
L 613.71648 193.823645 
L 614.868192 198.251903 
L 616.019904 201.783604 
L 616.789944 203.500676 
L 617.553288 204.617022 
L 617.93496 204.930066 
L 618.323328 205.071673 
L 618.705 205.0378 
L 619.086672 204.82601 
L 619.47504 204.435533 
L 620.238384 203.123842 
L 621.008424 201.128945 
L 621.771768 198.499234 
L 622.92348 193.511713 
L 624.456864 185.337227 
L 626.378616 173.597062 
L 633.282192 129.785878 
L 635.967288 114.354186 
L 637.88904 104.493827 
L 639.422424 97.831809 
L 640.574136 93.876615 
L 641.33748 91.858644 
L 642.10752 90.405047 
L 642.870864 89.564153 
L 643.259232 89.384931 
L 643.640904 89.37071 
L 644.022576 89.523351 
L 644.410944 89.843645 
L 645.174288 90.984925 
L 645.944328 92.779686 
L 646.707672 95.197201 
L 647.477712 98.192883 
L 648.241056 101.710598 
L 648.241056 101.710598 
" style="fill:none;stroke:#000000;stroke-linecap:round;stroke-width:1.5;"/>
   </g>
   <g id="patch_3">
    <path d="M 90 384.48 
L 90 51.84 
" style="fill:none;stroke:#cccccc;stroke-linecap:square;stroke-linejoin:miter;"/>
   </g>
   <g id="patch_4">
    <path d="M 648 384.48 
L 648 51.84 
" style="fill:none;stroke:#cccccc;stroke-linecap:square;stroke-linejoin:miter;"/>
   </g>
   <g id="patch_5">
    <path d="M 90 384.48 
L 648 384.48 
" style="fill:none;stroke:#cccccc;stroke-linecap:square;stroke-linejoin:miter;"/>
   </g>
   <g id="patch_6">
    <path d="M 90 51.84 
L 648 51.84 
" style="fill:none;stroke:#cccccc;stroke-linecap:square;stroke-linejoin:miter;"/>
   </g>
   <g id="text_19">
    <!-- Periodogram: 2000 QL7 -->
    <g style="fill:#262626;" transform="translate(279.19625 45.84)scale(0.16 -0.16)">
     <defs>
      <path d="M 4050 3009 
Q 4050 2725 3954 2461 
Q 3859 2197 3662 1994 
Q 3466 1791 3162 1670 
Q 2859 1550 2444 1550 
L 1350 1550 
L 1350 0 
L 428 0 
L 428 4403 
L 2406 4403 
Q 2828 4403 3137 4301 
Q 3447 4200 3650 4015 
Q 3853 3831 3951 3575 
Q 4050 3319 4050 3009 
z
M 3122 2994 
Q 3122 3334 2917 3511 
Q 2713 3688 2303 3688 
L 1350 3688 
L 1350 2259 
L 2328 2259 
Q 2534 2259 2682 2312 
Q 2831 2366 2929 2462 
Q 3028 2559 3075 2695 
Q 3122 2831 3122 2994 
z
" id="LiberationSans-Bold-50" transform="scale(0.015625)"/>
      <path d="M 1831 -63 
Q 1466 -63 1173 45 
Q 881 153 675 373 
Q 469 594 359 926 
Q 250 1259 250 1706 
Q 250 2191 379 2522 
Q 509 2853 729 3058 
Q 950 3263 1237 3353 
Q 1525 3444 1844 3444 
Q 2244 3444 2526 3305 
Q 2809 3166 2990 2916 
Q 3172 2666 3256 2317 
Q 3341 1969 3341 1547 
L 3341 1522 
L 1172 1522 
Q 1172 1309 1209 1126 
Q 1247 944 1331 811 
Q 1416 678 1550 601 
Q 1684 525 1875 525 
Q 2106 525 2253 623 
Q 2400 722 2463 928 
L 3291 856 
Q 3234 713 3132 550 
Q 3031 388 2862 252 
Q 2694 116 2442 26 
Q 2191 -63 1831 -63 
z
M 1831 2891 
Q 1697 2891 1580 2845 
Q 1463 2800 1377 2701 
Q 1291 2603 1237 2447 
Q 1184 2291 1178 2072 
L 2491 2072 
Q 2466 2481 2294 2686 
Q 2122 2891 1831 2891 
z
" id="LiberationSans-Bold-65" transform="scale(0.015625)"/>
      <path d="M 447 0 
L 447 2588 
Q 447 2697 445 2819 
Q 444 2941 439 3052 
Q 434 3163 431 3252 
Q 428 3341 422 3381 
L 1259 3381 
Q 1266 3344 1272 3251 
Q 1278 3159 1284 3050 
Q 1291 2941 1295 2833 
Q 1300 2725 1300 2659 
L 1313 2659 
Q 1378 2844 1443 2989 
Q 1509 3134 1598 3236 
Q 1688 3338 1813 3392 
Q 1938 3447 2122 3447 
Q 2200 3447 2276 3433 
Q 2353 3419 2394 3400 
L 2394 2666 
Q 2309 2684 2223 2698 
Q 2138 2713 2019 2713 
Q 1691 2713 1508 2447 
Q 1325 2181 1325 1659 
L 1325 0 
L 447 0 
z
" id="LiberationSans-Bold-72" transform="scale(0.015625)"/>
      <path d="M 447 3991 
L 447 4638 
L 1325 4638 
L 1325 3991 
L 447 3991 
z
M 447 0 
L 447 3381 
L 1325 3381 
L 1325 0 
L 447 0 
z
" id="LiberationSans-Bold-69" transform="scale(0.015625)"/>
      <path d="M 3659 1694 
Q 3659 1306 3551 984 
Q 3444 663 3228 430 
Q 3013 197 2691 67 
Q 2369 -63 1941 -63 
Q 1528 -63 1212 65 
Q 897 194 683 425 
Q 469 656 359 979 
Q 250 1303 250 1694 
Q 250 2072 354 2392 
Q 459 2713 671 2947 
Q 884 3181 1206 3312 
Q 1528 3444 1959 3444 
Q 2416 3444 2737 3312 
Q 3059 3181 3264 2948 
Q 3469 2716 3564 2395 
Q 3659 2075 3659 1694 
z
M 2741 1694 
Q 2741 2297 2544 2569 
Q 2347 2841 1972 2841 
Q 1584 2841 1378 2566 
Q 1172 2291 1172 1694 
Q 1172 1391 1226 1172 
Q 1281 953 1381 812 
Q 1481 672 1622 605 
Q 1763 538 1931 538 
Q 2125 538 2276 605 
Q 2428 672 2531 812 
Q 2634 953 2687 1172 
Q 2741 1391 2741 1694 
z
" id="LiberationSans-Bold-6f" transform="scale(0.015625)"/>
      <path d="M 2638 0 
Q 2631 25 2623 89 
Q 2616 153 2608 234 
Q 2600 316 2595 400 
Q 2591 484 2591 550 
L 2578 550 
Q 2425 222 2151 79 
Q 1878 -63 1497 -63 
Q 1178 -63 945 68 
Q 713 200 561 434 
Q 409 669 336 989 
Q 263 1309 263 1688 
Q 263 2072 339 2394 
Q 416 2716 575 2948 
Q 734 3181 979 3312 
Q 1225 3444 1563 3444 
Q 1728 3444 1881 3409 
Q 2034 3375 2165 3303 
Q 2297 3231 2403 3118 
Q 2509 3006 2584 2847 
L 2591 2847 
Q 2591 2878 2589 2939 
Q 2588 3000 2588 3078 
Q 2588 3156 2586 3240 
Q 2584 3325 2584 3403 
L 2584 4638 
L 3463 4638 
L 3463 738 
Q 3463 491 3472 298 
Q 3481 106 3488 0 
L 2638 0 
z
M 2597 1709 
Q 2597 2044 2534 2264 
Q 2472 2484 2370 2614 
Q 2269 2744 2139 2795 
Q 2009 2847 1875 2847 
Q 1706 2847 1576 2781 
Q 1447 2716 1358 2575 
Q 1269 2434 1223 2215 
Q 1178 1997 1178 1688 
Q 1178 538 1869 538 
Q 2000 538 2131 594 
Q 2263 650 2366 784 
Q 2469 919 2533 1145 
Q 2597 1372 2597 1709 
z
" id="LiberationSans-Bold-64" transform="scale(0.015625)"/>
      <path d="M 1863 -1356 
Q 1528 -1356 1273 -1289 
Q 1019 -1222 839 -1101 
Q 659 -981 551 -814 
Q 444 -647 403 -447 
L 1281 -344 
Q 1328 -547 1483 -662 
Q 1638 -778 1888 -778 
Q 2044 -778 2173 -734 
Q 2303 -691 2395 -586 
Q 2488 -481 2539 -309 
Q 2591 -138 2591 116 
Q 2591 203 2591 293 
Q 2591 384 2594 459 
Q 2597 547 2597 628 
L 2591 628 
Q 2438 300 2161 153 
Q 1884 6 1503 6 
Q 1181 6 948 132 
Q 716 259 562 486 
Q 409 713 336 1027 
Q 263 1341 263 1719 
Q 263 2109 341 2426 
Q 419 2744 580 2972 
Q 741 3200 986 3323 
Q 1231 3447 1569 3447 
Q 1906 3447 2173 3303 
Q 2441 3159 2591 2838 
L 2606 2838 
Q 2606 2903 2611 2989 
Q 2616 3075 2622 3154 
Q 2628 3234 2636 3296 
Q 2644 3359 2650 3381 
L 3481 3381 
Q 3475 3269 3469 3066 
Q 3463 2863 3463 2600 
L 3463 103 
Q 3463 -266 3356 -539 
Q 3250 -813 3045 -994 
Q 2841 -1175 2542 -1265 
Q 2244 -1356 1863 -1356 
z
M 2597 1738 
Q 2597 2056 2534 2268 
Q 2472 2481 2372 2609 
Q 2272 2738 2142 2791 
Q 2013 2844 1881 2844 
Q 1713 2844 1583 2778 
Q 1453 2713 1362 2575 
Q 1272 2438 1225 2225 
Q 1178 2013 1178 1719 
Q 1178 1172 1353 894 
Q 1528 616 1875 616 
Q 2006 616 2136 667 
Q 2266 719 2369 848 
Q 2472 978 2534 1193 
Q 2597 1409 2597 1738 
z
" id="LiberationSans-Bold-67" transform="scale(0.015625)"/>
      <path d="M 1228 -63 
Q 984 -63 792 4 
Q 600 72 465 201 
Q 331 331 259 522 
Q 188 713 188 956 
Q 188 1256 292 1461 
Q 397 1666 578 1792 
Q 759 1919 1003 1976 
Q 1247 2034 1522 2038 
L 2250 2050 
L 2250 2222 
Q 2250 2406 2217 2529 
Q 2184 2653 2121 2731 
Q 2059 2809 1967 2842 
Q 1875 2875 1756 2875 
Q 1647 2875 1561 2853 
Q 1475 2831 1412 2776 
Q 1350 2722 1311 2630 
Q 1272 2538 1256 2397 
L 341 2441 
Q 378 2663 478 2845 
Q 578 3028 754 3162 
Q 931 3297 1189 3370 
Q 1447 3444 1794 3444 
Q 2109 3444 2356 3366 
Q 2603 3288 2775 3133 
Q 2947 2978 3037 2753 
Q 3128 2528 3128 2231 
L 3128 1000 
Q 3128 881 3139 787 
Q 3150 694 3179 630 
Q 3209 566 3264 533 
Q 3319 500 3406 500 
Q 3506 500 3600 519 
L 3600 44 
Q 3522 25 3459 9 
Q 3397 -6 3334 -15 
Q 3272 -25 3201 -31 
Q 3131 -38 3038 -38 
Q 2706 -38 2548 125 
Q 2391 288 2359 603 
L 2341 603 
Q 2166 288 1892 112 
Q 1619 -63 1228 -63 
z
M 2250 1566 
L 1800 1559 
Q 1659 1553 1532 1536 
Q 1406 1519 1311 1464 
Q 1216 1409 1159 1306 
Q 1103 1203 1103 1025 
Q 1103 784 1214 667 
Q 1325 550 1509 550 
Q 1678 550 1815 622 
Q 1953 694 2048 811 
Q 2144 928 2197 1081 
Q 2250 1234 2250 1394 
L 2250 1566 
z
" id="LiberationSans-Bold-61" transform="scale(0.015625)"/>
      <path d="M 2438 0 
L 2438 1897 
Q 2438 2094 2411 2258 
Q 2384 2422 2323 2539 
Q 2263 2656 2164 2722 
Q 2066 2788 1925 2788 
Q 1791 2788 1681 2717 
Q 1572 2647 1492 2517 
Q 1413 2388 1369 2208 
Q 1325 2028 1325 1813 
L 1325 0 
L 447 0 
L 447 2625 
Q 447 2734 445 2850 
Q 444 2966 439 3070 
Q 434 3175 431 3258 
Q 428 3341 422 3381 
L 1259 3381 
Q 1266 3344 1272 3261 
Q 1278 3178 1284 3078 
Q 1291 2978 1295 2878 
Q 1300 2778 1300 2709 
L 1313 2709 
Q 1475 3097 1717 3272 
Q 1959 3447 2297 3447 
Q 2684 3447 2920 3258 
Q 3156 3069 3238 2709 
L 3256 2709 
Q 3347 2919 3451 3059 
Q 3556 3200 3682 3286 
Q 3809 3372 3957 3409 
Q 4106 3447 4281 3447 
Q 4559 3447 4751 3347 
Q 4944 3247 5064 3072 
Q 5184 2897 5239 2659 
Q 5294 2422 5294 2147 
L 5294 0 
L 4422 0 
L 4422 1897 
Q 4422 2094 4395 2258 
Q 4369 2422 4308 2539 
Q 4247 2656 4148 2722 
Q 4050 2788 3909 2788 
Q 3778 2788 3670 2720 
Q 3563 2653 3483 2529 
Q 3403 2406 3359 2234 
Q 3316 2063 3309 1853 
L 3309 0 
L 2438 0 
z
" id="LiberationSans-Bold-6d" transform="scale(0.015625)"/>
      <path d="M 616 2350 
L 616 3231 
L 1516 3231 
L 1516 2350 
L 616 2350 
z
M 616 0 
L 616 878 
L 1516 878 
L 1516 0 
L 616 0 
z
" id="LiberationSans-Bold-3a" transform="scale(0.015625)"/>
      <path id="LiberationSans-Bold-20" transform="scale(0.015625)"/>
      <path d="M 222 0 
L 222 609 
Q 372 938 587 1202 
Q 803 1466 1039 1686 
Q 1275 1906 1508 2095 
Q 1741 2284 1927 2461 
Q 2113 2638 2228 2816 
Q 2344 2994 2344 3194 
Q 2344 3488 2197 3628 
Q 2050 3769 1766 3769 
Q 1484 3769 1336 3617 
Q 1188 3466 1144 3163 
L 259 3213 
Q 291 3472 387 3700 
Q 484 3928 664 4100 
Q 844 4272 1114 4370 
Q 1384 4469 1759 4469 
Q 2116 4469 2391 4386 
Q 2666 4303 2853 4143 
Q 3041 3984 3137 3754 
Q 3234 3525 3234 3231 
Q 3234 2922 3112 2672 
Q 2991 2422 2800 2211 
Q 2609 2000 2376 1815 
Q 2144 1631 1925 1456 
Q 1706 1281 1526 1103 
Q 1347 925 1259 722 
L 3303 722 
L 3303 0 
L 222 0 
z
" id="LiberationSans-Bold-32" transform="scale(0.015625)"/>
      <path d="M 3297 2203 
Q 3297 1572 3181 1139 
Q 3066 706 2861 439 
Q 2656 172 2376 54 
Q 2097 -63 1766 -63 
Q 1434 -63 1156 53 
Q 878 169 678 436 
Q 478 703 365 1136 
Q 253 1569 253 2203 
Q 253 2869 364 3305 
Q 475 3741 678 4000 
Q 881 4259 1164 4364 
Q 1447 4469 1791 4469 
Q 2113 4469 2389 4364 
Q 2666 4259 2867 4000 
Q 3069 3741 3183 3305 
Q 3297 2869 3297 2203 
z
M 2416 2203 
Q 2416 2669 2381 2973 
Q 2347 3278 2272 3458 
Q 2197 3638 2076 3709 
Q 1956 3781 1784 3781 
Q 1600 3781 1475 3707 
Q 1350 3634 1273 3453 
Q 1197 3272 1164 2967 
Q 1131 2663 1131 2203 
Q 1131 1750 1165 1447 
Q 1200 1144 1275 961 
Q 1350 778 1472 703 
Q 1594 628 1772 628 
Q 1944 628 2066 703 
Q 2188 778 2266 961 
Q 2344 1144 2380 1447 
Q 2416 1750 2416 2203 
z
" id="LiberationSans-Bold-30" transform="scale(0.015625)"/>
      <path d="M 4709 2222 
Q 4709 1781 4598 1411 
Q 4488 1041 4277 755 
Q 4066 469 3762 280 
Q 3459 91 3072 13 
Q 3134 -169 3218 -283 
Q 3303 -397 3409 -461 
Q 3516 -525 3641 -548 
Q 3766 -572 3909 -572 
Q 4000 -572 4094 -564 
Q 4188 -556 4281 -541 
L 4275 -1172 
Q 4106 -1209 3922 -1234 
Q 3738 -1259 3519 -1259 
Q 3222 -1259 3000 -1170 
Q 2778 -1081 2614 -920 
Q 2450 -759 2336 -532 
Q 2222 -306 2138 -31 
Q 1669 13 1317 197 
Q 966 381 731 678 
Q 497 975 380 1369 
Q 263 1763 263 2222 
Q 263 2738 408 3153 
Q 553 3569 836 3861 
Q 1119 4153 1533 4311 
Q 1947 4469 2484 4469 
Q 3022 4469 3436 4309 
Q 3850 4150 4133 3856 
Q 4416 3563 4562 3148 
Q 4709 2734 4709 2222 
z
M 3769 2222 
Q 3769 2569 3686 2848 
Q 3603 3128 3440 3328 
Q 3278 3528 3039 3636 
Q 2800 3744 2484 3744 
Q 2163 3744 1920 3636 
Q 1678 3528 1515 3328 
Q 1353 3128 1272 2848 
Q 1191 2569 1191 2222 
Q 1191 1878 1273 1590 
Q 1356 1303 1518 1097 
Q 1681 891 1922 775 
Q 2163 659 2478 659 
Q 2816 659 3059 776 
Q 3303 894 3461 1101 
Q 3619 1309 3694 1596 
Q 3769 1884 3769 2222 
z
" id="LiberationSans-Bold-51" transform="scale(0.015625)"/>
      <path d="M 428 0 
L 428 4403 
L 1350 4403 
L 1350 713 
L 3713 713 
L 3713 0 
L 428 0 
z
" id="LiberationSans-Bold-4c" transform="scale(0.015625)"/>
      <path d="M 3278 3706 
Q 2981 3238 2717 2797 
Q 2453 2356 2256 1911 
Q 2059 1466 1945 995 
Q 1831 525 1831 0 
L 916 0 
Q 916 522 1039 992 
Q 1163 1463 1375 1909 
Q 1588 2356 1869 2792 
Q 2150 3228 2463 3681 
L 275 3681 
L 275 4403 
L 3278 4403 
L 3278 3706 
z
" id="LiberationSans-Bold-37" transform="scale(0.015625)"/>
     </defs>
     <use xlink:href="#LiberationSans-Bold-50"/>
     <use x="66.699219" xlink:href="#LiberationSans-Bold-65"/>
     <use x="122.314453" xlink:href="#LiberationSans-Bold-72"/>
     <use x="161.230469" xlink:href="#LiberationSans-Bold-69"/>
     <use x="189.013672" xlink:href="#LiberationSans-Bold-6f"/>
     <use x="250.097656" xlink:href="#LiberationSans-Bold-64"/>
     <use x="311.181641" xlink:href="#LiberationSans-Bold-6f"/>
     <use x="372.265625" xlink:href="#LiberationSans-Bold-67"/>
     <use x="433.349609" xlink:href="#LiberationSans-Bold-72"/>
     <use x="472.265625" xlink:href="#LiberationSans-Bold-61"/>
     <use x="527.880859" xlink:href="#LiberationSans-Bold-6d"/>
     <use x="616.796875" xlink:href="#LiberationSans-Bold-3a"/>
     <use x="650.097656" xlink:href="#LiberationSans-Bold-20"/>
     <use x="677.880859" xlink:href="#LiberationSans-Bold-32"/>
     <use x="733.496094" xlink:href="#LiberationSans-Bold-30"/>
     <use x="789.111328" xlink:href="#LiberationSans-Bold-30"/>
     <use x="844.726562" xlink:href="#LiberationSans-Bold-30"/>
     <use x="900.341797" xlink:href="#LiberationSans-Bold-20"/>
     <use x="928.125" xlink:href="#LiberationSans-Bold-51"/>
     <use x="1005.908203" xlink:href="#LiberationSans-Bold-4c"/>
     <use x="1066.992188" xlink:href="#LiberationSans-Bold-37"/>
    </g>
   </g>
  </g>
 </g>
 <defs>
  <clipPath id="p4dcd729094">
   <rect height="332.64" width="558" x="90" y="51.84"/>
  </clipPath>
 </defs>
</svg>
