<?xml version="1.0" encoding="utf-8" standalone="no"?>
<!DOCTYPE svg PUBLIC "-//W3C//DTD SVG 1.1//EN"
  "http://www.w3.org/Graphics/SVG/1.1/DTD/svg11.dtd">
<svg height="432pt" version="1.1" viewBox="0 0 720 432" width="720pt" xmlns="http://www.w3.org/2000/svg" xmlns:xlink="http://www.w3.org/1999/xlink">
 <metadata>
  <rdf:RDF xmlns:cc="http://creativecommons.org/ns#" xmlns:dc="http://purl.org/dc/elements/1.1/" xmlns:rdf="http://www.w3.org/1999/02/22-rdf-syntax-ns#">
   <cc:Work>
    <dc:type rdf:resource="http://purl.org/dc/dcmitype/StillImage"/>
    <dc:date>2021-08-29T17:19:27.382894</dc:date>
    <dc:format>image/svg+xml</dc:format>
    <dc:creator>
     <cc:Agent>
      <dc:title>Matplotlib v3.4.2, https://matplotlib.org/</dc:title>
     </cc:Agent>
    </dc:creator>
   </cc:Work>
  </rdf:RDF>
 </metadata>
 <defs>
  <style type="text/css">*{stroke-linecap:butt;stroke-linejoin:round;}</style>
 </defs>
 <g id="figure_1">
  <g id="patch_1">
   <path d="M 0 432 
L 720 432 
L 720 0 
L 0 0 
z
" style="fill:#ffffff;"/>
  </g>
  <g id="axes_1">
   <g id="patch_2">
    <path d="M 90 384.48 
L 648 384.48 
L 648 51.84 
L 90 51.84 
z
" style="fill:#ffffff;"/>
   </g>
   <g id="matplotlib.axis_1">
    <g id="xtick_1">
     <g id="line2d_1">
      <path clip-path="url(#pd231ce24cf)" d="M 161.484739 384.48 
L 161.484739 51.84 
" style="fill:none;stroke:#cccccc;stroke-linecap:round;stroke-width:0.8;"/>
     </g>
     <g id="line2d_2"/>
     <g id="text_1">
      <!-- 2 -->
      <g style="fill:#262626;" transform="translate(158.70427 395.226875)scale(0.1 -0.1)">
       <defs>
        <path d="M 322 0 
L 322 397 
Q 481 763 711 1042 
Q 941 1322 1194 1548 
Q 1447 1775 1695 1969 
Q 1944 2163 2144 2356 
Q 2344 2550 2467 2762 
Q 2591 2975 2591 3244 
Q 2591 3431 2534 3573 
Q 2478 3716 2372 3812 
Q 2266 3909 2117 3957 
Q 1969 4006 1788 4006 
Q 1619 4006 1470 3959 
Q 1322 3913 1206 3819 
Q 1091 3725 1017 3586 
Q 944 3447 922 3263 
L 347 3316 
Q 375 3553 478 3762 
Q 581 3972 762 4130 
Q 944 4288 1198 4378 
Q 1453 4469 1788 4469 
Q 2116 4469 2372 4391 
Q 2628 4313 2804 4159 
Q 2981 4006 3075 3781 
Q 3169 3556 3169 3263 
Q 3169 3041 3089 2841 
Q 3009 2641 2876 2459 
Q 2744 2278 2569 2109 
Q 2394 1941 2203 1780 
Q 2013 1619 1819 1461 
Q 1625 1303 1454 1143 
Q 1284 984 1150 820 
Q 1016 656 941 478 
L 3238 478 
L 3238 0 
L 322 0 
z
" id="LiberationSans-32" transform="scale(0.015625)"/>
       </defs>
       <use xlink:href="#LiberationSans-32"/>
      </g>
     </g>
    </g>
    <g id="xtick_2">
     <g id="line2d_3">
      <path clip-path="url(#pd231ce24cf)" d="M 253.727683 384.48 
L 253.727683 51.84 
" style="fill:none;stroke:#cccccc;stroke-linecap:round;stroke-width:0.8;"/>
     </g>
     <g id="line2d_4"/>
     <g id="text_2">
      <!-- 4 -->
      <g style="fill:#262626;" transform="translate(250.947214 395.226875)scale(0.1 -0.1)">
       <defs>
        <path d="M 2753 997 
L 2753 0 
L 2222 0 
L 2222 997 
L 147 997 
L 147 1434 
L 2163 4403 
L 2753 4403 
L 2753 1441 
L 3372 1441 
L 3372 997 
L 2753 997 
z
M 2222 3769 
Q 2216 3753 2191 3708 
Q 2166 3663 2134 3606 
Q 2103 3550 2070 3492 
Q 2038 3434 2013 3397 
L 884 1734 
Q 869 1709 839 1668 
Q 809 1628 778 1586 
Q 747 1544 715 1503 
Q 684 1463 666 1441 
L 2222 1441 
L 2222 3769 
z
" id="LiberationSans-34" transform="scale(0.015625)"/>
       </defs>
       <use xlink:href="#LiberationSans-34"/>
      </g>
     </g>
    </g>
    <g id="xtick_3">
     <g id="line2d_5">
      <path clip-path="url(#pd231ce24cf)" d="M 345.970627 384.48 
L 345.970627 51.84 
" style="fill:none;stroke:#cccccc;stroke-linecap:round;stroke-width:0.8;"/>
     </g>
     <g id="line2d_6"/>
     <g id="text_3">
      <!-- 6 -->
      <g style="fill:#262626;" transform="translate(343.190158 395.226875)scale(0.1 -0.1)">
       <defs>
        <path d="M 3278 1441 
Q 3278 1109 3186 832 
Q 3094 556 2914 357 
Q 2734 159 2468 48 
Q 2203 -63 1856 -63 
Q 1472 -63 1184 84 
Q 897 231 706 507 
Q 516 784 420 1186 
Q 325 1588 325 2100 
Q 325 2688 433 3131 
Q 541 3575 744 3872 
Q 947 4169 1239 4319 
Q 1531 4469 1900 4469 
Q 2125 4469 2322 4422 
Q 2519 4375 2680 4270 
Q 2841 4166 2962 3994 
Q 3084 3822 3156 3572 
L 2619 3475 
Q 2531 3759 2339 3886 
Q 2147 4013 1894 4013 
Q 1663 4013 1475 3903 
Q 1288 3794 1156 3576 
Q 1025 3359 954 3031 
Q 884 2703 884 2266 
Q 1038 2550 1316 2698 
Q 1594 2847 1953 2847 
Q 2253 2847 2497 2750 
Q 2741 2653 2914 2470 
Q 3088 2288 3183 2027 
Q 3278 1766 3278 1441 
z
M 2706 1416 
Q 2706 1644 2650 1828 
Q 2594 2013 2481 2142 
Q 2369 2272 2203 2342 
Q 2038 2413 1819 2413 
Q 1666 2413 1509 2367 
Q 1353 2322 1226 2220 
Q 1100 2119 1020 1953 
Q 941 1788 941 1550 
Q 941 1306 1003 1095 
Q 1066 884 1183 728 
Q 1300 572 1465 481 
Q 1631 391 1838 391 
Q 2041 391 2202 461 
Q 2363 531 2475 664 
Q 2588 797 2647 987 
Q 2706 1178 2706 1416 
z
" id="LiberationSans-36" transform="scale(0.015625)"/>
       </defs>
       <use xlink:href="#LiberationSans-36"/>
      </g>
     </g>
    </g>
    <g id="xtick_4">
     <g id="line2d_7">
      <path clip-path="url(#pd231ce24cf)" d="M 438.21357 384.48 
L 438.21357 51.84 
" style="fill:none;stroke:#cccccc;stroke-linecap:round;stroke-width:0.8;"/>
     </g>
     <g id="line2d_8"/>
     <g id="text_4">
      <!-- 8 -->
      <g style="fill:#262626;" transform="translate(435.433102 395.226875)scale(0.1 -0.1)">
       <defs>
        <path d="M 3281 1228 
Q 3281 947 3192 711 
Q 3103 475 2920 303 
Q 2738 131 2453 34 
Q 2169 -63 1781 -63 
Q 1394 -63 1111 34 
Q 828 131 642 301 
Q 456 472 367 708 
Q 278 944 278 1222 
Q 278 1463 351 1650 
Q 425 1838 548 1973 
Q 672 2109 830 2192 
Q 988 2275 1156 2303 
L 1156 2316 
Q 972 2359 826 2456 
Q 681 2553 582 2689 
Q 484 2825 432 2990 
Q 381 3156 381 3341 
Q 381 3572 470 3776 
Q 559 3981 734 4136 
Q 909 4291 1168 4380 
Q 1428 4469 1769 4469 
Q 2128 4469 2392 4378 
Q 2656 4288 2829 4133 
Q 3003 3978 3087 3772 
Q 3172 3566 3172 3334 
Q 3172 3153 3120 2987 
Q 3069 2822 2970 2686 
Q 2872 2550 2726 2454 
Q 2581 2359 2391 2322 
L 2391 2309 
Q 2581 2278 2743 2195 
Q 2906 2113 3025 1977 
Q 3144 1841 3212 1653 
Q 3281 1466 3281 1228 
z
M 2588 3303 
Q 2588 3469 2545 3606 
Q 2503 3744 2406 3842 
Q 2309 3941 2153 3995 
Q 1997 4050 1769 4050 
Q 1547 4050 1394 3995 
Q 1241 3941 1142 3842 
Q 1044 3744 1000 3606 
Q 956 3469 956 3303 
Q 956 3172 990 3034 
Q 1025 2897 1115 2784 
Q 1206 2672 1365 2600 
Q 1525 2528 1775 2528 
Q 2041 2528 2202 2600 
Q 2363 2672 2448 2784 
Q 2534 2897 2561 3034 
Q 2588 3172 2588 3303 
z
M 2697 1281 
Q 2697 1441 2653 1589 
Q 2609 1738 2503 1852 
Q 2397 1966 2217 2036 
Q 2038 2106 1769 2106 
Q 1522 2106 1348 2036 
Q 1175 1966 1067 1850 
Q 959 1734 909 1582 
Q 859 1431 859 1269 
Q 859 1066 909 898 
Q 959 731 1068 611 
Q 1178 491 1356 425 
Q 1534 359 1788 359 
Q 2044 359 2219 425 
Q 2394 491 2500 611 
Q 2606 731 2651 901 
Q 2697 1072 2697 1281 
z
" id="LiberationSans-38" transform="scale(0.015625)"/>
       </defs>
       <use xlink:href="#LiberationSans-38"/>
      </g>
     </g>
    </g>
    <g id="xtick_5">
     <g id="line2d_9">
      <path clip-path="url(#pd231ce24cf)" d="M 530.456514 384.48 
L 530.456514 51.84 
" style="fill:none;stroke:#cccccc;stroke-linecap:round;stroke-width:0.8;"/>
     </g>
     <g id="line2d_10"/>
     <g id="text_5">
      <!-- 10 -->
      <g style="fill:#262626;" transform="translate(524.895577 395.226875)scale(0.1 -0.1)">
       <defs>
        <path d="M 488 0 
L 488 478 
L 1609 478 
L 1609 3866 
L 616 3156 
L 616 3688 
L 1656 4403 
L 2175 4403 
L 2175 478 
L 3247 478 
L 3247 0 
L 488 0 
z
" id="LiberationSans-31" transform="scale(0.015625)"/>
        <path d="M 3309 2203 
Q 3309 1569 3189 1136 
Q 3069 703 2861 436 
Q 2653 169 2372 53 
Q 2091 -63 1772 -63 
Q 1450 -63 1172 53 
Q 894 169 689 434 
Q 484 700 367 1133 
Q 250 1566 250 2203 
Q 250 2869 367 3305 
Q 484 3741 690 4000 
Q 897 4259 1178 4364 
Q 1459 4469 1791 4469 
Q 2106 4469 2382 4364 
Q 2659 4259 2865 4000 
Q 3072 3741 3190 3305 
Q 3309 2869 3309 2203 
z
M 2738 2203 
Q 2738 2728 2675 3076 
Q 2613 3425 2491 3633 
Q 2369 3841 2192 3927 
Q 2016 4013 1791 4013 
Q 1553 4013 1372 3925 
Q 1191 3838 1067 3630 
Q 944 3422 881 3073 
Q 819 2725 819 2203 
Q 819 1697 883 1350 
Q 947 1003 1070 792 
Q 1194 581 1372 489 
Q 1550 397 1778 397 
Q 2000 397 2178 489 
Q 2356 581 2479 792 
Q 2603 1003 2670 1350 
Q 2738 1697 2738 2203 
z
" id="LiberationSans-30" transform="scale(0.015625)"/>
       </defs>
       <use xlink:href="#LiberationSans-31"/>
       <use x="55.615234" xlink:href="#LiberationSans-30"/>
      </g>
     </g>
    </g>
    <g id="xtick_6">
     <g id="line2d_11">
      <path clip-path="url(#pd231ce24cf)" d="M 622.699458 384.48 
L 622.699458 51.84 
" style="fill:none;stroke:#cccccc;stroke-linecap:round;stroke-width:0.8;"/>
     </g>
     <g id="line2d_12"/>
     <g id="text_6">
      <!-- 12 -->
      <g style="fill:#262626;" transform="translate(617.13852 395.226875)scale(0.1 -0.1)">
       <use xlink:href="#LiberationSans-31"/>
       <use x="55.615234" xlink:href="#LiberationSans-32"/>
      </g>
     </g>
    </g>
    <g id="text_7">
     <!-- Hours -->
     <g style="fill:#262626;" transform="translate(355.663281 408.54875)scale(0.1 -0.1)">
      <defs>
       <path d="M 3503 0 
L 3503 2041 
L 1122 2041 
L 1122 0 
L 525 0 
L 525 4403 
L 1122 4403 
L 1122 2541 
L 3503 2541 
L 3503 4403 
L 4100 4403 
L 4100 0 
L 3503 0 
z
" id="LiberationSans-48" transform="scale(0.015625)"/>
       <path d="M 3291 1694 
Q 3291 806 2900 371 
Q 2509 -63 1766 -63 
Q 1413 -63 1134 43 
Q 856 150 664 369 
Q 472 588 370 917 
Q 269 1247 269 1694 
Q 269 3444 1784 3444 
Q 2178 3444 2464 3334 
Q 2750 3225 2933 3006 
Q 3116 2788 3203 2459 
Q 3291 2131 3291 1694 
z
M 2700 1694 
Q 2700 2088 2639 2344 
Q 2578 2600 2461 2753 
Q 2344 2906 2175 2967 
Q 2006 3028 1794 3028 
Q 1578 3028 1404 2964 
Q 1231 2900 1109 2745 
Q 988 2591 923 2334 
Q 859 2078 859 1694 
Q 859 1300 928 1042 
Q 997 784 1117 631 
Q 1238 478 1402 415 
Q 1566 353 1759 353 
Q 1975 353 2150 414 
Q 2325 475 2447 628 
Q 2569 781 2634 1040 
Q 2700 1300 2700 1694 
z
" id="LiberationSans-6f" transform="scale(0.015625)"/>
       <path d="M 981 3381 
L 981 1238 
Q 981 991 1017 825 
Q 1053 659 1134 557 
Q 1216 456 1348 414 
Q 1481 372 1678 372 
Q 1878 372 2039 442 
Q 2200 513 2314 645 
Q 2428 778 2490 973 
Q 2553 1169 2553 1422 
L 2553 3381 
L 3116 3381 
L 3116 722 
Q 3116 616 3117 498 
Q 3119 381 3122 276 
Q 3125 172 3128 97 
Q 3131 22 3134 0 
L 2603 0 
Q 2600 16 2597 84 
Q 2594 153 2589 242 
Q 2584 331 2581 423 
Q 2578 516 2578 578 
L 2569 578 
Q 2488 431 2391 312 
Q 2294 194 2166 111 
Q 2038 28 1872 -17 
Q 1706 -63 1488 -63 
Q 1206 -63 1003 6 
Q 800 75 669 219 
Q 538 363 477 588 
Q 416 813 416 1128 
L 416 3381 
L 981 3381 
z
" id="LiberationSans-75" transform="scale(0.015625)"/>
       <path d="M 444 0 
L 444 2594 
Q 444 2700 442 2811 
Q 441 2922 437 3025 
Q 434 3128 431 3218 
Q 428 3309 425 3381 
L 956 3381 
Q 959 3309 964 3217 
Q 969 3125 973 3028 
Q 978 2931 979 2842 
Q 981 2753 981 2691 
L 994 2691 
Q 1053 2884 1120 3026 
Q 1188 3169 1278 3261 
Q 1369 3353 1494 3398 
Q 1619 3444 1797 3444 
Q 1866 3444 1928 3433 
Q 1991 3422 2025 3413 
L 2025 2897 
Q 1969 2913 1894 2920 
Q 1819 2928 1725 2928 
Q 1531 2928 1395 2840 
Q 1259 2753 1173 2598 
Q 1088 2444 1047 2230 
Q 1006 2016 1006 1763 
L 1006 0 
L 444 0 
z
" id="LiberationSans-72" transform="scale(0.015625)"/>
       <path d="M 2969 934 
Q 2969 697 2876 511 
Q 2784 325 2609 198 
Q 2434 72 2179 4 
Q 1925 -63 1597 -63 
Q 1303 -63 1067 -17 
Q 831 28 653 128 
Q 475 228 354 392 
Q 234 556 178 794 
L 675 891 
Q 747 619 972 492 
Q 1197 366 1597 366 
Q 1778 366 1929 391 
Q 2081 416 2190 477 
Q 2300 538 2361 639 
Q 2422 741 2422 891 
Q 2422 1044 2350 1142 
Q 2278 1241 2150 1306 
Q 2022 1372 1839 1420 
Q 1656 1469 1438 1528 
Q 1234 1581 1034 1647 
Q 834 1713 673 1820 
Q 513 1928 413 2087 
Q 313 2247 313 2488 
Q 313 2950 642 3192 
Q 972 3434 1603 3434 
Q 2163 3434 2492 3237 
Q 2822 3041 2909 2606 
L 2403 2544 
Q 2375 2675 2300 2764 
Q 2225 2853 2119 2908 
Q 2013 2963 1880 2986 
Q 1747 3009 1603 3009 
Q 1222 3009 1040 2893 
Q 859 2778 859 2544 
Q 859 2406 926 2317 
Q 994 2228 1114 2167 
Q 1234 2106 1403 2061 
Q 1572 2016 1775 1966 
Q 1909 1931 2050 1892 
Q 2191 1853 2323 1798 
Q 2456 1744 2573 1670 
Q 2691 1597 2778 1494 
Q 2866 1391 2917 1253 
Q 2969 1116 2969 934 
z
" id="LiberationSans-73" transform="scale(0.015625)"/>
      </defs>
      <use xlink:href="#LiberationSans-48"/>
      <use x="72.216797" xlink:href="#LiberationSans-6f"/>
      <use x="127.832031" xlink:href="#LiberationSans-75"/>
      <use x="183.447266" xlink:href="#LiberationSans-72"/>
      <use x="216.748047" xlink:href="#LiberationSans-73"/>
     </g>
    </g>
   </g>
   <g id="matplotlib.axis_2">
    <g id="ytick_1">
     <g id="line2d_13">
      <path clip-path="url(#pd231ce24cf)" d="M 90 346.775521 
L 648 346.775521 
" style="fill:none;stroke:#cccccc;stroke-linecap:round;stroke-width:0.8;"/>
     </g>
     <g id="line2d_14"/>
     <g id="text_8">
      <!-- 4 -->
      <g style="fill:#262626;" transform="translate(80.939063 350.398958)scale(0.1 -0.1)">
       <use xlink:href="#LiberationSans-34"/>
      </g>
     </g>
    </g>
    <g id="ytick_2">
     <g id="line2d_15">
      <path clip-path="url(#pd231ce24cf)" d="M 90 304.006949 
L 648 304.006949 
" style="fill:none;stroke:#cccccc;stroke-linecap:round;stroke-width:0.8;"/>
     </g>
     <g id="line2d_16"/>
     <g id="text_9">
      <!-- 6 -->
      <g style="fill:#262626;" transform="translate(80.939063 307.630386)scale(0.1 -0.1)">
       <use xlink:href="#LiberationSans-36"/>
      </g>
     </g>
    </g>
    <g id="ytick_3">
     <g id="line2d_17">
      <path clip-path="url(#pd231ce24cf)" d="M 90 261.238377 
L 648 261.238377 
" style="fill:none;stroke:#cccccc;stroke-linecap:round;stroke-width:0.8;"/>
     </g>
     <g id="line2d_18"/>
     <g id="text_10">
      <!-- 8 -->
      <g style="fill:#262626;" transform="translate(80.939063 264.861814)scale(0.1 -0.1)">
       <use xlink:href="#LiberationSans-38"/>
      </g>
     </g>
    </g>
    <g id="ytick_4">
     <g id="line2d_19">
      <path clip-path="url(#pd231ce24cf)" d="M 90 218.469805 
L 648 218.469805 
" style="fill:none;stroke:#cccccc;stroke-linecap:round;stroke-width:0.8;"/>
     </g>
     <g id="line2d_20"/>
     <g id="text_11">
      <!-- 10 -->
      <g style="fill:#262626;" transform="translate(75.378125 222.093242)scale(0.1 -0.1)">
       <use xlink:href="#LiberationSans-31"/>
       <use x="55.615234" xlink:href="#LiberationSans-30"/>
      </g>
     </g>
    </g>
    <g id="ytick_5">
     <g id="line2d_21">
      <path clip-path="url(#pd231ce24cf)" d="M 90 175.701233 
L 648 175.701233 
" style="fill:none;stroke:#cccccc;stroke-linecap:round;stroke-width:0.8;"/>
     </g>
     <g id="line2d_22"/>
     <g id="text_12">
      <!-- 12 -->
      <g style="fill:#262626;" transform="translate(75.378125 179.32467)scale(0.1 -0.1)">
       <use xlink:href="#LiberationSans-31"/>
       <use x="55.615234" xlink:href="#LiberationSans-32"/>
      </g>
     </g>
    </g>
    <g id="ytick_6">
     <g id="line2d_23">
      <path clip-path="url(#pd231ce24cf)" d="M 90 132.932661 
L 648 132.932661 
" style="fill:none;stroke:#cccccc;stroke-linecap:round;stroke-width:0.8;"/>
     </g>
     <g id="line2d_24"/>
     <g id="text_13">
      <!-- 14 -->
      <g style="fill:#262626;" transform="translate(75.378125 136.556098)scale(0.1 -0.1)">
       <use xlink:href="#LiberationSans-31"/>
       <use x="55.615234" xlink:href="#LiberationSans-34"/>
      </g>
     </g>
    </g>
    <g id="ytick_7">
     <g id="line2d_25">
      <path clip-path="url(#pd231ce24cf)" d="M 90 90.164089 
L 648 90.164089 
" style="fill:none;stroke:#cccccc;stroke-linecap:round;stroke-width:0.8;"/>
     </g>
     <g id="line2d_26"/>
     <g id="text_14">
      <!-- 16 -->
      <g style="fill:#262626;" transform="translate(75.378125 93.787526)scale(0.1 -0.1)">
       <use xlink:href="#LiberationSans-31"/>
       <use x="55.615234" xlink:href="#LiberationSans-36"/>
      </g>
     </g>
    </g>
    <g id="text_15">
     <!-- RMSE (x0.01 Mag) -->
     <g style="fill:#262626;" transform="translate(69.303125 260.670156)rotate(-90)scale(0.1 -0.1)">
      <defs>
       <path d="M 3638 0 
L 2494 1828 
L 1122 1828 
L 1122 0 
L 525 0 
L 525 4403 
L 2597 4403 
Q 2972 4403 3261 4317 
Q 3550 4231 3747 4068 
Q 3944 3906 4047 3672 
Q 4150 3438 4150 3144 
Q 4150 2934 4089 2731 
Q 4028 2528 3897 2359 
Q 3766 2191 3562 2069 
Q 3359 1947 3075 1897 
L 4325 0 
L 3638 0 
z
M 3550 3138 
Q 3550 3338 3481 3484 
Q 3413 3631 3281 3729 
Q 3150 3828 2962 3876 
Q 2775 3925 2538 3925 
L 1122 3925 
L 1122 2300 
L 2563 2300 
Q 2819 2300 3006 2364 
Q 3194 2428 3314 2540 
Q 3434 2653 3492 2806 
Q 3550 2959 3550 3138 
z
" id="LiberationSans-52" transform="scale(0.015625)"/>
       <path d="M 4269 0 
L 4269 2938 
Q 4269 3097 4272 3262 
Q 4275 3428 4281 3566 
Q 4288 3725 4297 3875 
Q 4253 3716 4206 3559 
Q 4166 3425 4117 3273 
Q 4069 3122 4022 3000 
L 2884 0 
L 2466 0 
L 1313 3000 
Q 1294 3047 1273 3109 
Q 1253 3172 1229 3242 
Q 1206 3313 1182 3386 
Q 1159 3459 1138 3531 
Q 1084 3697 1034 3875 
Q 1038 3700 1044 3528 
Q 1050 3381 1053 3220 
Q 1056 3059 1056 2938 
L 1056 0 
L 525 0 
L 525 4403 
L 1309 4403 
L 2481 1350 
Q 2503 1288 2534 1189 
Q 2566 1091 2594 987 
Q 2622 884 2645 792 
Q 2669 700 2678 650 
Q 2688 700 2713 794 
Q 2738 888 2770 991 
Q 2803 1094 2834 1191 
Q 2866 1288 2891 1350 
L 4041 4403 
L 4806 4403 
L 4806 0 
L 4269 0 
z
" id="LiberationSans-4d" transform="scale(0.015625)"/>
       <path d="M 3975 1216 
Q 3975 938 3867 703 
Q 3759 469 3534 298 
Q 3309 128 2967 32 
Q 2625 -63 2156 -63 
Q 1334 -63 875 225 
Q 416 513 291 1056 
L 869 1172 
Q 913 1000 1003 859 
Q 1094 719 1248 617 
Q 1403 516 1631 459 
Q 1859 403 2178 403 
Q 2444 403 2666 448 
Q 2888 494 3047 587 
Q 3206 681 3295 829 
Q 3384 978 3384 1184 
Q 3384 1400 3286 1534 
Q 3188 1669 3009 1756 
Q 2831 1844 2584 1903 
Q 2338 1963 2038 2031 
Q 1853 2072 1667 2120 
Q 1481 2169 1311 2236 
Q 1141 2303 991 2393 
Q 841 2484 731 2611 
Q 622 2738 559 2905 
Q 497 3072 497 3291 
Q 497 3603 623 3826 
Q 750 4050 975 4194 
Q 1200 4338 1506 4403 
Q 1813 4469 2169 4469 
Q 2578 4469 2868 4405 
Q 3159 4341 3359 4212 
Q 3559 4084 3679 3895 
Q 3800 3706 3872 3456 
L 3284 3353 
Q 3241 3513 3158 3638 
Q 3075 3763 2940 3847 
Q 2806 3931 2614 3975 
Q 2422 4019 2163 4019 
Q 1856 4019 1648 3964 
Q 1441 3909 1314 3815 
Q 1188 3722 1133 3595 
Q 1078 3469 1078 3322 
Q 1078 3125 1176 2998 
Q 1275 2872 1444 2787 
Q 1613 2703 1834 2647 
Q 2056 2591 2306 2534 
Q 2509 2488 2711 2439 
Q 2913 2391 3097 2323 
Q 3281 2256 3442 2165 
Q 3603 2075 3722 1944 
Q 3841 1813 3908 1634 
Q 3975 1456 3975 1216 
z
" id="LiberationSans-53" transform="scale(0.015625)"/>
       <path d="M 525 0 
L 525 4403 
L 3866 4403 
L 3866 3916 
L 1122 3916 
L 1122 2503 
L 3678 2503 
L 3678 2022 
L 1122 2022 
L 1122 488 
L 3994 488 
L 3994 0 
L 525 0 
z
" id="LiberationSans-45" transform="scale(0.015625)"/>
       <path id="LiberationSans-20" transform="scale(0.015625)"/>
       <path d="M 397 1663 
Q 397 2097 462 2494 
Q 528 2891 668 3256 
Q 809 3622 1028 3965 
Q 1247 4309 1550 4638 
L 2094 4638 
Q 1800 4309 1586 3964 
Q 1372 3619 1234 3251 
Q 1097 2884 1030 2487 
Q 963 2091 963 1656 
Q 963 1222 1030 825 
Q 1097 428 1234 59 
Q 1372 -309 1586 -653 
Q 1800 -997 2094 -1325 
L 1550 -1325 
Q 1247 -997 1028 -653 
Q 809 -309 668 56 
Q 528 422 462 817 
Q 397 1213 397 1650 
L 397 1663 
z
" id="LiberationSans-28" transform="scale(0.015625)"/>
       <path d="M 2503 0 
L 1594 1388 
L 678 0 
L 72 0 
L 1275 1738 
L 128 3381 
L 750 3381 
L 1594 2066 
L 2431 3381 
L 3059 3381 
L 1913 1744 
L 3131 0 
L 2503 0 
z
" id="LiberationSans-78" transform="scale(0.015625)"/>
       <path d="M 584 0 
L 584 684 
L 1194 684 
L 1194 0 
L 584 0 
z
" id="LiberationSans-2e" transform="scale(0.015625)"/>
       <path d="M 1294 -63 
Q 784 -63 528 206 
Q 272 475 272 944 
Q 272 1278 398 1492 
Q 525 1706 729 1828 
Q 934 1950 1196 1997 
Q 1459 2044 1731 2050 
L 2491 2063 
L 2491 2247 
Q 2491 2456 2447 2603 
Q 2403 2750 2312 2840 
Q 2222 2931 2086 2973 
Q 1950 3016 1766 3016 
Q 1603 3016 1472 2992 
Q 1341 2969 1244 2908 
Q 1147 2847 1087 2742 
Q 1028 2638 1009 2478 
L 422 2531 
Q 453 2731 540 2898 
Q 628 3066 789 3187 
Q 950 3309 1192 3376 
Q 1434 3444 1778 3444 
Q 2416 3444 2737 3151 
Q 3059 2859 3059 2306 
L 3059 850 
Q 3059 600 3125 473 
Q 3191 347 3375 347 
Q 3422 347 3469 353 
Q 3516 359 3559 369 
L 3559 19 
Q 3453 -6 3348 -18 
Q 3244 -31 3125 -31 
Q 2966 -31 2852 11 
Q 2738 53 2666 139 
Q 2594 225 2556 351 
Q 2519 478 2509 647 
L 2491 647 
Q 2400 484 2292 353 
Q 2184 222 2040 130 
Q 1897 38 1714 -12 
Q 1531 -63 1294 -63 
z
M 1422 359 
Q 1691 359 1892 457 
Q 2094 556 2226 709 
Q 2359 863 2425 1044 
Q 2491 1225 2491 1391 
L 2491 1669 
L 1875 1656 
Q 1669 1653 1483 1626 
Q 1297 1600 1156 1522 
Q 1016 1444 933 1303 
Q 850 1163 850 934 
Q 850 659 998 509 
Q 1147 359 1422 359 
z
" id="LiberationSans-61" transform="scale(0.015625)"/>
       <path d="M 1713 -1328 
Q 1422 -1328 1197 -1268 
Q 972 -1209 812 -1098 
Q 653 -988 553 -834 
Q 453 -681 409 -494 
L 975 -413 
Q 1031 -647 1223 -773 
Q 1416 -900 1728 -900 
Q 1919 -900 2075 -847 
Q 2231 -794 2340 -676 
Q 2450 -559 2509 -371 
Q 2569 -184 2569 84 
L 2569 628 
L 2563 628 
Q 2500 500 2408 383 
Q 2316 266 2183 175 
Q 2050 84 1875 29 
Q 1700 -25 1475 -25 
Q 1153 -25 923 83 
Q 694 191 548 406 
Q 403 622 336 942 
Q 269 1263 269 1684 
Q 269 2091 336 2416 
Q 403 2741 554 2967 
Q 706 3194 948 3314 
Q 1191 3434 1538 3434 
Q 1897 3434 2161 3270 
Q 2425 3106 2569 2803 
L 2575 2803 
Q 2575 2881 2579 2978 
Q 2584 3075 2589 3161 
Q 2594 3247 2600 3309 
Q 2606 3372 2613 3381 
L 3147 3381 
Q 3144 3353 3141 3286 
Q 3138 3219 3134 3125 
Q 3131 3031 3129 2917 
Q 3128 2803 3128 2681 
L 3128 97 
Q 3128 -613 2779 -970 
Q 2431 -1328 1713 -1328 
z
M 2569 1691 
Q 2569 2044 2492 2295 
Q 2416 2547 2291 2706 
Q 2166 2866 2005 2941 
Q 1844 3016 1675 3016 
Q 1459 3016 1304 2941 
Q 1150 2866 1048 2705 
Q 947 2544 898 2292 
Q 850 2041 850 1691 
Q 850 1325 898 1076 
Q 947 828 1047 675 
Q 1147 522 1300 456 
Q 1453 391 1666 391 
Q 1834 391 1995 462 
Q 2156 534 2284 690 
Q 2413 847 2491 1094 
Q 2569 1341 2569 1691 
z
" id="LiberationSans-67" transform="scale(0.015625)"/>
       <path d="M 1734 1650 
Q 1734 1213 1668 817 
Q 1603 422 1462 56 
Q 1322 -309 1103 -653 
Q 884 -997 581 -1325 
L 38 -1325 
Q 331 -997 545 -653 
Q 759 -309 896 59 
Q 1034 428 1101 825 
Q 1169 1222 1169 1656 
Q 1169 2091 1101 2487 
Q 1034 2884 896 3251 
Q 759 3619 545 3964 
Q 331 4309 38 4638 
L 581 4638 
Q 884 4309 1103 3965 
Q 1322 3622 1462 3256 
Q 1603 2891 1668 2494 
Q 1734 2097 1734 1663 
L 1734 1650 
z
" id="LiberationSans-29" transform="scale(0.015625)"/>
      </defs>
      <use xlink:href="#LiberationSans-52"/>
      <use x="72.216797" xlink:href="#LiberationSans-4d"/>
      <use x="155.517578" xlink:href="#LiberationSans-53"/>
      <use x="222.216797" xlink:href="#LiberationSans-45"/>
      <use x="288.916016" xlink:href="#LiberationSans-20"/>
      <use x="316.699219" xlink:href="#LiberationSans-28"/>
      <use x="350" xlink:href="#LiberationSans-78"/>
      <use x="400" xlink:href="#LiberationSans-30"/>
      <use x="455.615234" xlink:href="#LiberationSans-2e"/>
      <use x="483.398438" xlink:href="#LiberationSans-30"/>
      <use x="539.013672" xlink:href="#LiberationSans-31"/>
      <use x="594.628906" xlink:href="#LiberationSans-20"/>
      <use x="622.412109" xlink:href="#LiberationSans-4d"/>
      <use x="705.712891" xlink:href="#LiberationSans-61"/>
      <use x="761.328125" xlink:href="#LiberationSans-67"/>
      <use x="816.943359" xlink:href="#LiberationSans-29"/>
     </g>
    </g>
   </g>
   <g id="line2d_27">
    <path clip-path="url(#pd231ce24cf)" d="M 115.363636 76.873798 
L 115.426731 73.776797 
L 115.743308 97.726727 
L 115.933698 79.109846 
L 115.997899 84.73109 
L 116.187181 69.904017 
L 116.251382 73.448228 
L 116.441772 89.704006 
L 116.504866 90.660055 
L 116.75835 72.259967 
L 116.821444 81.310909 
L 116.885645 72.985408 
L 116.948739 75.260482 
L 117.011833 82.133498 
L 117.076034 81.814723 
L 117.139129 81.507452 
L 117.202223 72.696035 
L 117.265317 79.218756 
L 117.329518 73.754536 
L 117.392612 74.814363 
L 117.70919 91.085153 
L 117.773391 86.253801 
L 117.836485 90.825569 
L 118.026875 76.870825 
L 118.089969 77.695168 
L 118.153063 75.532704 
L 118.217264 79.137923 
L 118.280358 72.753773 
L 118.470748 82.562296 
L 118.533842 79.031921 
L 118.598043 80.145187 
L 118.661137 80.448181 
L 118.724231 81.353806 
L 118.787325 73.416557 
L 118.851527 79.668724 
L 118.914621 68.428887 
L 118.977715 69.134803 
L 119.041916 69.073366 
L 119.10501 72.409486 
L 119.168104 86.806157 
L 119.231199 75.318711 
L 119.2954 82.233406 
L 119.421588 70.663994 
L 119.485789 73.036302 
L 119.548883 74.183548 
L 119.611977 72.297903 
L 119.675072 83.859531 
L 119.739273 78.133696 
L 119.929662 90.752242 
L 119.992756 77.285745 
L 120.05585 88.24981 
L 120.120052 85.909193 
L 120.183146 75.382287 
L 120.24624 79.752999 
L 120.309334 79.198419 
L 120.373535 71.823129 
L 120.499723 87.957337 
L 120.563925 75.603229 
L 120.627019 78.869593 
L 120.690113 82.609427 
L 120.753207 75.322154 
L 120.817408 77.215198 
L 120.880502 85.744641 
L 120.943597 81.680237 
L 121.007798 76.376912 
L 121.070892 83.140955 
L 121.198187 68.11056 
L 121.261281 71.026714 
L 121.324375 71.863288 
L 121.38747 71.603961 
L 121.514765 82.611929 
L 121.577859 72.236466 
L 121.64206 73.599693 
L 121.705154 74.231812 
L 121.768248 72.4681 
L 121.831343 67.104665 
L 122.021732 79.310024 
L 122.149027 81.546906 
L 122.212121 80.665125 
L 122.402511 77.102118 
L 122.465605 78.646363 
L 122.78329 69.468077 
L 122.973679 78.468274 
L 123.036773 72.962762 
L 123.099868 75.418618 
L 123.227163 81.160299 
L 123.417552 75.017556 
L 123.480646 81.405385 
L 123.543741 77.833995 
L 123.73413 70.443586 
L 123.797224 69.84551 
L 123.924519 74.82405 
L 123.987614 73.714526 
L 124.178003 78.756984 
L 124.305298 71.061977 
L 124.368393 71.630713 
L 124.431487 72.219294 
L 124.495688 71.537734 
L 124.749171 84.030733 
L 124.812266 80.701927 
L 124.939561 96.626441 
L 125.002655 93.478311 
L 125.256139 75.112652 
L 125.319233 77.485923 
L 125.383434 77.49777 
L 125.446528 69.425373 
L 125.509622 76.956555 
L 125.573823 73.317634 
L 125.700012 79.201477 
L 125.763106 74.705602 
L 125.953495 84.131218 
L 126.017696 80.329498 
L 126.080791 69.745538 
L 126.143885 71.193084 
L 126.334274 74.985073 
L 126.397368 74.888374 
L 126.461569 75.160596 
L 126.587758 67.300823 
L 126.905442 82.223013 
L 126.968537 81.936891 
L 127.031631 78.471781 
L 127.095832 78.518805 
L 127.22202 85.859582 
L 127.349315 74.07113 
L 127.41241 76.996479 
L 127.475504 83.674728 
L 127.539705 81.865574 
L 127.602799 74.409323 
L 127.730094 83.348596 
L 127.793189 81.242308 
L 127.983578 89.279977 
L 128.046672 91.635991 
L 128.173967 84.023249 
L 128.237062 90.165415 
L 128.300156 88.31082 
L 128.490545 79.596894 
L 128.553639 79.320609 
L 128.61784 73.99079 
L 128.680935 76.522582 
L 128.744029 86.499293 
L 128.871324 71.776725 
L 128.997512 79.713438 
L 129.061714 78.333446 
L 129.124808 91.387142 
L 129.187902 87.662747 
L 129.252103 74.562499 
L 129.315197 83.456523 
L 129.378291 84.790752 
L 129.505587 69.60359 
L 129.75907 79.079009 
L 129.822164 79.187492 
L 130.266037 95.916782 
L 130.456427 82.406704 
L 130.519521 81.210681 
L 130.70991 70.860943 
L 130.963394 77.712981 
L 131.153783 94.973714 
L 131.281079 105.349305 
L 131.344173 105.409395 
L 131.661858 81.784528 
L 131.852247 74.345598 
L 131.978435 72.787282 
L 132.105731 78.798362 
L 132.231919 76.38645 
L 132.549604 98.506804 
L 132.675792 79.555131 
L 132.739993 81.227018 
L 132.803087 85.071891 
L 132.929276 73.028796 
L 133.056571 84.801551 
L 133.183866 77.210835 
L 133.310055 88.105167 
L 133.43735 80.027167 
L 133.627739 95.207765 
L 133.753928 100.687831 
L 134.071612 83.464221 
L 134.197801 69.384914 
L 134.262002 71.922266 
L 134.325096 70.996947 
L 134.38819 69.611459 
L 134.832063 110.677885 
L 134.959358 108.875596 
L 135.085547 99.109478 
L 135.149748 101.631797 
L 135.212842 100.784167 
L 135.52942 73.559127 
L 135.656715 70.137491 
L 135.78401 71.747257 
L 135.910199 79.468032 
L 135.973293 77.513295 
L 136.037494 76.979479 
L 136.290977 84.242331 
L 136.481367 79.836355 
L 136.607555 81.64337 
L 136.734851 95.82143 
L 136.988334 79.229149 
L 137.051428 83.515885 
L 137.115629 83.094337 
L 137.241818 77.722134 
L 137.306019 78.373841 
L 137.559502 85.933978 
L 137.622597 85.635111 
L 137.685691 85.612337 
L 137.812986 86.685699 
L 138.319953 69.639387 
L 138.700732 85.022173 
L 138.891122 102.238833 
L 138.954216 98.842538 
L 139.01731 96.333028 
L 139.144605 104.184439 
L 139.334995 90.308411 
L 139.398089 92.499958 
L 139.525384 86.393269 
L 139.588478 88.632781 
L 139.651572 87.537307 
L 139.778868 78.761709 
L 139.906163 82.876559 
L 140.032351 69.953009 
L 140.159647 78.11182 
L 140.222741 76.714549 
L 140.285835 72.774067 
L 140.350036 75.033509 
L 140.41313 76.103536 
L 140.476224 73.491296 
L 140.539319 75.698132 
L 140.666614 88.374523 
L 140.793909 84.269981 
L 140.857003 85.791515 
L 140.920097 85.769468 
L 140.983192 84.137847 
L 141.110487 93.685225 
L 141.173581 91.86893 
L 141.300876 79.620139 
L 141.36397 85.033977 
L 141.428172 82.412649 
L 141.55436 68.43203 
L 141.681655 86.763709 
L 141.744749 82.435957 
L 141.872045 73.873946 
L 141.998233 82.736556 
L 142.251717 75.798446 
L 142.315918 76.114356 
L 142.442106 77.773991 
L 142.569401 72.365969 
L 142.69559 79.649863 
L 142.885979 71.038154 
L 142.95018 71.939074 
L 143.013274 73.11752 
L 143.139463 70.937606 
L 143.203664 71.963602 
L 143.520241 83.345602 
L 143.647537 86.62561 
L 143.837926 75.653204 
L 143.964115 77.082915 
L 144.09141 77.564874 
L 144.154504 77.140716 
L 144.344893 83.362774 
L 144.407988 81.425037 
L 144.535283 70.772177 
L 144.598377 71.868977 
L 144.725672 78.908363 
L 144.851861 75.66535 
L 144.916062 76.633139 
L 145.105344 67.378747 
L 145.232639 79.746627 
L 145.295734 79.331387 
L 145.423029 70.311837 
L 145.549217 75.099822 
L 145.676513 71.239124 
L 145.803808 86.755626 
L 145.866902 84.894894 
L 145.929996 81.156664 
L 145.994197 82.71637 
L 146.057291 88.390241 
L 146.120386 88.299871 
L 146.247681 71.781323 
L 146.310775 72.177531 
L 146.373869 76.269157 
L 146.43807 75.710215 
L 146.501164 73.802715 
L 146.691554 87.960652 
L 146.754648 86.046544 
L 146.881943 78.965266 
L 147.008132 85.210996 
L 147.198521 79.343939 
L 147.325816 81.393217 
L 147.452005 80.128422 
L 147.832784 83.952467 
L 147.895878 83.738795 
L 148.276657 69.394131 
L 148.339751 69.782084 
L 148.594341 74.070125 
L 148.657435 72.798295 
L 148.72053 72.017234 
L 148.783624 72.099991 
L 148.910919 76.491254 
L 148.974013 78.032463 
L 149.038214 77.002531 
L 149.482087 66.96 
L 149.67137 73.298452 
L 149.798665 71.411973 
L 149.989055 79.10589 
L 150.052149 78.459827 
L 150.179444 83.446771 
L 150.305632 77.531087 
L 150.369834 77.561324 
L 150.560223 87.22052 
L 150.623317 85.870231 
L 150.686411 86.016157 
L 150.813707 88.32318 
L 150.939895 83.360614 
L 151.06719 81.024873 
L 151.320674 89.543068 
L 151.383768 87.383084 
L 151.574157 77.434558 
L 151.701453 75.712011 
L 152.01803 86.187103 
L 152.082232 85.677751 
L 152.145326 85.198016 
L 152.335715 96.402676 
L 152.842682 130.460445 
L 152.905777 132.369335 
L 152.969978 132.327828 
L 153.223461 125.118779 
L 153.920818 87.55264 
L 154.237396 70.673959 
L 154.301597 70.133621 
L 154.55508 73.137215 
L 154.74547 81.48425 
L 154.998953 103.81911 
L 155.062048 103.48451 
L 155.69631 76.503529 
L 155.759404 76.757424 
L 155.823605 76.293642 
L 155.949794 72.172013 
L 156.013995 72.832296 
L 156.204384 82.803489 
L 156.393667 72.393512 
L 156.457868 75.255221 
L 156.711351 92.943811 
L 157.345614 106.745614 
L 158.106065 85.136964 
L 158.423749 80.106182 
L 158.740327 94.371233 
L 158.930717 113.287131 
L 159.628073 192.162193 
L 159.818463 198.683011 
L 159.945758 194.389645 
L 160.262336 164.003815 
L 160.896598 92.10189 
L 161.150082 72.483882 
L 161.340471 67.852944 
L 161.403565 68.074506 
L 161.530861 72.805908 
L 162.228217 116.714604 
L 162.291312 116.610784 
L 162.67209 108.267298 
L 162.86248 94.117637 
L 163.180165 75.291639 
L 163.306353 72.545276 
L 163.496742 84.333129 
L 163.687132 90.142384 
L 163.750226 90.618933 
L 163.81332 89.849889 
L 164.00371 82.60036 
L 164.067911 83.872832 
L 164.828361 116.633622 
L 164.891456 116.559312 
L 165.018751 113.900582 
L 165.335329 99.403469 
L 165.653013 80.218514 
L 165.843403 78.12728 
L 165.906497 76.937651 
L 165.969591 77.512247 
L 166.287276 88.101874 
L 166.413464 89.693335 
L 166.603854 98.951298 
L 166.858444 126.338859 
L 167.74619 235.92939 
L 167.809284 235.071431 
L 167.999674 223.888882 
L 168.316252 185.829857 
L 168.950514 106.496252 
L 169.584777 69.442502 
L 169.712072 67.20192 
L 169.775166 67.680437 
L 169.965555 74.370019 
L 170.790207 113.216798 
L 170.853302 113.054769 
L 171.043691 110.723005 
L 171.169879 106.024621 
L 171.487564 92.66836 
L 171.613752 90.821164 
L 171.741048 92.993273 
L 171.804142 94.172359 
L 171.868343 93.788426 
L 172.057625 87.021689 
L 172.312216 74.607897 
L 172.37531 75.256846 
L 172.628794 84.788785 
L 172.691888 84.567115 
L 172.946478 78.057888 
L 173.072667 79.126974 
L 173.263056 83.79016 
L 173.897319 106.375708 
L 174.023507 104.255285 
L 174.531581 89.072442 
L 174.65777 90.307513 
L 174.785065 91.623267 
L 174.91236 89.232568 
L 175.356233 78.773257 
L 175.482421 77.249498 
L 175.609717 78.441031 
L 175.8632 84.696747 
L 176.116684 94.924937 
L 176.497463 127.081685 
L 177.067524 169.846215 
L 177.257914 175.957908 
L 177.322115 175.981452 
L 177.448303 173.833743 
L 177.701787 163.218156 
L 179.287996 75.935819 
L 179.604574 72.338105 
L 179.667668 72.384231 
L 179.922259 73.772563 
L 180.111541 78.118962 
L 180.429226 93.0042 
L 180.745804 106.83902 
L 180.936193 97.493852 
L 181.126583 91.525883 
L 181.189677 91.672344 
L 181.380066 92.771325 
L 181.507362 91.358016 
L 181.760845 87.872591 
L 181.951235 86.359204 
L 182.204718 83.607667 
L 182.332013 84.501808 
L 182.522403 86.316222 
L 182.585497 85.999627 
L 182.711685 82.155182 
L 183.02937 69.734354 
L 183.155559 70.305272 
L 183.345948 71.091637 
L 183.473243 70.843728 
L 183.536337 70.903968 
L 183.663633 72.598416 
L 183.854022 75.493806 
L 184.044412 74.243958 
L 184.107506 74.550972 
L 184.233694 77.709453 
L 184.677567 92.401227 
L 184.995252 88.052455 
L 185.31183 82.223505 
L 185.692608 76.096949 
L 185.819904 76.620223 
L 186.010293 78.978717 
L 186.326871 83.129535 
L 186.643449 84.249452 
L 187.151523 86.567038 
L 187.341912 86.978236 
L 187.468101 86.484217 
L 187.848879 84.122707 
L 187.976175 84.759446 
L 188.165457 87.720592 
L 188.546236 97.628081 
L 188.927015 108.032884 
L 188.990109 108.205947 
L 189.117404 106.683257 
L 190.005151 88.75696 
L 190.068245 88.862705 
L 190.19554 90.159833 
L 190.449024 92.896188 
L 190.639413 92.57645 
L 190.765601 93.755772 
L 191.273675 102.384887 
L 191.33677 101.836402 
L 191.590253 92.857482 
L 192.161422 78.024529 
L 192.28761 79.090771 
L 192.795684 86.460266 
L 192.986073 96.808422 
L 193.239557 111.498763 
L 193.302651 111.995349 
L 193.429947 110.327311 
L 194.317693 83.78197 
L 194.571176 79.404607 
L 194.698472 79.521857 
L 194.82466 78.082459 
L 195.078143 74.307598 
L 195.205439 75.757281 
L 195.458922 84.708252 
L 195.712406 91.0587 
L 195.839701 89.654416 
L 196.283574 83.355909 
L 196.537058 80.037004 
L 196.727447 77.725962 
L 196.790541 77.806666 
L 196.917837 79.776779 
L 197.995972 107.586401 
L 198.059066 107.756428 
L 198.186362 106.429618 
L 198.439845 99.337049 
L 199.200296 74.655456 
L 199.327591 74.049874 
L 199.45378 74.617884 
L 199.644169 77.41512 
L 199.897653 85.257486 
L 200.531915 108.079181 
L 200.596116 107.926091 
L 200.786506 104.749925 
L 201.419661 87.101709 
L 201.99083 70.960743 
L 202.118125 69.646508 
L 202.181219 69.70046 
L 202.308514 71.475976 
L 203.259355 94.359215 
L 203.322449 94.555309 
L 203.38665 94.332228 
L 203.575932 91.263904 
L 204.274396 76.784305 
L 204.400584 76.173527 
L 204.52788 76.885303 
L 204.844457 81.810638 
L 205.28833 87.72442 
L 206.049888 94.288604 
L 206.176077 93.872188 
L 206.430667 91.438079 
L 206.747245 86.914661 
L 207.191118 79.423746 
L 207.318413 79.062757 
L 207.444601 79.885668 
L 207.634991 83.773694 
L 208.01577 98.339237 
L 208.713126 132.036253 
L 208.776221 131.946353 
L 208.903516 128.872298 
L 209.284295 107.872886 
L 209.600873 96.338523 
L 210.10784 88.779563 
L 210.551713 78.783928 
L 210.679008 78.079102 
L 210.742102 78.139298 
L 210.932492 79.213837 
L 211.376365 81.52828 
L 211.629848 82.861847 
L 212.073721 87.048847 
L 213.216058 100.295472 
L 213.279152 100.386611 
L 213.406447 99.948255 
L 213.659931 98.909278 
L 213.786119 99.641027 
L 214.039603 103.659776 
L 214.738067 116.545198 
L 214.801161 116.361101 
L 214.99155 113.560251 
L 215.879296 95.07993 
L 216.323169 92.129155 
L 216.576653 90.91256 
L 216.639747 90.87332 
L 216.767042 91.296729 
L 217.338211 95.525129 
L 217.401305 95.388099 
L 217.591694 93.765309 
L 217.845178 88.933851 
L 218.47944 74.587155 
L 218.542535 74.72395 
L 218.732924 76.729304 
L 219.239891 82.777721 
L 219.367186 82.896639 
L 219.494482 82.367036 
L 219.938355 78.771546 
L 220.001449 78.868438 
L 220.128744 79.887186 
L 220.572617 87.118304 
L 221.142679 95.728537 
L 221.205773 95.965432 
L 221.269974 95.91443 
L 221.396162 95.03344 
L 221.776941 89.663846 
L 222.15772 85.493141 
L 222.220814 85.360644 
L 222.283908 85.405657 
L 222.474298 86.224098 
L 222.727781 86.945091 
L 222.855077 86.422181 
L 223.489339 81.478177 
L 223.552433 81.497016 
L 223.870118 81.928915 
L 224.186696 82.265696 
L 224.313991 82.016419 
L 224.567475 80.398612 
L 224.757864 79.639107 
L 224.884052 80.387877 
L 225.518315 86.47207 
L 226.216778 90.622183 
L 226.342967 90.592117 
L 226.533356 90.094889 
L 226.914135 88.617299 
L 226.977229 88.638063 
L 227.104525 89.335448 
L 227.358008 93.263848 
L 227.801881 99.470894 
L 228.118459 101.13658 
L 228.308848 101.503085 
L 228.436144 101.388957 
L 228.626533 100.392214 
L 228.880017 97.228495 
L 230.021246 79.482745 
L 230.27473 78.610501 
L 230.465119 78.508156 
L 230.718603 78.899446 
L 230.908993 79.11671 
L 231.036288 79.039064 
L 231.480161 78.333254 
L 231.543255 78.402774 
L 231.67055 78.833325 
L 231.924034 80.921736 
L 232.367907 84.541262 
L 232.81178 85.921917 
L 233.128358 87.256724 
L 233.76262 91.32162 
L 234.016104 94.589225 
L 234.333789 101.538476 
L 234.714567 116.205124 
L 235.538112 152.380151 
L 236.553154 183.15139 
L 236.743543 184.958234 
L 236.806637 185.05936 
L 236.933933 184.533777 
L 237.124322 181.997002 
L 237.4409 173.326593 
L 238.138257 144.196598 
L 239.469876 90.385951 
L 239.660265 89.060424 
L 239.724466 89.045883 
L 239.850655 89.511975 
L 240.484917 93.492788 
L 240.548011 93.419718 
L 240.738401 92.688055 
L 241.182274 89.536481 
L 241.435757 88.539075 
L 241.563053 88.752918 
L 241.943831 90.054409 
L 242.07002 89.769142 
L 242.450799 88.54641 
L 242.578094 88.982243 
L 242.894672 91.696358 
L 243.338545 96.895905 
L 244.226291 113.678485 
L 244.734365 130.479819 
L 245.241332 144.372078 
L 245.431722 146.210421 
L 245.494816 146.23837 
L 245.622111 145.390975 
L 245.875595 140.592533 
L 247.14412 109.304115 
L 247.841476 101.783262 
L 247.90457 101.821347 
L 248.031866 102.926829 
L 248.222255 107.574062 
L 248.538833 122.886366 
L 249.616968 183.563144 
L 249.997747 194.921472 
L 250.251231 197.832001 
L 250.314325 197.986695 
L 250.378526 197.94737 
L 250.504715 197.360777 
L 250.758198 194.444816 
L 251.012789 188.976042 
L 251.329366 177.384989 
L 252.089817 136.723774 
L 252.914469 100.114603 
L 253.358342 88.342383 
L 253.485637 87.493384 
L 253.548732 87.608367 
L 253.676027 88.915802 
L 253.929511 95.338252 
L 254.436478 117.165321 
L 255.07074 142.819856 
L 255.324224 146.768764 
L 255.388425 146.960496 
L 255.451519 146.830608 
L 255.578814 145.63204 
L 255.832298 139.883324 
L 256.402359 118.539732 
L 257.163917 93.280121 
L 257.544696 86.944364 
L 257.733978 85.998943 
L 257.79818 86.001616 
L 257.924368 86.431547 
L 258.177852 88.665157 
L 258.55863 94.459999 
L 259.827155 116.179933 
L 260.017545 116.585358 
L 260.14484 116.343459 
L 260.398324 115.03752 
L 261.539553 108.342977 
L 261.666849 108.355295 
L 261.793037 108.859579 
L 262.046521 111.473123 
L 263.124656 126.364114 
L 263.568529 128.285663 
L 263.758919 130.517776 
L 264.012402 136.585118 
L 264.330087 150.878952 
L 264.710866 179.73649 
L 265.217833 238.383836 
L 266.232874 367.361532 
L 266.359063 369.36 
L 266.486358 364.669485 
L 266.739842 341.795142 
L 268.45224 156.958975 
L 269.022301 125.77981 
L 269.530375 108.52329 
L 269.910047 102.069533 
L 270.227732 100.062554 
L 270.355027 100.029344 
L 270.481215 100.504417 
L 270.734699 102.997782 
L 271.686646 114.86743 
L 272.003224 116.072413 
L 272.193613 116.208631 
L 272.320909 115.983818 
L 272.510191 115.02963 
L 272.764782 112.442366 
L 273.588327 102.287846 
L 273.652528 102.258934 
L 273.778716 102.655506 
L 274.349884 106.309674 
L 274.412979 106.229483 
L 274.603368 105.110486 
L 275.42802 98.404374 
L 275.808799 97.088513 
L 275.998081 97.021559 
L 276.188471 97.394094 
L 276.443061 98.472632 
L 276.696545 100.764301 
L 276.950029 105.385424 
L 277.393902 118.948022 
L 278.281648 147.335277 
L 278.535131 150.852799 
L 278.662427 151.280335 
L 278.788615 150.811292 
L 278.979004 148.645406 
L 279.422877 139.878619 
L 279.994046 129.884138 
L 281.072181 115.852048 
L 281.769538 102.053367 
L 282.023021 100.45194 
L 282.086116 100.489919 
L 282.213411 101.117847 
L 282.466895 104.501803 
L 282.847673 113.831489 
L 283.608124 139.921751 
L 284.560071 170.960786 
L 284.94085 177.492124 
L 285.194334 179.223481 
L 285.320522 179.285261 
L 285.447817 178.809246 
L 285.638207 177.0864 
L 285.954785 171.619315 
L 286.525953 156.431425 
L 288.491835 104.35098 
L 288.935708 96.828886 
L 289.379581 92.750668 
L 289.886548 89.92065 
L 290.076937 89.498032 
L 290.204233 89.63842 
L 290.394622 90.68347 
L 290.648106 93.790479 
L 291.091979 103.118133 
L 291.979725 122.573621 
L 292.233208 124.726505 
L 292.360504 124.974221 
L 292.486692 124.686367 
L 292.677081 123.35466 
L 293.05786 118.459391 
L 293.755217 109.389417 
L 295.151037 96.097629 
L 295.721099 91.38511 
L 297.052718 81.983402 
L 297.68698 77.204078 
L 298.004665 76.064103 
L 298.258149 75.762435 
L 298.448538 75.814271 
L 298.702022 76.222582 
L 299.018599 77.300072 
L 299.526673 80.02567 
L 300.033641 83.983923 
L 300.667903 91.329575 
L 301.302166 98.034169 
L 301.618743 99.382576 
L 301.809133 99.450664 
L 301.999522 99.108131 
L 302.633785 97.659538 
L 302.76108 97.71009 
L 302.950363 98.08269 
L 303.268047 99.304224 
L 303.839216 102.474423 
L 304.346183 106.632149 
L 305.043539 112.386596 
L 305.297023 113.026371 
L 305.424318 112.939529 
L 305.614708 112.373915 
L 306.312064 109.605142 
L 306.438253 109.70336 
L 306.628642 110.460385 
L 306.883233 112.593895 
L 307.327106 118.682472 
L 308.34104 133.392915 
L 308.658725 135.222832 
L 308.784913 135.391747 
L 308.849114 135.35426 
L 309.038397 134.766085 
L 309.292987 132.943503 
L 309.73686 127.472483 
L 310.560405 116.413685 
L 310.87809 114.73782 
L 311.06848 114.589049 
L 311.258869 114.927477 
L 311.638541 116.41578 
L 312.272803 118.764459 
L 312.463193 118.968829 
L 312.590488 118.915432 
L 312.780878 118.537529 
L 313.097455 117.159141 
L 313.604423 113.497659 
L 314.619464 104.024335 
L 315.126431 100.426044 
L 315.381022 99.911838 
L 315.50721 100.086633 
L 315.697599 100.870003 
L 316.078378 103.735134 
L 318.741617 126.147427 
L 319.18549 127.881243 
L 319.566269 130.604575 
L 320.263625 135.709539 
L 320.58131 136.467783 
L 320.897888 136.589288 
L 321.53215 136.572951 
L 321.72254 136.240126 
L 321.976023 135.140845 
L 322.292601 132.388794 
L 322.67338 126.878855 
L 323.244548 114.456894 
L 324.195388 92.48454 
L 324.448872 89.963526 
L 324.576167 89.661922 
L 324.702356 90.067603 
L 324.892745 92.046056 
L 325.21043 98.814931 
L 325.780491 118.21777 
L 326.478955 139.894336 
L 326.795533 144.108131 
L 326.922828 144.471557 
L 327.049016 144.076568 
L 327.239406 142.1368 
L 327.55709 135.818427 
L 328.127152 118.541314 
L 328.824508 98.545275 
L 329.205287 92.618021 
L 329.458771 90.97543 
L 329.586066 90.779529 
L 329.712254 90.966641 
L 329.902644 91.927565 
L 330.157234 94.433269 
L 330.536906 100.706563 
L 331.108075 114.424454 
L 331.995821 135.671582 
L 332.439694 141.620925 
L 332.693177 142.933706 
L 332.820473 142.965184 
L 332.946661 142.564892 
L 333.13705 141.14551 
L 333.454735 136.665737 
L 333.961702 125.150278 
L 335.167133 95.890245 
L 335.737194 87.613948 
L 336.054879 85.206377 
L 336.245269 84.838354 
L 336.371457 85.143507 
L 336.561846 86.504938 
L 336.878424 91.137694 
L 337.386498 102.971073 
L 338.527728 136.333532 
L 340.556704 199.542616 
L 340.937483 204.617022 
L 341.064778 205.071673 
L 341.127872 205.0378 
L 341.255167 204.435533 
L 341.44445 202.209258 
L 341.762135 195.300508 
L 342.333303 176.029524 
L 344.299185 104.493827 
L 344.806152 92.800536 
L 345.12273 89.564153 
L 345.250025 89.37071 
L 345.37732 89.843645 
L 345.566603 91.802189 
L 345.884287 98.192883 
L 346.391254 114.722701 
L 347.850169 166.867448 
L 348.166747 171.149545 
L 348.294042 171.596797 
L 348.357136 171.54015 
L 348.484431 170.870993 
L 348.737915 167.413368 
L 349.118694 157.768884 
L 349.943346 128.024753 
L 350.703797 103.661401 
L 351.274965 91.994755 
L 351.718838 87.01382 
L 352.035416 85.528467 
L 352.162711 85.418018 
L 352.288899 85.59185 
L 352.479289 86.4027 
L 352.732772 88.549383 
L 353.113551 94.093815 
L 353.620518 105.426802 
L 355.397118 148.963262 
L 355.713695 151.205426 
L 355.904085 151.406781 
L 356.03138 151.109518 
L 356.284864 149.625962 
L 356.664536 145.744949 
L 358.504229 124.565439 
L 358.885008 123.169323 
L 360.089332 120.511171 
L 360.342815 120.331585 
L 360.470111 120.486001 
L 360.6605 121.155158 
L 360.913984 123.108271 
L 361.230561 127.717825 
L 361.61134 137.031002 
L 362.119414 156.290396 
L 362.816771 193.244473 
L 363.894907 249.986008 
L 364.33878 262.503771 
L 364.592263 265.160875 
L 364.655357 265.284498 
L 364.718452 265.192652 
L 364.845747 264.373335 
L 365.09923 260.332881 
L 365.480009 249.232255 
L 366.114272 222.550889 
L 368.080153 134.896508 
L 368.840604 112.520611 
L 369.602162 96.535066 
L 370.109129 89.856732 
L 370.426814 88.070011 
L 370.553002 87.983747 
L 370.680297 88.287019 
L 370.870687 89.497861 
L 371.187265 93.530596 
L 371.631138 102.922553 
L 372.518884 128.156224 
L 373.217347 144.456567 
L 373.597019 149.106195 
L 373.850503 150.14344 
L 373.977798 150.036262 
L 374.168188 149.124158 
L 374.484765 145.780447 
L 374.928638 138.090893 
L 376.641036 105.260261 
L 377.021815 102.555555 
L 377.275299 101.992593 
L 377.402594 102.052811 
L 377.592984 102.532204 
L 377.909561 104.244059 
L 378.353434 108.129412 
L 379.938537 123.519576 
L 380.256222 124.681363 
L 380.509706 124.923454 
L 380.700095 124.730483 
L 380.953579 124.053991 
L 381.460546 121.847261 
L 382.222104 118.779343 
L 382.665977 117.885779 
L 383.046755 117.578401 
L 383.490629 117.511105 
L 384.187985 117.646403 
L 385.266121 117.948435 
L 385.519604 117.594097 
L 385.837289 116.556083 
L 386.216961 114.329765 
L 386.915425 108.477805 
L 387.54858 103.978744 
L 387.866265 103.014591 
L 387.99356 102.962285 
L 388.119748 103.119758 
L 388.310138 103.767938 
L 388.626716 105.979436 
L 389.007494 110.468725 
L 389.515569 119.263462 
L 390.276019 137.094813 
L 391.925323 177.976628 
L 392.495385 186.530214 
L 392.876164 189.567445 
L 393.129647 190.316601 
L 393.256942 190.307855 
L 393.447332 189.831199 
L 393.700815 188.390625 
L 394.144689 184.081799 
L 395.666697 167.157312 
L 396.173664 164.493793 
L 396.871021 161.164366 
L 397.314894 157.624647 
L 397.822968 151.68035 
L 399.661554 127.949801 
L 399.979239 126.634026 
L 400.105428 126.570686 
L 400.232723 126.800717 
L 400.423112 127.726999 
L 400.73969 130.882442 
L 401.120469 137.273243 
L 401.691637 151.316667 
L 402.768666 185.367999 
L 403.657519 210.711842 
L 404.101392 218.528804 
L 404.41797 221.09556 
L 404.545265 221.342164 
L 404.671453 221.133175 
L 404.861843 219.972628 
L 405.179527 215.883204 
L 405.6234 206.231471 
L 406.320757 184.824496 
L 407.90586 134.097655 
L 408.603216 118.860582 
L 409.30168 108.482959 
L 409.871741 103.121319 
L 410.379816 100.302678 
L 410.886783 98.677665 
L 412.471886 94.46295 
L 413.550021 91.260269 
L 413.993894 90.495374 
L 414.311579 90.316024 
L 414.565062 90.461459 
L 414.818546 90.918355 
L 415.135124 92.000208 
L 415.515903 94.137439 
L 416.02287 98.442096 
L 416.721333 106.484832 
L 418.116047 122.920517 
L 418.813403 128.557008 
L 421.09697 144.472498 
L 421.731232 148.643375 
L 422.110904 150.054139 
L 422.365495 150.410701 
L 422.555884 150.361217 
L 422.809368 149.888389 
L 423.125946 148.709153 
L 423.632913 145.795993 
L 425.091827 136.903359 
L 425.409512 136.138785 
L 425.598794 136.014628 
L 425.789184 136.156256 
L 426.043774 136.767997 
L 426.360352 138.220332 
L 426.804225 141.585128 
L 427.248098 146.732154 
L 427.755065 155.420162 
L 428.326234 169.405015 
L 430.101726 217.960003 
L 430.482505 222.219817 
L 430.735988 223.202554 
L 430.863284 223.156513 
L 431.053673 222.45605 
L 431.307157 220.44242 
L 431.686829 215.459582 
L 432.257997 204.758179 
L 433.399227 177.881788 
L 436.18976 112.661427 
L 436.887117 99.865476 
L 437.267896 96.063457 
L 437.458285 95.568839 
L 437.58558 95.828829 
L 437.774863 97.08398 
L 438.092548 101.138162 
L 438.663716 112.164093 
L 441.00927 161.402822 
L 441.390048 164.503202 
L 441.643532 165.115669 
L 441.770827 164.97789 
L 441.961217 164.228563 
L 442.277794 161.616088 
L 442.721668 155.496098 
L 443.35593 143.296063 
L 445.258717 104.532768 
L 445.829886 97.339436 
L 446.209558 94.580607 
L 446.463041 93.796702 
L 446.590337 93.746577 
L 446.717632 93.93339 
L 446.906914 94.668389 
L 447.224599 97.12044 
L 447.668472 103.023337 
L 448.302735 115.325011 
L 449.57126 140.841468 
L 450.078227 146.851906 
L 450.459006 149.224215 
L 450.712489 149.876628 
L 450.902879 149.940225 
L 451.093268 149.687591 
L 451.409846 148.690121 
L 451.91792 146.074844 
L 453.249539 138.59383 
L 453.693412 137.333269 
L 454.00999 137.038486 
L 454.200379 137.105227 
L 454.453863 137.456036 
L 454.834642 138.441894 
L 456.293556 142.910013 
L 456.610134 143.16177 
L 456.863618 143.119792 
L 457.751364 142.681522 
L 457.941753 142.984366 
L 458.195237 143.932738 
L 458.512922 146.319502 
L 458.8937 151.492938 
L 459.337573 161.387853 
L 459.844541 178.227786 
L 460.541897 210.386074 
L 461.429643 262.196585 
L 462.825464 342.310974 
L 463.205136 353.24384 
L 463.395525 354.879759 
L 463.459726 354.80068 
L 463.585914 353.720346 
L 463.839398 348.18806 
L 464.220177 333.508282 
L 465.044829 289.578009 
L 466.883415 189.669705 
L 467.898457 147.478402 
L 468.660014 124.761896 
L 469.29317 111.803938 
L 469.864338 104.410578 
L 470.308211 101.123728 
L 470.68899 99.786055 
L 470.942474 99.551256 
L 471.132863 99.678065 
L 471.386347 100.20399 
L 471.767126 101.642874 
L 472.337187 104.91514 
L 473.22604 111.495085 
L 474.304176 119.170269 
L 474.937331 122.251103 
L 475.445405 123.726405 
L 475.826184 124.288961 
L 476.142762 124.436342 
L 476.45934 124.318129 
L 476.840119 123.856785 
L 477.283992 122.921607 
L 477.85516 121.173934 
L 478.679812 117.786663 
L 479.757947 112.273345 
L 481.53344 102.925226 
L 481.913112 101.90496 
L 482.167702 101.748042 
L 482.358091 101.991566 
L 482.611575 102.900377 
L 482.928153 105.14763 
L 483.308932 109.737575 
L 483.752805 117.947537 
L 484.323973 132.889507 
L 485.211719 163.266912 
L 486.733728 216.24246 
L 487.303789 229.240214 
L 487.684568 234.112987 
L 487.938052 235.450703 
L 488.065347 235.531322 
L 488.191535 235.222618 
L 488.381925 234.046226 
L 488.699609 230.291273 
L 489.143482 221.75719 
L 489.840839 202.786783 
L 492.884856 111.849872 
L 493.456025 102.323985 
L 493.899898 97.82935 
L 494.216475 96.286731 
L 494.406865 96.041581 
L 494.53416 96.161761 
L 494.723443 96.764178 
L 494.978033 98.342145 
L 495.357705 102.303178 
L 495.865779 110.303317 
L 496.563136 125.432614 
L 497.831661 159.380596 
L 499.035985 189.723658 
L 499.860637 205.041008 
L 500.494899 212.859595 
L 501.001866 216.528475 
L 501.382645 217.809501 
L 501.636129 217.996827 
L 501.826518 217.805117 
L 502.080002 217.130379 
L 502.460781 215.286754 
L 502.967748 211.457299 
L 503.60201 204.847117 
L 504.426662 193.975859 
L 506.202154 166.569416 
L 507.407585 149.922861 
L 508.232237 141.367714 
L 509.055782 134.972551 
L 510.514697 125.945965 
L 512.35439 115.594068 
L 513.114841 112.4157 
L 513.621808 111.119427 
L 513.939493 110.766715 
L 514.192976 110.785555 
L 514.44646 111.103325 
L 514.764145 111.962246 
L 515.143816 113.733614 
L 515.58769 116.911532 
L 516.095764 122.116532 
L 516.730026 131.092286 
L 517.490477 145.411974 
L 518.568612 170.724703 
L 519.964433 203.13956 
L 520.597588 213.395913 
L 521.105662 218.292401 
L 521.42224 219.706864 
L 521.61263 219.941536 
L 521.739925 219.845991 
L 521.930314 219.33358 
L 522.246892 217.536424 
L 522.690765 213.207132 
L 523.261933 205.015197 
L 524.085478 189.411404 
L 525.607487 155.665162 
L 527.066401 126.12121 
L 527.954148 112.534511 
L 528.651504 104.950125 
L 529.222672 100.906207 
L 529.666546 99.075477 
L 530.047324 98.350763 
L 530.300808 98.255646 
L 530.554292 98.43352 
L 530.871976 98.984273 
L 531.378944 100.445996 
L 532.26669 103.916601 
L 533.598309 109.017801 
L 534.422961 111.272368 
L 534.994129 112.287501 
L 535.501096 112.797132 
L 535.944969 112.948596 
L 536.388842 112.849095 
L 536.89581 112.478249 
L 537.594273 111.667977 
L 538.925892 110.08909 
L 539.432859 109.828971 
L 539.813638 109.871526 
L 540.194417 110.174948 
L 540.574089 110.792269 
L 541.017962 111.981492 
L 541.526036 114.063252 
L 542.096098 117.463097 
L 542.73036 122.68499 
L 543.427717 130.196114 
L 544.379664 142.84787 
L 546.092062 166.030339 
L 546.726325 171.767251 
L 547.170198 174.114284 
L 547.486775 174.84182 
L 547.677165 174.887133 
L 547.867554 174.640016 
L 548.121038 173.865584 
L 548.501817 171.801038 
L 549.008784 167.559038 
L 549.770342 158.809272 
L 552.43358 125.65948 
L 553.003641 121.688012 
L 553.38442 120.199409 
L 553.637904 119.79144 
L 553.828293 119.81524 
L 554.018683 120.135705 
L 554.272166 121.044259 
L 554.589851 122.986744 
L 555.033724 127.27656 
L 555.540691 134.485566 
L 556.174954 146.921491 
L 556.999606 168.203047 
L 558.394319 212.036086 
L 559.59975 246.690476 
L 560.234012 259.208196 
L 560.740979 265.296644 
L 561.121758 267.523347 
L 561.375242 267.96583 
L 561.502537 267.898898 
L 561.69182 267.465823 
L 562.009504 265.945101 
L 562.453377 262.420607 
L 563.08764 255.335587 
L 564.165775 240.238559 
L 566.829014 201.78123 
L 567.71676 192.088033 
L 568.414116 186.604417 
L 568.985285 183.783809 
L 569.366064 182.786574 
L 569.682641 182.488498 
L 569.936125 182.581199 
L 570.189609 182.945138 
L 570.570388 183.933734 
L 571.141556 186.150151 
L 572.726659 192.775602 
L 573.170532 193.768431 
L 573.55131 194.126511 
L 573.804794 194.098177 
L 574.058278 193.854268 
L 574.375962 193.249884 
L 574.819835 191.861188 
L 575.389897 189.188772 
L 576.024159 185.105764 
L 576.785717 178.707436 
L 577.673463 169.237255 
L 578.814693 154.34712 
L 581.288649 120.91512 
L 582.049099 113.718923 
L 582.683362 109.603153 
L 583.190329 107.569123 
L 583.634202 106.646049 
L 583.951887 106.425192 
L 584.20537 106.480855 
L 584.521948 106.803736 
L 584.965821 107.647432 
L 585.53699 109.229677 
L 586.552031 112.835559 
L 588.137134 119.41405 
L 589.342565 125.34094 
L 590.483794 132.142191 
L 592.131991 143.641676 
L 593.718201 154.118907 
L 594.541746 158.158249 
L 595.176008 160.270888 
L 595.684082 161.262905 
L 596.064861 161.587968 
L 596.381439 161.587476 
L 596.698017 161.347908 
L 597.078796 160.760759 
L 597.585763 159.513029 
L 598.220025 157.31821 
L 599.107771 153.399967 
L 601.391338 143.053908 
L 601.962506 141.519949 
L 602.342178 140.969838 
L 602.659863 140.858276 
L 602.913346 141.023213 
L 603.229924 141.576446 
L 603.610703 142.790132 
L 604.054576 145.018803 
L 604.56265 148.692153 
L 605.195806 154.993439 
L 605.957364 164.907001 
L 607.035499 182.319028 
L 609.128676 217.180183 
L 609.826033 225.360805 
L 610.333 229.274622 
L 610.713779 230.914454 
L 610.967262 231.358114 
L 611.157652 231.345797 
L 611.348041 231.039445 
L 611.664619 229.889741 
L 612.045398 227.507873 
L 612.552365 222.808356 
L 613.250829 214.067123 
L 614.392058 196.317224 
L 618.767695 125.136399 
L 620.289703 103.545883 
L 620.923966 96.972461 
L 621.240543 95.22051 
L 621.430933 94.927567 
L 621.558228 95.07576 
L 621.748618 95.767242 
L 622.12829 98.305386 
L 622.636364 102.726138 
L 622.636364 102.726138 
" style="fill:none;stroke:#000000;stroke-linecap:round;stroke-width:1.5;"/>
   </g>
   <g id="patch_3">
    <path d="M 90 384.48 
L 90 51.84 
" style="fill:none;stroke:#cccccc;stroke-linecap:square;stroke-linejoin:miter;"/>
   </g>
   <g id="patch_4">
    <path d="M 648 384.48 
L 648 51.84 
" style="fill:none;stroke:#cccccc;stroke-linecap:square;stroke-linejoin:miter;"/>
   </g>
   <g id="patch_5">
    <path d="M 90 384.48 
L 648 384.48 
" style="fill:none;stroke:#cccccc;stroke-linecap:square;stroke-linejoin:miter;"/>
   </g>
   <g id="patch_6">
    <path d="M 90 51.84 
L 648 51.84 
" style="fill:none;stroke:#cccccc;stroke-linecap:square;stroke-linejoin:miter;"/>
   </g>
   <g id="text_16">
    <!-- Periodogram: 2003 RP8 -->
    <g style="fill:#262626;" transform="translate(279.19125 45.84)scale(0.16 -0.16)">
     <defs>
      <path d="M 4050 3009 
Q 4050 2725 3954 2461 
Q 3859 2197 3662 1994 
Q 3466 1791 3162 1670 
Q 2859 1550 2444 1550 
L 1350 1550 
L 1350 0 
L 428 0 
L 428 4403 
L 2406 4403 
Q 2828 4403 3137 4301 
Q 3447 4200 3650 4015 
Q 3853 3831 3951 3575 
Q 4050 3319 4050 3009 
z
M 3122 2994 
Q 3122 3334 2917 3511 
Q 2713 3688 2303 3688 
L 1350 3688 
L 1350 2259 
L 2328 2259 
Q 2534 2259 2682 2312 
Q 2831 2366 2929 2462 
Q 3028 2559 3075 2695 
Q 3122 2831 3122 2994 
z
" id="LiberationSans-Bold-50" transform="scale(0.015625)"/>
      <path d="M 1831 -63 
Q 1466 -63 1173 45 
Q 881 153 675 373 
Q 469 594 359 926 
Q 250 1259 250 1706 
Q 250 2191 379 2522 
Q 509 2853 729 3058 
Q 950 3263 1237 3353 
Q 1525 3444 1844 3444 
Q 2244 3444 2526 3305 
Q 2809 3166 2990 2916 
Q 3172 2666 3256 2317 
Q 3341 1969 3341 1547 
L 3341 1522 
L 1172 1522 
Q 1172 1309 1209 1126 
Q 1247 944 1331 811 
Q 1416 678 1550 601 
Q 1684 525 1875 525 
Q 2106 525 2253 623 
Q 2400 722 2463 928 
L 3291 856 
Q 3234 713 3132 550 
Q 3031 388 2862 252 
Q 2694 116 2442 26 
Q 2191 -63 1831 -63 
z
M 1831 2891 
Q 1697 2891 1580 2845 
Q 1463 2800 1377 2701 
Q 1291 2603 1237 2447 
Q 1184 2291 1178 2072 
L 2491 2072 
Q 2466 2481 2294 2686 
Q 2122 2891 1831 2891 
z
" id="LiberationSans-Bold-65" transform="scale(0.015625)"/>
      <path d="M 447 0 
L 447 2588 
Q 447 2697 445 2819 
Q 444 2941 439 3052 
Q 434 3163 431 3252 
Q 428 3341 422 3381 
L 1259 3381 
Q 1266 3344 1272 3251 
Q 1278 3159 1284 3050 
Q 1291 2941 1295 2833 
Q 1300 2725 1300 2659 
L 1313 2659 
Q 1378 2844 1443 2989 
Q 1509 3134 1598 3236 
Q 1688 3338 1813 3392 
Q 1938 3447 2122 3447 
Q 2200 3447 2276 3433 
Q 2353 3419 2394 3400 
L 2394 2666 
Q 2309 2684 2223 2698 
Q 2138 2713 2019 2713 
Q 1691 2713 1508 2447 
Q 1325 2181 1325 1659 
L 1325 0 
L 447 0 
z
" id="LiberationSans-Bold-72" transform="scale(0.015625)"/>
      <path d="M 447 3991 
L 447 4638 
L 1325 4638 
L 1325 3991 
L 447 3991 
z
M 447 0 
L 447 3381 
L 1325 3381 
L 1325 0 
L 447 0 
z
" id="LiberationSans-Bold-69" transform="scale(0.015625)"/>
      <path d="M 3659 1694 
Q 3659 1306 3551 984 
Q 3444 663 3228 430 
Q 3013 197 2691 67 
Q 2369 -63 1941 -63 
Q 1528 -63 1212 65 
Q 897 194 683 425 
Q 469 656 359 979 
Q 250 1303 250 1694 
Q 250 2072 354 2392 
Q 459 2713 671 2947 
Q 884 3181 1206 3312 
Q 1528 3444 1959 3444 
Q 2416 3444 2737 3312 
Q 3059 3181 3264 2948 
Q 3469 2716 3564 2395 
Q 3659 2075 3659 1694 
z
M 2741 1694 
Q 2741 2297 2544 2569 
Q 2347 2841 1972 2841 
Q 1584 2841 1378 2566 
Q 1172 2291 1172 1694 
Q 1172 1391 1226 1172 
Q 1281 953 1381 812 
Q 1481 672 1622 605 
Q 1763 538 1931 538 
Q 2125 538 2276 605 
Q 2428 672 2531 812 
Q 2634 953 2687 1172 
Q 2741 1391 2741 1694 
z
" id="LiberationSans-Bold-6f" transform="scale(0.015625)"/>
      <path d="M 2638 0 
Q 2631 25 2623 89 
Q 2616 153 2608 234 
Q 2600 316 2595 400 
Q 2591 484 2591 550 
L 2578 550 
Q 2425 222 2151 79 
Q 1878 -63 1497 -63 
Q 1178 -63 945 68 
Q 713 200 561 434 
Q 409 669 336 989 
Q 263 1309 263 1688 
Q 263 2072 339 2394 
Q 416 2716 575 2948 
Q 734 3181 979 3312 
Q 1225 3444 1563 3444 
Q 1728 3444 1881 3409 
Q 2034 3375 2165 3303 
Q 2297 3231 2403 3118 
Q 2509 3006 2584 2847 
L 2591 2847 
Q 2591 2878 2589 2939 
Q 2588 3000 2588 3078 
Q 2588 3156 2586 3240 
Q 2584 3325 2584 3403 
L 2584 4638 
L 3463 4638 
L 3463 738 
Q 3463 491 3472 298 
Q 3481 106 3488 0 
L 2638 0 
z
M 2597 1709 
Q 2597 2044 2534 2264 
Q 2472 2484 2370 2614 
Q 2269 2744 2139 2795 
Q 2009 2847 1875 2847 
Q 1706 2847 1576 2781 
Q 1447 2716 1358 2575 
Q 1269 2434 1223 2215 
Q 1178 1997 1178 1688 
Q 1178 538 1869 538 
Q 2000 538 2131 594 
Q 2263 650 2366 784 
Q 2469 919 2533 1145 
Q 2597 1372 2597 1709 
z
" id="LiberationSans-Bold-64" transform="scale(0.015625)"/>
      <path d="M 1863 -1356 
Q 1528 -1356 1273 -1289 
Q 1019 -1222 839 -1101 
Q 659 -981 551 -814 
Q 444 -647 403 -447 
L 1281 -344 
Q 1328 -547 1483 -662 
Q 1638 -778 1888 -778 
Q 2044 -778 2173 -734 
Q 2303 -691 2395 -586 
Q 2488 -481 2539 -309 
Q 2591 -138 2591 116 
Q 2591 203 2591 293 
Q 2591 384 2594 459 
Q 2597 547 2597 628 
L 2591 628 
Q 2438 300 2161 153 
Q 1884 6 1503 6 
Q 1181 6 948 132 
Q 716 259 562 486 
Q 409 713 336 1027 
Q 263 1341 263 1719 
Q 263 2109 341 2426 
Q 419 2744 580 2972 
Q 741 3200 986 3323 
Q 1231 3447 1569 3447 
Q 1906 3447 2173 3303 
Q 2441 3159 2591 2838 
L 2606 2838 
Q 2606 2903 2611 2989 
Q 2616 3075 2622 3154 
Q 2628 3234 2636 3296 
Q 2644 3359 2650 3381 
L 3481 3381 
Q 3475 3269 3469 3066 
Q 3463 2863 3463 2600 
L 3463 103 
Q 3463 -266 3356 -539 
Q 3250 -813 3045 -994 
Q 2841 -1175 2542 -1265 
Q 2244 -1356 1863 -1356 
z
M 2597 1738 
Q 2597 2056 2534 2268 
Q 2472 2481 2372 2609 
Q 2272 2738 2142 2791 
Q 2013 2844 1881 2844 
Q 1713 2844 1583 2778 
Q 1453 2713 1362 2575 
Q 1272 2438 1225 2225 
Q 1178 2013 1178 1719 
Q 1178 1172 1353 894 
Q 1528 616 1875 616 
Q 2006 616 2136 667 
Q 2266 719 2369 848 
Q 2472 978 2534 1193 
Q 2597 1409 2597 1738 
z
" id="LiberationSans-Bold-67" transform="scale(0.015625)"/>
      <path d="M 1228 -63 
Q 984 -63 792 4 
Q 600 72 465 201 
Q 331 331 259 522 
Q 188 713 188 956 
Q 188 1256 292 1461 
Q 397 1666 578 1792 
Q 759 1919 1003 1976 
Q 1247 2034 1522 2038 
L 2250 2050 
L 2250 2222 
Q 2250 2406 2217 2529 
Q 2184 2653 2121 2731 
Q 2059 2809 1967 2842 
Q 1875 2875 1756 2875 
Q 1647 2875 1561 2853 
Q 1475 2831 1412 2776 
Q 1350 2722 1311 2630 
Q 1272 2538 1256 2397 
L 341 2441 
Q 378 2663 478 2845 
Q 578 3028 754 3162 
Q 931 3297 1189 3370 
Q 1447 3444 1794 3444 
Q 2109 3444 2356 3366 
Q 2603 3288 2775 3133 
Q 2947 2978 3037 2753 
Q 3128 2528 3128 2231 
L 3128 1000 
Q 3128 881 3139 787 
Q 3150 694 3179 630 
Q 3209 566 3264 533 
Q 3319 500 3406 500 
Q 3506 500 3600 519 
L 3600 44 
Q 3522 25 3459 9 
Q 3397 -6 3334 -15 
Q 3272 -25 3201 -31 
Q 3131 -38 3038 -38 
Q 2706 -38 2548 125 
Q 2391 288 2359 603 
L 2341 603 
Q 2166 288 1892 112 
Q 1619 -63 1228 -63 
z
M 2250 1566 
L 1800 1559 
Q 1659 1553 1532 1536 
Q 1406 1519 1311 1464 
Q 1216 1409 1159 1306 
Q 1103 1203 1103 1025 
Q 1103 784 1214 667 
Q 1325 550 1509 550 
Q 1678 550 1815 622 
Q 1953 694 2048 811 
Q 2144 928 2197 1081 
Q 2250 1234 2250 1394 
L 2250 1566 
z
" id="LiberationSans-Bold-61" transform="scale(0.015625)"/>
      <path d="M 2438 0 
L 2438 1897 
Q 2438 2094 2411 2258 
Q 2384 2422 2323 2539 
Q 2263 2656 2164 2722 
Q 2066 2788 1925 2788 
Q 1791 2788 1681 2717 
Q 1572 2647 1492 2517 
Q 1413 2388 1369 2208 
Q 1325 2028 1325 1813 
L 1325 0 
L 447 0 
L 447 2625 
Q 447 2734 445 2850 
Q 444 2966 439 3070 
Q 434 3175 431 3258 
Q 428 3341 422 3381 
L 1259 3381 
Q 1266 3344 1272 3261 
Q 1278 3178 1284 3078 
Q 1291 2978 1295 2878 
Q 1300 2778 1300 2709 
L 1313 2709 
Q 1475 3097 1717 3272 
Q 1959 3447 2297 3447 
Q 2684 3447 2920 3258 
Q 3156 3069 3238 2709 
L 3256 2709 
Q 3347 2919 3451 3059 
Q 3556 3200 3682 3286 
Q 3809 3372 3957 3409 
Q 4106 3447 4281 3447 
Q 4559 3447 4751 3347 
Q 4944 3247 5064 3072 
Q 5184 2897 5239 2659 
Q 5294 2422 5294 2147 
L 5294 0 
L 4422 0 
L 4422 1897 
Q 4422 2094 4395 2258 
Q 4369 2422 4308 2539 
Q 4247 2656 4148 2722 
Q 4050 2788 3909 2788 
Q 3778 2788 3670 2720 
Q 3563 2653 3483 2529 
Q 3403 2406 3359 2234 
Q 3316 2063 3309 1853 
L 3309 0 
L 2438 0 
z
" id="LiberationSans-Bold-6d" transform="scale(0.015625)"/>
      <path d="M 616 2350 
L 616 3231 
L 1516 3231 
L 1516 2350 
L 616 2350 
z
M 616 0 
L 616 878 
L 1516 878 
L 1516 0 
L 616 0 
z
" id="LiberationSans-Bold-3a" transform="scale(0.015625)"/>
      <path id="LiberationSans-Bold-20" transform="scale(0.015625)"/>
      <path d="M 222 0 
L 222 609 
Q 372 938 587 1202 
Q 803 1466 1039 1686 
Q 1275 1906 1508 2095 
Q 1741 2284 1927 2461 
Q 2113 2638 2228 2816 
Q 2344 2994 2344 3194 
Q 2344 3488 2197 3628 
Q 2050 3769 1766 3769 
Q 1484 3769 1336 3617 
Q 1188 3466 1144 3163 
L 259 3213 
Q 291 3472 387 3700 
Q 484 3928 664 4100 
Q 844 4272 1114 4370 
Q 1384 4469 1759 4469 
Q 2116 4469 2391 4386 
Q 2666 4303 2853 4143 
Q 3041 3984 3137 3754 
Q 3234 3525 3234 3231 
Q 3234 2922 3112 2672 
Q 2991 2422 2800 2211 
Q 2609 2000 2376 1815 
Q 2144 1631 1925 1456 
Q 1706 1281 1526 1103 
Q 1347 925 1259 722 
L 3303 722 
L 3303 0 
L 222 0 
z
" id="LiberationSans-Bold-32" transform="scale(0.015625)"/>
      <path d="M 3297 2203 
Q 3297 1572 3181 1139 
Q 3066 706 2861 439 
Q 2656 172 2376 54 
Q 2097 -63 1766 -63 
Q 1434 -63 1156 53 
Q 878 169 678 436 
Q 478 703 365 1136 
Q 253 1569 253 2203 
Q 253 2869 364 3305 
Q 475 3741 678 4000 
Q 881 4259 1164 4364 
Q 1447 4469 1791 4469 
Q 2113 4469 2389 4364 
Q 2666 4259 2867 4000 
Q 3069 3741 3183 3305 
Q 3297 2869 3297 2203 
z
M 2416 2203 
Q 2416 2669 2381 2973 
Q 2347 3278 2272 3458 
Q 2197 3638 2076 3709 
Q 1956 3781 1784 3781 
Q 1600 3781 1475 3707 
Q 1350 3634 1273 3453 
Q 1197 3272 1164 2967 
Q 1131 2663 1131 2203 
Q 1131 1750 1165 1447 
Q 1200 1144 1275 961 
Q 1350 778 1472 703 
Q 1594 628 1772 628 
Q 1944 628 2066 703 
Q 2188 778 2266 961 
Q 2344 1144 2380 1447 
Q 2416 1750 2416 2203 
z
" id="LiberationSans-Bold-30" transform="scale(0.015625)"/>
      <path d="M 3328 1222 
Q 3328 922 3229 683 
Q 3131 444 2934 275 
Q 2738 106 2445 17 
Q 2153 -72 1766 -72 
Q 1334 -72 1039 37 
Q 744 147 555 326 
Q 366 506 270 734 
Q 175 963 147 1197 
L 1041 1275 
Q 1059 1134 1111 1017 
Q 1163 900 1250 815 
Q 1338 731 1464 686 
Q 1591 641 1763 641 
Q 2078 641 2253 797 
Q 2428 953 2428 1275 
Q 2428 1472 2345 1590 
Q 2263 1709 2136 1773 
Q 2009 1838 1862 1859 
Q 1716 1881 1584 1881 
L 1278 1881 
L 1278 2591 
L 1566 2591 
Q 1697 2591 1833 2616 
Q 1969 2641 2078 2706 
Q 2188 2772 2256 2889 
Q 2325 3006 2325 3188 
Q 2325 3459 2173 3614 
Q 2022 3769 1731 3769 
Q 1459 3769 1292 3619 
Q 1125 3469 1100 3194 
L 222 3256 
Q 259 3566 392 3794 
Q 525 4022 726 4172 
Q 928 4322 1190 4395 
Q 1453 4469 1747 4469 
Q 2134 4469 2412 4375 
Q 2691 4281 2869 4122 
Q 3047 3963 3131 3750 
Q 3216 3538 3216 3297 
Q 3216 3103 3159 2936 
Q 3103 2769 2989 2636 
Q 2875 2503 2697 2408 
Q 2519 2313 2275 2266 
L 2275 2253 
Q 2547 2222 2747 2130 
Q 2947 2038 3075 1900 
Q 3203 1763 3265 1589 
Q 3328 1416 3328 1222 
z
" id="LiberationSans-Bold-33" transform="scale(0.015625)"/>
      <path d="M 3453 0 
L 2431 1672 
L 1350 1672 
L 1350 0 
L 428 0 
L 428 4403 
L 2628 4403 
Q 3041 4403 3348 4311 
Q 3656 4219 3862 4048 
Q 4069 3878 4170 3636 
Q 4272 3394 4272 3091 
Q 4272 2844 4198 2639 
Q 4125 2434 3995 2275 
Q 3866 2116 3687 2008 
Q 3509 1900 3300 1850 
L 4491 0 
L 3453 0 
z
M 3344 3053 
Q 3344 3375 3133 3531 
Q 2922 3688 2531 3688 
L 1350 3688 
L 1350 2388 
L 2556 2388 
Q 2763 2388 2911 2436 
Q 3059 2484 3154 2573 
Q 3250 2663 3297 2784 
Q 3344 2906 3344 3053 
z
" id="LiberationSans-Bold-52" transform="scale(0.015625)"/>
      <path d="M 3363 1241 
Q 3363 956 3269 717 
Q 3175 478 2981 304 
Q 2788 131 2491 34 
Q 2194 -63 1784 -63 
Q 1378 -63 1079 34 
Q 781 131 586 304 
Q 391 478 297 715 
Q 203 953 203 1234 
Q 203 1475 278 1661 
Q 353 1847 478 1981 
Q 603 2116 765 2195 
Q 928 2275 1100 2303 
L 1100 2316 
Q 916 2356 769 2450 
Q 622 2544 519 2675 
Q 416 2806 361 2967 
Q 306 3128 306 3303 
Q 306 3566 401 3781 
Q 497 3997 681 4150 
Q 866 4303 1139 4386 
Q 1413 4469 1772 4469 
Q 2156 4469 2436 4383 
Q 2716 4297 2897 4142 
Q 3078 3988 3165 3772 
Q 3253 3556 3253 3297 
Q 3253 3125 3198 2964 
Q 3144 2803 3041 2672 
Q 2938 2541 2789 2450 
Q 2641 2359 2453 2322 
L 2453 2309 
Q 2647 2278 2814 2195 
Q 2981 2113 3103 1980 
Q 3225 1847 3294 1661 
Q 3363 1475 3363 1241 
z
M 2350 3250 
Q 2350 3381 2322 3492 
Q 2294 3603 2228 3683 
Q 2163 3763 2052 3808 
Q 1941 3853 1772 3853 
Q 1609 3853 1500 3808 
Q 1391 3763 1325 3683 
Q 1259 3603 1231 3492 
Q 1203 3381 1203 3250 
Q 1203 3134 1226 3021 
Q 1250 2909 1312 2820 
Q 1375 2731 1487 2675 
Q 1600 2619 1778 2619 
Q 1966 2619 2080 2675 
Q 2194 2731 2253 2822 
Q 2313 2913 2331 3025 
Q 2350 3138 2350 3250 
z
M 2453 1313 
Q 2453 1447 2423 1572 
Q 2394 1697 2317 1792 
Q 2241 1888 2106 1945 
Q 1972 2003 1766 2003 
Q 1578 2003 1451 1945 
Q 1325 1888 1248 1791 
Q 1172 1694 1139 1567 
Q 1106 1441 1106 1300 
Q 1106 1134 1139 996 
Q 1172 859 1251 761 
Q 1331 663 1462 609 
Q 1594 556 1791 556 
Q 1988 556 2116 611 
Q 2244 666 2319 766 
Q 2394 866 2423 1005 
Q 2453 1144 2453 1313 
z
" id="LiberationSans-Bold-38" transform="scale(0.015625)"/>
     </defs>
     <use xlink:href="#LiberationSans-Bold-50"/>
     <use x="66.699219" xlink:href="#LiberationSans-Bold-65"/>
     <use x="122.314453" xlink:href="#LiberationSans-Bold-72"/>
     <use x="161.230469" xlink:href="#LiberationSans-Bold-69"/>
     <use x="189.013672" xlink:href="#LiberationSans-Bold-6f"/>
     <use x="250.097656" xlink:href="#LiberationSans-Bold-64"/>
     <use x="311.181641" xlink:href="#LiberationSans-Bold-6f"/>
     <use x="372.265625" xlink:href="#LiberationSans-Bold-67"/>
     <use x="433.349609" xlink:href="#LiberationSans-Bold-72"/>
     <use x="472.265625" xlink:href="#LiberationSans-Bold-61"/>
     <use x="527.880859" xlink:href="#LiberationSans-Bold-6d"/>
     <use x="616.796875" xlink:href="#LiberationSans-Bold-3a"/>
     <use x="650.097656" xlink:href="#LiberationSans-Bold-20"/>
     <use x="677.880859" xlink:href="#LiberationSans-Bold-32"/>
     <use x="733.496094" xlink:href="#LiberationSans-Bold-30"/>
     <use x="789.111328" xlink:href="#LiberationSans-Bold-30"/>
     <use x="844.726562" xlink:href="#LiberationSans-Bold-33"/>
     <use x="900.341797" xlink:href="#LiberationSans-Bold-20"/>
     <use x="928.125" xlink:href="#LiberationSans-Bold-52"/>
     <use x="1000.341797" xlink:href="#LiberationSans-Bold-50"/>
     <use x="1067.041016" xlink:href="#LiberationSans-Bold-38"/>
    </g>
   </g>
  </g>
 </g>
 <defs>
  <clipPath id="pd231ce24cf">
   <rect height="332.64" width="558" x="90" y="51.84"/>
  </clipPath>
 </defs>
</svg>
